<?xml version="1.0" encoding="UTF-8"?>
<svg id="_图层_1" data-name="图层 1" xmlns="http://www.w3.org/2000/svg" xmlns:xlink="http://www.w3.org/1999/xlink" viewBox="0 0 120.3 98.45">
  <defs>
    <style>
      .cls-1 {
        stroke-width: .5px;
      }

      .cls-1, .cls-2 {
        stroke: #2ea7e0;
      }

      .cls-1, .cls-2, .cls-3 {
        stroke-linejoin: round;
      }

      .cls-1, .cls-2, .cls-4, .cls-5 {
        fill: #fff;
      }

      .cls-1, .cls-6 {
        stroke-linecap: square;
      }

      .cls-7, .cls-8, .cls-5 {
        stroke-width: 0px;
      }

      .cls-7, .cls-6 {
        fill: none;
      }

      .cls-9 {
        clip-path: url(#clippath-1);
      }

      .cls-3, .cls-8 {
        fill: #000;
      }

      .cls-3, .cls-6 {
        stroke: #000;
        stroke-width: .8px;
      }

      .cls-8 {
        fill-rule: evenodd;
      }

      .cls-10 {
        clip-path: url(#clippath);
      }

      .cls-6 {
        stroke-miterlimit: 10;
      }
    </style>
    <clipPath id="clippath">
      <rect class="cls-7" y="0" width="120.3" height="98.45"/>
    </clipPath>
    <clipPath id="clippath-1">
      <rect class="cls-5" x="29.4" y="7.2" width="83.7" height="55.44"/>
    </clipPath>
  </defs>
  <g class="cls-10">
    <rect class="cls-5" width="120.3" height="98.45"/>
  </g>
  <line class="cls-3" x1="33.21" y1="62.64" x2="33.21" y2="66.14"/>
  <path class="cls-8" d="M31.92,70.02h3.58v.71l-2.53.85c-.24.08-.41.13-.53.17.13.04.32.1.57.19l2.49.86v.64h-3.58v-.46h3l-3-1.04v-.43l3.05-1.04h-3.05v-.46h0Z"/>
  <path class="cls-8" d="M33.07,73.95l.04.45c-.18.02-.33.07-.44.15-.11.08-.21.2-.28.36-.07.16-.1.35-.1.55,0,.18.03.34.08.48.05.14.13.24.22.31.1.07.2.1.31.1s.21-.03.29-.1c.09-.07.16-.17.21-.32.04-.1.1-.31.17-.64.08-.33.15-.56.22-.69.09-.17.2-.3.33-.38.13-.08.28-.12.45-.12.18,0,.35.05.51.15.16.1.28.25.36.45s.12.42.12.66c0,.27-.04.5-.13.7-.09.2-.21.36-.38.47-.17.11-.35.17-.56.18l-.03-.45c.23-.02.4-.11.51-.25.11-.14.17-.35.17-.62s-.05-.5-.16-.63c-.1-.13-.23-.2-.38-.2-.13,0-.23.05-.32.14-.08.09-.17.33-.26.71-.09.39-.16.65-.23.79-.1.21-.22.36-.37.46-.15.1-.31.15-.51.15s-.37-.05-.54-.16-.3-.27-.39-.47c-.09-.2-.14-.43-.14-.69,0-.32.05-.6.14-.82.1-.22.24-.39.42-.52.19-.12.41-.19.64-.2h0Z"/>
  <polygon class="cls-8" points="31.92 77.48 35.5 77.48 35.5 80.07 35.08 80.07 35.08 77.96 33.98 77.96 33.98 79.94 33.56 79.94 33.56 77.96 32.34 77.96 32.34 80.16 31.92 80.16 31.92 77.48 31.92 77.48"/>
  <line class="cls-3" x1="45.89" y1="62.64" x2="45.89" y2="66.14"/>
  <path class="cls-8" d="M44.64,70.02h3.58v.71l-2.53.85c-.24.08-.41.13-.53.17.13.04.32.1.57.19l2.49.86v.64h-3.58v-.46h3l-3-1.04v-.43l3.05-1.04h-3.05v-.46h0Z"/>
  <path class="cls-8" d="M45.79,73.95l.04.45c-.18.02-.33.07-.44.15-.11.08-.21.2-.28.36-.07.16-.1.35-.1.55,0,.18.03.34.08.48.05.14.13.24.22.31.1.07.2.1.31.1s.21-.03.29-.1c.09-.07.16-.17.21-.32.04-.1.1-.31.17-.64.08-.33.15-.56.22-.69.09-.17.2-.3.33-.38.13-.08.28-.12.45-.12.18,0,.35.05.51.15.16.1.28.25.36.45s.12.42.12.66c0,.27-.04.5-.13.7-.09.2-.21.36-.38.47-.17.11-.35.17-.56.18l-.03-.45c.23-.02.4-.11.51-.25.11-.14.17-.35.17-.62s-.05-.5-.16-.63c-.1-.13-.23-.2-.38-.2-.13,0-.23.05-.32.14-.08.09-.17.33-.26.71-.09.39-.16.65-.23.79-.1.21-.22.36-.37.46-.15.1-.31.15-.51.15s-.37-.05-.54-.16-.3-.27-.39-.47c-.09-.2-.14-.43-.14-.69,0-.32.05-.6.14-.82.1-.22.24-.39.42-.52.19-.12.41-.19.64-.2h0Z"/>
  <line class="cls-3" x1="58.57" y1="62.64" x2="58.57" y2="66.14"/>
  <polygon class="cls-8" points="57.36 70.04 60.94 70.04 60.94 72.63 60.52 72.63 60.52 70.52 59.42 70.52 59.42 72.5 59 72.5 59 70.52 57.78 70.52 57.78 72.72 57.36 72.72 57.36 70.04 57.36 70.04"/>
  <line class="cls-3" x1="71.25" y1="62.64" x2="71.25" y2="66.14"/>
  <path class="cls-8" d="M69.84,70.02h3.58v.71l-2.53.85c-.24.08-.41.13-.53.17.13.04.32.1.57.19l2.49.86v.64h-3.58v-.46h3l-3-1.04v-.43l3.05-1.04h-3.05v-.46h0Z"/>
  <path class="cls-8" d="M70.99,73.95l.04.45c-.18.02-.33.07-.44.15-.11.08-.21.2-.28.36-.07.16-.1.35-.1.55,0,.18.03.34.08.48.05.14.13.24.22.31.1.07.2.1.31.1s.21-.03.29-.1c.09-.07.16-.17.21-.32.04-.1.1-.31.17-.64.08-.33.15-.56.22-.69.09-.17.2-.3.33-.38.13-.08.28-.12.45-.12.18,0,.35.05.51.15.16.1.28.25.36.45s.12.42.12.66c0,.27-.04.5-.13.7-.09.2-.21.36-.38.47-.17.11-.35.17-.56.18l-.03-.45c.23-.02.4-.11.51-.25.11-.14.17-.35.17-.62s-.05-.5-.16-.63c-.1-.13-.23-.2-.38-.2-.13,0-.23.05-.32.14-.08.09-.17.33-.26.71-.09.39-.16.65-.23.79-.1.21-.22.36-.37.46-.15.1-.31.15-.51.15s-.37-.05-.54-.16-.3-.27-.39-.47c-.09-.2-.14-.43-.14-.69,0-.32.05-.6.14-.82.1-.22.24-.39.42-.52.19-.12.41-.19.64-.2h0Z"/>
  <path class="cls-8" d="M68.85,77.42h3.59v.4h-.34c.13.1.23.2.3.32s.1.26.1.43c0,.22-.06.42-.17.59-.11.17-.28.3-.48.38-.21.09-.43.13-.68.13-.27,0-.51-.05-.72-.14s-.37-.23-.49-.42c-.11-.18-.17-.37-.17-.57,0-.15.03-.28.09-.4.06-.11.14-.21.23-.29h-1.26v-.44M71.12,77.82c-.33,0-.58.07-.74.2-.16.13-.24.3-.24.49s.08.36.25.5c.17.14.42.21.77.21s.58-.07.74-.21c.16-.13.25-.3.25-.49s-.09-.35-.26-.5c-.17-.14-.43-.21-.76-.21h0Z"/>
  <polygon class="cls-8" points="70.91 80.13 71.36 80.13 71.36 81.48 70.91 81.48 70.91 80.13 70.91 80.13"/>
  <line class="cls-3" x1="83.93" y1="62.64" x2="83.93" y2="66.14"/>
  <path class="cls-8" d="M82.56,70.02h3.58v.71l-2.53.85c-.24.08-.41.13-.53.17.13.04.32.1.57.19l2.49.86v.64h-3.58v-.46h3l-3-1.04v-.43l3.05-1.04h-3.05v-.46h0Z"/>
  <path class="cls-8" d="M83.71,73.95l.04.45c-.18.02-.33.07-.44.15-.11.08-.21.2-.28.36-.07.16-.1.35-.1.55,0,.18.03.34.08.48.05.14.13.24.22.31.1.07.2.1.31.1s.21-.03.29-.1c.09-.07.16-.17.21-.32.04-.1.1-.31.17-.64.08-.33.15-.56.22-.69.09-.17.2-.3.33-.38.13-.08.28-.12.45-.12.18,0,.35.05.51.15.16.1.28.25.36.45s.12.42.12.66c0,.27-.04.5-.13.7-.09.2-.21.36-.38.47-.17.11-.35.17-.56.18l-.03-.45c.23-.02.4-.11.51-.25.11-.14.17-.35.17-.62s-.05-.5-.16-.63c-.1-.13-.23-.2-.38-.2-.13,0-.23.05-.32.14-.08.09-.17.33-.26.71-.09.39-.16.65-.23.79-.1.21-.22.36-.37.46-.15.1-.31.15-.51.15s-.37-.05-.54-.16-.3-.27-.39-.47c-.09-.2-.14-.43-.14-.69,0-.32.05-.6.14-.82.1-.22.24-.39.42-.52.19-.12.41-.19.64-.2h0Z"/>
  <path class="cls-8" d="M82.88,79.11c-.14-.16-.24-.32-.29-.47-.06-.15-.09-.31-.09-.48,0-.29.07-.5.21-.66s.32-.23.53-.23c.13,0,.24.03.35.09.1.06.19.13.25.23.06.1.11.2.14.32.02.09.04.22.07.39.04.35.09.62.15.78.06,0,.1,0,.11,0,.18,0,.31-.04.38-.12.1-.11.15-.28.15-.5,0-.21-.04-.36-.11-.46-.07-.1-.2-.17-.38-.22l.06-.43c.18.04.33.1.44.19.11.09.2.22.26.39.06.17.09.37.09.59s-.03.4-.08.54-.12.24-.2.31c-.08.07-.18.11-.3.14-.08.01-.21.02-.41.02h-.59c-.41,0-.67,0-.78.03-.11.02-.21.06-.31.11v-.46c.09-.05.2-.08.32-.09M83.86,79.07c-.07-.16-.12-.4-.17-.72-.03-.18-.06-.31-.09-.38-.03-.08-.08-.13-.14-.17-.06-.04-.13-.06-.21-.06-.12,0-.21.04-.29.13-.08.09-.12.22-.12.39s.04.32.11.45c.08.13.18.23.31.29.1.05.25.07.44.07h.16Z"/>
  <polygon class="cls-8" points="83.63 80.13 84.08 80.13 84.08 81.48 83.63 81.48 83.63 80.13 83.63 80.13"/>
  <line class="cls-3" x1="96.62" y1="62.64" x2="96.62" y2="66.14"/>
  <polygon class="cls-8" points="95.28 70.04 98.86 70.04 98.86 72.63 98.44 72.63 98.44 70.52 97.34 70.52 97.34 72.5 96.92 72.5 96.92 70.52 95.7 70.52 95.7 72.72 95.28 72.72 95.28 70.04 95.28 70.04"/>
  <path class="cls-8" d="M94.29,73.34h3.59v.4h-.34c.13.1.23.2.3.32.07.12.1.26.1.43,0,.22-.06.42-.17.59-.11.17-.28.3-.48.38-.21.09-.43.13-.68.13-.27,0-.51-.05-.72-.14s-.37-.23-.49-.42c-.11-.18-.17-.37-.17-.57,0-.15.03-.28.09-.4.06-.11.14-.21.23-.29h-1.26v-.44M96.56,73.74c-.33,0-.58.07-.74.2-.16.13-.24.3-.24.49s.08.36.25.5c.17.14.42.21.77.21s.58-.07.74-.21c.16-.13.25-.3.25-.49s-.09-.35-.26-.5c-.17-.14-.43-.21-.76-.21h0Z"/>
  <polygon class="cls-8" points="96.35 75.81 96.8 75.81 96.8 77.16 96.35 77.16 96.35 75.81 96.35 75.81"/>
  <line class="cls-3" x1="109.3" y1="62.64" x2="109.3" y2="66.14"/>
  <polygon class="cls-8" points="108 70.04 111.58 70.04 111.58 72.63 111.16 72.63 111.16 70.52 110.06 70.52 110.06 72.5 109.64 72.5 109.64 70.52 108.42 70.52 108.42 72.72 108 72.72 108 70.04 108 70.04"/>
  <path class="cls-8" d="M108.32,75.03c-.14-.16-.24-.32-.29-.47-.06-.15-.09-.31-.09-.48,0-.29.07-.5.21-.66s.32-.23.53-.23c.13,0,.24.03.35.09.1.06.19.13.25.23.06.1.11.2.14.32.02.09.04.22.07.39.04.35.09.62.15.78.06,0,.1,0,.11,0,.18,0,.31-.04.38-.12.1-.11.15-.28.15-.5,0-.21-.04-.36-.11-.46-.07-.1-.2-.17-.38-.22l.06-.43c.18.04.33.1.44.19.11.09.2.22.26.39.06.17.09.37.09.59s-.03.4-.08.54-.12.24-.2.31c-.08.07-.18.11-.3.14-.08.01-.21.02-.41.02h-.59c-.41,0-.67,0-.78.03-.11.02-.21.06-.31.11v-.46c.09-.05.2-.08.32-.09M109.3,74.99c-.07-.16-.12-.4-.17-.72-.03-.18-.06-.31-.09-.38-.03-.08-.08-.13-.14-.17-.06-.04-.13-.06-.21-.06-.12,0-.21.04-.29.13-.08.09-.12.22-.12.39s.04.32.11.45c.08.13.18.23.31.29.1.05.25.07.44.07h.16Z"/>
  <polygon class="cls-8" points="109.07 75.81 109.52 75.81 109.52 77.16 109.07 77.16 109.07 75.81 109.07 75.81"/>
  <path class="cls-8" d="M63.05,88.54l.57.14c-.12.47-.33.82-.64,1.07-.31.24-.69.37-1.13.37s-.84-.09-1.13-.28c-.29-.19-.51-.46-.66-.82-.15-.36-.23-.74-.23-1.15,0-.45.08-.84.25-1.17.17-.33.42-.59.73-.76.32-.17.67-.26,1.04-.26.43,0,.79.11,1.08.33s.5.53.61.92l-.56.13c-.1-.31-.24-.54-.43-.68s-.43-.21-.71-.21c-.33,0-.61.08-.83.24-.22.16-.38.37-.47.64s-.13.54-.13.82c0,.37.05.69.16.96.11.27.27.47.5.61s.47.2.73.2c.32,0,.59-.09.81-.28s.37-.46.45-.82h0Z"/>
  <path class="cls-8" d="M66.37,89.05l.54.07c-.08.32-.25.57-.48.74s-.53.26-.89.26c-.45,0-.82-.14-1.08-.42-.27-.28-.4-.67-.4-1.18s.13-.93.4-1.22.62-.43,1.05-.43.76.14,1.02.42.4.68.4,1.2c0,.03,0,.08,0,.14h-2.32c.02.34.12.6.29.79s.39.27.65.27c.19,0,.36-.05.5-.15s.25-.26.33-.49M64.63,88.19h1.74c-.02-.26-.09-.46-.2-.59-.17-.2-.39-.3-.65-.3-.24,0-.45.08-.61.24-.16.16-.25.38-.27.65h0Z"/>
  <polygon class="cls-8" points="67.58 90.05 67.58 85.75 68.11 85.75 68.11 90.05 67.58 90.05 67.58 90.05"/>
  <polygon class="cls-8" points="69.02 90.05 69.02 85.75 69.55 85.75 69.55 90.05 69.02 90.05 69.02 90.05"/>
  <path class="cls-8" d="M73.07,89.58l.08.47c-.15.03-.28.05-.4.05-.19,0-.34-.03-.45-.09s-.18-.14-.22-.24c-.04-.1-.06-.31-.06-.62v-1.79h-.39v-.41h.39v-.77l.52-.32v1.09h.53v.41h-.53v1.82c0,.15,0,.25.03.29.02.04.05.08.09.1.04.03.1.04.18.04.06,0,.13,0,.23-.02h0Z"/>
  <path class="cls-8" d="M73.57,91.25l-.06-.5c.11.03.22.05.3.05.12,0,.21-.02.28-.06s.13-.09.17-.16c.03-.05.09-.18.16-.39,0-.03.03-.07.05-.13l-1.18-3.12h.57l.65,1.8c.08.23.16.47.23.72.06-.24.13-.48.22-.71l.67-1.81h.53l-1.18,3.16c-.13.34-.23.58-.3.71-.09.17-.2.3-.32.38-.12.08-.27.12-.43.12-.1,0-.21-.02-.34-.06h0Z"/>
  <path class="cls-8" d="M76.72,91.24v-4.3h.48v.4c.11-.16.24-.28.38-.35s.32-.12.52-.12c.27,0,.5.07.7.21s.36.33.46.58.16.52.16.82c0,.32-.06.61-.17.86s-.28.45-.5.59c-.22.13-.45.2-.69.2-.18,0-.33-.04-.47-.11-.14-.07-.25-.17-.34-.28v1.51h-.53M77.19,88.51c0,.4.08.7.24.89s.36.29.59.29.43-.1.6-.3c.17-.2.25-.51.25-.92s-.08-.69-.25-.89c-.16-.2-.36-.3-.58-.3s-.42.11-.6.32c-.17.21-.26.51-.26.91h0Z"/>
  <path class="cls-8" d="M82.21,89.05l.54.07c-.08.32-.25.57-.48.74s-.53.26-.89.26c-.45,0-.82-.14-1.08-.42-.27-.28-.4-.67-.4-1.18s.13-.93.4-1.22.62-.43,1.05-.43.76.14,1.02.42.4.68.4,1.2c0,.03,0,.08,0,.14h-2.32c.02.34.12.6.29.79s.39.27.65.27c.19,0,.36-.05.5-.15s.25-.26.33-.49M80.47,88.19h1.74c-.02-.26-.09-.46-.2-.59-.17-.2-.39-.3-.65-.3-.24,0-.45.08-.61.24-.16.16-.25.38-.27.65h0Z"/>
  <line class="cls-3" x1="29.4" y1="60.12" x2="25.9" y2="60.12"/>
  <path class="cls-8" d="M17.01,61.02l.44-.06c.05.25.14.43.26.54.12.11.27.16.44.16.21,0,.38-.07.52-.21.14-.14.21-.32.21-.53s-.07-.37-.2-.5c-.13-.13-.3-.2-.5-.2-.08,0-.19.02-.31.05l.05-.39s.05,0,.07,0c.19,0,.36-.05.51-.15s.22-.25.22-.45c0-.16-.05-.3-.16-.4s-.25-.16-.42-.16-.31.05-.43.16-.19.27-.22.48l-.44-.08c.05-.3.18-.52.37-.68.19-.16.43-.24.71-.24.2,0,.38.04.54.13.16.08.29.2.38.34.09.14.13.3.13.46,0,.15-.04.3-.12.42s-.21.23-.37.3c.21.05.38.15.49.31s.18.34.18.58c0,.31-.11.58-.34.8s-.52.32-.86.32c-.31,0-.58-.09-.78-.28s-.32-.43-.35-.73h0Z"/>
  <path class="cls-8" d="M22.2,61.55v.42h-2.37c0-.1.01-.21.05-.31.06-.16.16-.32.29-.48.13-.16.32-.34.58-.54.39-.32.65-.57.79-.76.14-.19.21-.36.21-.53s-.06-.32-.19-.44-.29-.18-.49-.18c-.21,0-.38.06-.51.19s-.19.3-.19.53l-.45-.05c.03-.34.15-.59.35-.77.2-.18.47-.27.81-.27s.62.1.82.29.3.43.3.71c0,.14-.03.28-.09.42s-.16.28-.29.44c-.13.15-.36.36-.68.63-.26.22-.43.37-.51.45-.08.08-.14.16-.19.24h1.76Z"/>
  <line class="cls-3" x1="29.4" y1="9.72" x2="25.9" y2="9.72"/>
  <path class="cls-8" d="M17.01,10.62l.44-.06c.05.25.14.43.26.54.12.11.27.16.44.16.21,0,.38-.07.52-.21.14-.14.21-.32.21-.53s-.07-.37-.2-.5c-.13-.13-.3-.2-.5-.2-.08,0-.19.02-.31.05l.05-.39s.05,0,.07,0c.19,0,.36-.05.51-.15.15-.1.22-.25.22-.45,0-.16-.05-.3-.16-.4-.11-.1-.25-.16-.42-.16s-.31.05-.43.16c-.11.11-.19.27-.22.48l-.44-.08c.05-.3.18-.52.37-.68.19-.16.43-.24.71-.24.2,0,.38.04.54.13.16.08.29.2.38.34.09.14.13.3.13.46,0,.15-.04.3-.12.42-.08.13-.21.23-.37.3.21.05.38.15.49.31s.18.34.18.58c0,.31-.11.58-.34.8-.23.22-.52.32-.86.32-.31,0-.58-.09-.78-.28-.21-.19-.32-.43-.35-.73h0Z"/>
  <path class="cls-8" d="M21.3,11.57v-.86h-1.55v-.4l1.63-2.32h.36v2.32h.48v.4h-.48v.86h-.44M21.3,10.31v-1.61l-1.12,1.61h1.12Z"/>
  <path class="cls-8" d="M11.59,59.27l-1.25-.25v.5h-.44v-.58l-1.06-.22v.8h-.44v-.89l-1.26-.25v-.44l1.26.25v-.92l-1.26-.25v-.44l1.26.25v-.51h.44v.59l1.06.22v-.81h.44v.9l1.25.25v.44l-1.25-.25v.92l1.25.25v.44M9.91,58.49v-.92l-1.06-.22v.92l1.06.22h0Z"/>
  <path class="cls-8" d="M11.52,54.06h-4.29v-1.9c0-.38.04-.67.12-.87.08-.2.21-.36.41-.48s.41-.18.65-.18c.3,0,.56.1.77.3s.34.5.4.91c.07-.15.14-.26.21-.34.15-.17.34-.32.57-.47l1.17-.75v.71l-.89.57c-.26.17-.45.3-.59.41s-.23.21-.29.29-.09.17-.11.26c-.01.06-.02.17-.02.32v.66h1.91v.57M9.12,53.49v-1.22c0-.26-.03-.46-.08-.61-.06-.15-.14-.26-.26-.33-.12-.08-.25-.11-.39-.11-.2,0-.37.07-.5.22-.13.15-.2.38-.2.7v1.36h1.42Z"/>
  <path class="cls-8" d="M10.52,47.68l.07-.54c.32.08.57.25.74.48s.26.53.26.89c0,.45-.14.82-.42,1.08-.28.27-.67.4-1.18.4s-.93-.13-1.22-.4-.43-.62-.43-1.05.14-.76.42-1.02.68-.4,1.2-.4c.03,0,.08,0,.14,0v2.32c.34-.02.6-.12.79-.29s.27-.39.27-.65c0-.19-.05-.36-.15-.5s-.26-.25-.49-.33M9.67,49.42v-1.74c-.26.02-.46.09-.59.2-.2.17-.3.39-.3.65,0,.24.08.45.24.61.16.16.38.25.65.27h0Z"/>
  <path class="cls-8" d="M11.78,46.55l.08-.51c.16-.02.27-.08.35-.18.1-.13.15-.31.15-.54,0-.24-.05-.43-.15-.57s-.23-.22-.41-.27c-.11-.03-.33-.04-.68-.04.27.23.41.52.41.86,0,.43-.16.76-.46.99s-.68.35-1.11.35c-.3,0-.57-.05-.82-.16-.25-.11-.45-.26-.58-.47-.14-.21-.21-.45-.21-.72,0-.37.15-.67.45-.91h-.38v-.49h2.69c.48,0,.83.05,1.03.15.2.1.36.25.48.47s.18.47.18.79c0,.37-.08.67-.25.9s-.42.34-.75.33M9.91,46.11c.41,0,.71-.08.89-.24s.28-.37.28-.61-.09-.45-.28-.61c-.19-.16-.48-.25-.88-.25s-.67.08-.86.25c-.19.17-.29.37-.29.61s.1.43.29.6.47.25.85.25h0Z"/>
  <path class="cls-8" d="M11.52,41.05h-.46c.35.24.53.57.53.99,0,.18-.04.35-.11.52-.07.16-.16.28-.26.35-.11.08-.24.13-.39.16-.1.02-.27.03-.49.03h-1.93v-.53h1.73c.28,0,.46-.01.56-.03.14-.03.25-.1.33-.21s.12-.24.12-.4-.04-.31-.12-.45c-.08-.14-.19-.24-.33-.29-.14-.06-.34-.09-.61-.09h-1.67v-.53h3.11v.47h0Z"/>
  <polygon class="cls-8" points="11.52 39.75 7.23 39.75 7.23 39.22 11.52 39.22 11.52 39.75 11.52 39.75"/>
  <path class="cls-8" d="M11.14,36.26c.17.2.28.38.35.57.07.18.1.37.1.58,0,.34-.08.6-.25.79s-.38.28-.64.28c-.15,0-.29-.04-.42-.1-.13-.07-.23-.16-.3-.27-.08-.11-.13-.24-.17-.38-.03-.1-.05-.26-.08-.47-.05-.42-.11-.74-.18-.94-.07,0-.12,0-.14,0-.21,0-.37.05-.45.15-.12.13-.18.33-.18.6,0,.25.04.43.13.55.08.12.24.21.46.26l-.07.52c-.22-.05-.4-.12-.53-.23-.14-.11-.24-.26-.31-.47s-.11-.44-.11-.71.03-.48.09-.65.14-.29.24-.37c.09-.08.21-.13.36-.16.09-.02.25-.03.49-.03h.7c.49,0,.8-.01.93-.03.13-.02.25-.07.37-.13v.55c-.11.06-.24.09-.38.11M9.96,36.31c.08.19.14.48.2.86.03.22.07.37.11.46s.1.16.17.21c.07.05.16.07.25.07.14,0,.26-.05.35-.16.09-.11.14-.26.14-.47s-.04-.38-.13-.54c-.09-.16-.21-.28-.37-.35-.12-.06-.3-.08-.53-.08h-.19Z"/>
  <path class="cls-8" d="M11.05,34.02l.47-.08c.03.15.05.28.05.4,0,.19-.03.34-.09.45s-.14.18-.24.22c-.1.04-.31.06-.62.06h-1.79v.39h-.41v-.39h-.77l-.32-.52h1.09v-.53h.41v.53h1.82c.15,0,.25,0,.29-.03.04-.02.08-.05.1-.09.03-.04.04-.1.04-.18,0-.06,0-.13-.02-.23h0Z"/>
  <path class="cls-8" d="M9.96,33.69c-.58,0-1-.16-1.28-.48-.23-.27-.35-.59-.35-.98,0-.43.14-.78.42-1.05.28-.27.67-.41,1.16-.41.4,0,.71.06.95.18.23.12.41.29.53.52.13.23.19.48.19.75,0,.44-.14.79-.42,1.06-.28.27-.68.4-1.21.4M9.96,33.15c.4,0,.7-.09.9-.26.2-.17.3-.39.3-.66s-.1-.48-.3-.65-.5-.26-.91-.26c-.38,0-.68.09-.87.26-.2.17-.3.39-.3.65s.1.48.3.66.5.26.89.26h0Z"/>
  <path class="cls-8" d="M11.52,30.14h-3.11v-.47h.47c-.22-.12-.37-.23-.44-.33s-.11-.22-.11-.34c0-.18.06-.36.17-.54l.49.18c-.08.13-.11.26-.11.39,0,.11.04.22.11.31.07.09.16.16.29.2.19.06.39.09.62.09h1.63v.53h0Z"/>
  <path class="cls-8" d="M12.72,28l-.5.06c.03-.11.05-.22.05-.3,0-.12-.02-.21-.06-.28s-.09-.13-.16-.17c-.05-.03-.18-.09-.39-.16-.03,0-.07-.03-.13-.05l-3.12,1.18v-.57l1.8-.65c.23-.08.47-.16.72-.23-.24-.06-.48-.13-.71-.22l-1.81-.67v-.53l3.16,1.18c.34.13.58.23.71.3.17.09.3.2.38.32.08.12.12.27.12.43,0,.1-.02.21-.06.34h0Z"/>
  <path class="cls-8" d="M11.78,23.51l.08-.51c.16-.02.27-.08.35-.18.1-.13.15-.31.15-.54,0-.24-.05-.43-.15-.57s-.23-.22-.41-.27c-.11-.03-.33-.04-.68-.04.27.23.41.52.41.86,0,.43-.16.76-.46.99s-.68.35-1.11.35c-.3,0-.57-.05-.82-.16-.25-.11-.45-.26-.58-.47-.14-.21-.21-.45-.21-.72,0-.37.15-.67.45-.91h-.38v-.49h2.69c.48,0,.83.05,1.03.15.2.1.36.25.48.47s.18.47.18.79c0,.37-.08.67-.25.9s-.42.34-.75.33M9.91,23.07c.41,0,.71-.08.89-.24s.28-.37.28-.61-.09-.45-.28-.61c-.19-.16-.48-.25-.88-.25s-.67.08-.86.25c-.19.17-.29.37-.29.61s.1.43.29.6.47.25.85.25h0Z"/>
  <path class="cls-8" d="M10.52,17.92l.07-.54c.32.08.57.25.74.48s.26.53.26.89c0,.45-.14.82-.42,1.08-.28.27-.67.4-1.18.4s-.93-.13-1.22-.4-.43-.62-.43-1.05.14-.76.42-1.02.68-.4,1.2-.4c.03,0,.08,0,.14,0v2.32c.34-.02.6-.12.79-.29s.27-.39.27-.65c0-.19-.05-.36-.15-.5s-.26-.25-.49-.33M9.67,19.66v-1.74c-.26.02-.46.09-.59.2-.2.17-.3.39-.3.65,0,.24.08.45.24.61.16.16.38.25.65.27h0Z"/>
  <path class="cls-8" d="M11.52,16.69h-3.11v-.47h.44c-.34-.23-.51-.56-.51-.99,0-.19.04-.36.1-.52.07-.16.16-.28.26-.35s.24-.13.39-.16c.1-.02.27-.03.51-.03h1.91v.53h-1.89c-.21,0-.38.02-.48.06-.11.04-.19.11-.25.22-.06.1-.1.23-.1.37,0,.23.07.42.21.58.14.16.41.24.81.24h1.7v.53h0Z"/>
  <path class="cls-8" d="M10.52,11.2l.07-.54c.32.08.57.25.74.48s.26.53.26.89c0,.45-.14.82-.42,1.08-.28.27-.67.4-1.18.4s-.93-.13-1.22-.4-.43-.62-.43-1.05.14-.76.42-1.02.68-.4,1.2-.4c.03,0,.08,0,.14,0v2.32c.34-.02.6-.12.79-.29s.27-.39.27-.65c0-.19-.05-.36-.15-.5s-.26-.25-.49-.33M9.67,12.94v-1.74c-.26.02-.46.09-.59.2-.2.17-.3.39-.3.65,0,.24.08.45.24.61.16.16.38.25.65.27h0Z"/>
  <g>
    <rect class="cls-4" x="29.4" y="7.2" width="83.7" height="55.44"/>
    <g class="cls-9">
      <polyline class="cls-1" points="33.21 9.72 45.89 9.72 58.57 60.12 71.25 60.12 83.93 60.12 96.62 60.12 109.3 9.72"/>
      <path class="cls-2" d="M33.21,11.22c.4,0,.78-.16,1.06-.44.28-.28.44-.66.44-1.06s-.16-.78-.44-1.06c-.28-.28-.66-.44-1.06-.44s-.78.16-1.06.44c-.28.28-.44.66-.44,1.06s.16.78.44,1.06c.28.28.66.44,1.06.44h0ZM45.89,11.22c.4,0,.78-.16,1.06-.44.28-.28.44-.66.44-1.06s-.16-.78-.44-1.06c-.28-.28-.66-.44-1.06-.44s-.78.16-1.06.44c-.28.28-.44.66-.44,1.06s.16.78.44,1.06c.28.28.66.44,1.06.44h0ZM58.57,61.62c.4,0,.78-.16,1.06-.44.28-.28.44-.66.44-1.06s-.16-.78-.44-1.06c-.28-.28-.66-.44-1.06-.44s-.78.16-1.06.44c-.28.28-.44.66-.44,1.06s.16.78.44,1.06c.28.28.66.44,1.06.44h0ZM71.25,61.62c.4,0,.78-.16,1.06-.44.28-.28.44-.66.44-1.06s-.16-.78-.44-1.06c-.28-.28-.66-.44-1.06-.44s-.78.16-1.06.44c-.28.28-.44.66-.44,1.06s.16.78.44,1.06c.28.28.66.44,1.06.44h0ZM83.93,61.62c.4,0,.78-.16,1.06-.44.28-.28.44-.66.44-1.06s-.16-.78-.44-1.06c-.28-.28-.66-.44-1.06-.44s-.78.16-1.06.44c-.28.28-.44.66-.44,1.06s.16.78.44,1.06c.28.28.66.44,1.06.44h0ZM96.62,61.62c.4,0,.78-.16,1.06-.44.28-.28.44-.66.44-1.06s-.16-.78-.44-1.06c-.28-.28-.66-.44-1.06-.44s-.78.16-1.06.44c-.28.28-.44.66-.44,1.06s.16.78.44,1.06c.28.28.66.44,1.06.44h0ZM109.3,11.22c.4,0,.78-.16,1.06-.44s.44-.66.44-1.06-.16-.78-.44-1.06c-.28-.28-.66-.44-1.06-.44s-.78.16-1.06.44c-.28.28-.44.66-.44,1.06s.16.78.44,1.06.66.44,1.06.44h0Z"/>
    </g>
  </g>
  <path class="cls-6" d="M29.4,62.64V7.2M113.1,62.64V7.2M29.4,62.64h83.7M29.4,7.2h83.7"/>
</svg>