<?xml version="1.0" encoding="UTF-8"?>
<svg id="_图层_1" data-name="图层 1" xmlns="http://www.w3.org/2000/svg" version="1.1" xmlns:xlink="http://www.w3.org/1999/xlink" viewBox="0 0 189 109.5">
  <defs>
    <style>
      .cls-1 {
        fill: red;
        stroke: #8b0000;
        stroke-width: 2.5px;
      }

      .cls-1, .cls-2 {
        stroke-miterlimit: 10;
      }

      .cls-3, .cls-4, .cls-5, .cls-6 {
        stroke-width: 0px;
      }

      .cls-3, .cls-2 {
        fill: none;
      }

      .cls-4 {
        fill: #a8cdd9;
      }

      .cls-7 {
        stroke-linejoin: round;
      }

      .cls-7, .cls-5 {
        fill: #000;
      }

      .cls-7, .cls-2 {
        stroke: #000;
        stroke-width: .8px;
      }

      .cls-5 {
        fill-rule: evenodd;
      }

      .cls-8 {
        clip-path: url(#clippath);
      }

      .cls-2 {
        stroke-linecap: square;
      }

      .cls-6 {
        fill: #fff;
      }
    </style>
    <clipPath id="clippath">
      <rect class="cls-3" width="181.7" height="109.5"/>
    </clipPath>
  </defs>
  <g class="cls-8">
    <rect class="cls-6" y="0" width="181.7" height="109.5"/>
  </g>
  <rect class="cls-6" x="26.4" y="7.2" width="148.1" height="74.4"/>
  <rect class="cls-4" x="33.2" y="81.6" width=".2"/>
  <rect class="cls-4" x="33.3" y="81.6" width=".2"/>
  <rect class="cls-4" x="33.5" y="81.6" width=".2"/>
  <rect class="cls-4" x="33.7" y="81.6" width=".2"/>
  <rect class="cls-4" x="33.9" y="78.8" width=".2" height="2.8"/>
  <rect class="cls-4" x="34.1" y="78.8" width=".2" height="2.8"/>
  <rect class="cls-4" x="34.3" y="78.8" width=".2" height="2.8"/>
  <rect class="cls-4" x="34.5" y="78.8" width=".2" height="2.8"/>
  <rect class="cls-4" x="34.7" y="76" width=".2" height="5.6"/>
  <rect class="cls-4" x="34.8" y="76" width=".2" height="5.6"/>
  <rect class="cls-4" x="35" y="74.6" width=".2" height="6.9"/>
  <rect class="cls-4" x="35.2" y="74.6" width=".2" height="6.9"/>
  <rect class="cls-4" x="35.4" y="74.6" width=".2" height="6.9"/>
  <rect class="cls-4" x="35.6" y="74.6" width=".2" height="6.9"/>
  <rect class="cls-4" x="35.8" y="73.3" width=".2" height="8.3"/>
  <rect class="cls-4" x="36" y="73.3" width=".2" height="8.3"/>
  <rect class="cls-4" x="36.2" y="71.9" width=".2" height="9.7"/>
  <rect class="cls-4" x="36.3" y="71.9" width=".2" height="9.7"/>
  <rect class="cls-4" x="36.5" y="71.9" width=".2" height="9.7"/>
  <rect class="cls-4" x="36.7" y="71.9" width=".2" height="9.7"/>
  <rect class="cls-4" x="36.9" y="71.9" width=".2" height="9.7"/>
  <rect class="cls-4" x="37.1" y="71.9" width=".2" height="9.7"/>
  <rect class="cls-4" x="37.3" y="70.5" width=".2" height="11.1"/>
  <rect class="cls-4" x="37.5" y="70.5" width=".2" height="11.1"/>
  <rect class="cls-4" x="37.7" y="69.1" width=".2" height="12.5"/>
  <rect class="cls-4" x="37.8" y="69.1" width=".2" height="12.5"/>
  <rect class="cls-4" x="38" y="69.1" width=".2" height="12.5"/>
  <rect class="cls-4" x="38.2" y="69.1" width=".2" height="12.5"/>
  <rect class="cls-4" x="38.4" y="69.1" width=".2" height="12.5"/>
  <rect class="cls-4" x="38.6" y="69.1" width=".2" height="12.5"/>
  <rect class="cls-4" x="38.8" y="69.1" width=".2" height="12.5"/>
  <rect class="cls-4" x="39" y="69.1" width=".2" height="12.5"/>
  <rect class="cls-4" x="39.1" y="69.1" width=".2" height="12.5"/>
  <rect class="cls-4" x="39.3" y="69.1" width=".2" height="12.5"/>
  <rect class="cls-4" x="39.5" y="67.7" width=".2" height="13.9"/>
  <rect class="cls-4" x="39.7" y="67.7" width=".2" height="13.9"/>
  <rect class="cls-4" x="39.9" y="67.7" width=".2" height="13.9"/>
  <rect class="cls-4" x="40.1" y="67.7" width=".2" height="13.9"/>
  <rect class="cls-4" x="40.3" y="67.7" width=".2" height="13.9"/>
  <rect class="cls-4" x="40.5" y="67.7" width=".2" height="13.9"/>
  <rect class="cls-4" x="40.6" y="67.7" width=".2" height="13.9"/>
  <rect class="cls-4" x="40.8" y="67.7" width=".2" height="13.9"/>
  <rect class="cls-4" x="41" y="67.7" width=".2" height="13.9"/>
  <rect class="cls-4" x="41.2" y="67.7" width=".2" height="13.9"/>
  <rect class="cls-4" x="41.4" y="67.7" width=".2" height="13.9"/>
  <rect class="cls-4" x="41.6" y="67.7" width=".2" height="13.9"/>
  <rect class="cls-4" x="41.8" y="67.7" width=".2" height="13.9"/>
  <rect class="cls-4" x="42" y="67.7" width=".2" height="13.9"/>
  <rect class="cls-4" x="42.1" y="66.3" width=".2" height="15.3"/>
  <rect class="cls-4" x="42.3" y="66.3" width=".2" height="15.3"/>
  <rect class="cls-4" x="42.5" y="66.3" width=".2" height="15.3"/>
  <rect class="cls-4" x="42.7" y="66.3" width=".2" height="15.3"/>
  <rect class="cls-4" x="42.9" y="66.3" width=".2" height="15.3"/>
  <rect class="cls-4" x="43.1" y="66.3" width=".2" height="15.3"/>
  <rect class="cls-4" x="43.3" y="66.3" width=".2" height="15.3"/>
  <rect class="cls-4" x="43.4" y="66.3" width=".2" height="15.3"/>
  <rect class="cls-4" x="43.6" y="66.3" width=".2" height="15.3"/>
  <rect class="cls-4" x="43.8" y="66.3" width=".2" height="15.3"/>
  <rect class="cls-4" x="44" y="64.9" width=".2" height="16.7"/>
  <rect class="cls-4" x="44.2" y="64.9" width=".2" height="16.7"/>
  <rect class="cls-4" x="44.4" y="64.9" width=".2" height="16.7"/>
  <rect class="cls-4" x="44.6" y="64.9" width=".2" height="16.7"/>
  <rect class="cls-4" x="44.8" y="64.9" width=".2" height="16.7"/>
  <rect class="cls-4" x="44.9" y="64.9" width=".2" height="16.7"/>
  <rect class="cls-4" x="45.1" y="64.9" width=".2" height="16.7"/>
  <rect class="cls-4" x="45.3" y="64.9" width=".2" height="16.7"/>
  <rect class="cls-4" x="45.5" y="64.9" width=".2" height="16.7"/>
  <rect class="cls-4" x="45.7" y="64.9" width=".2" height="16.7"/>
  <rect class="cls-4" x="45.9" y="64.9" width=".2" height="16.7"/>
  <rect class="cls-4" x="46.1" y="64.9" width=".2" height="16.7"/>
  <rect class="cls-4" x="46.3" y="64.9" width=".2" height="16.7"/>
  <rect class="cls-4" x="46.4" y="64.9" width=".2" height="16.7"/>
  <rect class="cls-4" x="46.6" y="64.9" width=".2" height="16.7"/>
  <rect class="cls-4" x="46.8" y="64.9" width=".2" height="16.7"/>
  <rect class="cls-4" x="47" y="64.9" width=".2" height="16.7"/>
  <rect class="cls-4" x="47.2" y="64.9" width=".2" height="16.7"/>
  <rect class="cls-4" x="47.4" y="64.9" width=".2" height="16.7"/>
  <rect class="cls-4" x="47.6" y="64.9" width=".2" height="16.7"/>
  <rect class="cls-4" x="47.7" y="63.5" width=".2" height="18.1"/>
  <rect class="cls-4" x="47.9" y="63.5" width=".2" height="18.1"/>
  <rect class="cls-4" x="48.1" y="63.5" width=".2" height="18.1"/>
  <rect class="cls-4" x="48.3" y="63.5" width=".2" height="18.1"/>
  <rect class="cls-4" x="48.5" y="63.5" width=".2" height="18.1"/>
  <rect class="cls-4" x="48.7" y="63.5" width=".2" height="18.1"/>
  <rect class="cls-4" x="48.9" y="63.5" width=".2" height="18.1"/>
  <rect class="cls-4" x="49.1" y="63.5" width=".2" height="18.1"/>
  <rect class="cls-4" x="49.2" y="63.5" width=".2" height="18.1"/>
  <rect class="cls-4" x="49.4" y="63.5" width=".2" height="18.1"/>
  <rect class="cls-4" x="49.6" y="63.5" width=".2" height="18.1"/>
  <rect class="cls-4" x="49.8" y="63.5" width=".2" height="18.1"/>
  <rect class="cls-4" x="50" y="63.5" width=".2" height="18.1"/>
  <rect class="cls-4" x="50.2" y="63.5" width=".2" height="18.1"/>
  <rect class="cls-4" x="50.4" y="62.1" width=".2" height="19.4"/>
  <rect class="cls-4" x="50.6" y="62.1" width=".2" height="19.4"/>
  <rect class="cls-4" x="50.7" y="62.1" width=".2" height="19.4"/>
  <rect class="cls-4" x="50.9" y="62.1" width=".2" height="19.4"/>
  <rect class="cls-4" x="51.1" y="62.1" width=".2" height="19.4"/>
  <rect class="cls-4" x="51.3" y="62.1" width=".2" height="19.4"/>
  <rect class="cls-4" x="51.5" y="62.1" width=".2" height="19.4"/>
  <rect class="cls-4" x="51.7" y="62.1" width=".2" height="19.4"/>
  <rect class="cls-4" x="51.9" y="62.1" width=".2" height="19.4"/>
  <rect class="cls-4" x="52" y="62.1" width=".2" height="19.4"/>
  <rect class="cls-4" x="52.2" y="62.1" width=".2" height="19.4"/>
  <rect class="cls-4" x="52.4" y="62.1" width=".2" height="19.4"/>
  <rect class="cls-4" x="52.6" y="62.1" width=".2" height="19.4"/>
  <rect class="cls-4" x="52.8" y="62.1" width=".2" height="19.4"/>
  <rect class="cls-4" x="53" y="62.1" width=".2" height="19.4"/>
  <rect class="cls-4" x="53.2" y="62.1" width=".2" height="19.4"/>
  <rect class="cls-4" x="53.4" y="62.1" width=".2" height="19.4"/>
  <rect class="cls-4" x="53.5" y="62.1" width=".2" height="19.4"/>
  <rect class="cls-4" x="53.7" y="62.1" width=".2" height="19.4"/>
  <rect class="cls-4" x="53.9" y="62.1" width=".2" height="19.4"/>
  <rect class="cls-4" x="54.1" y="62.1" width=".2" height="19.4"/>
  <rect class="cls-4" x="54.3" y="62.1" width=".2" height="19.4"/>
  <rect class="cls-4" x="54.5" y="62.1" width=".2" height="19.4"/>
  <rect class="cls-4" x="54.7" y="62.1" width=".2" height="19.4"/>
  <rect class="cls-4" x="54.9" y="62.1" width=".2" height="19.4"/>
  <rect class="cls-4" x="55" y="62.1" width=".2" height="19.4"/>
  <rect class="cls-4" x="55.2" y="62.1" width=".2" height="19.4"/>
  <rect class="cls-4" x="55.4" y="62.1" width=".2" height="19.4"/>
  <rect class="cls-4" x="55.6" y="62.1" width=".2" height="19.4"/>
  <rect class="cls-4" x="55.8" y="62.1" width=".2" height="19.4"/>
  <rect class="cls-4" x="56" y="60.8" width=".2" height="20.8"/>
  <rect class="cls-4" x="56.2" y="60.8" width=".2" height="20.8"/>
  <rect class="cls-4" x="56.3" y="60.8" width=".2" height="20.8"/>
  <rect class="cls-4" x="56.5" y="60.8" width=".2" height="20.8"/>
  <rect class="cls-4" x="56.7" y="60.8" width=".2" height="20.8"/>
  <rect class="cls-4" x="56.9" y="60.8" width=".2" height="20.8"/>
  <rect class="cls-4" x="57.1" y="60.8" width=".2" height="20.8"/>
  <rect class="cls-4" x="57.3" y="60.8" width=".2" height="20.8"/>
  <rect class="cls-4" x="57.5" y="60.8" width=".2" height="20.8"/>
  <rect class="cls-4" x="57.7" y="60.8" width=".2" height="20.8"/>
  <rect class="cls-4" x="57.8" y="60.8" width=".2" height="20.8"/>
  <rect class="cls-4" x="58" y="60.8" width=".2" height="20.8"/>
  <rect class="cls-4" x="58.2" y="59.4" width=".2" height="22.2"/>
  <rect class="cls-4" x="58.4" y="59.4" width=".2" height="22.2"/>
  <rect class="cls-4" x="58.6" y="59.4" width=".2" height="22.2"/>
  <rect class="cls-4" x="58.8" y="59.4" width=".2" height="22.2"/>
  <rect class="cls-4" x="59" y="59.4" width=".2" height="22.2"/>
  <rect class="cls-4" x="59.2" y="59.4" width=".2" height="22.2"/>
  <rect class="cls-4" x="59.3" y="59.4" width=".2" height="22.2"/>
  <rect class="cls-4" x="59.5" y="59.4" width=".2" height="22.2"/>
  <rect class="cls-4" x="59.7" y="59.4" width=".2" height="22.2"/>
  <rect class="cls-4" x="59.9" y="59.4" width=".2" height="22.2"/>
  <rect class="cls-4" x="60.1" y="59.4" width=".2" height="22.2"/>
  <rect class="cls-4" x="60.3" y="59.4" width=".2" height="22.2"/>
  <rect class="cls-4" x="60.5" y="58" width=".2" height="23.6"/>
  <rect class="cls-4" x="60.6" y="58" width=".2" height="23.6"/>
  <rect class="cls-4" x="60.8" y="58" width=".2" height="23.6"/>
  <rect class="cls-4" x="61" y="58" width=".2" height="23.6"/>
  <rect class="cls-4" x="61.2" y="58" width=".2" height="23.6"/>
  <rect class="cls-4" x="61.4" y="58" width=".2" height="23.6"/>
  <rect class="cls-4" x="61.6" y="58" width=".2" height="23.6"/>
  <rect class="cls-4" x="61.8" y="58" width=".2" height="23.6"/>
  <rect class="cls-4" x="62" y="58" width=".2" height="23.6"/>
  <rect class="cls-4" x="62.1" y="58" width=".2" height="23.6"/>
  <rect class="cls-4" x="62.3" y="58" width=".2" height="23.6"/>
  <rect class="cls-4" x="62.5" y="58" width=".2" height="23.6"/>
  <rect class="cls-4" x="62.7" y="58" width=".2" height="23.6"/>
  <rect class="cls-4" x="62.9" y="58" width=".2" height="23.6"/>
  <rect class="cls-4" x="63.1" y="56.6" width=".2" height="25"/>
  <rect class="cls-4" x="63.3" y="56.6" width=".2" height="25"/>
  <rect class="cls-4" x="63.5" y="56.6" width=".2" height="25"/>
  <rect class="cls-4" x="63.6" y="56.6" width=".2" height="25"/>
  <rect class="cls-4" x="63.8" y="56.6" width=".2" height="25"/>
  <rect class="cls-4" x="64" y="56.6" width=".2" height="25"/>
  <rect class="cls-4" x="64.2" y="56.6" width=".2" height="25"/>
  <rect class="cls-4" x="64.4" y="56.6" width=".2" height="25"/>
  <rect class="cls-4" x="64.6" y="56.6" width=".2" height="25"/>
  <rect class="cls-4" x="64.8" y="56.6" width=".2" height="25"/>
  <rect class="cls-4" x="64.9" y="56.6" width=".2" height="25"/>
  <rect class="cls-4" x="65.1" y="56.6" width=".2" height="25"/>
  <rect class="cls-4" x="65.3" y="56.6" width=".2" height="25"/>
  <rect class="cls-4" x="65.5" y="56.6" width=".2" height="25"/>
  <rect class="cls-4" x="65.7" y="56.6" width=".2" height="25"/>
  <rect class="cls-4" x="65.9" y="56.6" width=".2" height="25"/>
  <rect class="cls-4" x="66.1" y="56.6" width=".2" height="25"/>
  <rect class="cls-4" x="66.3" y="56.6" width=".2" height="25"/>
  <rect class="cls-4" x="66.4" y="55.2" width=".2" height="26.4"/>
  <rect class="cls-4" x="66.6" y="55.2" width=".2" height="26.4"/>
  <rect class="cls-4" x="66.8" y="55.2" width=".2" height="26.4"/>
  <rect class="cls-4" x="67" y="55.2" width=".2" height="26.4"/>
  <rect class="cls-4" x="67.2" y="55.2" width=".2" height="26.4"/>
  <rect class="cls-4" x="67.4" y="55.2" width=".2" height="26.4"/>
  <rect class="cls-4" x="67.6" y="55.2" width=".2" height="26.4"/>
  <rect class="cls-4" x="67.8" y="55.2" width=".2" height="26.4"/>
  <rect class="cls-4" x="67.9" y="55.2" width=".2" height="26.4"/>
  <rect class="cls-4" x="68.1" y="55.2" width=".2" height="26.4"/>
  <rect class="cls-4" x="68.3" y="55.2" width=".2" height="26.4"/>
  <rect class="cls-4" x="68.5" y="55.2" width=".2" height="26.4"/>
  <rect class="cls-4" x="68.7" y="55.2" width=".2" height="26.4"/>
  <rect class="cls-4" x="68.9" y="55.2" width=".2" height="26.4"/>
  <rect class="cls-4" x="69.1" y="55.2" width=".2" height="26.4"/>
  <rect class="cls-4" x="69.3" y="55.2" width=".2" height="26.4"/>
  <rect class="cls-4" x="69.4" y="55.2" width=".2" height="26.4"/>
  <rect class="cls-4" x="69.6" y="55.2" width=".2" height="26.4"/>
  <rect class="cls-4" x="69.8" y="55.2" width=".2" height="26.4"/>
  <rect class="cls-4" x="70" y="55.2" width=".2" height="26.4"/>
  <rect class="cls-4" x="70.2" y="55.2" width=".2" height="26.4"/>
  <rect class="cls-4" x="70.4" y="55.2" width=".2" height="26.4"/>
  <rect class="cls-4" x="70.6" y="53.8" width=".2" height="27.8"/>
  <rect class="cls-4" x="70.7" y="53.8" width=".2" height="27.8"/>
  <rect class="cls-4" x="70.9" y="53.8" width=".2" height="27.8"/>
  <rect class="cls-4" x="71.1" y="53.8" width=".2" height="27.8"/>
  <rect class="cls-4" x="71.3" y="53.8" width=".2" height="27.8"/>
  <rect class="cls-4" x="71.5" y="53.8" width=".2" height="27.8"/>
  <rect class="cls-4" x="71.7" y="53.8" width=".2" height="27.8"/>
  <rect class="cls-4" x="71.9" y="53.8" width=".2" height="27.8"/>
  <rect class="cls-4" x="72.1" y="53.8" width=".2" height="27.8"/>
  <rect class="cls-4" x="72.2" y="53.8" width=".2" height="27.8"/>
  <rect class="cls-4" x="72.4" y="53.8" width=".2" height="27.8"/>
  <rect class="cls-4" x="72.6" y="53.8" width=".2" height="27.8"/>
  <rect class="cls-4" x="72.8" y="53.8" width=".2" height="27.8"/>
  <rect class="cls-4" x="73" y="53.8" width=".2" height="27.8"/>
  <rect class="cls-4" x="73.2" y="53.8" width=".2" height="27.8"/>
  <rect class="cls-4" x="73.4" y="53.8" width=".2" height="27.8"/>
  <rect class="cls-4" x="73.6" y="53.8" width=".2" height="27.8"/>
  <rect class="cls-4" x="73.7" y="53.8" width=".2" height="27.8"/>
  <rect class="cls-4" x="73.9" y="53.8" width=".2" height="27.8"/>
  <rect class="cls-4" x="74.1" y="53.8" width=".2" height="27.8"/>
  <rect class="cls-4" x="74.3" y="53.8" width=".2" height="27.8"/>
  <rect class="cls-4" x="74.5" y="53.8" width=".2" height="27.8"/>
  <rect class="cls-4" x="74.7" y="53.8" width=".2" height="27.8"/>
  <rect class="cls-4" x="74.9" y="53.8" width=".2" height="27.8"/>
  <rect class="cls-4" x="75" y="53.8" width=".2" height="27.8"/>
  <rect class="cls-4" x="75.2" y="53.8" width=".2" height="27.8"/>
  <rect class="cls-4" x="75.4" y="53.8" width=".2" height="27.8"/>
  <rect class="cls-4" x="75.6" y="53.8" width=".2" height="27.8"/>
  <rect class="cls-4" x="75.8" y="53.8" width=".2" height="27.8"/>
  <rect class="cls-4" x="76" y="53.8" width=".2" height="27.8"/>
  <rect class="cls-4" x="76.2" y="53.8" width=".2" height="27.8"/>
  <rect class="cls-4" x="76.4" y="53.8" width=".2" height="27.8"/>
  <rect class="cls-4" x="76.5" y="53.8" width=".2" height="27.8"/>
  <rect class="cls-4" x="76.7" y="53.8" width=".2" height="27.8"/>
  <rect class="cls-4" x="76.9" y="52.4" width=".2" height="29.2"/>
  <rect class="cls-4" x="77.1" y="52.4" width=".2" height="29.2"/>
  <rect class="cls-4" x="77.3" y="52.4" width=".2" height="29.2"/>
  <rect class="cls-4" x="77.5" y="52.4" width=".2" height="29.2"/>
  <rect class="cls-4" x="77.7" y="52.4" width=".2" height="29.2"/>
  <rect class="cls-4" x="77.9" y="52.4" width=".2" height="29.2"/>
  <rect class="cls-4" x="78" y="52.4" width=".2" height="29.2"/>
  <rect class="cls-4" x="78.2" y="52.4" width=".2" height="29.2"/>
  <rect class="cls-4" x="78.4" y="52.4" width=".2" height="29.2"/>
  <rect class="cls-4" x="78.6" y="52.4" width=".2" height="29.2"/>
  <rect class="cls-4" x="78.8" y="52.4" width=".2" height="29.2"/>
  <rect class="cls-4" x="79" y="52.4" width=".2" height="29.2"/>
  <rect class="cls-4" x="79.2" y="52.4" width=".2" height="29.2"/>
  <rect class="cls-4" x="79.3" y="52.4" width=".2" height="29.2"/>
  <rect class="cls-4" x="79.5" y="52.4" width=".2" height="29.2"/>
  <rect class="cls-4" x="79.7" y="52.4" width=".2" height="29.2"/>
  <rect class="cls-4" x="79.9" y="52.4" width=".2" height="29.2"/>
  <rect class="cls-4" x="80.1" y="52.4" width=".2" height="29.2"/>
  <rect class="cls-4" x="80.3" y="52.4" width=".2" height="29.2"/>
  <rect class="cls-4" x="80.5" y="52.4" width=".2" height="29.2"/>
  <rect class="cls-4" x="80.7" y="52.4" width=".2" height="29.2"/>
  <rect class="cls-4" x="80.8" y="52.4" width=".2" height="29.2"/>
  <rect class="cls-4" x="81" y="52.4" width=".2" height="29.2"/>
  <rect class="cls-4" x="81.2" y="52.4" width=".2" height="29.2"/>
  <rect class="cls-4" x="81.4" y="52.4" width=".2" height="29.2"/>
  <rect class="cls-4" x="81.6" y="52.4" width=".2" height="29.2"/>
  <rect class="cls-4" x="81.8" y="51" width=".2" height="30.6"/>
  <rect class="cls-4" x="82" y="51" width=".2" height="30.6"/>
  <rect class="cls-4" x="82.2" y="51" width=".2" height="30.6"/>
  <rect class="cls-4" x="82.3" y="51" width=".2" height="30.6"/>
  <rect class="cls-4" x="82.5" y="51" width=".2" height="30.6"/>
  <rect class="cls-4" x="82.7" y="51" width=".2" height="30.6"/>
  <rect class="cls-4" x="82.9" y="51" width=".2" height="30.6"/>
  <rect class="cls-4" x="83.1" y="51" width=".2" height="30.6"/>
  <rect class="cls-4" x="83.3" y="51" width=".2" height="30.6"/>
  <rect class="cls-4" x="83.5" y="51" width=".2" height="30.6"/>
  <rect class="cls-4" x="83.6" y="51" width=".2" height="30.6"/>
  <rect class="cls-4" x="83.8" y="51" width=".2" height="30.6"/>
  <rect class="cls-4" x="84" y="51" width=".2" height="30.6"/>
  <rect class="cls-4" x="84.2" y="51" width=".2" height="30.6"/>
  <rect class="cls-4" x="84.4" y="51" width=".2" height="30.6"/>
  <rect class="cls-4" x="84.6" y="51" width=".2" height="30.6"/>
  <rect class="cls-4" x="84.8" y="51" width=".2" height="30.6"/>
  <rect class="cls-4" x="85" y="51" width=".2" height="30.6"/>
  <rect class="cls-4" x="85.1" y="51" width=".2" height="30.6"/>
  <rect class="cls-4" x="85.3" y="51" width=".2" height="30.6"/>
  <rect class="cls-4" x="85.5" y="51" width=".2" height="30.6"/>
  <rect class="cls-4" x="85.7" y="51" width=".2" height="30.6"/>
  <rect class="cls-4" x="85.9" y="51" width=".2" height="30.6"/>
  <rect class="cls-4" x="86.1" y="51" width=".2" height="30.6"/>
  <rect class="cls-4" x="86.3" y="51" width=".2" height="30.6"/>
  <rect class="cls-4" x="86.5" y="51" width=".2" height="30.6"/>
  <rect class="cls-4" x="86.6" y="51" width=".2" height="30.6"/>
  <rect class="cls-4" x="86.8" y="51" width=".2" height="30.6"/>
  <rect class="cls-4" x="87" y="51" width=".2" height="30.6"/>
  <rect class="cls-4" x="87.2" y="51" width=".2" height="30.6"/>
  <rect class="cls-4" x="87.4" y="51" width=".2" height="30.6"/>
  <rect class="cls-4" x="87.6" y="51" width=".2" height="30.6"/>
  <rect class="cls-4" x="87.8" y="51" width=".2" height="30.6"/>
  <rect class="cls-4" x="87.9" y="51" width=".2" height="30.6"/>
  <rect class="cls-4" x="88.1" y="51" width=".2" height="30.6"/>
  <rect class="cls-4" x="88.3" y="51" width=".2" height="30.6"/>
  <rect class="cls-4" x="88.5" y="51" width=".2" height="30.6"/>
  <rect class="cls-4" x="88.7" y="51" width=".2" height="30.6"/>
  <rect class="cls-4" x="88.9" y="51" width=".2" height="30.6"/>
  <rect class="cls-4" x="89.1" y="51" width=".2" height="30.6"/>
  <rect class="cls-4" x="89.3" y="51" width=".2" height="30.6"/>
  <rect class="cls-4" x="89.4" y="51" width=".2" height="30.6"/>
  <rect class="cls-4" x="89.6" y="51" width=".2" height="30.6"/>
  <rect class="cls-4" x="89.8" y="51" width=".2" height="30.6"/>
  <rect class="cls-4" x="90" y="49.6" width=".2" height="32"/>
  <rect class="cls-4" x="90.2" y="49.6" width=".2" height="32"/>
  <rect class="cls-4" x="90.4" y="49.6" width=".2" height="32"/>
  <rect class="cls-4" x="90.6" y="49.6" width=".2" height="32"/>
  <rect class="cls-4" x="90.8" y="49.6" width=".2" height="32"/>
  <rect class="cls-4" x="90.9" y="49.6" width=".2" height="32"/>
  <rect class="cls-4" x="91.1" y="49.6" width=".2" height="32"/>
  <rect class="cls-4" x="91.3" y="49.6" width=".2" height="32"/>
  <rect class="cls-4" x="91.5" y="49.6" width=".2" height="32"/>
  <rect class="cls-4" x="91.7" y="49.6" width=".2" height="32"/>
  <rect class="cls-4" x="91.9" y="49.6" width=".2" height="32"/>
  <rect class="cls-4" x="92.1" y="49.6" width=".2" height="32"/>
  <rect class="cls-4" x="92.2" y="48.3" width=".2" height="33.3"/>
  <rect class="cls-4" x="92.4" y="48.3" width=".2" height="33.3"/>
  <rect class="cls-4" x="92.6" y="48.3" width=".2" height="33.3"/>
  <rect class="cls-4" x="92.8" y="48.3" width=".2" height="33.3"/>
  <rect class="cls-4" x="93" y="48.3" width=".2" height="33.3"/>
  <rect class="cls-4" x="93.2" y="48.3" width=".2" height="33.3"/>
  <rect class="cls-4" x="93.4" y="48.3" width=".2" height="33.3"/>
  <rect class="cls-4" x="93.6" y="48.3" width=".2" height="33.3"/>
  <rect class="cls-4" x="93.7" y="48.3" width=".2" height="33.3"/>
  <rect class="cls-4" x="93.9" y="48.3" width=".2" height="33.3"/>
  <rect class="cls-4" x="94.1" y="48.3" width=".2" height="33.3"/>
  <rect class="cls-4" x="94.3" y="48.3" width=".2" height="33.3"/>
  <rect class="cls-4" x="94.5" y="48.3" width=".2" height="33.3"/>
  <rect class="cls-4" x="94.7" y="48.3" width=".2" height="33.3"/>
  <rect class="cls-4" x="94.9" y="48.3" width=".2" height="33.3"/>
  <rect class="cls-4" x="95.1" y="48.3" width=".2" height="33.3"/>
  <rect class="cls-4" x="95.2" y="48.3" width=".2" height="33.3"/>
  <rect class="cls-4" x="95.4" y="48.3" width=".2" height="33.3"/>
  <rect class="cls-4" x="95.6" y="48.3" width=".2" height="33.3"/>
  <rect class="cls-4" x="95.8" y="48.3" width=".2" height="33.3"/>
  <rect class="cls-4" x="96" y="48.3" width=".2" height="33.3"/>
  <rect class="cls-4" x="96.2" y="48.3" width=".2" height="33.3"/>
  <rect class="cls-4" x="96.4" y="48.3" width=".2" height="33.3"/>
  <rect class="cls-4" x="96.5" y="48.3" width=".2" height="33.3"/>
  <rect class="cls-4" x="96.7" y="48.3" width=".2" height="33.3"/>
  <rect class="cls-4" x="96.9" y="48.3" width=".2" height="33.3"/>
  <rect class="cls-4" x="97.1" y="48.3" width=".2" height="33.3"/>
  <rect class="cls-4" x="97.3" y="48.3" width=".2" height="33.3"/>
  <rect class="cls-4" x="97.5" y="48.3" width=".2" height="33.3"/>
  <rect class="cls-4" x="97.7" y="48.3" width=".2" height="33.3"/>
  <rect class="cls-4" x="97.9" y="48.3" width=".2" height="33.3"/>
  <rect class="cls-4" x="98" y="48.3" width=".2" height="33.3"/>
  <rect class="cls-4" x="98.2" y="48.3" width=".2" height="33.3"/>
  <rect class="cls-4" x="98.4" y="48.3" width=".2" height="33.3"/>
  <rect class="cls-4" x="98.6" y="48.3" width=".2" height="33.3"/>
  <rect class="cls-4" x="98.8" y="48.3" width=".2" height="33.3"/>
  <rect class="cls-4" x="99" y="48.3" width=".2" height="33.3"/>
  <rect class="cls-4" x="99.2" y="48.3" width=".2" height="33.3"/>
  <rect class="cls-4" x="99.4" y="48.3" width=".2" height="33.3"/>
  <rect class="cls-4" x="99.5" y="48.3" width=".2" height="33.3"/>
  <rect class="cls-4" x="99.7" y="46.9" width=".2" height="34.7"/>
  <rect class="cls-4" x="99.9" y="46.9" width=".2" height="34.7"/>
  <rect class="cls-4" x="100.1" y="46.9" width=".2" height="34.7"/>
  <rect class="cls-4" x="100.3" y="46.9" width=".2" height="34.7"/>
  <rect class="cls-4" x="100.5" y="46.9" width=".2" height="34.7"/>
  <rect class="cls-4" x="100.7" y="46.9" width=".2" height="34.7"/>
  <rect class="cls-4" x="100.9" y="46.9" width=".2" height="34.7"/>
  <rect class="cls-4" x="101" y="46.9" width=".2" height="34.7"/>
  <rect class="cls-4" x="101.2" y="46.9" width=".2" height="34.7"/>
  <rect class="cls-4" x="101.4" y="46.9" width=".2" height="34.7"/>
  <rect class="cls-4" x="101.6" y="46.9" width=".2" height="34.7"/>
  <rect class="cls-4" x="101.8" y="46.9" width=".2" height="34.7"/>
  <rect class="cls-4" x="102" y="46.9" width=".2" height="34.7"/>
  <rect class="cls-4" x="102.2" y="46.9" width=".2" height="34.7"/>
  <rect class="cls-4" x="102.3" y="46.9" width=".2" height="34.7"/>
  <rect class="cls-4" x="102.5" y="46.9" width=".2" height="34.7"/>
  <rect class="cls-4" x="102.7" y="46.9" width=".2" height="34.7"/>
  <rect class="cls-4" x="102.9" y="46.9" width=".2" height="34.7"/>
  <rect class="cls-4" x="103.1" y="46.9" width=".2" height="34.7"/>
  <rect class="cls-4" x="103.3" y="46.9" width=".2" height="34.7"/>
  <rect class="cls-4" x="103.5" y="46.9" width=".2" height="34.7"/>
  <rect class="cls-4" x="103.7" y="46.9" width=".2" height="34.7"/>
  <rect class="cls-4" x="103.8" y="46.9" width=".2" height="34.7"/>
  <rect class="cls-4" x="104" y="46.9" width=".2" height="34.7"/>
  <rect class="cls-4" x="104.2" y="46.9" width=".2" height="34.7"/>
  <rect class="cls-4" x="104.4" y="46.9" width=".2" height="34.7"/>
  <rect class="cls-4" x="104.6" y="46.9" width=".2" height="34.7"/>
  <rect class="cls-4" x="104.8" y="46.9" width=".2" height="34.7"/>
  <rect class="cls-4" x="105" y="46.9" width=".2" height="34.7"/>
  <rect class="cls-4" x="105.2" y="46.9" width=".2" height="34.7"/>
  <rect class="cls-4" x="105.3" y="45.5" width=".2" height="36.1"/>
  <rect class="cls-4" x="105.5" y="45.5" width=".2" height="36.1"/>
  <rect class="cls-4" x="105.7" y="45.5" width=".2" height="36.1"/>
  <rect class="cls-4" x="105.9" y="45.5" width=".2" height="36.1"/>
  <rect class="cls-4" x="106.1" y="45.5" width=".2" height="36.1"/>
  <rect class="cls-4" x="106.3" y="45.5" width=".2" height="36.1"/>
  <rect class="cls-4" x="106.5" y="45.5" width=".2" height="36.1"/>
  <rect class="cls-4" x="106.6" y="45.5" width=".2" height="36.1"/>
  <rect class="cls-4" x="106.8" y="45.5" width=".2" height="36.1"/>
  <rect class="cls-4" x="107" y="45.5" width=".2" height="36.1"/>
  <rect class="cls-4" x="107.2" y="45.5" width=".2" height="36.1"/>
  <rect class="cls-4" x="107.4" y="45.5" width=".2" height="36.1"/>
  <rect class="cls-4" x="107.6" y="45.5" width=".2" height="36.1"/>
  <rect class="cls-4" x="107.8" y="45.5" width=".2" height="36.1"/>
  <rect class="cls-4" x="108" y="45.5" width=".2" height="36.1"/>
  <rect class="cls-4" x="108.1" y="45.5" width=".2" height="36.1"/>
  <rect class="cls-4" x="108.3" y="45.5" width=".2" height="36.1"/>
  <rect class="cls-4" x="108.5" y="45.5" width=".2" height="36.1"/>
  <rect class="cls-4" x="108.7" y="45.5" width=".2" height="36.1"/>
  <rect class="cls-4" x="108.9" y="45.5" width=".2" height="36.1"/>
  <rect class="cls-4" x="109.1" y="45.5" width=".2" height="36.1"/>
  <rect class="cls-4" x="109.3" y="45.5" width=".2" height="36.1"/>
  <rect class="cls-4" x="109.5" y="45.5" width=".2" height="36.1"/>
  <rect class="cls-4" x="109.6" y="45.5" width=".2" height="36.1"/>
  <rect class="cls-4" x="109.8" y="45.5" width=".2" height="36.1"/>
  <rect class="cls-4" x="110" y="45.5" width=".2" height="36.1"/>
  <rect class="cls-4" x="110.2" y="45.5" width=".2" height="36.1"/>
  <rect class="cls-4" x="110.4" y="45.5" width=".2" height="36.1"/>
  <rect class="cls-4" x="110.6" y="44.1" width=".2" height="37.5"/>
  <rect class="cls-4" x="110.8" y="44.1" width=".2" height="37.5"/>
  <rect class="cls-4" x="110.9" y="44.1" width=".2" height="37.5"/>
  <rect class="cls-4" x="111.1" y="44.1" width=".2" height="37.5"/>
  <rect class="cls-4" x="111.3" y="44.1" width=".2" height="37.5"/>
  <rect class="cls-4" x="111.5" y="44.1" width=".2" height="37.5"/>
  <rect class="cls-4" x="111.7" y="44.1" width=".2" height="37.5"/>
  <rect class="cls-4" x="111.9" y="44.1" width=".2" height="37.5"/>
  <rect class="cls-4" x="112.1" y="44.1" width=".2" height="37.5"/>
  <rect class="cls-4" x="112.3" y="44.1" width=".2" height="37.5"/>
  <rect class="cls-4" x="112.4" y="44.1" width=".2" height="37.5"/>
  <rect class="cls-4" x="112.6" y="44.1" width=".2" height="37.5"/>
  <rect class="cls-4" x="112.8" y="44.1" width=".2" height="37.5"/>
  <rect class="cls-4" x="113" y="44.1" width=".2" height="37.5"/>
  <rect class="cls-4" x="113.2" y="44.1" width=".2" height="37.5"/>
  <rect class="cls-4" x="113.4" y="44.1" width=".2" height="37.5"/>
  <rect class="cls-4" x="113.6" y="44.1" width=".2" height="37.5"/>
  <rect class="cls-4" x="113.8" y="44.1" width=".2" height="37.5"/>
  <rect class="cls-4" x="113.9" y="44.1" width=".2" height="37.5"/>
  <rect class="cls-4" x="114.1" y="44.1" width=".2" height="37.5"/>
  <rect class="cls-4" x="114.3" y="42.7" width=".2" height="38.9"/>
  <rect class="cls-4" x="114.5" y="42.7" width=".2" height="38.9"/>
  <rect class="cls-4" x="114.7" y="42.7" width=".2" height="38.9"/>
  <rect class="cls-4" x="114.9" y="42.7" width=".2" height="38.9"/>
  <rect class="cls-4" x="115.1" y="42.7" width=".2" height="38.9"/>
  <rect class="cls-4" x="115.2" y="42.7" width=".2" height="38.9"/>
  <rect class="cls-4" x="115.4" y="42.7" width=".2" height="38.9"/>
  <rect class="cls-4" x="115.6" y="42.7" width=".2" height="38.9"/>
  <rect class="cls-4" x="115.8" y="42.7" width=".2" height="38.9"/>
  <rect class="cls-4" x="116" y="42.7" width=".2" height="38.9"/>
  <rect class="cls-4" x="116.2" y="42.7" width=".2" height="38.9"/>
  <rect class="cls-4" x="116.4" y="42.7" width=".2" height="38.9"/>
  <rect class="cls-4" x="116.6" y="42.7" width=".2" height="38.9"/>
  <rect class="cls-4" x="116.7" y="42.7" width=".2" height="38.9"/>
  <rect class="cls-4" x="116.9" y="42.7" width=".2" height="38.9"/>
  <rect class="cls-4" x="117.1" y="42.7" width=".2" height="38.9"/>
  <rect class="cls-4" x="117.3" y="42.7" width=".2" height="38.9"/>
  <rect class="cls-4" x="117.5" y="42.7" width=".2" height="38.9"/>
  <rect class="cls-4" x="117.7" y="42.7" width=".2" height="38.9"/>
  <rect class="cls-4" x="117.9" y="42.7" width=".2" height="38.9"/>
  <rect class="cls-4" x="118.1" y="42.7" width=".2" height="38.9"/>
  <rect class="cls-4" x="118.2" y="42.7" width=".2" height="38.9"/>
  <rect class="cls-4" x="118.4" y="42.7" width=".2" height="38.9"/>
  <rect class="cls-4" x="118.6" y="42.7" width=".2" height="38.9"/>
  <rect class="cls-4" x="118.8" y="42.7" width=".2" height="38.9"/>
  <rect class="cls-4" x="119" y="42.7" width=".2" height="38.9"/>
  <rect class="cls-4" x="119.2" y="42.7" width=".2" height="38.9"/>
  <rect class="cls-4" x="119.4" y="42.7" width=".2" height="38.9"/>
  <rect class="cls-4" x="119.5" y="42.7" width=".2" height="38.9"/>
  <rect class="cls-4" x="119.7" y="42.7" width=".2" height="38.9"/>
  <rect class="cls-4" x="119.9" y="41.3" width=".2" height="40.3"/>
  <rect class="cls-4" x="120.1" y="41.3" width=".2" height="40.3"/>
  <rect class="cls-4" x="120.3" y="41.3" width=".2" height="40.3"/>
  <rect class="cls-4" x="120.5" y="41.3" width=".2" height="40.3"/>
  <rect class="cls-4" x="120.7" y="41.3" width=".2" height="40.3"/>
  <rect class="cls-4" x="120.9" y="41.3" width=".2" height="40.3"/>
  <rect class="cls-4" x="121" y="41.3" width=".2" height="40.3"/>
  <rect class="cls-4" x="121.2" y="41.3" width=".2" height="40.3"/>
  <rect class="cls-4" x="121.4" y="41.3" width=".2" height="40.3"/>
  <rect class="cls-4" x="121.6" y="41.3" width=".2" height="40.3"/>
  <rect class="cls-4" x="121.8" y="41.3" width=".2" height="40.3"/>
  <rect class="cls-4" x="122" y="41.3" width=".2" height="40.3"/>
  <rect class="cls-4" x="122.2" y="41.3" width=".2" height="40.3"/>
  <rect class="cls-4" x="122.4" y="41.3" width=".2" height="40.3"/>
  <rect class="cls-4" x="122.5" y="39.9" width=".2" height="41.7"/>
  <rect class="cls-4" x="122.7" y="39.9" width=".2" height="41.7"/>
  <rect class="cls-4" x="122.9" y="39.9" width=".2" height="41.7"/>
  <rect class="cls-4" x="123.1" y="39.9" width=".2" height="41.7"/>
  <rect class="cls-4" x="123.3" y="39.9" width=".2" height="41.7"/>
  <rect class="cls-4" x="123.5" y="39.9" width=".2" height="41.7"/>
  <rect class="cls-4" x="123.7" y="39.9" width=".2" height="41.7"/>
  <rect class="cls-4" x="123.8" y="39.9" width=".2" height="41.7"/>
  <rect class="cls-4" x="124" y="39.9" width=".2" height="41.7"/>
  <rect class="cls-4" x="124.2" y="39.9" width=".2" height="41.7"/>
  <rect class="cls-4" x="124.4" y="39.9" width=".2" height="41.7"/>
  <rect class="cls-4" x="124.6" y="39.9" width=".2" height="41.7"/>
  <rect class="cls-4" x="124.8" y="39.9" width=".2" height="41.7"/>
  <rect class="cls-4" x="125" y="39.9" width=".2" height="41.7"/>
  <rect class="cls-4" x="125.2" y="39.9" width=".2" height="41.7"/>
  <rect class="cls-4" x="125.3" y="39.9" width=".2" height="41.7"/>
  <rect class="cls-4" x="125.5" y="39.9" width=".2" height="41.7"/>
  <rect class="cls-4" x="125.7" y="39.9" width=".2" height="41.7"/>
  <rect class="cls-4" x="125.9" y="39.9" width=".2" height="41.7"/>
  <rect class="cls-4" x="126.1" y="39.9" width=".2" height="41.7"/>
  <rect class="cls-4" x="126.3" y="39.9" width=".2" height="41.7"/>
  <rect class="cls-4" x="126.5" y="39.9" width=".2" height="41.7"/>
  <rect class="cls-4" x="126.7" y="39.9" width=".2" height="41.7"/>
  <rect class="cls-4" x="126.8" y="39.9" width=".2" height="41.7"/>
  <rect class="cls-4" x="127" y="39.9" width=".2" height="41.7"/>
  <rect class="cls-4" x="127.2" y="39.9" width=".2" height="41.7"/>
  <rect class="cls-4" x="127.4" y="39.9" width=".2" height="41.7"/>
  <rect class="cls-4" x="127.6" y="39.9" width=".2" height="41.7"/>
  <rect class="cls-4" x="127.8" y="39.9" width=".2" height="41.7"/>
  <rect class="cls-4" x="128" y="39.9" width=".2" height="41.7"/>
  <rect class="cls-4" x="128.1" y="39.9" width=".2" height="41.7"/>
  <rect class="cls-4" x="128.3" y="39.9" width=".2" height="41.7"/>
  <rect class="cls-4" x="128.5" y="39.9" width=".2" height="41.7"/>
  <rect class="cls-4" x="128.7" y="39.9" width=".2" height="41.7"/>
  <rect class="cls-4" x="128.9" y="39.9" width=".2" height="41.7"/>
  <rect class="cls-4" x="129.1" y="39.9" width=".2" height="41.7"/>
  <rect class="cls-4" x="129.3" y="39.9" width=".2" height="41.7"/>
  <rect class="cls-4" x="129.5" y="39.9" width=".2" height="41.7"/>
  <rect class="cls-4" x="129.6" y="39.9" width=".2" height="41.7"/>
  <rect class="cls-4" x="129.8" y="39.9" width=".2" height="41.7"/>
  <rect class="cls-4" x="130" y="38.5" width=".2" height="43.1"/>
  <rect class="cls-4" x="130.2" y="38.5" width=".2" height="43.1"/>
  <rect class="cls-4" x="130.4" y="38.5" width=".2" height="43.1"/>
  <rect class="cls-4" x="130.6" y="38.5" width=".2" height="43.1"/>
  <rect class="cls-4" x="130.8" y="37.1" width=".2" height="44.5"/>
  <rect class="cls-4" x="131" y="37.1" width=".2" height="44.5"/>
  <rect class="cls-4" x="131.1" y="37.1" width=".2" height="44.5"/>
  <rect class="cls-4" x="131.3" y="37.1" width=".2" height="44.5"/>
  <rect class="cls-4" x="131.5" y="37.1" width=".2" height="44.5"/>
  <rect class="cls-4" x="131.7" y="37.1" width=".2" height="44.5"/>
  <rect class="cls-4" x="131.9" y="37.1" width=".2" height="44.5"/>
  <rect class="cls-4" x="132.1" y="37.1" width=".2" height="44.5"/>
  <rect class="cls-4" x="132.3" y="37.1" width=".2" height="44.5"/>
  <rect class="cls-4" x="132.5" y="37.1" width=".2" height="44.5"/>
  <rect class="cls-4" x="132.6" y="37.1" width=".2" height="44.5"/>
  <rect class="cls-4" x="132.8" y="37.1" width=".2" height="44.5"/>
  <rect class="cls-4" x="133" y="37.1" width=".2" height="44.5"/>
  <rect class="cls-4" x="133.2" y="37.1" width=".2" height="44.5"/>
  <rect class="cls-4" x="133.4" y="37.1" width=".2" height="44.5"/>
  <rect class="cls-4" x="133.6" y="37.1" width=".2" height="44.5"/>
  <rect class="cls-4" x="133.8" y="37.1" width=".2" height="44.5"/>
  <rect class="cls-4" x="133.9" y="37.1" width=".2" height="44.5"/>
  <rect class="cls-4" x="134.1" y="37.1" width=".2" height="44.5"/>
  <rect class="cls-4" x="134.3" y="37.1" width=".2" height="44.5"/>
  <rect class="cls-4" x="134.5" y="37.1" width=".2" height="44.5"/>
  <rect class="cls-4" x="134.7" y="37.1" width=".2" height="44.5"/>
  <rect class="cls-4" x="134.9" y="37.1" width=".2" height="44.5"/>
  <rect class="cls-4" x="135.1" y="37.1" width=".2" height="44.5"/>
  <rect class="cls-4" x="135.3" y="37.1" width=".2" height="44.5"/>
  <rect class="cls-4" x="135.4" y="37.1" width=".2" height="44.5"/>
  <rect class="cls-4" x="135.6" y="37.1" width=".2" height="44.5"/>
  <rect class="cls-4" x="135.8" y="37.1" width=".2" height="44.5"/>
  <rect class="cls-4" x="136" y="37.1" width=".2" height="44.5"/>
  <rect class="cls-4" x="136.2" y="37.1" width=".2" height="44.5"/>
  <rect class="cls-4" x="136.4" y="37.1" width=".2" height="44.5"/>
  <rect class="cls-4" x="136.6" y="37.1" width=".2" height="44.5"/>
  <rect class="cls-4" x="136.8" y="37.1" width=".2" height="44.5"/>
  <rect class="cls-4" x="136.9" y="37.1" width=".2" height="44.5"/>
  <rect class="cls-4" x="137.1" y="37.1" width=".2" height="44.5"/>
  <rect class="cls-4" x="137.3" y="37.1" width=".2" height="44.5"/>
  <rect class="cls-4" x="137.5" y="37.1" width=".2" height="44.5"/>
  <rect class="cls-4" x="137.7" y="37.1" width=".2" height="44.5"/>
  <rect class="cls-4" x="137.9" y="37.1" width=".2" height="44.5"/>
  <rect class="cls-4" x="138.1" y="37.1" width=".2" height="44.5"/>
  <rect class="cls-4" x="138.2" y="35.7" width=".2" height="45.8"/>
  <rect class="cls-4" x="138.4" y="35.7" width=".2" height="45.8"/>
  <rect class="cls-4" x="138.6" y="35.7" width=".2" height="45.8"/>
  <rect class="cls-4" x="138.8" y="35.7" width=".2" height="45.8"/>
  <rect class="cls-4" x="139" y="35.7" width=".2" height="45.8"/>
  <rect class="cls-4" x="139.2" y="35.7" width=".2" height="45.8"/>
  <rect class="cls-4" x="139.4" y="35.7" width=".2" height="45.8"/>
  <rect class="cls-4" x="139.6" y="35.7" width=".2" height="45.8"/>
  <rect class="cls-4" x="139.7" y="34.4" width=".2" height="47.2"/>
  <rect class="cls-4" x="139.9" y="34.4" width=".2" height="47.2"/>
  <rect class="cls-4" x="140.1" y="34.4" width=".2" height="47.2"/>
  <rect class="cls-4" x="140.3" y="34.4" width=".2" height="47.2"/>
  <rect class="cls-4" x="140.5" y="34.4" width=".2" height="47.2"/>
  <rect class="cls-4" x="140.7" y="34.4" width=".2" height="47.2"/>
  <rect class="cls-4" x="140.9" y="34.4" width=".2" height="47.2"/>
  <rect class="cls-4" x="141.1" y="34.4" width=".2" height="47.2"/>
  <rect class="cls-4" x="141.2" y="34.4" width=".2" height="47.2"/>
  <rect class="cls-4" x="141.4" y="34.4" width=".2" height="47.2"/>
  <rect class="cls-4" x="141.6" y="34.4" width=".2" height="47.2"/>
  <rect class="cls-4" x="141.8" y="34.4" width=".2" height="47.2"/>
  <rect class="cls-4" x="142" y="34.4" width=".2" height="47.2"/>
  <rect class="cls-4" x="142.2" y="34.4" width=".2" height="47.2"/>
  <rect class="cls-4" x="142.4" y="34.4" width=".2" height="47.2"/>
  <rect class="cls-4" x="142.5" y="34.4" width=".2" height="47.2"/>
  <rect class="cls-4" x="142.7" y="34.4" width=".2" height="47.2"/>
  <rect class="cls-4" x="142.9" y="34.4" width=".2" height="47.2"/>
  <rect class="cls-4" x="143.1" y="34.4" width=".2" height="47.2"/>
  <rect class="cls-4" x="143.3" y="34.4" width=".2" height="47.2"/>
  <rect class="cls-4" x="143.5" y="34.4" width=".2" height="47.2"/>
  <rect class="cls-4" x="143.7" y="34.4" width=".2" height="47.2"/>
  <rect class="cls-4" x="143.9" y="34.4" width=".2" height="47.2"/>
  <rect class="cls-4" x="144" y="34.4" width=".2" height="47.2"/>
  <rect class="cls-4" x="144.2" y="34.4" width=".2" height="47.2"/>
  <rect class="cls-4" x="144.4" y="34.4" width=".2" height="47.2"/>
  <rect class="cls-4" x="144.6" y="34.4" width=".2" height="47.2"/>
  <rect class="cls-4" x="144.8" y="34.4" width=".2" height="47.2"/>
  <rect class="cls-4" x="145" y="33" width=".2" height="48.6"/>
  <rect class="cls-4" x="145.2" y="33" width=".2" height="48.6"/>
  <rect class="cls-4" x="145.4" y="33" width=".2" height="48.6"/>
  <rect class="cls-4" x="145.5" y="33" width=".2" height="48.6"/>
  <rect class="cls-4" x="145.7" y="33" width=".2" height="48.6"/>
  <rect class="cls-4" x="145.9" y="33" width=".2" height="48.6"/>
  <rect class="cls-4" x="146.1" y="33" width=".2" height="48.6"/>
  <rect class="cls-4" x="146.3" y="33" width=".2" height="48.6"/>
  <rect class="cls-4" x="146.5" y="33" width=".2" height="48.6"/>
  <rect class="cls-4" x="146.7" y="33" width=".2" height="48.6"/>
  <rect class="cls-4" x="146.8" y="33" width=".2" height="48.6"/>
  <rect class="cls-4" x="147" y="33" width=".2" height="48.6"/>
  <rect class="cls-4" x="147.2" y="33" width=".2" height="48.6"/>
  <rect class="cls-4" x="147.4" y="33" width=".2" height="48.6"/>
  <rect class="cls-4" x="147.6" y="31.6" width=".2" height="50"/>
  <rect class="cls-4" x="147.8" y="31.6" width=".2" height="50"/>
  <rect class="cls-4" x="148" y="31.6" width=".2" height="50"/>
  <rect class="cls-4" x="148.2" y="31.6" width=".2" height="50"/>
  <rect class="cls-4" x="148.3" y="31.6" width=".2" height="50"/>
  <rect class="cls-4" x="148.5" y="31.6" width=".2" height="50"/>
  <rect class="cls-4" x="148.7" y="31.6" width=".2" height="50"/>
  <rect class="cls-4" x="148.9" y="31.6" width=".2" height="50"/>
  <rect class="cls-4" x="149.1" y="31.6" width=".2" height="50"/>
  <rect class="cls-4" x="149.3" y="31.6" width=".2" height="50"/>
  <rect class="cls-4" x="149.5" y="31.6" width=".2" height="50"/>
  <rect class="cls-4" x="149.7" y="31.6" width=".2" height="50"/>
  <rect class="cls-4" x="149.8" y="31.6" width=".2" height="50"/>
  <rect class="cls-4" x="150" y="31.6" width=".2" height="50"/>
  <rect class="cls-4" x="150.2" y="31.6" width=".2" height="50"/>
  <rect class="cls-4" x="150.4" y="31.6" width=".2" height="50"/>
  <rect class="cls-4" x="150.6" y="31.6" width=".2" height="50"/>
  <rect class="cls-4" x="150.8" y="31.6" width=".2" height="50"/>
  <rect class="cls-4" x="151" y="30.2" width=".2" height="51.4"/>
  <rect class="cls-4" x="151.1" y="30.2" width=".2" height="51.4"/>
  <rect class="cls-4" x="151.3" y="30.2" width=".2" height="51.4"/>
  <rect class="cls-4" x="151.5" y="30.2" width=".2" height="51.4"/>
  <rect class="cls-4" x="151.7" y="30.2" width=".2" height="51.4"/>
  <rect class="cls-4" x="151.9" y="30.2" width=".2" height="51.4"/>
  <rect class="cls-4" x="152.1" y="30.2" width=".2" height="51.4"/>
  <rect class="cls-4" x="152.3" y="30.2" width=".2" height="51.4"/>
  <rect class="cls-4" x="152.5" y="30.2" width=".2" height="51.4"/>
  <rect class="cls-4" x="152.6" y="30.2" width=".2" height="51.4"/>
  <rect class="cls-4" x="152.8" y="30.2" width=".2" height="51.4"/>
  <rect class="cls-4" x="153" y="30.2" width=".2" height="51.4"/>
  <rect class="cls-4" x="153.2" y="30.2" width=".2" height="51.4"/>
  <rect class="cls-4" x="153.4" y="30.2" width=".2" height="51.4"/>
  <rect class="cls-4" x="153.6" y="28.8" width=".2" height="52.8"/>
  <rect class="cls-4" x="153.8" y="28.8" width=".2" height="52.8"/>
  <rect class="cls-4" x="154" y="28.8" width=".2" height="52.8"/>
  <rect class="cls-4" x="154.1" y="28.8" width=".2" height="52.8"/>
  <rect class="cls-4" x="154.3" y="27.4" width=".2" height="54.2"/>
  <rect class="cls-4" x="154.5" y="27.4" width=".2" height="54.2"/>
  <rect class="cls-4" x="154.7" y="27.4" width=".2" height="54.2"/>
  <rect class="cls-4" x="154.9" y="27.4" width=".2" height="54.2"/>
  <rect class="cls-4" x="155.1" y="27.4" width=".2" height="54.2"/>
  <rect class="cls-4" x="155.3" y="27.4" width=".2" height="54.2"/>
  <rect class="cls-4" x="155.4" y="26" width=".2" height="55.6"/>
  <rect class="cls-4" x="155.6" y="26" width=".2" height="55.6"/>
  <rect class="cls-4" x="155.8" y="26" width=".2" height="55.6"/>
  <rect class="cls-4" x="156" y="26" width=".2" height="55.6"/>
  <rect class="cls-4" x="156.2" y="26" width=".2" height="55.6"/>
  <rect class="cls-4" x="156.4" y="26" width=".2" height="55.6"/>
  <rect class="cls-4" x="156.6" y="24.6" width=".2" height="57"/>
  <rect class="cls-4" x="156.8" y="24.6" width=".2" height="57"/>
  <rect class="cls-4" x="156.9" y="24.6" width=".2" height="57"/>
  <rect class="cls-4" x="157.1" y="24.6" width=".2" height="57"/>
  <rect class="cls-4" x="157.3" y="24.6" width=".2" height="57"/>
  <rect class="cls-4" x="157.5" y="24.6" width=".2" height="57"/>
  <rect class="cls-4" x="157.7" y="23.2" width=".2" height="58.3"/>
  <rect class="cls-4" x="157.9" y="23.2" width=".2" height="58.3"/>
  <rect class="cls-4" x="158.1" y="23.2" width=".2" height="58.3"/>
  <rect class="cls-4" x="158.3" y="23.2" width=".2" height="58.3"/>
  <rect class="cls-4" x="158.4" y="23.2" width=".2" height="58.3"/>
  <rect class="cls-4" x="158.6" y="23.2" width=".2" height="58.3"/>
  <rect class="cls-4" x="158.8" y="21.9" width=".2" height="59.7"/>
  <rect class="cls-4" x="159" y="21.9" width=".2" height="59.7"/>
  <rect class="cls-4" x="159.2" y="21.9" width=".2" height="59.7"/>
  <rect class="cls-4" x="159.4" y="21.9" width=".2" height="59.7"/>
  <rect class="cls-4" x="159.6" y="21.9" width=".2" height="59.7"/>
  <rect class="cls-4" x="159.7" y="21.9" width=".2" height="59.7"/>
  <rect class="cls-4" x="159.9" y="20.5" width=".2" height="61.1"/>
  <rect class="cls-4" x="160.1" y="20.5" width=".2" height="61.1"/>
  <rect class="cls-4" x="160.3" y="20.5" width=".2" height="61.1"/>
  <rect class="cls-4" x="160.5" y="20.5" width=".2" height="61.1"/>
  <rect class="cls-4" x="160.7" y="20.5" width=".2" height="61.1"/>
  <rect class="cls-4" x="160.9" y="20.5" width=".2" height="61.1"/>
  <rect class="cls-4" x="161.1" y="20.5" width=".2" height="61.1"/>
  <rect class="cls-4" x="161.2" y="20.5" width=".2" height="61.1"/>
  <rect class="cls-4" x="161.4" y="20.5" width=".2" height="61.1"/>
  <rect class="cls-4" x="161.6" y="20.5" width=".2" height="61.1"/>
  <rect class="cls-4" x="161.8" y="20.5" width=".2" height="61.1"/>
  <rect class="cls-4" x="162" y="20.5" width=".2" height="61.1"/>
  <rect class="cls-4" x="162.2" y="20.5" width=".2" height="61.1"/>
  <rect class="cls-4" x="162.4" y="20.5" width=".2" height="61.1"/>
  <rect class="cls-4" x="162.6" y="20.5" width=".2" height="61.1"/>
  <rect class="cls-4" x="162.7" y="20.5" width=".2" height="61.1"/>
  <rect class="cls-4" x="162.9" y="19.1" width=".2" height="62.5"/>
  <rect class="cls-4" x="163.1" y="19.1" width=".2" height="62.5"/>
  <rect class="cls-4" x="163.3" y="19.1" width=".2" height="62.5"/>
  <rect class="cls-4" x="163.5" y="19.1" width=".2" height="62.5"/>
  <rect class="cls-4" x="163.7" y="17.7" width=".2" height="63.9"/>
  <rect class="cls-4" x="163.9" y="17.7" width=".2" height="63.9"/>
  <rect class="cls-4" x="164.1" y="17.7" width=".2" height="63.9"/>
  <rect class="cls-4" x="164.2" y="17.7" width=".2" height="63.9"/>
  <rect class="cls-4" x="164.4" y="17.7" width=".2" height="63.9"/>
  <rect class="cls-4" x="164.6" y="17.7" width=".2" height="63.9"/>
  <rect class="cls-4" x="164.8" y="17.7" width=".2" height="63.9"/>
  <rect class="cls-4" x="165" y="17.7" width=".2" height="63.9"/>
  <rect class="cls-4" x="165.2" y="17.7" width=".2" height="63.9"/>
  <rect class="cls-4" x="165.4" y="17.7" width=".2" height="63.9"/>
  <rect class="cls-4" x="165.5" y="16.3" width=".2" height="65.3"/>
  <rect class="cls-4" x="165.7" y="16.3" width=".2" height="65.3"/>
  <rect class="cls-4" x="165.9" y="14.9" width=".2" height="66.7"/>
  <rect class="cls-4" x="166.1" y="14.9" width=".2" height="66.7"/>
  <rect class="cls-4" x="166.3" y="14.9" width=".2" height="66.7"/>
  <rect class="cls-4" x="166.5" y="14.9" width=".2" height="66.7"/>
  <rect class="cls-4" x="166.7" y="13.5" width=".2" height="68.1"/>
  <rect class="cls-4" x="166.9" y="13.5" width=".2" height="68.1"/>
  <rect class="cls-4" x="167" y="13.5" width=".2" height="68.1"/>
  <rect class="cls-4" x="167.2" y="13.5" width=".2" height="68.1"/>
  <rect class="cls-4" x="167.4" y="10.7" width=".2" height="70.8"/>
  <rect class="cls-4" x="167.6" y="10.7" width=".2" height="70.8"/>
  <rect class="cls-1" x="33.2" y="81.6" width=".2"/>
  <line class="cls-7" x1="33.1" y1="81.6" x2="33.1" y2="81.8"/>
  <path class="cls-5" d="M32.6,88c-.4,0-.8,0-1-.1-.3,0-.5-.2-.6-.4-.1-.2-.2-.4-.2-.6s0-.4.1-.5c0-.1.2-.3.3-.4.1,0,.3-.2.5-.2.2,0,.5,0,.8,0s.8,0,1,.1c.3,0,.5.2.6.4.1.2.2.4.2.6s-.1.6-.4.8c-.3.2-.8.4-1.5.4M32.6,87.5c.6,0,1,0,1.2-.2.2-.1.3-.3.3-.5s0-.4-.3-.5c-.2-.1-.6-.2-1.2-.2s-1,0-1.2.2c-.2.1-.3.3-.3.5s0,.4.3.5c.2.2.6.2,1.2.2h0Z"/>
  <line class="cls-7" x1="40.5" y1="81.6" x2="40.5" y2="81.8"/>
  <path class="cls-5" d="M41.8,89.2h-.9v1.6h-.4l-2.3-1.6v-.4h2.3v-.5h.4v.5h.9v.4M40.5,89.2h-1.6l1.6,1.1v-1.1h0Z"/>
  <path class="cls-5" d="M40,88c-.4,0-.8,0-1-.1-.3,0-.5-.2-.6-.4-.1-.2-.2-.4-.2-.6s0-.4.1-.5c0-.1.2-.3.3-.4.1,0,.3-.2.5-.2.2,0,.5,0,.8,0s.8,0,1,.1c.3,0,.5.2.6.4.1.2.2.4.2.6s-.1.6-.4.8c-.3.2-.8.4-1.5.4M40,87.5c.6,0,1,0,1.2-.2.2-.1.3-.3.3-.5s0-.4-.3-.5c-.2-.1-.6-.2-1.2-.2s-1,0-1.2.2c-.2.1-.3.3-.3.5s0,.4.3.5c.2.2.6.2,1.2.2h0Z"/>
  <line class="cls-7" x1="48" y1="81.6" x2="48" y2="81.8"/>
  <path class="cls-5" d="M47.3,89.9c0,.2-.2.3-.3.4s-.3.1-.4.1c-.3,0-.5,0-.7-.3-.2-.2-.3-.4-.3-.7s0-.6.3-.8c.2-.2.4-.3.7-.3s.3,0,.4.1c.1,0,.2.2.3.4,0-.2.2-.4.3-.5.2-.1.3-.2.6-.2s.6.1.8.3c.2.2.3.5.3.9s-.1.6-.3.9c-.2.2-.5.3-.8.3s-.4,0-.6-.2c-.2-.1-.3-.3-.3-.5M46.5,90c.2,0,.3,0,.4-.2.1-.1.2-.3.2-.4s0-.3-.2-.4c-.1-.1-.2-.2-.4-.2s-.3,0-.4.2c-.1.1-.2.2-.2.4s0,.3.2.4c.1.1.2.2.4.2M48.2,90.1c.1,0,.2,0,.4,0,.1,0,.2-.1.3-.3,0-.1,0-.2,0-.4,0-.2,0-.4-.2-.5-.1-.1-.3-.2-.5-.2s-.4,0-.5.2c-.1.1-.2.3-.2.5s0,.4.2.5c.1.1.3.2.5.2h0Z"/>
  <path class="cls-5" d="M47.4,88c-.4,0-.8,0-1-.1-.3,0-.5-.2-.6-.4-.1-.2-.2-.4-.2-.6s0-.4.1-.5c0-.1.2-.3.3-.4.1,0,.3-.2.5-.2.2,0,.5,0,.8,0s.8,0,1,.1c.3,0,.5.2.6.4.1.2.2.4.2.6s-.1.6-.4.8c-.3.2-.8.4-1.5.4M47.4,87.5c.6,0,1,0,1.2-.2.2-.1.3-.3.3-.5s0-.4-.3-.5c-.2-.1-.6-.2-1.2-.2s-1,0-1.2.2c-.2.1-.3.3-.3.5s0,.4.3.5c.2.2.6.2,1.2.2h0Z"/>
  <line class="cls-7" x1="55.5" y1="81.6" x2="55.5" y2="81.8"/>
  <path class="cls-5" d="M56.9,91.8v.4h-2.8c.1.1.2.2.3.4.1.2.2.3.2.5h-.4c-.1-.2-.3-.5-.4-.6-.2-.2-.3-.3-.5-.4v-.3h3.6Z"/>
  <path class="cls-5" d="M56.5,88.3h.4v2.4c-.1,0-.2,0-.3,0-.2,0-.3-.2-.5-.3-.2-.1-.3-.3-.5-.6-.3-.4-.6-.7-.8-.8-.2-.1-.4-.2-.5-.2s-.3,0-.4.2c-.1.1-.2.3-.2.5s0,.4.2.5c.1.1.3.2.5.2v.5c-.4,0-.6-.1-.8-.3-.2-.2-.3-.5-.3-.8s0-.6.3-.8c.2-.2.4-.3.7-.3s.3,0,.4,0,.3.2.4.3c.2.1.4.4.6.7.2.3.4.4.5.5,0,0,.2.1.2.2v-1.8h0Z"/>
  <path class="cls-5" d="M55.1,88c-.4,0-.8,0-1-.1-.3,0-.5-.2-.6-.4-.1-.2-.2-.4-.2-.6s0-.4.1-.5c0-.1.2-.3.3-.4.1,0,.3-.2.5-.2.2,0,.5,0,.8,0s.8,0,1,.1c.3,0,.5.2.6.4.1.2.2.4.2.6s-.1.6-.4.8c-.3.2-.8.4-1.5.4M55.1,87.5c.6,0,1,0,1.2-.2.2-.1.3-.3.3-.5s0-.4-.3-.5c-.2-.1-.6-.2-1.2-.2s-1,0-1.2.2c-.2.1-.3.3-.3.5s0,.4.3.5c.2.2.6.2,1.2.2h0Z"/>
  <line class="cls-7" x1="63" y1="81.6" x2="63" y2="81.8"/>
  <path class="cls-5" d="M64.3,91.8v.4h-2.8c.1.1.2.2.3.4.1.2.2.3.2.5h-.4c-.1-.2-.3-.5-.4-.6s-.3-.3-.5-.4v-.3h3.6Z"/>
  <path class="cls-5" d="M61.6,88.3v.4c-.1,0-.3,0-.3.2-.1.1-.2.3-.2.4s0,.3.1.4c.1.1.2.2.4.3s.5.1.8.1c-.2-.1-.3-.2-.4-.4s-.1-.3-.1-.5c0-.3.1-.5.3-.7.2-.2.5-.3.8-.3s.4,0,.6.1c.2,0,.3.2.4.4s.2.4.2.6c0,.4-.1.7-.4.9-.3.2-.7.3-1.3.3s-1.2-.1-1.5-.4c-.3-.2-.4-.5-.4-.9s0-.5.2-.7c.2-.2.4-.3.7-.3M63.2,90.1c.2,0,.3,0,.4,0,.1,0,.2-.2.3-.3,0-.1.1-.2.1-.4,0-.2,0-.3-.2-.5-.1-.1-.4-.2-.6-.2s-.4,0-.6.2c-.1.1-.2.3-.2.5s0,.4.2.5c.1.1.3.2.6.2h0Z"/>
  <path class="cls-5" d="M62.6,88c-.4,0-.8,0-1-.1-.3,0-.5-.2-.6-.4-.1-.2-.2-.4-.2-.6s0-.4.1-.5c0-.1.2-.3.3-.4.1,0,.3-.2.5-.2.2,0,.5,0,.8,0s.8,0,1,.1c.3,0,.5.2.6.4.1.2.2.4.2.6s-.1.6-.4.8c-.3.2-.8.4-1.5.4M62.6,87.5c.6,0,1,0,1.2-.2.2-.1.3-.3.3-.5s0-.4-.3-.5c-.2-.1-.6-.2-1.2-.2s-1,0-1.2.2c-.2.1-.3.3-.3.5s0,.4.3.5c.2.2.6.2,1.2.2h0Z"/>
  <line class="cls-7" x1="70.5" y1="81.6" x2="70.5" y2="81.8"/>
  <path class="cls-5" d="M71.3,91.2h.4v2.4c-.1,0-.2,0-.3,0-.2,0-.3-.2-.5-.3-.2-.1-.3-.3-.5-.6-.3-.4-.6-.7-.8-.8-.2-.1-.4-.2-.5-.2s-.3,0-.4.2c-.1.1-.2.3-.2.5s0,.4.2.5c.1.1.3.2.5.2v.5c-.4,0-.6-.1-.8-.3-.2-.2-.3-.5-.3-.8s0-.6.3-.8c.2-.2.4-.3.7-.3s.3,0,.4,0,.3.2.4.3c.2.1.4.4.6.7.2.3.4.4.5.5,0,0,.2.1.2.2v-1.8h0Z"/>
  <path class="cls-5" d="M70,90.6c-.4,0-.8,0-1-.1-.3,0-.5-.2-.6-.4-.1-.2-.2-.4-.2-.6s0-.4.1-.5c0-.1.2-.3.3-.4.1,0,.3-.2.5-.2.2,0,.5,0,.8,0s.8,0,1,.1c.3,0,.5.2.6.4.1.2.2.4.2.6s-.1.6-.4.8c-.3.2-.8.4-1.5.4M70,90.1c.6,0,1,0,1.2-.2.2-.1.3-.3.3-.5s0-.4-.3-.5c-.2-.1-.6-.2-1.2-.2s-1,0-1.2.2c-.2.1-.3.3-.3.5s0,.4.3.5c.2.2.6.2,1.2.2h0Z"/>
  <path class="cls-5" d="M70,88c-.4,0-.8,0-1-.1-.3,0-.5-.2-.6-.4-.1-.2-.2-.4-.2-.6s0-.4.1-.5c0-.1.2-.3.3-.4.1,0,.3-.2.5-.2.2,0,.5,0,.8,0s.8,0,1,.1c.3,0,.5.2.6.4.1.2.2.4.2.6s-.1.6-.4.8c-.3.2-.8.4-1.5.4M70,87.5c.6,0,1,0,1.2-.2.2-.1.3-.3.3-.5s0-.4-.3-.5c-.2-.1-.6-.2-1.2-.2s-1,0-1.2.2c-.2.1-.3.3-.3.5s0,.4.3.5c.2.2.6.2,1.2.2h0Z"/>
  <line class="cls-7" x1="77.9" y1="81.6" x2="77.9" y2="81.8"/>
  <path class="cls-5" d="M78.8,91.2h.4v2.4c-.1,0-.2,0-.3,0-.2,0-.3-.2-.5-.3-.2-.1-.3-.3-.5-.6-.3-.4-.6-.7-.8-.8-.2-.1-.4-.2-.5-.2s-.3,0-.4.2c-.1.1-.2.3-.2.5s0,.4.2.5c.1.1.3.2.5.2v.5c-.4,0-.6-.1-.8-.3-.2-.2-.3-.5-.3-.8s0-.6.3-.8c.2-.2.4-.3.7-.3s.3,0,.4,0,.3.2.4.3c.2.1.4.4.6.7.2.3.4.4.5.5,0,0,.2.1.2.2v-1.8h0Z"/>
  <path class="cls-5" d="M79.2,89.2h-.9v1.6h-.4l-2.3-1.6v-.4h2.3v-.5h.4v.5h.9v.4M77.9,89.2h-1.6l1.6,1.1v-1.1h0Z"/>
  <path class="cls-5" d="M77.4,88c-.4,0-.8,0-1-.1-.3,0-.5-.2-.6-.4-.1-.2-.2-.4-.2-.6s0-.4.1-.5c0-.1.2-.3.3-.4.1,0,.3-.2.5-.2.2,0,.5,0,.8,0s.8,0,1,.1c.3,0,.5.2.6.4.1.2.2.4.2.6s-.1.6-.4.8c-.3.2-.8.4-1.5.4M77.4,87.5c.6,0,1,0,1.2-.2.2-.1.3-.3.3-.5s0-.4-.3-.5c-.2-.1-.6-.2-1.2-.2s-1,0-1.2.2c-.2.1-.3.3-.3.5s0,.4.3.5c.2.2.6.2,1.2.2h0Z"/>
  <line class="cls-7" x1="85.4" y1="81.6" x2="85.4" y2="81.8"/>
  <path class="cls-5" d="M86.2,91.2h.4v2.4c-.1,0-.2,0-.3,0-.2,0-.3-.2-.5-.3-.2-.1-.3-.3-.5-.6-.3-.4-.6-.7-.8-.8-.2-.1-.4-.2-.5-.2s-.3,0-.4.2c-.1.1-.2.3-.2.5s0,.4.2.5c.1.1.3.2.5.2v.5c-.4,0-.6-.1-.8-.3-.2-.2-.3-.5-.3-.8s0-.6.3-.8c.2-.2.4-.3.7-.3s.3,0,.4,0,.3.2.4.3c.2.1.4.4.6.7.2.3.4.4.5.5,0,0,.2.1.2.2v-1.8h0Z"/>
  <path class="cls-5" d="M84.7,89.9c0,.2-.2.3-.3.4s-.3.1-.4.1c-.3,0-.5,0-.7-.3-.2-.2-.3-.4-.3-.7s0-.6.3-.8c.2-.2.4-.3.7-.3s.3,0,.4.1c.1,0,.2.2.3.4,0-.2.2-.4.3-.5.2-.1.3-.2.6-.2s.6.1.8.3c.2.2.3.5.3.9s-.1.6-.3.9c-.2.2-.5.3-.8.3s-.4,0-.6-.2c-.2-.1-.3-.3-.3-.5M84,90c.2,0,.3,0,.4-.2.1-.1.2-.3.2-.4s0-.3-.2-.4c-.1-.1-.2-.2-.4-.2s-.3,0-.4.2c-.1.1-.2.2-.2.4s0,.3.2.4c.1.1.2.2.4.2M85.6,90.1c.1,0,.2,0,.4,0,.1,0,.2-.1.3-.3,0-.1,0-.2,0-.4,0-.2,0-.4-.2-.5-.1-.1-.3-.2-.5-.2s-.4,0-.5.2c-.1.1-.2.3-.2.5s0,.4.2.5c.1.1.3.2.5.2h0Z"/>
  <path class="cls-5" d="M84.9,88c-.4,0-.8,0-1-.1-.3,0-.5-.2-.6-.4-.1-.2-.2-.4-.2-.6s0-.4.1-.5c0-.1.2-.3.3-.4.1,0,.3-.2.5-.2.2,0,.5,0,.8,0s.8,0,1,.1c.3,0,.5.2.6.4.1.2.2.4.2.6s-.1.6-.4.8c-.3.2-.8.4-1.5.4M84.9,87.5c.6,0,1,0,1.2-.2.2-.1.3-.3.3-.5s0-.4-.3-.5c-.2-.1-.6-.2-1.2-.2s-1,0-1.2.2c-.2.1-.3.3-.3.5s0,.4.3.5c.2.2.6.2,1.2.2h0Z"/>
  <line class="cls-7" x1="92.9" y1="81.6" x2="92.9" y2="81.8"/>
  <path class="cls-5" d="M93.1,93.5v-.4c.2,0,.4-.1.5-.3.1-.1.2-.3.2-.4s0-.4-.2-.5c-.1-.1-.3-.2-.5-.2s-.4,0-.5.2c-.1.1-.2.3-.2.5s0,.2,0,.3h-.4c0,0,0-.1,0-.1,0-.2,0-.4-.1-.5,0-.1-.2-.2-.5-.2s-.3,0-.4.2c-.1.1-.2.2-.2.4s0,.3.2.4c.1.1.3.2.5.2v.4c-.4,0-.6-.2-.8-.4-.2-.2-.2-.4-.2-.7s0-.4.1-.5c0-.2.2-.3.3-.4.1,0,.3-.1.5-.1s.3,0,.4.1c.1,0,.2.2.3.4,0-.2.2-.4.3-.5s.3-.2.6-.2.6.1.8.3c.2.2.3.5.3.9s0,.6-.3.8c-.2.2-.4.3-.7.4h0Z"/>
  <path class="cls-5" d="M93.7,88.3h.4v2.4c-.1,0-.2,0-.3,0-.2,0-.3-.2-.5-.3-.2-.1-.3-.3-.5-.6-.3-.4-.6-.7-.8-.8-.2-.1-.4-.2-.5-.2s-.3,0-.4.2c-.1.1-.2.3-.2.5s0,.4.2.5c.1.1.3.2.5.2v.5c-.4,0-.6-.1-.8-.3-.2-.2-.3-.5-.3-.8s0-.6.3-.8c.2-.2.4-.3.7-.3s.3,0,.4,0,.3.2.4.3c.2.1.4.4.6.7.2.3.4.4.5.5,0,0,.2.1.2.2v-1.8h0Z"/>
  <path class="cls-5" d="M92.3,88c-.4,0-.8,0-1-.1-.3,0-.5-.2-.6-.4-.1-.2-.2-.4-.2-.6s0-.4.1-.5c0-.1.2-.3.3-.4.1,0,.3-.2.5-.2.2,0,.5,0,.8,0s.8,0,1,.1c.3,0,.5.2.6.4.1.2.2.4.2.6s-.1.6-.4.8c-.3.2-.8.4-1.5.4M92.3,87.5c.6,0,1,0,1.2-.2.2-.1.3-.3.3-.5s0-.4-.3-.5c-.2-.1-.6-.2-1.2-.2s-1,0-1.2.2c-.2.1-.3.3-.3.5s0,.4.3.5c.2.2.6.2,1.2.2h0Z"/>
  <line class="cls-7" x1="100.4" y1="81.6" x2="100.4" y2="81.8"/>
  <path class="cls-5" d="M100.8,93.5v-.4c.2,0,.4-.1.5-.3.1-.1.2-.3.2-.4s0-.4-.2-.5c-.1-.1-.3-.2-.5-.2s-.4,0-.5.2c-.1.1-.2.3-.2.5s0,.2,0,.3h-.4c0,0,0-.1,0-.1,0-.2,0-.4-.1-.5,0-.1-.2-.2-.5-.2s-.3,0-.4.2-.2.2-.2.4,0,.3.2.4c.1.1.3.2.5.2v.4c-.4,0-.6-.2-.8-.4-.2-.2-.2-.4-.2-.7s0-.4.1-.5c0-.2.2-.3.3-.4.1,0,.3-.1.5-.1s.3,0,.4.1c.1,0,.2.2.3.4,0-.2.2-.4.3-.5s.3-.2.6-.2.6.1.8.3.3.5.3.9,0,.6-.3.8c-.2.2-.4.3-.7.4h0Z"/>
  <path class="cls-5" d="M99.1,88.3v.4c-.1,0-.3,0-.3.2-.1.1-.2.3-.2.4s0,.3.1.4c.1.1.2.2.4.3s.5.1.8.1c-.2-.1-.3-.2-.4-.4s-.1-.3-.1-.5c0-.3.1-.5.3-.7.2-.2.5-.3.8-.3s.4,0,.6.1c.2,0,.3.2.4.4s.2.4.2.6c0,.4-.1.7-.4.9-.3.2-.7.3-1.3.3s-1.2-.1-1.5-.4c-.3-.2-.4-.5-.4-.9s0-.5.2-.7c.2-.2.4-.3.7-.3M100.6,90.1c.2,0,.3,0,.4,0,.1,0,.2-.2.3-.3,0-.1.1-.2.1-.4,0-.2,0-.3-.2-.5-.1-.1-.4-.2-.6-.2s-.4,0-.6.2c-.1.1-.2.3-.2.5s0,.4.2.5c.1.1.3.2.6.2h0Z"/>
  <path class="cls-5" d="M100,88c-.4,0-.8,0-1-.1-.3,0-.5-.2-.6-.4-.1-.2-.2-.4-.2-.6s0-.4.1-.5c0-.1.2-.3.3-.4.1,0,.3-.2.5-.2.2,0,.5,0,.8,0s.8,0,1,.1c.3,0,.5.2.6.4.1.2.2.4.2.6s-.1.6-.4.8c-.3.2-.8.4-1.5.4M100,87.5c.6,0,1,0,1.2-.2.2-.1.3-.3.3-.5s0-.4-.3-.5c-.2-.1-.6-.2-1.2-.2s-1,0-1.2.2c-.2.1-.3.3-.3.5s0,.4.3.5c.2.2.6.2,1.2.2h0Z"/>
  <line class="cls-7" x1="107.9" y1="81.6" x2="107.9" y2="81.8"/>
  <path class="cls-5" d="M109.2,92.1h-.9v1.6h-.4l-2.3-1.6v-.4h2.3v-.5h.4v.5h.9v.4M107.9,92.1h-1.6l1.6,1.1v-1.1h0Z"/>
  <path class="cls-5" d="M107.4,90.6c-.4,0-.8,0-1-.1-.3,0-.5-.2-.6-.4-.1-.2-.2-.4-.2-.6s0-.4.1-.5c0-.1.2-.3.3-.4.1,0,.3-.2.5-.2.2,0,.5,0,.8,0s.8,0,1,.1c.3,0,.5.2.6.4.1.2.2.4.2.6s-.1.6-.4.8c-.3.2-.8.4-1.5.4M107.4,90.1c.6,0,1,0,1.2-.2.2-.1.3-.3.3-.5s0-.4-.3-.5c-.2-.1-.6-.2-1.2-.2s-1,0-1.2.2c-.2.1-.3.3-.3.5s0,.4.3.5c.2.2.6.2,1.2.2h0Z"/>
  <path class="cls-5" d="M107.4,88c-.4,0-.8,0-1-.1-.3,0-.5-.2-.6-.4-.1-.2-.2-.4-.2-.6s0-.4.1-.5c0-.1.2-.3.3-.4.1,0,.3-.2.5-.2.2,0,.5,0,.8,0s.8,0,1,.1c.3,0,.5.2.6.4.1.2.2.4.2.6s-.1.6-.4.8c-.3.2-.8.4-1.5.4M107.4,87.5c.6,0,1,0,1.2-.2.2-.1.3-.3.3-.5s0-.4-.3-.5c-.2-.1-.6-.2-1.2-.2s-1,0-1.2.2c-.2.1-.3.3-.3.5s0,.4.3.5c.2.2.6.2,1.2.2h0Z"/>
  <line class="cls-7" x1="115.3" y1="81.6" x2="115.3" y2="81.8"/>
  <path class="cls-5" d="M116.6,92.1h-.9v1.6h-.4l-2.3-1.6v-.4h2.3v-.5h.4v.5h.9v.4M115.4,92.1h-1.6l1.6,1.1v-1.1h0Z"/>
  <path class="cls-5" d="M116.6,89.2h-.9v1.6h-.4l-2.3-1.6v-.4h2.3v-.5h.4v.5h.9v.4M115.4,89.2h-1.6l1.6,1.1v-1.1h0Z"/>
  <path class="cls-5" d="M114.9,88c-.4,0-.8,0-1-.1-.3,0-.5-.2-.6-.4-.1-.2-.2-.4-.2-.6s0-.4.1-.5c0-.1.2-.3.3-.4.1,0,.3-.2.5-.2.2,0,.5,0,.8,0s.8,0,1,.1c.3,0,.5.2.6.4.1.2.2.4.2.6s-.1.6-.4.8c-.3.2-.8.4-1.5.4M114.9,87.5c.6,0,1,0,1.2-.2.2-.1.3-.3.3-.5s0-.4-.3-.5c-.2-.1-.6-.2-1.2-.2s-1,0-1.2.2c-.2.1-.3.3-.3.5s0,.4.3.5c.2.2.6.2,1.2.2h0Z"/>
  <line class="cls-7" x1="122.8" y1="81.6" x2="122.8" y2="81.8"/>
  <path class="cls-5" d="M124.1,92.1h-.9v1.6h-.4l-2.3-1.6v-.4h2.3v-.5h.4v.5h.9v.4M122.8,92.1h-1.6l1.6,1.1v-1.1h0Z"/>
  <path class="cls-5" d="M122.1,89.9c0,.2-.2.3-.3.4s-.3.1-.4.1c-.3,0-.5,0-.7-.3-.2-.2-.3-.4-.3-.7s0-.6.3-.8c.2-.2.4-.3.7-.3s.3,0,.4.1c.1,0,.2.2.3.4,0-.2.2-.4.3-.5.2-.1.3-.2.6-.2s.6.1.8.3c.2.2.3.5.3.9s-.1.6-.3.9c-.2.2-.5.3-.8.3s-.4,0-.6-.2c-.2-.1-.3-.3-.3-.5M121.4,90c.2,0,.3,0,.4-.2.1-.1.2-.3.2-.4s0-.3-.2-.4c-.1-.1-.2-.2-.4-.2s-.3,0-.4.2c-.1.1-.2.2-.2.4s0,.3.2.4c.1.1.2.2.4.2M123,90.1c.1,0,.2,0,.4,0,.1,0,.2-.1.3-.3,0-.1,0-.2,0-.4,0-.2,0-.4-.2-.5-.1-.1-.3-.2-.5-.2s-.4,0-.5.2c-.1.1-.2.3-.2.5s0,.4.2.5c.1.1.3.2.5.2h0Z"/>
  <path class="cls-5" d="M122.3,88c-.4,0-.8,0-1-.1-.3,0-.5-.2-.6-.4-.1-.2-.2-.4-.2-.6s0-.4.1-.5c0-.1.2-.3.3-.4.1,0,.3-.2.5-.2.2,0,.5,0,.8,0s.8,0,1,.1c.3,0,.5.2.6.4.1.2.2.4.2.6s-.1.6-.4.8c-.3.2-.8.4-1.5.4M122.3,87.5c.6,0,1,0,1.2-.2.2-.1.3-.3.3-.5s0-.4-.3-.5c-.2-.1-.6-.2-1.2-.2s-1,0-1.2.2c-.2.1-.3.3-.3.5s0,.4.3.5c.2.2.6.2,1.2.2h0Z"/>
  <line class="cls-7" x1="130.3" y1="81.6" x2="130.3" y2="81.8"/>
  <path class="cls-5" d="M130.6,93.5v-.5c.2,0,.4-.1.5-.2.1-.1.2-.3.2-.5s0-.4-.2-.5c-.2-.1-.4-.2-.6-.2s-.4,0-.6.2c-.1.1-.2.3-.2.6s0,.3,0,.4c0,.1.1.2.2.3v.4c0,0-1.9-.3-1.9-.3v-1.8h.4v1.4l1,.2c-.1-.2-.2-.4-.2-.7s.1-.6.3-.8c.2-.2.5-.3.8-.3s.6,0,.8.3c.3.2.4.5.4.9s0,.6-.3.8c-.2.2-.4.3-.7.4h0Z"/>
  <path class="cls-5" d="M131.1,88.3h.4v2.4c-.1,0-.2,0-.3,0-.2,0-.3-.2-.5-.3-.2-.1-.3-.3-.5-.6-.3-.4-.6-.7-.8-.8-.2-.1-.4-.2-.5-.2s-.3,0-.4.2c-.1.1-.2.3-.2.5s0,.4.2.5c.1.1.3.2.5.2v.5c-.4,0-.6-.1-.8-.3-.2-.2-.3-.5-.3-.8s0-.6.3-.8c.2-.2.4-.3.7-.3s.3,0,.4,0,.3.2.4.3c.2.1.4.4.6.7.2.3.4.4.5.5,0,0,.2.1.2.2v-1.8h0Z"/>
  <path class="cls-5" d="M129.8,88c-.4,0-.8,0-1-.1-.3,0-.5-.2-.6-.4-.1-.2-.2-.4-.2-.6s0-.4.1-.5c0-.1.2-.3.3-.4.1,0,.3-.2.5-.2.2,0,.5,0,.8,0s.8,0,1,.1c.3,0,.5.2.6.4.1.2.2.4.2.6s-.1.6-.4.8c-.3.2-.8.4-1.5.4M129.8,87.5c.6,0,1,0,1.2-.2.2-.1.3-.3.3-.5s0-.4-.3-.5c-.2-.1-.6-.2-1.2-.2s-1,0-1.2.2c-.2.1-.3.3-.3.5s0,.4.3.5c.2.2.6.2,1.2.2h0Z"/>
  <line class="cls-7" x1="137.8" y1="81.6" x2="137.8" y2="81.8"/>
  <path class="cls-5" d="M138,93.5v-.5c.2,0,.4-.1.5-.2.1-.1.2-.3.2-.5s0-.4-.2-.5-.4-.2-.6-.2-.4,0-.6.2c-.1.1-.2.3-.2.6s0,.3,0,.4c0,.1.1.2.2.3v.4c0,0-1.9-.3-1.9-.3v-1.8h.4v1.4l1,.2c-.1-.2-.2-.4-.2-.7s.1-.6.3-.8c.2-.2.5-.3.8-.3s.6,0,.8.3c.3.2.4.5.4.9s0,.6-.3.8c-.2.2-.4.3-.7.4h0Z"/>
  <path class="cls-5" d="M136.3,88.3v.4c-.1,0-.3,0-.3.2-.1.1-.2.3-.2.4s0,.3.1.4c.1.1.2.2.4.3s.5.1.8.1c-.2-.1-.3-.2-.4-.4s-.1-.3-.1-.5c0-.3.1-.5.3-.7.2-.2.5-.3.8-.3s.4,0,.6.1c.2,0,.3.2.4.4s.2.4.2.6c0,.4-.1.7-.4.9-.3.2-.7.3-1.3.3s-1.2-.1-1.5-.4c-.3-.2-.4-.5-.4-.9s0-.5.2-.7c.2-.2.4-.3.7-.3M137.8,90.1c.2,0,.3,0,.4,0,.1,0,.2-.2.3-.3,0-.1.1-.2.1-.4,0-.2,0-.3-.2-.5-.1-.1-.4-.2-.6-.2s-.4,0-.6.2c-.1.1-.2.3-.2.5s0,.4.2.5c.1.1.3.2.6.2h0Z"/>
  <path class="cls-5" d="M137.2,88c-.4,0-.8,0-1-.1-.3,0-.5-.2-.6-.4-.1-.2-.2-.4-.2-.6s0-.4.1-.5c0-.1.2-.3.3-.4.1,0,.3-.2.5-.2.2,0,.5,0,.8,0s.8,0,1,.1c.3,0,.5.2.6.4.1.2.2.4.2.6s-.1.6-.4.8c-.3.2-.8.4-1.5.4M137.2,87.5c.6,0,1,0,1.2-.2.2-.1.3-.3.3-.5s0-.4-.3-.5c-.2-.1-.6-.2-1.2-.2s-1,0-1.2.2c-.2.1-.3.3-.3.5s0,.4.3.5c.2.2.6.2,1.2.2h0Z"/>
  <line class="cls-7" x1="145.3" y1="81.6" x2="145.3" y2="81.8"/>
  <path class="cls-5" d="M143.9,91.2v.4c-.1,0-.3,0-.3.2-.1.1-.2.3-.2.4s0,.3.1.4c.1.1.2.2.4.3.2,0,.5.1.8.1-.2-.1-.3-.2-.4-.4,0-.2-.1-.3-.1-.5,0-.3.1-.5.3-.7.2-.2.5-.3.8-.3s.4,0,.6.1c.2,0,.3.2.4.4s.2.4.2.6c0,.4-.1.7-.4.9-.3.2-.7.3-1.3.3s-1.2-.1-1.5-.4c-.3-.2-.4-.5-.4-.9s0-.5.2-.7c.2-.2.4-.3.7-.3M145.5,93c.2,0,.3,0,.4,0,.1,0,.2-.2.3-.3,0-.1.1-.2.1-.4,0-.2,0-.3-.2-.5-.1-.1-.4-.2-.6-.2s-.4,0-.6.2c-.1.1-.2.3-.2.5s0,.4.2.5c.1.1.3.2.6.2h0Z"/>
  <path class="cls-5" d="M144.9,90.6c-.4,0-.8,0-1-.1-.3,0-.5-.2-.6-.4-.1-.2-.2-.4-.2-.6s0-.4.1-.5c0-.1.2-.3.3-.4.1,0,.3-.2.5-.2.2,0,.5,0,.8,0s.8,0,1,.1c.3,0,.5.2.6.4.1.2.2.4.2.6s-.1.6-.4.8c-.3.2-.8.4-1.5.4M144.9,90.1c.6,0,1,0,1.2-.2.2-.1.3-.3.3-.5s0-.4-.3-.5c-.2-.1-.6-.2-1.2-.2s-1,0-1.2.2c-.2.1-.3.3-.3.5s0,.4.3.5c.2.2.6.2,1.2.2h0Z"/>
  <path class="cls-5" d="M144.9,88c-.4,0-.8,0-1-.1-.3,0-.5-.2-.6-.4-.1-.2-.2-.4-.2-.6s0-.4.1-.5c0-.1.2-.3.3-.4.1,0,.3-.2.5-.2.2,0,.5,0,.8,0s.8,0,1,.1c.3,0,.5.2.6.4.1.2.2.4.2.6s-.1.6-.4.8c-.3.2-.8.4-1.5.4M144.9,87.5c.6,0,1,0,1.2-.2.2-.1.3-.3.3-.5s0-.4-.3-.5c-.2-.1-.6-.2-1.2-.2s-1,0-1.2.2c-.2.1-.3.3-.3.5s0,.4.3.5c.2.2.6.2,1.2.2h0Z"/>
  <line class="cls-7" x1="152.7" y1="81.6" x2="152.7" y2="81.8"/>
  <path class="cls-5" d="M151.4,91.2v.4c-.1,0-.3,0-.3.2-.1.1-.2.3-.2.4s0,.3.1.4c.1.1.2.2.4.3.2,0,.5.1.8.1-.2-.1-.3-.2-.4-.4,0-.2-.1-.3-.1-.5,0-.3.1-.5.3-.7.2-.2.5-.3.8-.3s.4,0,.6.1c.2,0,.3.2.4.4s.2.4.2.6c0,.4-.1.7-.4.9-.3.2-.7.3-1.3.3s-1.2-.1-1.5-.4c-.3-.2-.4-.5-.4-.9s0-.5.2-.7c.2-.2.4-.3.7-.3M152.9,93c.2,0,.3,0,.4,0,.1,0,.2-.2.3-.3,0-.1.1-.2.1-.4,0-.2,0-.3-.2-.5-.1-.1-.4-.2-.6-.2s-.4,0-.6.2c-.1.1-.2.3-.2.5s0,.4.2.5c.1.1.3.2.6.2h0Z"/>
  <path class="cls-5" d="M154.1,89.2h-.9v1.6h-.4l-2.3-1.6v-.4h2.3v-.5h.4v.5h.9v.4M152.8,89.2h-1.6l1.6,1.1v-1.1h0Z"/>
  <path class="cls-5" d="M152.3,88c-.4,0-.8,0-1-.1-.3,0-.5-.2-.6-.4-.1-.2-.2-.4-.2-.6s0-.4.1-.5c0-.1.2-.3.3-.4.1,0,.3-.2.5-.2.2,0,.5,0,.8,0s.8,0,1,.1c.3,0,.5.2.6.4.1.2.2.4.2.6s-.1.6-.4.8c-.3.2-.8.4-1.5.4M152.3,87.5c.6,0,1,0,1.2-.2.2-.1.3-.3.3-.5s0-.4-.3-.5c-.2-.1-.6-.2-1.2-.2s-1,0-1.2.2c-.2.1-.3.3-.3.5s0,.4.3.5c.2.2.6.2,1.2.2h0Z"/>
  <line class="cls-7" x1="160.2" y1="81.6" x2="160.2" y2="81.8"/>
  <path class="cls-5" d="M158.8,91.2v.4c-.1,0-.3,0-.3.2-.1.1-.2.3-.2.4s0,.3.1.4c.1.1.2.2.4.3.2,0,.5.1.8.1-.2-.1-.3-.2-.4-.4,0-.2-.1-.3-.1-.5,0-.3.1-.5.3-.7.2-.2.5-.3.8-.3s.4,0,.6.1c.2,0,.3.2.4.4s.2.4.2.6c0,.4-.1.7-.4.9-.3.2-.7.3-1.3.3s-1.2-.1-1.5-.4c-.3-.2-.4-.5-.4-.9s0-.5.2-.7c.2-.2.4-.3.7-.3M160.4,93c.2,0,.3,0,.4,0,.1,0,.2-.2.3-.3,0-.1.1-.2.1-.4,0-.2,0-.3-.2-.5-.1-.1-.4-.2-.6-.2s-.4,0-.6.2c-.1.1-.2.3-.2.5s0,.4.2.5c.1.1.3.2.6.2h0Z"/>
  <path class="cls-5" d="M159.6,89.9c0,.2-.2.3-.3.4s-.3.1-.4.1c-.3,0-.5,0-.7-.3-.2-.2-.3-.4-.3-.7s0-.6.3-.8c.2-.2.4-.3.7-.3s.3,0,.4.1c.1,0,.2.2.3.4,0-.2.2-.4.3-.5.2-.1.3-.2.6-.2s.6.1.8.3c.2.2.3.5.3.9s-.1.6-.3.9c-.2.2-.5.3-.8.3s-.4,0-.6-.2c-.2-.1-.3-.3-.3-.5M158.8,90c.2,0,.3,0,.4-.2.1-.1.2-.3.2-.4s0-.3-.2-.4c-.1-.1-.2-.2-.4-.2s-.3,0-.4.2c-.1.1-.2.2-.2.4s0,.3.2.4c.1.1.2.2.4.2M160.5,90.1c.1,0,.2,0,.4,0,.1,0,.2-.1.3-.3,0-.1,0-.2,0-.4,0-.2,0-.4-.2-.5-.1-.1-.3-.2-.5-.2s-.4,0-.5.2c-.1.1-.2.3-.2.5s0,.4.2.5c.1.1.3.2.5.2h0Z"/>
  <path class="cls-5" d="M159.8,88c-.4,0-.8,0-1-.1-.3,0-.5-.2-.6-.4-.1-.2-.2-.4-.2-.6s0-.4.1-.5c0-.1.2-.3.3-.4.1,0,.3-.2.5-.2.2,0,.5,0,.8,0s.8,0,1,.1c.3,0,.5.2.6.4.1.2.2.4.2.6s-.1.6-.4.8c-.3.2-.8.4-1.5.4M159.8,87.5c.6,0,1,0,1.2-.2.2-.1.3-.3.3-.5s0-.4-.3-.5c-.2-.1-.6-.2-1.2-.2s-1,0-1.2.2c-.2.1-.3.3-.3.5s0,.4.3.5c.2.2.6.2,1.2.2h0Z"/>
  <line class="cls-7" x1="167.7" y1="81.6" x2="167.7" y2="81.8"/>
  <path class="cls-5" d="M165.8,93.4h-.4v-2.3h.3c.2.2.6.5,1,.7.4.2.8.4,1.2.5.3,0,.6.1,1,.2v.5c-.3,0-.6,0-1-.2-.4-.1-.8-.3-1.2-.5-.4-.2-.7-.4-.9-.6v1.8h0Z"/>
  <path class="cls-5" d="M168.5,88.3h.4v2.4c-.1,0-.2,0-.3,0-.2,0-.3-.2-.5-.3-.2-.1-.3-.3-.5-.6-.3-.4-.6-.7-.8-.8-.2-.1-.4-.2-.5-.2s-.3,0-.4.2c-.1.1-.2.3-.2.5s0,.4.2.5c.1.1.3.2.5.2v.5c-.4,0-.6-.1-.8-.3-.2-.2-.3-.5-.3-.8s0-.6.3-.8c.2-.2.4-.3.7-.3s.3,0,.4,0,.3.2.4.3c.2.1.4.4.6.7.2.3.4.4.5.5,0,0,.2.1.2.2v-1.8h0Z"/>
  <path class="cls-5" d="M167.2,88c-.4,0-.8,0-1-.1-.3,0-.5-.2-.6-.4-.1-.2-.2-.4-.2-.6s0-.4.1-.5c0-.1.2-.3.3-.4.1,0,.3-.2.5-.2.2,0,.5,0,.8,0s.8,0,1,.1c.3,0,.5.2.6.4.1.2.2.4.2.6s-.1.6-.4.8c-.3.2-.8.4-1.5.4M167.2,87.5c.6,0,1,0,1.2-.2.2-.1.3-.3.3-.5s0-.4-.3-.5c-.2-.1-.6-.2-1.2-.2s-1,0-1.2.2c-.2.1-.3.3-.3.5s0,.4.3.5c.2.2.6.2,1.2.2h0Z"/>
  <path class="cls-5" d="M64.4,100.1h.5c-.1.5-.3.8-.5,1-.3.2-.6.3-.9.3s-.7,0-.9-.2c-.2-.2-.4-.4-.6-.7-.1-.3-.2-.6-.2-1s0-.7.2-1c.1-.3.3-.5.6-.6.3-.1.6-.2.9-.2s.7,0,.9.3c.2.2.4.4.5.8h-.5c0-.2-.2-.3-.4-.5-.2-.1-.4-.2-.6-.2s-.5,0-.7.2c-.2.1-.3.3-.4.5,0,.2-.1.4-.1.7s0,.6.1.8c0,.2.2.4.4.5.2.1.4.2.6.2s.5,0,.7-.2.3-.4.4-.7h0Z"/>
  <path class="cls-5" d="M67.3,101c-.2.1-.3.2-.5.3-.1,0-.3,0-.5,0-.3,0-.5,0-.7-.2s-.2-.3-.2-.5,0-.2,0-.3c0-.1.1-.2.2-.3,0,0,.2-.1.3-.1,0,0,.2,0,.4,0,.4,0,.6,0,.8-.2,0,0,0,0,0-.1,0-.2,0-.3-.1-.4-.1-.1-.3-.1-.5-.1s-.4,0-.5.1c0,0-.2.2-.2.4h-.4c0-.2.1-.4.2-.5,0-.1.2-.2.4-.3.2,0,.4,0,.6,0s.4,0,.5,0,.2.1.3.2c0,0,.1.2.1.3,0,0,0,.2,0,.4v.6c0,.4,0,.7,0,.8,0,.1,0,.2.1.3h-.5c0,0,0-.2,0-.3M67.3,100.1c-.2,0-.4.1-.7.2-.2,0-.3,0-.4,0,0,0-.1,0-.2.1,0,0,0,.1,0,.2,0,.1,0,.2.1.3,0,0,.2.1.4.1s.3,0,.5-.1c.1,0,.2-.2.3-.3,0-.1,0-.2,0-.4v-.2h0Z"/>
  <path class="cls-5" d="M68.1,100.6h.4c0,.1,0,.2.2.3.1,0,.3.1.5.1s.4,0,.4-.1c0,0,.1-.2.1-.3s0-.2-.1-.2c0,0-.2,0-.4-.1-.3,0-.5-.2-.7-.2-.1,0-.2-.1-.3-.2,0-.1,0-.2,0-.3s0-.2,0-.3c0-.1.1-.2.2-.2,0,0,.2,0,.3-.1.1,0,.2,0,.4,0,.2,0,.4,0,.5,0s.3.1.3.2c0,.1.1.2.2.4h-.4c0,0,0-.2-.2-.3,0,0-.2-.1-.4-.1s-.3,0-.4.1c0,0-.1.1-.1.2s0,.1,0,.2c0,0,0,0,.2.1,0,0,.2,0,.4.1.3,0,.5.2.6.2.1,0,.2.1.3.2,0,.1.1.2.1.4s0,.3-.1.4c0,.1-.2.2-.4.3-.2,0-.3.1-.5.1-.3,0-.6,0-.8-.2-.2-.1-.3-.3-.3-.6h0Z"/>
  <path class="cls-5" d="M72.7,100.5h.5c0,.3-.2.5-.4.7-.2.1-.4.2-.7.2s-.7-.1-.9-.3c-.2-.2-.3-.6-.3-1s.1-.8.3-1c.2-.2.5-.4.9-.4s.6.1.8.4c.2.2.3.6.3,1s0,0,0,.1h-1.9c0,.3,0,.5.2.7.1.2.3.2.5.2s.3,0,.4-.1c.1,0,.2-.2.3-.4M71.2,99.8h1.4c0-.2,0-.4-.2-.5-.1-.2-.3-.3-.5-.3s-.4,0-.5.2c-.1.1-.2.3-.2.5h0Z"/>
  <polygon class="cls-5" points="75.1 101.4 75.1 97.8 75.6 97.8 75.6 101.4 75.1 101.4 75.1 101.4"/>
  <path class="cls-5" d="M76.5,101.4v-3.6h1.2c.3,0,.5,0,.6,0,.2,0,.4.1.5.3.2.2.3.4.4.6,0,.2.1.5.1.8s0,.5,0,.7c0,.2-.1.4-.2.5-.1.1-.2.2-.3.3-.1,0-.3.1-.4.2-.2,0-.4,0-.6,0h-1.3M76.9,100.9h.8c.2,0,.4,0,.6,0,.1,0,.2-.1.3-.2.1-.1.2-.3.3-.5,0-.2,0-.4,0-.7s0-.7-.2-.9c-.1-.2-.3-.3-.4-.4-.1,0-.3,0-.6,0h-.8v2.7h0Z"/>
  <path class="cls-5" d="M82.3,102.4c-.2-.3-.4-.7-.6-1.1s-.3-.8-.3-1.3,0-.8.2-1.1c.1-.4.4-.8.7-1.2h.3c-.2.3-.3.6-.4.7-.1.2-.2.5-.2.7,0,.3-.1.6-.1.9,0,.8.2,1.6.7,2.3h-.3Z"/>
  <path class="cls-5" d="M82.7,100.6h.4c0,.1,0,.2.2.3.1,0,.3.1.5.1s.4,0,.4-.1c0,0,.1-.2.1-.3s0-.2-.1-.2c0,0-.2,0-.4-.1-.3,0-.5-.2-.7-.2-.1,0-.2-.1-.3-.2,0-.1,0-.2,0-.3s0-.2,0-.3c0-.1.1-.2.2-.2,0,0,.2,0,.3-.1.1,0,.2,0,.4,0,.2,0,.4,0,.5,0s.3.1.3.2c0,.1.1.2.2.4h-.4c0,0,0-.2-.2-.3,0,0-.2-.1-.4-.1s-.3,0-.4.1c0,0-.1.1-.1.2s0,.1,0,.2c0,0,0,0,.2.1,0,0,.2,0,.4.1.3,0,.5.2.6.2.1,0,.2.1.3.2,0,.1.1.2.1.4s0,.3-.1.4c0,.1-.2.2-.4.3-.2,0-.3.1-.5.1-.3,0-.6,0-.8-.2-.2-.1-.3-.3-.3-.6h0Z"/>
  <path class="cls-5" d="M85.4,100.1c0-.5.1-.8.4-1.1.2-.2.5-.3.8-.3s.6.1.9.4c.2.2.3.6.3,1s0,.6-.2.8c-.1.2-.2.3-.4.4-.2.1-.4.2-.6.2-.4,0-.7-.1-.9-.3-.2-.2-.3-.6-.3-1M85.8,100.1c0,.3,0,.6.2.7.1.2.3.2.5.2s.4,0,.5-.2c.1-.2.2-.4.2-.8s0-.6-.2-.7c-.1-.2-.3-.2-.5-.2s-.4,0-.5.2c-.1.2-.2.4-.2.7h0Z"/>
  <path class="cls-5" d="M88.2,101.4v-2.6h.4v.4c.1-.2.2-.3.3-.4,0,0,.2,0,.3,0,.1,0,.3,0,.5.1l-.2.4c-.1,0-.2,0-.3,0s-.2,0-.3,0c0,0-.1.1-.2.2,0,.2,0,.3,0,.5v1.4h-.4Z"/>
  <path class="cls-5" d="M90.8,101v.4c0,0-.2,0-.3,0-.2,0-.3,0-.4,0s-.1-.1-.2-.2c0,0,0-.3,0-.5v-1.5h-.3v-.3h.3v-.6l.4-.3v.9h.4v.3h-.4v1.5c0,.1,0,.2,0,.2,0,0,0,0,0,0,0,0,0,0,.2,0s.1,0,.2,0h0Z"/>
  <path class="cls-5" d="M93.1,100.5h.5c0,.3-.2.5-.4.7s-.4.2-.7.2-.7-.1-.9-.3c-.2-.2-.3-.6-.3-1s.1-.8.3-1,.5-.4.9-.4.6.1.8.4c.2.2.3.6.3,1s0,0,0,.1h-1.9c0,.3,0,.5.2.7.1.2.3.2.5.2s.3,0,.4-.1c.1,0,.2-.2.3-.4M91.6,99.8h1.4c0-.2,0-.4-.2-.5-.1-.2-.3-.3-.5-.3s-.4,0-.5.2c-.1.1-.2.3-.2.5h0Z"/>
  <path class="cls-5" d="M95.9,101.4v-.3c-.2.3-.4.4-.7.4s-.4,0-.6-.2c-.2-.1-.3-.3-.4-.5,0-.2-.1-.4-.1-.7s0-.5.1-.7c0-.2.2-.4.4-.5.2-.1.4-.2.6-.2s.3,0,.4.1c.1,0,.2.2.3.3v-1.3h.4v3.6h-.4M94.5,100.1c0,.3,0,.6.2.7.1.2.3.2.5.2s.4,0,.5-.2c.1-.2.2-.4.2-.7s0-.6-.2-.8c-.1-.2-.3-.2-.5-.2s-.4,0-.5.2c-.1.2-.2.4-.2.8h0Z"/>
  <path class="cls-5" d="M98.7,101.4h-.4v-3.6h.4v1.3c.2-.2.4-.3.7-.3s.3,0,.5,0c.1,0,.3.2.4.3,0,.1.2.3.2.4,0,.2,0,.3,0,.5,0,.4-.1.8-.3,1s-.5.4-.8.4-.5-.1-.7-.4v.3M98.6,100c0,.3,0,.5.1.7.1.2.3.3.6.3s.4,0,.5-.2c.1-.2.2-.4.2-.7s0-.6-.2-.7c-.1-.2-.3-.2-.5-.2s-.4,0-.5.3c-.1.2-.2.4-.2.7h0Z"/>
  <path class="cls-5" d="M101.1,102.4v-.4s.1,0,.2,0,.2,0,.2,0c0,0,.1,0,.1-.1,0,0,0-.2.1-.3,0,0,0,0,0-.1l-1-2.6h.5l.5,1.5c0,.2.1.4.2.6,0-.2.1-.4.2-.6l.6-1.5h.4l-1,2.6c-.1.3-.2.5-.2.6,0,.1-.2.3-.3.3-.1,0-.2.1-.4.1s-.2,0-.3,0h0Z"/>
  <path class="cls-5" d="M106.7,101c-.2.1-.3.2-.5.3-.1,0-.3,0-.5,0-.3,0-.5,0-.7-.2s-.2-.3-.2-.5,0-.2,0-.3c0-.1.1-.2.2-.3,0,0,.2-.1.3-.1,0,0,.2,0,.4,0,.4,0,.6,0,.8-.2,0,0,0,0,0-.1,0-.2,0-.3-.1-.4-.1-.1-.3-.1-.5-.1s-.4,0-.5.1c0,0-.2.2-.2.4h-.4c0-.2.1-.4.2-.5,0-.1.2-.2.4-.3.2,0,.4,0,.6,0s.4,0,.5,0,.2.1.3.2c0,0,.1.2.1.3,0,0,0,.2,0,.4v.6c0,.4,0,.7,0,.8,0,.1,0,.2.1.3h-.5c0,0,0-.2,0-.3M106.6,100.1c-.2,0-.4.1-.7.2-.2,0-.3,0-.4,0,0,0-.1,0-.2.1,0,0,0,.1,0,.2,0,.1,0,.2.1.3,0,0,.2.1.4.1s.3,0,.5-.1c.1,0,.2-.2.3-.3,0-.1,0-.2,0-.4v-.2h0Z"/>
  <path class="cls-5" d="M107.7,100.6h.4c0,.1,0,.2.2.3.1,0,.3.1.5.1s.4,0,.4-.1c0,0,.1-.2.1-.3s0-.2-.1-.2c0,0-.2,0-.4-.1-.3,0-.5-.2-.7-.2-.1,0-.2-.1-.3-.2,0-.1,0-.2,0-.3s0-.2,0-.3c0-.1.1-.2.2-.2,0,0,.2,0,.3-.1.1,0,.2,0,.4,0,.2,0,.4,0,.5,0s.3.1.3.2c0,.1.1.2.2.4h-.4c0,0,0-.2-.2-.3,0,0-.2-.1-.4-.1s-.3,0-.4.1c0,0-.1.1-.1.2s0,.1,0,.2c0,0,0,0,.2.1,0,0,.2,0,.4.1.3,0,.5.2.6.2.1,0,.2.1.3.2,0,.1.1.2.1.4s0,.3-.1.4c0,.1-.2.2-.4.3-.2,0-.3.1-.5.1-.3,0-.6,0-.8-.2-.2-.1-.3-.3-.3-.6h0Z"/>
  <path class="cls-5" d="M111.9,100.4h.4c0,.4-.2.6-.4.8-.2.2-.4.3-.7.3s-.6-.1-.9-.3c-.2-.2-.3-.6-.3-1s0-.5.1-.7c0-.2.2-.4.4-.5.2-.1.4-.2.6-.2s.5,0,.7.2c.2.1.3.3.3.6h-.4c0-.1-.1-.2-.2-.3-.1,0-.2-.1-.4-.1-.2,0-.4,0-.5.2-.1.2-.2.4-.2.8s0,.6.2.8c.1.2.3.2.5.2s.3,0,.4-.2c.1-.1.2-.3.2-.5h0Z"/>
  <path class="cls-5" d="M114.4,100.5h.5c0,.3-.2.5-.4.7s-.4.2-.7.2-.7-.1-.9-.3c-.2-.2-.3-.6-.3-1s.1-.8.3-1,.5-.4.9-.4.6.1.8.4c.2.2.3.6.3,1s0,0,0,.1h-1.9c0,.3,0,.5.2.7.1.2.3.2.5.2s.3,0,.4-.1c.1,0,.2-.2.3-.4M113,99.8h1.4c0-.2,0-.4-.2-.5-.1-.2-.3-.3-.5-.3s-.4,0-.5.2c-.1.1-.2.3-.2.5h0Z"/>
  <path class="cls-5" d="M115.5,101.4v-2.6h.4v.4c.2-.3.5-.4.8-.4s.3,0,.4,0c.1,0,.2.1.3.2,0,0,.1.2.1.3,0,0,0,.2,0,.4v1.6h-.4v-1.6c0-.2,0-.3,0-.4,0,0,0-.2-.2-.2,0,0-.2,0-.3,0-.2,0-.3,0-.5.2-.1.1-.2.3-.2.7v1.4h-.4Z"/>
  <path class="cls-5" d="M120.1,101.4v-.3c-.2.3-.4.4-.7.4s-.4,0-.6-.2c-.2-.1-.3-.3-.4-.5,0-.2-.1-.4-.1-.7s0-.5.1-.7c0-.2.2-.4.4-.5.2-.1.4-.2.6-.2s.3,0,.4.1c.1,0,.2.2.3.3v-1.3h.4v3.6h-.4M118.7,100.1c0,.3,0,.6.2.7.1.2.3.2.5.2s.4,0,.5-.2c.1-.2.2-.4.2-.7s0-.6-.2-.8c-.1-.2-.3-.2-.5-.2s-.4,0-.5.2c-.1.2-.2.4-.2.8h0Z"/>
  <path class="cls-5" d="M121.1,98.3v-.5h.4v.5h-.4M121.1,101.4v-2.6h.4v2.6h-.4Z"/>
  <path class="cls-5" d="M122.2,101.4v-2.6h.4v.4c.2-.3.5-.4.8-.4s.3,0,.4,0c.1,0,.2.1.3.2,0,0,.1.2.1.3,0,0,0,.2,0,.4v1.6h-.4v-1.6c0-.2,0-.3,0-.4,0,0,0-.2-.2-.2,0,0-.2,0-.3,0-.2,0-.3,0-.5.2-.1.1-.2.3-.2.7v1.4h-.4Z"/>
  <path class="cls-5" d="M124.8,101.6h.4c0,.2,0,.3.1.4.1,0,.3.1.4.1s.4,0,.5-.1.2-.2.2-.3c0,0,0-.3,0-.6-.2.2-.4.3-.7.3s-.6-.1-.8-.4c-.2-.3-.3-.6-.3-.9s0-.5.1-.7c0-.2.2-.4.4-.5.2-.1.4-.2.6-.2s.6.1.8.4v-.3h.4v2.2c0,.4,0,.7-.1.9,0,.2-.2.3-.4.4-.2,0-.4.1-.7.1s-.6,0-.7-.2-.3-.3-.3-.6M125.2,100c0,.3,0,.6.2.7.1.2.3.2.5.2s.4,0,.5-.2c.1-.2.2-.4.2-.7s0-.6-.2-.7c-.1-.2-.3-.2-.5-.2s-.4,0-.5.2c-.1.2-.2.4-.2.7h0Z"/>
  <polygon class="cls-5" points="129.2 101.4 129.2 97.8 129.6 97.8 129.6 101.4 129.2 101.4 129.2 101.4"/>
  <path class="cls-5" d="M130,100.1c0-.5.1-.8.4-1.1.2-.2.5-.3.8-.3s.6.1.9.4c.2.2.3.6.3,1s0,.6-.2.8c-.1.2-.2.3-.4.4-.2.1-.4.2-.6.2-.4,0-.7-.1-.9-.3-.2-.2-.3-.6-.3-1M130.5,100.1c0,.3,0,.6.2.7.1.2.3.2.5.2s.4,0,.5-.2c.1-.2.2-.4.2-.8s0-.6-.2-.7c-.1-.2-.3-.2-.5-.2s-.4,0-.5.2c-.1.2-.2.4-.2.7h0Z"/>
  <path class="cls-5" d="M132.9,100.6h.4c0,.1,0,.2.2.3.1,0,.3.1.5.1s.4,0,.4-.1c0,0,.1-.2.1-.3s0-.2-.1-.2c0,0-.2,0-.4-.1-.3,0-.5-.2-.7-.2-.1,0-.2-.1-.3-.2,0-.1,0-.2,0-.3s0-.2,0-.3c0-.1.1-.2.2-.2,0,0,.2,0,.3-.1.1,0,.2,0,.4,0,.2,0,.4,0,.5,0s.3.1.3.2c0,.1.1.2.2.4h-.4c0,0,0-.2-.2-.3,0,0-.2-.1-.4-.1s-.3,0-.4.1c0,0-.1.1-.1.2s0,.1,0,.2c0,0,0,0,.2.1,0,0,.2,0,.4.1.3,0,.5.2.6.2.1,0,.2.1.3.2,0,.1.1.2.1.4s0,.3-.1.4c0,.1-.2.2-.4.3-.2,0-.3.1-.5.1-.3,0-.6,0-.8-.2-.2-.1-.3-.3-.3-.6h0Z"/>
  <path class="cls-5" d="M135.3,100.6h.4c0,.1,0,.2.2.3.1,0,.3.1.5.1s.4,0,.4-.1c0,0,.1-.2.1-.3s0-.2-.1-.2c0,0-.2,0-.4-.1-.3,0-.5-.2-.7-.2-.1,0-.2-.1-.3-.2,0-.1,0-.2,0-.3s0-.2,0-.3c0-.1.1-.2.2-.2,0,0,.2,0,.3-.1.1,0,.2,0,.4,0,.2,0,.4,0,.5,0s.3.1.3.2c0,.1.1.2.2.4h-.4c0,0,0-.2-.2-.3,0,0-.2-.1-.4-.1s-.3,0-.4.1-.1.1-.1.2,0,.1,0,.2c0,0,0,0,.2.1,0,0,.2,0,.4.1.3,0,.5.2.6.2.1,0,.2.1.3.2,0,.1.1.2.1.4s0,.3-.1.4c0,.1-.2.2-.4.3-.2,0-.3.1-.5.1-.3,0-.6,0-.8-.2-.2-.1-.3-.3-.3-.6h0Z"/>
  <path class="cls-5" d="M138.4,102.4h-.3c.5-.8.7-1.6.7-2.3s0-.6-.1-.9c0-.2-.1-.5-.2-.7,0-.1-.2-.4-.4-.7h.3c.3.4.5.8.7,1.2.1.4.2.7.2,1.1s0,.9-.3,1.3-.4.8-.6,1.1h0Z"/>
  <line class="cls-7" x1="26.4" y1="81.6" x2="26.2" y2="81.6"/>
  <path class="cls-5" d="M16,81.6c0-.4,0-.8.1-1,0-.3.2-.5.4-.6.2-.1.4-.2.6-.2s.4,0,.5.1c.1,0,.3.2.4.3,0,.1.2.3.2.5,0,.2,0,.5,0,.8s0,.8-.1,1c0,.3-.2.5-.4.6-.2.1-.4.2-.6.2s-.6-.1-.8-.4c-.2-.3-.4-.8-.4-1.5M16.5,81.6c0,.6,0,1,.2,1.2.1.2.3.3.5.3s.4,0,.5-.3c.1-.2.2-.6.2-1.2s0-1-.2-1.2c-.1-.2-.3-.3-.5-.3s-.4,0-.5.3c-.2.2-.2.6-.2,1.2h0Z"/>
  <polygon class="cls-5" points="18.9 83.4 18.9 82.9 19.4 82.9 19.4 83.4 18.9 83.4 18.9 83.4"/>
  <path class="cls-5" d="M20.1,81.6c0-.4,0-.8.1-1,0-.3.2-.5.4-.6.2-.1.4-.2.6-.2s.4,0,.5.1c.1,0,.3.2.4.3,0,.1.2.3.2.5,0,.2,0,.5,0,.8s0,.8-.1,1c0,.3-.2.5-.4.6-.2.1-.4.2-.6.2s-.6-.1-.8-.4c-.2-.3-.4-.8-.4-1.5M20.6,81.6c0,.6,0,1,.2,1.2.1.2.3.3.5.3s.4,0,.5-.3c.1-.2.2-.6.2-1.2s0-1-.2-1.2c-.1-.2-.3-.3-.5-.3s-.4,0-.5.3c-.2.2-.2.6-.2,1.2h0Z"/>
  <line class="cls-7" x1="26.4" y1="67.4" x2="26.2" y2="67.4"/>
  <path class="cls-5" d="M16,67.4c0-.4,0-.8.1-1,0-.3.2-.5.4-.6.2-.1.4-.2.6-.2s.4,0,.5.1c.1,0,.3.2.4.3,0,.1.2.3.2.5,0,.2,0,.5,0,.8s0,.8-.1,1c0,.3-.2.5-.4.6-.2.1-.4.2-.6.2s-.6-.1-.8-.4c-.2-.3-.4-.8-.4-1.5M16.5,67.4c0,.6,0,1,.2,1.2.1.2.3.3.5.3s.4,0,.5-.3c.1-.2.2-.6.2-1.2s0-1-.2-1.2c-.1-.2-.3-.3-.5-.3s-.4,0-.5.3c-.2.2-.2.6-.2,1.2h0Z"/>
  <polygon class="cls-5" points="18.9 69.2 18.9 68.7 19.4 68.7 19.4 69.2 18.9 69.2 18.9 69.2"/>
  <path class="cls-5" d="M22.4,68.8v.4h-2.4c0-.1,0-.2,0-.3,0-.2.2-.3.3-.5.1-.2.3-.3.6-.5.4-.3.7-.6.8-.8.1-.2.2-.4.2-.5s0-.3-.2-.4c-.1-.1-.3-.2-.5-.2s-.4,0-.5.2-.2.3-.2.5h-.5c0-.4.1-.6.3-.8.2-.2.5-.3.8-.3s.6,0,.8.3c.2.2.3.4.3.7s0,.3,0,.4-.2.3-.3.4c-.1.2-.4.4-.7.6-.3.2-.4.4-.5.5,0,0-.1.2-.2.2h1.8Z"/>
  <line class="cls-7" x1="26.4" y1="53.3" x2="26.2" y2="53.3"/>
  <path class="cls-5" d="M16,53.3c0-.4,0-.8.1-1,0-.3.2-.5.4-.6.2-.1.4-.2.6-.2s.4,0,.5.1c.1,0,.3.2.4.3,0,.1.2.3.2.5,0,.2,0,.5,0,.8s0,.8-.1,1c0,.3-.2.5-.4.6-.2.1-.4.2-.6.2s-.6-.1-.8-.4c-.2-.3-.4-.8-.4-1.5M16.5,53.3c0,.6,0,1,.2,1.2.1.2.3.3.5.3s.4,0,.5-.3c.1-.2.2-.6.2-1.2s0-1-.2-1.2c-.1-.2-.3-.3-.5-.3s-.4,0-.5.3c-.2.2-.2.6-.2,1.2h0Z"/>
  <polygon class="cls-5" points="18.9 55 18.9 54.5 19.4 54.5 19.4 55 18.9 55 18.9 55"/>
  <path class="cls-5" d="M21.5,55v-.9h-1.6v-.4l1.6-2.3h.4v2.3h.5v.4h-.5v.9h-.4M21.5,53.8v-1.6l-1.1,1.6h1.1Z"/>
  <line class="cls-7" x1="26.4" y1="39.1" x2="26.2" y2="39.1"/>
  <path class="cls-5" d="M16,39.1c0-.4,0-.8.1-1,0-.3.2-.5.4-.6.2-.1.4-.2.6-.2s.4,0,.5.1c.1,0,.3.2.4.3,0,.1.2.3.2.5,0,.2,0,.5,0,.8s0,.8-.1,1c0,.3-.2.5-.4.6-.2.1-.4.2-.6.2s-.6-.1-.8-.4c-.2-.3-.4-.8-.4-1.5M16.5,39.1c0,.6,0,1,.2,1.2.1.2.3.3.5.3s.4,0,.5-.3c.1-.2.2-.6.2-1.2s0-1-.2-1.2c-.1-.2-.3-.3-.5-.3s-.4,0-.5.3c-.2.2-.2.6-.2,1.2h0Z"/>
  <polygon class="cls-5" points="18.9 40.9 18.9 40.4 19.4 40.4 19.4 40.9 18.9 40.9 18.9 40.9"/>
  <path class="cls-5" d="M22.4,38.2h-.4c0-.1,0-.3-.2-.3-.1-.1-.3-.2-.4-.2s-.3,0-.4.1c-.1.1-.2.2-.3.4s-.1.5-.1.8c.1-.2.2-.3.4-.4s.3-.1.5-.1c.3,0,.5.1.7.3.2.2.3.5.3.8s0,.4-.1.6c0,.2-.2.3-.4.4s-.4.2-.6.2c-.4,0-.7-.1-.9-.4-.2-.3-.3-.7-.3-1.3s.1-1.2.4-1.5c.2-.3.5-.4.9-.4s.5,0,.7.2c.2.2.3.4.3.7M20.6,39.7c0,.2,0,.3,0,.4,0,.1.2.2.3.3.1,0,.2.1.4.1.2,0,.3,0,.5-.2.1-.1.2-.4.2-.6s0-.4-.2-.6c-.1-.1-.3-.2-.5-.2s-.4,0-.5.2c-.1.1-.2.3-.2.6h0Z"/>
  <line class="cls-7" x1="26.4" y1="24.9" x2="26.2" y2="24.9"/>
  <path class="cls-5" d="M16,25c0-.4,0-.8.1-1,0-.3.2-.5.4-.6.2-.1.4-.2.6-.2s.4,0,.5.1c.1,0,.3.2.4.3,0,.1.2.3.2.5,0,.2,0,.5,0,.8s0,.8-.1,1c0,.3-.2.5-.4.6-.2.1-.4.2-.6.2s-.6-.1-.8-.4c-.2-.3-.4-.8-.4-1.5M16.5,25c0,.6,0,1,.2,1.2.1.2.3.3.5.3s.4,0,.5-.3c.1-.2.2-.6.2-1.2s0-1-.2-1.2c-.1-.2-.3-.3-.5-.3s-.4,0-.5.3c-.2.2-.2.6-.2,1.2h0Z"/>
  <polygon class="cls-5" points="18.9 26.7 18.9 26.2 19.4 26.2 19.4 26.7 18.9 26.7 18.9 26.7"/>
  <path class="cls-5" d="M20.8,24.8c-.2,0-.3-.2-.4-.3s-.1-.3-.1-.4c0-.3,0-.5.3-.7.2-.2.4-.3.7-.3s.6,0,.8.3c.2.2.3.4.3.7s0,.3-.1.4c0,.1-.2.2-.4.3.2,0,.4.2.5.3.1.2.2.3.2.6s-.1.6-.3.8c-.2.2-.5.3-.9.3s-.6-.1-.9-.3c-.2-.2-.3-.5-.3-.8s0-.4.2-.6c.1-.2.3-.3.5-.3M20.7,24c0,.2,0,.3.2.4s.3.2.4.2.3,0,.4-.2c.1-.1.2-.2.2-.4s0-.3-.2-.4c-.1-.1-.2-.2-.4-.2s-.3,0-.4.2-.2.2-.2.4M20.6,25.7c0,.1,0,.2,0,.4,0,.1.1.2.3.3.1,0,.2,0,.4,0,.2,0,.4,0,.5-.2.1-.1.2-.3.2-.5s0-.4-.2-.5c-.1-.1-.3-.2-.5-.2s-.4,0-.5.2c-.1.1-.2.3-.2.5h0Z"/>
  <line class="cls-7" x1="26.4" y1="10.7" x2="26.2" y2="10.7"/>
  <path class="cls-5" d="M17.7,12.6h-.4v-2.8c-.1.1-.2.2-.4.3-.2.1-.3.2-.5.2v-.4c.2-.1.5-.3.6-.4s.3-.3.4-.5h.3v3.6h0Z"/>
  <polygon class="cls-5" points="18.9 12.6 18.9 12.1 19.4 12.1 19.4 12.6 18.9 12.6 18.9 12.6"/>
  <path class="cls-5" d="M20.1,10.8c0-.4,0-.8.1-1,0-.3.2-.5.4-.6.2-.1.4-.2.6-.2s.4,0,.5.1c.1,0,.3.2.4.3,0,.1.2.3.2.5,0,.2,0,.5,0,.8s0,.8-.1,1c0,.3-.2.5-.4.6-.2.1-.4.2-.6.2s-.6-.1-.8-.4c-.2-.3-.4-.8-.4-1.5M20.6,10.8c0,.6,0,1,.2,1.2.1.2.3.3.5.3s.4,0,.5-.3c.1-.2.2-.6.2-1.2s0-1-.2-1.2c-.1-.2-.3-.3-.5-.3s-.4,0-.5.3c-.2.2-.2.6-.2,1.2h0Z"/>
  <polygon class="cls-5" points="10.8 61.9 7.2 61.9 7.2 61.4 10 59.5 7.2 59.5 7.2 59 10.8 59 10.8 59.5 8 61.4 10.8 61.4 10.8 61.9 10.8 61.9"/>
  <path class="cls-5" d="M9.5,58.5c-.5,0-.8-.1-1.1-.4-.2-.2-.3-.5-.3-.8s.1-.6.4-.9c.2-.2.6-.3,1-.3s.6,0,.8.2c.2.1.3.2.4.4.1.2.2.4.2.6,0,.4-.1.7-.3.9-.2.2-.6.3-1,.3M9.5,58c.3,0,.6,0,.7-.2.2-.1.2-.3.2-.5s0-.4-.2-.5c-.2-.1-.4-.2-.8-.2s-.6,0-.7.2c-.2.1-.2.3-.2.5s0,.4.2.5c.2.1.4.2.7.2h0Z"/>
  <path class="cls-5" d="M10.8,55.4h-2.6v-.4h.4c-.2-.1-.3-.2-.4-.3,0,0,0-.2,0-.3,0-.1,0-.3.1-.5l.4.2c0,.1,0,.2,0,.3s0,.2,0,.3c0,0,.1.1.2.2.2,0,.3,0,.5,0h1.4v.4h0Z"/>
  <path class="cls-5" d="M10.8,53.8h-2.6v-.4h.4c-.1,0-.2-.2-.3-.3,0-.1-.1-.3-.1-.5s0-.3.1-.5c0-.1.2-.2.3-.3-.3-.2-.5-.5-.5-.8s0-.5.2-.6c.1-.1.4-.2.7-.2h1.8v.4h-1.6c-.2,0-.3,0-.4,0,0,0-.1,0-.2.2,0,0,0,.2,0,.3,0,.2,0,.3.2.5.1.1.3.2.6.2h1.5v.4h-1.7c-.2,0-.3,0-.4.1,0,0-.1.2-.1.4s0,.2,0,.3c0,.1.2.2.3.2.1,0,.3,0,.5,0h1.3v.4h0Z"/>
  <path class="cls-5" d="M10.5,48c.1.2.2.3.3.5,0,.1,0,.3,0,.5,0,.3,0,.5-.2.7s-.3.2-.5.2-.2,0-.3,0c-.1,0-.2-.1-.3-.2,0,0-.1-.2-.1-.3,0,0,0-.2,0-.4,0-.4,0-.6-.2-.8,0,0,0,0-.1,0-.2,0-.3,0-.4.1-.1.1-.1.3-.1.5s0,.4.1.5c0,0,.2.2.4.2v.4c-.2,0-.4-.1-.5-.2-.1,0-.2-.2-.3-.4s0-.4,0-.6,0-.4,0-.5.1-.2.2-.3c0,0,.2-.1.3-.1,0,0,.2,0,.4,0h.6c.4,0,.7,0,.8,0,.1,0,.2,0,.3-.1v.5c0,0-.2,0-.3,0M9.5,48c0,.2.1.4.2.7,0,.2,0,.3,0,.4s0,.1.1.2c0,0,.1,0,.2,0,.1,0,.2,0,.3-.1,0,0,.1-.2.1-.4s0-.3-.1-.5c0-.1-.2-.2-.3-.3-.1,0-.2,0-.4,0h-.2Z"/>
  <polygon class="cls-5" points="10.8 46.8 7.2 46.8 7.2 46.4 10.8 46.4 10.8 46.8 10.8 46.8"/>
  <path class="cls-5" d="M7.7,45.8h-.5v-.4h.5v.4M10.8,45.8h-2.6v-.4h2.6v.4h0Z"/>
  <path class="cls-5" d="M10.8,44.9h-.4l-1.9-1.7c0,.2,0,.4,0,.5v1.1h-.4v-2.1h.3l1.6,1.4.3.3c0-.2,0-.4,0-.6v-1.2h.4v2.3h0Z"/>
  <path class="cls-5" d="M10,40.5v-.5c.3,0,.5.2.7.4s.2.4.2.7-.1.7-.3.9c-.2.2-.6.3-1,.3s-.8-.1-1-.3-.4-.5-.4-.9.1-.6.4-.8.6-.3,1-.3,0,0,.1,0v1.9c.3,0,.5,0,.7-.2s.2-.3.2-.5,0-.3-.1-.4-.2-.2-.4-.3M9.3,41.9v-1.4c-.2,0-.4,0-.5.2-.2.1-.3.3-.3.5s0,.4.2.5c.1.1.3.2.5.2h0Z"/>
  <path class="cls-5" d="M10.8,37.7h-.3c.3.2.4.4.4.7s0,.4-.2.6c-.1.2-.3.3-.5.4-.2,0-.4.1-.7.1s-.5,0-.7-.1c-.2,0-.4-.2-.5-.4-.1-.2-.2-.4-.2-.6s0-.3.1-.4c0-.1.2-.2.3-.3h-1.3v-.4h3.6v.4M9.5,39.1c.3,0,.6,0,.7-.2s.2-.3.2-.5,0-.4-.2-.5c-.2-.1-.4-.2-.7-.2s-.6,0-.8.2c-.2.1-.2.3-.2.5s0,.4.2.5c.2.1.4.2.8.2h0Z"/>
  <polygon class="cls-5" points="10.8 35.3 7.2 35.3 7.2 34.8 10.8 34.8 10.8 35.3 10.8 35.3"/>
  <path class="cls-5" d="M9.5,34.2c-.5,0-.8-.1-1.1-.4-.2-.2-.3-.5-.3-.8s.1-.6.4-.9c.2-.2.6-.3,1-.3s.6,0,.8.2c.2.1.3.2.4.4.1.2.2.4.2.6,0,.4-.1.7-.3.9-.2.2-.6.3-1,.3M9.5,33.8c.3,0,.6,0,.7-.2.2-.1.2-.3.2-.5s0-.4-.2-.5c-.2-.1-.4-.2-.8-.2s-.6,0-.7.2c-.2.1-.2.3-.2.5s0,.4.2.5c.2.1.4.2.7.2h0Z"/>
  <path class="cls-5" d="M10,31.4v-.4c.1,0,.2,0,.3-.2,0-.1.1-.3.1-.5s0-.4-.1-.4c0,0-.2-.1-.3-.1s-.2,0-.2.1c0,0,0,.2-.1.4,0,.3-.2.5-.2.7,0,.1-.1.2-.2.3-.1,0-.2,0-.3,0s-.2,0-.3,0c-.1,0-.2-.1-.2-.2,0,0,0-.2-.1-.3,0-.1,0-.2,0-.4,0-.2,0-.4,0-.5s.1-.3.2-.3.2-.1.4-.2v.4c0,0-.2,0-.3.2,0,0-.1.2-.1.4s0,.3.1.4c0,0,.1.1.2.1s.1,0,.2,0,0,0,.1-.2c0,0,0-.2.1-.4,0-.3.2-.5.2-.6,0-.1.1-.2.2-.3.1,0,.2-.1.4-.1s.3,0,.4.1c.1,0,.2.2.3.4s.1.3.1.5c0,.3,0,.6-.2.8-.1.2-.3.3-.6.3h0Z"/>
  <path class="cls-5" d="M10,29v-.4c.1,0,.2,0,.3-.2,0-.1.1-.3.1-.5s0-.4-.1-.4c0,0-.2-.1-.3-.1s-.2,0-.2.1c0,0,0,.2-.1.4,0,.3-.2.5-.2.7,0,.1-.1.2-.2.3-.1,0-.2,0-.3,0s-.2,0-.3,0c-.1,0-.2-.1-.2-.2,0,0,0-.2-.1-.3,0-.1,0-.2,0-.4,0-.2,0-.4,0-.5s.1-.3.2-.3.2-.1.4-.2v.4c0,0-.2,0-.3.2,0,0-.1.2-.1.4s0,.3.1.4c0,0,.1.1.2.1s.1,0,.2,0,0,0,.1-.2c0,0,0-.2.1-.4,0-.3.2-.5.2-.6,0-.1.1-.2.2-.3.1,0,.2-.1.4-.1s.3,0,.4.1c.1,0,.2.2.3.4s.1.3.1.5c0,.3,0,.6-.2.8-.1.2-.3.3-.6.3h0Z"/>
  <path class="cls-2" d="M26.4,81.6V7.2M174.5,81.6V7.2M26.4,81.6h148.1M26.4,7.2h148.1"/>
</svg>