<?xml version="1.0" encoding="UTF-8"?>
<svg id="_图层_1" data-name="图层 1" xmlns="http://www.w3.org/2000/svg" version="1.1" xmlns:xlink="http://www.w3.org/1999/xlink" viewBox="0 0 224.7 107.1">
  <defs>
    <style>
      .cls-1 {
        stroke: #ccc;
      }

      .cls-1, .cls-2, .cls-3, .cls-4, .cls-5, .cls-6, .cls-7, .cls-8 {
        stroke-miterlimit: 10;
      }

      .cls-1, .cls-9 {
        stroke-width: .5px;
      }

      .cls-1, .cls-10 {
        fill: #fff;
      }

      .cls-2 {
        stroke: #9fa0a0;
      }

      .cls-2, .cls-11 {
        fill: #9fa0a0;
      }

      .cls-12 {
        clip-path: url(#clippath-2);
      }

      .cls-11, .cls-13, .cls-14, .cls-10, .cls-15, .cls-16, .cls-17, .cls-18, .cls-19 {
        stroke-width: 0px;
      }

      .cls-20 {
        clip-path: url(#clippath-6);
      }

      .cls-3 {
        stroke: #c9caca;
      }

      .cls-3, .cls-16 {
        fill: #c9caca;
      }

      .cls-13, .cls-9, .cls-8 {
        fill: none;
      }

      .cls-21 {
        clip-path: url(#clippath-1);
      }

      .cls-22 {
        clip-path: url(#clippath-4);
      }

      .cls-4 {
        stroke: #efefef;
      }

      .cls-4, .cls-19 {
        fill: #efefef;
      }

      .cls-23 {
        fill: #666;
      }

      .cls-23, .cls-9 {
        stroke-linejoin: round;
      }

      .cls-23, .cls-8 {
        stroke: #666;
        stroke-width: .8px;
      }

      .cls-5 {
        stroke: #b5b5b6;
      }

      .cls-5, .cls-15 {
        fill: #b5b5b6;
      }

      .cls-9 {
        stroke: #b0b0b0;
        stroke-dasharray: 0 0 1.9 .8;
      }

      .cls-6 {
        stroke: #9fc387;
      }

      .cls-6, .cls-18 {
        fill: #9fc387;
      }

      .cls-14 {
        fill: #000;
        fill-rule: evenodd;
      }

      .cls-24 {
        clip-path: url(#clippath);
      }

      .cls-25 {
        clip-path: url(#clippath-3);
      }

      .cls-7 {
        stroke: #dcdddd;
      }

      .cls-7, .cls-17 {
        fill: #dcdddd;
      }

      .cls-26 {
        clip-path: url(#clippath-5);
      }

      .cls-8 {
        stroke-linecap: square;
      }
    </style>
    <clipPath id="clippath">
      <rect class="cls-13" x="33.2" y="7.2" width="146.9" height="80.1"/>
    </clipPath>
    <clipPath id="clippath-1">
      <rect class="cls-13" x="33.2" y="7.2" width="146.9" height="80.1"/>
    </clipPath>
    <clipPath id="clippath-2">
      <rect class="cls-13" x="33.2" y="7.2" width="146.9" height="80.1"/>
    </clipPath>
    <clipPath id="clippath-3">
      <rect class="cls-13" x="33.2" y="7.2" width="146.9" height="80.1"/>
    </clipPath>
    <clipPath id="clippath-4">
      <rect class="cls-13" x="33.2" y="7.2" width="146.9" height="80.1"/>
    </clipPath>
    <clipPath id="clippath-5">
      <rect class="cls-13" x="33.2" y="7.2" width="146.9" height="80.1"/>
    </clipPath>
    <clipPath id="clippath-6">
      <rect class="cls-13" x="33.2" y="7.2" width="146.9" height="80.1"/>
    </clipPath>
  </defs>
  <rect class="cls-10" x="33.2" y="7.2" width="146.9" height="80.1"/>
  <line class="cls-23" x1="64.9" y1="87.3" x2="64.9" y2="90.8"/>
  <path class="cls-14" d="M46.5,97.5h.5c0,.3,0,.5.2.6s.3.2.5.2.3,0,.4,0c.1,0,.2-.2.2-.3,0-.1,0-.3,0-.5v-3h.6v2.9c0,.4,0,.6-.1.8,0,.2-.2.3-.4.5-.2.1-.4.2-.7.2-.4,0-.7-.1-.9-.3-.2-.2-.3-.5-.3-1h0Z"/>
  <path class="cls-14" d="M51.9,98.3c-.2.2-.4.3-.6.4-.2,0-.4.1-.6.1-.3,0-.6,0-.8-.2s-.3-.4-.3-.6,0-.3.1-.4c0-.1.2-.2.3-.3.1,0,.2-.1.4-.2.1,0,.3,0,.5,0,.4,0,.7-.1.9-.2,0,0,0-.1,0-.1,0-.2,0-.4-.1-.5-.1-.1-.3-.2-.6-.2s-.4,0-.6.1c-.1,0-.2.2-.3.5h-.5c0-.3.1-.5.2-.6.1-.1.3-.2.5-.3s.4-.1.7-.1.5,0,.6,0,.3.1.4.2c0,0,.1.2.2.4,0,0,0,.3,0,.5v.7c0,.5,0,.8,0,.9,0,.1,0,.3.1.4h-.6c0-.1,0-.2-.1-.4M51.8,97.1c-.2,0-.5.1-.9.2-.2,0-.4,0-.5.1s-.2,0-.2.2c0,0,0,.2,0,.2,0,.1,0,.3.2.4.1,0,.3.1.5.1s.4,0,.5-.1c.2,0,.3-.2.3-.4,0-.1,0-.3,0-.5v-.2h0Z"/>
  <path class="cls-14" d="M55.2,97.5h.5c0,.4-.2.7-.4.9-.2.2-.5.3-.9.3s-.8-.1-1-.4c-.3-.3-.4-.7-.4-1.2s0-.6.2-.9.3-.4.5-.6c.2-.1.5-.2.7-.2s.6,0,.8.3c.2.2.4.4.4.7h-.5c0-.1-.1-.3-.3-.4-.1-.1-.3-.2-.4-.2-.3,0-.5,0-.6.3s-.2.5-.2.9,0,.7.2.9.4.3.6.3.4,0,.5-.2.2-.3.3-.6h0Z"/>
  <path class="cls-14" d="M58.1,97.5h.5c0,.4-.2.7-.4.9-.2.2-.5.3-.9.3s-.8-.1-1-.4c-.3-.3-.4-.7-.4-1.2s0-.6.2-.9.3-.4.5-.6c.2-.1.5-.2.7-.2s.6,0,.8.3c.2.2.4.4.4.7h-.5c0-.1-.1-.3-.3-.4-.1-.1-.3-.2-.4-.2-.3,0-.5,0-.6.3s-.2.5-.2.9,0,.7.2.9.4.3.6.3.4,0,.5-.2.2-.3.3-.6h0Z"/>
  <path class="cls-14" d="M61.2,98.3c-.2.2-.4.3-.6.4-.2,0-.4.1-.6.1-.3,0-.6,0-.8-.2s-.3-.4-.3-.6,0-.3.1-.4c0-.1.2-.2.3-.3.1,0,.2-.1.4-.2.1,0,.3,0,.5,0,.4,0,.7-.1.9-.2,0,0,0-.1,0-.1,0-.2,0-.4-.1-.5-.1-.1-.3-.2-.6-.2s-.4,0-.6.1c-.1,0-.2.2-.3.5h-.5c0-.3.1-.5.2-.6.1-.1.3-.2.5-.3s.4-.1.7-.1.5,0,.6,0,.3.1.4.2c0,0,.1.2.2.4,0,0,0,.3,0,.5v.7c0,.5,0,.8,0,.9,0,.1,0,.3.1.4h-.6c0-.1,0-.2-.1-.4M61.2,97.1c-.2,0-.5.1-.9.2-.2,0-.4,0-.5.1s-.2,0-.2.2c0,0,0,.2,0,.2,0,.1,0,.3.2.4.1,0,.3.1.5.1s.4,0,.5-.1c.2,0,.3-.2.3-.4,0-.1,0-.3,0-.5v-.2h0Z"/>
  <path class="cls-14" d="M62.5,98.7v-3.1h.5v.5c.1-.2.2-.4.3-.4s.2-.1.3-.1c.2,0,.4,0,.5.2l-.2.5c-.1,0-.3-.1-.4-.1s-.2,0-.3.1c0,0-.2.2-.2.3,0,.2,0,.4,0,.6v1.6h-.5Z"/>
  <path class="cls-14" d="M66.5,98.7v-.4c-.2.3-.5.5-.9.5s-.5,0-.7-.2-.4-.3-.5-.6c-.1-.2-.2-.5-.2-.8s0-.6.2-.8c.1-.3.3-.4.5-.6s.4-.2.7-.2.4,0,.5.1.3.2.4.3v-1.5h.5v4.3h-.5M64.8,97.1c0,.4,0,.7.3.9s.4.3.6.3.4,0,.6-.3c.2-.2.2-.5.2-.9s0-.7-.2-.9-.4-.3-.6-.3-.4,0-.6.3c-.2.2-.2.5-.2.9h0Z"/>
  <path class="cls-14" d="M69.5,95v-.6h.5v.6h-.5M69.5,98.7v-3.1h.5v3.1h-.5Z"/>
  <path class="cls-14" d="M70.7,98.7v-3.1h.5v.4c.2-.3.6-.5,1-.5s.4,0,.5.1c.2,0,.3.2.4.3s.1.2.2.4c0,0,0,.3,0,.5v1.9h-.5v-1.9c0-.2,0-.4,0-.5,0-.1-.1-.2-.2-.3-.1,0-.2,0-.4,0-.2,0-.4,0-.6.2-.2.1-.2.4-.2.8v1.7h-.5Z"/>
  <path class="cls-14" d="M76.1,98.7v-.4c-.2.3-.5.5-.9.5s-.5,0-.7-.2-.4-.3-.5-.6c-.1-.2-.2-.5-.2-.8s0-.6.2-.8c.1-.3.3-.4.5-.6s.4-.2.7-.2.4,0,.5.1.3.2.4.3v-1.5h.5v4.3h-.5M74.4,97.1c0,.4,0,.7.3.9s.4.3.6.3.4,0,.6-.3c.2-.2.2-.5.2-.9s0-.7-.2-.9-.4-.3-.6-.3-.4,0-.6.3c-.2.2-.2.5-.2.9h0Z"/>
  <path class="cls-14" d="M79.5,97.7h.5c0,.4-.2.6-.5.8s-.5.3-.9.3-.8-.1-1.1-.4c-.3-.3-.4-.7-.4-1.2s.1-.9.4-1.2.6-.4,1-.4.8.1,1,.4.4.7.4,1.2,0,0,0,.1h-2.3c0,.3.1.6.3.8s.4.3.7.3.4,0,.5-.2.2-.3.3-.5M77.8,96.8h1.7c0-.3,0-.5-.2-.6-.2-.2-.4-.3-.7-.3s-.4,0-.6.2c-.2.2-.3.4-.3.7h0Z"/>
  <path class="cls-14" d="M80.4,98.7l1.1-1.6-1.1-1.5h.7l.5.7c0,.1.2.3.2.3,0-.1.2-.2.2-.3l.5-.7h.6l-1.1,1.5,1.2,1.6h-.6l-.6-1-.2-.3-.8,1.2h-.6Z"/>
  <line class="cls-23" x1="148.4" y1="87.3" x2="148.4" y2="90.8"/>
  <polygon class="cls-14" points="120.2 98.7 120.2 94.4 120.8 94.4 120.8 96.5 122.9 94.4 123.7 94.4 121.9 96.1 123.7 98.7 123 98.7 121.5 96.5 120.8 97.2 120.8 98.7 120.2 98.7 120.2 98.7"/>
  <path class="cls-14" d="M126.3,97.7h.5c0,.4-.2.6-.5.8s-.5.3-.9.3-.8-.1-1.1-.4c-.3-.3-.4-.7-.4-1.2s.1-.9.4-1.2.6-.4,1-.4.8.1,1,.4.4.7.4,1.2,0,0,0,.1h-2.3c0,.3.1.6.3.8s.4.3.7.3.4,0,.5-.2.2-.3.3-.5M124.6,96.8h1.7c0-.3,0-.5-.2-.6-.2-.2-.4-.3-.7-.3s-.4,0-.6.2c-.2.2-.3.4-.3.7h0Z"/>
  <path class="cls-14" d="M127.6,99.9v-.5c0,0,.2,0,.2,0s.2,0,.3,0,.1,0,.2-.2c0,0,0-.2.2-.4,0,0,0,0,0-.1l-1.2-3.1h.6l.6,1.8c0,.2.2.5.2.7,0-.2.1-.5.2-.7l.7-1.8h.5l-1.2,3.2c-.1.3-.2.6-.3.7,0,.2-.2.3-.3.4-.1,0-.3.1-.4.1s-.2,0-.3,0h0Z"/>
  <path class="cls-14" d="M132.1,98.7v-3.1h.5v.5c.1-.2.2-.4.3-.4s.2-.1.3-.1c.2,0,.4,0,.5.2l-.2.5c-.1,0-.3-.1-.4-.1s-.2,0-.3.1c0,0-.2.2-.2.3,0,.2,0,.4,0,.6v1.6h-.5Z"/>
  <path class="cls-14" d="M136.4,97.7h.5c0,.4-.2.6-.5.8s-.5.3-.9.3-.8-.1-1.1-.4c-.3-.3-.4-.7-.4-1.2s.1-.9.4-1.2.6-.4,1-.4.8.1,1,.4.4.7.4,1.2,0,0,0,.1h-2.3c0,.3.1.6.3.8s.4.3.7.3.4,0,.5-.2.2-.3.3-.5M134.7,96.8h1.7c0-.3,0-.5-.2-.6-.2-.2-.4-.3-.7-.3s-.4,0-.6.2c-.2.2-.3.4-.3.7h0Z"/>
  <path class="cls-14" d="M137.6,98.9h.5c0,.2,0,.3.2.4.1,0,.3.1.5.1s.4,0,.6-.1.2-.2.3-.4c0-.1,0-.3,0-.7-.2.3-.5.4-.9.4s-.8-.2-1-.5-.4-.7-.4-1.1,0-.6.2-.8c.1-.3.3-.4.5-.6.2-.1.4-.2.7-.2s.7.1.9.4v-.4h.5v2.7c0,.5,0,.8-.1,1,0,.2-.3.4-.5.5s-.5.2-.8.2-.7,0-.9-.3-.3-.4-.3-.8M138,97.1c0,.4,0,.7.2.9s.4.3.6.3.4,0,.6-.3c.2-.2.2-.5.2-.9s0-.7-.3-.9c-.2-.2-.4-.3-.6-.3s-.4,0-.6.3-.2.5-.2.8h0Z"/>
  <path class="cls-14" d="M143.1,98.7v-.5c-.2.4-.6.5-1,.5s-.4,0-.5-.1c-.2,0-.3-.2-.4-.3,0-.1-.1-.2-.2-.4,0-.1,0-.3,0-.5v-1.9h.5v1.7c0,.3,0,.5,0,.6,0,.1.1.2.2.3s.2.1.4.1.3,0,.4-.1c.1,0,.2-.2.3-.3,0-.1,0-.3,0-.6v-1.7h.5v3.1h-.5Z"/>
  <polygon class="cls-14" points="144.1 98.7 144.1 94.4 144.7 94.4 144.7 98.7 144.1 98.7 144.1 98.7"/>
  <path class="cls-14" d="M147.6,98.3c-.2.2-.4.3-.6.4-.2,0-.4.1-.6.1-.3,0-.6,0-.8-.2s-.3-.4-.3-.6,0-.3.1-.4c0-.1.2-.2.3-.3.1,0,.2-.1.4-.2.1,0,.3,0,.5,0,.4,0,.7-.1.9-.2,0,0,0-.1,0-.1,0-.2,0-.4-.1-.5-.1-.1-.3-.2-.6-.2s-.4,0-.6.1c-.1,0-.2.2-.3.5h-.5c0-.3.1-.5.2-.6.1-.1.3-.2.5-.3s.4-.1.7-.1.5,0,.6,0,.3.1.4.2c0,0,.1.2.2.4,0,0,0,.3,0,.5v.7c0,.5,0,.8,0,.9,0,.1,0,.3.1.4h-.6c0-.1,0-.2-.1-.4M147.6,97.1c-.2,0-.5.1-.9.2-.2,0-.4,0-.5.1s-.2,0-.2.2c0,0,0,.2,0,.2,0,.1,0,.3.2.4.1,0,.3.1.5.1s.4,0,.5-.1c.2,0,.3-.2.3-.4,0-.1,0-.3,0-.5v-.2h0Z"/>
  <path class="cls-14" d="M150.1,98.2v.5c0,0-.2,0-.3,0-.2,0-.3,0-.4,0s-.2-.1-.2-.2c0,0,0-.3,0-.6v-1.8h-.4v-.4h.4v-.8l.5-.3v1.1h.5v.4h-.5v1.8c0,.1,0,.2,0,.3,0,0,0,0,0,.1,0,0,.1,0,.2,0s.1,0,.2,0h0Z"/>
  <path class="cls-14" d="M150.4,97.1c0-.6.2-1,.5-1.3.3-.2.6-.3,1-.3s.8.1,1,.4c.3.3.4.7.4,1.2s0,.7-.2.9c-.1.2-.3.4-.5.5-.2.1-.5.2-.8.2-.4,0-.8-.1-1.1-.4-.3-.3-.4-.7-.4-1.2M151,97.1c0,.4,0,.7.3.9.2.2.4.3.7.3s.5,0,.7-.3.3-.5.3-.9,0-.7-.3-.9c-.2-.2-.4-.3-.7-.3s-.5,0-.7.3-.3.5-.3.9h0Z"/>
  <path class="cls-14" d="M154,98.7v-3.1h.5v.5c.1-.2.2-.4.3-.4s.2-.1.3-.1c.2,0,.4,0,.5.2l-.2.5c-.1,0-.3-.1-.4-.1s-.2,0-.3.1c0,0-.2.2-.2.3,0,.2,0,.4,0,.6v1.6h-.5Z"/>
  <path class="cls-14" d="M157.4,97.1c0-.6.2-1,.5-1.3.3-.2.6-.3,1-.3s.8.1,1,.4c.3.3.4.7.4,1.2s0,.7-.2.9c-.1.2-.3.4-.5.5-.2.1-.5.2-.8.2-.4,0-.8-.1-1.1-.4-.3-.3-.4-.7-.4-1.2M157.9,97.1c0,.4,0,.7.3.9.2.2.4.3.7.3s.5,0,.7-.3.3-.5.3-.9,0-.7-.3-.9c-.2-.2-.4-.3-.7-.3s-.5,0-.7.3-.3.5-.3.9h0Z"/>
  <path class="cls-14" d="M161.8,98.7l-1.2-3.1h.6l.7,1.9c0,.2.1.4.2.6,0-.2.1-.4.2-.6l.7-1.9h.5l-1.2,3.1h-.5Z"/>
  <path class="cls-14" d="M165.9,97.7h.5c0,.4-.2.6-.5.8s-.5.3-.9.3-.8-.1-1.1-.4c-.3-.3-.4-.7-.4-1.2s.1-.9.4-1.2.6-.4,1-.4.8.1,1,.4.4.7.4,1.2,0,0,0,.1h-2.3c0,.3.1.6.3.8s.4.3.7.3.4,0,.5-.2.2-.3.3-.5M164.2,96.8h1.7c0-.3,0-.5-.2-.6-.2-.2-.4-.3-.7-.3s-.4,0-.6.2c-.2.2-.3.4-.3.7h0Z"/>
  <path class="cls-14" d="M167.2,98.7v-3.1h.5v.5c.1-.2.2-.4.3-.4s.2-.1.3-.1c.2,0,.4,0,.5.2l-.2.5c-.1,0-.3-.1-.4-.1s-.2,0-.3.1c0,0-.2.2-.2.3,0,.2,0,.4,0,.6v1.6h-.5Z"/>
  <polygon class="cls-14" points="169.3 98.7 169.3 94.4 169.9 94.4 169.9 98.7 169.3 98.7 169.3 98.7"/>
  <path class="cls-14" d="M172.6,98.3c-.2.2-.4.3-.6.4-.2,0-.4.1-.6.1-.3,0-.6,0-.8-.2s-.3-.4-.3-.6,0-.3.1-.4c0-.1.2-.2.3-.3.1,0,.2-.1.4-.2.1,0,.3,0,.5,0,.4,0,.7-.1.9-.2,0,0,0-.1,0-.1,0-.2,0-.4-.1-.5-.1-.1-.3-.2-.6-.2s-.4,0-.6.1c-.1,0-.2.2-.3.5h-.5c0-.3.1-.5.2-.6.1-.1.3-.2.5-.3s.4-.1.7-.1.5,0,.6,0,.3.1.4.2c0,0,.1.2.2.4,0,0,0,.3,0,.5v.7c0,.5,0,.8,0,.9,0,.1,0,.3.1.4h-.6c0-.1,0-.2-.1-.4M172.5,97.1c-.2,0-.5.1-.9.2-.2,0-.4,0-.5.1s-.2,0-.2.2c0,0,0,.2,0,.2,0,.1,0,.3.2.4.1,0,.3.1.5.1s.4,0,.5-.1c.2,0,.3-.2.3-.4,0-.1,0-.3,0-.5v-.2h0Z"/>
  <path class="cls-14" d="M173.9,99.9v-4.3h.5v.4c.1-.2.2-.3.4-.4s.3-.1.5-.1.5,0,.7.2.4.3.5.6.2.5.2.8,0,.6-.2.9-.3.4-.5.6c-.2.1-.4.2-.7.2s-.3,0-.5-.1c-.1,0-.3-.2-.3-.3v1.5h-.5M174.4,97.1c0,.4,0,.7.2.9s.4.3.6.3.4,0,.6-.3c.2-.2.3-.5.3-.9s0-.7-.2-.9c-.2-.2-.4-.3-.6-.3s-.4.1-.6.3c-.2.2-.3.5-.3.9h0Z"/>
  <g class="cls-24">
    <line class="cls-9" x1="33.2" y1="87.3" x2="180.1" y2="87.3"/>
  </g>
  <line class="cls-23" x1="33.2" y1="87.3" x2="29.7" y2="87.3"/>
  <path class="cls-14" d="M19.4,87.3c0-.4,0-.8.1-1,0-.3.2-.5.4-.6.2-.1.4-.2.6-.2s.4,0,.5.1c.1,0,.3.2.4.3,0,.1.2.3.2.5,0,.2,0,.5,0,.8s0,.8-.1,1c0,.3-.2.5-.4.6-.2.1-.4.2-.6.2s-.6-.1-.8-.4c-.2-.3-.4-.8-.4-1.5M19.8,87.3c0,.6,0,1,.2,1.2.1.2.3.3.5.3s.4,0,.5-.3c.1-.2.2-.6.2-1.2s0-1-.2-1.2c-.1-.2-.3-.3-.5-.3s-.4,0-.5.3c-.2.2-.2.6-.2,1.2h0Z"/>
  <polygon class="cls-14" points="22.5 89.1 22.5 88.6 23 88.6 23 89.1 22.5 89.1 22.5 89.1"/>
  <path class="cls-14" d="M23.7,88.1h.5c0,.2.1.4.2.5.1.1.3.2.5.2s.4,0,.5-.2c.1-.2.2-.4.2-.6s0-.4-.2-.6c-.1-.1-.3-.2-.6-.2s-.3,0-.4,0c-.1,0-.2.1-.3.2h-.4c0,0,.3-1.9.3-1.9h1.8v.4h-1.4l-.2,1c.2-.1.4-.2.7-.2s.6.1.8.3c.2.2.3.5.3.8s0,.6-.3.8c-.2.3-.5.4-.9.4s-.6,0-.8-.3c-.2-.2-.3-.4-.4-.7h0Z"/>
  <g class="cls-21">
    <line class="cls-9" x1="33.2" y1="72.8" x2="180.1" y2="72.8"/>
  </g>
  <line class="cls-23" x1="33.2" y1="72.8" x2="29.7" y2="72.8"/>
  <path class="cls-14" d="M19.4,72.7c0-.4,0-.8.1-1,0-.3.2-.5.4-.6.2-.1.4-.2.6-.2s.4,0,.5.1c.1,0,.3.2.4.3,0,.1.2.3.2.5,0,.2,0,.5,0,.8s0,.8-.1,1c0,.3-.2.5-.4.6-.2.1-.4.2-.6.2s-.6-.1-.8-.4c-.2-.3-.4-.8-.4-1.5M19.8,72.7c0,.6,0,1,.2,1.2.1.2.3.3.5.3s.4,0,.5-.3c.1-.2.2-.6.2-1.2s0-1-.2-1.2c-.1-.2-.3-.3-.5-.3s-.4,0-.5.3c-.2.2-.2.6-.2,1.2h0Z"/>
  <polygon class="cls-14" points="22.5 74.4 22.5 73.9 23 73.9 23 74.4 22.5 74.4 22.5 74.4"/>
  <path class="cls-14" d="M26,71.7h-.4c0-.1,0-.3-.2-.3-.1-.1-.3-.2-.4-.2s-.3,0-.4.1c-.1.1-.2.2-.3.4s-.1.5-.1.8c.1-.2.2-.3.4-.4s.3-.1.5-.1c.3,0,.5.1.7.3.2.2.3.5.3.8s0,.4-.1.6c0,.2-.2.3-.4.4s-.4.2-.6.2c-.4,0-.7-.1-.9-.4-.2-.3-.3-.7-.3-1.3s.1-1.2.4-1.5c.2-.3.5-.4.9-.4s.5,0,.7.2c.2.2.3.4.3.7M24.2,73.3c0,.2,0,.3,0,.4,0,.1.2.2.3.3.1,0,.2.1.4.1.2,0,.3,0,.5-.2.1-.1.2-.4.2-.6s0-.4-.2-.6c-.1-.1-.3-.2-.5-.2s-.4,0-.5.2c-.1.1-.2.3-.2.6h0Z"/>
  <g class="cls-12">
    <line class="cls-9" x1="33.2" y1="58.2" x2="180.1" y2="58.2"/>
  </g>
  <line class="cls-23" x1="33.2" y1="58.2" x2="29.7" y2="58.2"/>
  <path class="cls-14" d="M19.4,58.3c0-.4,0-.8.1-1,0-.3.2-.5.4-.6.2-.1.4-.2.6-.2s.4,0,.5.1c.1,0,.3.2.4.3,0,.1.2.3.2.5,0,.2,0,.5,0,.8s0,.8-.1,1c0,.3-.2.5-.4.6-.2.1-.4.2-.6.2s-.6-.1-.8-.4c-.2-.3-.4-.8-.4-1.5M19.8,58.3c0,.6,0,1,.2,1.2.1.2.3.3.5.3s.4,0,.5-.3c.1-.2.2-.6.2-1.2s0-1-.2-1.2c-.1-.2-.3-.3-.5-.3s-.4,0-.5.3c-.2.2-.2.6-.2,1.2h0Z"/>
  <polygon class="cls-14" points="22.5 60 22.5 59.5 23 59.5 23 60 22.5 60 22.5 60"/>
  <path class="cls-14" d="M23.7,56.9v-.4h2.3v.3c-.2.2-.5.6-.7,1-.2.4-.4.8-.5,1.2,0,.3-.1.6-.2,1h-.5c0-.3,0-.6.2-1,.1-.4.3-.8.5-1.2.2-.4.4-.7.6-.9h-1.8Z"/>
  <g class="cls-25">
    <line class="cls-9" x1="33.2" y1="43.6" x2="180.1" y2="43.6"/>
  </g>
  <line class="cls-23" x1="33.2" y1="43.6" x2="29.7" y2="43.6"/>
  <path class="cls-14" d="M19.4,43.6c0-.4,0-.8.1-1,0-.3.2-.5.4-.6.2-.1.4-.2.6-.2s.4,0,.5.1c.1,0,.3.2.4.3,0,.1.2.3.2.5,0,.2,0,.5,0,.8s0,.8-.1,1c0,.3-.2.5-.4.6-.2.1-.4.2-.6.2s-.6-.1-.8-.4c-.2-.3-.4-.8-.4-1.5M19.8,43.6c0,.6,0,1,.2,1.2.1.2.3.3.5.3s.4,0,.5-.3c.1-.2.2-.6.2-1.2s0-1-.2-1.2c-.1-.2-.3-.3-.5-.3s-.4,0-.5.3c-.2.2-.2.6-.2,1.2h0Z"/>
  <polygon class="cls-14" points="22.5 45.4 22.5 44.9 23 44.9 23 45.4 22.5 45.4 22.5 45.4"/>
  <path class="cls-14" d="M24.4,43.5c-.2,0-.3-.2-.4-.3s-.1-.3-.1-.4c0-.3,0-.5.3-.7.2-.2.4-.3.7-.3s.6,0,.8.3c.2.2.3.4.3.7s0,.3-.1.4c0,.1-.2.2-.4.3.2,0,.4.2.5.3.1.2.2.3.2.6s-.1.6-.3.8c-.2.2-.5.3-.9.3s-.6-.1-.9-.3c-.2-.2-.3-.5-.3-.8s0-.4.2-.6c.1-.2.3-.3.5-.3M24.3,42.7c0,.2,0,.3.2.4.1.1.3.2.4.2s.3,0,.4-.2c.1-.1.2-.2.2-.4s0-.3-.2-.4c-.1-.1-.2-.2-.4-.2s-.3,0-.4.2c-.1.1-.2.2-.2.4M24.2,44.4c0,.1,0,.2,0,.4,0,.1.1.2.3.3.1,0,.2,0,.4,0,.2,0,.4,0,.5-.2.1-.1.2-.3.2-.5s0-.4-.2-.5c-.1-.1-.3-.2-.5-.2s-.4,0-.5.2c-.1.1-.2.3-.2.5h0Z"/>
  <g class="cls-22">
    <line class="cls-9" x1="33.2" y1="29.1" x2="180.1" y2="29.1"/>
  </g>
  <line class="cls-23" x1="33.2" y1="29.1" x2="29.7" y2="29.1"/>
  <path class="cls-14" d="M19.4,29c0-.4,0-.8.1-1,0-.3.2-.5.4-.6.2-.1.4-.2.6-.2s.4,0,.5.1c.1,0,.3.2.4.3,0,.1.2.3.2.5,0,.2,0,.5,0,.8s0,.8-.1,1c0,.3-.2.5-.4.6-.2.1-.4.2-.6.2s-.6-.1-.8-.4c-.2-.3-.4-.8-.4-1.5M19.8,29c0,.6,0,1,.2,1.2.1.2.3.3.5.3s.4,0,.5-.3c.1-.2.2-.6.2-1.2s0-1-.2-1.2c-.1-.2-.3-.3-.5-.3s-.4,0-.5.3c-.2.2-.2.6-.2,1.2h0Z"/>
  <polygon class="cls-14" points="22.5 30.8 22.5 30.3 23 30.3 23 30.8 22.5 30.8 22.5 30.8"/>
  <path class="cls-14" d="M23.8,29.9h.4c0,.2.1.3.2.4.1,0,.2.1.4.1s.3,0,.4,0c.1,0,.2-.1.3-.2,0-.1.1-.2.2-.4s0-.4,0-.5,0,0,0,0c0,.1-.2.3-.4.3-.2,0-.3.1-.5.1-.3,0-.5-.1-.8-.3-.2-.2-.3-.5-.3-.8s.1-.7.3-.9c.2-.2.5-.3.8-.3s.4,0,.6.2c.2.1.3.3.4.5.1.2.2.6.2,1s0,.8-.1,1.1c-.1.3-.2.5-.4.6-.2.1-.4.2-.7.2s-.5,0-.7-.2c-.2-.2-.3-.4-.3-.7M25.6,28.4c0-.3,0-.5-.2-.6-.1-.1-.3-.2-.5-.2s-.4,0-.5.2c-.1.2-.2.4-.2.6s0,.4.2.6c.1.1.3.2.5.2s.4,0,.5-.2c.1-.1.2-.3.2-.6h0Z"/>
  <g class="cls-26">
    <line class="cls-9" x1="33.2" y1="14.5" x2="180.1" y2="14.5"/>
  </g>
  <line class="cls-23" x1="33.2" y1="14.5" x2="29.7" y2="14.5"/>
  <path class="cls-14" d="M21,16.4h-.4v-2.8c-.1.1-.2.2-.4.3-.2.1-.3.2-.5.2v-.4c.2-.1.5-.3.6-.4.2-.2.3-.3.4-.5h.3v3.6h0Z"/>
  <polygon class="cls-14" points="22.5 16.4 22.5 15.9 23 15.9 23 16.4 22.5 16.4 22.5 16.4"/>
  <path class="cls-14" d="M23.7,14.6c0-.4,0-.8.1-1,0-.3.2-.5.4-.6.2-.1.4-.2.6-.2s.4,0,.5.1c.1,0,.3.2.4.3,0,.1.2.3.2.5,0,.2,0,.5,0,.8s0,.8-.1,1c0,.3-.2.5-.4.6-.2.1-.4.2-.6.2s-.6-.1-.8-.4c-.2-.3-.4-.8-.4-1.5M24.2,14.6c0,.6,0,1,.2,1.2.1.2.3.3.5.3s.4,0,.5-.3c.1-.2.2-.6.2-1.2s0-1-.2-1.2c-.1-.2-.3-.3-.5-.3s-.4,0-.5.3c-.2.2-.2.6-.2,1.2h0Z"/>
  <path class="cls-14" d="M12.2,64h-.5v-1.8s1.6,0,1.6,0c.2.3.4.6.5.9.1.3.2.6.2.9s0,.8-.3,1.2c-.2.3-.4.6-.8.8s-.7.3-1.1.3-.8,0-1.2-.3c-.4-.2-.6-.4-.8-.8s-.3-.7-.3-1.1,0-.6.2-.8c0-.3.2-.4.4-.6s.4-.3.7-.3v.5c0,0-.2.1-.4.2s-.2.2-.3.4c0,.2-.1.4-.1.6s0,.5.1.7.2.3.3.5c.1.1.3.2.4.3.3.1.6.2.9.2s.7,0,1-.2.4-.3.6-.6.2-.5.2-.8,0-.5-.1-.7c0-.2-.2-.4-.3-.5h-.8v1.3h0Z"/>
  <path class="cls-14" d="M13.9,61.3h-4.3v-1.9c0-.4,0-.7.1-.9,0-.2.2-.4.4-.5s.4-.2.6-.2.6,0,.8.3.3.5.4.9c0-.1.1-.3.2-.3.2-.2.3-.3.6-.5l1.2-.7v.7l-.9.6c-.3.2-.5.3-.6.4s-.2.2-.3.3,0,.2-.1.3c0,0,0,.2,0,.3v.7h1.9v.6M11.5,60.7v-1.2c0-.3,0-.5,0-.6,0-.1-.1-.3-.3-.3-.1,0-.2-.1-.4-.1-.2,0-.4,0-.5.2-.1.1-.2.4-.2.7v1.4h1.4Z"/>
  <polygon class="cls-14" points="13.9 56.9 9.6 56.9 9.6 56.4 13 54.1 9.6 54.1 9.6 53.6 13.9 53.6 13.9 54.1 10.5 56.4 13.9 56.4 13.9 56.9 13.9 56.9"/>
  <path class="cls-14" d="M13,51.2v-.5c.1,0,.3-.1.4-.2.1-.1.2-.3.2-.6s0-.4-.1-.5c0-.1-.2-.2-.3-.2s-.2,0-.3.2c0,0-.1.3-.2.5,0,.4-.2.7-.3.8,0,.1-.2.3-.3.3-.1,0-.3.1-.4.1s-.3,0-.4,0c-.1,0-.2-.2-.3-.3,0,0-.1-.2-.2-.3,0-.1,0-.3,0-.5,0-.2,0-.5.1-.6s.2-.3.3-.4.3-.1.5-.2v.5c0,0-.2,0-.3.2,0,.1-.1.3-.1.5s0,.4.1.5.2.2.3.2.1,0,.2,0,.1-.1.1-.2c0,0,0-.2.1-.5,0-.4.2-.6.2-.8,0-.1.2-.3.3-.3s.3-.1.5-.1.3,0,.5.2.3.2.4.4.1.4.1.7c0,.4,0,.7-.3.9-.2.2-.4.3-.7.4h0Z"/>
  <path class="cls-14" d="M10.2,48.1h-.6v-.5h.6v.5M13.9,48.1h-3.1v-.5h3.1v.5h0Z"/>
  <path class="cls-14" d="M13.9,46.7h-3.1v-.5h.4c-.2,0-.3-.2-.4-.4,0-.2-.1-.3-.1-.6s0-.4.1-.6c0-.1.2-.3.4-.3-.4-.2-.5-.6-.5-1s0-.5.3-.7c.2-.2.4-.2.8-.2h2.1v.5h-2c-.2,0-.4,0-.5,0,0,0-.2,0-.2.2s0,.2,0,.3c0,.2,0,.4.2.5.1.1.4.2.7.2h1.8v.5h-2c-.2,0-.4,0-.5.1s-.2.2-.2.4,0,.3.1.4.2.2.3.3.4,0,.7,0h1.6v.5h0Z"/>
  <path class="cls-14" d="M10.2,41.6h-.6v-.5h.6v.5M13.9,41.6h-3.1v-.5h3.1v.5h0Z"/>
  <polygon class="cls-14" points="13.9 40.5 9.6 40.5 9.6 39.9 13.9 39.9 13.9 40.5 13.9 40.5"/>
  <path class="cls-14" d="M13.5,37c.2.2.3.4.4.6,0,.2.1.4.1.6,0,.3,0,.6-.2.8s-.4.3-.6.3-.3,0-.4-.1c-.1,0-.2-.2-.3-.3,0-.1-.1-.2-.2-.4,0-.1,0-.3,0-.5,0-.4-.1-.7-.2-.9,0,0-.1,0-.1,0-.2,0-.4,0-.5.1-.1.1-.2.3-.2.6s0,.4.1.6c0,.1.2.2.5.3v.5c-.3,0-.5-.1-.6-.2-.1-.1-.2-.3-.3-.5s-.1-.4-.1-.7,0-.5,0-.6.1-.3.2-.4c0,0,.2-.1.4-.2,0,0,.3,0,.5,0h.7c.5,0,.8,0,.9,0,.1,0,.3,0,.4-.1v.6c-.1,0-.2,0-.4.1M12.3,37c0,.2.1.5.2.9,0,.2,0,.4.1.5s0,.2.2.2c0,0,.2,0,.2,0,.1,0,.3,0,.4-.2,0-.1.1-.3.1-.5s0-.4-.1-.5c0-.2-.2-.3-.4-.3-.1,0-.3,0-.5,0h-.2Z"/>
  <path class="cls-14" d="M13.9,35.7h-3.1v-.5h.5c-.2-.1-.4-.2-.4-.3s-.1-.2-.1-.3c0-.2,0-.4.2-.5l.5.2c0,.1-.1.3-.1.4s0,.2.1.3c0,0,.2.2.3.2.2,0,.4,0,.6,0h1.6v.5h0Z"/>
  <path class="cls-14" d="M10.2,33.7h-.6v-.5h.6v.5M13.9,33.7h-3.1v-.5h3.1v.5h0Z"/>
  <path class="cls-14" d="M13.4,31.1h.5c0,0,0,.2,0,.3,0,.2,0,.3,0,.4s-.1.2-.2.2c0,0-.3,0-.6,0h-1.8v.4h-.4v-.4h-.8l-.3-.5h1.1v-.5h.4v.5h1.8c.1,0,.2,0,.3,0,0,0,0,0,.1,0,0,0,0-.1,0-.2s0-.1,0-.2h0Z"/>
  <path class="cls-14" d="M15.1,30.6h-.5c0,0,0-.2,0-.2s0-.2,0-.3,0-.1-.2-.2c0,0-.2,0-.4-.2,0,0,0,0-.1,0l-3.1,1.2v-.6l1.8-.6c.2,0,.5-.2.7-.2-.2,0-.5-.1-.7-.2l-1.8-.7v-.5l3.2,1.2c.3.1.6.2.7.3.2,0,.3.2.4.3,0,.1.1.3.1.4s0,.2,0,.3h0Z"/>
  <g class="cls-20">
    <rect class="cls-19" x="39.9" y="15.5" width="8.3" height="144.6"/>
    <rect class="cls-19" x="123.3" y="18.6" width="8.3" height="141.5"/>
    <rect class="cls-17" x="48.2" y="24.6" width="8.3" height="135.6"/>
    <rect class="cls-17" x="131.7" y="31.8" width="8.3" height="128.3"/>
    <rect class="cls-16" x="56.6" y="24.7" width="8.3" height="135.5"/>
    <rect class="cls-16" x="140" y="31.8" width="8.3" height="128.3"/>
    <rect class="cls-15" x="64.9" y="24.7" width="8.3" height="135.5"/>
    <rect class="cls-15" x="148.4" y="31.1" width="8.3" height="129"/>
    <rect class="cls-11" x="73.3" y="24.9" width="8.3" height="135.2"/>
    <rect class="cls-11" x="156.7" y="31.1" width="8.3" height="129"/>
    <rect class="cls-18" x="81.6" y="34.6" width="8.3" height="125.5"/>
    <rect class="cls-18" x="165.1" y="40.1" width="8.3" height="120"/>
  </g>
  <path class="cls-8" d="M33.2,87.3V7.2M180.1,87.3V7.2M33.2,87.3h146.9M33.2,7.2h146.9"/>
  <path class="cls-1" d="M183.4,49.4h33c.7,0,1.1-.4,1.1-1.1V8.2c0-.7-.4-1.1-1.1-1.1h-33c-.7,0-1.1.4-1.1,1.1v40.1c0,.7.4,1.1,1.1,1.1h0Z"/>
  <rect class="cls-4" x="184" y="8.8" width="5.5" height="4.2"/>
  <path class="cls-14" d="M194.1,10.9c0-.5,0-.8.1-1.1,0-.3.2-.5.4-.7.2-.2.4-.2.7-.2s.4,0,.6.1c.2,0,.3.2.4.4.1.2.2.4.2.6,0,.2,0,.5,0,.9s0,.8-.1,1.1c0,.3-.2.5-.4.7-.2.2-.4.2-.7.2s-.7-.1-.9-.4c-.3-.3-.4-.9-.4-1.6M194.6,10.9c0,.6,0,1.1.2,1.3.2.2.3.3.6.3s.4-.1.6-.3c.2-.2.2-.6.2-1.3s0-1.1-.2-1.3c-.2-.2-.3-.3-.6-.3s-.4,0-.5.3c-.2.2-.2.7-.2,1.3h0Z"/>
  <polygon class="cls-14" points="197.5 12.9 197.5 12.3 198.1 12.3 198.1 12.9 197.5 12.9 197.5 12.9"/>
  <path class="cls-14" d="M198.7,10.9c0-.5,0-.8.1-1.1,0-.3.2-.5.4-.7.2-.2.4-.2.7-.2s.4,0,.6.1c.2,0,.3.2.4.4.1.2.2.4.2.6,0,.2,0,.5,0,.9s0,.8-.1,1.1c0,.3-.2.5-.4.7-.2.2-.4.2-.7.2s-.7-.1-.9-.4c-.3-.3-.4-.9-.4-1.6M199.2,10.9c0,.6,0,1.1.2,1.3.2.2.3.3.6.3s.4-.1.6-.3c.2-.2.2-.6.2-1.3s0-1.1-.2-1.3c-.2-.2-.3-.3-.6-.3s-.4,0-.5.3c-.2.2-.2.7-.2,1.3h0Z"/>
  <path class="cls-14" d="M201.8,11.9h.5c0,.2.1.4.3.5.1.1.3.2.5.2s.4,0,.6-.3c.2-.2.2-.4.2-.7s0-.5-.2-.7c-.2-.2-.4-.2-.6-.2s-.3,0-.4.1c-.1,0-.2.2-.3.3h-.5c0,0,.4-2.1.4-2.1h2v.5h-1.6l-.2,1.1c.2-.2.5-.2.7-.2s.6.1.9.4c.2.2.4.5.4.9s-.1.7-.3.9c-.3.3-.6.5-1,.5s-.6,0-.9-.3c-.2-.2-.4-.5-.4-.8h0Z"/>
  <rect class="cls-7" x="184" y="15.5" width="5.5" height="4.2"/>
  <path class="cls-14" d="M194.1,17.7c0-.5,0-.8.1-1.1,0-.3.2-.5.4-.7.2-.2.4-.2.7-.2s.4,0,.6.1c.2,0,.3.2.4.4.1.2.2.4.2.6,0,.2,0,.5,0,.9s0,.8-.1,1.1c0,.3-.2.5-.4.7-.2.2-.4.2-.7.2s-.7-.1-.9-.4c-.3-.3-.4-.9-.4-1.6M194.6,17.7c0,.6,0,1.1.2,1.3.2.2.3.3.6.3s.4-.1.6-.3c.2-.2.2-.6.2-1.3s0-1.1-.2-1.3c-.2-.2-.3-.3-.6-.3s-.4,0-.5.3c-.2.2-.2.7-.2,1.3h0Z"/>
  <polygon class="cls-14" points="197.5 19.6 197.5 19.1 198.1 19.1 198.1 19.6 197.5 19.6 197.5 19.6"/>
  <path class="cls-14" d="M200.5,19.6h-.5v-3.1c-.1.1-.3.2-.5.3-.2.1-.4.2-.5.2v-.5c.3-.1.5-.3.7-.5.2-.2.3-.4.4-.5h.3v4h0Z"/>
  <rect class="cls-3" x="184" y="22.3" width="5.5" height="4.2"/>
  <path class="cls-14" d="M194.1,24.4c0-.5,0-.8.1-1.1,0-.3.2-.5.4-.7.2-.2.4-.2.7-.2s.4,0,.6.1c.2,0,.3.2.4.4.1.2.2.4.2.6,0,.2,0,.5,0,.9s0,.8-.1,1.1c0,.3-.2.5-.4.7-.2.2-.4.2-.7.2s-.7-.1-.9-.4c-.3-.3-.4-.9-.4-1.6M194.6,24.4c0,.6,0,1.1.2,1.3.2.2.3.3.6.3s.4-.1.6-.3c.2-.2.2-.6.2-1.3s0-1.1-.2-1.3c-.2-.2-.3-.3-.6-.3s-.4,0-.5.3c-.2.2-.2.7-.2,1.3h0Z"/>
  <polygon class="cls-14" points="197.5 26.3 197.5 25.8 198.1 25.8 198.1 26.3 197.5 26.3 197.5 26.3"/>
  <path class="cls-14" d="M198.7,25.3h.5c0,.2.2.4.3.5.1.1.3.2.5.2s.4,0,.6-.2c.2-.2.2-.4.2-.6s0-.4-.2-.5c-.1-.1-.3-.2-.6-.2s-.2,0-.3,0v-.4c0,0,.1,0,.1,0,.2,0,.4,0,.6-.2.2-.1.2-.3.2-.5s0-.3-.2-.4c-.1-.1-.3-.2-.5-.2s-.3,0-.5.2c-.1.1-.2.3-.2.5h-.5c0-.4.2-.7.4-.8.2-.2.5-.3.8-.3s.4,0,.6.1c.2,0,.3.2.4.4,0,.2.1.3.1.5s0,.3-.1.5c0,.1-.2.2-.4.3.2,0,.4.2.5.3s.2.4.2.6-.1.6-.4.9c-.2.2-.6.4-1,.4s-.6-.1-.9-.3c-.2-.2-.4-.5-.4-.8h0Z"/>
  <rect class="cls-5" x="184" y="29" width="5.5" height="4.2"/>
  <path class="cls-14" d="M194.1,31.1c0-.5,0-.8.1-1.1,0-.3.2-.5.4-.7.2-.2.4-.2.7-.2s.4,0,.6.1c.2,0,.3.2.4.4.1.2.2.4.2.6,0,.2,0,.5,0,.9s0,.8-.1,1.1c0,.3-.2.5-.4.7-.2.2-.4.2-.7.2s-.7-.1-.9-.4c-.3-.3-.4-.9-.4-1.6M194.6,31.1c0,.6,0,1.1.2,1.3.2.2.3.3.6.3s.4-.1.6-.3c.2-.2.2-.6.2-1.3s0-1.1-.2-1.3c-.2-.2-.3-.3-.6-.3s-.4,0-.5.3c-.2.2-.2.7-.2,1.3h0Z"/>
  <polygon class="cls-14" points="197.5 33 197.5 32.5 198.1 32.5 198.1 33 197.5 33 197.5 33"/>
  <path class="cls-14" d="M198.7,32h.5c0,.2.1.4.3.5.1.1.3.2.5.2s.4,0,.6-.3c.2-.2.2-.4.2-.7s0-.5-.2-.7c-.2-.2-.4-.2-.6-.2s-.3,0-.4.1c-.1,0-.2.2-.3.3h-.5c0,0,.4-2.1.4-2.1h2v.5h-1.6l-.2,1.1c.2-.2.5-.2.7-.2s.6.1.9.4c.2.2.4.5.4.9s-.1.7-.3.9c-.3.3-.6.5-1,.5s-.6,0-.9-.3c-.2-.2-.4-.5-.4-.8h0Z"/>
  <rect class="cls-2" x="184" y="35.8" width="5.5" height="4.2"/>
  <path class="cls-14" d="M194.1,37.8c0-.5,0-.8.1-1.1,0-.3.2-.5.4-.7.2-.2.4-.2.7-.2s.4,0,.6.1c.2,0,.3.2.4.4.1.2.2.4.2.6,0,.2,0,.5,0,.9s0,.8-.1,1.1c0,.3-.2.5-.4.7-.2.2-.4.2-.7.2s-.7-.1-.9-.4c-.3-.3-.4-.9-.4-1.6M194.6,37.8c0,.6,0,1.1.2,1.3.2.2.3.3.6.3s.4-.1.6-.3c.2-.2.2-.6.2-1.3s0-1.1-.2-1.3c-.2-.2-.3-.3-.6-.3s-.4,0-.5.3c-.2.2-.2.7-.2,1.3h0Z"/>
  <polygon class="cls-14" points="197.5 39.8 197.5 39.2 198.1 39.2 198.1 39.8 197.5 39.8 197.5 39.8"/>
  <path class="cls-14" d="M198.7,36.3v-.5h2.5v.4c-.2.3-.5.6-.7,1.1-.2.4-.4.9-.6,1.4,0,.3-.2.7-.2,1.1h-.5c0-.3,0-.7.2-1.1.1-.4.3-.9.5-1.3.2-.4.5-.8.7-1h-1.9Z"/>
  <rect class="cls-6" x="184" y="42.5" width="5.5" height="4.2"/>
  <polygon class="cls-14" points="195.3 46.5 195.3 43 194 43 194 42.5 197.2 42.5 197.2 43 195.9 43 195.9 46.5 195.3 46.5 195.3 46.5"/>
  <path class="cls-14" d="M196.7,45.1c0-.5.1-.9.4-1.2.2-.2.5-.3.9-.3s.7.1,1,.4c.2.3.4.6.4,1.1s0,.7-.2.9c-.1.2-.3.4-.5.5-.2.1-.4.2-.7.2-.4,0-.7-.1-1-.4-.2-.3-.4-.6-.4-1.1M197.2,45.1c0,.4,0,.6.2.8.2.2.4.3.6.3s.4,0,.6-.3c.2-.2.2-.5.2-.8s0-.6-.2-.8c-.2-.2-.4-.3-.6-.3s-.4,0-.6.3c-.2.2-.2.5-.2.8h0Z"/>
  <path class="cls-14" d="M200,47.6v-3.9h.4v.4c.1-.1.2-.3.4-.3s.3-.1.5-.1.5,0,.6.2c.2.1.3.3.4.5,0,.2.1.5.1.7s0,.6-.2.8-.3.4-.5.5c-.2.1-.4.2-.6.2s-.3,0-.4-.1c-.1,0-.2-.2-.3-.3v1.4h-.5M200.5,45.1c0,.4,0,.6.2.8.1.2.3.3.5.3s.4,0,.6-.3c.2-.2.2-.5.2-.8s0-.6-.2-.8c-.1-.2-.3-.3-.5-.3s-.4,0-.5.3c-.2.2-.2.5-.2.8h0Z"/>
  <path class="cls-14" d="M203,45.1c0-.5.1-.9.4-1.2.2-.2.5-.3.9-.3s.7.1,1,.4c.2.3.4.6.4,1.1s0,.7-.2.9c-.1.2-.3.4-.5.5-.2.1-.4.2-.7.2-.4,0-.7-.1-1-.4-.2-.3-.4-.6-.4-1.1M203.5,45.1c0,.4,0,.6.2.8.2.2.4.3.6.3s.4,0,.6-.3c.2-.2.2-.5.2-.8s0-.6-.2-.8c-.2-.2-.4-.3-.6-.3s-.4,0-.6.3c-.2.2-.2.5-.2.8h0Z"/>
  <polygon class="cls-14" points="206 46.5 206 42.5 206.5 42.5 206.5 46.5 206 46.5 206 46.5"/>
  <path class="cls-14" d="M207.3,45.1c0-.5.1-.9.4-1.2.2-.2.5-.3.9-.3s.7.1,1,.4c.2.3.4.6.4,1.1s0,.7-.2.9c-.1.2-.3.4-.5.5-.2.1-.4.2-.7.2-.4,0-.7-.1-1-.4-.2-.3-.4-.6-.4-1.1M207.8,45.1c0,.4,0,.6.2.8.2.2.4.3.6.3s.4,0,.6-.3c.2-.2.2-.5.2-.8s0-.6-.2-.8c-.2-.2-.4-.3-.6-.3s-.4,0-.6.3c-.2.2-.2.5-.2.8h0Z"/>
  <path class="cls-14" d="M210.3,46.7h.5c0,.2,0,.3.2.4.1,0,.3.1.5.1s.4,0,.5-.1.2-.2.2-.4c0,0,0-.3,0-.6-.2.2-.5.4-.8.4s-.7-.1-.9-.4c-.2-.3-.3-.6-.3-1s0-.5.1-.8c0-.2.2-.4.4-.5.2-.1.4-.2.7-.2s.6.1.8.4v-.3h.4v2.5c0,.4,0,.8-.1.9,0,.2-.2.3-.4.4-.2.1-.4.2-.7.2s-.6,0-.8-.2-.3-.4-.3-.7M210.7,45c0,.4,0,.6.2.8.1.2.3.3.6.3s.4,0,.6-.3c.2-.2.2-.4.2-.8s0-.6-.2-.8c-.2-.2-.3-.3-.6-.3s-.4,0-.5.3c-.2.2-.2.4-.2.8h0Z"/>
  <path class="cls-14" d="M213.4,47.6v-.5c0,0,.1,0,.2,0s.2,0,.3,0c0,0,.1,0,.2-.2,0,0,0-.2.1-.4,0,0,0,0,0-.1l-1.1-2.9h.5l.6,1.7c0,.2.1.4.2.7,0-.2.1-.4.2-.6l.6-1.7h.5l-1.1,2.9c-.1.3-.2.5-.3.6,0,.2-.2.3-.3.3-.1,0-.2.1-.4.1s-.2,0-.3,0h0Z"/>
</svg>