<?xml version="1.0" encoding="UTF-8"?>
<svg id="_图层_1" data-name="图层 1" xmlns="http://www.w3.org/2000/svg" viewBox="0 0 111.91 117.23">
  <defs>
    <style>
      .cls-1 {
        stroke-width: .5px;
      }

      .cls-1, .cls-2 {
        stroke: #2ea7e0;
      }

      .cls-1, .cls-2, .cls-3 {
        stroke-linejoin: round;
      }

      .cls-1, .cls-4, .cls-5 {
        fill: none;
      }

      .cls-1, .cls-5 {
        stroke-linecap: square;
      }

      .cls-2, .cls-6 {
        fill: #fff;
      }

      .cls-4, .cls-7, .cls-6 {
        stroke-width: 0px;
      }

      .cls-3, .cls-7 {
        fill: #000;
      }

      .cls-3, .cls-5 {
        stroke: #000;
        stroke-width: .8px;
      }

      .cls-7 {
        fill-rule: evenodd;
      }

      .cls-5 {
        stroke-miterlimit: 10;
      }
    </style>
  </defs>
  <rect class="cls-6" x="27.81" y="1.99" width="83.7" height="55.44"/>
  <line class="cls-3" x1="31.62" y1="57.43" x2="31.62" y2="60.93"/>
  <polygon class="cls-7" points="30.29 64.83 33.87 64.83 33.87 65.3 30.29 65.3 30.29 64.83 30.29 64.83"/>
  <path class="cls-7" d="M30.29,66.19h3.58v1.35c0,.24-.01.42-.03.54-.03.18-.09.32-.17.44-.08.12-.2.21-.34.29-.15.07-.31.11-.49.11-.31,0-.56-.1-.77-.29-.21-.19-.31-.54-.31-1.05v-.92h-1.46v-.47M32.17,66.66v.93c0,.31.06.52.17.65.11.13.27.19.48.19.15,0,.28-.04.38-.11.11-.08.18-.17.21-.3.02-.08.03-.23.03-.44v-.92h-1.28Z"/>
  <path class="cls-7" d="M32.99,71.65l-.03-.44c.17-.04.3-.1.38-.17.12-.12.19-.27.19-.44,0-.14-.04-.26-.12-.37-.1-.14-.25-.25-.44-.33-.19-.08-.47-.12-.83-.12.16.1.28.23.36.39.08.15.12.31.12.48,0,.29-.11.54-.32.75-.21.21-.49.31-.83.31-.22,0-.43-.05-.63-.15-.19-.1-.34-.23-.44-.4s-.15-.36-.15-.58c0-.37.13-.66.4-.9.27-.23.72-.35,1.33-.35.69,0,1.19.13,1.51.38.27.22.41.52.41.9,0,.28-.08.51-.24.69-.16.18-.38.29-.65.32M31.45,69.86c-.15,0-.3.03-.43.1-.14.07-.24.16-.32.27-.07.11-.11.24-.11.36,0,.19.08.34.22.48.15.13.35.2.61.2s.44-.07.58-.2c.14-.13.21-.3.21-.5s-.07-.37-.21-.51c-.14-.14-.33-.21-.56-.21h0Z"/>
  <line class="cls-3" x1="37.96" y1="57.43" x2="37.96" y2="60.93"/>
  <polygon class="cls-7" points="36.77 64.83 40.35 64.83 40.35 65.3 36.77 65.3 36.77 64.83 36.77 64.83"/>
  <path class="cls-7" d="M36.77,66.19h3.58v1.35c0,.24-.01.42-.03.54-.03.18-.09.32-.17.44-.08.12-.2.21-.34.29-.15.07-.31.11-.49.11-.31,0-.56-.1-.77-.29-.21-.19-.31-.54-.31-1.05v-.92h-1.46v-.47M38.65,66.66v.93c0,.31.06.52.17.65.11.13.27.19.48.19.15,0,.28-.04.38-.11.11-.08.18-.17.21-.3.02-.08.03-.23.03-.44v-.92h-1.28Z"/>
  <path class="cls-7" d="M37.71,69.37l.06.44c-.25.05-.43.14-.54.26-.11.12-.16.27-.16.44,0,.21.07.38.21.52.14.14.32.21.53.21s.37-.07.5-.2c.13-.13.2-.3.2-.5,0-.08-.02-.19-.05-.31l.39.05s0,.05,0,.07c0,.19.05.36.15.51.1.15.25.22.45.22.16,0,.3-.05.4-.16.1-.11.16-.25.16-.42s-.05-.31-.16-.43c-.11-.11-.27-.19-.48-.22l.08-.44c.3.05.52.18.68.37.16.19.24.43.24.71,0,.2-.04.38-.13.54-.08.16-.2.29-.34.38-.14.09-.3.13-.46.13-.15,0-.3-.04-.42-.12-.13-.08-.23-.21-.3-.37-.05.21-.15.38-.31.49s-.34.18-.58.18c-.31,0-.58-.11-.8-.34-.22-.23-.32-.52-.32-.86,0-.31.09-.58.28-.78.19-.21.43-.32.73-.35h0Z"/>
  <line class="cls-3" x1="44.3" y1="57.43" x2="44.3" y2="60.93"/>
  <polygon class="cls-7" points="43.01 64.76 46.59 64.76 46.59 67.35 46.16 67.35 46.16 65.23 45.07 65.23 45.07 67.21 44.65 67.21 44.65 65.23 43.43 65.23 43.43 67.43 43.01 67.43 43.01 64.76 43.01 64.76"/>
  <path class="cls-7" d="M43.01,68.05h2.59v.4h-.37c.29.19.43.47.43.83,0,.16-.03.3-.09.43-.06.13-.13.23-.22.3-.09.07-.2.11-.32.14-.08.02-.22.02-.43.02h-1.59v-.44h1.58c.18,0,.31-.02.4-.05.09-.03.16-.1.21-.18.05-.09.08-.19.08-.31,0-.19-.06-.35-.18-.49-.12-.13-.34-.2-.68-.2h-1.42v-.44h0Z"/>
  <path class="cls-7" d="M43.01,72.62h.33c-.26-.16-.39-.41-.39-.73,0-.21.06-.4.17-.57.11-.17.27-.31.48-.4.21-.1.44-.14.71-.14s.49.04.7.13c.21.09.37.21.49.39.11.17.17.37.17.58,0,.16-.03.3-.1.42-.07.12-.15.22-.26.3h1.28v.44h-3.58v-.41M44.3,71.23c-.33,0-.58.07-.74.21s-.25.31-.25.5.08.35.23.49c.16.13.4.2.72.2.35,0,.62-.07.78-.21.17-.14.25-.31.25-.51s-.08-.36-.24-.49c-.16-.13-.41-.2-.75-.2h0Z"/>
  <path class="cls-7" d="M44.3,73.41c.48,0,.83.13,1.07.4.19.22.29.5.29.82,0,.36-.12.65-.35.87-.23.23-.55.34-.97.34-.33,0-.6-.05-.79-.15-.19-.1-.34-.24-.44-.44-.11-.19-.16-.4-.16-.62,0-.36.12-.66.35-.88.23-.22.57-.33,1.01-.33M44.3,73.86c-.33,0-.58.07-.75.22-.16.14-.25.33-.25.55s.08.4.25.54c.17.14.42.22.76.22.32,0,.56-.07.73-.22.17-.14.25-.32.25-.54s-.08-.4-.25-.55c-.16-.14-.41-.22-.74-.22h0Z"/>
  <path class="cls-7" d="M43.96,78.15l-.06.43c-.3-.05-.53-.17-.7-.36-.17-.19-.25-.43-.25-.72,0-.35.11-.64.35-.86.23-.21.57-.32,1-.32.28,0,.52.05.73.14s.37.23.47.42c.11.19.16.4.16.62,0,.28-.07.51-.21.69-.14.18-.34.29-.61.34l-.07-.43c.17-.04.31-.11.39-.22.09-.1.13-.23.13-.37,0-.22-.08-.4-.24-.54s-.41-.21-.75-.21-.6.07-.76.2c-.16.13-.24.31-.24.52,0,.17.05.32.16.43s.27.19.49.22h0Z"/>
  <path class="cls-7" d="M43.33,80.55c-.14-.16-.24-.32-.29-.47-.06-.15-.09-.31-.09-.48,0-.29.07-.5.21-.66s.32-.23.53-.23c.13,0,.24.03.35.09.1.06.19.13.25.23.06.1.11.2.14.32.02.09.04.22.07.39.04.35.09.62.15.78.06,0,.1,0,.11,0,.18,0,.31-.04.38-.12.1-.11.15-.28.15-.5,0-.21-.04-.36-.11-.46-.07-.1-.2-.17-.38-.22l.06-.43c.18.04.33.1.44.19.11.09.2.22.26.39.06.17.09.37.09.59s-.03.4-.08.54-.12.24-.2.31c-.08.07-.18.11-.3.14-.08.01-.21.02-.41.02h-.59c-.41,0-.67,0-.78.03-.11.02-.21.06-.31.11v-.46c.09-.05.2-.08.32-.09M44.31,80.51c-.07-.16-.12-.4-.17-.72-.03-.18-.06-.31-.09-.38-.03-.08-.08-.13-.14-.17-.06-.04-.13-.06-.21-.06-.12,0-.21.04-.29.13-.08.09-.12.22-.12.39s.04.32.11.45c.08.13.18.23.31.29.1.05.25.07.44.07h.16Z"/>
  <path class="cls-7" d="M43.01,81.73h2.59v.4h-.39c.18.1.31.19.36.28.06.09.09.18.09.28,0,.15-.05.3-.14.45l-.41-.15c.06-.11.1-.21.1-.32,0-.1-.03-.18-.09-.26-.06-.08-.14-.13-.24-.16-.16-.05-.33-.07-.51-.07h-1.36v-.44h0Z"/>
  <path class="cls-7" d="M43.01,85.1h.33c-.26-.16-.39-.41-.39-.73,0-.21.06-.4.17-.57.11-.17.27-.31.48-.4.21-.1.44-.14.71-.14s.49.04.7.13c.21.09.37.21.49.39.11.17.17.37.17.58,0,.16-.03.3-.1.42-.07.12-.15.22-.26.3h1.28v.44h-3.58v-.41M44.3,83.71c-.33,0-.58.07-.74.21s-.25.31-.25.5.08.35.23.49c.16.13.4.2.72.2.35,0,.62-.07.78-.21.17-.14.25-.31.25-.51s-.08-.36-.24-.49c-.16-.13-.41-.2-.75-.2h0Z"/>
  <path class="cls-7" d="M46.08,86.06h.51v.44h-.51v-.44M43.01,86.06h2.59v.44h-2.59v-.44h0Z"/>
  <path class="cls-7" d="M43.01,88.95h.38c-.29-.2-.44-.48-.44-.82,0-.15.03-.3.09-.43.06-.13.13-.23.22-.3.09-.06.2-.11.33-.13.09-.02.22-.03.41-.03h1.61v.44h-1.44c-.23,0-.38,0-.46.03-.11.03-.21.09-.27.18-.07.09-.1.2-.1.33s.03.26.1.37c.07.11.16.2.28.24.12.05.29.07.51.07h1.39v.44h-2.59v-.39h0Z"/>
  <path class="cls-7" d="M43.01,90.13h2.59v.39h-.36c.13.08.23.19.31.32.08.13.12.29.12.46,0,.19-.04.35-.12.47-.08.12-.19.21-.33.26.3.21.45.47.45.8,0,.26-.07.45-.21.59-.14.14-.36.21-.66.21h-1.78v-.44h1.63c.18,0,.3-.01.38-.04.08-.03.14-.08.19-.15.05-.08.07-.16.07-.26,0-.18-.06-.33-.18-.45-.12-.12-.31-.18-.58-.18h-1.51v-.44h1.68c.2,0,.34-.04.44-.11.1-.07.15-.19.15-.35,0-.12-.03-.24-.1-.34-.07-.11-.16-.18-.29-.23-.12-.05-.31-.07-.54-.07h-1.35v-.44h0Z"/>
  <line class="cls-3" x1="50.64" y1="57.43" x2="50.64" y2="60.93"/>
  <polygon class="cls-7" points="49.25 64.76 52.83 64.76 52.83 67.35 52.4 67.35 52.4 65.23 51.31 65.23 51.31 67.21 50.89 67.21 50.89 65.23 49.67 65.23 49.67 67.43 49.25 67.43 49.25 64.76 49.25 64.76"/>
  <path class="cls-7" d="M48.25,68.05h3.59v.4h-.34c.13.1.23.2.3.32s.1.26.1.43c0,.22-.06.42-.17.59-.11.17-.28.3-.48.38-.21.09-.43.13-.68.13-.27,0-.51-.05-.72-.14s-.37-.23-.49-.42c-.11-.18-.17-.37-.17-.57,0-.15.03-.28.09-.4.06-.11.14-.21.23-.29h-1.26v-.44M50.53,68.45c-.33,0-.58.07-.74.2-.16.13-.24.3-.24.49s.08.36.25.5c.17.14.42.21.77.21s.58-.07.74-.21c.16-.13.25-.3.25-.49s-.09-.35-.26-.5c-.17-.14-.43-.21-.76-.21h0Z"/>
  <path class="cls-7" d="M52.32,70.94h.51v.44h-.51v-.44M49.25,70.94h2.59v.44h-2.59v-.44h0Z"/>
  <path class="cls-7" d="M50.2,73.59l-.06.43c-.3-.05-.53-.17-.7-.36-.17-.19-.25-.43-.25-.72,0-.35.11-.64.35-.86.23-.21.57-.32,1-.32.28,0,.52.05.73.14.21.09.37.23.47.42.1.19.16.4.16.62,0,.28-.07.51-.21.69-.14.18-.34.29-.61.34l-.07-.43c.17-.04.31-.11.39-.22.09-.1.13-.23.13-.37,0-.22-.08-.4-.24-.54-.16-.14-.41-.21-.75-.21s-.6.07-.76.2c-.16.13-.24.31-.24.52,0,.17.05.32.16.43.1.11.27.19.49.22h0Z"/>
  <path class="cls-7" d="M49.57,76.23c-.14-.16-.24-.32-.29-.47-.06-.15-.09-.31-.09-.48,0-.29.07-.5.21-.66s.32-.23.53-.23c.13,0,.24.03.35.09.1.06.19.13.25.23.06.1.11.2.14.32.02.09.04.22.07.39.04.35.09.62.15.78.06,0,.1,0,.11,0,.18,0,.31-.04.38-.12.1-.11.15-.28.15-.5,0-.21-.04-.36-.11-.46-.07-.1-.2-.17-.38-.22l.06-.43c.18.04.33.1.44.19.11.09.2.22.26.39.06.17.09.37.09.59s-.03.4-.08.54-.12.24-.2.31c-.08.07-.18.11-.3.14-.08.01-.21.02-.41.02h-.59c-.41,0-.67,0-.78.03-.11.02-.21.06-.31.11v-.46c.09-.05.2-.08.32-.09M50.55,76.19c-.07-.16-.12-.4-.17-.72-.03-.18-.06-.31-.09-.38-.03-.08-.08-.13-.14-.17-.06-.04-.13-.06-.21-.06-.12,0-.21.04-.29.13-.08.09-.12.22-.12.39s.04.32.11.45c.08.13.18.23.31.29.1.05.25.07.44.07h.16Z"/>
  <path class="cls-7" d="M49.25,77.17h2.59v.4h-.39c.18.1.31.19.36.28s.09.18.09.28c0,.15-.05.3-.14.45l-.41-.15c.06-.11.1-.21.1-.32,0-.1-.03-.18-.09-.26-.06-.08-.14-.13-.24-.16-.16-.05-.33-.07-.51-.07h-1.36v-.44h0Z"/>
  <path class="cls-7" d="M49.25,80.54h.33c-.26-.16-.39-.41-.39-.73,0-.21.06-.4.17-.57.11-.17.27-.31.48-.4.21-.1.44-.14.71-.14s.49.04.7.13c.21.09.37.21.49.39.11.17.17.37.17.58,0,.16-.03.3-.1.42-.07.12-.15.22-.26.3h1.28v.44h-3.58v-.41M50.54,79.15c-.33,0-.58.07-.74.21-.16.14-.25.31-.25.5s.08.35.23.49c.16.13.4.2.72.2.35,0,.62-.07.78-.21.17-.14.25-.31.25-.51s-.08-.36-.24-.49c-.16-.13-.41-.2-.75-.2h0Z"/>
  <path class="cls-7" d="M52.32,81.74h.51v.44h-.51v-.44M49.25,81.74h2.59v.44h-2.59v-.44h0Z"/>
  <path class="cls-7" d="M49.25,84.63h.38c-.29-.2-.44-.48-.44-.82,0-.15.03-.3.09-.43.06-.13.13-.23.22-.3.09-.06.2-.11.33-.13.09-.02.22-.03.41-.03h1.61v.44h-1.44c-.23,0-.38,0-.46.03-.11.03-.21.09-.27.18-.07.09-.1.2-.1.33s.03.26.1.37c.07.11.16.2.28.24.12.05.29.07.51.07h1.39v.44h-2.59v-.39h0Z"/>
  <path class="cls-7" d="M49.25,85.57h2.59v.39h-.36c.13.08.23.19.31.32.08.13.12.29.12.46,0,.19-.04.35-.12.47-.08.12-.19.21-.33.26.3.21.45.47.45.8,0,.26-.07.45-.21.59-.14.14-.36.21-.66.21h-1.78v-.44h1.63c.18,0,.3-.01.38-.04.08-.03.14-.08.19-.15.05-.08.07-.16.07-.26,0-.18-.06-.33-.18-.45-.12-.12-.31-.18-.58-.18h-1.51v-.44h1.68c.2,0,.34-.04.44-.11.1-.07.15-.19.15-.35,0-.12-.03-.24-.1-.34-.07-.11-.16-.18-.29-.23-.12-.05-.31-.07-.54-.07h-1.35v-.44h0Z"/>
  <line class="cls-3" x1="56.98" y1="57.43" x2="56.98" y2="60.93"/>
  <polygon class="cls-7" points="55.73 64.83 59.31 64.83 59.31 65.3 55.73 65.3 55.73 64.83 55.73 64.83"/>
  <path class="cls-7" d="M55.73,66.19h3.58v1.35c0,.24-.01.42-.03.54-.03.18-.09.32-.17.44-.08.12-.2.21-.34.29-.15.07-.31.11-.49.11-.31,0-.56-.1-.77-.29-.21-.19-.31-.54-.31-1.05v-.92h-1.46v-.47M57.61,66.66v.93c0,.31.06.52.17.65.11.13.27.19.48.19.15,0,.28-.04.38-.11.11-.08.18-.17.21-.3.02-.08.03-.23.03-.44v-.92h-1.28Z"/>
  <path class="cls-7" d="M56.67,69.37l.04.46c-.22.03-.39.11-.51.24-.11.12-.17.28-.17.45,0,.21.08.39.24.54s.37.22.63.22.45-.07.59-.21c.14-.14.22-.32.22-.55,0-.14-.03-.27-.1-.38-.06-.11-.15-.2-.25-.27l.05-.41,1.84.35v1.78h-.42v-1.43l-.96-.19c.15.21.22.44.22.68,0,.31-.11.58-.32.79s-.5.32-.83.32-.6-.1-.84-.28c-.29-.23-.43-.54-.43-.94,0-.32.09-.59.27-.8.18-.21.42-.32.73-.35h0Z"/>
  <line class="cls-3" x1="63.32" y1="57.43" x2="63.32" y2="60.93"/>
  <path class="cls-7" d="M61.97,64.73h3.58v.71l-2.53.85c-.24.08-.41.13-.53.17.13.04.32.1.57.19l2.49.86v.64h-3.58v-.46h3l-3-1.04v-.43l3.05-1.04h-3.05v-.46h0Z"/>
  <path class="cls-7" d="M63.26,68.85c.48,0,.83.13,1.07.4.19.22.29.5.29.82,0,.36-.12.65-.35.87-.23.23-.55.34-.97.34-.33,0-.6-.05-.79-.15-.19-.1-.34-.24-.44-.44-.1-.19-.16-.4-.16-.62,0-.36.12-.66.35-.88.23-.22.57-.33,1.01-.33M63.26,69.3c-.33,0-.58.07-.75.22-.16.14-.25.33-.25.55s.08.4.25.54c.17.14.42.22.76.22.32,0,.56-.07.73-.22.17-.14.25-.32.25-.54s-.08-.4-.25-.55c-.16-.14-.41-.22-.74-.22h0Z"/>
  <path class="cls-7" d="M61.97,71.65h2.59v.4h-.37c.29.19.43.47.43.83,0,.16-.03.3-.09.43-.06.13-.13.23-.22.3-.09.07-.2.11-.32.14-.08.02-.22.02-.43.02h-1.59v-.44h1.58c.18,0,.31-.02.4-.05.09-.03.16-.1.21-.18.05-.09.08-.19.08-.31,0-.19-.06-.35-.18-.49-.12-.13-.34-.2-.68-.2h-1.42v-.44h0Z"/>
  <path class="cls-7" d="M63.26,74.37c.48,0,.83.13,1.07.4.19.22.29.5.29.82,0,.36-.12.65-.35.87-.23.23-.55.34-.97.34-.33,0-.6-.05-.79-.15-.19-.1-.34-.24-.44-.44-.1-.19-.16-.4-.16-.62,0-.36.12-.66.35-.88.23-.22.57-.33,1.01-.33M63.26,74.82c-.33,0-.58.07-.75.22-.16.14-.25.33-.25.55s.08.4.25.54c.17.14.42.22.76.22.32,0,.56-.07.73-.22.17-.14.25-.32.25-.54s-.08-.4-.25-.55c-.16-.14-.41-.22-.74-.22h0Z"/>
  <path class="cls-7" d="M62.92,78.87l-.06.43c-.3-.05-.53-.17-.7-.36-.17-.19-.25-.43-.25-.72,0-.35.11-.64.35-.86.23-.21.57-.32,1-.32.28,0,.52.05.73.14.21.09.37.23.47.42.1.19.16.4.16.62,0,.28-.07.51-.21.69-.14.18-.34.29-.61.34l-.07-.43c.17-.04.31-.11.39-.22.09-.1.13-.23.13-.37,0-.22-.08-.4-.24-.54-.16-.14-.41-.21-.75-.21s-.6.07-.76.2c-.16.13-.24.31-.24.52,0,.17.05.32.16.43.1.11.27.19.49.22h0Z"/>
  <path class="cls-7" d="M60.97,79.79l.41-.05c-.03.1-.04.18-.04.25,0,.1.02.18.05.23.03.06.08.11.14.14.04.03.15.07.33.13.02,0,.06.02.11.04l2.6-.98v.47l-1.5.54c-.19.07-.39.13-.6.19.2.05.4.11.59.18l1.51.55v.44l-2.64-.99c-.29-.11-.48-.19-.59-.25-.14-.08-.25-.17-.32-.27-.07-.1-.1-.22-.1-.36,0-.09.02-.18.05-.28h0Z"/>
  <path class="cls-7" d="M62.36,83.17l-.39.06c-.03-.12-.04-.23-.04-.33,0-.16.02-.28.08-.37s.12-.15.2-.19c.08-.04.26-.05.52-.05h1.49v-.32h.34v.32h.64l.26.44h-.91v.44h-.34v-.44h-1.52c-.12,0-.21,0-.24.02-.04.02-.06.04-.09.08-.02.04-.03.09-.03.15,0,.05,0,.11.02.19h0Z"/>
  <path class="cls-7" d="M62.8,85.43l-.06.45c-.27-.07-.47-.21-.62-.4-.15-.19-.22-.44-.22-.74,0-.38.12-.68.35-.9.23-.22.56-.33.98-.33s.77.11,1.02.34c.24.22.36.52.36.87s-.12.63-.35.85c-.24.22-.57.33-1,.33-.03,0-.07,0-.12,0v-1.93c-.29.02-.5.1-.65.24-.15.14-.23.32-.23.54,0,.16.04.3.13.41.09.11.22.21.41.27M63.51,83.99v1.45c.22-.02.38-.08.49-.17.17-.14.25-.32.25-.54,0-.2-.07-.37-.2-.51-.13-.14-.31-.21-.54-.23h0Z"/>
  <path class="cls-7" d="M62.74,86.36l.07.43c-.17.02-.31.09-.4.2-.09.11-.14.27-.14.47s.04.35.12.45c.08.1.18.15.29.15.1,0,.18-.04.23-.13.04-.06.09-.21.15-.45.08-.32.15-.55.21-.67.06-.12.14-.22.25-.28.1-.06.22-.1.35-.1.11,0,.22.03.32.08.1.05.18.13.25.22.05.07.09.16.13.28.04.12.05.25.05.38,0,.2-.03.38-.09.53s-.14.27-.24.34c-.1.07-.23.12-.4.15l-.06-.43c.13-.02.24-.08.31-.17.08-.09.11-.22.11-.4,0-.2-.03-.35-.1-.43-.07-.09-.14-.13-.23-.13-.06,0-.11.02-.15.05-.05.04-.09.09-.12.17-.02.04-.05.17-.11.39-.08.31-.15.53-.21.65-.05.12-.13.22-.23.29-.1.07-.23.1-.38.1s-.29-.04-.42-.13c-.13-.09-.23-.21-.3-.37-.07-.16-.1-.34-.1-.55,0-.34.07-.59.21-.77.14-.18.35-.29.62-.34h0Z"/>
  <line class="cls-3" x1="69.66" y1="57.43" x2="69.66" y2="60.93"/>
  <polygon class="cls-7" points="68.45 64.83 72.03 64.83 72.03 65.3 68.45 65.3 68.45 64.83 68.45 64.83"/>
  <path class="cls-7" d="M68.45,66.19h3.58v1.35c0,.24-.01.42-.03.54-.03.18-.09.32-.17.44-.08.12-.2.21-.34.29-.15.07-.31.11-.49.11-.31,0-.56-.1-.77-.29-.21-.19-.31-.54-.31-1.05v-.92h-1.46v-.47M70.33,66.66v.93c0,.31.06.52.17.65.11.13.27.19.48.19.15,0,.28-.04.38-.11.11-.08.18-.17.21-.3.02-.08.03-.23.03-.44v-.92h-1.28Z"/>
  <path class="cls-7" d="M68.45,70.78h.86v-1.55h.4l2.32,1.63v.36h-2.32v.48h-.4v-.48h-.86v-.44M69.71,70.78h1.61l-1.61-1.12v1.12h0Z"/>
  <line class="cls-3" x1="76" y1="57.43" x2="76" y2="60.93"/>
  <polygon class="cls-7" points="74.69 64.77 78.27 64.77 78.27 67.19 77.84 67.19 77.84 65.25 76.74 65.25 76.74 66.93 76.31 66.93 76.31 65.25 74.69 65.25 74.69 64.77 74.69 64.77"/>
  <path class="cls-7" d="M77.76,67.82h.51v.44h-.51v-.44M74.69,67.82h2.59v.44h-2.59v-.44h0Z"/>
  <path class="cls-7" d="M74.69,69.42v-.41h3.58v.44h-1.28c.23.19.35.42.35.71,0,.16-.03.31-.1.45-.06.14-.15.26-.27.35-.11.09-.26.17-.42.22-.16.05-.34.08-.53.08-.44,0-.79-.11-1.03-.33s-.36-.48-.36-.79.13-.55.38-.72h-.32M76,69.41c-.31,0-.53.04-.67.13-.23.14-.34.32-.34.56,0,.19.08.36.25.5.17.14.42.21.75.21s.59-.07.75-.2c.16-.13.24-.3.24-.49s-.08-.36-.25-.5c-.17-.14-.41-.21-.72-.21h0Z"/>
  <path class="cls-7" d="M74.69,71.65h2.59v.4h-.39c.18.1.31.19.36.28.06.09.09.18.09.28,0,.15-.05.3-.14.45l-.41-.15c.06-.11.1-.21.1-.32,0-.1-.03-.18-.09-.26-.06-.08-.14-.13-.24-.16-.16-.05-.33-.07-.51-.07h-1.36v-.44h0Z"/>
  <path class="cls-7" d="M75.98,73.17c.48,0,.83.13,1.07.4.19.22.29.5.29.82,0,.36-.12.65-.35.87-.23.23-.55.34-.97.34-.33,0-.6-.05-.79-.15-.19-.1-.34-.24-.44-.44-.1-.19-.16-.4-.16-.62,0-.36.12-.66.35-.88.23-.22.57-.33,1.01-.33M75.98,73.62c-.33,0-.58.07-.75.22-.16.14-.25.33-.25.55s.08.4.25.54c.17.14.42.22.76.22.32,0,.56-.07.73-.22.17-.14.25-.32.25-.54s-.08-.4-.25-.55c-.16-.14-.41-.22-.74-.22h0Z"/>
  <path class="cls-7" d="M74.69,76.62v-.41h3.58v.44h-1.28c.23.19.35.42.35.71,0,.16-.03.31-.1.45-.06.14-.15.26-.27.35-.11.09-.26.17-.42.22-.16.05-.34.08-.53.08-.44,0-.79-.11-1.03-.33s-.36-.48-.36-.79.13-.55.38-.72h-.32M76,76.61c-.31,0-.53.04-.67.13-.23.14-.34.32-.34.56,0,.19.08.36.25.5.17.14.42.21.75.21s.59-.07.75-.2c.16-.13.24-.3.24-.49s-.08-.36-.25-.5c-.17-.14-.41-.21-.72-.21h0Z"/>
  <polygon class="cls-7" points="74.69 78.84 78.27 78.84 78.27 79.28 74.69 79.28 74.69 78.84 74.69 78.84"/>
  <path class="cls-7" d="M75.01,81.75c-.14-.16-.24-.32-.29-.47-.06-.15-.09-.31-.09-.48,0-.29.07-.5.21-.66s.32-.23.53-.23c.13,0,.24.03.35.09.1.06.19.13.25.23.06.1.11.2.14.32.02.09.04.22.07.39.04.35.09.62.15.78.06,0,.1,0,.11,0,.18,0,.31-.04.38-.12.1-.11.15-.28.15-.5,0-.21-.04-.36-.11-.46-.07-.1-.2-.17-.38-.22l.06-.43c.18.04.33.1.44.19.11.09.2.22.26.39.06.17.09.37.09.59s-.03.4-.08.54-.12.24-.2.31c-.08.07-.18.11-.3.14-.08.01-.21.02-.41.02h-.59c-.41,0-.67,0-.78.03-.11.02-.21.06-.31.11v-.46c.09-.05.2-.08.32-.09M75.99,81.71c-.07-.16-.12-.4-.17-.72-.03-.18-.06-.31-.09-.38-.03-.08-.08-.13-.14-.17-.06-.04-.13-.06-.21-.06-.12,0-.21.04-.29.13-.08.09-.12.22-.12.39s.04.32.11.45c.08.13.18.23.31.29.1.05.25.07.44.07h.16Z"/>
  <path class="cls-7" d="M75.46,82.76l.07.43c-.17.02-.31.09-.4.2-.09.11-.14.27-.14.47s.04.35.12.45c.08.1.18.15.29.15.1,0,.18-.04.23-.13.04-.06.09-.21.15-.45.08-.32.15-.55.21-.67.06-.12.14-.22.25-.28.1-.06.22-.1.35-.1.11,0,.22.03.32.08.1.05.18.13.25.22.05.07.09.16.13.28.04.12.05.25.05.38,0,.2-.03.38-.09.53s-.14.27-.24.34c-.1.07-.23.12-.4.15l-.06-.43c.13-.02.24-.08.31-.17.08-.09.11-.22.11-.4,0-.2-.03-.35-.1-.43-.07-.09-.14-.13-.23-.13-.06,0-.11.02-.15.05-.05.04-.09.09-.12.17-.02.04-.05.17-.11.39-.08.31-.15.53-.21.65-.05.12-.13.22-.23.29-.1.07-.23.1-.38.1s-.29-.04-.42-.13c-.13-.09-.23-.21-.3-.37-.07-.16-.1-.34-.1-.55,0-.34.07-.59.21-.77.14-.18.35-.29.62-.34h0Z"/>
  <path class="cls-7" d="M75.08,86.29l-.39.06c-.03-.12-.04-.23-.04-.33,0-.16.02-.28.08-.37s.12-.15.2-.19c.08-.04.26-.05.52-.05h1.49v-.32h.34v.32h.64l.26.44h-.91v.44h-.34v-.44h-1.52c-.12,0-.21,0-.24.02-.04.02-.06.04-.09.08-.02.04-.03.09-.03.15,0,.05,0,.11.02.19h0Z"/>
  <path class="cls-7" d="M75.46,86.6l.07.43c-.17.02-.31.09-.4.2-.09.11-.14.27-.14.47s.04.35.12.45c.08.1.18.15.29.15.1,0,.18-.04.23-.13.04-.06.09-.21.15-.45.08-.32.15-.55.21-.67.06-.12.14-.22.25-.28.1-.06.22-.1.35-.1.11,0,.22.03.32.08.1.05.18.13.25.22.05.07.09.16.13.28.04.12.05.25.05.38,0,.2-.03.38-.09.53s-.14.27-.24.34c-.1.07-.23.12-.4.15l-.06-.43c.13-.02.24-.08.31-.17.08-.09.11-.22.11-.4,0-.2-.03-.35-.1-.43s-.14-.13-.23-.13c-.06,0-.11.02-.15.05-.05.04-.09.09-.12.17-.02.04-.05.17-.11.39-.08.31-.15.53-.21.65-.05.12-.13.22-.23.29-.1.07-.23.1-.38.1s-.29-.04-.42-.13c-.13-.09-.23-.21-.3-.37-.07-.16-.1-.34-.1-.55,0-.34.07-.59.21-.77.14-.18.35-.29.62-.34h0Z"/>
  <line class="cls-3" x1="82.35" y1="57.43" x2="82.35" y2="60.93"/>
  <polygon class="cls-7" points="81.17 64.83 84.75 64.83 84.75 65.3 81.17 65.3 81.17 64.83 81.17 64.83"/>
  <path class="cls-7" d="M81.17,66.19h3.58v1.35c0,.24-.01.42-.03.54-.03.18-.09.32-.17.44-.08.12-.2.21-.34.29-.15.07-.31.11-.49.11-.31,0-.56-.1-.77-.29-.21-.19-.31-.54-.31-1.05v-.92h-1.46v-.47M83.05,66.66v.93c0,.31.06.52.17.65.11.13.27.19.48.19.15,0,.28-.04.38-.11.11-.08.18-.17.21-.3.02-.08.03-.23.03-.44v-.92h-1.28Z"/>
  <path class="cls-7" d="M81.59,71.68h-.42v-2.37c.1,0,.21.01.31.05.16.06.32.16.48.29.16.13.34.32.54.58.32.39.57.65.76.79.19.14.36.21.53.21s.32-.06.44-.19.18-.29.18-.49c0-.21-.06-.38-.19-.51s-.3-.19-.53-.19l.05-.45c.34.03.59.15.77.35.18.2.27.47.27.81s-.1.62-.29.82-.43.3-.71.3c-.14,0-.28-.03-.42-.09s-.28-.16-.44-.29c-.15-.13-.36-.36-.63-.68-.22-.26-.37-.43-.45-.51-.08-.08-.16-.14-.24-.19v1.76h0Z"/>
  <line class="cls-3" x1="88.69" y1="57.43" x2="88.69" y2="60.93"/>
  <path class="cls-7" d="M88.56,64.59l.04.45c-.18.02-.33.07-.44.15-.11.08-.21.2-.28.36-.07.16-.1.35-.1.55,0,.18.03.34.08.48.05.14.13.24.22.31.1.07.2.1.31.1s.21-.03.29-.1c.09-.07.16-.17.21-.32.04-.1.1-.31.17-.64.08-.33.15-.56.22-.69.09-.17.2-.3.33-.38.13-.08.28-.12.45-.12.18,0,.35.05.51.15.16.1.28.25.36.45s.12.42.12.66c0,.27-.04.5-.13.7-.09.2-.21.36-.38.47-.17.11-.35.17-.56.18l-.03-.45c.23-.02.4-.11.51-.25.11-.14.17-.35.17-.62s-.05-.5-.16-.63c-.1-.13-.23-.2-.38-.2-.13,0-.23.05-.32.14-.08.09-.17.33-.26.71-.09.39-.16.65-.23.79-.1.21-.22.36-.37.46-.15.1-.31.15-.51.15s-.37-.05-.54-.16-.3-.27-.39-.47c-.09-.2-.14-.43-.14-.69,0-.32.05-.6.14-.82.1-.22.24-.39.42-.52.19-.12.41-.19.64-.2h0Z"/>
  <path class="cls-7" d="M87.41,68.05h2.59v.39h-.36c.13.08.23.19.31.32.08.13.12.29.12.46,0,.19-.04.35-.12.47-.08.12-.19.21-.33.26.3.21.45.47.45.8,0,.26-.07.45-.21.59-.14.14-.36.21-.66.21h-1.78v-.44h1.63c.18,0,.3-.01.38-.04.08-.03.14-.08.19-.15.05-.08.07-.16.07-.26,0-.18-.06-.33-.18-.45-.12-.12-.31-.18-.58-.18h-1.51v-.44h1.68c.2,0,.34-.04.44-.11.1-.07.15-.19.15-.35,0-.12-.03-.24-.1-.34s-.16-.18-.29-.23-.31-.07-.54-.07h-1.35v-.44h0Z"/>
  <path class="cls-7" d="M88.7,72.21c.48,0,.83.13,1.07.4.19.22.29.5.29.82,0,.36-.12.65-.35.87-.23.23-.55.34-.97.34-.33,0-.6-.05-.79-.15-.19-.1-.34-.24-.44-.44-.1-.19-.16-.4-.16-.62,0-.36.12-.66.35-.88.23-.22.57-.33,1.01-.33M88.7,72.66c-.33,0-.58.07-.75.22-.16.14-.25.33-.25.55s.08.4.25.54c.17.14.42.22.76.22.32,0,.56-.07.73-.22.17-.14.25-.32.25-.54s-.08-.4-.25-.55c-.16-.14-.41-.22-.74-.22h0Z"/>
  <path class="cls-7" d="M88.7,74.85c.48,0,.83.13,1.07.4.19.22.29.5.29.82,0,.36-.12.65-.35.87-.23.23-.55.34-.97.34-.33,0-.6-.05-.79-.15-.19-.1-.34-.24-.44-.44-.1-.19-.16-.4-.16-.62,0-.36.12-.66.35-.88.23-.22.57-.33,1.01-.33M88.7,75.3c-.33,0-.58.07-.75.22-.16.14-.25.33-.25.55s.08.4.25.54c.17.14.42.22.76.22.32,0,.56-.07.73-.22.17-.14.25-.32.25-.54s-.08-.4-.25-.55c-.16-.14-.41-.22-.74-.22h0Z"/>
  <path class="cls-7" d="M87.8,78.85l-.39.06c-.03-.12-.04-.23-.04-.33,0-.16.02-.28.08-.37s.12-.15.2-.19c.08-.04.26-.05.52-.05h1.49v-.32h.34v.32h.64l.26.44h-.91v.44h-.34v-.44h-1.52c-.12,0-.21,0-.24.02-.04.02-.06.04-.09.08-.02.04-.03.09-.03.15,0,.05,0,.11.02.19h0Z"/>
  <path class="cls-7" d="M87.41,79.09h3.58v.44h-1.28c.24.21.36.46.36.78,0,.19-.04.36-.11.5-.08.14-.18.24-.31.3-.13.06-.33.09-.58.09h-1.64v-.44h1.64c.22,0,.38-.05.48-.14.1-.1.15-.23.15-.4,0-.13-.03-.25-.1-.37-.07-.11-.16-.2-.27-.24-.11-.05-.28-.07-.48-.07h-1.42v-.44h0Z"/>
  <path class="cls-7" d="M87.41,82.97h2.59v.39h-.36c.13.08.23.19.31.32.08.13.12.29.12.46,0,.19-.04.35-.12.47-.08.12-.19.21-.33.26.3.21.45.47.45.8,0,.26-.07.45-.21.59-.14.14-.36.21-.66.21h-1.78v-.44h1.63c.18,0,.3-.01.38-.04.08-.03.14-.08.19-.15.05-.08.07-.16.07-.26,0-.18-.06-.33-.18-.45-.12-.12-.31-.18-.58-.18h-1.51v-.44h1.68c.2,0,.34-.04.44-.11.1-.07.15-.19.15-.35,0-.12-.03-.24-.1-.34-.07-.11-.16-.18-.29-.23-.12-.05-.31-.07-.54-.07h-1.35v-.44h0Z"/>
  <path class="cls-7" d="M87.41,88.75h.38c-.29-.2-.44-.48-.44-.82,0-.15.03-.3.09-.43.06-.13.13-.23.22-.3.09-.06.2-.11.33-.13.09-.02.22-.03.41-.03h1.61v.44h-1.44c-.23,0-.38,0-.46.03-.11.03-.21.09-.27.18s-.1.2-.1.33.03.26.1.37c.07.11.16.2.28.24.12.05.29.07.51.07h1.39v.44h-2.59v-.39h0Z"/>
  <path class="cls-7" d="M88.18,89.76l.07.43c-.17.02-.31.09-.4.2-.09.11-.14.27-.14.47s.04.35.12.45c.08.1.18.15.29.15.1,0,.18-.04.23-.13.04-.06.09-.21.15-.45.08-.32.15-.55.21-.67.06-.12.14-.22.25-.28.1-.06.22-.1.35-.1.11,0,.22.03.32.08.1.05.18.13.25.22.05.07.09.16.13.28.04.12.05.25.05.38,0,.2-.03.38-.09.53s-.14.27-.24.34c-.1.07-.23.12-.4.15l-.06-.43c.13-.02.24-.08.31-.17.08-.09.11-.22.11-.4,0-.2-.03-.35-.1-.43-.07-.09-.14-.13-.23-.13-.06,0-.11.02-.15.05-.05.04-.09.09-.12.17-.02.04-.05.17-.11.39-.08.31-.15.53-.21.65-.05.12-.13.22-.23.29-.1.07-.23.1-.38.1s-.29-.04-.42-.13c-.13-.09-.23-.21-.3-.37-.07-.16-.1-.34-.1-.55,0-.34.07-.59.21-.77.14-.18.35-.29.62-.34h0Z"/>
  <path class="cls-7" d="M88.36,94.03l-.06.43c-.3-.05-.53-.17-.7-.36-.17-.19-.25-.43-.25-.72,0-.35.11-.64.35-.86.23-.21.57-.32,1-.32.28,0,.52.05.73.14.21.09.37.23.47.42.1.19.16.4.16.62,0,.28-.07.51-.21.69-.14.18-.34.29-.61.34l-.07-.43c.17-.04.31-.11.39-.22.09-.1.13-.23.13-.37,0-.22-.08-.4-.24-.54-.16-.14-.41-.21-.75-.21s-.6.07-.76.2c-.16.13-.24.31-.24.52,0,.17.05.32.16.43.1.11.27.19.49.22h0Z"/>
  <polygon class="cls-7" points="87.41 94.96 90.99 94.96 90.99 95.4 87.41 95.4 87.41 94.96 87.41 94.96"/>
  <path class="cls-7" d="M88.24,97.71l-.06.45c-.27-.07-.47-.21-.62-.4-.15-.19-.22-.44-.22-.74,0-.38.12-.68.35-.9.23-.22.56-.33.98-.33s.77.11,1.02.34c.24.22.36.52.36.87s-.12.63-.35.85c-.24.22-.57.33-1,.33-.03,0-.07,0-.12,0v-1.93c-.29.02-.5.1-.65.24-.15.14-.23.32-.23.54,0,.16.04.3.13.41.09.11.22.21.41.27M88.95,96.27v1.45c.22-.02.38-.08.49-.17.17-.14.25-.32.25-.54,0-.2-.07-.37-.2-.51-.13-.14-.31-.21-.54-.23h0Z"/>
  <path class="cls-7" d="M88.36,101.51l-.06.43c-.3-.05-.53-.17-.7-.36-.17-.19-.25-.43-.25-.72,0-.35.11-.64.35-.86.23-.21.57-.32,1-.32.28,0,.52.05.73.14.21.09.37.23.47.42.1.19.16.4.16.62,0,.28-.07.51-.21.69-.14.18-.34.29-.61.34l-.07-.43c.17-.04.31-.11.39-.22.09-.1.13-.23.13-.37,0-.22-.08-.4-.24-.54-.16-.14-.41-.21-.75-.21s-.6.07-.76.2c-.16.13-.24.31-.24.52,0,.17.05.32.16.43.1.11.27.19.49.22h0Z"/>
  <path class="cls-7" d="M88.24,103.99l-.06.45c-.27-.07-.47-.21-.62-.4s-.22-.44-.22-.74c0-.38.12-.68.35-.9.23-.22.56-.33.98-.33s.77.11,1.02.34.36.52.36.87-.12.63-.35.85c-.24.22-.57.33-1,.33-.03,0-.07,0-.12,0v-1.93c-.29.02-.5.1-.65.24-.15.14-.23.32-.23.54,0,.16.04.3.13.41.09.11.22.21.41.27M88.95,102.55v1.45c.22-.02.38-.08.49-.17.17-.14.25-.32.25-.54,0-.2-.07-.37-.2-.51-.13-.14-.31-.21-.54-.23h0Z"/>
  <polygon class="cls-7" points="87.41 105.08 90.99 105.08 90.99 105.52 87.41 105.52 87.41 105.08 87.41 105.08"/>
  <polygon class="cls-7" points="87.41 106.28 90.99 106.28 90.99 106.72 87.41 106.72 87.41 106.28 87.41 106.28"/>
  <path class="cls-7" d="M88.18,107.08l.07.43c-.17.02-.31.09-.4.2-.09.11-.14.27-.14.47s.04.35.12.45c.08.1.18.15.29.15.1,0,.18-.04.23-.13.04-.06.09-.21.15-.45.08-.32.15-.55.21-.67.06-.12.14-.22.25-.28.1-.06.22-.1.35-.1.11,0,.22.03.32.08.1.05.18.13.25.22.05.07.09.16.13.28.04.12.05.25.05.38,0,.2-.03.38-.09.53s-.14.27-.24.34c-.1.07-.23.12-.4.15l-.06-.43c.13-.02.24-.08.31-.17.08-.09.11-.22.11-.4,0-.2-.03-.35-.1-.43-.07-.09-.14-.13-.23-.13-.06,0-.11.02-.15.05-.05.04-.09.09-.12.17-.02.04-.05.17-.11.39-.08.31-.15.53-.21.65-.05.12-.13.22-.23.29-.1.07-.23.1-.38.1s-.29-.04-.42-.13c-.13-.09-.23-.21-.3-.37-.07-.16-.1-.34-.1-.55,0-.34.07-.59.21-.77.14-.18.35-.29.62-.34h0Z"/>
  <line class="cls-3" x1="95.03" y1="57.43" x2="95.03" y2="60.93"/>
  <polygon class="cls-7" points="93.65 64.83 97.23 64.83 97.23 65.3 93.65 65.3 93.65 64.83 93.65 64.83"/>
  <path class="cls-7" d="M93.65,66.19h3.58v1.35c0,.24-.01.42-.03.54-.03.18-.09.32-.17.44-.08.12-.2.21-.34.29-.15.07-.31.11-.49.11-.31,0-.56-.1-.77-.29-.21-.19-.31-.54-.31-1.05v-.92h-1.46v-.47M95.53,66.66v.93c0,.31.06.52.17.65.11.13.27.19.48.19.15,0,.28-.04.38-.11.11-.08.18-.17.21-.3.02-.08.03-.23.03-.44v-.92h-1.28Z"/>
  <path class="cls-7" d="M93.65,71.03v-.44h2.8c-.1-.1-.2-.24-.3-.42-.1-.17-.18-.32-.23-.46h.42c.11.25.26.46.42.64.16.18.32.31.48.39v.28h-3.59Z"/>
  <line class="cls-3" x1="101.37" y1="57.43" x2="101.37" y2="60.93"/>
  <path class="cls-7" d="M100.13,64.73h3.58v.71l-2.53.85c-.24.08-.41.13-.53.17.13.04.32.1.57.19l2.49.86v.64h-3.58v-.46h3l-3-1.04v-.43l3.05-1.04h-3.05v-.46h0Z"/>
  <path class="cls-7" d="M100.45,70.71c-.14-.16-.24-.32-.29-.47-.06-.15-.09-.31-.09-.48,0-.29.07-.5.21-.66s.32-.23.53-.23c.13,0,.24.03.35.09.1.06.19.13.25.23.06.1.11.2.14.32.02.09.04.22.07.39.04.35.09.62.15.78.06,0,.1,0,.11,0,.18,0,.31-.04.38-.12.1-.11.15-.28.15-.5,0-.21-.04-.36-.11-.46-.07-.1-.2-.17-.38-.22l.06-.43c.18.04.33.1.44.19.11.09.2.22.26.39.06.17.09.37.09.59s-.03.4-.08.54-.12.24-.2.31c-.08.07-.18.11-.3.14-.08.01-.21.02-.41.02h-.59c-.41,0-.67,0-.78.03-.11.02-.21.06-.31.11v-.46c.09-.05.2-.08.32-.09M101.43,70.67c-.07-.16-.12-.4-.17-.72-.03-.18-.06-.31-.09-.38-.03-.08-.08-.13-.14-.17-.06-.04-.13-.06-.21-.06-.12,0-.21.04-.29.13-.08.09-.12.22-.12.39s.04.32.11.45c.08.13.18.23.31.29.1.05.25.07.44.07h.16Z"/>
  <path class="cls-7" d="M101.08,73.35l-.06.43c-.3-.05-.53-.17-.7-.36-.17-.19-.25-.43-.25-.72,0-.35.11-.64.35-.86.23-.21.57-.32,1-.32.28,0,.52.05.73.14.21.09.37.23.47.42.1.19.16.4.16.62,0,.28-.07.51-.21.69-.14.18-.34.29-.61.34l-.07-.43c.17-.04.31-.11.39-.22.09-.1.13-.23.13-.37,0-.22-.08-.4-.24-.54-.16-.14-.41-.21-.75-.21s-.6.07-.76.2c-.16.13-.24.31-.24.52,0,.17.05.32.16.43.1.11.27.19.49.22h0Z"/>
  <path class="cls-7" d="M100.13,74.29h2.59v.4h-.39c.18.1.31.19.36.28.06.09.09.18.09.28,0,.15-.05.3-.14.45l-.41-.15c.06-.11.1-.21.1-.32,0-.1-.03-.18-.09-.26-.06-.08-.14-.13-.24-.16-.16-.05-.33-.07-.51-.07h-1.36v-.44h0Z"/>
  <path class="cls-7" d="M101.42,75.81c.48,0,.83.13,1.07.4.19.22.29.5.29.82,0,.36-.12.65-.35.87-.23.23-.55.34-.97.34-.33,0-.6-.05-.79-.15-.19-.1-.34-.24-.44-.44-.1-.19-.16-.4-.16-.62,0-.36.12-.66.35-.88.23-.22.57-.33,1.01-.33M101.42,76.26c-.33,0-.58.07-.75.22-.16.14-.25.33-.25.55s.08.4.25.54c.17.14.42.22.76.22.32,0,.56-.07.73-.22.17-.14.25-.32.25-.54s-.08-.4-.25-.55c-.16-.14-.41-.22-.74-.22h0Z"/>
  <path class="cls-7" d="M99.13,78.61h3.59v.4h-.34c.13.1.23.2.3.32s.1.26.1.43c0,.22-.06.42-.17.59-.11.17-.28.3-.48.38-.21.09-.43.13-.68.13-.27,0-.51-.05-.72-.14s-.37-.23-.49-.42c-.11-.18-.17-.37-.17-.57,0-.15.03-.28.09-.4.06-.11.14-.21.23-.29h-1.26v-.44M101.41,79.01c-.33,0-.58.07-.74.2-.16.13-.24.3-.24.49s.08.36.25.5c.17.14.42.21.77.21s.58-.07.74-.21c.16-.13.25-.3.25-.49s-.09-.35-.26-.5c-.17-.14-.43-.21-.76-.21h0Z"/>
  <path class="cls-7" d="M100.13,81.49h3.58v.44h-1.28c.24.21.36.46.36.78,0,.19-.04.36-.11.5-.08.14-.18.24-.31.3-.13.06-.33.09-.58.09h-1.64v-.44h1.64c.22,0,.38-.05.48-.14.1-.1.15-.23.15-.4,0-.13-.03-.25-.1-.37-.07-.11-.16-.2-.27-.24-.11-.05-.28-.07-.48-.07h-1.42v-.44h0Z"/>
  <path class="cls-7" d="M100.45,85.83c-.14-.16-.24-.32-.29-.47-.06-.15-.09-.31-.09-.48,0-.29.07-.5.21-.66s.32-.23.53-.23c.13,0,.24.03.35.09.1.06.19.13.25.23.06.1.11.2.14.32.02.09.04.22.07.39.04.35.09.62.15.78.06,0,.1,0,.11,0,.18,0,.31-.04.38-.12.1-.11.15-.28.15-.5,0-.21-.04-.36-.11-.46-.07-.1-.2-.17-.38-.22l.06-.43c.18.04.33.1.44.19.11.09.2.22.26.39.06.17.09.37.09.59s-.03.4-.08.54-.12.24-.2.31c-.08.07-.18.11-.3.14-.08.01-.21.02-.41.02h-.59c-.41,0-.67,0-.78.03-.11.02-.21.06-.31.11v-.46c.09-.05.2-.08.32-.09M101.43,85.79c-.07-.16-.12-.4-.17-.72-.03-.18-.06-.31-.09-.38-.03-.08-.08-.13-.14-.17-.06-.04-.13-.06-.21-.06-.12,0-.21.04-.29.13-.08.09-.12.22-.12.39s.04.32.11.45c.08.13.18.23.31.29.1.05.25.07.44.07h.16Z"/>
  <path class="cls-7" d="M99.91,86.93l-.06.43c-.13.02-.23.07-.29.15-.08.11-.12.26-.12.45,0,.2.04.36.12.47s.2.19.34.22c.09.02.28.03.56.03-.23-.19-.34-.43-.34-.72,0-.36.13-.63.39-.83.26-.2.57-.29.93-.29.25,0,.48.04.68.13.21.09.37.22.49.39.11.17.17.37.17.6,0,.31-.12.56-.37.76h.31v.41h-2.24c-.4,0-.69-.04-.86-.12-.17-.08-.3-.21-.4-.39-.1-.18-.15-.4-.15-.66,0-.31.07-.56.21-.75s.35-.28.63-.28M101.47,87.3c-.34,0-.59.07-.74.2-.16.13-.23.31-.23.51s.08.37.23.51c.16.14.4.21.73.21s.56-.07.72-.21c.16-.14.24-.31.24-.51s-.08-.36-.24-.5c-.16-.14-.39-.21-.71-.21h0Z"/>
  <path class="cls-7" d="M100.96,91.67l-.06.45c-.27-.07-.47-.21-.62-.4s-.22-.44-.22-.74c0-.38.12-.68.35-.9.23-.22.56-.33.98-.33s.77.11,1.02.34.36.52.36.87-.12.63-.35.85c-.24.22-.57.33-1,.33-.03,0-.07,0-.12,0v-1.93c-.29.02-.5.1-.65.24-.15.14-.23.32-.23.54,0,.16.04.3.13.41.09.11.22.21.41.27M101.67,90.23v1.45c.22-.02.38-.08.49-.17.17-.14.25-.32.25-.54,0-.2-.07-.37-.2-.51-.13-.14-.31-.21-.54-.23h0Z"/>
  <path class="cls-7" d="M100.9,92.36l.07.43c-.17.02-.31.09-.4.2-.09.11-.14.27-.14.47s.04.35.12.45c.08.1.18.15.29.15.1,0,.18-.04.23-.13.04-.06.09-.21.15-.45.08-.32.15-.55.21-.67.06-.12.14-.22.25-.28.1-.06.22-.1.35-.1.11,0,.22.03.32.08.1.05.18.13.25.22.05.07.09.16.13.28.04.12.05.25.05.38,0,.2-.03.38-.09.53s-.14.27-.24.34c-.1.07-.23.12-.4.15l-.06-.43c.13-.02.24-.08.31-.17.08-.09.11-.22.11-.4,0-.2-.03-.35-.1-.43-.07-.09-.14-.13-.23-.13-.06,0-.11.02-.15.05-.05.04-.09.09-.12.17-.02.04-.05.17-.11.39-.08.31-.15.53-.21.65-.05.12-.13.22-.23.29-.1.07-.23.1-.38.1s-.29-.04-.42-.13c-.13-.09-.23-.21-.3-.37-.07-.16-.1-.34-.1-.55,0-.34.07-.59.21-.77.14-.18.35-.29.62-.34h0Z"/>
  <line class="cls-3" x1="107.71" y1="57.43" x2="107.71" y2="60.93"/>
  <polygon class="cls-7" points="106.37 65.66 109.52 65.66 109.52 64.48 109.95 64.48 109.95 67.32 109.52 67.32 109.52 66.13 106.37 66.13 106.37 65.66 106.37 65.66"/>
  <path class="cls-7" d="M107.32,70.03l-.06.43c-.3-.05-.53-.17-.7-.36-.17-.19-.25-.43-.25-.72,0-.35.11-.64.35-.86.23-.21.57-.32,1-.32.28,0,.52.05.73.14.21.09.37.23.47.42.1.19.16.4.16.62,0,.28-.07.51-.21.69-.14.18-.34.29-.61.34l-.07-.43c.17-.04.31-.11.39-.22.09-.1.13-.23.13-.37,0-.22-.08-.4-.24-.54-.16-.14-.41-.21-.75-.21s-.6.07-.76.2c-.16.13-.24.31-.24.52,0,.17.05.32.16.43.1.11.27.19.49.22h0Z"/>
  <path class="cls-7" d="M107.2,72.51l-.06.45c-.27-.07-.47-.21-.62-.4s-.22-.44-.22-.74c0-.38.12-.68.35-.9.23-.22.56-.33.98-.33s.77.11,1.02.34.36.52.36.87-.12.63-.35.85c-.24.22-.57.33-1,.33-.03,0-.07,0-.12,0v-1.93c-.29.02-.5.1-.65.24-.15.14-.23.32-.23.54,0,.16.04.3.13.41.09.11.22.21.41.27M107.91,71.07v1.45c.22-.02.38-.08.49-.17.17-.14.25-.32.25-.54,0-.2-.07-.37-.2-.51-.13-.14-.31-.21-.54-.23h0Z"/>
  <polygon class="cls-7" points="106.37 73.6 109.95 73.6 109.95 74.04 106.37 74.04 106.37 73.6 106.37 73.6"/>
  <polygon class="cls-7" points="106.37 74.8 109.95 74.8 109.95 75.24 106.37 75.24 106.37 74.8 106.37 74.8"/>
  <path class="cls-7" d="M107.14,75.6l.07.43c-.17.02-.31.09-.4.2-.09.11-.14.27-.14.47s.04.35.12.45c.08.1.18.15.29.15.1,0,.18-.04.23-.13.04-.06.09-.21.15-.45.08-.32.15-.55.21-.67.06-.12.14-.22.25-.28.1-.06.22-.1.35-.1.11,0,.22.03.32.08.1.05.18.13.25.22.05.07.09.16.13.28.04.12.05.25.05.38,0,.2-.03.38-.09.53s-.14.27-.24.34c-.1.07-.23.12-.4.15l-.06-.43c.13-.02.24-.08.31-.17.08-.09.11-.22.11-.4,0-.2-.03-.35-.1-.43s-.14-.13-.23-.13c-.06,0-.11.02-.15.05-.05.04-.09.09-.12.17-.02.04-.05.17-.11.39-.08.31-.15.53-.21.65-.05.12-.13.22-.23.29-.1.07-.23.1-.38.1s-.29-.04-.42-.13c-.13-.09-.23-.21-.3-.37-.07-.16-.1-.34-.1-.55,0-.34.07-.59.21-.77.14-.18.35-.29.62-.34h0Z"/>
  <path class="cls-7" d="M61.42,114.46l.57.14c-.12.47-.33.82-.64,1.07-.31.24-.69.37-1.13.37s-.84-.09-1.13-.28c-.29-.19-.51-.46-.66-.82-.15-.36-.23-.74-.23-1.15,0-.45.08-.84.25-1.17.17-.33.42-.59.73-.76.32-.17.67-.26,1.04-.26.43,0,.79.11,1.08.33s.5.53.61.92l-.56.13c-.1-.31-.24-.54-.43-.68s-.43-.21-.71-.21c-.33,0-.61.08-.83.24-.22.16-.38.37-.47.64s-.13.54-.13.82c0,.37.05.69.16.96.11.27.27.47.5.61s.47.2.73.2c.32,0,.59-.09.81-.28s.37-.46.45-.82h0Z"/>
  <path class="cls-7" d="M64.73,114.96l.54.07c-.08.32-.25.57-.48.74s-.53.26-.89.26c-.45,0-.82-.14-1.08-.42-.27-.28-.4-.67-.4-1.18s.13-.93.4-1.22.62-.43,1.05-.43.76.14,1.02.42.4.68.4,1.2c0,.03,0,.08,0,.14h-2.32c.02.34.12.6.29.79s.39.27.65.27c.19,0,.36-.05.5-.15s.25-.26.33-.49M63,114.11h1.74c-.02-.26-.09-.46-.2-.59-.17-.2-.39-.3-.65-.3-.24,0-.45.08-.61.24-.16.16-.25.38-.27.65h0Z"/>
  <polygon class="cls-7" points="65.95 115.96 65.95 111.67 66.48 111.67 66.48 115.96 65.95 115.96 65.95 115.96"/>
  <polygon class="cls-7" points="67.39 115.96 67.39 111.67 67.92 111.67 67.92 115.96 67.39 115.96 67.39 115.96"/>
  <path class="cls-7" d="M71.44,115.49l.08.47c-.15.03-.28.05-.4.05-.19,0-.34-.03-.45-.09s-.18-.14-.22-.24c-.04-.1-.06-.31-.06-.62v-1.79h-.39v-.41h.39v-.77l.52-.32v1.09h.53v.41h-.53v1.82c0,.15,0,.25.03.29.02.04.05.08.09.1.04.03.1.04.18.04.06,0,.13,0,.23-.02h0Z"/>
  <path class="cls-7" d="M71.94,117.16l-.06-.5c.11.03.22.05.3.05.12,0,.21-.02.28-.06s.13-.09.17-.16c.03-.05.09-.18.16-.39,0-.03.03-.07.05-.13l-1.18-3.12h.57l.65,1.8c.08.23.16.47.23.72.06-.24.13-.48.22-.71l.67-1.81h.53l-1.18,3.16c-.13.34-.23.58-.3.71-.09.17-.2.3-.32.38-.12.08-.27.12-.43.12-.1,0-.21-.02-.34-.06h0Z"/>
  <path class="cls-7" d="M75.08,117.16v-4.3h.48v.4c.11-.16.24-.28.38-.35s.32-.12.52-.12c.27,0,.5.07.7.21s.36.33.46.58.16.52.16.82c0,.32-.06.61-.17.86s-.28.45-.5.59c-.22.13-.45.2-.69.2-.18,0-.33-.04-.47-.11-.14-.07-.25-.17-.34-.28v1.51h-.53M75.56,114.43c0,.4.08.7.24.89s.36.29.59.29.43-.1.6-.3c.17-.2.25-.51.25-.92s-.08-.69-.25-.89c-.16-.2-.36-.3-.58-.3s-.42.11-.6.32c-.17.21-.26.51-.26.91h0Z"/>
  <path class="cls-7" d="M80.57,114.96l.54.07c-.08.32-.25.57-.48.74s-.53.26-.89.26c-.45,0-.82-.14-1.08-.42-.27-.28-.4-.67-.4-1.18s.13-.93.4-1.22.62-.43,1.05-.43.76.14,1.02.42.4.68.4,1.2c0,.03,0,.08,0,.14h-2.32c.02.34.12.6.29.79s.39.27.65.27c.19,0,.36-.05.5-.15s.25-.26.33-.49M78.84,114.11h1.74c-.02-.26-.09-.46-.2-.59-.17-.2-.39-.3-.65-.3-.24,0-.45.08-.61.24-.16.16-.25.38-.27.65h0Z"/>
  <line class="cls-3" x1="27.81" y1="42.11" x2="24.31" y2="42.11"/>
  <path class="cls-7" d="M11.51,43.96h-.44v-2.8c-.1.1-.24.2-.42.3-.17.1-.32.18-.46.23v-.42c.25-.11.46-.26.64-.42.18-.16.31-.32.39-.48h.28v3.59h0Z"/>
  <path class="cls-7" d="M12.74,42.2c0-.42.04-.76.13-1.02.09-.26.22-.46.39-.6.17-.14.39-.21.65-.21.19,0,.36.04.51.12.14.08.26.19.36.33.1.14.17.32.22.53.05.21.08.49.08.84,0,.42-.04.76-.13,1.02-.09.26-.21.46-.39.6-.17.14-.39.21-.65.21-.34,0-.62-.12-.81-.37-.24-.3-.35-.78-.35-1.46M13.19,42.2c0,.59.07.98.21,1.17.14.19.31.29.51.29s.37-.1.51-.29c.14-.2.21-.59.21-1.17s-.07-.98-.21-1.17c-.14-.19-.31-.29-.51-.29s-.36.09-.48.26c-.15.22-.23.62-.23,1.21h0Z"/>
  <path class="cls-7" d="M15.38,43.03l.46-.04c.03.22.11.39.24.51.12.11.28.17.45.17.21,0,.39-.08.54-.24.15-.16.22-.37.22-.63s-.07-.45-.21-.59c-.14-.14-.32-.22-.55-.22-.14,0-.27.03-.38.1-.11.06-.2.15-.27.25l-.41-.05.35-1.84h1.78v.42h-1.43l-.19.96c.21-.15.44-.22.68-.22.31,0,.58.11.79.32.21.22.32.5.32.83s-.1.6-.28.84c-.23.29-.54.43-.94.43-.32,0-.59-.09-.8-.27-.21-.18-.32-.42-.35-.73h0Z"/>
  <path class="cls-7" d="M18.26,42.2c0-.42.04-.76.13-1.02.09-.26.22-.46.39-.6.17-.14.39-.21.65-.21.19,0,.36.04.51.12.14.08.26.19.36.33.1.14.17.32.22.53.05.21.08.49.08.84,0,.42-.04.76-.13,1.02-.09.26-.21.46-.39.6-.17.14-.39.21-.65.21-.34,0-.62-.12-.81-.37-.24-.3-.35-.78-.35-1.46M18.71,42.2c0,.59.07.98.21,1.17.14.19.31.29.51.29s.37-.1.51-.29c.14-.2.21-.59.21-1.17s-.07-.98-.21-1.17c-.14-.19-.31-.29-.51-.29s-.36.09-.48.26c-.15.22-.23.62-.23,1.21h0Z"/>
  <line class="cls-3" x1="27.81" y1="22.11" x2="24.31" y2="22.11"/>
  <path class="cls-7" d="M11.99,23.8h-.44v-2.8c-.1.1-.24.2-.42.3-.17.1-.32.18-.46.23v-.42c.25-.11.46-.26.64-.42.18-.16.31-.32.39-.48h.28v3.59h0Z"/>
  <path class="cls-7" d="M14.39,23.8h-.44v-2.8c-.1.1-.24.2-.42.3-.17.1-.32.18-.46.23v-.42c.25-.11.46-.26.64-.42.18-.16.31-.32.39-.48h.28v3.59h0Z"/>
  <path class="cls-7" d="M15.38,22.04c0-.42.04-.76.13-1.02.09-.26.22-.46.39-.6.17-.14.39-.21.65-.21.19,0,.36.04.51.12.14.08.26.19.36.33.1.14.17.32.22.53.05.21.08.49.08.84,0,.42-.04.76-.13,1.02-.09.26-.21.46-.39.6-.17.14-.39.21-.65.21-.34,0-.62-.12-.81-.37-.24-.3-.35-.78-.35-1.46M15.83,22.04c0,.59.07.98.21,1.17.14.19.31.29.51.29s.37-.1.51-.29c.14-.2.21-.59.21-1.17s-.07-.98-.21-1.17c-.14-.19-.31-.29-.51-.29s-.36.09-.48.26c-.15.22-.23.62-.23,1.21h0Z"/>
  <path class="cls-7" d="M18.26,22.04c0-.42.04-.76.13-1.02.09-.26.22-.46.39-.6.17-.14.39-.21.65-.21.19,0,.36.04.51.12.14.08.26.19.36.33.1.14.17.32.22.53.05.21.08.49.08.84,0,.42-.04.76-.13,1.02-.09.26-.21.46-.39.6-.17.14-.39.21-.65.21-.34,0-.62-.12-.81-.37-.24-.3-.35-.78-.35-1.46M18.71,22.04c0,.59.07.98.21,1.17.14.19.31.29.51.29s.37-.1.51-.29c.14-.2.21-.59.21-1.17s-.07-.98-.21-1.17c-.14-.19-.31-.29-.51-.29s-.36.09-.48.26c-.15.22-.23.62-.23,1.21h0Z"/>
  <line class="cls-3" x1="27.81" y1="2.11" x2="24.31" y2="2.11"/>
  <path class="cls-7" d="M11.99,3.88h-.44V1.08c-.1.1-.24.2-.42.3-.17.1-.32.18-.46.23v-.42c.25-.11.46-.26.64-.42.18-.16.31-.32.39-.48h.28v3.59h0Z"/>
  <path class="cls-7" d="M14.39,3.88h-.44V1.08c-.1.1-.24.2-.42.3-.17.1-.32.18-.46.23v-.42c.25-.11.46-.26.64-.42.18-.16.31-.32.39-.48h.28v3.59h0Z"/>
  <path class="cls-7" d="M15.38,2.95l.46-.04c.03.22.11.39.24.51.12.11.28.17.45.17.21,0,.39-.08.54-.24.15-.16.22-.37.22-.63s-.07-.45-.21-.59c-.14-.14-.32-.22-.55-.22-.14,0-.27.03-.38.1-.11.06-.2.15-.27.25l-.41-.05.35-1.84h1.78v.42h-1.43l-.19.96c.21-.15.44-.22.68-.22.31,0,.58.11.79.32.21.22.32.5.32.83s-.1.6-.28.84c-.23.29-.54.43-.94.43-.32,0-.59-.09-.8-.27-.21-.18-.32-.42-.35-.73h0Z"/>
  <path class="cls-7" d="M18.26,2.12c0-.42.04-.76.13-1.02.09-.26.22-.46.39-.6.17-.14.39-.21.65-.21.19,0,.36.04.51.12.14.08.26.19.36.33.1.14.17.32.22.53.05.21.08.49.08.84,0,.42-.04.76-.13,1.02-.09.26-.21.46-.39.6-.17.14-.39.21-.65.21-.34,0-.62-.12-.81-.37-.24-.3-.35-.78-.35-1.46M18.71,2.12c0,.59.07.98.21,1.17.14.19.31.29.51.29s.37-.1.51-.29c.14-.2.21-.59.21-1.17s-.07-.98-.21-1.17c-.14-.19-.31-.29-.51-.29s-.36.09-.48.26c-.15.22-.23.62-.23,1.21h0Z"/>
  <path class="cls-7" d="M4.44,59.74l-1.25-.25v.5h-.44v-.58l-1.06-.22v.8h-.44v-.89l-1.26-.25v-.44l1.26.25v-.92l-1.26-.25v-.44l1.26.25v-.51h.44v.59l1.06.22v-.81h.44v.9l1.25.25v.44l-1.25-.25v.92l1.25.25v.44M2.76,58.96v-.92l-1.06-.22v.92l1.06.22h0Z"/>
  <path class="cls-7" d="M4.37,54.53H.07v-1.9c0-.38.04-.67.12-.87.08-.2.21-.36.41-.48s.41-.18.65-.18c.3,0,.56.1.77.3s.34.5.4.91c.07-.15.14-.26.21-.34.15-.17.34-.32.57-.47l1.17-.75v.71l-.89.57c-.26.17-.45.3-.59.41s-.23.21-.29.29-.09.17-.11.26c-.01.06-.02.17-.02.32v.66h1.91v.57M1.97,53.96v-1.22c0-.26-.03-.46-.08-.61-.06-.15-.14-.26-.26-.33-.12-.08-.25-.11-.39-.11-.2,0-.37.07-.5.22-.13.15-.2.38-.2.7v1.36h1.42Z"/>
  <path class="cls-7" d="M3.37,48.16l.07-.54c.32.08.57.25.74.48s.26.53.26.89c0,.45-.14.82-.42,1.08-.28.27-.67.4-1.18.4s-.93-.13-1.22-.4-.43-.62-.43-1.05.14-.76.42-1.02.68-.4,1.2-.4c.03,0,.08,0,.14,0v2.32c.34-.02.6-.12.79-.29s.27-.39.27-.65c0-.19-.05-.36-.15-.5s-.26-.25-.49-.33M2.51,49.89v-1.74c-.26.02-.46.09-.59.2-.2.17-.3.39-.3.65,0,.24.08.45.24.61.16.16.38.25.65.27h0Z"/>
  <path class="cls-7" d="M4.63,47.03l.08-.51c.16-.02.27-.08.35-.18.1-.13.15-.31.15-.54,0-.24-.05-.43-.15-.57s-.23-.22-.41-.27c-.11-.03-.33-.04-.68-.04.27.23.41.52.41.86,0,.43-.16.76-.46.99s-.68.35-1.11.35c-.3,0-.57-.05-.82-.16-.25-.11-.45-.26-.58-.47-.14-.21-.21-.45-.21-.72,0-.37.15-.67.45-.91h-.38v-.49h2.69c.48,0,.83.05,1.03.15.2.1.36.25.48.47s.18.47.18.79c0,.37-.08.67-.25.9s-.42.34-.75.33M2.76,46.59c.41,0,.71-.08.89-.24s.28-.37.28-.61-.09-.45-.28-.61c-.19-.16-.48-.25-.88-.25s-.67.08-.86.25c-.19.17-.29.37-.29.61s.1.43.29.6.47.25.85.25h0Z"/>
  <path class="cls-7" d="M4.37,41.53h-.46c.35.24.53.57.53.99,0,.18-.04.35-.11.52-.07.16-.16.28-.26.35-.11.08-.24.13-.39.16-.1.02-.27.03-.49.03h-1.93v-.53h1.73c.28,0,.46-.01.56-.03.14-.03.25-.1.33-.21s.12-.24.12-.4-.04-.31-.12-.45c-.08-.14-.19-.24-.33-.29-.14-.06-.34-.09-.61-.09h-1.67v-.53h3.11v.47h0Z"/>
  <polygon class="cls-7" points="4.37 40.22 .07 40.22 .07 39.69 4.37 39.69 4.37 40.22 4.37 40.22"/>
  <path class="cls-7" d="M3.98,36.74c.17.2.28.38.35.57.07.18.1.37.1.58,0,.34-.08.6-.25.79s-.38.28-.64.28c-.15,0-.29-.04-.42-.1-.13-.07-.23-.16-.3-.27-.08-.11-.13-.24-.17-.38-.03-.1-.05-.26-.08-.47-.05-.42-.11-.74-.18-.94-.07,0-.12,0-.14,0-.21,0-.37.05-.45.15-.12.13-.18.33-.18.6,0,.25.04.43.13.55.08.12.24.21.46.26l-.07.52c-.22-.05-.4-.12-.53-.23-.14-.11-.24-.26-.31-.47s-.11-.44-.11-.71.03-.48.09-.65.14-.29.24-.37c.09-.08.21-.13.36-.16.09-.02.25-.03.49-.03h.7c.49,0,.8-.01.93-.03.13-.02.25-.07.37-.13v.55c-.11.06-.24.09-.38.11M2.81,36.78c.08.19.14.48.2.86.03.22.07.37.11.46s.1.16.17.21c.07.05.16.07.25.07.14,0,.26-.05.35-.16.09-.11.14-.26.14-.47s-.04-.38-.13-.54c-.09-.16-.21-.28-.37-.35-.12-.06-.3-.08-.53-.08h-.19Z"/>
  <path class="cls-7" d="M3.9,34.26l.47-.08c.03.15.05.28.05.4,0,.19-.03.34-.09.45s-.14.18-.24.22c-.1.04-.31.06-.62.06h-1.79v.39h-.41v-.39H.49l-.32-.52h1.09v-.53h.41v.53h1.82c.15,0,.25,0,.29-.03.04-.02.08-.05.1-.09.03-.04.04-.1.04-.18,0-.06,0-.13-.02-.23h0Z"/>
  <path class="cls-7" d="M2.81,34.16c-.58,0-1-.16-1.28-.48-.23-.27-.35-.59-.35-.98,0-.43.14-.78.42-1.05.28-.27.67-.41,1.16-.41.4,0,.71.06.95.18.23.12.41.29.53.52.13.23.19.48.19.75,0,.44-.14.79-.42,1.06-.28.27-.68.4-1.21.4M2.81,33.62c.4,0,.7-.09.9-.26.2-.17.3-.39.3-.66s-.1-.48-.3-.65-.5-.26-.91-.26c-.38,0-.68.09-.87.26-.2.17-.3.39-.3.65s.1.48.3.66.5.26.89.26h0Z"/>
  <path class="cls-7" d="M4.37,30.61H1.26v-.47h.47c-.22-.12-.37-.23-.44-.33s-.11-.22-.11-.34c0-.18.06-.36.17-.54l.49.18c-.08.13-.11.26-.11.39,0,.11.04.22.11.31.07.09.16.16.29.2.19.06.39.09.62.09h1.63v.53h0Z"/>
  <path class="cls-7" d="M5.57,28.47l-.5.06c.03-.11.05-.22.05-.3,0-.12-.02-.21-.06-.28s-.09-.13-.16-.17c-.05-.03-.18-.09-.39-.16-.03,0-.07-.03-.13-.05l-3.12,1.18v-.57l1.8-.65c.23-.08.47-.16.72-.23-.24-.06-.48-.13-.71-.22l-1.81-.67v-.53l3.16,1.18c.34.13.58.23.71.3.17.09.3.2.38.32.08.12.12.27.12.43,0,.1-.02.21-.06.34h0Z"/>
  <path class="cls-7" d="M.68,23.89H.07v-.53h.61v.53M4.37,23.89H1.26v-.53h3.11v.53h0Z"/>
  <path class="cls-7" d="M4.37,22.45H1.26v-.47h.44c-.34-.23-.51-.56-.51-.99,0-.19.04-.36.1-.52.07-.16.16-.28.26-.35s.24-.13.39-.16c.1-.02.27-.03.51-.03h1.91v.53h-1.89c-.21,0-.38.02-.48.06-.11.04-.19.11-.25.22-.06.1-.1.23-.1.37,0,.23.07.42.21.58.14.16.41.24.81.24h1.7v.53h0Z"/>
  <path class="cls-7" d="M3.9,17.94l.47-.08c.03.15.05.28.05.4,0,.19-.03.34-.09.45s-.14.18-.24.22c-.1.04-.31.06-.62.06h-1.79v.39h-.41v-.39H.49l-.32-.52h1.09v-.53h.41v.53h1.82c.15,0,.25,0,.29-.03.04-.02.08-.05.1-.09.03-.04.04-.1.04-.18,0-.06,0-.13-.02-.23h0Z"/>
  <path class="cls-7" d="M3.37,15.28l.07-.54c.32.08.57.25.74.48s.26.53.26.89c0,.45-.14.82-.42,1.08-.28.27-.67.4-1.18.4s-.93-.13-1.22-.4-.43-.62-.43-1.05.14-.76.42-1.02.68-.4,1.2-.4c.03,0,.08,0,.14,0v2.32c.34-.02.6-.12.79-.29s.27-.39.27-.65c0-.19-.05-.36-.15-.5s-.26-.25-.49-.33M2.51,17.01v-1.74c-.26.02-.46.09-.59.2-.2.17-.3.39-.3.65,0,.24.08.45.24.61.16.16.38.25.65.27h0Z"/>
  <path class="cls-7" d="M4.37,14.29H1.26v-.47h.47c-.22-.12-.37-.23-.44-.33s-.11-.22-.11-.34c0-.18.06-.36.17-.54l.49.18c-.08.13-.11.26-.11.39,0,.11.04.22.11.31.07.09.16.16.29.2.19.06.39.09.62.09h1.63v.53h0Z"/>
  <path class="cls-7" d="M3.98,10.1c.17.2.28.38.35.57.07.18.1.37.1.58,0,.34-.08.6-.25.79s-.38.28-.64.28c-.15,0-.29-.04-.42-.1-.13-.07-.23-.16-.3-.27-.08-.11-.13-.24-.17-.38-.03-.1-.05-.26-.08-.47-.05-.42-.11-.74-.18-.94-.07,0-.12,0-.14,0-.21,0-.37.05-.45.15-.12.13-.18.33-.18.6,0,.25.04.43.13.55.08.12.24.21.46.26l-.07.52c-.22-.05-.4-.12-.53-.23-.14-.11-.24-.26-.31-.47s-.11-.44-.11-.71.03-.48.09-.65.14-.29.24-.37c.09-.08.21-.13.36-.16.09-.02.25-.03.49-.03h.7c.49,0,.8-.01.93-.03.13-.02.25-.07.37-.13v.55c-.11.06-.24.09-.38.11M2.81,10.14c.08.19.14.48.2.86.03.22.07.37.11.46s.1.16.17.21c.07.05.16.07.25.07.14,0,.26-.05.35-.16.09-.11.14-.26.14-.47s-.04-.38-.13-.54c-.09-.16-.21-.28-.37-.35-.12-.06-.3-.08-.53-.08h-.19Z"/>
  <path class="cls-7" d="M3.9,7.62l.47-.08c.03.15.05.28.05.4,0,.19-.03.34-.09.45s-.14.18-.24.22c-.1.04-.31.06-.62.06h-1.79v.39h-.41v-.39H.49l-.32-.52h1.09v-.53h.41v.53h1.82c.15,0,.25,0,.29-.03.04-.02.08-.05.1-.09.03-.04.04-.1.04-.18,0-.06,0-.13-.02-.23h0Z"/>
  <path class="cls-7" d="M.68,7.09H.07v-.53h.61v.53M4.37,7.09H1.26v-.53h3.11v.53h0Z"/>
  <path class="cls-7" d="M2.81,6.08c-.58,0-1-.16-1.28-.48-.23-.27-.35-.59-.35-.98,0-.43.14-.78.42-1.05.28-.27.67-.41,1.16-.41.4,0,.71.06.95.18.23.12.41.29.53.52.13.23.19.48.19.75,0,.44-.14.79-.42,1.06-.28.27-.68.4-1.21.4M2.81,5.54c.4,0,.7-.09.9-.26.2-.17.3-.39.3-.66s-.1-.48-.3-.65-.5-.26-.91-.26c-.38,0-.68.09-.87.26-.2.17-.3.39-.3.65s.1.48.3.66.5.26.89.26h0Z"/>
  <path class="cls-7" d="M4.37,2.53H1.26v-.47h.44c-.34-.23-.51-.56-.51-.99,0-.19.04-.36.1-.52.07-.16.16-.28.26-.35s.24-.13.39-.16c.1-.02.27-.03.51-.03h1.91v.53h-1.89c-.21,0-.38.02-.48.06-.11.04-.19.11-.25.22-.06.1-.1.23-.1.37,0,.23.07.42.21.58.14.16.41.24.81.24h1.7v.53h0Z"/>
  <polyline class="cls-1" points="31.62 25.71 37.96 42.91 44.3 4.51 50.64 52.91 56.98 31.71 63.32 51.71 69.66 26.51 76 54.91 82.35 21.31 88.69 50.91 95.03 26.91 101.37 41.71 107.71 44.91"/>
  <path class="cls-2" d="M31.62,27.21c.4,0,.78-.16,1.06-.44.28-.28.44-.66.44-1.06s-.16-.78-.44-1.06c-.28-.28-.66-.44-1.06-.44s-.78.16-1.06.44c-.28.28-.44.66-.44,1.06s.16.78.44,1.06c.28.28.66.44,1.06.44h0ZM37.96,44.41c.4,0,.78-.16,1.06-.44.28-.28.44-.66.44-1.06s-.16-.78-.44-1.06c-.28-.28-.66-.44-1.06-.44s-.78.16-1.06.44c-.28.28-.44.66-.44,1.06s.16.78.44,1.06c.28.28.66.44,1.06.44h0ZM44.3,6.01c.4,0,.78-.16,1.06-.44.28-.28.44-.66.44-1.06s-.16-.78-.44-1.06c-.28-.28-.66-.44-1.06-.44s-.78.16-1.06.44c-.28.28-.44.66-.44,1.06s.16.78.44,1.06c.28.28.66.44,1.06.44h0ZM50.64,54.41c.4,0,.78-.16,1.06-.44.28-.28.44-.66.44-1.06s-.16-.78-.44-1.06c-.28-.28-.66-.44-1.06-.44s-.78.16-1.06.44c-.28.28-.44.66-.44,1.06s.16.78.44,1.06c.28.28.66.44,1.06.44h0ZM56.98,33.21c.4,0,.78-.16,1.06-.44.28-.28.44-.66.44-1.06s-.16-.78-.44-1.06c-.28-.28-.66-.44-1.06-.44s-.78.16-1.06.44c-.28.28-.44.66-.44,1.06s.16.78.44,1.06c.28.28.66.44,1.06.44h0ZM63.32,53.21c.4,0,.78-.16,1.06-.44.28-.28.44-.66.44-1.06s-.16-.78-.44-1.06c-.28-.28-.66-.44-1.06-.44s-.78.16-1.06.44c-.28.28-.44.66-.44,1.06s.16.78.44,1.06c.28.28.66.44,1.06.44h0ZM69.66,28.01c.4,0,.78-.16,1.06-.44.28-.28.44-.66.44-1.06s-.16-.78-.44-1.06c-.28-.28-.66-.44-1.06-.44s-.78.16-1.06.44c-.28.28-.44.66-.44,1.06s.16.78.44,1.06c.28.28.66.44,1.06.44h0ZM76,56.41c.4,0,.78-.16,1.06-.44.28-.28.44-.66.44-1.06s-.16-.78-.44-1.06c-.28-.28-.66-.44-1.06-.44s-.78.16-1.06.44c-.28.28-.44.66-.44,1.06s.16.78.44,1.06c.28.28.66.44,1.06.44h0ZM82.35,22.81c.4,0,.78-.16,1.06-.44.28-.28.44-.66.44-1.06s-.16-.78-.44-1.06c-.28-.28-.66-.44-1.06-.44s-.78.16-1.06.44c-.28.28-.44.66-.44,1.06s.16.78.44,1.06c.28.28.66.44,1.06.44h0ZM88.69,52.41c.4,0,.78-.16,1.06-.44.28-.28.44-.66.44-1.06s-.16-.78-.44-1.06c-.28-.28-.66-.44-1.06-.44s-.78.16-1.06.44c-.28.28-.44.66-.44,1.06s.16.78.44,1.06c.28.28.66.44,1.06.44h0ZM95.03,28.41c.4,0,.78-.16,1.06-.44.28-.28.44-.66.44-1.06s-.16-.78-.44-1.06c-.28-.28-.66-.44-1.06-.44s-.78.16-1.06.44c-.28.28-.44.66-.44,1.06s.16.78.44,1.06c.28.28.66.44,1.06.44h0ZM101.37,43.21c.4,0,.78-.16,1.06-.44.28-.28.44-.66.44-1.06s-.16-.78-.44-1.06c-.28-.28-.66-.44-1.06-.44s-.78.16-1.06.44c-.28.28-.44.66-.44,1.06s.16.78.44,1.06c.28.28.66.44,1.06.44h0ZM107.71,46.41c.4,0,.78-.16,1.06-.44.28-.28.44-.66.44-1.06s-.16-.78-.44-1.06c-.28-.28-.66-.44-1.06-.44s-.78.16-1.06.44c-.28.28-.44.66-.44,1.06s.16.78.44,1.06c.28.28.66.44,1.06.44h0Z"/>
  <rect class="cls-4" x="27.81" y="1.99" width="83.7" height="55.44"/>
  <path class="cls-5" d="M27.81,57.43V1.99M111.51,57.43V1.99M27.81,57.43h83.7M27.81,1.99h83.7"/>
</svg>