<?xml version="1.0" encoding="UTF-8"?>
<svg id="_图层_1" data-name="图层 1" xmlns="http://www.w3.org/2000/svg" xmlns:xlink="http://www.w3.org/1999/xlink" viewBox="0 0 109.13 115.64">
  <defs>
    <style>
      .cls-1 {
        stroke-width: .5px;
      }

      .cls-1, .cls-2, .cls-3, .cls-4 {
        fill: none;
      }

      .cls-1, .cls-5, .cls-4 {
        stroke-linejoin: round;
      }

      .cls-1, .cls-3 {
        stroke-linecap: square;
      }

      .cls-1, .cls-4 {
        stroke: #2ea7e0;
      }

      .cls-2, .cls-6, .cls-7 {
        stroke-width: 0px;
      }

      .cls-5, .cls-6 {
        fill: #000;
      }

      .cls-5, .cls-3 {
        stroke: #000;
        stroke-width: .8px;
      }

      .cls-6 {
        fill-rule: evenodd;
      }

      .cls-8 {
        clip-path: url(#clippath);
      }

      .cls-3 {
        stroke-miterlimit: 10;
      }

      .cls-7 {
        fill: #fff;
      }
    </style>
    <clipPath id="clippath">
      <rect class="cls-2" x="25.03" y=".4" width="83.7" height="55.44"/>
    </clipPath>
  </defs>
  <rect class="cls-7" x="25.03" y=".4" width="83.7" height="55.44"/>
  <line class="cls-5" x1="28.84" y1="55.84" x2="28.84" y2="59.34"/>
  <polygon class="cls-6" points="27.65 63.24 31.23 63.24 31.23 63.71 27.65 63.71 27.65 63.24 27.65 63.24"/>
  <path class="cls-6" d="M27.65,64.6h3.58v1.35c0,.24-.01.42-.03.54-.03.18-.09.32-.17.44-.08.12-.2.21-.34.29-.15.07-.31.11-.49.11-.31,0-.56-.1-.77-.29-.21-.19-.31-.54-.31-1.05v-.92h-1.46v-.47M29.53,65.07v.93c0,.31.06.52.17.65.11.13.27.19.48.19.15,0,.28-.04.38-.11.11-.08.18-.17.21-.3.02-.08.03-.23.03-.44v-.92h-1.28Z"/>
  <path class="cls-6" d="M30.35,70.06l-.03-.44c.17-.04.3-.1.38-.17.12-.12.19-.27.19-.44,0-.14-.04-.26-.12-.37-.1-.14-.25-.25-.44-.33s-.47-.12-.83-.12c.16.1.28.23.36.39s.12.31.12.48c0,.29-.11.54-.32.75-.21.21-.49.31-.83.31-.22,0-.43-.05-.63-.15-.19-.1-.34-.23-.44-.4s-.15-.36-.15-.58c0-.37.13-.66.4-.9.27-.23.72-.35,1.33-.35.69,0,1.19.13,1.51.38.27.22.41.52.41.9,0,.28-.08.51-.24.69-.16.18-.38.29-.65.32M28.81,68.27c-.15,0-.3.03-.43.1-.14.07-.24.16-.32.27-.07.11-.11.24-.11.36,0,.19.08.34.22.48s.35.2.61.2.44-.07.58-.2c.14-.13.21-.3.21-.5s-.07-.37-.21-.51c-.14-.14-.33-.21-.56-.21h0Z"/>
  <line class="cls-5" x1="35.18" y1="55.84" x2="35.18" y2="59.34"/>
  <polygon class="cls-6" points="33.89 63.24 37.47 63.24 37.47 63.71 33.89 63.71 33.89 63.24 33.89 63.24"/>
  <path class="cls-6" d="M33.89,64.6h3.58v1.35c0,.24-.01.42-.03.54-.03.18-.09.32-.17.44-.08.12-.2.21-.34.29-.15.07-.31.11-.49.11-.31,0-.56-.1-.77-.29-.21-.19-.31-.54-.31-1.05v-.92h-1.46v-.47M35.77,65.07v.93c0,.31.06.52.17.65.11.13.27.19.48.19.15,0,.28-.04.38-.11.11-.08.18-.17.21-.3.02-.08.03-.23.03-.44v-.92h-1.28Z"/>
  <path class="cls-6" d="M34.83,67.78l.06.44c-.25.05-.43.14-.54.26-.11.12-.16.27-.16.44,0,.21.07.38.21.52.14.14.32.21.53.21s.37-.07.5-.2c.13-.13.2-.3.2-.5,0-.08-.02-.19-.05-.31l.39.05s0,.05,0,.07c0,.19.05.36.15.51.1.15.25.22.45.22.16,0,.3-.05.4-.16.1-.11.16-.25.16-.42s-.05-.31-.16-.43c-.11-.11-.27-.19-.48-.22l.08-.44c.3.05.52.18.68.37.16.19.24.43.24.71,0,.2-.04.38-.13.54-.08.16-.2.29-.34.38-.14.09-.3.13-.46.13-.15,0-.3-.04-.42-.12-.13-.08-.23-.21-.3-.37-.05.21-.15.38-.31.49s-.34.18-.58.18c-.31,0-.58-.11-.8-.34-.22-.23-.32-.52-.32-.86,0-.31.09-.58.28-.78.19-.21.43-.32.73-.35h0Z"/>
  <line class="cls-5" x1="41.52" y1="55.84" x2="41.52" y2="59.34"/>
  <polygon class="cls-6" points="40.13 63.17 43.71 63.17 43.71 65.76 43.28 65.76 43.28 63.64 42.19 63.64 42.19 65.62 41.77 65.62 41.77 63.64 40.55 63.64 40.55 65.84 40.13 65.84 40.13 63.17 40.13 63.17"/>
  <path class="cls-6" d="M40.13,66.46h2.59v.4h-.37c.29.19.43.47.43.83,0,.16-.03.3-.09.43-.06.13-.13.23-.22.3-.09.07-.2.11-.32.14-.08.02-.22.02-.43.02h-1.59v-.44h1.58c.18,0,.31-.02.4-.05.09-.03.16-.1.21-.18.05-.09.08-.19.08-.31,0-.19-.06-.35-.18-.49-.12-.13-.34-.2-.68-.2h-1.42v-.44h0Z"/>
  <path class="cls-6" d="M40.13,71.03h.33c-.26-.16-.39-.41-.39-.73,0-.21.06-.4.17-.57.11-.17.27-.31.48-.4.21-.1.44-.14.71-.14s.49.04.7.13c.21.09.37.21.49.39.11.17.17.37.17.58,0,.16-.03.3-.1.42-.07.12-.15.22-.26.3h1.28v.44h-3.58v-.41M41.42,69.64c-.33,0-.58.07-.74.21-.16.14-.25.31-.25.5s.08.35.23.49c.16.13.4.2.72.2.35,0,.62-.07.78-.21.17-.14.25-.31.25-.51s-.08-.36-.24-.49c-.16-.13-.41-.2-.75-.2h0Z"/>
  <path class="cls-6" d="M41.42,71.82c.48,0,.83.13,1.07.4.19.22.29.5.29.82,0,.36-.12.65-.35.87-.23.23-.55.34-.97.34-.33,0-.6-.05-.79-.15-.19-.1-.34-.24-.44-.44-.11-.19-.16-.4-.16-.62,0-.36.12-.66.35-.88.23-.22.57-.33,1.01-.33M41.42,72.27c-.33,0-.58.07-.75.22-.16.14-.25.33-.25.55s.08.4.25.54c.17.14.42.22.76.22.32,0,.56-.07.73-.22.17-.14.25-.32.25-.54s-.08-.4-.25-.55c-.16-.14-.41-.22-.74-.22h0Z"/>
  <path class="cls-6" d="M41.08,76.56l-.06.43c-.3-.05-.53-.17-.7-.36-.17-.19-.25-.43-.25-.72,0-.35.11-.64.35-.86.23-.21.57-.32,1-.32.28,0,.52.05.73.14.21.09.37.23.47.42.11.19.16.4.16.62,0,.28-.07.51-.21.69-.14.18-.34.29-.61.34l-.07-.43c.17-.04.31-.11.39-.22.09-.1.13-.23.13-.37,0-.22-.08-.4-.24-.54-.16-.14-.41-.21-.75-.21s-.6.07-.76.2c-.16.13-.24.31-.24.52,0,.17.05.32.16.43.1.11.27.19.49.22h0Z"/>
  <path class="cls-6" d="M40.45,78.96c-.14-.16-.24-.32-.29-.47-.06-.15-.09-.31-.09-.48,0-.29.07-.5.21-.66s.32-.23.53-.23c.13,0,.24.03.35.09.1.06.19.13.25.23.06.1.11.2.14.32.02.09.04.22.07.39.04.35.09.62.15.78.06,0,.1,0,.11,0,.18,0,.31-.04.38-.12.1-.11.15-.28.15-.5,0-.21-.04-.36-.11-.46-.07-.1-.2-.17-.38-.22l.06-.43c.18.04.33.1.44.19.11.09.2.22.26.39.06.17.09.37.09.59s-.03.4-.08.54-.12.24-.2.31c-.08.07-.18.11-.3.14-.08.01-.21.02-.41.02h-.59c-.41,0-.67,0-.78.03-.11.02-.21.06-.31.11v-.46c.09-.05.2-.08.32-.09M41.43,78.92c-.07-.16-.12-.4-.17-.72-.03-.18-.06-.31-.09-.38-.03-.08-.08-.13-.14-.17-.06-.04-.13-.06-.21-.06-.12,0-.21.04-.29.13-.08.09-.12.22-.12.39s.04.32.11.45c.08.13.18.23.31.29.1.05.25.07.44.07h.16Z"/>
  <path class="cls-6" d="M40.13,80.14h2.59v.4h-.39c.18.1.31.19.36.28.06.09.09.18.09.28,0,.15-.05.3-.14.45l-.41-.15c.06-.11.1-.21.1-.32,0-.1-.03-.18-.09-.26-.06-.08-.14-.13-.24-.16-.16-.05-.33-.07-.51-.07h-1.36v-.44h0Z"/>
  <path class="cls-6" d="M40.13,83.51h.33c-.26-.16-.39-.41-.39-.73,0-.21.06-.4.17-.57.11-.17.27-.31.48-.4.21-.1.44-.14.71-.14s.49.04.7.13c.21.09.37.21.49.39.11.17.17.37.17.58,0,.16-.03.3-.1.42-.07.12-.15.22-.26.3h1.28v.44h-3.58v-.41M41.42,82.12c-.33,0-.58.07-.74.21-.16.14-.25.31-.25.5s.08.35.23.49c.16.13.4.2.72.2.35,0,.62-.07.78-.21.17-.14.25-.31.25-.51s-.08-.36-.24-.49c-.16-.13-.41-.2-.75-.2h0Z"/>
  <path class="cls-6" d="M43.2,84.47h.51v.44h-.51v-.44M40.13,84.47h2.59v.44h-2.59v-.44h0Z"/>
  <path class="cls-6" d="M40.13,87.36h.38c-.29-.2-.44-.48-.44-.82,0-.15.03-.3.09-.43.06-.13.13-.23.22-.3.09-.06.2-.11.33-.13.09-.02.22-.03.41-.03h1.61v.44h-1.44c-.23,0-.38,0-.46.03-.11.03-.21.09-.27.18-.07.09-.1.2-.1.33s.03.26.1.37c.07.11.16.2.28.24.12.05.29.07.51.07h1.39v.44h-2.59v-.39h0Z"/>
  <path class="cls-6" d="M40.13,88.54h2.59v.39h-.36c.13.08.23.19.31.32.08.13.12.29.12.46,0,.19-.04.35-.12.47-.08.12-.19.21-.33.26.3.21.45.47.45.8,0,.26-.07.45-.21.59-.14.14-.36.21-.66.21h-1.78v-.44h1.63c.18,0,.3-.01.38-.04.08-.03.14-.08.19-.15.05-.08.07-.16.07-.26,0-.18-.06-.33-.18-.45-.12-.12-.31-.18-.58-.18h-1.51v-.44h1.68c.2,0,.34-.04.44-.11.1-.07.15-.19.15-.35,0-.12-.03-.24-.1-.34-.07-.11-.16-.18-.29-.23-.12-.05-.31-.07-.54-.07h-1.35v-.44h0Z"/>
  <line class="cls-5" x1="47.86" y1="55.84" x2="47.86" y2="59.34"/>
  <polygon class="cls-6" points="46.61 63.17 50.19 63.17 50.19 65.76 49.76 65.76 49.76 63.64 48.67 63.64 48.67 65.62 48.25 65.62 48.25 63.64 47.03 63.64 47.03 65.84 46.61 65.84 46.61 63.17 46.61 63.17"/>
  <path class="cls-6" d="M45.61,66.46h3.59v.4h-.34c.13.1.23.2.3.32s.1.26.1.43c0,.22-.06.42-.17.59-.11.17-.28.3-.48.38-.21.09-.43.13-.68.13-.27,0-.51-.05-.72-.14s-.37-.23-.49-.42c-.11-.18-.17-.37-.17-.57,0-.15.03-.28.09-.4.06-.11.14-.21.23-.29h-1.26v-.44M47.89,66.86c-.33,0-.58.07-.74.2-.16.13-.24.3-.24.49s.08.36.25.5c.17.14.42.21.77.21s.58-.07.74-.21c.16-.13.25-.3.25-.49s-.09-.35-.26-.5c-.17-.14-.43-.21-.76-.21h0Z"/>
  <path class="cls-6" d="M49.68,69.35h.51v.44h-.51v-.44M46.61,69.35h2.59v.44h-2.59v-.44h0Z"/>
  <path class="cls-6" d="M47.56,72l-.06.43c-.3-.05-.53-.17-.7-.36-.17-.19-.25-.43-.25-.72,0-.35.11-.64.35-.86.23-.21.57-.32,1-.32.28,0,.52.05.73.14.21.09.37.23.47.42.1.19.16.4.16.62,0,.28-.07.51-.21.69-.14.18-.34.29-.61.34l-.07-.43c.17-.04.31-.11.39-.22.09-.1.13-.23.13-.37,0-.22-.08-.4-.24-.54-.16-.14-.41-.21-.75-.21s-.6.07-.76.2c-.16.13-.24.31-.24.52,0,.17.05.32.16.43.1.11.27.19.49.22h0Z"/>
  <path class="cls-6" d="M46.93,74.64c-.14-.16-.24-.32-.29-.47-.06-.15-.09-.31-.09-.48,0-.29.07-.5.21-.66s.32-.23.53-.23c.13,0,.24.03.35.09.1.06.19.13.25.23.06.1.11.2.14.32.02.09.04.22.07.39.04.35.09.62.15.78.06,0,.1,0,.11,0,.18,0,.31-.04.38-.12.1-.11.15-.28.15-.5,0-.21-.04-.36-.11-.46-.07-.1-.2-.17-.38-.22l.06-.43c.18.04.33.1.44.19.11.09.2.22.26.39.06.17.09.37.09.59s-.03.4-.08.54-.12.24-.2.31c-.08.07-.18.11-.3.14-.08.01-.21.02-.41.02h-.59c-.41,0-.67,0-.78.03-.11.02-.21.06-.31.11v-.46c.09-.05.2-.08.32-.09M47.91,74.6c-.07-.16-.12-.4-.17-.72-.03-.18-.06-.31-.09-.38-.03-.08-.08-.13-.14-.17-.06-.04-.13-.06-.21-.06-.12,0-.21.04-.29.13-.08.09-.12.22-.12.39s.04.32.11.45c.08.13.18.23.31.29.1.05.25.07.44.07h.16Z"/>
  <path class="cls-6" d="M46.61,75.58h2.59v.4h-.39c.18.1.31.19.36.28s.09.18.09.28c0,.15-.05.3-.14.45l-.41-.15c.06-.11.1-.21.1-.32,0-.1-.03-.18-.09-.26-.06-.08-.14-.13-.24-.16-.16-.05-.33-.07-.51-.07h-1.36v-.44h0Z"/>
  <path class="cls-6" d="M46.61,78.95h.33c-.26-.16-.39-.41-.39-.73,0-.21.06-.4.17-.57.11-.17.27-.31.48-.4.21-.1.44-.14.71-.14s.49.04.7.13c.21.09.37.21.49.39.11.17.17.37.17.58,0,.16-.03.3-.1.42-.07.12-.15.22-.26.3h1.28v.44h-3.58v-.41M47.9,77.56c-.33,0-.58.07-.74.21-.16.14-.25.31-.25.5s.08.35.23.49c.16.13.4.2.72.2.35,0,.62-.07.78-.21.17-.14.25-.31.25-.51s-.08-.36-.24-.49c-.16-.13-.41-.2-.75-.2h0Z"/>
  <path class="cls-6" d="M49.68,80.15h.51v.44h-.51v-.44M46.61,80.15h2.59v.44h-2.59v-.44h0Z"/>
  <path class="cls-6" d="M46.61,83.04h.38c-.29-.2-.44-.48-.44-.82,0-.15.03-.3.09-.43.06-.13.13-.23.22-.3.09-.06.2-.11.33-.13.09-.02.22-.03.41-.03h1.61v.44h-1.44c-.23,0-.38,0-.46.03-.11.03-.21.09-.27.18-.07.09-.1.2-.1.33s.03.26.1.37c.07.11.16.2.28.24.12.05.29.07.51.07h1.39v.44h-2.59v-.39h0Z"/>
  <path class="cls-6" d="M46.61,83.98h2.59v.39h-.36c.13.08.23.19.31.32.08.13.12.29.12.46,0,.19-.04.35-.12.47-.08.12-.19.21-.33.26.3.21.45.47.45.8,0,.26-.07.45-.21.59-.14.14-.36.21-.66.21h-1.78v-.44h1.63c.18,0,.3-.01.38-.04.08-.03.14-.08.19-.15.05-.08.07-.16.07-.26,0-.18-.06-.33-.18-.45-.12-.12-.31-.18-.58-.18h-1.51v-.44h1.68c.2,0,.34-.04.44-.11.1-.07.15-.19.15-.35,0-.12-.03-.24-.1-.34-.07-.11-.16-.18-.29-.23-.12-.05-.31-.07-.54-.07h-1.35v-.44h0Z"/>
  <line class="cls-5" x1="54.2" y1="55.84" x2="54.2" y2="59.34"/>
  <polygon class="cls-6" points="52.85 63.24 56.43 63.24 56.43 63.71 52.85 63.71 52.85 63.24 52.85 63.24"/>
  <path class="cls-6" d="M52.85,64.6h3.58v1.35c0,.24-.01.42-.03.54-.03.18-.09.32-.17.44-.08.12-.2.21-.34.29-.15.07-.31.11-.49.11-.31,0-.56-.1-.77-.29-.21-.19-.31-.54-.31-1.05v-.92h-1.46v-.47M54.73,65.07v.93c0,.31.06.52.17.65.11.13.27.19.48.19.15,0,.28-.04.38-.11.11-.08.18-.17.21-.3.02-.08.03-.23.03-.44v-.92h-1.28Z"/>
  <path class="cls-6" d="M53.79,67.78l.04.46c-.22.03-.39.11-.51.24-.11.12-.17.28-.17.45,0,.21.08.39.24.54.16.15.37.22.63.22s.45-.07.59-.21c.14-.14.22-.32.22-.55,0-.14-.03-.27-.1-.38-.06-.11-.15-.2-.25-.27l.05-.41,1.84.35v1.78h-.42v-1.43l-.96-.19c.15.21.22.44.22.68,0,.31-.11.58-.32.79-.22.21-.5.32-.83.32s-.6-.1-.84-.28c-.29-.23-.43-.54-.43-.94,0-.32.09-.59.27-.8.18-.21.42-.32.73-.35h0Z"/>
  <line class="cls-5" x1="60.54" y1="55.84" x2="60.54" y2="59.34"/>
  <path class="cls-6" d="M59.33,63.15h3.58v.71l-2.53.85c-.24.08-.41.13-.53.17.13.04.32.1.57.19l2.49.86v.64h-3.58v-.46h3l-3-1.04v-.43l3.05-1.04h-3.05v-.46h0Z"/>
  <path class="cls-6" d="M60.62,67.26c.48,0,.83.13,1.07.4.19.22.29.5.29.82,0,.36-.12.65-.35.87-.23.23-.55.34-.97.34-.33,0-.6-.05-.79-.15-.19-.1-.34-.24-.44-.44-.1-.19-.16-.4-.16-.62,0-.36.12-.66.35-.88.23-.22.57-.33,1.01-.33M60.62,67.71c-.33,0-.58.07-.75.22-.16.14-.25.33-.25.55s.08.4.25.54c.17.14.42.22.76.22.32,0,.56-.07.73-.22.17-.14.25-.32.25-.54s-.08-.4-.25-.55c-.16-.14-.41-.22-.74-.22h0Z"/>
  <path class="cls-6" d="M59.33,70.06h2.59v.4h-.37c.29.19.43.47.43.83,0,.16-.03.3-.09.43-.06.13-.13.23-.22.3-.09.07-.2.11-.32.14-.08.02-.22.02-.43.02h-1.59v-.44h1.58c.18,0,.31-.02.4-.05.09-.03.16-.1.21-.18.05-.09.08-.19.08-.31,0-.19-.06-.35-.18-.49-.12-.13-.34-.2-.68-.2h-1.42v-.44h0Z"/>
  <path class="cls-6" d="M60.62,72.78c.48,0,.83.13,1.07.4.19.22.29.5.29.82,0,.36-.12.65-.35.87-.23.23-.55.34-.97.34-.33,0-.6-.05-.79-.15-.19-.1-.34-.24-.44-.44-.1-.19-.16-.4-.16-.62,0-.36.12-.66.35-.88.23-.22.57-.33,1.01-.33M60.62,73.23c-.33,0-.58.07-.75.22-.16.14-.25.33-.25.55s.08.4.25.54c.17.14.42.22.76.22.32,0,.56-.07.73-.22.17-.14.25-.32.25-.54s-.08-.4-.25-.55c-.16-.14-.41-.22-.74-.22h0Z"/>
  <path class="cls-6" d="M60.28,77.28l-.06.43c-.3-.05-.53-.17-.7-.36-.17-.19-.25-.43-.25-.72,0-.35.11-.64.35-.86.23-.21.57-.32,1-.32.28,0,.52.05.73.14.21.09.37.23.47.42.1.19.16.4.16.62,0,.28-.07.51-.21.69-.14.18-.34.29-.61.34l-.07-.43c.17-.04.31-.11.39-.22.09-.1.13-.23.13-.37,0-.22-.08-.4-.24-.54-.16-.14-.41-.21-.75-.21s-.6.07-.76.2c-.16.13-.24.31-.24.52,0,.17.05.32.16.43.1.11.27.19.49.22h0Z"/>
  <path class="cls-6" d="M58.33,78.2l.41-.05c-.03.1-.04.18-.04.25,0,.1.02.18.05.23.03.06.08.11.14.14.04.03.15.07.33.13.02,0,.06.02.11.04l2.6-.98v.47l-1.5.54c-.19.07-.39.13-.6.19.2.05.4.11.59.18l1.51.55v.44l-2.64-.99c-.29-.11-.48-.19-.59-.25-.14-.08-.25-.17-.32-.27-.07-.1-.1-.22-.1-.36,0-.09.02-.18.05-.28h0Z"/>
  <path class="cls-6" d="M59.72,81.58l-.39.06c-.03-.12-.04-.23-.04-.33,0-.16.02-.28.08-.37s.12-.15.2-.19c.08-.04.26-.05.52-.05h1.49v-.32h.34v.32h.64l.26.44h-.91v.44h-.34v-.44h-1.52c-.12,0-.21,0-.24.02-.04.02-.06.04-.09.08-.02.04-.03.09-.03.15,0,.05,0,.11.02.19h0Z"/>
  <path class="cls-6" d="M60.16,83.84l-.06.45c-.27-.07-.47-.21-.62-.4-.15-.19-.22-.44-.22-.74,0-.38.12-.68.35-.9.23-.22.56-.33.98-.33s.77.11,1.02.34c.24.22.36.52.36.87s-.12.63-.35.85c-.24.22-.57.33-1,.33-.03,0-.07,0-.12,0v-1.93c-.29.02-.5.1-.65.24-.15.14-.23.32-.23.54,0,.16.04.3.13.41.09.11.22.21.41.27M60.87,82.4v1.45c.22-.02.38-.08.49-.17.17-.14.25-.32.25-.54,0-.2-.07-.37-.2-.51-.13-.14-.31-.21-.54-.23h0Z"/>
  <path class="cls-6" d="M60.1,84.77l.07.43c-.17.02-.31.09-.4.2-.09.11-.14.27-.14.47s.04.35.12.45c.08.1.18.15.29.15.1,0,.18-.04.23-.13.04-.06.09-.21.15-.45.08-.32.15-.55.21-.67.06-.12.14-.22.25-.28.1-.06.22-.1.35-.1.11,0,.22.03.32.08.1.05.18.13.25.22.05.07.09.16.13.28.04.12.05.25.05.38,0,.2-.03.38-.09.53s-.14.27-.24.34c-.1.07-.23.12-.4.15l-.06-.43c.13-.02.24-.08.31-.17.08-.09.11-.22.11-.4,0-.2-.03-.35-.1-.43-.07-.09-.14-.13-.23-.13-.06,0-.11.02-.15.05-.05.04-.09.09-.12.17-.02.04-.05.17-.11.39-.08.31-.15.53-.21.65-.05.12-.13.22-.23.29-.1.07-.23.1-.38.1s-.29-.04-.42-.13c-.13-.09-.23-.21-.3-.37-.07-.16-.1-.34-.1-.55,0-.34.07-.59.21-.77.14-.18.35-.29.62-.34h0Z"/>
  <line class="cls-5" x1="66.88" y1="55.84" x2="66.88" y2="59.34"/>
  <polygon class="cls-6" points="65.57 63.24 69.15 63.24 69.15 63.71 65.57 63.71 65.57 63.24 65.57 63.24"/>
  <path class="cls-6" d="M65.57,64.6h3.58v1.35c0,.24-.01.42-.03.54-.03.18-.09.32-.17.44-.08.12-.2.21-.34.29-.15.07-.31.11-.49.11-.31,0-.56-.1-.77-.29-.21-.19-.31-.54-.31-1.05v-.92h-1.46v-.47M67.45,65.07v.93c0,.31.06.52.17.65.11.13.27.19.48.19.15,0,.28-.04.38-.11.11-.08.18-.17.21-.3.02-.08.03-.23.03-.44v-.92h-1.28Z"/>
  <path class="cls-6" d="M65.57,69.19h.86v-1.55h.4l2.32,1.63v.36h-2.32v.48h-.4v-.48h-.86v-.44M66.83,69.19h1.61l-1.61-1.12v1.12h0Z"/>
  <line class="cls-5" x1="73.22" y1="55.84" x2="73.22" y2="59.34"/>
  <polygon class="cls-6" points="72.05 63.18 75.63 63.18 75.63 65.6 75.2 65.6 75.2 63.66 74.1 63.66 74.1 65.34 73.67 65.34 73.67 63.66 72.05 63.66 72.05 63.18 72.05 63.18"/>
  <path class="cls-6" d="M75.12,66.23h.51v.44h-.51v-.44M72.05,66.23h2.59v.44h-2.59v-.44h0Z"/>
  <path class="cls-6" d="M72.05,67.83v-.41h3.58v.44h-1.28c.23.19.35.42.35.71,0,.16-.03.31-.1.45-.06.14-.15.26-.27.35-.11.09-.26.17-.42.22-.16.05-.34.08-.53.08-.44,0-.79-.11-1.03-.33s-.36-.48-.36-.79.13-.55.38-.72h-.32M73.36,67.82c-.31,0-.53.04-.67.13-.23.14-.34.32-.34.56,0,.19.08.36.25.5.17.14.42.21.75.21s.59-.07.75-.2c.16-.13.24-.3.24-.49s-.08-.36-.25-.5c-.17-.14-.41-.21-.72-.21h0Z"/>
  <path class="cls-6" d="M72.05,70.06h2.59v.4h-.39c.18.1.31.19.36.28.06.09.09.18.09.28,0,.15-.05.3-.14.45l-.41-.15c.06-.11.1-.21.1-.32,0-.1-.03-.18-.09-.26-.06-.08-.14-.13-.24-.16-.16-.05-.33-.07-.51-.07h-1.36v-.44h0Z"/>
  <path class="cls-6" d="M73.34,71.58c.48,0,.83.13,1.07.4.19.22.29.5.29.82,0,.36-.12.65-.35.87-.23.23-.55.34-.97.34-.33,0-.6-.05-.79-.15-.19-.1-.34-.24-.44-.44-.1-.19-.16-.4-.16-.62,0-.36.12-.66.35-.88.23-.22.57-.33,1.01-.33M73.34,72.03c-.33,0-.58.07-.75.22-.16.14-.25.33-.25.55s.08.4.25.54c.17.14.42.22.76.22.32,0,.56-.07.73-.22.17-.14.25-.32.25-.54s-.08-.4-.25-.55c-.16-.14-.41-.22-.74-.22h0Z"/>
  <path class="cls-6" d="M72.05,75.03v-.41h3.58v.44h-1.28c.23.19.35.42.35.71,0,.16-.03.31-.1.45-.06.14-.15.26-.27.35-.11.09-.26.17-.42.22-.16.05-.34.08-.53.08-.44,0-.79-.11-1.03-.33s-.36-.48-.36-.79.13-.55.38-.72h-.32M73.36,75.02c-.31,0-.53.04-.67.13-.23.14-.34.32-.34.56,0,.19.08.36.25.5.17.14.42.21.75.21s.59-.07.75-.2c.16-.13.24-.3.24-.49s-.08-.36-.25-.5c-.17-.14-.41-.21-.72-.21h0Z"/>
  <polygon class="cls-6" points="72.05 77.25 75.63 77.25 75.63 77.69 72.05 77.69 72.05 77.25 72.05 77.25"/>
  <path class="cls-6" d="M72.37,80.16c-.14-.16-.24-.32-.29-.47-.06-.15-.09-.31-.09-.48,0-.29.07-.5.21-.66s.32-.23.53-.23c.13,0,.24.03.35.09.1.06.19.13.25.23.06.1.11.2.14.32.02.09.04.22.07.39.04.35.09.62.15.78.06,0,.1,0,.11,0,.18,0,.31-.04.38-.12.1-.11.15-.28.15-.5,0-.21-.04-.36-.11-.46-.07-.1-.2-.17-.38-.22l.06-.43c.18.04.33.1.44.19.11.09.2.22.26.39.06.17.09.37.09.59s-.03.4-.08.54-.12.24-.2.31c-.08.07-.18.11-.3.14-.08.01-.21.02-.41.02h-.59c-.41,0-.67,0-.78.03-.11.02-.21.06-.31.11v-.46c.09-.05.2-.08.32-.09M73.35,80.12c-.07-.16-.12-.4-.17-.72-.03-.18-.06-.31-.09-.38-.03-.08-.08-.13-.14-.17-.06-.04-.13-.06-.21-.06-.12,0-.21.04-.29.13-.08.09-.12.22-.12.39s.04.32.11.45c.08.13.18.23.31.29.1.05.25.07.44.07h.16Z"/>
  <path class="cls-6" d="M72.82,81.17l.07.43c-.17.02-.31.09-.4.2-.09.11-.14.27-.14.47s.04.35.12.45c.08.1.18.15.29.15.1,0,.18-.04.23-.13.04-.06.09-.21.15-.45.08-.32.15-.55.21-.67.06-.12.14-.22.25-.28.1-.06.22-.1.35-.1.11,0,.22.03.32.08.1.05.18.13.25.22.05.07.09.16.13.28.04.12.05.25.05.38,0,.2-.03.38-.09.53s-.14.27-.24.34c-.1.07-.23.12-.4.15l-.06-.43c.13-.02.24-.08.31-.17.08-.09.11-.22.11-.4,0-.2-.03-.35-.1-.43-.07-.09-.14-.13-.23-.13-.06,0-.11.02-.15.05-.05.04-.09.09-.12.17-.02.04-.05.17-.11.39-.08.31-.15.53-.21.65-.05.12-.13.22-.23.29-.1.07-.23.1-.38.1s-.29-.04-.42-.13c-.13-.09-.23-.21-.3-.37-.07-.16-.1-.34-.1-.55,0-.34.07-.59.21-.77.14-.18.35-.29.62-.34h0Z"/>
  <path class="cls-6" d="M72.44,84.7l-.39.06c-.03-.12-.04-.23-.04-.33,0-.16.02-.28.08-.37s.12-.15.2-.19c.08-.04.26-.05.52-.05h1.49v-.32h.34v.32h.64l.26.44h-.91v.44h-.34v-.44h-1.52c-.12,0-.21,0-.24.02-.04.02-.06.04-.09.08-.02.04-.03.09-.03.15,0,.05,0,.11.02.19h0Z"/>
  <path class="cls-6" d="M72.82,85.01l.07.43c-.17.02-.31.09-.4.2-.09.11-.14.27-.14.47s.04.35.12.45c.08.1.18.15.29.15.1,0,.18-.04.23-.13.04-.06.09-.21.15-.45.08-.32.15-.55.21-.67.06-.12.14-.22.25-.28.1-.06.22-.1.35-.1.11,0,.22.03.32.08.1.05.18.13.25.22.05.07.09.16.13.28.04.12.05.25.05.38,0,.2-.03.38-.09.53s-.14.27-.24.34c-.1.07-.23.12-.4.15l-.06-.43c.13-.02.24-.08.31-.17.08-.09.11-.22.11-.4,0-.2-.03-.35-.1-.43s-.14-.13-.23-.13c-.06,0-.11.02-.15.05-.05.04-.09.09-.12.17-.02.04-.05.17-.11.39-.08.31-.15.53-.21.65-.05.12-.13.22-.23.29-.1.07-.23.1-.38.1s-.29-.04-.42-.13c-.13-.09-.23-.21-.3-.37-.07-.16-.1-.34-.1-.55,0-.34.07-.59.21-.77.14-.18.35-.29.62-.34h0Z"/>
  <line class="cls-5" x1="79.56" y1="55.84" x2="79.56" y2="59.34"/>
  <polygon class="cls-6" points="78.29 63.24 81.87 63.24 81.87 63.71 78.29 63.71 78.29 63.24 78.29 63.24"/>
  <path class="cls-6" d="M78.29,64.6h3.58v1.35c0,.24-.01.42-.03.54-.03.18-.09.32-.17.44-.08.12-.2.21-.34.29-.15.07-.31.11-.49.11-.31,0-.56-.1-.77-.29-.21-.19-.31-.54-.31-1.05v-.92h-1.46v-.47M80.17,65.07v.93c0,.31.06.52.17.65.11.13.27.19.48.19.15,0,.28-.04.38-.11.11-.08.18-.17.21-.3.02-.08.03-.23.03-.44v-.92h-1.28Z"/>
  <path class="cls-6" d="M78.71,70.09h-.42v-2.37c.1,0,.21.01.31.05.16.06.32.16.48.29.16.13.34.32.54.58.32.39.57.65.76.79.19.14.36.21.53.21s.32-.06.44-.19c.12-.12.18-.29.18-.49,0-.21-.06-.38-.19-.51-.13-.13-.3-.19-.53-.19l.05-.45c.34.03.59.15.77.35.18.2.27.47.27.81s-.1.62-.29.82-.43.3-.71.3c-.14,0-.28-.03-.42-.09s-.28-.16-.44-.29c-.15-.13-.36-.36-.63-.68-.22-.26-.37-.43-.45-.51-.08-.08-.16-.14-.24-.19v1.76h0Z"/>
  <line class="cls-5" x1="85.91" y1="55.84" x2="85.91" y2="59.34"/>
  <path class="cls-6" d="M85.68,63l.04.45c-.18.02-.33.07-.44.15-.11.08-.21.2-.28.36-.07.16-.1.35-.1.55,0,.18.03.34.08.48s.13.24.22.31c.1.07.2.1.31.1s.21-.03.29-.1c.09-.07.16-.17.21-.32.04-.1.1-.31.17-.64.08-.33.15-.56.22-.69.09-.17.2-.3.33-.38.13-.08.28-.12.45-.12.18,0,.35.05.51.15.16.1.28.25.36.45s.12.42.12.66c0,.27-.04.5-.13.7-.09.2-.21.36-.38.47s-.35.17-.56.18l-.03-.45c.23-.02.4-.11.51-.25.11-.14.17-.35.17-.62s-.05-.5-.16-.63c-.1-.13-.23-.2-.38-.2-.13,0-.23.05-.32.14-.08.09-.17.33-.26.71-.09.39-.16.65-.23.79-.1.21-.22.36-.37.46-.15.1-.31.15-.51.15s-.37-.05-.54-.16-.3-.27-.39-.47c-.09-.2-.14-.43-.14-.69,0-.32.05-.6.14-.82.1-.22.24-.39.42-.52.19-.12.41-.19.64-.2h0Z"/>
  <path class="cls-6" d="M84.53,66.46h2.59v.39h-.36c.13.08.23.19.31.32.08.13.12.29.12.46,0,.19-.04.35-.12.47-.08.12-.19.21-.33.26.3.21.45.47.45.8,0,.26-.07.45-.21.59-.14.14-.36.21-.66.21h-1.78v-.44h1.63c.18,0,.3-.01.38-.04.08-.03.14-.08.19-.15s.07-.16.07-.26c0-.18-.06-.33-.18-.45-.12-.12-.31-.18-.58-.18h-1.51v-.44h1.68c.2,0,.34-.04.44-.11s.15-.19.15-.35c0-.12-.03-.24-.1-.34s-.16-.18-.29-.23-.31-.07-.54-.07h-1.35v-.44h0Z"/>
  <path class="cls-6" d="M85.82,70.62c.48,0,.83.13,1.07.4.19.22.29.5.29.82,0,.36-.12.65-.35.87-.23.23-.55.34-.97.34-.33,0-.6-.05-.79-.15-.19-.1-.34-.24-.44-.44-.1-.19-.16-.4-.16-.62,0-.36.12-.66.35-.88.23-.22.57-.33,1.01-.33M85.82,71.07c-.33,0-.58.07-.75.22-.16.14-.25.33-.25.55s.08.4.25.54c.17.14.42.22.76.22.32,0,.56-.07.73-.22.17-.14.25-.32.25-.54s-.08-.4-.25-.55c-.16-.14-.41-.22-.74-.22h0Z"/>
  <path class="cls-6" d="M85.82,73.26c.48,0,.83.13,1.07.4.19.22.29.5.29.82,0,.36-.12.65-.35.87-.23.23-.55.34-.97.34-.33,0-.6-.05-.79-.15-.19-.1-.34-.24-.44-.44-.1-.19-.16-.4-.16-.62,0-.36.12-.66.35-.88.23-.22.57-.33,1.01-.33M85.82,73.71c-.33,0-.58.07-.75.22-.16.14-.25.33-.25.55s.08.4.25.54c.17.14.42.22.76.22.32,0,.56-.07.73-.22.17-.14.25-.32.25-.54s-.08-.4-.25-.55c-.16-.14-.41-.22-.74-.22h0Z"/>
  <path class="cls-6" d="M84.92,77.26l-.39.06c-.03-.12-.04-.23-.04-.33,0-.16.02-.28.08-.37s.12-.15.2-.19c.08-.04.26-.05.52-.05h1.49v-.32h.34v.32h.64l.26.44h-.91v.44h-.34v-.44h-1.52c-.12,0-.21,0-.24.02-.04.02-.06.04-.09.08-.02.04-.03.09-.03.15,0,.05,0,.11.02.19h0Z"/>
  <path class="cls-6" d="M84.53,77.5h3.58v.44h-1.28c.24.21.36.46.36.78,0,.19-.04.36-.11.5-.08.14-.18.24-.31.3-.13.06-.33.09-.58.09h-1.64v-.44h1.64c.22,0,.38-.05.48-.14s.15-.23.15-.4c0-.13-.03-.25-.1-.37-.07-.11-.16-.2-.27-.24-.11-.05-.28-.07-.48-.07h-1.42v-.44h0Z"/>
  <path class="cls-6" d="M84.53,81.38h2.59v.39h-.36c.13.08.23.19.31.32.08.13.12.29.12.46,0,.19-.04.35-.12.47-.08.12-.19.21-.33.26.3.21.45.47.45.8,0,.26-.07.45-.21.59-.14.14-.36.21-.66.21h-1.78v-.44h1.63c.18,0,.3-.01.38-.04.08-.03.14-.08.19-.15.05-.08.07-.16.07-.26,0-.18-.06-.33-.18-.45-.12-.12-.31-.18-.58-.18h-1.51v-.44h1.68c.2,0,.34-.04.44-.11.1-.07.15-.19.15-.35,0-.12-.03-.24-.1-.34-.07-.11-.16-.18-.29-.23-.12-.05-.31-.07-.54-.07h-1.35v-.44h0Z"/>
  <path class="cls-6" d="M84.53,87.16h.38c-.29-.2-.44-.48-.44-.82,0-.15.03-.3.09-.43.06-.13.13-.23.22-.3.09-.06.2-.11.33-.13.09-.02.22-.03.41-.03h1.61v.44h-1.44c-.23,0-.38,0-.46.03-.11.03-.21.09-.27.18s-.1.2-.1.33.03.26.1.37c.07.11.16.2.28.24.12.05.29.07.51.07h1.39v.44h-2.59v-.39h0Z"/>
  <path class="cls-6" d="M85.3,88.17l.07.43c-.17.02-.31.09-.4.2-.09.11-.14.27-.14.47s.04.35.12.45c.08.1.18.15.29.15.1,0,.18-.04.23-.13.04-.06.09-.21.15-.45.08-.32.15-.55.21-.67.06-.12.14-.22.25-.28.1-.06.22-.1.35-.1.11,0,.22.03.32.08.1.05.18.13.25.22.05.07.09.16.13.28.04.12.05.25.05.38,0,.2-.03.38-.09.53s-.14.27-.24.34-.23.12-.4.15l-.06-.43c.13-.02.24-.08.31-.17.08-.09.11-.22.11-.4,0-.2-.03-.35-.1-.43-.07-.09-.14-.13-.23-.13-.06,0-.11.02-.15.05s-.09.09-.12.17c-.02.04-.05.17-.11.39-.08.31-.15.53-.21.65-.05.12-.13.22-.23.29-.1.07-.23.1-.38.1s-.29-.04-.42-.13c-.13-.09-.23-.21-.3-.37s-.1-.34-.1-.55c0-.34.07-.59.21-.77.14-.18.35-.29.62-.34h0Z"/>
  <path class="cls-6" d="M85.48,92.44l-.06.43c-.3-.05-.53-.17-.7-.36-.17-.19-.25-.43-.25-.72,0-.35.11-.64.35-.86.23-.21.57-.32,1-.32.28,0,.52.05.73.14s.37.23.47.42c.1.19.16.4.16.62,0,.28-.07.51-.21.69-.14.18-.34.29-.61.34l-.07-.43c.17-.04.31-.11.39-.22.09-.1.13-.23.13-.37,0-.22-.08-.4-.24-.54s-.41-.21-.75-.21-.6.07-.76.2-.24.31-.24.52c0,.17.05.32.16.43s.27.19.49.22h0Z"/>
  <polygon class="cls-6" points="84.53 93.37 88.11 93.37 88.11 93.81 84.53 93.81 84.53 93.37 84.53 93.37"/>
  <path class="cls-6" d="M85.36,96.12l-.06.45c-.27-.07-.47-.21-.62-.4-.15-.19-.22-.44-.22-.74,0-.38.12-.68.35-.9.23-.22.56-.33.98-.33s.77.11,1.02.34c.24.22.36.52.36.87s-.12.63-.35.85-.57.33-1,.33c-.03,0-.07,0-.12,0v-1.93c-.29.02-.5.1-.65.24-.15.14-.23.32-.23.54,0,.16.04.3.13.41.09.11.22.21.41.27M86.07,94.68v1.45c.22-.02.38-.08.49-.17.17-.14.25-.32.25-.54,0-.2-.07-.37-.2-.51-.13-.14-.31-.21-.54-.23h0Z"/>
  <path class="cls-6" d="M85.48,99.92l-.06.43c-.3-.05-.53-.17-.7-.36-.17-.19-.25-.43-.25-.72,0-.35.11-.64.35-.86.23-.21.57-.32,1-.32.28,0,.52.05.73.14.21.09.37.23.47.42.1.19.16.4.16.62,0,.28-.07.51-.21.69-.14.18-.34.29-.61.34l-.07-.43c.17-.04.31-.11.39-.22.09-.1.13-.23.13-.37,0-.22-.08-.4-.24-.54s-.41-.21-.75-.21-.6.07-.76.2c-.16.13-.24.31-.24.52,0,.17.05.32.16.43.1.11.27.19.49.22h0Z"/>
  <path class="cls-6" d="M85.36,102.4l-.06.45c-.27-.07-.47-.21-.62-.4s-.22-.44-.22-.74c0-.38.12-.68.35-.9.23-.22.56-.33.98-.33s.77.11,1.02.34.36.52.36.87-.12.63-.35.85-.57.33-1,.33c-.03,0-.07,0-.12,0v-1.93c-.29.02-.5.1-.65.24s-.23.32-.23.54c0,.16.04.3.13.41s.22.21.41.27M86.07,100.96v1.45c.22-.02.38-.08.49-.17.17-.14.25-.32.25-.54,0-.2-.07-.37-.2-.51-.13-.14-.31-.21-.54-.23h0Z"/>
  <polygon class="cls-6" points="84.53 103.49 88.11 103.49 88.11 103.93 84.53 103.93 84.53 103.49 84.53 103.49"/>
  <polygon class="cls-6" points="84.53 104.69 88.11 104.69 88.11 105.13 84.53 105.13 84.53 104.69 84.53 104.69"/>
  <path class="cls-6" d="M85.3,105.49l.07.43c-.17.02-.31.09-.4.2-.09.11-.14.27-.14.47s.04.35.12.45c.08.1.18.15.29.15.1,0,.18-.04.23-.13.04-.06.09-.21.15-.45.08-.32.15-.55.21-.67.06-.12.14-.22.25-.28.1-.06.22-.1.35-.1.11,0,.22.03.32.08.1.05.18.13.25.22.05.07.09.16.13.28.04.12.05.25.05.38,0,.2-.03.38-.09.53s-.14.27-.24.34-.23.12-.4.15l-.06-.43c.13-.02.24-.08.31-.17.08-.09.11-.22.11-.4,0-.2-.03-.35-.1-.43-.07-.09-.14-.13-.23-.13-.06,0-.11.02-.15.05s-.09.09-.12.17c-.02.04-.05.17-.11.39-.08.31-.15.53-.21.65-.05.12-.13.22-.23.29-.1.07-.23.1-.38.1s-.29-.04-.42-.13c-.13-.09-.23-.21-.3-.37s-.1-.34-.1-.55c0-.34.07-.59.21-.77.14-.18.35-.29.62-.34h0Z"/>
  <line class="cls-5" x1="92.25" y1="55.84" x2="92.25" y2="59.34"/>
  <polygon class="cls-6" points="91.01 63.24 94.59 63.24 94.59 63.71 91.01 63.71 91.01 63.24 91.01 63.24"/>
  <path class="cls-6" d="M91.01,64.6h3.58v1.35c0,.24-.01.42-.03.54-.03.18-.09.32-.17.44-.08.12-.2.21-.34.29-.15.07-.31.11-.49.11-.31,0-.56-.1-.77-.29-.21-.19-.31-.54-.31-1.05v-.92h-1.46v-.47M92.89,65.07v.93c0,.31.06.52.17.65.11.13.27.19.48.19.15,0,.28-.04.38-.11.11-.08.18-.17.21-.3.02-.08.03-.23.03-.44v-.92h-1.28Z"/>
  <path class="cls-6" d="M91.01,69.44v-.44h2.8c-.1-.1-.2-.24-.3-.42-.1-.17-.18-.32-.23-.46h.42c.11.25.26.46.42.64.16.18.32.31.48.39v.28h-3.59Z"/>
  <line class="cls-5" x1="98.59" y1="55.84" x2="98.59" y2="59.34"/>
  <path class="cls-6" d="M97.25,63.15h3.58v.71l-2.53.85c-.24.08-.41.13-.53.17.13.04.32.1.57.19l2.49.86v.64h-3.58v-.46h3l-3-1.04v-.43l3.05-1.04h-3.05v-.46h0Z"/>
  <path class="cls-6" d="M97.57,69.12c-.14-.16-.24-.32-.29-.47-.06-.15-.09-.31-.09-.48,0-.29.07-.5.21-.66s.32-.23.53-.23c.13,0,.24.03.35.09.1.06.19.13.25.23.06.1.11.2.14.32.02.09.04.22.07.39.04.35.09.62.15.78.06,0,.1,0,.11,0,.18,0,.31-.04.38-.12.1-.11.15-.28.15-.5,0-.21-.04-.36-.11-.46-.07-.1-.2-.17-.38-.22l.06-.43c.18.04.33.1.44.19.11.09.2.22.26.39s.09.37.09.59-.03.4-.08.54-.12.24-.2.31c-.08.07-.18.11-.3.14-.08.01-.21.02-.41.02h-.59c-.41,0-.67,0-.78.03-.11.02-.21.06-.31.11v-.46c.09-.05.2-.08.32-.09M98.55,69.08c-.07-.16-.12-.4-.17-.72-.03-.18-.06-.31-.09-.38-.03-.08-.08-.13-.14-.17-.06-.04-.13-.06-.21-.06-.12,0-.21.04-.29.13-.08.09-.12.22-.12.39s.04.32.11.45c.08.13.18.23.31.29.1.05.25.07.44.07h.16Z"/>
  <path class="cls-6" d="M98.2,71.76l-.06.43c-.3-.05-.53-.17-.7-.36-.17-.19-.25-.43-.25-.72,0-.35.11-.64.35-.86.23-.21.57-.32,1-.32.28,0,.52.05.73.14.21.09.37.23.47.42.1.19.16.4.16.62,0,.28-.07.51-.21.69-.14.18-.34.29-.61.34l-.07-.43c.17-.04.31-.11.39-.22.09-.1.13-.23.13-.37,0-.22-.08-.4-.24-.54s-.41-.21-.75-.21-.6.07-.76.2c-.16.13-.24.31-.24.52,0,.17.05.32.16.43.1.11.27.19.49.22h0Z"/>
  <path class="cls-6" d="M97.25,72.7h2.59v.4h-.39c.18.1.31.19.36.28.06.09.09.18.09.28,0,.15-.05.3-.14.45l-.41-.15c.06-.11.1-.21.1-.32,0-.1-.03-.18-.09-.26-.06-.08-.14-.13-.24-.16-.16-.05-.33-.07-.51-.07h-1.36v-.44h0Z"/>
  <path class="cls-6" d="M98.54,74.22c.48,0,.83.13,1.07.4.19.22.29.5.29.82,0,.36-.12.65-.35.87-.23.23-.55.34-.97.34-.33,0-.6-.05-.79-.15-.19-.1-.34-.24-.44-.44-.1-.19-.16-.4-.16-.62,0-.36.12-.66.35-.88.23-.22.57-.33,1.01-.33M98.54,74.67c-.33,0-.58.07-.75.22-.16.14-.25.33-.25.55s.08.4.25.54c.17.14.42.22.76.22.32,0,.56-.07.73-.22.17-.14.25-.32.25-.54s-.08-.4-.25-.55c-.16-.14-.41-.22-.74-.22h0Z"/>
  <path class="cls-6" d="M96.25,77.02h3.59v.4h-.34c.13.1.23.2.3.32s.1.26.1.43c0,.22-.06.42-.17.59s-.28.3-.48.38-.43.13-.68.13c-.27,0-.51-.05-.72-.14s-.37-.23-.49-.42c-.11-.18-.17-.37-.17-.57,0-.15.03-.28.09-.4.06-.11.14-.21.23-.29h-1.26v-.44M98.53,77.42c-.33,0-.58.07-.74.2s-.24.3-.24.49.08.36.25.5c.17.14.42.21.77.21s.58-.07.74-.21c.16-.13.25-.3.25-.49s-.09-.35-.26-.5c-.17-.14-.43-.21-.76-.21h0Z"/>
  <path class="cls-6" d="M97.25,79.9h3.58v.44h-1.28c.24.21.36.46.36.78,0,.19-.04.36-.11.5s-.18.24-.31.3-.33.09-.58.09h-1.64v-.44h1.64c.22,0,.38-.05.48-.14s.15-.23.15-.4c0-.13-.03-.25-.1-.37-.07-.11-.16-.2-.27-.24s-.28-.07-.48-.07h-1.42v-.44h0Z"/>
  <path class="cls-6" d="M97.57,84.24c-.14-.16-.24-.32-.29-.47-.06-.15-.09-.31-.09-.48,0-.29.07-.5.21-.66s.32-.23.53-.23c.13,0,.24.03.35.09.1.06.19.13.25.23.06.1.11.2.14.32.02.09.04.22.07.39.04.35.09.62.15.78.06,0,.1,0,.11,0,.18,0,.31-.04.38-.12.1-.11.15-.28.15-.5,0-.21-.04-.36-.11-.46-.07-.1-.2-.17-.38-.22l.06-.43c.18.04.33.1.44.19.11.09.2.22.26.39s.09.37.09.59-.03.4-.08.54-.12.24-.2.31c-.08.07-.18.11-.3.14-.08.01-.21.02-.41.02h-.59c-.41,0-.67,0-.78.03-.11.02-.21.06-.31.11v-.46c.09-.05.2-.08.32-.09M98.55,84.2c-.07-.16-.12-.4-.17-.72-.03-.18-.06-.31-.09-.38-.03-.08-.08-.13-.14-.17-.06-.04-.13-.06-.21-.06-.12,0-.21.04-.29.13-.08.09-.12.22-.12.39s.04.32.11.45c.08.13.18.23.31.29.1.05.25.07.44.07h.16Z"/>
  <path class="cls-6" d="M97.03,85.34l-.06.43c-.13.02-.23.07-.29.15-.08.11-.12.26-.12.45,0,.2.04.36.12.47s.2.19.34.22c.09.02.28.03.56.03-.23-.19-.34-.43-.34-.72,0-.36.13-.63.39-.83.26-.2.57-.29.93-.29.25,0,.48.04.68.13.21.09.37.22.49.39.11.17.17.37.17.6,0,.31-.12.56-.37.76h.31v.41h-2.24c-.4,0-.69-.04-.86-.12-.17-.08-.3-.21-.4-.39-.1-.18-.15-.4-.15-.66,0-.31.07-.56.21-.75s.35-.28.63-.28M98.59,85.71c-.34,0-.59.07-.74.2-.16.13-.23.31-.23.51s.08.37.23.51c.16.14.4.21.73.21s.56-.07.72-.21c.16-.14.24-.31.24-.51s-.08-.36-.24-.5c-.16-.14-.39-.21-.71-.21h0Z"/>
  <path class="cls-6" d="M98.08,90.08l-.06.45c-.27-.07-.47-.21-.62-.4s-.22-.44-.22-.74c0-.38.12-.68.35-.9.23-.22.56-.33.98-.33s.77.11,1.02.34.36.52.36.87-.12.63-.35.85-.57.33-1,.33c-.03,0-.07,0-.12,0v-1.93c-.29.02-.5.1-.65.24s-.23.32-.23.54c0,.16.04.3.13.41s.22.21.41.27M98.79,88.64v1.45c.22-.02.38-.08.49-.17.17-.14.25-.32.25-.54,0-.2-.07-.37-.2-.51-.13-.14-.31-.21-.54-.23h0Z"/>
  <path class="cls-6" d="M98.02,90.77l.07.43c-.17.02-.31.09-.4.2-.09.11-.14.27-.14.47s.04.35.12.45c.08.1.18.15.29.15.1,0,.18-.04.23-.13.04-.06.09-.21.15-.45.08-.32.15-.55.21-.67.06-.12.14-.22.25-.28.1-.06.22-.1.35-.1.11,0,.22.03.32.08.1.05.18.13.25.22.05.07.09.16.13.28.04.12.05.25.05.38,0,.2-.03.38-.09.53s-.14.27-.24.34-.23.12-.4.15l-.06-.43c.13-.02.24-.08.31-.17.08-.09.11-.22.11-.4,0-.2-.03-.35-.1-.43-.07-.09-.14-.13-.23-.13-.06,0-.11.02-.15.05s-.09.09-.12.17c-.02.04-.05.17-.11.39-.08.31-.15.53-.21.65-.05.12-.13.22-.23.29-.1.07-.23.1-.38.1s-.29-.04-.42-.13c-.13-.09-.23-.21-.3-.37s-.1-.34-.1-.55c0-.34.07-.59.21-.77.14-.18.35-.29.62-.34h0Z"/>
  <line class="cls-5" x1="104.93" y1="55.84" x2="104.93" y2="59.34"/>
  <polygon class="cls-6" points="103.73 64.07 106.88 64.07 106.88 62.89 107.31 62.89 107.31 65.73 106.88 65.73 106.88 64.54 103.73 64.54 103.73 64.07 103.73 64.07"/>
  <path class="cls-6" d="M104.68,68.44l-.06.43c-.3-.05-.53-.17-.7-.36-.17-.19-.25-.43-.25-.72,0-.35.11-.64.35-.86.23-.21.57-.32,1-.32.28,0,.52.05.73.14s.37.23.47.42c.1.19.16.4.16.62,0,.28-.07.51-.21.69-.14.18-.34.29-.61.34l-.07-.43c.17-.04.31-.11.39-.22.09-.1.13-.23.13-.37,0-.22-.08-.4-.24-.54s-.41-.21-.75-.21-.6.07-.76.2-.24.31-.24.52c0,.17.05.32.16.43s.27.19.49.22h0Z"/>
  <path class="cls-6" d="M104.56,70.92l-.06.45c-.27-.07-.47-.21-.62-.4s-.22-.44-.22-.74c0-.38.12-.68.35-.9.23-.22.56-.33.98-.33s.77.11,1.02.34.36.52.36.87-.12.63-.35.85-.57.33-1,.33c-.03,0-.07,0-.12,0v-1.93c-.29.02-.5.1-.65.24s-.23.32-.23.54c0,.16.04.3.13.41s.22.21.41.27M105.27,69.48v1.45c.22-.02.38-.08.49-.17.17-.14.25-.32.25-.54,0-.2-.07-.37-.2-.51-.13-.14-.31-.21-.54-.23h0Z"/>
  <polygon class="cls-6" points="103.73 72.01 107.31 72.01 107.31 72.45 103.73 72.45 103.73 72.01 103.73 72.01"/>
  <polygon class="cls-6" points="103.73 73.21 107.31 73.21 107.31 73.65 103.73 73.65 103.73 73.21 103.73 73.21"/>
  <path class="cls-6" d="M104.5,74.01l.07.43c-.17.02-.31.09-.4.2-.09.11-.14.27-.14.47s.04.35.12.45c.08.1.18.15.29.15.1,0,.18-.04.23-.13.04-.06.09-.21.15-.45.08-.32.15-.55.21-.67.06-.12.14-.22.25-.28.1-.06.22-.1.35-.1.11,0,.22.03.32.08.1.05.18.13.25.22.05.07.09.16.13.28.04.12.05.25.05.38,0,.2-.03.38-.09.53s-.14.27-.24.34-.23.12-.4.15l-.06-.43c.13-.02.24-.08.31-.17.08-.09.11-.22.11-.4,0-.2-.03-.35-.1-.43s-.14-.13-.23-.13c-.06,0-.11.02-.15.05s-.09.09-.12.17c-.02.04-.05.17-.11.39-.08.31-.15.53-.21.65-.05.12-.13.22-.23.29s-.23.1-.38.1-.29-.04-.42-.13-.23-.21-.3-.37-.1-.34-.1-.55c0-.34.07-.59.21-.77.14-.18.35-.29.62-.34h0Z"/>
  <path class="cls-6" d="M58.78,112.87l.57.14c-.12.47-.33.82-.64,1.07-.31.24-.69.37-1.13.37s-.84-.09-1.13-.28c-.29-.19-.51-.46-.66-.82-.15-.36-.23-.74-.23-1.15,0-.45.08-.84.25-1.17.17-.33.42-.59.73-.76.32-.17.67-.26,1.04-.26.43,0,.79.11,1.08.33s.5.53.61.92l-.56.13c-.1-.31-.24-.54-.43-.68s-.43-.21-.71-.21c-.33,0-.61.08-.83.24-.22.16-.38.37-.47.64s-.13.54-.13.82c0,.37.05.69.16.96.11.27.27.47.5.61s.47.2.73.2c.32,0,.59-.09.81-.28s.37-.46.45-.82h0Z"/>
  <path class="cls-6" d="M62.09,113.37l.54.07c-.08.32-.25.57-.48.74s-.53.26-.89.26c-.45,0-.82-.14-1.08-.42-.27-.28-.4-.67-.4-1.18s.13-.93.4-1.22.62-.43,1.05-.43.76.14,1.02.42.4.68.4,1.2c0,.03,0,.08,0,.14h-2.32c.02.34.12.6.29.79s.39.27.65.27c.19,0,.36-.05.5-.15s.25-.26.33-.49M60.36,112.52h1.74c-.02-.26-.09-.46-.2-.59-.17-.2-.39-.3-.65-.3-.24,0-.45.08-.61.24-.16.16-.25.38-.27.65h0Z"/>
  <polygon class="cls-6" points="63.31 114.37 63.31 110.08 63.84 110.08 63.84 114.37 63.31 114.37 63.31 114.37"/>
  <polygon class="cls-6" points="64.51 114.37 64.51 110.08 65.04 110.08 65.04 114.37 64.51 114.37 64.51 114.37"/>
  <path class="cls-6" d="M68.8,113.9l.08.47c-.15.03-.28.05-.4.05-.19,0-.34-.03-.45-.09s-.18-.14-.22-.24c-.04-.1-.06-.31-.06-.62v-1.79h-.39v-.41h.39v-.77l.52-.32v1.09h.53v.41h-.53v1.82c0,.15,0,.25.03.29.02.04.05.08.09.1.04.03.1.04.18.04.06,0,.13,0,.23-.02h0Z"/>
  <path class="cls-6" d="M69.3,115.57l-.06-.5c.11.03.22.05.3.05.12,0,.21-.02.28-.06s.13-.09.17-.16c.03-.05.09-.18.16-.39,0-.03.03-.07.05-.13l-1.18-3.12h.57l.65,1.8c.08.23.16.47.23.72.06-.24.13-.48.22-.71l.67-1.81h.53l-1.18,3.16c-.13.34-.23.58-.3.71-.09.17-.2.3-.32.38-.12.08-.27.12-.43.12-.1,0-.21-.02-.34-.06h0Z"/>
  <path class="cls-6" d="M72.2,115.57v-4.3h.48v.4c.11-.16.24-.28.38-.35s.32-.12.52-.12c.27,0,.5.07.7.21s.36.33.46.58.16.52.16.82c0,.32-.06.61-.17.86s-.28.45-.5.59c-.22.13-.45.2-.69.2-.18,0-.33-.04-.47-.11-.14-.07-.25-.17-.34-.28v1.51h-.53M72.68,112.84c0,.4.08.7.24.89s.36.29.59.29.43-.1.6-.3c.17-.2.25-.51.25-.92s-.08-.69-.25-.89c-.16-.2-.36-.3-.58-.3s-.42.11-.6.32c-.17.21-.26.51-.26.91h0Z"/>
  <path class="cls-6" d="M77.69,113.37l.54.07c-.08.32-.25.57-.48.74s-.53.26-.89.26c-.45,0-.82-.14-1.08-.42-.27-.28-.4-.67-.4-1.18s.13-.93.4-1.22.62-.43,1.05-.43.76.14,1.02.42.4.68.4,1.2c0,.03,0,.08,0,.14h-2.32c.02.34.12.6.29.79s.39.27.65.27c.19,0,.36-.05.5-.15s.25-.26.33-.49M75.96,112.52h1.74c-.02-.26-.09-.46-.2-.59-.17-.2-.39-.3-.65-.3-.24,0-.45.08-.61.24-.16.16-.25.38-.27.65h0Z"/>
  <line class="cls-5" x1="25.03" y1="55.23" x2="21.53" y2="55.23"/>
  <path class="cls-6" d="M12.74,56.08l.46-.04c.03.22.11.39.24.51.12.11.28.17.45.17.21,0,.39-.08.54-.24.15-.16.22-.37.22-.63s-.07-.45-.21-.59c-.14-.14-.32-.22-.55-.22-.14,0-.27.03-.38.1-.11.06-.2.15-.27.25l-.41-.05.35-1.84h1.78v.42h-1.43l-.19.96c.21-.15.44-.22.68-.22.31,0,.58.11.79.32.21.22.32.5.32.83s-.1.6-.28.84c-.23.29-.54.43-.94.43-.32,0-.59-.09-.8-.27-.21-.18-.32-.42-.35-.73h0Z"/>
  <path class="cls-6" d="M15.38,55.25c0-.42.04-.76.13-1.02.09-.26.22-.46.39-.6.17-.14.39-.21.65-.21.19,0,.36.04.51.12.14.08.26.19.36.33.1.14.17.32.22.53.05.21.08.49.08.84,0,.42-.04.76-.13,1.02-.09.26-.21.46-.39.6-.17.14-.39.21-.65.21-.34,0-.62-.12-.81-.37-.24-.3-.35-.78-.35-1.46M15.83,55.25c0,.59.07.98.21,1.17.14.19.31.29.51.29s.37-.1.51-.29c.14-.2.21-.59.21-1.17s-.07-.98-.21-1.17c-.14-.19-.31-.29-.51-.29s-.36.09-.48.26c-.15.22-.23.62-.23,1.21h0Z"/>
  <line class="cls-5" x1="25.03" y1="23.34" x2="21.53" y2="23.34"/>
  <path class="cls-6" d="M11.51,25.09h-.44v-2.8c-.1.1-.24.2-.42.3-.17.1-.32.18-.46.23v-.42c.25-.11.46-.26.64-.42s.31-.32.39-.48h.28v3.59h0Z"/>
  <path class="cls-6" d="M12.74,23.33c0-.42.04-.76.13-1.02.09-.26.22-.46.39-.6.17-.14.39-.21.65-.21.19,0,.36.04.51.12.14.08.26.19.36.33.1.14.17.32.22.53.05.21.08.49.08.84,0,.42-.04.76-.13,1.02-.09.26-.21.46-.39.6-.17.14-.39.21-.65.21-.34,0-.62-.12-.81-.37-.24-.3-.35-.78-.35-1.46M13.19,23.33c0,.59.07.98.21,1.17.14.19.31.29.51.29s.37-.1.51-.29c.14-.2.21-.59.21-1.17s-.07-.98-.21-1.17c-.14-.19-.31-.29-.51-.29s-.36.09-.48.26c-.15.22-.23.62-.23,1.21h0Z"/>
  <path class="cls-6" d="M15.38,23.33c0-.42.04-.76.13-1.02.09-.26.22-.46.39-.6.17-.14.39-.21.65-.21.19,0,.36.04.51.12.14.08.26.19.36.33.1.14.17.32.22.53.05.21.08.49.08.84,0,.42-.04.76-.13,1.02-.09.26-.21.46-.39.6-.17.14-.39.21-.65.21-.34,0-.62-.12-.81-.37-.24-.3-.35-.78-.35-1.46M15.83,23.33c0,.59.07.98.21,1.17.14.19.31.29.51.29s.37-.1.51-.29c.14-.2.21-.59.21-1.17s-.07-.98-.21-1.17c-.14-.19-.31-.29-.51-.29s-.36.09-.48.26c-.15.22-.23.62-.23,1.21h0Z"/>
  <path class="cls-6" d="M4.44,46.15l-1.25-.25v.5h-.44v-.58l-1.06-.22v.8h-.44v-.89l-1.26-.25v-.44l1.26.25v-.92l-1.26-.25v-.44l1.26.25v-.51h.44v.59l1.06.22v-.81h.44v.9l1.25.25v.44l-1.25-.25v.92l1.25.25v.44M2.76,45.37v-.92l-1.06-.22v.92l1.06.22h0Z"/>
  <polygon class="cls-6" points="4.37 40.1 .58 40.1 .58 41.51 .07 41.51 .07 38.11 .58 38.11 .58 39.53 4.37 39.53 4.37 40.1 4.37 40.1"/>
  <path class="cls-6" d="M3.98,36.11c.17.2.28.38.35.57.07.18.1.37.1.58,0,.34-.08.6-.25.79s-.38.28-.64.28c-.15,0-.29-.04-.42-.1-.13-.07-.23-.16-.3-.27-.08-.11-.13-.24-.17-.38-.03-.1-.05-.26-.08-.47-.05-.42-.11-.74-.18-.94-.07,0-.12,0-.14,0-.21,0-.37.05-.45.15-.12.13-.18.33-.18.6,0,.25.04.43.13.55.08.12.24.21.46.26l-.07.52c-.22-.05-.4-.12-.53-.23-.14-.11-.24-.26-.31-.47s-.11-.44-.11-.71.03-.48.09-.65.14-.29.24-.37c.09-.08.21-.13.36-.16.09-.02.25-.03.49-.03h.7c.49,0,.8-.01.93-.03.13-.02.25-.07.37-.13v.55c-.11.06-.24.09-.38.11M2.81,36.15c.08.19.14.48.2.86.03.22.07.37.11.46s.1.16.17.21c.07.05.16.07.25.07.14,0,.26-.05.35-.16.09-.11.14-.26.14-.47s-.04-.38-.13-.54c-.09-.16-.21-.28-.37-.35-.12-.06-.3-.08-.53-.08h-.19Z"/>
  <path class="cls-6" d="M4.37,34.78H1.26v-.47h.47c-.22-.12-.37-.23-.44-.33s-.11-.22-.11-.34c0-.18.06-.36.17-.54l.49.18c-.08.13-.11.26-.11.39,0,.11.04.22.11.31.07.09.16.16.29.2.19.06.39.09.62.09h1.63v.53h0Z"/>
  <path class="cls-6" d="M4.63,32.96l.08-.51c.16-.02.27-.08.35-.18.1-.13.15-.31.15-.54,0-.24-.05-.43-.15-.57s-.23-.22-.41-.27c-.11-.03-.33-.04-.68-.04.27.23.41.52.41.86,0,.43-.16.76-.46.99s-.68.35-1.11.35c-.3,0-.57-.05-.82-.16-.25-.11-.45-.26-.58-.47-.14-.21-.21-.45-.21-.72,0-.37.15-.67.45-.91h-.38v-.49h2.69c.48,0,.83.05,1.03.15.2.1.36.25.48.47s.18.47.18.79c0,.37-.08.67-.25.9s-.42.34-.75.33M2.76,32.52c.41,0,.71-.08.89-.24s.28-.37.28-.61-.09-.45-.28-.61c-.19-.16-.48-.25-.88-.25s-.67.08-.86.25c-.19.17-.29.37-.29.61s.1.43.29.6.47.25.85.25h0Z"/>
  <path class="cls-6" d="M3.37,27.37l.07-.54c.32.08.57.25.74.48s.26.53.26.89c0,.45-.14.82-.42,1.08-.28.27-.67.4-1.18.4s-.93-.13-1.22-.4-.43-.62-.43-1.05.14-.76.42-1.02.68-.4,1.2-.4c.03,0,.08,0,.14,0v2.32c.34-.02.6-.12.79-.29s.27-.39.27-.65c0-.19-.05-.36-.15-.5s-.26-.25-.49-.33M2.51,29.1v-1.74c-.26.02-.46.09-.59.2-.2.17-.3.39-.3.65,0,.24.08.45.24.61.16.16.38.25.65.27h0Z"/>
  <path class="cls-6" d="M3.9,24.99l.47-.08c.03.15.05.28.05.4,0,.19-.03.34-.09.45s-.14.18-.24.22c-.1.04-.31.06-.62.06h-1.79v.39h-.41v-.39H.49l-.32-.52h1.09v-.53h.41v.53h1.82c.15,0,.25,0,.29-.03.04-.02.08-.05.1-.09.03-.04.04-.1.04-.18,0-.06,0-.13-.02-.23h0Z"/>
  <path class="cls-6" d="M4.63,22.88l.08-.51c.16-.02.27-.08.35-.18.1-.13.15-.31.15-.54,0-.24-.05-.43-.15-.57s-.23-.22-.41-.27c-.11-.03-.33-.04-.68-.04.27.23.41.52.41.86,0,.43-.16.76-.46.99s-.68.35-1.11.35c-.3,0-.57-.05-.82-.16-.25-.11-.45-.26-.58-.47-.14-.21-.21-.45-.21-.72,0-.37.15-.67.45-.91h-.38v-.49h2.69c.48,0,.83.05,1.03.15.2.1.36.25.48.47s.18.47.18.79c0,.37-.08.67-.25.9s-.42.34-.75.33M2.76,22.44c.41,0,.71-.08.89-.24s.28-.37.28-.61-.09-.45-.28-.61c-.19-.16-.48-.25-.88-.25s-.67.08-.86.25c-.19.17-.29.37-.29.61s.1.43.29.6.47.25.85.25h0Z"/>
  <path class="cls-6" d="M3.37,17.29l.07-.54c.32.08.57.25.74.48s.26.53.26.89c0,.45-.14.82-.42,1.08-.28.27-.67.4-1.18.4s-.93-.13-1.22-.4-.43-.62-.43-1.05.14-.76.42-1.02.68-.4,1.2-.4c.03,0,.08,0,.14,0v2.32c.34-.02.6-.12.79-.29s.27-.39.27-.65c0-.19-.05-.36-.15-.5s-.26-.25-.49-.33M2.51,19.02v-1.74c-.26.02-.46.09-.59.2-.2.17-.3.39-.3.65,0,.24.08.45.24.61.16.16.38.25.65.27h0Z"/>
  <path class="cls-6" d="M4.37,16.06H1.26v-.47h.44c-.34-.23-.51-.56-.51-.99,0-.19.04-.36.1-.52.07-.16.16-.28.26-.35s.24-.13.39-.16c.1-.02.27-.03.51-.03h1.91v.53h-1.89c-.21,0-.38.02-.48.06-.11.04-.19.11-.25.22-.06.1-.1.23-.1.37,0,.23.07.42.21.58.14.16.41.24.81.24h1.7v.53h0Z"/>
  <path class="cls-6" d="M3.37,10.57l.07-.54c.32.08.57.25.74.48s.26.53.26.89c0,.45-.14.82-.42,1.08-.28.27-.67.4-1.18.4s-.93-.13-1.22-.4-.43-.62-.43-1.05.14-.76.42-1.02.68-.4,1.2-.4c.03,0,.08,0,.14,0v2.32c.34-.02.6-.12.79-.29s.27-.39.27-.65c0-.19-.05-.36-.15-.5s-.26-.25-.49-.33M2.51,12.3v-1.74c-.26.02-.46.09-.59.2-.2.17-.3.39-.3.65,0,.24.08.45.24.61.16.16.38.25.65.27h0Z"/>
  <g class="cls-8">
    <polyline class="cls-1" points="28.84 4.2 35.18 53.32 41.52 53.32 47.86 53.32 54.2 4.2 60.54 53.32 66.88 4.2 73.22 53.32 79.56 4.2 85.91 53.32 92.25 4.2 98.59 2.92 104.93 4.2"/>
    <path class="cls-4" d="M28.84,5.7c.4,0,.78-.16,1.06-.44.28-.28.44-.66.44-1.06s-.16-.78-.44-1.06c-.28-.28-.66-.44-1.06-.44s-.78.16-1.06.44c-.28.28-.44.66-.44,1.06s.16.78.44,1.06c.28.28.66.44,1.06.44h0ZM35.18,54.82c.4,0,.78-.16,1.06-.44.28-.28.44-.66.44-1.06s-.16-.78-.44-1.06c-.28-.28-.66-.44-1.06-.44s-.78.16-1.06.44c-.28.28-.44.66-.44,1.06s.16.78.44,1.06c.28.28.66.44,1.06.44h0ZM41.52,54.82c.4,0,.78-.16,1.06-.44.28-.28.44-.66.44-1.06s-.16-.78-.44-1.06c-.28-.28-.66-.44-1.06-.44s-.78.16-1.06.44c-.28.28-.44.66-.44,1.06s.16.78.44,1.06c.28.28.66.44,1.06.44h0ZM47.86,54.82c.4,0,.78-.16,1.06-.44.28-.28.44-.66.44-1.06s-.16-.78-.44-1.06c-.28-.28-.66-.44-1.06-.44s-.78.16-1.06.44c-.28.28-.44.66-.44,1.06s.16.78.44,1.06c.28.28.66.44,1.06.44h0ZM54.2,5.7c.4,0,.78-.16,1.06-.44.28-.28.44-.66.44-1.06s-.16-.78-.44-1.06c-.28-.28-.66-.44-1.06-.44s-.78.16-1.06.44c-.28.28-.44.66-.44,1.06s.16.78.44,1.06c.28.28.66.44,1.06.44h0ZM60.54,54.82c.4,0,.78-.16,1.06-.44.28-.28.44-.66.44-1.06s-.16-.78-.44-1.06c-.28-.28-.66-.44-1.06-.44s-.78.16-1.06.44c-.28.28-.44.66-.44,1.06s.16.78.44,1.06c.28.28.66.44,1.06.44h0ZM66.88,5.7c.4,0,.78-.16,1.06-.44.28-.28.44-.66.44-1.06s-.16-.78-.44-1.06c-.28-.28-.66-.44-1.06-.44s-.78.16-1.06.44c-.28.28-.44.66-.44,1.06s.16.78.44,1.06c.28.28.66.44,1.06.44h0ZM73.22,54.82c.4,0,.78-.16,1.06-.44.28-.28.44-.66.44-1.06s-.16-.78-.44-1.06c-.28-.28-.66-.44-1.06-.44s-.78.16-1.06.44c-.28.28-.44.66-.44,1.06s.16.78.44,1.06c.28.28.66.44,1.06.44h0ZM79.56,5.7c.4,0,.78-.16,1.06-.44.28-.28.44-.66.44-1.06s-.16-.78-.44-1.06c-.28-.28-.66-.44-1.06-.44s-.78.16-1.06.44c-.28.28-.44.66-.44,1.06s.16.78.44,1.06c.28.28.66.44,1.06.44h0ZM85.91,54.82c.4,0,.78-.16,1.06-.44.28-.28.44-.66.44-1.06s-.16-.78-.44-1.06c-.28-.28-.66-.44-1.06-.44s-.78.16-1.06.44c-.28.28-.44.66-.44,1.06s.16.78.44,1.06c.28.28.66.44,1.06.44h0ZM92.25,5.7c.4,0,.78-.16,1.06-.44.28-.28.44-.66.44-1.06s-.16-.78-.44-1.06c-.28-.28-.66-.44-1.06-.44s-.78.16-1.06.44c-.28.28-.44.66-.44,1.06s.16.78.44,1.06c.28.28.66.44,1.06.44h0ZM98.59,4.42c.4,0,.78-.16,1.06-.44.28-.28.44-.66.44-1.06s-.16-.78-.44-1.06c-.28-.28-.66-.44-1.06-.44s-.78.16-1.06.44c-.28.28-.44.66-.44,1.06s.16.78.44,1.06c.28.28.66.44,1.06.44h0ZM104.93,5.7c.4,0,.78-.16,1.06-.44.28-.28.44-.66.44-1.06s-.16-.78-.44-1.06c-.28-.28-.66-.44-1.06-.44s-.78.16-1.06.44c-.28.28-.44.66-.44,1.06s.16.78.44,1.06c.28.28.66.44,1.06.44h0Z"/>
  </g>
  <path class="cls-3" d="M25.03,55.84V.4M108.73,55.84V.4M25.03,55.84h83.7M25.03.4h83.7"/>
</svg>