<?xml version="1.0" encoding="UTF-8"?>
<svg id="_图层_1" data-name="图层 1" xmlns="http://www.w3.org/2000/svg" viewBox="0 0 106.35 84.51">
  <defs>
    <style>
      .cls-1 {
        stroke-width: .5px;
      }

      .cls-1, .cls-2 {
        stroke: #2ea7e0;
      }

      .cls-1, .cls-2, .cls-3 {
        stroke-linejoin: round;
      }

      .cls-1, .cls-4, .cls-5 {
        fill: none;
      }

      .cls-1, .cls-5 {
        stroke-linecap: square;
      }

      .cls-2 {
        fill: #fff;
      }

      .cls-4, .cls-6 {
        stroke-width: 0px;
      }

      .cls-3, .cls-6 {
        fill: #000;
      }

      .cls-3, .cls-5 {
        stroke: #000;
        stroke-width: .8px;
      }

      .cls-6 {
        fill-rule: evenodd;
      }

      .cls-5 {
        stroke-miterlimit: 10;
      }
    </style>
  </defs>
  <polyline class="cls-1" points="26.06 36.52 38.74 53.32 51.42 19.72 64.1 19.72 76.78 53.32 89.46 36.52 102.15 2.92"/>
  <line class="cls-3" x1="26.06" y1="55.84" x2="26.06" y2="59.34"/>
  <path class="cls-6" d="M24.77,63.22h3.58v.71l-2.53.85c-.24.08-.41.13-.53.17.13.04.32.1.57.19l2.49.86v.64h-3.58v-.46h3l-3-1.04v-.43l3.05-1.04h-3.05v-.46h0Z"/>
  <path class="cls-6" d="M25.92,67.15l.04.45c-.18.02-.33.07-.44.15-.11.08-.21.2-.28.36-.07.16-.1.35-.1.55,0,.18.03.34.08.48.05.14.13.24.22.31.1.07.2.1.31.1s.21-.03.29-.1c.09-.07.16-.17.21-.32.04-.1.1-.31.17-.64.08-.33.15-.56.22-.69.09-.17.2-.3.33-.38.13-.08.28-.12.45-.12.18,0,.35.05.51.15.16.1.28.25.36.45s.12.42.12.66c0,.27-.04.5-.13.7-.09.2-.21.36-.38.47-.17.11-.35.17-.56.18l-.03-.45c.23-.02.4-.11.51-.25.11-.14.17-.35.17-.62s-.05-.5-.16-.63c-.1-.13-.23-.2-.38-.2-.13,0-.23.05-.32.14-.08.09-.17.33-.26.71-.09.39-.16.65-.23.79-.1.21-.22.36-.37.46-.15.1-.31.15-.51.15s-.37-.05-.54-.16-.3-.27-.39-.47c-.09-.2-.14-.43-.14-.69,0-.32.05-.6.14-.82.1-.22.24-.39.42-.52.19-.12.41-.19.64-.2h0Z"/>
  <polygon class="cls-6" points="24.77 70.68 28.35 70.68 28.35 73.27 27.92 73.27 27.92 71.16 26.83 71.16 26.83 73.14 26.41 73.14 26.41 71.16 25.19 71.16 25.19 73.36 24.77 73.36 24.77 70.68 24.77 70.68"/>
  <line class="cls-3" x1="38.74" y1="55.84" x2="38.74" y2="59.34"/>
  <path class="cls-6" d="M37.49,63.22h3.58v.71l-2.53.85c-.24.08-.41.13-.53.17.13.04.32.1.57.19l2.49.86v.64h-3.58v-.46h3l-3-1.04v-.43l3.05-1.04h-3.05v-.46h0Z"/>
  <path class="cls-6" d="M38.64,67.15l.04.45c-.18.02-.33.07-.44.15-.11.08-.21.2-.28.36-.07.16-.1.35-.1.55,0,.18.03.34.08.48.05.14.13.24.22.31.1.07.2.1.31.1s.21-.03.29-.1c.09-.07.16-.17.21-.32.04-.1.1-.31.17-.64.08-.33.15-.56.22-.69.09-.17.2-.3.33-.38.13-.08.28-.12.45-.12.18,0,.35.05.51.15.16.1.28.25.36.45s.12.42.12.66c0,.27-.04.5-.13.7-.09.2-.21.36-.38.47-.17.11-.35.17-.56.18l-.03-.45c.23-.02.4-.11.51-.25.11-.14.17-.35.17-.62s-.05-.5-.16-.63c-.1-.13-.23-.2-.38-.2-.13,0-.23.05-.32.14-.08.09-.17.33-.26.71-.09.39-.16.65-.23.79-.1.21-.22.36-.37.46-.15.1-.31.15-.51.15s-.37-.05-.54-.16-.3-.27-.39-.47c-.09-.2-.14-.43-.14-.69,0-.32.05-.6.14-.82.1-.22.24-.39.42-.52.19-.12.41-.19.64-.2h0Z"/>
  <line class="cls-3" x1="51.42" y1="55.84" x2="51.42" y2="59.34"/>
  <polygon class="cls-6" points="50.21 63.24 53.79 63.24 53.79 65.83 53.36 65.83 53.36 63.72 52.27 63.72 52.27 65.7 51.85 65.7 51.85 63.72 50.63 63.72 50.63 65.92 50.21 65.92 50.21 63.24 50.21 63.24"/>
  <line class="cls-3" x1="64.1" y1="55.84" x2="64.1" y2="59.34"/>
  <path class="cls-6" d="M62.69,63.22h3.58v.71l-2.53.85c-.24.08-.41.13-.53.17.13.04.32.1.57.19l2.49.86v.64h-3.58v-.46h3l-3-1.04v-.43l3.05-1.04h-3.05v-.46h0Z"/>
  <path class="cls-6" d="M63.84,67.15l.04.45c-.18.02-.33.07-.44.15-.11.08-.21.2-.28.36-.07.16-.1.35-.1.55,0,.18.03.34.08.48.05.14.13.24.22.31.1.07.2.1.31.1s.21-.03.29-.1c.09-.07.16-.17.21-.32.04-.1.1-.31.17-.64.08-.33.15-.56.22-.69.09-.17.2-.3.33-.38.13-.08.28-.12.45-.12.18,0,.35.05.51.15.16.1.28.25.36.45s.12.42.12.66c0,.27-.04.5-.13.7-.09.2-.21.36-.38.47-.17.11-.35.17-.56.18l-.03-.45c.23-.02.4-.11.51-.25.11-.14.17-.35.17-.62s-.05-.5-.16-.63c-.1-.13-.23-.2-.38-.2-.13,0-.23.05-.32.14-.08.09-.17.33-.26.71-.09.39-.16.65-.23.79-.1.21-.22.36-.37.46-.15.1-.31.15-.51.15s-.37-.05-.54-.16-.3-.27-.39-.47c-.09-.2-.14-.43-.14-.69,0-.32.05-.6.14-.82.1-.22.24-.39.42-.52.19-.12.41-.19.64-.2h0Z"/>
  <path class="cls-6" d="M61.69,70.62h3.59v.4h-.34c.13.1.23.2.3.32s.1.26.1.43c0,.22-.06.42-.17.59-.11.17-.28.3-.48.38-.21.09-.43.13-.68.13-.27,0-.51-.05-.72-.14s-.37-.23-.49-.42c-.11-.18-.17-.37-.17-.57,0-.15.03-.28.09-.4.06-.11.14-.21.23-.29h-1.26v-.44M63.97,71.02c-.33,0-.58.07-.74.2-.16.13-.24.3-.24.49s.08.36.25.5c.17.14.42.21.77.21s.58-.07.74-.21c.16-.13.25-.3.25-.49s-.09-.35-.26-.5c-.17-.14-.43-.21-.76-.21h0Z"/>
  <polygon class="cls-6" points="63.76 73.33 64.2 73.33 64.2 74.68 63.76 74.68 63.76 73.33 63.76 73.33"/>
  <line class="cls-3" x1="76.78" y1="55.84" x2="76.78" y2="59.34"/>
  <path class="cls-6" d="M75.41,63.22h3.58v.71l-2.53.85c-.24.08-.41.13-.53.17.13.04.32.1.57.19l2.49.86v.64h-3.58v-.46h3l-3-1.04v-.43l3.05-1.04h-3.05v-.46h0Z"/>
  <path class="cls-6" d="M76.56,67.15l.04.45c-.18.02-.33.07-.44.15-.11.08-.21.2-.28.36-.07.16-.1.35-.1.55,0,.18.03.34.08.48.05.14.13.24.22.31.1.07.2.1.31.1s.21-.03.29-.1c.09-.07.16-.17.21-.32.04-.1.1-.31.17-.64.08-.33.15-.56.22-.69.09-.17.2-.3.33-.38.13-.08.28-.12.45-.12.18,0,.35.05.51.15.16.1.28.25.36.45s.12.42.12.66c0,.27-.04.5-.13.7-.09.2-.21.36-.38.47-.17.11-.35.17-.56.18l-.03-.45c.23-.02.4-.11.51-.25.11-.14.17-.35.17-.62s-.05-.5-.16-.63c-.1-.13-.23-.2-.38-.2-.13,0-.23.05-.32.14-.08.09-.17.33-.26.71-.09.39-.16.65-.23.79-.1.21-.22.36-.37.46-.15.1-.31.15-.51.15s-.37-.05-.54-.16-.3-.27-.39-.47c-.09-.2-.14-.43-.14-.69,0-.32.05-.6.14-.82.1-.22.24-.39.42-.52.19-.12.41-.19.64-.2h0Z"/>
  <path class="cls-6" d="M75.73,72.31c-.14-.16-.24-.32-.29-.47-.06-.15-.09-.31-.09-.48,0-.29.07-.5.21-.66s.32-.23.53-.23c.13,0,.24.03.35.09.1.06.19.13.25.23.06.1.11.2.14.32.02.09.04.22.07.39.04.35.09.62.15.78.06,0,.1,0,.11,0,.18,0,.31-.04.38-.12.1-.11.15-.28.15-.5,0-.21-.04-.36-.11-.46-.07-.1-.2-.17-.38-.22l.06-.43c.18.04.33.1.44.19.11.09.2.22.26.39.06.17.09.37.09.59s-.03.4-.08.54-.12.24-.2.31c-.08.07-.18.11-.3.14-.08.01-.21.02-.41.02h-.59c-.41,0-.67,0-.78.03-.11.02-.21.06-.31.11v-.46c.09-.05.2-.08.32-.09M76.71,72.27c-.07-.16-.12-.4-.17-.72-.03-.18-.06-.31-.09-.38-.03-.08-.08-.13-.14-.17-.06-.04-.13-.06-.21-.06-.12,0-.21.04-.29.13-.08.09-.12.22-.12.39s.04.32.11.45c.08.13.18.23.31.29.1.05.25.07.44.07h.16Z"/>
  <polygon class="cls-6" points="76.48 73.33 76.92 73.33 76.92 74.68 76.48 74.68 76.48 73.33 76.48 73.33"/>
  <line class="cls-3" x1="89.46" y1="55.84" x2="89.46" y2="59.34"/>
  <polygon class="cls-6" points="88.13 63.24 91.71 63.24 91.71 65.83 91.28 65.83 91.28 63.72 90.19 63.72 90.19 65.7 89.77 65.7 89.77 63.72 88.55 63.72 88.55 65.92 88.13 65.92 88.13 63.24 88.13 63.24"/>
  <path class="cls-6" d="M87.13,66.54h3.59v.4h-.34c.13.1.23.2.3.32.07.12.1.26.1.43,0,.22-.06.42-.17.59-.11.17-.28.3-.48.38-.21.09-.43.13-.68.13-.27,0-.51-.05-.72-.14s-.37-.23-.49-.42c-.11-.18-.17-.37-.17-.57,0-.15.03-.28.09-.4.06-.11.14-.21.23-.29h-1.26v-.44M89.41,66.94c-.33,0-.58.07-.74.2-.16.13-.24.3-.24.49s.08.36.25.5c.17.14.42.21.77.21s.58-.07.74-.21c.16-.13.25-.3.25-.49s-.09-.35-.26-.5c-.17-.14-.43-.21-.76-.21h0Z"/>
  <polygon class="cls-6" points="89.2 69.01 89.64 69.01 89.64 70.36 89.2 70.36 89.2 69.01 89.2 69.01"/>
  <line class="cls-3" x1="102.15" y1="55.84" x2="102.15" y2="59.34"/>
  <polygon class="cls-6" points="100.85 63.24 104.43 63.24 104.43 65.83 104 65.83 104 63.72 102.91 63.72 102.91 65.7 102.49 65.7 102.49 63.72 101.27 63.72 101.27 65.92 100.85 65.92 100.85 63.24 100.85 63.24"/>
  <path class="cls-6" d="M101.17,68.23c-.14-.16-.24-.32-.29-.47-.06-.15-.09-.31-.09-.48,0-.29.07-.5.21-.66s.32-.23.53-.23c.13,0,.24.03.35.09.1.06.19.13.25.23.06.1.11.2.14.32.02.09.04.22.07.39.04.35.09.62.15.78.06,0,.1,0,.11,0,.18,0,.31-.04.38-.12.1-.11.15-.28.15-.5,0-.21-.04-.36-.11-.46-.07-.1-.2-.17-.38-.22l.06-.43c.18.04.33.1.44.19.11.09.2.22.26.39.06.17.09.37.09.59s-.03.4-.08.54-.12.24-.2.31c-.08.07-.18.11-.3.14-.08.01-.21.02-.41.02h-.59c-.41,0-.67,0-.78.03-.11.02-.21.06-.31.11v-.46c.09-.05.2-.08.32-.09M102.15,68.19c-.07-.16-.12-.4-.17-.72-.03-.18-.06-.31-.09-.38-.03-.08-.08-.13-.14-.17-.06-.04-.13-.06-.21-.06-.12,0-.21.04-.29.13-.08.09-.12.22-.12.39s.04.32.11.45c.08.13.18.23.31.29.1.05.25.07.44.07h.16Z"/>
  <polygon class="cls-6" points="101.92 69.01 102.36 69.01 102.36 70.36 101.92 70.36 101.92 69.01 101.92 69.01"/>
  <path class="cls-6" d="M55.9,81.74l.57.14c-.12.47-.33.82-.64,1.07-.31.24-.69.37-1.13.37s-.84-.09-1.13-.28c-.29-.19-.51-.46-.66-.82-.15-.36-.23-.74-.23-1.15,0-.45.08-.84.25-1.17.17-.33.42-.59.73-.76.32-.17.67-.26,1.04-.26.43,0,.79.11,1.08.33s.5.53.61.92l-.56.13c-.1-.31-.24-.54-.43-.68s-.43-.21-.71-.21c-.33,0-.61.08-.83.24-.22.16-.38.37-.47.64s-.13.54-.13.82c0,.37.05.69.16.96.11.27.27.47.5.61s.47.2.73.2c.32,0,.59-.09.81-.28s.37-.46.45-.82h0Z"/>
  <path class="cls-6" d="M59.21,82.25l.54.07c-.08.32-.25.57-.48.74s-.53.26-.89.26c-.45,0-.82-.14-1.08-.42-.27-.28-.4-.67-.4-1.18s.13-.93.4-1.22.62-.43,1.05-.43.76.14,1.02.42.4.68.4,1.2c0,.03,0,.08,0,.14h-2.32c.02.34.12.6.29.79s.39.27.65.27c.19,0,.36-.05.5-.15s.25-.26.33-.49M57.48,81.39h1.74c-.02-.26-.09-.46-.2-.59-.17-.2-.39-.3-.65-.3-.24,0-.45.08-.61.24-.16.16-.25.38-.27.65h0Z"/>
  <polygon class="cls-6" points="60.43 83.25 60.43 78.95 60.96 78.95 60.96 83.25 60.43 83.25 60.43 83.25"/>
  <polygon class="cls-6" points="61.87 83.25 61.87 78.95 62.4 78.95 62.4 83.25 61.87 83.25 61.87 83.25"/>
  <path class="cls-6" d="M65.92,82.78l.08.47c-.15.03-.28.05-.4.05-.19,0-.34-.03-.45-.09s-.18-.14-.22-.24c-.04-.1-.06-.31-.06-.62v-1.79h-.39v-.41h.39v-.77l.52-.32v1.09h.53v.41h-.53v1.82c0,.15,0,.25.03.29.02.04.05.08.09.1.04.03.1.04.18.04.06,0,.13,0,.23-.02h0Z"/>
  <path class="cls-6" d="M66.42,84.45l-.06-.5c.11.03.22.05.3.05.12,0,.21-.02.28-.06s.13-.09.17-.16c.03-.05.09-.18.16-.39,0-.03.03-.07.05-.13l-1.18-3.12h.57l.65,1.8c.08.23.16.47.23.72.06-.24.13-.48.22-.71l.67-1.81h.53l-1.18,3.16c-.13.34-.23.58-.3.71-.09.17-.2.3-.32.38-.12.08-.27.12-.43.12-.1,0-.21-.02-.34-.06h0Z"/>
  <path class="cls-6" d="M69.56,84.44v-4.3h.48v.4c.11-.16.24-.28.38-.35s.32-.12.52-.12c.27,0,.5.07.7.21s.36.33.46.58.16.52.16.82c0,.32-.06.61-.17.86s-.28.45-.5.59c-.22.13-.45.2-.69.2-.18,0-.33-.04-.47-.11-.14-.07-.25-.17-.34-.28v1.51h-.53M70.04,81.71c0,.4.08.7.24.89s.36.29.59.29.43-.1.6-.3c.17-.2.25-.51.25-.92s-.08-.69-.25-.89c-.16-.2-.36-.3-.58-.3s-.42.11-.6.32c-.17.21-.26.51-.26.91h0Z"/>
  <path class="cls-6" d="M75.05,82.25l.54.07c-.08.32-.25.57-.48.74s-.53.26-.89.26c-.45,0-.82-.14-1.08-.42-.27-.28-.4-.67-.4-1.18s.13-.93.4-1.22.62-.43,1.05-.43.76.14,1.02.42.4.68.4,1.2c0,.03,0,.08,0,.14h-2.32c.02.34.12.6.29.79s.39.27.65.27c.19,0,.36-.05.5-.15s.25-.26.33-.49M73.32,81.39h1.74c-.02-.26-.09-.46-.2-.59-.17-.2-.39-.3-.65-.3-.24,0-.45.08-.61.24-.16.16-.25.38-.27.65h0Z"/>
  <line class="cls-3" x1="22.25" y1="53.32" x2="18.75" y2="53.32"/>
  <path class="cls-6" d="M9.86,54.22l.44-.06c.05.25.14.43.26.54.12.11.27.16.44.16.21,0,.38-.07.52-.21.14-.14.21-.32.21-.53s-.07-.37-.2-.5c-.13-.13-.3-.2-.5-.2-.08,0-.19.02-.31.05l.05-.39s.05,0,.07,0c.19,0,.36-.05.51-.15s.22-.25.22-.45c0-.16-.05-.3-.16-.4s-.25-.16-.42-.16-.31.05-.43.16-.19.27-.22.48l-.44-.08c.05-.3.18-.52.37-.68.19-.16.43-.24.71-.24.2,0,.38.04.54.13.16.08.29.2.38.34.09.14.13.3.13.46,0,.15-.04.3-.12.42s-.21.23-.37.3c.21.05.38.15.49.31s.18.34.18.58c0,.31-.11.58-.34.8s-.52.32-.86.32c-.31,0-.58-.09-.78-.28s-.32-.43-.35-.73h0Z"/>
  <path class="cls-6" d="M14.14,55.17v-.86h-1.55v-.4l1.63-2.32h.36v2.32h.48v.4h-.48v.86h-.44M14.14,53.91v-1.61l-1.12,1.61h1.12Z"/>
  <line class="cls-3" x1="22.25" y1="19.72" x2="18.75" y2="19.72"/>
  <path class="cls-6" d="M9.86,20.62l.44-.06c.05.25.14.43.26.54.12.11.27.16.44.16.21,0,.38-.07.52-.21.14-.14.21-.32.21-.53s-.07-.37-.2-.5c-.13-.13-.3-.2-.5-.2-.08,0-.19.02-.31.05l.05-.39s.05,0,.07,0c.19,0,.36-.05.51-.15s.22-.25.22-.45c0-.16-.05-.3-.16-.4s-.25-.16-.42-.16-.31.05-.43.16-.19.27-.22.48l-.44-.08c.05-.3.18-.52.37-.68.19-.16.43-.24.71-.24.2,0,.38.04.54.13.16.08.29.2.38.34.09.14.13.3.13.46,0,.15-.04.3-.12.42s-.21.23-.37.3c.21.05.38.15.49.31s.18.34.18.58c0,.31-.11.58-.34.8s-.52.32-.86.32c-.31,0-.58-.09-.78-.28s-.32-.43-.35-.73h0Z"/>
  <path class="cls-6" d="M15.02,18.87l-.44.03c-.04-.17-.1-.3-.17-.38-.12-.12-.27-.19-.44-.19-.14,0-.26.04-.37.12-.14.1-.25.25-.33.44s-.12.47-.12.83c.1-.16.23-.28.39-.36s.31-.12.48-.12c.29,0,.54.11.75.32.21.21.31.49.31.83,0,.22-.05.43-.15.63-.1.19-.23.34-.4.44s-.36.15-.58.15c-.37,0-.66-.13-.9-.4-.23-.27-.35-.72-.35-1.33,0-.69.13-1.19.38-1.51.22-.27.52-.41.9-.41.28,0,.51.08.69.24.18.16.29.38.32.65M13.22,20.41c0,.15.03.3.1.43.07.14.16.24.27.32.11.07.24.11.36.11.19,0,.34-.08.48-.22s.2-.35.2-.61-.07-.44-.2-.58c-.13-.14-.3-.21-.5-.21s-.37.07-.51.21c-.14.14-.21.33-.21.56h0Z"/>
  <path class="cls-6" d="M4.44,46.23l-1.25-.25v.5h-.44v-.58l-1.06-.22v.8h-.44v-.89l-1.26-.25v-.44l1.26.25v-.92l-1.26-.25v-.44l1.26.25v-.51h.44v.59l1.06.22v-.81h.44v.9l1.25.25v.44l-1.25-.25v.92l1.25.25v.44M2.76,45.45v-.92l-1.06-.22v.92l1.06.22h0Z"/>
  <polygon class="cls-6" points="4.37 39.93 .58 39.93 .58 41.35 .07 41.35 .07 37.94 .58 37.94 .58 39.37 4.37 39.37 4.37 39.93 4.37 39.93"/>
  <path class="cls-6" d="M3.98,36.18c.17.2.28.38.35.57.07.18.1.37.1.58,0,.34-.08.6-.25.79s-.38.28-.64.28c-.15,0-.29-.04-.42-.1-.13-.07-.23-.16-.3-.27-.08-.11-.13-.24-.17-.38-.03-.1-.05-.26-.08-.47-.05-.42-.11-.74-.18-.94-.07,0-.12,0-.14,0-.21,0-.37.05-.45.15-.12.13-.18.33-.18.6,0,.25.04.43.13.55.08.12.24.21.46.26l-.07.52c-.22-.05-.4-.12-.53-.23-.14-.11-.24-.26-.31-.47s-.11-.44-.11-.71.03-.48.09-.65.14-.29.24-.37c.09-.08.21-.13.36-.16.09-.02.25-.03.49-.03h.7c.49,0,.8-.01.93-.03.13-.02.25-.07.37-.13v.55c-.11.06-.24.09-.38.11M2.81,36.23c.08.19.14.48.2.86.03.22.07.37.11.46s.1.16.17.21c.07.05.16.07.25.07.14,0,.26-.05.35-.16.09-.11.14-.26.14-.47s-.04-.38-.13-.54c-.09-.16-.21-.28-.37-.35-.12-.06-.3-.08-.53-.08h-.19Z"/>
  <path class="cls-6" d="M4.37,34.86H1.26v-.47h.47c-.22-.12-.37-.23-.44-.33s-.11-.22-.11-.34c0-.18.06-.36.17-.54l.49.18c-.08.13-.11.26-.11.39,0,.11.04.22.11.31.07.09.16.16.29.2.19.06.39.09.62.09h1.63v.53h0Z"/>
  <path class="cls-6" d="M4.63,33.03l.08-.51c.16-.02.27-.08.35-.18.1-.13.15-.31.15-.54,0-.24-.05-.43-.15-.57s-.23-.22-.41-.27c-.11-.03-.33-.04-.68-.04.27.23.41.52.41.86,0,.43-.16.76-.46.99s-.68.35-1.11.35c-.3,0-.57-.05-.82-.16-.25-.11-.45-.26-.58-.47-.14-.21-.21-.45-.21-.72,0-.37.15-.67.45-.91h-.38v-.49h2.69c.48,0,.83.05,1.03.15.2.1.36.25.48.47s.18.47.18.79c0,.37-.08.67-.25.9s-.42.34-.75.33M2.76,32.59c.41,0,.71-.08.89-.24s.28-.37.28-.61-.09-.45-.28-.61c-.19-.16-.48-.25-.88-.25s-.67.08-.86.25c-.19.17-.29.37-.29.61s.1.43.29.6.47.25.85.25h0Z"/>
  <path class="cls-6" d="M3.37,27.44l.07-.54c.32.08.57.25.74.48s.26.53.26.89c0,.45-.14.82-.42,1.08-.28.27-.67.4-1.18.4s-.93-.13-1.22-.4-.43-.62-.43-1.05.14-.76.42-1.02.68-.4,1.2-.4c.03,0,.08,0,.14,0v2.32c.34-.02.6-.12.79-.29s.27-.39.27-.65c0-.19-.05-.36-.15-.5s-.26-.25-.49-.33M2.51,29.18v-1.74c-.26.02-.46.09-.59.2-.2.17-.3.39-.3.65,0,.24.08.45.24.61.16.16.38.25.65.27h0Z"/>
  <path class="cls-6" d="M3.9,25.06l.47-.08c.03.15.05.28.05.4,0,.19-.03.34-.09.45s-.14.18-.24.22c-.1.04-.31.06-.62.06h-1.79v.39h-.41v-.39H.49l-.32-.52h1.09v-.53h.41v.53h1.82c.15,0,.25,0,.29-.03.04-.02.08-.05.1-.09.03-.04.04-.1.04-.18,0-.06,0-.13-.02-.23h0Z"/>
  <path class="cls-6" d="M4.63,22.95l.08-.51c.16-.02.27-.08.35-.18.1-.13.15-.31.15-.54,0-.24-.05-.43-.15-.57s-.23-.22-.41-.27c-.11-.03-.33-.04-.68-.04.27.23.41.52.41.86,0,.43-.16.76-.46.99s-.68.35-1.11.35c-.3,0-.57-.05-.82-.16-.25-.11-.45-.26-.58-.47-.14-.21-.21-.45-.21-.72,0-.37.15-.67.45-.91h-.38v-.49h2.69c.48,0,.83.05,1.03.15.2.1.36.25.48.47s.18.47.18.79c0,.37-.08.67-.25.9s-.42.34-.75.33M2.76,22.51c.41,0,.71-.08.89-.24s.28-.37.28-.61-.09-.45-.28-.61c-.19-.16-.48-.25-.88-.25s-.67.08-.86.25c-.19.17-.29.37-.29.61s.1.43.29.6.47.25.85.25h0Z"/>
  <path class="cls-6" d="M3.37,17.36l.07-.54c.32.08.57.25.74.48s.26.53.26.89c0,.45-.14.82-.42,1.08-.28.27-.67.4-1.18.4s-.93-.13-1.22-.4-.43-.62-.43-1.05.14-.76.42-1.02.68-.4,1.2-.4c.03,0,.08,0,.14,0v2.32c.34-.02.6-.12.79-.29s.27-.39.27-.65c0-.19-.05-.36-.15-.5s-.26-.25-.49-.33M2.51,19.1v-1.74c-.26.02-.46.09-.59.2-.2.17-.3.39-.3.65,0,.24.08.45.24.61.16.16.38.25.65.27h0Z"/>
  <path class="cls-6" d="M4.37,16.13H1.26v-.47h.44c-.34-.23-.51-.56-.51-.99,0-.19.04-.36.1-.52.07-.16.16-.28.26-.35s.24-.13.39-.16c.1-.02.27-.03.51-.03h1.91v.53h-1.89c-.21,0-.38.02-.48.06-.11.04-.19.11-.25.22-.06.1-.1.23-.1.37,0,.23.07.42.21.58.14.16.41.24.81.24h1.7v.53h0Z"/>
  <path class="cls-6" d="M3.37,10.64l.07-.54c.32.08.57.25.74.48s.26.53.26.89c0,.45-.14.82-.42,1.08-.28.27-.67.4-1.18.4s-.93-.13-1.22-.4-.43-.62-.43-1.05.14-.76.42-1.02.68-.4,1.2-.4c.03,0,.08,0,.14,0v2.32c.34-.02.6-.12.79-.29s.27-.39.27-.65c0-.19-.05-.36-.15-.5s-.26-.25-.49-.33M2.51,12.38v-1.74c-.26.02-.46.09-.59.2-.2.17-.3.39-.3.65,0,.24.08.45.24.61.16.16.38.25.65.27h0Z"/>
  <path class="cls-2" d="M26.06,38.02c.4,0,.78-.16,1.06-.44.28-.28.44-.66.44-1.06s-.16-.78-.44-1.06c-.28-.28-.66-.44-1.06-.44s-.78.16-1.06.44c-.28.28-.44.66-.44,1.06s.16.78.44,1.06c.28.28.66.44,1.06.44h0ZM38.74,54.82c.4,0,.78-.16,1.06-.44.28-.28.44-.66.44-1.06s-.16-.78-.44-1.06c-.28-.28-.66-.44-1.06-.44s-.78.16-1.06.44c-.28.28-.44.66-.44,1.06s.16.78.44,1.06c.28.28.66.44,1.06.44h0ZM51.42,21.22c.4,0,.78-.16,1.06-.44.28-.28.44-.66.44-1.06s-.16-.78-.44-1.06c-.28-.28-.66-.44-1.06-.44s-.78.16-1.06.44c-.28.28-.44.66-.44,1.06s.16.78.44,1.06c.28.28.66.44,1.06.44h0ZM64.1,21.22c.4,0,.78-.16,1.06-.44.28-.28.44-.66.44-1.06s-.16-.78-.44-1.06c-.28-.28-.66-.44-1.06-.44s-.78.16-1.06.44c-.28.28-.44.66-.44,1.06s.16.78.44,1.06c.28.28.66.44,1.06.44h0ZM76.78,54.82c.4,0,.78-.16,1.06-.44.28-.28.44-.66.44-1.06s-.16-.78-.44-1.06c-.28-.28-.66-.44-1.06-.44s-.78.16-1.06.44c-.28.28-.44.66-.44,1.06s.16.78.44,1.06c.28.28.66.44,1.06.44h0ZM89.46,38.02c.4,0,.78-.16,1.06-.44.28-.28.44-.66.44-1.06s-.16-.78-.44-1.06c-.28-.28-.66-.44-1.06-.44s-.78.16-1.06.44c-.28.28-.44.66-.44,1.06s.16.78.44,1.06c.28.28.66.44,1.06.44h0ZM102.15,4.42c.4,0,.78-.16,1.06-.44s.44-.66.44-1.06-.16-.78-.44-1.06c-.28-.28-.66-.44-1.06-.44s-.78.16-1.06.44c-.28.28-.44.66-.44,1.06s.16.78.44,1.06.66.44,1.06.44h0Z"/>
  <rect class="cls-4" x="22.25" y=".4" width="83.7" height="55.44"/>
  <path class="cls-5" d="M22.25,55.84V.4M105.95,55.84V.4M22.25,55.84h83.7M22.25.4h83.7"/>
</svg>