<?xml version="1.0" encoding="UTF-8"?>
<svg id="_图层_1" data-name="图层 1" xmlns="http://www.w3.org/2000/svg" xmlns:xlink="http://www.w3.org/1999/xlink" viewBox="0 0 202.02 164.58">
  <defs>
    <style>
      .cls-1 {
        fill: #fcfad3;
        stroke: #ef7c20;
      }

      .cls-1, .cls-2, .cls-3, .cls-4, .cls-5 {
        stroke-linejoin: round;
      }

      .cls-1, .cls-3, .cls-4 {
        stroke-width: .6px;
      }

      .cls-6 {
        stroke-linecap: square;
        stroke-miterlimit: 10;
      }

      .cls-6, .cls-7, .cls-5 {
        fill: none;
      }

      .cls-6, .cls-5 {
        stroke: #231815;
        stroke-width: .5px;
      }

      .cls-7, .cls-8, .cls-9, .cls-10 {
        stroke-width: 0px;
      }

      .cls-2 {
        stroke: #000;
        stroke-width: .8px;
      }

      .cls-2, .cls-9 {
        fill: #000;
      }

      .cls-3 {
        fill: #c7e8fa;
        stroke: #2171a9;
      }

      .cls-8 {
        fill: #231815;
      }

      .cls-8, .cls-9 {
        fill-rule: evenodd;
      }

      .cls-4 {
        fill: #fad5d2;
        stroke: #e60012;
      }

      .cls-11 {
        clip-path: url(#clippath);
      }

      .cls-5 {
        stroke-dasharray: 0 0 2.5 2.5;
      }

      .cls-10 {
        fill: #fff;
      }
    </style>
    <clipPath id="clippath">
      <rect class="cls-7" x="27.42" y="42.32" width="167.4" height="83.16"/>
    </clipPath>
  </defs>
  <rect class="cls-10" width="202.02" height="164.58"/>
  <rect class="cls-10" x="27.42" y="42.32" width="167.4" height="83.16"/>
  <g class="cls-11">
    <line class="cls-5" x1="27.42" y1="100.53" x2="194.82" y2="100.53"/>
  </g>
  <rect class="cls-4" x="33.15" y="91.81" width="3.74" height="3.74" transform="translate(-55.98 52.2) rotate(-45)"/>
  <rect class="cls-4" x="37.77" y="69.03" width="3.74" height="3.74" transform="translate(-38.52 48.79) rotate(-45)"/>
  <rect class="cls-4" x="42.38" y="79.57" width="3.74" height="3.74" transform="translate(-44.62 55.14) rotate(-45)"/>
  <rect class="cls-4" x="46.99" y="108.98" width="3.74" height="3.74" transform="translate(-64.07 67.02) rotate(-45)"/>
  <rect class="cls-4" x="51.6" y="113.91" width="3.74" height="3.74" transform="translate(-66.21 71.72) rotate(-45)"/>
  <rect class="cls-4" x="56.21" y="75.95" width="3.74" height="3.74" transform="translate(-38.02 63.86) rotate(-45)"/>
  <rect class="cls-4" x="60.82" y="91.32" width="3.74" height="3.74" transform="translate(-47.53 71.62) rotate(-45)"/>
  <rect class="cls-4" x="65.43" y="91.36" width="3.74" height="3.74" transform="translate(-46.21 74.9) rotate(-45)"/>
  <rect class="cls-4" x="70.05" y="87.57" width="3.74" height="3.74" transform="translate(-42.18 77.05) rotate(-45)"/>
  <rect class="cls-4" x="74.66" y="85.53" width="3.74" height="3.74" transform="translate(-39.39 79.71) rotate(-45)"/>
  <rect class="cls-4" x="79.27" y="94.48" width="3.74" height="3.74" transform="translate(-44.37 85.6) rotate(-45)"/>
  <rect class="cls-4" x="83.88" y="100.73" width="3.74" height="3.74" transform="translate(-47.44 90.69) rotate(-45)"/>
  <rect class="cls-4" x="88.49" y="107.96" width="3.74" height="3.74" transform="translate(-51.2 96.07) rotate(-45)"/>
  <rect class="cls-4" x="93.1" y="97.58" width="3.74" height="3.74" transform="translate(-42.51 96.29) rotate(-45)"/>
  <rect class="cls-4" x="97.72" y="101.65" width="3.74" height="3.74" transform="translate(-44.03 100.74) rotate(-45)"/>
  <rect class="cls-4" x="102.33" y="107.61" width="3.74" height="3.74" transform="translate(-46.89 105.74) rotate(-45)"/>
  <rect class="cls-4" x="106.94" y="92.51" width="3.74" height="3.74" transform="translate(-34.86 104.58) rotate(-45)"/>
  <rect class="cls-4" x="111.55" y="107.49" width="3.74" height="3.74" transform="translate(-44.11 112.23) rotate(-45)"/>
  <rect class="cls-4" x="116.16" y="110.03" width="3.74" height="3.74" transform="translate(-44.55 116.24) rotate(-45)"/>
  <rect class="cls-4" x="120.77" y="93.78" width="3.74" height="3.74" transform="translate(-31.71 114.74) rotate(-45)"/>
  <rect class="cls-4" x="125.39" y="56.73" width="3.74" height="3.74" transform="translate(-4.16 107.15) rotate(-45)"/>
  <rect class="cls-4" x="130" y="68.48" width="3.74" height="3.74" transform="translate(-11.12 113.85) rotate(-45)"/>
  <rect class="cls-4" x="134.61" y="98.55" width="3.74" height="3.74" transform="translate(-31.03 125.92) rotate(-45)"/>
  <rect class="cls-4" x="139.22" y="107.26" width="3.74" height="3.74" transform="translate(-35.84 131.73) rotate(-45)"/>
  <rect class="cls-4" x="143.83" y="62.98" width="3.74" height="3.74" transform="translate(-3.18 122.02) rotate(-45)"/>
  <rect class="cls-4" x="148.44" y="89.3" width="3.74" height="3.74" transform="translate(-20.44 132.99) rotate(-45)"/>
  <rect class="cls-4" x="153.06" y="100.55" width="3.74" height="3.74" transform="translate(-27.05 139.55) rotate(-45)"/>
  <rect class="cls-4" x="157.67" y="93" width="3.74" height="3.74" transform="translate(-20.36 140.6) rotate(-45)"/>
  <rect class="cls-4" x="162.28" y="101.61" width="3.74" height="3.74" transform="translate(-25.1 146.38) rotate(-45)"/>
  <rect class="cls-4" x="166.89" y="110.57" width="3.74" height="3.74" transform="translate(-30.08 152.26) rotate(-45)"/>
  <rect class="cls-4" x="171.5" y="97.36" width="3.74" height="3.74" transform="translate(-19.39 151.66) rotate(-45)"/>
  <rect class="cls-4" x="176.11" y="101" width="3.74" height="3.74" transform="translate(-20.61 155.98) rotate(-45)"/>
  <rect class="cls-4" x="180.72" y="100.12" width="3.74" height="3.74" transform="translate(-18.64 158.98) rotate(-45)"/>
  <rect class="cls-4" x="185.34" y="91.15" width="3.74" height="3.74" transform="translate(-10.94 159.62) rotate(-45)"/>
  <path class="cls-3" d="M35.02,98.94c.5,0,.97-.2,1.32-.55s.55-.83.55-1.32-.2-.97-.55-1.32-.83-.55-1.32-.55-.97.2-1.32.55-.55.83-.55,1.32.2.97.55,1.32.83.55,1.32.55h0Z"/>
  <path class="cls-3" d="M39.64,80.23c.5,0,.97-.2,1.32-.55s.55-.83.55-1.32-.2-.97-.55-1.32-.83-.55-1.32-.55-.97.2-1.32.55-.55.83-.55,1.32.2.97.55,1.32.83.55,1.32.55h0Z"/>
  <path class="cls-3" d="M44.25,86.39c.5,0,.97-.2,1.32-.55s.55-.83.55-1.32-.2-.97-.55-1.32-.83-.55-1.32-.55-.97.2-1.32.55-.55.83-.55,1.32.2.97.55,1.32.83.55,1.32.55h0Z"/>
  <path class="cls-3" d="M48.86,106.71c.5,0,.97-.2,1.32-.55s.55-.83.55-1.32-.2-.97-.55-1.32-.83-.55-1.32-.55-.97.2-1.32.55-.55.83-.55,1.32.2.97.55,1.32.83.55,1.32.55h0Z"/>
  <path class="cls-3" d="M53.47,118.12c.5,0,.97-.2,1.32-.55s.55-.83.55-1.32-.2-.97-.55-1.32-.83-.55-1.32-.55-.97.2-1.32.55-.55.83-.55,1.32.2.97.55,1.32.83.55,1.32.55h0Z"/>
  <path class="cls-3" d="M58.08,83.08c.5,0,.97-.2,1.32-.55s.55-.83.55-1.32-.2-.97-.55-1.32-.83-.55-1.32-.55-.97.2-1.32.55-.55.83-.55,1.32.2.97.55,1.32.83.55,1.32.55h0Z"/>
  <path class="cls-3" d="M62.69,107.49c.5,0,.97-.2,1.32-.55s.55-.83.55-1.32-.2-.97-.55-1.32-.83-.55-1.32-.55-.97.2-1.32.55-.55.83-.55,1.32.2.97.55,1.32.83.55,1.32.55h0Z"/>
  <path class="cls-3" d="M67.31,83.83c.5,0,.97-.2,1.32-.55s.55-.83.55-1.32-.2-.97-.55-1.32-.83-.55-1.32-.55-.97.2-1.32.55-.55.83-.55,1.32.2.97.55,1.32.83.55,1.32.55h0Z"/>
  <path class="cls-3" d="M71.92,103.26c.5,0,.97-.2,1.32-.55s.55-.83.55-1.32-.2-.97-.55-1.32-.83-.55-1.32-.55-.97.2-1.32.55-.55.83-.55,1.32.2.97.55,1.32.83.55,1.32.55h0Z"/>
  <path class="cls-3" d="M76.53,89.14c.5,0,.97-.2,1.32-.55s.55-.83.55-1.32-.2-.97-.55-1.32-.83-.55-1.32-.55-.97.2-1.32.55-.55.83-.55,1.32.2.97.55,1.32.83.55,1.32.55h0Z"/>
  <path class="cls-3" d="M81.14,102.6c.5,0,.97-.2,1.32-.55s.55-.83.55-1.32-.2-.97-.55-1.32-.83-.55-1.32-.55-.97.2-1.32.55-.55.83-.55,1.32.2.97.55,1.32.83.55,1.32.55h0Z"/>
  <path class="cls-3" d="M85.75,115.77c.5,0,.97-.2,1.32-.55s.55-.83.55-1.32-.2-.97-.55-1.32-.83-.55-1.32-.55-.97.2-1.32.55-.55.83-.55,1.32.2.97.55,1.32.83.55,1.32.55h0Z"/>
  <path class="cls-3" d="M90.36,106.65c.5,0,.97-.2,1.32-.55s.55-.83.55-1.32-.2-.97-.55-1.32-.83-.55-1.32-.55-.97.2-1.32.55-.55.83-.55,1.32.2.97.55,1.32.83.55,1.32.55h0Z"/>
  <path class="cls-3" d="M94.98,106.19c.5,0,.97-.2,1.32-.55s.55-.83.55-1.32-.2-.97-.55-1.32-.83-.55-1.32-.55-.97.2-1.32.55-.55.83-.55,1.32.2.97.55,1.32.83.55,1.32.55h0Z"/>
  <path class="cls-3" d="M99.59,104.8c.5,0,.97-.2,1.32-.55s.55-.83.55-1.32-.2-.97-.55-1.32-.83-.55-1.32-.55-.97.2-1.32.55-.55.83-.55,1.32.2.97.55,1.32.83.55,1.32.55h0Z"/>
  <path class="cls-3" d="M104.2,104.49c.5,0,.97-.2,1.32-.55s.55-.83.55-1.32-.2-.97-.55-1.32-.83-.55-1.32-.55-.97.2-1.32.55-.55.83-.55,1.32.2.97.55,1.32.83.55,1.32.55h0Z"/>
  <path class="cls-3" d="M108.81,102.18c.5,0,.97-.2,1.32-.55s.55-.83.55-1.32-.2-.97-.55-1.32-.83-.55-1.32-.55-.97.2-1.32.55-.55.83-.55,1.32.2.97.55,1.32.83.55,1.32.55h0Z"/>
  <path class="cls-3" d="M113.42,112.36c.5,0,.97-.2,1.32-.55s.55-.83.55-1.32-.2-.97-.55-1.32-.83-.55-1.32-.55-.97.2-1.32.55-.55.83-.55,1.32.2.97.55,1.32.83.55,1.32.55h0Z"/>
  <path class="cls-3" d="M118.03,113.24c.5,0,.97-.2,1.32-.55s.55-.83.55-1.32-.2-.97-.55-1.32-.83-.55-1.32-.55-.97.2-1.32.55-.55.83-.55,1.32.2.97.55,1.32.83.55,1.32.55h0Z"/>
  <path class="cls-3" d="M122.64,96.6c.5,0,.97-.2,1.32-.55s.55-.83.55-1.32-.2-.97-.55-1.32-.83-.55-1.32-.55-.97.2-1.32.55-.55.83-.55,1.32.2.97.55,1.32.83.55,1.32.55h0Z"/>
  <path class="cls-3" d="M127.26,57.15c.5,0,.97-.2,1.32-.55s.55-.83.55-1.32-.2-.97-.55-1.32-.83-.55-1.32-.55-.97.2-1.32.55-.55.83-.55,1.32.2.97.55,1.32.83.55,1.32.55h0Z"/>
  <path class="cls-3" d="M131.87,64.99c.5,0,.97-.2,1.32-.55s.55-.83.55-1.32-.2-.97-.55-1.32-.83-.55-1.32-.55-.97.2-1.32.55-.55.83-.55,1.32.2.97.55,1.32.83.55,1.32.55h0Z"/>
  <path class="cls-3" d="M136.48,96.35c.5,0,.97-.2,1.32-.55s.55-.83.55-1.32-.2-.97-.55-1.32-.83-.55-1.32-.55-.97.2-1.32.55-.55.83-.55,1.32.2.97.55,1.32.83.55,1.32.55h0Z"/>
  <path class="cls-3" d="M141.09,115.96c.5,0,.97-.2,1.32-.55s.55-.83.55-1.32-.2-.97-.55-1.32-.83-.55-1.32-.55-.97.2-1.32.55-.55.83-.55,1.32.2.97.55,1.32.83.55,1.32.55h0Z"/>
  <path class="cls-3" d="M145.7,73.37c.5,0,.97-.2,1.32-.55s.55-.83.55-1.32-.2-.97-.55-1.32-.83-.55-1.32-.55-.97.2-1.32.55-.55.83-.55,1.32.2.97.55,1.32.83.55,1.32.55h0Z"/>
  <path class="cls-3" d="M150.31,70.11c.5,0,.97-.2,1.32-.55s.55-.83.55-1.32-.2-.97-.55-1.32-.83-.55-1.32-.55-.97.2-1.32.55-.55.83-.55,1.32.2.97.55,1.32.83.55,1.32.55h0Z"/>
  <path class="cls-3" d="M154.93,99.62c.5,0,.97-.2,1.32-.55s.55-.83.55-1.32-.2-.97-.55-1.32-.83-.55-1.32-.55-.97.2-1.32.55-.55.83-.55,1.32.2.97.55,1.32.83.55,1.32.55h0Z"/>
  <path class="cls-3" d="M159.54,102.13c.5,0,.97-.2,1.32-.55s.55-.83.55-1.32-.2-.97-.55-1.32-.83-.55-1.32-.55-.97.2-1.32.55-.55.83-.55,1.32.2.97.55,1.32.83.55,1.32.55h0Z"/>
  <path class="cls-3" d="M164.15,116.28c.5,0,.97-.2,1.32-.55s.55-.83.55-1.32-.2-.97-.55-1.32-.83-.55-1.32-.55-.97.2-1.32.55-.55.83-.55,1.32.2.97.55,1.32.83.55,1.32.55h0Z"/>
  <path class="cls-3" d="M168.76,110.32c.5,0,.97-.2,1.32-.55s.55-.83.55-1.32-.2-.97-.55-1.32-.83-.55-1.32-.55-.97.2-1.32.55-.55.83-.55,1.32.2.97.55,1.32.83.55,1.32.55h0Z"/>
  <path class="cls-3" d="M173.37,99.17c.5,0,.97-.2,1.32-.55s.55-.83.55-1.32-.2-.97-.55-1.32-.83-.55-1.32-.55-.97.2-1.32.55-.55.83-.55,1.32.2.97.55,1.32.83.55,1.32.55h0Z"/>
  <path class="cls-3" d="M177.98,100c.5,0,.97-.2,1.32-.55s.55-.83.55-1.32-.2-.97-.55-1.32-.83-.55-1.32-.55-.97.2-1.32.55-.55.83-.55,1.32.2.97.55,1.32.83.55,1.32.55h0Z"/>
  <path class="cls-3" d="M182.6,108.83c.5,0,.97-.2,1.32-.55s.55-.83.55-1.32-.2-.97-.55-1.32-.83-.55-1.32-.55-.97.2-1.32.55-.55.83-.55,1.32.2.97.55,1.32.83.55,1.32.55h0Z"/>
  <path class="cls-3" d="M187.21,111.52c.5,0,.97-.2,1.32-.55s.55-.83.55-1.32-.2-.97-.55-1.32-.83-.55-1.32-.55-.97.2-1.32.55-.55.83-.55,1.32.2.97.55,1.32.83.55,1.32.55h0Z"/>
  <rect class="cls-1" x="33.15" y="102.12" width="3.74" height="3.74"/>
  <rect class="cls-1" x="37.77" y="84.67" width="3.74" height="3.74"/>
  <rect class="cls-1" x="42.38" y="90.65" width="3.74" height="3.74"/>
  <rect class="cls-1" x="46.99" y="99.51" width="3.74" height="3.74"/>
  <rect class="cls-1" x="51.6" y="107.74" width="3.74" height="3.74"/>
  <rect class="cls-1" x="56.21" y="86.74" width="3.74" height="3.74"/>
  <rect class="cls-1" x="60.82" y="97.86" width="3.74" height="3.74"/>
  <rect class="cls-1" x="65.43" y="94.39" width="3.74" height="3.74"/>
  <rect class="cls-1" x="70.05" y="94.1" width="3.74" height="3.74"/>
  <rect class="cls-1" x="74.66" y="86.14" width="3.74" height="3.74"/>
  <rect class="cls-1" x="79.27" y="95.6" width="3.74" height="3.74"/>
  <rect class="cls-1" x="83.88" y="101.93" width="3.74" height="3.74"/>
  <rect class="cls-1" x="88.49" y="105.87" width="3.74" height="3.74"/>
  <rect class="cls-1" x="93.1" y="96.83" width="3.74" height="3.74"/>
  <rect class="cls-1" x="97.72" y="105.38" width="3.74" height="3.74"/>
  <rect class="cls-1" x="102.33" y="102.55" width="3.74" height="3.74"/>
  <rect class="cls-1" x="106.94" y="98.91" width="3.74" height="3.74"/>
  <rect class="cls-1" x="111.55" y="106.57" width="3.74" height="3.74"/>
  <rect class="cls-1" x="116.16" y="105.65" width="3.74" height="3.74"/>
  <rect class="cls-1" x="120.77" y="102.09" width="3.74" height="3.74"/>
  <rect class="cls-1" x="125.39" y="78.13" width="3.74" height="3.74"/>
  <rect class="cls-1" x="130" y="54.92" width="3.74" height="3.74"/>
  <rect class="cls-1" x="134.61" y="96.24" width="3.74" height="3.74"/>
  <rect class="cls-1" x="139.22" y="102.26" width="3.74" height="3.74"/>
  <rect class="cls-1" x="143.83" y="80.85" width="3.74" height="3.74"/>
  <rect class="cls-1" x="148.44" y="97.11" width="3.74" height="3.74"/>
  <rect class="cls-1" x="153.06" y="94.26" width="3.74" height="3.74"/>
  <rect class="cls-1" x="157.67" y="95.72" width="3.74" height="3.74"/>
  <rect class="cls-1" x="162.28" y="104.5" width="3.74" height="3.74"/>
  <rect class="cls-1" x="166.89" y="104.2" width="3.74" height="3.74"/>
  <rect class="cls-1" x="171.5" y="98.77" width="3.74" height="3.74"/>
  <rect class="cls-1" x="176.11" y="102.39" width="3.74" height="3.74"/>
  <rect class="cls-1" x="180.72" y="103.57" width="3.74" height="3.74"/>
  <rect class="cls-1" x="185.34" y="98.52" width="3.74" height="3.74"/>
  <line class="cls-2" x1="35.02" y1="125.48" x2="35.02" y2="125.68"/>
  <path class="cls-9" d="M34.79,131.09l-.06.43c-.3-.05-.53-.17-.7-.36-.17-.19-.25-.43-.25-.72,0-.35.11-.64.35-.86.23-.21.57-.32,1-.32.28,0,.52.05.73.14.21.09.37.23.47.42.11.19.16.4.16.62,0,.28-.07.51-.21.69-.14.18-.34.29-.61.34l-.07-.43c.17-.04.31-.11.39-.22.09-.1.13-.23.13-.37,0-.22-.08-.4-.24-.54-.16-.14-.41-.21-.75-.21s-.6.07-.76.2c-.16.13-.24.31-.24.52,0,.17.05.32.16.43.1.11.27.19.49.22h0Z"/>
  <path class="cls-9" d="M34.67,133.81l-.06.45c-.27-.07-.47-.21-.62-.4-.15-.19-.22-.44-.22-.74,0-.38.12-.68.35-.9.23-.22.56-.33.98-.33s.77.11,1.02.34c.24.22.36.52.36.87s-.12.63-.35.85c-.24.22-.57.33-1,.33-.03,0-.07,0-.12,0v-1.93c-.29.02-.5.1-.65.24-.15.14-.23.32-.23.54,0,.16.04.3.13.41.09.11.22.21.41.27M35.39,132.37v1.45c.22-.02.38-.08.49-.17.17-.14.25-.32.25-.54,0-.2-.07-.37-.2-.51-.13-.14-.31-.21-.54-.23h0Z"/>
  <path class="cls-9" d="M33.84,134.67h3.58v.44h-1.28c.24.21.36.46.36.78,0,.19-.04.36-.11.5-.08.14-.18.24-.31.3-.13.06-.33.09-.58.09h-1.64v-.44h1.64c.22,0,.38-.05.48-.14.1-.1.15-.23.15-.4,0-.13-.03-.25-.1-.37-.07-.11-.16-.2-.27-.24-.11-.05-.28-.07-.48-.07h-1.42v-.44h0Z"/>
  <polygon class="cls-9" points="34.91 137.38 35.36 137.38 35.36 138.73 34.91 138.73 34.91 137.38 34.91 137.38"/>
  <path class="cls-9" d="M33.84,140.77v-.44h2.8c-.1-.1-.2-.24-.3-.42-.1-.17-.18-.32-.23-.46h.42c.11.25.26.46.42.64.16.18.32.31.48.39v.28h-3.59Z"/>
  <path class="cls-9" d="M36.54,144.27l-.03-.44c.17-.04.3-.1.38-.17.12-.12.19-.27.19-.44,0-.14-.04-.26-.12-.37-.1-.14-.25-.25-.44-.33-.19-.08-.47-.12-.83-.12.16.1.28.23.36.39.08.15.12.31.12.48,0,.29-.11.54-.32.75-.21.21-.49.31-.83.31-.22,0-.43-.05-.63-.15-.19-.1-.34-.23-.44-.4s-.15-.36-.15-.58c0-.37.13-.66.4-.9.27-.23.72-.35,1.33-.35.69,0,1.19.13,1.51.38.27.22.41.52.41.9,0,.28-.08.51-.24.69-.16.18-.38.29-.65.32M35,142.48c-.15,0-.3.03-.43.1-.14.07-.24.16-.32.27-.07.11-.11.24-.11.36,0,.19.08.34.22.48.15.13.35.2.61.2s.44-.07.58-.2c.14-.13.21-.3.21-.5s-.07-.37-.21-.51c-.14-.14-.33-.21-.56-.21h0Z"/>
  <line class="cls-2" x1="39.64" y1="125.48" x2="39.64" y2="125.68"/>
  <path class="cls-9" d="M39.35,131.09l-.06.43c-.3-.05-.53-.17-.7-.36-.17-.19-.25-.43-.25-.72,0-.35.11-.64.35-.86.23-.21.57-.32,1-.32.28,0,.52.05.73.14s.37.23.47.42c.1.19.16.4.16.62,0,.28-.07.51-.21.69-.14.18-.34.29-.61.34l-.07-.43c.17-.04.31-.11.39-.22.09-.1.13-.23.13-.37,0-.22-.08-.4-.24-.54s-.41-.21-.75-.21-.6.07-.76.2-.24.31-.24.52c0,.17.05.32.16.43s.27.19.49.22h0Z"/>
  <path class="cls-9" d="M39.23,133.81l-.06.45c-.27-.07-.47-.21-.62-.4-.15-.19-.22-.44-.22-.74,0-.38.12-.68.35-.9.23-.22.56-.33.98-.33s.77.11,1.02.34c.24.22.36.52.36.87s-.12.63-.35.85-.57.33-1,.33c-.03,0-.07,0-.12,0v-1.93c-.29.02-.5.1-.65.24-.15.14-.23.32-.23.54,0,.16.04.3.13.41.09.11.22.21.41.27M39.95,132.37v1.45c.22-.02.38-.08.49-.17.17-.14.25-.32.25-.54,0-.2-.07-.37-.2-.51-.13-.14-.31-.21-.54-.23h0Z"/>
  <path class="cls-9" d="M38.4,134.67h3.58v.44h-1.28c.24.21.36.46.36.78,0,.19-.04.36-.11.5s-.18.24-.31.3-.33.09-.58.09h-1.64v-.44h1.64c.22,0,.38-.05.48-.14s.15-.23.15-.4c0-.13-.03-.25-.1-.37-.07-.11-.16-.2-.27-.24s-.28-.07-.48-.07h-1.42v-.44h0Z"/>
  <polygon class="cls-9" points="39.47 137.38 39.92 137.38 39.92 138.73 39.47 138.73 39.47 137.38 39.47 137.38"/>
  <path class="cls-9" d="M39.34,139.11l.06.44c-.25.05-.43.14-.54.26-.11.12-.16.27-.16.44,0,.21.07.38.21.52.14.14.32.21.53.21s.37-.07.5-.2c.13-.13.2-.3.2-.5,0-.08-.02-.19-.05-.31l.39.05s0,.05,0,.07c0,.19.05.36.15.51.1.15.25.22.45.22.16,0,.3-.05.4-.16s.16-.25.16-.42-.05-.31-.16-.43c-.11-.11-.27-.19-.48-.22l.08-.44c.3.05.52.18.68.37.16.19.24.43.24.71,0,.2-.04.38-.13.54-.08.16-.2.29-.34.38-.14.09-.3.13-.46.13-.15,0-.3-.04-.42-.12-.13-.08-.23-.21-.3-.37-.05.21-.15.38-.31.49s-.34.18-.58.18c-.31,0-.58-.11-.8-.34s-.32-.52-.32-.86c0-.31.09-.58.28-.78.19-.21.43-.32.73-.35h0Z"/>
  <path class="cls-9" d="M38.82,144.3h-.42v-2.37c.1,0,.21.01.31.05.16.06.32.16.48.29.16.13.34.32.54.58.32.39.57.65.76.79.19.14.36.21.53.21s.32-.06.44-.19.18-.29.18-.49c0-.21-.06-.38-.19-.51s-.3-.19-.53-.19l.05-.45c.34.03.59.15.77.35.18.2.27.47.27.81s-.1.62-.29.82-.43.3-.71.3c-.14,0-.28-.03-.42-.09s-.28-.16-.44-.29c-.15-.13-.36-.36-.63-.68-.22-.26-.37-.43-.45-.51-.08-.08-.16-.14-.24-.19v1.76h0Z"/>
  <line class="cls-2" x1="44.25" y1="125.48" x2="44.25" y2="125.68"/>
  <path class="cls-9" d="M42.96,129.39h2.59v.4h-.37c.29.19.43.47.43.83,0,.16-.03.3-.09.43-.06.13-.13.23-.22.3s-.2.11-.32.14c-.08.02-.22.02-.43.02h-1.59v-.44h1.58c.18,0,.31-.02.4-.05.09-.03.16-.1.21-.18.05-.09.08-.19.08-.31,0-.19-.06-.35-.18-.49-.12-.13-.34-.2-.68-.2h-1.42v-.44h0Z"/>
  <path class="cls-9" d="M42.96,132.27h3.58v.44h-1.28c.24.21.36.46.36.78,0,.19-.04.36-.11.5s-.18.24-.31.3-.33.09-.58.09h-1.64v-.44h1.64c.22,0,.38-.05.48-.14s.15-.23.15-.4c0-.13-.03-.25-.1-.37-.07-.11-.16-.2-.27-.24s-.28-.07-.48-.07h-1.42v-.44h0Z"/>
  <path class="cls-9" d="M42.96,135.15h2.59v.4h-.39c.18.1.31.19.36.28.06.09.09.18.09.28,0,.15-.05.3-.14.45l-.41-.15c.06-.11.1-.21.1-.32,0-.1-.03-.18-.09-.26-.06-.08-.14-.13-.24-.16-.16-.05-.33-.07-.51-.07h-1.36v-.44h0Z"/>
  <polygon class="cls-9" points="44.03 136.66 44.48 136.66 44.48 138.01 44.03 138.01 44.03 136.66 44.03 136.66"/>
  <path class="cls-9" d="M43.38,140.7h-.42v-2.37c.1,0,.21.01.31.05.16.06.32.16.48.29.16.13.34.32.54.58.32.39.57.65.76.79.19.14.36.21.53.21s.32-.06.44-.19.18-.29.18-.49c0-.21-.06-.38-.19-.51-.13-.13-.3-.19-.53-.19l.05-.45c.34.03.59.15.77.35.18.2.27.47.27.81s-.1.62-.29.82c-.19.2-.43.3-.71.3-.14,0-.28-.03-.42-.09s-.28-.16-.44-.29c-.15-.13-.36-.36-.63-.68-.22-.26-.37-.43-.45-.51-.08-.08-.16-.14-.24-.19v1.76h0Z"/>
  <path class="cls-9" d="M43.9,141.03l.06.44c-.25.05-.43.14-.54.26-.11.12-.16.27-.16.44,0,.21.07.38.21.52.14.14.32.21.53.21s.37-.07.5-.2c.13-.13.2-.3.2-.5,0-.08-.02-.19-.05-.31l.39.05s0,.05,0,.07c0,.19.05.36.15.51.1.15.25.22.45.22.16,0,.3-.05.4-.16s.16-.25.16-.42-.05-.31-.16-.43c-.11-.11-.27-.19-.48-.22l.08-.44c.3.05.52.18.68.37.16.19.24.43.24.71,0,.2-.04.38-.13.54-.08.16-.2.29-.34.38-.14.09-.3.13-.46.13-.15,0-.3-.04-.42-.12-.13-.08-.23-.21-.3-.37-.05.21-.15.38-.31.49s-.34.18-.58.18c-.31,0-.58-.11-.8-.34s-.32-.52-.32-.86c0-.31.09-.58.28-.78.19-.21.43-.32.73-.35h0Z"/>
  <line class="cls-2" x1="48.86" y1="125.48" x2="48.86" y2="125.68"/>
  <path class="cls-9" d="M47.52,129.39h2.59v.4h-.37c.29.19.43.47.43.83,0,.16-.03.3-.09.43-.06.13-.13.23-.22.3s-.2.11-.32.14c-.08.02-.22.02-.43.02h-1.59v-.44h1.58c.18,0,.31-.02.4-.05.09-.03.16-.1.21-.18.05-.09.08-.19.08-.31,0-.19-.06-.35-.18-.49-.12-.13-.34-.2-.68-.2h-1.42v-.44h0Z"/>
  <path class="cls-9" d="M47.52,132.27h3.58v.44h-1.28c.24.21.36.46.36.78,0,.19-.04.36-.11.5-.08.14-.18.24-.31.3s-.33.09-.58.09h-1.64v-.44h1.64c.22,0,.38-.05.48-.14s.15-.23.15-.4c0-.13-.03-.25-.1-.37-.07-.11-.16-.2-.27-.24s-.28-.07-.48-.07h-1.42v-.44h0Z"/>
  <path class="cls-9" d="M47.52,135.15h2.59v.4h-.39c.18.1.31.19.36.28.06.09.09.18.09.28,0,.15-.05.3-.14.45l-.41-.15c.06-.11.1-.21.1-.32,0-.1-.03-.18-.09-.26-.06-.08-.14-.13-.24-.16-.16-.05-.33-.07-.51-.07h-1.36v-.44h0Z"/>
  <polygon class="cls-9" points="48.59 136.66 49.04 136.66 49.04 138.01 48.59 138.01 48.59 136.66 48.59 136.66"/>
  <path class="cls-9" d="M47.94,140.7h-.42v-2.37c.1,0,.21.01.31.05.16.06.32.16.48.29.16.13.34.32.54.58.32.39.57.65.76.79.19.14.36.21.53.21s.32-.06.44-.19c.12-.12.18-.29.18-.49,0-.21-.06-.38-.19-.51-.13-.13-.3-.19-.53-.19l.05-.45c.34.03.59.15.77.35.18.2.27.47.27.81s-.1.62-.29.82c-.19.2-.43.3-.71.3-.14,0-.28-.03-.42-.09s-.28-.16-.44-.29c-.15-.13-.36-.36-.63-.68-.22-.26-.37-.43-.45-.51-.08-.08-.16-.14-.24-.19v1.76h0Z"/>
  <line class="cls-2" x1="53.47" y1="125.48" x2="53.47" y2="125.68"/>
  <path class="cls-9" d="M53.03,131.09l-.06.43c-.3-.05-.53-.17-.7-.36-.17-.19-.25-.43-.25-.72,0-.35.11-.64.35-.86.23-.21.57-.32,1-.32.28,0,.52.05.73.14.21.09.37.23.47.42.1.19.16.4.16.62,0,.28-.07.51-.21.69-.14.18-.34.29-.61.34l-.07-.43c.17-.04.31-.11.39-.22.09-.1.13-.23.13-.37,0-.22-.08-.4-.24-.54-.16-.14-.41-.21-.75-.21s-.6.07-.76.2c-.16.13-.24.31-.24.52,0,.17.05.32.16.43.1.11.27.19.49.22h0Z"/>
  <path class="cls-9" d="M52.91,133.81l-.06.45c-.27-.07-.47-.21-.62-.4-.15-.19-.22-.44-.22-.74,0-.38.12-.68.35-.9.23-.22.56-.33.98-.33s.77.11,1.02.34c.24.22.36.52.36.87s-.12.63-.35.85c-.24.22-.57.33-1,.33-.03,0-.07,0-.12,0v-1.93c-.29.02-.5.1-.65.24-.15.14-.23.32-.23.54,0,.16.04.3.13.41.09.11.22.21.41.27M53.63,132.37v1.45c.22-.02.38-.08.49-.17.17-.14.25-.32.25-.54,0-.2-.07-.37-.2-.51-.13-.14-.31-.21-.54-.23h0Z"/>
  <path class="cls-9" d="M52.08,134.67h3.58v.44h-1.28c.24.21.36.46.36.78,0,.19-.04.36-.11.5-.08.14-.18.24-.31.3-.13.06-.33.09-.58.09h-1.64v-.44h1.64c.22,0,.38-.05.48-.14.1-.1.15-.23.15-.4,0-.13-.03-.25-.1-.37-.07-.11-.16-.2-.27-.24-.11-.05-.28-.07-.48-.07h-1.42v-.44h0Z"/>
  <polygon class="cls-9" points="53.15 137.38 53.6 137.38 53.6 138.73 53.15 138.73 53.15 137.38 53.15 137.38"/>
  <path class="cls-9" d="M52.5,141.42h-.42v-2.37c.1,0,.21.01.31.05.16.06.32.16.48.29.16.13.34.32.54.58.32.39.57.65.76.79.19.14.36.21.53.21s.32-.06.44-.19c.12-.12.18-.29.18-.49,0-.21-.06-.38-.19-.51-.13-.13-.3-.19-.53-.19l.05-.45c.34.03.59.15.77.35.18.2.27.47.27.81s-.1.62-.29.82c-.19.2-.43.3-.71.3-.14,0-.28-.03-.42-.09s-.28-.16-.44-.29c-.15-.13-.36-.36-.63-.68-.22-.26-.37-.43-.45-.51-.08-.08-.16-.14-.24-.19v1.76h0Z"/>
  <path class="cls-9" d="M55.19,142.02h.42v2.32h-.34c-.24-.23-.56-.45-.97-.68-.4-.22-.82-.4-1.24-.52-.3-.09-.63-.14-.98-.17v-.45c.28,0,.62.06,1.02.17.4.1.78.26,1.15.45.37.2.68.41.94.63v-1.75h0Z"/>
  <line class="cls-2" x1="58.08" y1="125.48" x2="58.08" y2="125.68"/>
  <path class="cls-9" d="M56.88,129.39h2.59v.39h-.36c.13.08.23.19.31.32.08.13.12.29.12.46,0,.19-.04.35-.12.47-.08.12-.19.21-.33.26.3.21.45.47.45.8,0,.26-.07.45-.21.59-.14.14-.36.21-.66.21h-1.78v-.44h1.63c.18,0,.3-.01.38-.04.08-.03.14-.08.19-.15.05-.08.07-.16.07-.26,0-.18-.06-.33-.18-.45-.12-.12-.31-.18-.58-.18h-1.51v-.44h1.68c.2,0,.34-.04.44-.11s.15-.19.15-.35c0-.12-.03-.24-.1-.34s-.16-.18-.29-.23-.31-.07-.54-.07h-1.35v-.44h0Z"/>
  <path class="cls-9" d="M57.2,135.41c-.14-.16-.24-.32-.29-.47-.06-.15-.09-.31-.09-.48,0-.29.07-.5.21-.66s.32-.23.53-.23c.13,0,.24.03.35.09.1.06.19.13.25.23.06.1.11.2.14.32.02.09.04.22.07.39.04.35.09.62.15.78.06,0,.1,0,.11,0,.18,0,.31-.04.38-.12.1-.11.15-.28.15-.5,0-.21-.04-.36-.11-.46-.07-.1-.2-.17-.38-.22l.06-.43c.18.04.33.1.44.19.11.09.2.22.26.39.06.17.09.37.09.59s-.03.4-.08.54-.12.24-.2.31c-.08.07-.18.11-.3.14-.08.01-.21.02-.41.02h-.59c-.41,0-.67,0-.78.03-.11.02-.21.06-.31.11v-.46c.09-.05.2-.08.32-.09M58.18,135.37c-.07-.16-.12-.4-.17-.72-.03-.18-.06-.31-.09-.38s-.08-.13-.14-.17c-.06-.04-.13-.06-.21-.06-.12,0-.21.04-.29.13-.08.09-.12.22-.12.39s.04.32.11.45c.08.13.18.23.31.29.1.05.25.07.44.07h.16Z"/>
  <path class="cls-9" d="M56.88,136.76v-.41h3.58v.44h-1.28c.23.19.35.42.35.71,0,.16-.03.31-.1.45-.06.14-.15.26-.27.35-.11.09-.26.17-.42.22-.16.05-.34.08-.53.08-.44,0-.79-.11-1.03-.33s-.36-.48-.36-.79.13-.55.38-.72h-.32M58.2,136.75c-.31,0-.53.04-.67.13-.23.14-.34.32-.34.56,0,.19.08.36.25.5.17.14.42.21.75.21s.59-.07.75-.2c.16-.13.24-.3.24-.49s-.08-.36-.25-.5c-.17-.14-.41-.21-.72-.21h0Z"/>
  <polygon class="cls-9" points="57.95 139.06 58.4 139.06 58.4 140.41 57.95 140.41 57.95 139.06 57.95 139.06"/>
  <path class="cls-9" d="M57.82,140.79l.04.46c-.22.03-.39.11-.51.24-.11.12-.17.28-.17.45,0,.21.08.39.24.54.16.15.37.22.63.22s.45-.07.59-.21c.14-.14.22-.32.22-.55,0-.14-.03-.27-.1-.38-.06-.11-.15-.2-.25-.27l.05-.41,1.84.35v1.78h-.42v-1.43l-.96-.19c.15.21.22.44.22.68,0,.31-.11.58-.32.79-.22.21-.5.32-.83.32s-.6-.1-.84-.28c-.29-.23-.43-.54-.43-.94,0-.32.09-.59.27-.8.18-.21.42-.32.73-.35h0Z"/>
  <line class="cls-2" x1="62.69" y1="125.48" x2="62.69" y2="125.68"/>
  <path class="cls-9" d="M61.44,129.39h2.59v.4h-.37c.29.19.43.47.43.83,0,.16-.03.3-.09.43-.06.13-.13.23-.22.3-.09.07-.2.11-.32.14-.08.02-.22.02-.43.02h-1.59v-.44h1.58c.18,0,.31-.02.4-.05.09-.03.16-.1.21-.18.05-.09.08-.19.08-.31,0-.19-.06-.35-.18-.49-.12-.13-.34-.2-.68-.2h-1.42v-.44h0Z"/>
  <path class="cls-9" d="M62.74,132.11c.48,0,.83.13,1.07.4.19.22.29.5.29.82,0,.36-.12.65-.35.87-.23.23-.55.34-.97.34-.33,0-.6-.05-.79-.15-.19-.1-.34-.24-.44-.44-.1-.19-.16-.4-.16-.62,0-.36.12-.66.35-.88.23-.22.57-.33,1.01-.33M62.74,132.56c-.33,0-.58.07-.75.22-.16.14-.25.33-.25.55s.08.4.25.54c.17.14.42.22.76.22.32,0,.56-.07.73-.22.17-.14.25-.32.25-.54s-.08-.4-.25-.55c-.16-.14-.41-.22-.74-.22h0Z"/>
  <path class="cls-9" d="M61.44,135.56v-.41h3.58v.44h-1.28c.23.19.35.42.35.71,0,.16-.03.31-.1.45-.06.14-.15.26-.27.35-.11.09-.26.17-.42.22-.16.05-.34.08-.53.08-.44,0-.79-.11-1.03-.33s-.36-.48-.36-.79.13-.55.38-.72h-.32M62.76,135.55c-.31,0-.53.04-.67.13-.23.14-.34.32-.34.56,0,.19.08.36.25.5.17.14.42.21.75.21s.59-.07.75-.2c.16-.13.24-.3.24-.49s-.08-.36-.25-.5c-.17-.14-.41-.21-.72-.21h0Z"/>
  <polygon class="cls-9" points="62.51 137.62 62.96 137.62 62.96 138.97 62.51 138.97 62.51 137.62 62.51 137.62"/>
  <path class="cls-9" d="M61.44,141.01v-.44h2.8c-.1-.1-.2-.24-.3-.42-.1-.17-.18-.32-.23-.46h.42c.11.25.26.46.42.64.16.18.32.31.48.39v.28h-3.59Z"/>
  <line class="cls-2" x1="67.31" y1="125.48" x2="67.31" y2="125.68"/>
  <path class="cls-9" d="M66.95,131.09l-.06.43c-.3-.05-.53-.17-.7-.36-.17-.19-.25-.43-.25-.72,0-.35.11-.64.35-.86.23-.21.57-.32,1-.32.28,0,.52.05.73.14.21.09.37.23.47.42.1.19.16.4.16.62,0,.28-.07.51-.21.69-.14.18-.34.29-.61.34l-.07-.43c.17-.04.31-.11.39-.22.09-.1.13-.23.13-.37,0-.22-.08-.4-.24-.54-.16-.14-.41-.21-.75-.21s-.6.07-.76.2c-.16.13-.24.31-.24.52,0,.17.05.32.16.43.1.11.27.19.49.22h0Z"/>
  <path class="cls-9" d="M66.83,133.81l-.06.45c-.27-.07-.47-.21-.62-.4-.15-.19-.22-.44-.22-.74,0-.38.12-.68.35-.9.23-.22.56-.33.98-.33s.77.11,1.02.34c.24.22.36.52.36.87s-.12.63-.35.85c-.24.22-.57.33-1,.33-.03,0-.07,0-.12,0v-1.93c-.29.02-.5.1-.65.24-.15.14-.23.32-.23.54,0,.16.04.3.13.41.09.11.22.21.41.27M67.55,132.37v1.45c.22-.02.38-.08.49-.17.17-.14.25-.32.25-.54,0-.2-.07-.37-.2-.51-.13-.14-.31-.21-.54-.23h0Z"/>
  <path class="cls-9" d="M66,134.67h3.58v.44h-1.28c.24.21.36.46.36.78,0,.19-.04.36-.11.5-.08.14-.18.24-.31.3-.13.06-.33.09-.58.09h-1.64v-.44h1.64c.22,0,.38-.05.48-.14.1-.1.15-.23.15-.4,0-.13-.03-.25-.1-.37-.07-.11-.16-.2-.27-.24-.11-.05-.28-.07-.48-.07h-1.42v-.44h0Z"/>
  <polygon class="cls-9" points="67.07 137.38 67.52 137.38 67.52 138.73 67.07 138.73 67.07 137.38 67.07 137.38"/>
  <path class="cls-9" d="M66.94,139.11l.06.44c-.25.05-.43.14-.54.26-.11.12-.16.27-.16.44,0,.21.07.38.21.52.14.14.32.21.53.21s.37-.07.5-.2c.13-.13.2-.3.2-.5,0-.08-.02-.19-.05-.31l.39.05s0,.05,0,.07c0,.19.05.36.15.51.1.15.25.22.45.22.16,0,.3-.05.4-.16.1-.11.16-.25.16-.42s-.05-.31-.16-.43c-.11-.11-.27-.19-.48-.22l.08-.44c.3.05.52.18.68.37.16.19.24.43.24.71,0,.2-.04.38-.13.54-.08.16-.2.29-.34.38-.14.09-.3.13-.46.13-.15,0-.3-.04-.42-.12-.13-.08-.23-.21-.3-.37-.05.21-.15.38-.31.49s-.34.18-.58.18c-.31,0-.58-.11-.8-.34-.22-.23-.32-.52-.32-.86,0-.31.09-.58.28-.78.19-.21.43-.32.73-.35h0Z"/>
  <path class="cls-9" d="M68.7,144.27l-.03-.44c.17-.04.3-.1.38-.17.12-.12.19-.27.19-.44,0-.14-.04-.26-.12-.37-.1-.14-.25-.25-.44-.33-.19-.08-.47-.12-.83-.12.16.1.28.23.36.39.08.15.12.31.12.48,0,.29-.11.54-.32.75-.21.21-.49.31-.83.31-.22,0-.43-.05-.63-.15-.19-.1-.34-.23-.44-.4s-.15-.36-.15-.58c0-.37.13-.66.4-.9.27-.23.72-.35,1.33-.35.69,0,1.19.13,1.51.38.27.22.41.52.41.9,0,.28-.08.51-.24.69-.16.18-.38.29-.65.32M67.16,142.48c-.15,0-.3.03-.43.1-.14.07-.24.16-.32.27-.07.11-.11.24-.11.36,0,.19.08.34.22.48.15.13.35.2.61.2s.44-.07.58-.2c.14-.13.21-.3.21-.5s-.07-.37-.21-.51c-.14-.14-.33-.21-.56-.21h0Z"/>
  <line class="cls-2" x1="71.92" y1="125.48" x2="71.92" y2="125.68"/>
  <polygon class="cls-9" points="70.56 129.38 74.14 129.38 74.14 129.82 70.56 129.82 70.56 129.38 70.56 129.38"/>
  <path class="cls-9" d="M73.63,130.6h.51v.44h-.51v-.44M70.56,130.6h2.59v.44h-2.59v-.44h0Z"/>
  <path class="cls-9" d="M70.56,131.79h2.59v.4h-.37c.29.19.43.47.43.83,0,.16-.03.3-.09.43-.06.13-.13.23-.22.3-.09.07-.2.11-.32.14-.08.02-.22.02-.43.02h-1.59v-.44h1.58c.18,0,.31-.02.4-.05.09-.03.16-.1.21-.18.05-.09.08-.19.08-.31,0-.19-.06-.35-.18-.49-.12-.13-.34-.2-.68-.2h-1.42v-.44h0Z"/>
  <polygon class="cls-9" points="71.63 134.26 72.08 134.26 72.08 135.61 71.63 135.61 71.63 134.26 71.63 134.26"/>
  <path class="cls-9" d="M70.56,137.65v-.44h2.8c-.1-.1-.2-.24-.3-.42-.1-.17-.18-.32-.23-.46h.42c.11.25.26.46.42.64.16.18.32.31.48.39v.28h-3.59Z"/>
  <line class="cls-2" x1="76.53" y1="125.48" x2="76.53" y2="125.68"/>
  <path class="cls-9" d="M75.95,131.17l-.06.45c-.27-.07-.47-.21-.62-.4s-.22-.44-.22-.74c0-.38.12-.68.35-.9.23-.22.56-.33.98-.33s.77.11,1.02.34.36.52.36.87-.12.63-.35.85c-.24.22-.57.33-1,.33-.03,0-.07,0-.12,0v-1.93c-.29.02-.5.1-.65.24-.15.14-.23.32-.23.54,0,.16.04.3.13.41.09.11.22.21.41.27M76.67,129.73v1.45c.22-.02.38-.08.49-.17.17-.14.25-.32.25-.54,0-.2-.07-.37-.2-.51-.13-.14-.31-.21-.54-.23h0Z"/>
  <path class="cls-9" d="M76.42,132.11c.48,0,.83.13,1.07.4.19.22.29.5.29.82,0,.36-.12.65-.35.87-.23.23-.55.34-.97.34-.33,0-.6-.05-.79-.15-.19-.1-.34-.24-.44-.44-.1-.19-.16-.4-.16-.62,0-.36.12-.66.35-.88.23-.22.57-.33,1.01-.33M76.42,132.56c-.33,0-.58.07-.75.22-.16.14-.25.33-.25.55s.08.4.25.54c.17.14.42.22.76.22.32,0,.56-.07.73-.22.17-.14.25-.32.25-.54s-.08-.4-.25-.55c-.16-.14-.41-.22-.74-.22h0Z"/>
  <path class="cls-9" d="M75.12,135.15h2.59v.4h-.39c.18.1.31.19.36.28.06.09.09.18.09.28,0,.15-.05.3-.14.45l-.41-.15c.06-.11.1-.21.1-.32,0-.1-.03-.18-.09-.26-.06-.08-.14-.13-.24-.16-.16-.05-.33-.07-.51-.07h-1.36v-.44h0Z"/>
  <polygon class="cls-9" points="76.19 136.66 76.64 136.66 76.64 138.01 76.19 138.01 76.19 136.66 76.19 136.66"/>
  <path class="cls-9" d="M75.12,140.05v-.44h2.8c-.1-.1-.2-.24-.3-.42-.1-.17-.18-.32-.23-.46h.42c.11.25.26.46.42.64.16.18.32.31.48.39v.28h-3.59Z"/>
  <line class="cls-2" x1="81.14" y1="125.48" x2="81.14" y2="125.68"/>
  <path class="cls-9" d="M80.75,131.17l-.06.45c-.27-.07-.47-.21-.62-.4s-.22-.44-.22-.74c0-.38.12-.68.35-.9.23-.22.56-.33.98-.33s.77.11,1.02.34.36.52.36.87-.12.63-.35.85c-.24.22-.57.33-1,.33-.03,0-.07,0-.12,0v-1.93c-.29.02-.5.1-.65.24-.15.14-.23.32-.23.54,0,.16.04.3.13.41.09.11.22.21.41.27M81.47,129.73v1.45c.22-.02.38-.08.49-.17.17-.14.25-.32.25-.54,0-.2-.07-.37-.2-.51-.13-.14-.31-.21-.54-.23h0Z"/>
  <polygon class="cls-9" points="79.92 132.26 83.5 132.26 83.5 132.7 79.92 132.7 79.92 132.26 79.92 132.26"/>
  <path class="cls-9" d="M80.31,134.43l-.39.06c-.03-.12-.04-.23-.04-.33,0-.16.02-.28.08-.37s.12-.15.2-.19c.08-.04.26-.05.52-.05h1.49v-.32h.34v.32h.64l.26.44h-.91v.44h-.34v-.44h-1.52c-.12,0-.21,0-.24.02-.04.02-.06.04-.09.08-.02.04-.03.09-.03.15,0,.05,0,.11.02.19h0Z"/>
  <polygon class="cls-9" points="80.99 134.5 81.44 134.5 81.44 135.85 80.99 135.85 80.99 134.5 80.99 134.5"/>
  <path class="cls-9" d="M80.34,138.54h-.42v-2.37c.1,0,.21.01.31.05.16.06.32.16.48.29.16.13.34.32.54.58.32.39.57.65.76.79.19.14.36.21.53.21s.32-.06.44-.19c.12-.12.18-.29.18-.49,0-.21-.06-.38-.19-.51-.13-.13-.3-.19-.53-.19l.05-.45c.34.03.59.15.77.35.18.2.27.47.27.81s-.1.62-.29.82c-.19.2-.43.3-.71.3-.14,0-.28-.03-.42-.09s-.28-.16-.44-.29c-.15-.13-.36-.36-.63-.68-.22-.26-.37-.43-.45-.51-.08-.08-.16-.14-.24-.19v1.76h0Z"/>
  <line class="cls-2" x1="85.75" y1="125.48" x2="85.75" y2="125.68"/>
  <path class="cls-9" d="M87.55,129.4h.51v.44h-.51v-.44M84.48,129.4h2.59v.44h-2.59v-.44h0Z"/>
  <path class="cls-9" d="M84.48,130.59h2.59v.4h-.39c.18.1.31.19.36.28.06.09.09.18.09.28,0,.15-.05.3-.14.45l-.41-.15c.06-.11.1-.21.1-.32,0-.1-.03-.18-.09-.26-.06-.08-.14-.13-.24-.16-.16-.05-.33-.07-.51-.07h-1.36v-.44h0Z"/>
  <path class="cls-9" d="M84.48,131.98l1.35.95,1.25-.88v.55l-.61.4c-.11.08-.21.13-.29.18.11.07.2.14.29.2l.61.44v.52l-1.22-.9-1.37.96v-.54l.81-.53.22-.14-1.02-.68v-.53h0Z"/>
  <polygon class="cls-9" points="85.55 134.5 86 134.5 86 135.85 85.55 135.85 85.55 134.5 85.55 134.5"/>
  <path class="cls-9" d="M84.48,137.89v-.44h2.8c-.1-.1-.2-.24-.3-.42-.1-.17-.18-.32-.23-.46h.42c.11.25.26.46.42.64.16.18.32.31.48.39v.28h-3.59Z"/>
  <line class="cls-2" x1="90.36" y1="125.48" x2="90.36" y2="125.68"/>
  <path class="cls-9" d="M88.05,129.39h3.59v.4h-.34c.13.1.23.2.3.32s.1.26.1.43c0,.22-.06.42-.17.59s-.28.3-.48.38-.43.13-.68.13c-.27,0-.51-.05-.72-.14s-.37-.23-.49-.42c-.11-.18-.17-.37-.17-.57,0-.15.03-.28.09-.4.06-.11.14-.21.23-.29h-1.26v-.44M90.32,129.79c-.33,0-.58.07-.74.2s-.24.3-.24.49.08.36.25.5c.17.14.42.21.77.21s.58-.07.74-.21c.16-.13.25-.3.25-.49s-.09-.35-.26-.5c-.17-.14-.43-.21-.76-.21h0Z"/>
  <path class="cls-9" d="M89.36,133.97c-.14-.16-.24-.32-.29-.47-.06-.15-.09-.31-.09-.48,0-.29.07-.5.21-.66s.32-.23.53-.23c.13,0,.24.03.35.09.1.06.19.13.25.23.06.1.11.2.14.32.02.09.04.22.07.39.04.35.09.62.15.78.06,0,.1,0,.11,0,.18,0,.31-.04.38-.12.1-.11.15-.28.15-.5,0-.21-.04-.36-.11-.46-.07-.1-.2-.17-.38-.22l.06-.43c.18.04.33.1.44.19.11.09.2.22.26.39s.09.37.09.59-.03.4-.08.54-.12.24-.2.31c-.08.07-.18.11-.3.14-.08.01-.21.02-.41.02h-.59c-.41,0-.67,0-.78.03-.11.02-.21.06-.31.11v-.46c.09-.05.2-.08.32-.09M90.34,133.93c-.07-.16-.12-.4-.17-.72-.03-.18-.06-.31-.09-.38s-.08-.13-.14-.17c-.06-.04-.13-.06-.21-.06-.12,0-.21.04-.29.13-.08.09-.12.22-.12.39s.04.32.11.45c.08.13.18.23.31.29.1.05.25.07.44.07h.16Z"/>
  <polygon class="cls-9" points="89.04 135.14 92.62 135.14 92.62 135.58 89.04 135.58 89.04 135.14 89.04 135.14"/>
  <polygon class="cls-9" points="90.11 135.94 90.56 135.94 90.56 137.29 90.11 137.29 90.11 135.94 90.11 135.94"/>
  <path class="cls-9" d="M89.04,139.33v-.44h2.8c-.1-.1-.2-.24-.3-.42-.1-.17-.18-.32-.23-.46h.42c.11.25.26.46.42.64s.32.31.48.39v.28h-3.59Z"/>
  <line class="cls-2" x1="94.98" y1="125.48" x2="94.98" y2="125.68"/>
  <path class="cls-9" d="M93.6,129.39h2.59v.4h-.37c.29.19.43.47.43.83,0,.16-.03.3-.09.43-.06.13-.13.23-.22.3s-.2.11-.32.14c-.08.02-.22.02-.43.02h-1.59v-.44h1.58c.18,0,.31-.02.4-.05.09-.03.16-.1.21-.18.05-.09.08-.19.08-.31,0-.19-.06-.35-.18-.49-.12-.13-.34-.2-.68-.2h-1.42v-.44h0Z"/>
  <path class="cls-9" d="M93.6,132.27h3.58v.44h-1.28c.24.21.36.46.36.78,0,.19-.04.36-.11.5s-.18.24-.31.3-.33.09-.58.09h-1.64v-.44h1.64c.22,0,.38-.05.48-.14s.15-.23.15-.4c0-.13-.03-.25-.1-.37-.07-.11-.16-.2-.27-.24s-.28-.07-.48-.07h-1.42v-.44h0Z"/>
  <path class="cls-9" d="M93.6,135.15h2.59v.4h-.39c.18.1.31.19.36.28.06.09.09.18.09.28,0,.15-.05.3-.14.45l-.41-.15c.06-.11.1-.21.1-.32,0-.1-.03-.18-.09-.26-.06-.08-.14-.13-.24-.16-.16-.05-.33-.07-.51-.07h-1.36v-.44h0Z"/>
  <polygon class="cls-9" points="94.67 136.66 95.12 136.66 95.12 138.01 94.67 138.01 94.67 136.66 94.67 136.66"/>
  <path class="cls-9" d="M96.71,138.42h.42v2.32h-.34c-.24-.23-.56-.45-.97-.68-.4-.22-.82-.4-1.24-.52-.3-.09-.63-.14-.98-.17v-.45c.28,0,.62.06,1.02.17.4.11.78.26,1.15.45.37.2.68.41.94.63v-1.75h0Z"/>
  <path class="cls-9" d="M94.43,141.1l.04.42c-.2.04-.34.1-.43.21-.09.1-.13.23-.13.39,0,.13.03.25.09.35.06.1.14.19.25.25.1.07.24.12.42.16s.35.07.54.07c.02,0,.05,0,.09,0-.14-.09-.25-.21-.34-.36-.09-.15-.13-.31-.13-.49,0-.3.11-.55.32-.75s.5-.31.85-.31.65.11.88.32c.22.21.33.48.33.81,0,.23-.06.44-.19.64-.12.19-.31.34-.54.44-.23.1-.57.15-1.01.15s-.82-.05-1.09-.15c-.27-.1-.48-.25-.62-.44-.14-.2-.21-.42-.21-.69,0-.28.08-.51.23-.69.16-.18.38-.28.66-.32M96.01,142.9c.25,0,.45-.07.6-.2.15-.13.22-.3.22-.48s-.08-.37-.24-.51c-.16-.14-.37-.22-.62-.22-.23,0-.41.07-.56.21-.14.14-.21.31-.21.51s.07.37.21.5c.14.13.34.2.59.2h0Z"/>
  <line class="cls-2" x1="99.59" y1="125.48" x2="99.59" y2="125.68"/>
  <path class="cls-9" d="M98.4,129.39h2.59v.4h-.37c.29.19.43.47.43.83,0,.16-.03.3-.09.43-.06.13-.13.23-.22.3s-.2.11-.32.14c-.08.02-.22.02-.43.02h-1.59v-.44h1.58c.18,0,.31-.02.4-.05.09-.03.16-.1.21-.18.05-.09.08-.19.08-.31,0-.19-.06-.35-.18-.49-.12-.13-.34-.2-.68-.2h-1.42v-.44h0Z"/>
  <path class="cls-9" d="M98.4,132.27h3.58v.44h-1.28c.24.21.36.46.36.78,0,.19-.04.36-.11.5s-.18.24-.31.3-.33.09-.58.09h-1.64v-.44h1.64c.22,0,.38-.05.48-.14s.15-.23.15-.4c0-.13-.03-.25-.1-.37-.07-.11-.16-.2-.27-.24s-.28-.07-.48-.07h-1.42v-.44h0Z"/>
  <path class="cls-9" d="M98.4,135.15h2.59v.4h-.39c.18.1.31.19.36.28.06.09.09.18.09.28,0,.15-.05.3-.14.45l-.41-.15c.06-.11.1-.21.1-.32,0-.1-.03-.18-.09-.26-.06-.08-.14-.13-.24-.16-.16-.05-.33-.07-.51-.07h-1.36v-.44h0Z"/>
  <polygon class="cls-9" points="99.47 136.66 99.92 136.66 99.92 138.01 99.47 138.01 99.47 136.66 99.47 136.66"/>
  <path class="cls-9" d="M101.1,140.67l-.03-.44c.17-.04.3-.1.38-.17.12-.12.19-.27.19-.44,0-.14-.04-.26-.12-.37-.1-.14-.25-.25-.44-.33s-.47-.12-.83-.12c.16.11.28.23.36.39s.12.31.12.48c0,.29-.11.54-.32.75-.21.21-.49.31-.83.31-.22,0-.43-.05-.63-.15-.19-.1-.34-.23-.44-.4s-.15-.36-.15-.58c0-.37.13-.66.4-.9.27-.23.72-.35,1.33-.35.69,0,1.19.13,1.51.38.27.22.41.52.41.9,0,.28-.08.51-.24.69-.16.18-.38.29-.65.32M99.56,138.88c-.15,0-.3.03-.43.1-.14.07-.24.16-.32.27-.07.11-.11.24-.11.36,0,.19.08.34.22.48.15.13.35.2.61.2s.44-.07.58-.2c.14-.13.21-.3.21-.5s-.07-.37-.21-.51c-.14-.14-.33-.21-.56-.21h0Z"/>
  <path class="cls-9" d="M101.51,141.06h.42v2.32h-.34c-.24-.23-.56-.45-.97-.68-.4-.22-.82-.4-1.24-.52-.3-.09-.63-.14-.98-.17v-.45c.28,0,.62.06,1.02.17.4.11.78.26,1.15.45.37.2.68.41.94.63v-1.75h0Z"/>
  <line class="cls-2" x1="104.2" y1="125.48" x2="104.2" y2="125.68"/>
  <path class="cls-9" d="M101.97,129.39h3.59v.4h-.34c.13.1.23.2.3.32s.1.26.1.43c0,.22-.06.42-.17.59s-.28.3-.48.38-.43.13-.68.13c-.27,0-.51-.05-.72-.14s-.37-.23-.49-.42c-.11-.18-.17-.37-.17-.57,0-.15.03-.28.09-.4.06-.11.14-.21.23-.29h-1.26v-.44M104.24,129.79c-.33,0-.58.07-.74.2s-.24.3-.24.49.08.36.25.5c.17.14.42.21.77.21s.58-.07.74-.21c.16-.13.25-.3.25-.49s-.09-.35-.26-.5c-.17-.14-.43-.21-.76-.21h0Z"/>
  <path class="cls-9" d="M102.96,132.27h3.58v.44h-1.28c.24.21.36.46.36.78,0,.19-.04.36-.11.5s-.18.24-.31.3-.33.09-.58.09h-1.64v-.44h1.64c.22,0,.38-.05.48-.14s.15-.23.15-.4c0-.13-.03-.25-.1-.37-.07-.11-.16-.2-.27-.24s-.28-.07-.48-.07h-1.42v-.44h0Z"/>
  <path class="cls-9" d="M103.28,136.85c-.14-.16-.24-.32-.29-.47-.06-.15-.09-.31-.09-.48,0-.29.07-.5.21-.66s.32-.23.53-.23c.13,0,.24.03.35.09.1.06.19.13.25.23.06.1.11.2.14.32.02.09.04.22.07.39.04.35.09.62.15.78.06,0,.1,0,.11,0,.18,0,.31-.04.38-.12.1-.11.15-.28.15-.5,0-.21-.04-.36-.11-.46-.07-.1-.2-.17-.38-.22l.06-.43c.18.04.33.1.44.19.11.09.2.22.26.39s.09.37.09.59-.03.4-.08.54-.12.24-.2.31c-.08.07-.18.11-.3.14-.08.01-.21.02-.41.02h-.59c-.41,0-.67,0-.78.03-.11.02-.21.06-.31.11v-.46c.09-.05.2-.08.32-.09M104.26,136.81c-.07-.16-.12-.4-.17-.72-.03-.18-.06-.31-.09-.38-.03-.08-.08-.13-.14-.17-.06-.04-.13-.06-.21-.06-.12,0-.21.04-.29.13-.08.09-.12.22-.12.39s.04.32.11.45c.08.13.18.23.31.29.1.05.25.07.44.07h.16Z"/>
  <polygon class="cls-9" points="104.03 137.62 104.48 137.62 104.48 138.97 104.03 138.97 104.03 137.62 104.03 137.62"/>
  <path class="cls-9" d="M102.96,140.76h.86v-1.55h.4l2.32,1.63v.36h-2.32v.48h-.4v-.48h-.86v-.44M104.22,140.76h1.61l-1.61-1.12v1.12h0Z"/>
  <line class="cls-2" x1="108.81" y1="125.48" x2="108.81" y2="125.68"/>
  <path class="cls-9" d="M107.52,129.39h2.59v.4h-.37c.29.19.43.47.43.83,0,.16-.03.3-.09.43-.06.13-.13.23-.22.3-.09.07-.2.11-.32.14-.08.02-.22.02-.43.02h-1.59v-.44h1.58c.18,0,.31-.02.4-.05.09-.03.16-.1.21-.18.05-.09.08-.19.08-.31,0-.19-.06-.35-.18-.49-.12-.13-.34-.2-.68-.2h-1.42v-.44h0Z"/>
  <path class="cls-9" d="M107.52,132.27h3.58v.44h-1.28c.24.21.36.46.36.78,0,.19-.04.36-.11.5-.08.14-.18.24-.31.3-.13.06-.33.09-.58.09h-1.64v-.44h1.64c.22,0,.38-.05.48-.14.1-.1.15-.23.15-.4,0-.13-.03-.25-.1-.37-.07-.11-.16-.2-.27-.24-.11-.05-.28-.07-.48-.07h-1.42v-.44h0Z"/>
  <path class="cls-9" d="M107.52,135.15h2.59v.4h-.39c.18.1.31.19.36.28.06.09.09.18.09.28,0,.15-.05.3-.14.45l-.41-.15c.06-.11.1-.21.1-.32,0-.1-.03-.18-.09-.26-.06-.08-.14-.13-.24-.16-.16-.05-.33-.07-.51-.07h-1.36v-.44h0Z"/>
  <polygon class="cls-9" points="108.59 136.66 109.04 136.66 109.04 138.01 108.59 138.01 108.59 136.66 108.59 136.66"/>
  <path class="cls-9" d="M107.94,140.7h-.42v-2.37c.1,0,.21.01.31.05.16.06.32.16.48.29.16.13.34.32.54.58.32.39.57.65.76.79.19.14.36.21.53.21s.32-.06.44-.19c.12-.12.18-.29.18-.49,0-.21-.06-.38-.19-.51-.13-.13-.3-.19-.53-.19l.05-.45c.34.03.59.15.77.35.18.2.27.47.27.81s-.1.62-.29.82c-.19.2-.43.3-.71.3-.14,0-.28-.03-.42-.09s-.28-.16-.44-.29c-.15-.13-.36-.36-.63-.68-.22-.26-.37-.43-.45-.51-.08-.08-.16-.14-.24-.19v1.76h0Z"/>
  <path class="cls-9" d="M108.46,141.03l.04.46c-.22.03-.39.11-.51.24-.11.12-.17.28-.17.45,0,.21.08.39.24.54.16.15.37.22.63.22s.45-.07.59-.21c.14-.14.22-.32.22-.55,0-.14-.03-.27-.1-.38-.06-.11-.15-.2-.25-.27l.05-.41,1.84.35v1.78h-.42v-1.43l-.96-.19c.15.21.22.44.22.68,0,.31-.11.58-.32.79-.22.21-.5.32-.83.32s-.6-.1-.84-.28c-.29-.23-.43-.54-.43-.94,0-.32.09-.59.27-.8.18-.21.42-.32.73-.35h0Z"/>
  <line class="cls-2" x1="113.42" y1="125.48" x2="113.42" y2="125.68"/>
  <path class="cls-9" d="M112.08,131.08h.33c-.26-.16-.39-.41-.39-.73,0-.21.06-.4.17-.57.11-.17.27-.31.48-.4.21-.1.44-.14.71-.14s.49.04.7.13c.21.09.37.21.49.39.11.17.17.37.17.58,0,.16-.03.3-.1.42s-.15.22-.26.3h1.28v.44h-3.58v-.41M113.37,129.69c-.33,0-.58.07-.74.21-.16.14-.25.31-.25.5s.08.35.23.49c.16.13.4.2.72.2.35,0,.62-.07.78-.21.17-.14.25-.31.25-.51s-.08-.36-.24-.49c-.16-.13-.41-.2-.75-.2h0Z"/>
  <path class="cls-9" d="M111.09,132.27h3.59v.4h-.34c.13.1.23.2.3.32s.1.26.1.43c0,.22-.06.42-.17.59-.11.17-.28.3-.48.38-.21.09-.43.13-.68.13-.27,0-.51-.05-.72-.14s-.37-.23-.49-.42c-.11-.18-.17-.37-.17-.57,0-.15.03-.28.09-.4.06-.11.14-.21.23-.29h-1.26v-.44M113.36,132.67c-.33,0-.58.07-.74.2-.16.13-.24.3-.24.49s.08.36.25.5c.17.14.42.21.77.21s.58-.07.74-.21c.16-.13.25-.3.25-.49s-.09-.35-.26-.5c-.17-.14-.43-.21-.76-.21h0Z"/>
  <polygon class="cls-9" points="112.08 135.14 115.66 135.14 115.66 135.58 112.08 135.58 112.08 135.14 112.08 135.14"/>
  <polygon class="cls-9" points="113.15 135.94 113.6 135.94 113.6 137.29 113.15 137.29 113.15 135.94 113.15 135.94"/>
  <path class="cls-9" d="M112.08,139.33v-.44h2.8c-.1-.1-.2-.24-.3-.42-.1-.17-.18-.32-.23-.46h.42c.11.25.26.46.42.64.16.18.32.31.48.39v.28h-3.59Z"/>
  <line class="cls-2" x1="118.03" y1="125.48" x2="118.03" y2="125.68"/>
  <path class="cls-9" d="M116.64,129.39h3.58v.44h-1.28c.24.21.36.46.36.78,0,.19-.04.36-.11.5-.08.14-.18.24-.31.3-.13.06-.33.09-.58.09h-1.64v-.44h1.64c.22,0,.38-.05.48-.14.1-.1.15-.23.15-.4,0-.13-.03-.25-.1-.37-.07-.11-.16-.2-.27-.24-.11-.05-.28-.07-.48-.07h-1.42v-.44h0Z"/>
  <polygon class="cls-9" points="116.64 132.26 120.22 132.26 120.22 132.7 116.64 132.7 116.64 132.26 116.64 132.26"/>
  <path class="cls-9" d="M116.64,133.47h3.58v.44h-1.28c.24.21.36.46.36.78,0,.19-.04.36-.11.5-.08.14-.18.24-.31.3-.13.06-.33.09-.58.09h-1.64v-.44h1.64c.22,0,.38-.05.48-.14.1-.1.15-.23.15-.4,0-.13-.03-.25-.1-.37-.07-.11-.16-.2-.27-.24-.11-.05-.28-.07-.48-.07h-1.42v-.44h0Z"/>
  <polygon class="cls-9" points="117.71 135.94 118.16 135.94 118.16 137.29 117.71 137.29 117.71 135.94 117.71 135.94"/>
  <path class="cls-9" d="M116.64,139.33v-.44h2.8c-.1-.1-.2-.24-.3-.42-.1-.17-.18-.32-.23-.46h.42c.11.25.26.46.42.64.16.18.32.31.48.39v.28h-3.59Z"/>
  <path class="cls-9" d="M119.34,142.83l-.03-.44c.17-.04.3-.1.38-.17.12-.12.19-.27.19-.44,0-.14-.04-.26-.12-.37-.1-.14-.25-.25-.44-.33-.19-.08-.47-.12-.83-.12.16.1.28.23.36.39.08.15.12.31.12.48,0,.29-.11.54-.32.75-.21.21-.49.31-.83.31-.22,0-.43-.05-.63-.15-.19-.1-.34-.23-.44-.4s-.15-.36-.15-.58c0-.37.13-.66.4-.9.27-.23.72-.35,1.33-.35.69,0,1.19.13,1.51.38.27.22.41.52.41.9,0,.28-.08.51-.24.69-.16.18-.38.29-.65.32M117.8,141.04c-.15,0-.3.03-.43.1-.14.07-.24.16-.32.27-.07.11-.11.24-.11.36,0,.19.08.34.22.48.15.13.35.2.61.2s.44-.07.58-.2c.14-.13.21-.3.21-.5s-.07-.37-.21-.51c-.14-.14-.33-.21-.56-.21h0Z"/>
  <line class="cls-2" x1="122.64" y1="125.48" x2="122.64" y2="125.68"/>
  <path class="cls-9" d="M122.27,131.17l-.06.45c-.27-.07-.47-.21-.62-.4s-.22-.44-.22-.74c0-.38.12-.68.35-.9.23-.22.56-.33.98-.33s.77.11,1.02.34.36.52.36.87-.12.63-.35.85c-.24.22-.57.33-1,.33-.03,0-.07,0-.12,0v-1.93c-.29.02-.5.1-.65.24-.15.14-.23.32-.23.54,0,.16.04.3.13.41.09.11.22.21.41.27M122.99,129.73v1.45c.22-.02.38-.08.49-.17.17-.14.25-.32.25-.54,0-.2-.07-.37-.2-.51-.13-.14-.31-.21-.54-.23h0Z"/>
  <polygon class="cls-9" points="121.44 132.26 125.02 132.26 125.02 132.7 121.44 132.7 121.44 132.26 121.44 132.26"/>
  <path class="cls-9" d="M121.83,134.43l-.39.06c-.03-.12-.04-.23-.04-.33,0-.16.02-.28.08-.37s.12-.15.2-.19c.08-.04.26-.05.52-.05h1.49v-.32h.34v.32h.64l.26.44h-.91v.44h-.34v-.44h-1.52c-.12,0-.21,0-.24.02-.04.02-.06.04-.09.08-.02.04-.03.09-.03.15,0,.05,0,.11.02.19h0Z"/>
  <polygon class="cls-9" points="122.51 134.5 122.96 134.5 122.96 135.85 122.51 135.85 122.51 134.5 122.51 134.5"/>
  <path class="cls-9" d="M121.44,137.89v-.44h2.8c-.1-.1-.2-.24-.3-.42-.1-.17-.18-.32-.23-.46h.42c.11.25.26.46.42.64.16.18.32.31.48.39v.28h-3.59Z"/>
  <line class="cls-2" x1="127.26" y1="125.48" x2="127.26" y2="125.68"/>
  <path class="cls-9" d="M126,131.08h.33c-.26-.16-.39-.41-.39-.73,0-.21.06-.4.17-.57.11-.17.27-.31.48-.4.21-.1.44-.14.71-.14s.49.04.7.13c.21.09.37.21.49.39.11.17.17.37.17.58,0,.16-.03.3-.1.42s-.15.22-.26.3h1.28v.44h-3.58v-.41M127.29,129.69c-.33,0-.58.07-.74.21-.16.14-.25.31-.25.5s.08.35.23.49c.16.13.4.2.72.2.35,0,.62-.07.78-.21.17-.14.25-.31.25-.51s-.08-.36-.24-.49c-.16-.13-.41-.2-.75-.2h0Z"/>
  <path class="cls-9" d="M129.07,132.28h.51v.44h-.51v-.44M126,132.28h2.59v.44h-2.59v-.44h0Z"/>
  <path class="cls-9" d="M126.83,135.25l-.06.45c-.27-.07-.47-.21-.62-.4-.15-.19-.22-.44-.22-.74,0-.38.12-.68.35-.9.23-.22.56-.33.98-.33s.77.11,1.02.34c.24.22.36.52.36.87s-.12.63-.35.85c-.24.22-.57.33-1,.33-.03,0-.07,0-.12,0v-1.93c-.29.02-.5.1-.65.24-.15.14-.23.32-.23.54,0,.16.04.3.13.41.09.11.22.21.41.27M127.55,133.81v1.45c.22-.02.38-.08.49-.17.17-.14.25-.32.25-.54,0-.2-.07-.37-.2-.51-.13-.14-.31-.21-.54-.23h0Z"/>
  <polygon class="cls-9" points="127.07 135.94 127.52 135.94 127.52 137.29 127.07 137.29 127.07 135.94 127.07 135.94"/>
  <path class="cls-9" d="M126,139.33v-.44h2.8c-.1-.1-.2-.24-.3-.42-.1-.17-.18-.32-.23-.46h.42c.11.25.26.46.42.64.16.18.32.31.48.39v.28h-3.59Z"/>
  <line class="cls-2" x1="131.87" y1="125.48" x2="131.87" y2="125.68"/>
  <path class="cls-9" d="M130.56,129.39h2.59v.39h-.36c.13.08.23.19.31.32.08.13.12.29.12.46,0,.19-.04.35-.12.47-.08.12-.19.21-.33.26.3.21.45.47.45.8,0,.26-.07.45-.21.59-.14.14-.36.21-.66.21h-1.78v-.44h1.63c.18,0,.3-.01.38-.04.08-.03.14-.08.19-.15.05-.08.07-.16.07-.26,0-.18-.06-.33-.18-.45-.12-.12-.31-.18-.58-.18h-1.51v-.44h1.68c.2,0,.34-.04.44-.11.1-.07.15-.19.15-.35,0-.12-.03-.24-.1-.34s-.16-.18-.29-.23-.31-.07-.54-.07h-1.35v-.44h0Z"/>
  <path class="cls-9" d="M130.56,133.71h2.59v.4h-.37c.29.19.43.47.43.83,0,.16-.03.3-.09.43-.06.13-.13.23-.22.3-.09.07-.2.11-.32.14-.08.02-.22.02-.43.02h-1.59v-.44h1.58c.18,0,.31-.02.4-.05.09-.03.16-.1.21-.18.05-.09.08-.19.08-.31,0-.19-.06-.35-.18-.49-.12-.13-.34-.2-.68-.2h-1.42v-.44h0Z"/>
  <path class="cls-9" d="M130.56,136.35h2.59v.39h-.36c.13.08.23.19.31.32.08.13.12.29.12.46,0,.19-.04.35-.12.47-.08.12-.19.21-.33.26.3.21.45.47.45.8,0,.26-.07.45-.21.59-.14.14-.36.21-.66.21h-1.78v-.44h1.63c.18,0,.3-.01.38-.04.08-.03.14-.08.19-.15.05-.08.07-.16.07-.26,0-.18-.06-.33-.18-.45-.12-.12-.31-.18-.58-.18h-1.51v-.44h1.68c.2,0,.34-.04.44-.11.1-.07.15-.19.15-.35,0-.12-.03-.24-.1-.34-.07-.11-.16-.18-.29-.23-.12-.05-.31-.07-.54-.07h-1.35v-.44h0Z"/>
  <polygon class="cls-9" points="131.63 140.5 132.08 140.5 132.08 141.85 131.63 141.85 131.63 140.5 131.63 140.5"/>
  <path class="cls-9" d="M130.98,144.54h-.42v-2.37c.1,0,.21.01.31.05.16.06.32.16.48.29.16.13.34.32.54.58.32.39.57.65.76.79.19.14.36.21.53.21s.32-.06.44-.19c.12-.12.18-.29.18-.49,0-.21-.06-.38-.19-.51-.13-.13-.3-.19-.53-.19l.05-.45c.34.03.59.15.77.35.18.2.27.47.27.81s-.1.62-.29.82c-.19.2-.43.3-.71.3-.14,0-.28-.03-.42-.09s-.28-.16-.44-.29c-.15-.13-.36-.36-.63-.68-.22-.26-.37-.43-.45-.51-.08-.08-.16-.14-.24-.19v1.76h0Z"/>
  <line class="cls-2" x1="136.48" y1="125.48" x2="136.48" y2="125.68"/>
  <path class="cls-9" d="M135.12,129.39h2.59v.4h-.39c.18.1.31.19.36.28s.09.18.09.28c0,.15-.05.3-.14.45l-.41-.15c.06-.11.1-.21.1-.32,0-.1-.03-.18-.09-.26-.06-.08-.14-.13-.24-.16-.16-.05-.33-.07-.51-.07h-1.36v-.44h0Z"/>
  <path class="cls-9" d="M135.95,132.85l-.06.45c-.27-.07-.47-.21-.62-.4-.15-.19-.22-.44-.22-.74,0-.38.12-.68.35-.9.23-.22.56-.33.98-.33s.77.11,1.02.34c.24.22.36.52.36.87s-.12.63-.35.85-.57.33-1,.33c-.03,0-.07,0-.12,0v-1.93c-.29.02-.5.1-.65.24-.15.14-.23.32-.23.54,0,.16.04.3.13.41.09.11.22.21.41.27M136.67,131.41v1.45c.22-.02.38-.08.49-.17.17-.14.25-.32.25-.54,0-.2-.07-.37-.2-.51-.13-.14-.31-.21-.54-.23h0Z"/>
  <path class="cls-9" d="M135.12,134.06h2.25v-.39h.34v.39h.28c.17,0,.3.01.39.05.11.04.21.12.28.22.07.11.11.26.11.45,0,.12-.01.26-.04.41l-.38-.07c.02-.09.02-.18.02-.26,0-.13-.03-.23-.09-.28-.06-.06-.16-.08-.32-.08h-.24v.51h-.34v-.51h-2.25v-.44h0Z"/>
  <polygon class="cls-9" points="136.19 135.22 136.64 135.22 136.64 136.57 136.19 136.57 136.19 135.22 136.19 135.22"/>
  <path class="cls-9" d="M135.54,139.26h-.42v-2.37c.1,0,.21.01.31.05.16.06.32.16.48.29.16.13.34.32.54.58.32.39.57.65.76.79.19.14.36.21.53.21s.32-.06.44-.19.18-.29.18-.49c0-.21-.06-.38-.19-.51-.13-.13-.3-.19-.53-.19l.05-.45c.34.03.59.15.77.35.18.2.27.47.27.81s-.1.62-.29.82c-.19.2-.43.3-.71.3-.14,0-.28-.03-.42-.09s-.28-.16-.44-.29c-.15-.13-.36-.36-.63-.68-.22-.26-.37-.43-.45-.51-.08-.08-.16-.14-.24-.19v1.76h0Z"/>
  <line class="cls-2" x1="141.09" y1="125.48" x2="141.09" y2="125.68"/>
  <polygon class="cls-9" points="139.92 129.38 143.5 129.38 143.5 129.82 139.92 129.82 139.92 129.38 139.92 129.38"/>
  <path class="cls-9" d="M140.69,130.42l.07.43c-.17.02-.31.09-.4.2-.09.11-.14.27-.14.47s.04.35.12.45c.08.1.18.15.29.15.1,0,.18-.04.23-.13.04-.06.09-.21.15-.45.08-.32.15-.55.21-.67.06-.12.14-.22.25-.28.1-.06.22-.1.35-.1.11,0,.22.03.32.08.1.05.18.13.25.22.05.07.09.16.13.28.04.12.05.25.05.38,0,.2-.03.38-.09.53s-.14.27-.24.34c-.1.07-.23.12-.4.15l-.06-.43c.13-.02.24-.08.31-.17.08-.09.11-.22.11-.4,0-.2-.03-.35-.1-.43-.07-.09-.14-.13-.23-.13-.06,0-.11.02-.15.05-.05.04-.09.09-.12.17-.02.04-.05.17-.11.39-.08.31-.15.53-.21.65-.05.12-.13.22-.23.29-.1.07-.23.1-.38.1s-.29-.04-.42-.13c-.13-.09-.23-.21-.3-.37-.07-.16-.1-.34-.1-.55,0-.34.07-.59.21-.77.14-.18.35-.29.62-.34h0Z"/>
  <path class="cls-9" d="M138.92,133.21l.41-.05c-.03.1-.04.18-.04.25,0,.1.02.18.05.23.03.06.08.11.14.14.04.03.15.07.33.13.02,0,.06.02.11.04l2.6-.98v.47l-1.5.54c-.19.07-.39.13-.6.19.2.05.4.11.59.18l1.51.55v.44l-2.64-.99c-.29-.11-.48-.19-.59-.25-.14-.08-.25-.17-.32-.27-.07-.1-.1-.22-.1-.36,0-.09.02-.18.05-.28h0Z"/>
  <polygon class="cls-9" points="140.99 135.46 141.44 135.46 141.44 136.81 140.99 136.81 140.99 135.46 140.99 135.46"/>
  <path class="cls-9" d="M140.34,139.5h-.42v-2.37c.1,0,.21.01.31.05.16.06.32.16.48.29.16.13.34.32.54.58.32.39.57.65.76.79.19.14.36.21.53.21s.32-.06.44-.19c.12-.12.18-.29.18-.49,0-.21-.06-.38-.19-.51-.13-.13-.3-.19-.53-.19l.05-.45c.34.03.59.15.77.35.18.2.27.47.27.81s-.1.62-.29.82c-.19.2-.43.3-.71.3-.14,0-.28-.03-.42-.09s-.28-.16-.44-.29c-.15-.13-.36-.36-.63-.68-.22-.26-.37-.43-.45-.51-.08-.08-.16-.14-.24-.19v1.76h0Z"/>
  <path class="cls-9" d="M143.03,139.86h.42v2.32h-.34c-.24-.23-.56-.45-.97-.68-.4-.22-.82-.4-1.24-.52-.3-.09-.63-.14-.98-.17v-.45c.28,0,.62.06,1.02.17.4.11.78.26,1.15.45.37.2.68.41.94.63v-1.75h0Z"/>
  <line class="cls-2" x1="145.7" y1="125.48" x2="145.7" y2="125.68"/>
  <path class="cls-9" d="M144.48,129.43h3.58v1.34c0,.27-.04.49-.11.66-.07.17-.18.3-.33.39-.15.1-.31.14-.47.14-.15,0-.3-.04-.43-.12s-.24-.21-.33-.38c-.06.22-.17.38-.32.5-.15.12-.33.18-.54.18-.17,0-.32-.04-.47-.11s-.25-.16-.33-.26-.14-.23-.18-.39c-.04-.16-.06-.35-.06-.58v-1.36M146.56,129.9v.77c0,.21.01.36.04.45.04.12.1.21.18.27s.19.09.31.09.22-.03.31-.09.15-.14.19-.24c.03-.1.05-.29.05-.54v-.72h-1.08M144.9,129.9v.89c0,.15,0,.26.02.32.02.11.05.2.1.27s.11.13.2.18c.09.05.19.07.3.07.13,0,.25-.03.35-.1.1-.07.17-.16.21-.29.04-.12.06-.3.06-.52v-.83h-1.23Z"/>
  <path class="cls-9" d="M146.25,132.63c.42,0,.76.04,1.02.13.26.09.46.22.6.39.14.17.21.39.21.65,0,.19-.04.36-.12.51-.08.14-.19.26-.33.36-.14.1-.32.17-.53.22-.21.05-.49.08-.84.08-.42,0-.76-.04-1.02-.13-.26-.09-.46-.21-.6-.39-.14-.17-.21-.39-.21-.65,0-.34.12-.62.37-.81.3-.24.78-.35,1.46-.35M146.25,133.08c-.59,0-.98.07-1.17.21-.19.14-.29.31-.29.51s.1.37.29.51c.2.14.59.21,1.17.21s.98-.07,1.17-.21c.19-.14.29-.31.29-.51s-.09-.36-.26-.48c-.22-.15-.62-.23-1.21-.23h0Z"/>
  <path class="cls-9" d="M145.42,135.51l.06.44c-.25.05-.43.14-.54.26-.11.12-.16.27-.16.44,0,.21.07.38.21.52.14.14.32.21.53.21s.37-.07.5-.2c.13-.13.2-.3.2-.5,0-.08-.02-.19-.05-.31l.39.05s0,.05,0,.07c0,.19.05.36.15.51.1.15.25.22.45.22.16,0,.3-.05.4-.16s.16-.25.16-.42-.05-.31-.16-.43c-.11-.11-.27-.19-.48-.22l.08-.44c.3.05.52.18.68.37.16.19.24.43.24.71,0,.2-.04.38-.13.54-.08.16-.2.29-.34.38-.14.09-.3.13-.46.13-.15,0-.3-.04-.42-.12-.13-.08-.23-.21-.3-.37-.05.21-.15.38-.31.49s-.34.18-.58.18c-.31,0-.58-.11-.8-.34s-.32-.52-.32-.86c0-.31.09-.58.28-.78.19-.21.43-.32.73-.35h0Z"/>
  <path class="cls-9" d="M144.48,140.05v-.44h2.8c-.1-.1-.2-.24-.3-.42-.1-.17-.18-.32-.23-.46h.42c.11.25.26.46.42.64s.32.31.48.39v.28h-3.59Z"/>
  <path class="cls-9" d="M146.25,141.03c.42,0,.76.04,1.02.13.26.09.46.22.6.39.14.17.21.39.21.65,0,.19-.04.36-.12.51-.08.14-.19.26-.33.36-.14.1-.32.17-.53.22-.21.05-.49.08-.84.08-.42,0-.76-.04-1.02-.13-.26-.09-.46-.21-.6-.39-.14-.17-.21-.39-.21-.65,0-.34.12-.62.37-.81.3-.24.78-.35,1.46-.35M146.25,141.48c-.59,0-.98.07-1.17.21-.19.14-.29.31-.29.51s.1.37.29.51c.2.14.59.21,1.17.21s.98-.07,1.17-.21c.19-.14.29-.31.29-.51s-.09-.36-.26-.48c-.22-.15-.62-.23-1.21-.23h0Z"/>
  <polygon class="cls-9" points="144.48 144.16 144.98 144.16 144.98 144.66 144.48 144.66 144.48 144.16 144.48 144.16"/>
  <path class="cls-9" d="M144.9,147.66h-.42v-2.37c.1,0,.21.01.31.05.16.06.32.16.48.29.16.13.34.32.54.58.32.39.57.65.76.79.19.14.36.21.53.21s.32-.06.44-.19.18-.29.18-.49c0-.21-.06-.38-.19-.51-.13-.13-.3-.19-.53-.19l.05-.45c.34.03.59.15.77.35.18.2.27.47.27.81s-.1.62-.29.82c-.19.2-.43.3-.71.3-.14,0-.28-.03-.42-.09s-.28-.16-.44-.29c-.15-.13-.36-.36-.63-.68-.22-.26-.37-.43-.45-.51-.08-.08-.16-.14-.24-.19v1.76h0Z"/>
  <line class="cls-2" x1="150.31" y1="125.48" x2="150.31" y2="125.68"/>
  <path class="cls-9" d="M149.04,131.08h.33c-.26-.16-.39-.41-.39-.73,0-.21.06-.4.17-.57s.27-.31.48-.4c.21-.1.44-.14.71-.14s.49.04.7.13c.21.09.37.21.49.39s.17.37.17.58c0,.16-.03.3-.1.42s-.15.22-.26.3h1.28v.44h-3.58v-.41M150.33,129.69c-.33,0-.58.07-.74.21s-.25.31-.25.5.08.35.23.49c.16.13.4.2.72.2.35,0,.62-.07.78-.21s.25-.31.25-.51-.08-.36-.24-.49c-.16-.13-.41-.2-.75-.2h0Z"/>
  <path class="cls-9" d="M149.04,132.27h2.59v.39h-.36c.13.08.23.19.31.32.08.13.12.29.12.46,0,.19-.04.35-.12.47-.08.12-.19.21-.33.26.3.21.45.47.45.8,0,.26-.07.45-.21.59-.14.14-.36.21-.66.21h-1.78v-.44h1.63c.18,0,.3-.01.38-.04.08-.03.14-.08.19-.15s.07-.16.07-.26c0-.18-.06-.33-.18-.45-.12-.12-.31-.18-.58-.18h-1.51v-.44h1.68c.2,0,.34-.04.44-.11s.15-.19.15-.35c0-.12-.03-.24-.1-.34s-.16-.18-.29-.23-.31-.07-.54-.07h-1.35v-.44h0Z"/>
  <path class="cls-9" d="M149.04,138.04h.33c-.26-.16-.39-.41-.39-.73,0-.21.06-.4.17-.57.11-.17.27-.31.48-.4.21-.1.44-.14.71-.14s.49.04.7.13c.21.09.37.21.49.39.11.17.17.37.17.58,0,.16-.03.3-.1.42-.07.12-.15.22-.26.3h1.28v.44h-3.58v-.41M150.33,136.65c-.33,0-.58.07-.74.21s-.25.31-.25.5.08.35.23.49c.16.13.4.2.72.2.35,0,.62-.07.78-.21.17-.14.25-.31.25-.51s-.08-.36-.24-.49c-.16-.13-.41-.2-.75-.2h0Z"/>
  <polygon class="cls-9" points="150.11 139.06 150.56 139.06 150.56 140.41 150.11 140.41 150.11 139.06 150.11 139.06"/>
  <path class="cls-9" d="M149.04,142.2h.86v-1.55h.4l2.32,1.63v.36h-2.32v.48h-.4v-.48h-.86v-.44M150.3,142.2h1.61l-1.61-1.12v1.12h0Z"/>
  <line class="cls-2" x1="154.93" y1="125.48" x2="154.93" y2="125.68"/>
  <path class="cls-9" d="M154.43,131.17l-.06.45c-.27-.07-.47-.21-.62-.4s-.22-.44-.22-.74c0-.38.12-.68.35-.9.23-.22.56-.33.98-.33s.77.11,1.02.34.36.52.36.87-.12.63-.35.85c-.24.22-.57.33-1,.33-.03,0-.07,0-.12,0v-1.93c-.29.02-.5.1-.65.24-.15.14-.23.32-.23.54,0,.16.04.3.13.41.09.11.22.21.41.27M155.15,129.73v1.45c.22-.02.38-.08.49-.17.17-.14.25-.32.25-.54,0-.2-.07-.37-.2-.51-.13-.14-.31-.21-.54-.23h0Z"/>
  <path class="cls-9" d="M153.6,132.27h2.59v.4h-.37c.29.19.43.47.43.83,0,.16-.03.3-.09.43-.06.13-.13.23-.22.3-.09.07-.2.11-.32.14-.08.02-.22.02-.43.02h-1.59v-.44h1.58c.18,0,.31-.02.4-.05.09-.03.16-.1.21-.18.05-.09.08-.19.08-.31,0-.19-.06-.35-.18-.49-.12-.13-.34-.2-.68-.2h-1.42v-.44h0Z"/>
  <path class="cls-9" d="M153.6,136.84h.33c-.26-.16-.39-.41-.39-.73,0-.21.06-.4.17-.57.11-.17.27-.31.48-.4.21-.1.44-.14.71-.14s.49.04.7.13c.21.09.37.21.49.39.11.17.17.37.17.58,0,.16-.03.3-.1.42-.07.12-.15.22-.26.3h1.28v.44h-3.58v-.41M154.89,135.45c-.33,0-.58.07-.74.21-.16.14-.25.31-.25.5s.08.35.23.49c.16.13.4.2.72.2.35,0,.62-.07.78-.21.17-.14.25-.31.25-.51s-.08-.36-.24-.49c-.16-.13-.41-.2-.75-.2h0Z"/>
  <polygon class="cls-9" points="154.67 137.62 155.12 137.62 155.12 138.97 154.67 138.97 154.67 137.62 154.67 137.62"/>
  <path class="cls-9" d="M153.6,141.01v-.44h2.8c-.1-.1-.2-.24-.3-.42-.1-.17-.18-.32-.23-.46h.42c.11.25.26.46.42.64.16.18.32.31.48.39v.28h-3.59Z"/>
  <line class="cls-2" x1="159.54" y1="125.48" x2="159.54" y2="125.68"/>
  <path class="cls-9" d="M158.99,131.17l-.06.45c-.27-.07-.47-.21-.62-.4s-.22-.44-.22-.74c0-.38.12-.68.35-.9.23-.22.56-.33.98-.33s.77.11,1.02.34.36.52.36.87-.12.63-.35.85c-.24.22-.57.33-1,.33-.03,0-.07,0-.12,0v-1.93c-.29.02-.5.1-.65.24-.15.14-.23.32-.23.54,0,.16.04.3.13.41.09.11.22.21.41.27M159.71,129.73v1.45c.22-.02.38-.08.49-.17.17-.14.25-.32.25-.54,0-.2-.07-.37-.2-.51-.13-.14-.31-.21-.54-.23h0Z"/>
  <path class="cls-9" d="M158.16,132.27h2.59v.4h-.37c.29.19.43.47.43.83,0,.16-.03.3-.09.43-.06.13-.13.23-.22.3-.09.07-.2.11-.32.14-.08.02-.22.02-.43.02h-1.59v-.44h1.58c.18,0,.31-.02.4-.05.09-.03.16-.1.21-.18.05-.09.08-.19.08-.31,0-.19-.06-.35-.18-.49-.12-.13-.34-.2-.68-.2h-1.42v-.44h0Z"/>
  <path class="cls-9" d="M158.16,136.84h.33c-.26-.16-.39-.41-.39-.73,0-.21.06-.4.17-.57.11-.17.27-.31.48-.4.21-.1.44-.14.71-.14s.49.04.7.13c.21.09.37.21.49.39.11.17.17.37.17.58,0,.16-.03.3-.1.42-.07.12-.15.22-.26.3h1.28v.44h-3.58v-.41M159.45,135.45c-.33,0-.58.07-.74.21-.16.14-.25.31-.25.5s.08.35.23.49c.16.13.4.2.72.2.35,0,.62-.07.78-.21.17-.14.25-.31.25-.51s-.08-.36-.24-.49c-.16-.13-.41-.2-.75-.2h0Z"/>
  <polygon class="cls-9" points="159.23 137.62 159.68 137.62 159.68 138.97 159.23 138.97 159.23 137.62 159.23 137.62"/>
  <path class="cls-9" d="M159.1,139.35l.06.44c-.25.05-.43.14-.54.26-.11.12-.16.27-.16.44,0,.21.07.38.21.52.14.14.32.21.53.21s.37-.07.5-.2c.13-.13.2-.3.2-.5,0-.08-.02-.19-.05-.31l.39.05s0,.05,0,.07c0,.19.05.36.15.51.1.15.25.22.45.22.16,0,.3-.05.4-.16.1-.11.16-.25.16-.42s-.05-.31-.16-.43c-.11-.11-.27-.19-.48-.22l.08-.44c.3.05.52.18.68.37.16.19.24.43.24.71,0,.2-.04.38-.13.54-.08.16-.2.29-.34.38-.14.09-.3.13-.46.13-.15,0-.3-.04-.42-.12-.13-.08-.23-.21-.3-.37-.05.21-.15.38-.31.49s-.34.18-.58.18c-.31,0-.58-.11-.8-.34-.22-.23-.32-.52-.32-.86,0-.31.09-.58.28-.78.19-.21.43-.32.73-.35h0Z"/>
  <line class="cls-2" x1="164.15" y1="125.48" x2="164.15" y2="125.68"/>
  <path class="cls-9" d="M163.35,130.35l-.39.06c-.03-.12-.04-.23-.04-.33,0-.16.02-.28.08-.37s.12-.15.2-.19c.08-.04.26-.05.52-.05h1.49v-.32h.34v.32h.64l.26.44h-.91v.44h-.34v-.44h-1.52c-.12,0-.21,0-.24.02-.04.02-.06.04-.09.08-.02.04-.03.09-.03.15,0,.05,0,.11.02.19h0Z"/>
  <path class="cls-9" d="M162.96,131.24v-.41h3.58v.44h-1.28c.23.19.35.42.35.71,0,.16-.03.31-.1.45-.06.14-.15.26-.27.35-.11.09-.26.17-.42.22-.16.05-.34.08-.53.08-.44,0-.79-.11-1.03-.33s-.36-.48-.36-.79.13-.55.38-.72h-.32M164.28,131.23c-.31,0-.53.04-.67.13-.23.14-.34.32-.34.56,0,.19.08.36.25.5.17.14.42.21.75.21s.59-.07.75-.2.24-.3.24-.49-.08-.36-.25-.5c-.17-.14-.41-.21-.72-.21h0Z"/>
  <path class="cls-9" d="M162.96,133.42l1.35.95,1.25-.88v.55l-.61.4c-.11.08-.21.13-.29.18.11.07.2.14.29.2l.61.44v.52l-1.22-.9-1.37.96v-.54l.81-.53.22-.14-1.02-.68v-.53h0Z"/>
  <polygon class="cls-9" points="164.03 135.94 164.48 135.94 164.48 137.29 164.03 137.29 164.03 135.94 164.03 135.94"/>
  <path class="cls-9" d="M163.9,137.67l.06.44c-.25.05-.43.14-.54.26-.11.12-.16.27-.16.44,0,.21.07.38.21.52.14.14.32.21.53.21s.37-.07.5-.2c.13-.13.2-.3.2-.5,0-.08-.02-.19-.05-.31l.39.05s0,.05,0,.07c0,.19.05.36.15.51.1.15.25.22.45.22.16,0,.3-.05.4-.16.1-.11.16-.25.16-.42s-.05-.31-.16-.43c-.11-.11-.27-.19-.48-.22l.08-.44c.3.05.52.18.68.37.16.19.24.43.24.71,0,.2-.04.38-.13.54-.08.16-.2.29-.34.38-.14.09-.3.13-.46.13-.15,0-.3-.04-.42-.12-.13-.08-.23-.21-.3-.37-.05.21-.15.38-.31.49s-.34.18-.58.18c-.31,0-.58-.11-.8-.34-.22-.23-.32-.52-.32-.86,0-.31.09-.58.28-.78.19-.21.43-.32.73-.35h0Z"/>
  <path class="cls-9" d="M166.07,140.58h.42v2.32h-.34c-.24-.23-.56-.45-.97-.68-.4-.22-.82-.4-1.24-.52-.3-.09-.63-.14-.98-.17v-.45c.28,0,.62.06,1.02.17.4.1.78.26,1.15.45.37.2.68.41.94.63v-1.75h0Z"/>
  <line class="cls-2" x1="168.76" y1="125.48" x2="168.76" y2="125.68"/>
  <path class="cls-9" d="M167.52,129.39h3.58v.44h-1.28c.24.21.36.46.36.78,0,.19-.04.36-.11.5-.08.14-.18.24-.31.3-.13.06-.33.09-.58.09h-1.64v-.44h1.64c.22,0,.38-.05.48-.14.1-.1.15-.23.15-.4,0-.13-.03-.25-.1-.37-.07-.11-.16-.2-.27-.24-.11-.05-.28-.07-.48-.07h-1.42v-.44h0Z"/>
  <polygon class="cls-9" points="167.52 132.26 171.1 132.26 171.1 132.7 167.52 132.7 167.52 132.26 167.52 132.26"/>
  <path class="cls-9" d="M167.52,133.47h3.58v.44h-1.28c.24.21.36.46.36.78,0,.19-.04.36-.11.5-.08.14-.18.24-.31.3-.13.06-.33.09-.58.09h-1.64v-.44h1.64c.22,0,.38-.05.48-.14.1-.1.15-.23.15-.4,0-.13-.03-.25-.1-.37-.07-.11-.16-.2-.27-.24-.11-.05-.28-.07-.48-.07h-1.42v-.44h0Z"/>
  <polygon class="cls-9" points="168.59 135.94 169.04 135.94 169.04 137.29 168.59 137.29 168.59 135.94 168.59 135.94"/>
  <path class="cls-9" d="M167.52,139.33v-.44h2.8c-.1-.1-.2-.24-.3-.42-.1-.17-.18-.32-.23-.46h.42c.11.25.26.46.42.64.16.18.32.31.48.39v.28h-3.59Z"/>
  <line class="cls-2" x1="173.37" y1="125.48" x2="173.37" y2="125.68"/>
  <path class="cls-9" d="M172.08,129.39h2.59v.4h-.39c.18.1.31.19.36.28s.09.18.09.28c0,.15-.05.3-.14.45l-.41-.15c.06-.11.1-.21.1-.32,0-.1-.03-.18-.09-.26-.06-.08-.14-.13-.24-.16-.16-.05-.33-.07-.51-.07h-1.36v-.44h0Z"/>
  <path class="cls-9" d="M172.91,132.85l-.06.45c-.27-.07-.47-.21-.62-.4-.15-.19-.22-.44-.22-.74,0-.38.12-.68.35-.9.23-.22.56-.33.98-.33s.77.11,1.02.34c.24.22.36.52.36.87s-.12.63-.35.85c-.24.22-.57.33-1,.33-.03,0-.07,0-.12,0v-1.93c-.29.02-.5.1-.65.24-.15.14-.23.32-.23.54,0,.16.04.3.13.41.09.11.22.21.41.27M173.63,131.41v1.45c.22-.02.38-.08.49-.17.17-.14.25-.32.25-.54,0-.2-.07-.37-.2-.51-.13-.14-.31-.21-.54-.23h0Z"/>
  <path class="cls-9" d="M172.08,134.06h2.25v-.39h.34v.39h.28c.17,0,.3.01.39.05.11.04.21.12.28.22.07.11.11.26.11.45,0,.12-.01.26-.04.41l-.38-.07c.02-.09.02-.18.02-.26,0-.13-.03-.23-.09-.28-.06-.06-.16-.08-.32-.08h-.24v.51h-.34v-.51h-2.25v-.44h0Z"/>
  <polygon class="cls-9" points="173.15 135.22 173.6 135.22 173.6 136.57 173.15 136.57 173.15 135.22 173.15 135.22"/>
  <path class="cls-9" d="M172.08,138.61v-.44h2.8c-.1-.1-.2-.24-.3-.42-.1-.17-.18-.32-.23-.46h.42c.11.25.26.46.42.64.16.18.32.31.48.39v.28h-3.59Z"/>
  <line class="cls-2" x1="177.98" y1="125.48" x2="177.98" y2="125.68"/>
  <path class="cls-9" d="M177.47,131.17l-.06.45c-.27-.07-.47-.21-.62-.4s-.22-.44-.22-.74c0-.38.12-.68.35-.9.23-.22.56-.33.98-.33s.77.11,1.02.34.36.52.36.87-.12.63-.35.85c-.24.22-.57.33-1,.33-.03,0-.07,0-.12,0v-1.93c-.29.02-.5.1-.65.24-.15.14-.23.32-.23.54,0,.16.04.3.13.41.09.11.22.21.41.27M178.19,129.73v1.45c.22-.02.38-.08.49-.17.17-.14.25-.32.25-.54,0-.2-.07-.37-.2-.51-.13-.14-.31-.21-.54-.23h0Z"/>
  <path class="cls-9" d="M176.43,132.19l-.06.43c-.13.02-.23.07-.29.15-.08.11-.12.26-.12.45,0,.2.04.36.12.47s.2.19.34.22c.09.02.28.03.56.03-.23-.19-.34-.43-.34-.72,0-.36.13-.63.39-.83s.57-.29.93-.29c.25,0,.48.04.68.13.21.09.37.22.49.39.11.17.17.37.17.6,0,.31-.12.56-.37.76h.31v.41h-2.24c-.4,0-.69-.04-.86-.12-.17-.08-.3-.21-.4-.39-.1-.18-.15-.4-.15-.66,0-.31.07-.56.21-.75s.35-.28.63-.28M177.98,132.56c-.34,0-.59.07-.74.2-.16.13-.23.31-.23.51s.08.37.23.51c.16.14.4.21.73.21s.56-.07.72-.21c.16-.14.24-.31.24-.51s-.08-.36-.24-.5c-.16-.14-.39-.21-.71-.21h0Z"/>
  <polygon class="cls-9" points="176.64 135.14 180.22 135.14 180.22 135.58 176.64 135.58 176.64 135.14 176.64 135.14"/>
  <polygon class="cls-9" points="177.71 135.94 178.16 135.94 178.16 137.29 177.71 137.29 177.71 135.94 177.71 135.94"/>
  <path class="cls-9" d="M177.58,137.67l.04.46c-.22.03-.39.11-.51.24-.11.12-.17.28-.17.45,0,.21.08.39.24.54.16.15.37.22.63.22s.45-.07.59-.21c.14-.14.22-.32.22-.55,0-.14-.03-.27-.1-.38-.06-.11-.15-.2-.25-.27l.05-.41,1.84.35v1.78h-.42v-1.43l-.96-.19c.15.21.22.44.22.68,0,.31-.11.58-.32.79-.22.21-.5.32-.83.32s-.6-.1-.84-.28c-.29-.23-.43-.54-.43-.94,0-.32.09-.59.27-.8.18-.21.42-.32.73-.35h0Z"/>
  <line class="cls-2" x1="182.6" y1="125.48" x2="182.6" y2="125.68"/>
  <path class="cls-9" d="M182.03,131.17l-.06.45c-.27-.07-.47-.21-.62-.4s-.22-.44-.22-.74c0-.38.12-.68.35-.9.23-.22.56-.33.98-.33s.77.11,1.02.34.36.52.36.87-.12.63-.35.85c-.24.22-.57.33-1,.33-.03,0-.07,0-.12,0v-1.93c-.29.02-.5.1-.65.24-.15.14-.23.32-.23.54,0,.16.04.3.13.41.09.11.22.21.41.27M182.75,129.73v1.45c.22-.02.38-.08.49-.17.17-.14.25-.32.25-.54,0-.2-.07-.37-.2-.51-.13-.14-.31-.21-.54-.23h0Z"/>
  <polygon class="cls-9" points="181.2 132.26 184.78 132.26 184.78 132.7 181.2 132.7 181.2 132.26 181.2 132.26"/>
  <path class="cls-9" d="M181.59,134.43l-.39.06c-.03-.12-.04-.23-.04-.33,0-.16.02-.28.08-.37s.12-.15.2-.19c.08-.04.26-.05.52-.05h1.49v-.32h.34v.32h.64l.26.44h-.91v.44h-.34v-.44h-1.52c-.12,0-.21,0-.24.02-.04.02-.06.04-.09.08-.02.04-.03.09-.03.15,0,.05,0,.11.02.19h0Z"/>
  <polygon class="cls-9" points="182.27 134.5 182.72 134.5 182.72 135.85 182.27 135.85 182.27 134.5 182.27 134.5"/>
  <path class="cls-9" d="M184.31,136.26h.42v2.32h-.34c-.24-.23-.56-.45-.97-.68-.4-.22-.82-.4-1.24-.52-.3-.09-.63-.14-.98-.17v-.45c.28,0,.62.06,1.02.17.4.11.78.26,1.15.45.37.2.68.41.94.63v-1.75h0Z"/>
  <line class="cls-2" x1="187.21" y1="125.48" x2="187.21" y2="125.68"/>
  <path class="cls-9" d="M186,129.39h3.58v.44h-1.28c.24.21.36.46.36.78,0,.19-.04.36-.11.5s-.18.24-.31.3-.33.09-.58.09h-1.64v-.44h1.64c.22,0,.38-.05.48-.14s.15-.23.15-.4c0-.13-.03-.25-.1-.37-.07-.11-.16-.2-.27-.24s-.28-.07-.48-.07h-1.42v-.44h0Z"/>
  <polygon class="cls-9" points="186 132.26 189.58 132.26 189.58 132.7 186 132.7 186 132.26 186 132.26"/>
  <path class="cls-9" d="M186,133.47h3.58v.44h-1.28c.24.21.36.46.36.78,0,.19-.04.36-.11.5-.08.14-.18.24-.31.3-.13.06-.33.09-.58.09h-1.64v-.44h1.64c.22,0,.38-.05.48-.14s.15-.23.15-.4c0-.13-.03-.25-.1-.37-.07-.11-.16-.2-.27-.24-.11-.05-.28-.07-.48-.07h-1.42v-.44h0Z"/>
  <polygon class="cls-9" points="187.07 135.94 187.52 135.94 187.52 137.29 187.07 137.29 187.07 135.94 187.07 135.94"/>
  <path class="cls-9" d="M186.42,139.98h-.42v-2.37c.1,0,.21.01.31.05.16.06.32.16.48.29.16.13.34.32.54.58.32.39.57.65.76.79.19.14.36.21.53.21s.32-.06.44-.19.18-.29.18-.49c0-.21-.06-.38-.19-.51-.13-.13-.3-.19-.53-.19l.05-.45c.34.03.59.15.77.35.18.2.27.47.27.81s-.1.62-.29.82c-.19.2-.43.3-.71.3-.14,0-.28-.03-.42-.09s-.28-.16-.44-.29c-.15-.13-.36-.36-.63-.68-.22-.26-.37-.43-.45-.51-.08-.08-.16-.14-.24-.19v1.76h0Z"/>
  <path class="cls-9" d="M188.7,142.83l-.03-.44c.17-.04.3-.1.38-.17.12-.12.19-.27.19-.44,0-.14-.04-.26-.12-.37-.1-.14-.25-.25-.44-.33s-.47-.12-.83-.12c.16.1.28.23.36.39s.12.31.12.48c0,.29-.11.54-.32.75-.21.21-.49.31-.83.31-.22,0-.43-.05-.63-.15-.19-.1-.34-.23-.44-.4s-.15-.36-.15-.58c0-.37.13-.66.4-.9.27-.23.72-.35,1.33-.35.69,0,1.19.13,1.51.38.27.22.41.52.41.9,0,.28-.08.51-.24.69-.16.18-.38.29-.65.32M187.16,141.04c-.15,0-.3.03-.43.1-.14.07-.24.16-.32.27-.07.11-.11.24-.11.36,0,.19.08.34.22.48s.35.2.61.2.44-.07.58-.2c.14-.13.21-.3.21-.5s-.07-.37-.21-.51c-.14-.14-.33-.21-.56-.21h0Z"/>
  <path class="cls-9" d="M89.51,156.18v-4.29h1.9c.38,0,.67.04.87.12.2.08.36.21.48.41s.18.41.18.65c0,.3-.1.56-.3.77s-.5.34-.91.4c.15.07.26.14.34.21.17.15.32.34.47.57l.75,1.17h-.71l-.57-.89c-.17-.26-.3-.45-.41-.59s-.21-.23-.29-.29-.17-.09-.26-.11c-.06-.01-.17-.02-.32-.02h-.66v1.91h-.57M90.08,153.78h1.22c.26,0,.46-.03.61-.08.15-.06.26-.14.33-.26.08-.12.11-.25.11-.39,0-.2-.07-.37-.22-.5-.15-.13-.38-.2-.7-.2h-1.36v1.42h0Z"/>
  <path class="cls-9" d="M95.89,155.18l.54.07c-.08.32-.25.57-.48.74s-.53.26-.89.26c-.45,0-.82-.14-1.08-.42-.27-.28-.4-.67-.4-1.18s.13-.93.4-1.22.62-.43,1.05-.43.76.14,1.02.42.4.68.4,1.2c0,.03,0,.08,0,.14h-2.32c.02.34.12.6.29.79s.39.27.65.27c.19,0,.36-.05.5-.15s.25-.26.33-.49M94.15,154.33h1.74c-.02-.26-.09-.46-.2-.59-.17-.2-.39-.3-.65-.3-.24,0-.45.08-.61.24-.16.16-.25.38-.27.65h0Z"/>
  <path class="cls-9" d="M97.02,156.44l.51.08c.02.16.08.27.18.35.13.1.31.15.54.15.24,0,.43-.05.57-.15s.22-.23.27-.41c.03-.11.04-.33.04-.68-.23.27-.52.41-.86.41-.43,0-.76-.16-.99-.46s-.35-.68-.35-1.11c0-.3.05-.57.16-.82.11-.25.26-.45.47-.58.21-.14.45-.21.72-.21.37,0,.67.15.91.45v-.38h.49v2.69c0,.48-.05.83-.15,1.03-.1.2-.25.36-.47.48s-.47.18-.79.18c-.37,0-.67-.08-.9-.25s-.34-.42-.33-.75M97.46,154.57c0,.41.08.71.24.89s.37.28.61.28.45-.09.61-.28c.16-.19.25-.48.25-.88s-.08-.67-.25-.86c-.17-.19-.37-.29-.61-.29s-.43.1-.6.29-.25.47-.25.85h0Z"/>
  <path class="cls-9" d="M102.51,156.18v-.46c-.24.35-.57.53-.99.53-.18,0-.35-.04-.52-.11-.16-.07-.28-.16-.35-.26-.08-.11-.13-.24-.16-.39-.02-.1-.03-.27-.03-.49v-1.93h.53v1.73c0,.28.01.46.03.56.03.14.1.25.21.33s.24.12.4.12.31-.04.45-.12c.14-.08.24-.19.29-.33.06-.14.09-.34.09-.61v-1.67h.53v3.11h-.47Z"/>
  <polygon class="cls-9" points="103.82 156.18 103.82 151.89 104.35 151.89 104.35 156.18 103.82 156.18 103.82 156.18"/>
  <path class="cls-9" d="M107.07,155.8c-.2.17-.38.28-.57.35-.18.07-.37.1-.58.1-.34,0-.6-.08-.79-.25s-.28-.38-.28-.64c0-.15.04-.29.1-.42.07-.13.16-.23.27-.3.11-.08.24-.13.38-.17.1-.03.26-.05.47-.08.42-.05.74-.11.94-.18,0-.07,0-.12,0-.14,0-.21-.05-.37-.15-.45-.13-.12-.33-.18-.6-.18-.25,0-.43.04-.55.13-.12.08-.21.24-.26.46l-.52-.07c.05-.22.12-.4.23-.53.11-.14.26-.24.47-.31s.44-.11.71-.11.48.03.65.09.29.14.37.24c.08.09.13.21.16.36.02.09.03.25.03.49v.7c0,.49.01.8.03.93.02.13.07.25.13.37h-.55c-.06-.11-.09-.24-.11-.38M107.02,154.62c-.19.08-.48.14-.86.2-.22.03-.37.07-.46.11s-.16.1-.21.17c-.05.07-.07.16-.07.25,0,.14.05.26.16.35.11.09.26.14.47.14s.38-.04.54-.13c.16-.09.28-.21.35-.37.06-.12.08-.3.08-.53v-.19h0Z"/>
  <path class="cls-9" d="M109.55,155.71l.08.47c-.15.03-.28.05-.4.05-.19,0-.34-.03-.45-.09s-.18-.14-.22-.24c-.04-.1-.06-.31-.06-.62v-1.79h-.39v-.41h.39v-.77l.52-.32v1.09h.53v.41h-.53v1.82c0,.15,0,.25.03.29.02.04.05.08.09.1.04.03.1.04.18.04.06,0,.13,0,.23-.02h0Z"/>
  <path class="cls-9" d="M109.88,154.63c0-.58.16-1,.48-1.28.27-.23.59-.35.98-.35.43,0,.78.14,1.05.42.27.28.41.67.41,1.16,0,.4-.06.71-.18.95-.12.23-.29.41-.52.53-.23.13-.48.19-.75.19-.44,0-.79-.14-1.06-.42-.27-.28-.4-.68-.4-1.21M110.42,154.63c0,.4.09.7.26.9.17.2.39.3.66.3s.48-.1.65-.3.26-.5.26-.91c0-.38-.09-.68-.26-.87-.17-.2-.39-.3-.65-.3s-.48.1-.66.3-.26.5-.26.89h0Z"/>
  <path class="cls-9" d="M113.43,156.18v-3.11h.47v.47c.12-.22.23-.37.33-.44s.22-.11.34-.11c.18,0,.36.06.54.17l-.18.49c-.13-.08-.26-.11-.39-.11-.11,0-.22.04-.31.11-.09.07-.16.16-.2.29-.06.19-.09.39-.09.62v1.63h-.53Z"/>
  <path class="cls-9" d="M115.57,157.38l-.06-.5c.11.03.22.05.3.05.12,0,.21-.02.28-.06s.13-.09.17-.16c.03-.05.09-.18.16-.39,0-.03.03-.07.05-.13l-1.18-3.12h.57l.65,1.8c.08.23.16.47.23.72.06-.24.13-.48.22-.71l.67-1.81h.53l-1.18,3.16c-.13.34-.23.58-.3.71-.09.17-.2.3-.32.38-.12.08-.27.12-.43.12-.1,0-.21-.02-.34-.06h0Z"/>
  <path class="cls-9" d="M120.06,156.44l.51.08c.02.16.08.27.18.35.13.1.31.15.54.15.24,0,.43-.05.57-.15s.22-.23.27-.41c.03-.11.04-.33.04-.68-.23.27-.52.41-.86.41-.43,0-.76-.16-.99-.46s-.35-.68-.35-1.11c0-.3.05-.57.16-.82.11-.25.26-.45.47-.58.21-.14.45-.21.72-.21.37,0,.67.15.91.45v-.38h.49v2.69c0,.48-.05.83-.15,1.03-.1.2-.25.36-.47.48s-.47.18-.79.18c-.37,0-.67-.08-.9-.25s-.34-.42-.33-.75M120.5,154.57c0,.41.08.71.24.89s.37.28.61.28.45-.09.61-.28c.16-.19.25-.48.25-.88s-.08-.67-.25-.86c-.17-.19-.37-.29-.61-.29s-.43.1-.6.29-.25.47-.25.85h0Z"/>
  <path class="cls-9" d="M125.65,155.18l.54.07c-.08.32-.25.57-.48.74s-.53.26-.89.26c-.45,0-.82-.14-1.08-.42-.27-.28-.4-.67-.4-1.18s.13-.93.4-1.22.62-.43,1.05-.43.76.14,1.02.42.4.68.4,1.2c0,.03,0,.08,0,.14h-2.32c.02.34.12.6.29.79s.39.27.65.27c.19,0,.36-.05.5-.15s.25-.26.33-.49M123.91,154.33h1.74c-.02-.26-.09-.46-.2-.59-.17-.2-.39-.3-.65-.3-.24,0-.45.08-.61.24-.16.16-.25.38-.27.65h0Z"/>
  <path class="cls-9" d="M126.88,156.18v-3.11h.47v.44c.23-.34.56-.51.99-.51.19,0,.36.04.52.1.16.07.28.16.35.26s.13.24.16.39c.02.1.03.27.03.51v1.91h-.53v-1.89c0-.21-.02-.38-.06-.48-.04-.11-.11-.19-.22-.25-.1-.06-.23-.1-.37-.1-.23,0-.42.07-.58.21-.16.14-.24.41-.24.81v1.7h-.53Z"/>
  <path class="cls-9" d="M132.37,155.18l.54.07c-.08.32-.25.57-.48.74s-.53.26-.89.26c-.45,0-.82-.14-1.08-.42-.27-.28-.4-.67-.4-1.18s.13-.93.4-1.22.62-.43,1.05-.43.76.14,1.02.42.4.68.4,1.2c0,.03,0,.08,0,.14h-2.32c.02.34.12.6.29.79s.39.27.65.27c.19,0,.36-.05.5-.15s.25-.26.33-.49M130.63,154.33h1.74c-.02-.26-.09-.46-.2-.59-.17-.2-.39-.3-.65-.3-.24,0-.45.08-.61.24-.16.16-.25.38-.27.65h0Z"/>
  <line class="cls-2" x1="27.42" y1="125.48" x2="27.22" y2="125.48"/>
  <path class="cls-9" d="M21.09,125.62c0-.42.04-.76.13-1.02.09-.26.22-.46.39-.6.17-.14.39-.21.65-.21.19,0,.36.04.51.12.14.08.26.19.36.33.1.14.17.32.22.53.05.21.08.49.08.84,0,.42-.04.76-.13,1.02-.09.26-.21.46-.39.6-.17.14-.39.21-.65.21-.34,0-.62-.12-.81-.37-.24-.3-.35-.78-.35-1.46M21.54,125.62c0,.59.07.98.21,1.17.14.19.31.29.51.29s.37-.1.51-.29c.14-.2.21-.59.21-1.17s-.07-.98-.21-1.17c-.14-.19-.31-.29-.51-.29s-.36.09-.48.26c-.15.22-.23.62-.23,1.21h0Z"/>
  <line class="cls-2" x1="27.42" y1="108.85" x2="27.22" y2="108.85"/>
  <path class="cls-9" d="M17.01,108.82c0-.42.04-.76.13-1.02.09-.26.22-.46.39-.6.17-.14.39-.21.65-.21.19,0,.36.04.51.12.14.08.26.19.36.33.1.14.17.32.22.53.05.21.08.49.08.84,0,.42-.04.76-.13,1.02-.09.26-.21.46-.39.6-.17.14-.39.21-.65.21-.34,0-.62-.12-.81-.37-.24-.3-.35-.78-.35-1.46M17.46,108.82c0,.59.07.98.21,1.17.14.19.31.29.51.29s.37-.1.51-.29c.14-.2.21-.59.21-1.17s-.07-.98-.21-1.17c-.14-.19-.31-.29-.51-.29s-.36.09-.48.26c-.15.22-.23.62-.23,1.21h0Z"/>
  <polygon class="cls-9" points="19.89 110.58 19.89 110.08 20.39 110.08 20.39 110.58 19.89 110.58 19.89 110.58"/>
  <path class="cls-9" d="M23.4,110.16v.42h-2.37c0-.1.01-.21.05-.31.06-.16.16-.32.29-.48.13-.16.32-.34.58-.54.39-.32.65-.57.79-.76.14-.19.21-.36.21-.53s-.06-.32-.19-.44c-.12-.12-.29-.18-.49-.18-.21,0-.38.06-.51.19-.13.13-.19.3-.19.53l-.45-.05c.03-.34.15-.59.35-.77.2-.18.47-.27.81-.27s.62.1.82.29c.2.19.3.43.3.71,0,.14-.03.28-.09.42s-.16.28-.29.44c-.13.15-.36.36-.68.63-.26.22-.43.37-.51.45-.08.08-.14.16-.19.24h1.76Z"/>
  <line class="cls-2" x1="27.42" y1="92.22" x2="27.22" y2="92.22"/>
  <path class="cls-9" d="M17.01,92.26c0-.42.04-.76.13-1.02.09-.26.22-.46.39-.6.17-.14.39-.21.65-.21.19,0,.36.04.51.12.14.08.26.19.36.33.1.14.17.32.22.53.05.21.08.49.08.84,0,.42-.04.76-.13,1.02-.09.26-.21.46-.39.6-.17.14-.39.21-.65.21-.34,0-.62-.12-.81-.37-.24-.3-.35-.78-.35-1.46M17.46,92.26c0,.59.07.98.21,1.17.14.19.31.29.51.29s.37-.1.51-.29c.14-.2.21-.59.21-1.17s-.07-.98-.21-1.17c-.14-.19-.31-.29-.51-.29s-.36.09-.48.26c-.15.22-.23.62-.23,1.21h0Z"/>
  <polygon class="cls-9" points="19.89 94.02 19.89 93.52 20.39 93.52 20.39 94.02 19.89 94.02 19.89 94.02"/>
  <path class="cls-9" d="M22.5,94.02v-.86h-1.55v-.4l1.63-2.32h.36v2.32h.48v.4h-.48v.86h-.44M22.5,92.76v-1.61l-1.12,1.61h1.12Z"/>
  <line class="cls-2" x1="27.42" y1="75.58" x2="27.22" y2="75.58"/>
  <path class="cls-9" d="M17.01,75.7c0-.42.04-.76.13-1.02.09-.26.22-.46.39-.6.17-.14.39-.21.65-.21.19,0,.36.04.51.12.14.08.26.19.36.33.1.14.17.32.22.53.05.21.08.49.08.84,0,.42-.04.76-.13,1.02-.09.26-.21.46-.39.6-.17.14-.39.21-.65.21-.34,0-.62-.12-.81-.37-.24-.3-.35-.78-.35-1.46M17.46,75.7c0,.59.07.98.21,1.17.14.19.31.29.51.29s.37-.1.51-.29c.14-.2.21-.59.21-1.17s-.07-.98-.21-1.17c-.14-.19-.31-.29-.51-.29s-.36.09-.48.26c-.15.22-.23.62-.23,1.21h0Z"/>
  <polygon class="cls-9" points="19.89 77.46 19.89 76.96 20.39 76.96 20.39 77.46 19.89 77.46 19.89 77.46"/>
  <path class="cls-9" d="M23.37,74.76l-.44.03c-.04-.17-.1-.3-.17-.38-.12-.12-.27-.19-.44-.19-.14,0-.26.04-.37.12-.14.1-.25.25-.33.44-.08.19-.12.47-.12.83.11-.16.23-.28.39-.36.15-.08.31-.12.48-.12.29,0,.54.11.75.32.21.21.31.49.31.83,0,.22-.05.43-.15.63-.1.19-.23.34-.4.44s-.36.15-.58.15c-.37,0-.66-.13-.9-.4-.23-.27-.35-.72-.35-1.33,0-.69.13-1.19.38-1.51.22-.27.52-.41.9-.41.28,0,.51.08.69.24.18.16.29.38.32.65M21.57,76.3c0,.15.03.3.1.43.07.14.16.24.27.32.11.07.24.11.36.11.19,0,.34-.08.48-.22.13-.15.2-.35.2-.61s-.07-.44-.2-.58c-.13-.14-.3-.21-.5-.21s-.37.07-.51.21c-.14.14-.21.33-.21.56h0Z"/>
  <line class="cls-2" x1="27.42" y1="58.95" x2="27.22" y2="58.95"/>
  <path class="cls-9" d="M17.01,58.9c0-.42.04-.76.13-1.02.09-.26.22-.46.39-.6.17-.14.39-.21.65-.21.19,0,.36.04.51.12.14.08.26.19.36.33.1.14.17.32.22.53.05.21.08.49.08.84,0,.42-.04.76-.13,1.02-.09.26-.21.46-.39.6-.17.14-.39.21-.65.21-.34,0-.62-.12-.81-.37-.24-.3-.35-.78-.35-1.46M17.46,58.9c0,.59.07.98.21,1.17.14.19.31.29.51.29s.37-.1.51-.29c.14-.2.21-.59.21-1.17s-.07-.98-.21-1.17c-.14-.19-.31-.29-.51-.29s-.36.09-.48.26c-.15.22-.23.62-.23,1.21h0Z"/>
  <polygon class="cls-9" points="19.89 60.66 19.89 60.16 20.39 60.16 20.39 60.66 19.89 60.66 19.89 60.66"/>
  <path class="cls-9" d="M21.76,58.72c-.18-.07-.32-.16-.41-.29s-.13-.27-.13-.44c0-.26.09-.48.28-.66.19-.18.44-.27.75-.27s.56.09.75.27c.19.18.29.4.29.66,0,.17-.04.31-.13.43-.09.12-.22.22-.4.28.22.07.39.19.5.35.11.16.17.35.17.57,0,.31-.11.56-.32.77-.22.21-.5.31-.85.31s-.64-.1-.85-.31c-.22-.21-.32-.47-.32-.78,0-.23.06-.43.18-.58.12-.16.29-.27.51-.32M21.68,57.98c0,.17.05.31.16.42.11.11.25.16.42.16s.31-.05.42-.16c.11-.11.16-.24.16-.39s-.06-.3-.17-.41c-.11-.11-.25-.17-.42-.17s-.31.05-.42.16c-.11.11-.17.24-.17.39M21.53,59.63c0,.12.03.25.09.36.06.12.15.21.27.27.12.06.24.1.38.1.21,0,.38-.07.52-.2.14-.13.21-.31.21-.52s-.07-.39-.21-.52c-.14-.14-.31-.21-.53-.21s-.38.07-.52.21c-.13.14-.2.31-.2.51h0Z"/>
  <line class="cls-2" x1="27.42" y1="42.32" x2="27.22" y2="42.32"/>
  <path class="cls-9" d="M18.66,44.1h-.44v-2.8c-.1.1-.24.2-.42.3-.17.1-.32.18-.46.23v-.42c.25-.11.46-.26.64-.42.18-.16.31-.32.39-.48h.28v3.59h0Z"/>
  <polygon class="cls-9" points="19.89 44.1 19.89 43.6 20.39 43.6 20.39 44.1 19.89 44.1 19.89 44.1"/>
  <path class="cls-9" d="M21.09,42.34c0-.42.04-.76.13-1.02.09-.26.22-.46.39-.6.17-.14.39-.21.65-.21.19,0,.36.04.51.12.14.08.26.19.36.33.1.14.17.32.22.53.05.21.08.49.08.84,0,.42-.04.76-.13,1.02-.09.26-.21.46-.39.6-.17.14-.39.21-.65.21-.34,0-.62-.12-.81-.37-.24-.3-.35-.78-.35-1.46M21.54,42.34c0,.59.07.98.21,1.17.14.19.31.29.51.29s.37-.1.51-.29c.14-.2.21-.59.21-1.17s-.07-.98-.21-1.17c-.14-.19-.31-.29-.51-.29s-.36.09-.48.26c-.15.22-.23.62-.23,1.21h0Z"/>
  <path class="cls-9" d="M11.52,109.63h-4.29v-1.9c0-.38.04-.67.12-.87.08-.2.21-.36.41-.48s.41-.18.65-.18c.3,0,.56.1.77.3s.34.5.4.91c.07-.15.14-.26.21-.34.15-.17.34-.32.57-.47l1.17-.75v.71l-.89.57c-.26.17-.45.3-.59.41s-.23.21-.29.29-.09.17-.11.26c-.01.06-.02.17-.02.32v.66h1.91v.57M9.12,109.06v-1.22c0-.26-.03-.46-.08-.61-.06-.15-.14-.26-.26-.33-.12-.08-.25-.11-.39-.11-.2,0-.37.07-.5.22-.13.15-.2.38-.2.7v1.36h1.42Z"/>
  <path class="cls-9" d="M10.52,103.26l.07-.54c.32.08.57.25.74.48s.26.53.26.89c0,.45-.14.82-.42,1.08-.28.27-.67.4-1.18.4s-.93-.13-1.22-.4-.43-.62-.43-1.05.14-.76.42-1.02.68-.4,1.2-.4c.03,0,.08,0,.14,0v2.32c.34-.02.6-.12.79-.29s.27-.39.27-.65c0-.19-.05-.36-.15-.5s-.26-.25-.49-.33M9.67,104.99v-1.74c-.26.02-.46.09-.59.2-.2.17-.3.39-.3.65,0,.24.08.45.24.61.16.16.38.25.65.27h0Z"/>
  <path class="cls-9" d="M11.78,102.12l.08-.51c.16-.02.27-.08.35-.18.1-.13.15-.31.15-.54,0-.24-.05-.43-.15-.57s-.23-.22-.41-.27c-.11-.03-.33-.04-.68-.04.27.23.41.52.41.86,0,.43-.16.76-.46.99s-.68.35-1.11.35c-.3,0-.57-.05-.82-.16-.25-.11-.45-.26-.58-.47-.14-.21-.21-.45-.21-.72,0-.37.15-.67.45-.91h-.38v-.49h2.69c.48,0,.83.05,1.03.15.2.1.36.25.48.47s.18.47.18.79c0,.37-.08.67-.25.9s-.42.34-.75.33M9.91,101.69c.41,0,.71-.08.89-.24s.28-.37.28-.61-.09-.45-.28-.61c-.19-.16-.48-.25-.88-.25s-.67.08-.86.25c-.19.17-.29.37-.29.61s.1.43.29.6.47.25.85.25h0Z"/>
  <path class="cls-9" d="M11.52,96.63h-.46c.35.24.53.57.53.99,0,.18-.04.35-.11.52-.07.16-.16.28-.26.35-.11.08-.24.13-.39.16-.1.02-.27.03-.49.03h-1.93v-.53h1.73c.28,0,.46-.01.56-.03.14-.03.25-.1.33-.21s.12-.24.12-.4-.04-.31-.12-.45c-.08-.14-.19-.24-.33-.29-.14-.06-.34-.09-.61-.09h-1.67v-.53h3.11v.47h0Z"/>
  <polygon class="cls-9" points="11.52 95.32 7.23 95.32 7.23 94.79 11.52 94.79 11.52 95.32 11.52 95.32"/>
  <path class="cls-9" d="M11.14,92.08c.17.2.28.38.35.57.07.18.1.37.1.58,0,.34-.08.6-.25.79s-.38.28-.64.28c-.15,0-.29-.04-.42-.1-.13-.07-.23-.16-.3-.27-.08-.11-.13-.24-.17-.38-.03-.1-.05-.26-.08-.47-.05-.42-.11-.74-.18-.94-.07,0-.12,0-.14,0-.21,0-.37.05-.45.15-.12.13-.18.33-.18.6,0,.25.04.43.13.55.08.12.24.21.46.26l-.07.52c-.22-.05-.4-.12-.53-.23-.14-.11-.24-.26-.31-.47s-.11-.44-.11-.71.03-.48.09-.65.14-.29.24-.37c.09-.08.21-.13.36-.16.09-.02.25-.03.49-.03h.7c.49,0,.8-.01.93-.03.13-.02.25-.07.37-.13v.55c-.11.06-.24.09-.38.11M9.96,92.12c.08.19.14.48.2.86.03.22.07.37.11.46s.1.16.17.21c.07.05.16.07.25.07.14,0,.26-.05.35-.16.09-.11.14-.26.14-.47s-.04-.38-.13-.54c-.09-.16-.21-.28-.37-.35-.12-.06-.3-.08-.53-.08h-.19Z"/>
  <path class="cls-9" d="M11.05,89.6l.47-.08c.03.15.05.28.05.4,0,.19-.03.34-.09.45s-.14.18-.24.22c-.1.04-.31.06-.62.06h-1.79v.39h-.41v-.39h-.77l-.32-.52h1.09v-.53h.41v.53h1.82c.15,0,.25,0,.29-.03.04-.02.08-.05.1-.09.03-.04.04-.1.04-.18,0-.06,0-.13-.02-.23h0Z"/>
  <path class="cls-9" d="M9.96,89.26c-.58,0-1-.16-1.28-.48-.23-.27-.35-.59-.35-.98,0-.43.14-.78.42-1.05.28-.27.67-.41,1.16-.41.4,0,.71.06.95.18.23.12.41.29.53.52.13.23.19.48.19.75,0,.44-.14.79-.42,1.06-.28.27-.68.4-1.21.4M9.96,88.72c.4,0,.7-.09.9-.26.2-.17.3-.39.3-.66s-.1-.48-.3-.65-.5-.26-.91-.26c-.38,0-.68.09-.87.26-.2.17-.3.39-.3.65s.1.48.3.66.5.26.89.26h0Z"/>
  <path class="cls-9" d="M11.52,85.71h-3.11v-.47h.47c-.22-.12-.37-.23-.44-.33s-.11-.22-.11-.34c0-.18.06-.36.17-.54l.49.18c-.08.13-.11.26-.11.39,0,.11.04.22.11.31.07.09.16.16.29.2.19.06.39.09.62.09h1.63v.53h0Z"/>
  <path class="cls-9" d="M12.72,83.81l-.5.06c.03-.11.05-.22.05-.3,0-.12-.02-.21-.06-.28s-.09-.13-.16-.17c-.05-.03-.18-.09-.39-.16-.03,0-.07-.03-.13-.05l-3.12,1.18v-.57l1.8-.65c.23-.08.47-.16.72-.23-.24-.06-.48-.13-.71-.22l-1.81-.67v-.53l3.16,1.18c.34.13.58.23.71.3.17.09.3.2.38.32.08.12.12.27.12.43,0,.1-.02.21-.06.34h0Z"/>
  <path class="cls-9" d="M10.59,79.2l-.08-.52c.21-.03.37-.11.48-.24.11-.13.17-.32.17-.56s-.05-.42-.15-.54c-.1-.12-.22-.18-.35-.18-.12,0-.21.05-.28.16-.05.07-.11.25-.18.54-.1.39-.18.66-.25.81-.07.15-.17.26-.3.34-.13.08-.27.11-.42.11-.14,0-.27-.03-.38-.09-.12-.06-.22-.15-.3-.26-.06-.08-.11-.19-.15-.33-.04-.14-.06-.3-.06-.46,0-.24.04-.46.11-.64s.17-.32.29-.41.28-.15.48-.18l.07.52c-.16.02-.28.09-.38.21-.09.11-.13.27-.13.47,0,.24.04.42.12.52s.17.16.28.16c.07,0,.13-.02.18-.06s.1-.11.14-.2c.02-.05.06-.21.13-.47.1-.37.18-.63.25-.78.06-.15.16-.26.28-.35s.27-.13.45-.13.34.05.5.16.28.25.36.44.13.41.13.66c0,.4-.08.71-.25.93-.17.21-.42.35-.75.4h0Z"/>
  <path class="cls-9" d="M11.05,74.96l.47-.08c.03.15.05.28.05.4,0,.19-.03.34-.09.45s-.14.18-.24.22c-.1.04-.31.06-.62.06h-1.79v.39h-.41v-.39h-.77l-.32-.52h1.09v-.53h.41v.53h1.82c.15,0,.25,0,.29-.03.04-.02.08-.05.1-.09.03-.04.04-.1.04-.18,0-.06,0-.13-.02-.23h0Z"/>
  <path class="cls-9" d="M11.52,74.43h-3.11v-.47h.47c-.22-.12-.37-.23-.44-.33s-.11-.22-.11-.34c0-.18.06-.36.17-.54l.49.18c-.08.13-.11.26-.11.39,0,.11.04.22.11.31.07.09.16.16.29.2.19.06.39.09.62.09h1.63v.53h0Z"/>
  <path class="cls-9" d="M10.52,70.14l.07-.54c.32.08.57.25.74.48s.26.53.26.89c0,.45-.14.82-.42,1.08-.28.27-.67.4-1.18.4s-.93-.13-1.22-.4-.43-.62-.43-1.05.14-.76.42-1.02.68-.4,1.2-.4c.03,0,.08,0,.14,0v2.32c.34-.02.6-.12.79-.29s.27-.39.27-.65c0-.19-.05-.36-.15-.5s-.26-.25-.49-.33M9.67,71.87v-1.74c-.26.02-.46.09-.59.2-.2.17-.3.39-.3.65,0,.24.08.45.24.61.16.16.38.25.65.27h0Z"/>
  <path class="cls-9" d="M11.52,69.15h-3.11v-.47h.44c-.34-.23-.51-.56-.51-.99,0-.19.04-.36.1-.52.07-.16.16-.28.26-.35s.24-.13.39-.16c.1-.02.27-.03.51-.03h1.91v.53h-1.89c-.21,0-.38.02-.48.06-.11.04-.19.11-.25.22-.06.1-.1.23-.1.37,0,.23.07.42.21.58.14.16.41.24.81.24h1.7v.53h0Z"/>
  <path class="cls-9" d="M11.78,65.88l.08-.51c.16-.02.27-.08.35-.18.1-.13.15-.31.15-.54,0-.24-.05-.43-.15-.57s-.23-.22-.41-.27c-.11-.03-.33-.04-.68-.04.27.23.41.52.41.86,0,.43-.16.76-.46.99s-.68.35-1.11.35c-.3,0-.57-.05-.82-.16-.25-.11-.45-.26-.58-.47-.14-.21-.21-.45-.21-.72,0-.37.15-.67.45-.91h-.38v-.49h2.69c.48,0,.83.05,1.03.15.2.1.36.25.48.47s.18.47.18.79c0,.37-.08.67-.25.9s-.42.34-.75.33M9.91,65.45c.41,0,.71-.08.89-.24s.28-.37.28-.61-.09-.45-.28-.61c-.19-.16-.48-.25-.88-.25s-.67.08-.86.25c-.19.17-.29.37-.29.61s.1.43.29.6.47.25.85.25h0Z"/>
  <path class="cls-9" d="M11.05,61.28l.47-.08c.03.15.05.28.05.4,0,.19-.03.34-.09.45s-.14.18-.24.22c-.1.04-.31.06-.62.06h-1.79v.39h-.41v-.39h-.77l-.32-.52h1.09v-.53h.41v.53h1.82c.15,0,.25,0,.29-.03.04-.02.08-.05.1-.09.03-.04.04-.1.04-.18,0-.06,0-.13-.02-.23h0Z"/>
  <path class="cls-9" d="M11.52,60.75h-4.29v-.53h1.54c-.28-.25-.43-.56-.43-.93,0-.23.05-.43.14-.6s.21-.29.38-.36.39-.11.7-.11h1.97v.53h-1.97c-.26,0-.45.06-.57.17s-.18.28-.18.48c0,.16.04.3.12.44.08.14.19.23.33.29s.33.09.57.09h1.7v.53h0Z"/>
  <path class="cls-6" d="M27.42,125.48V42.32M27.42,125.48h167.4"/>
  <path class="cls-9" d="M44.38,12.71l.62.16c-.13.5-.36.89-.7,1.16-.33.26-.74.4-1.23.4s-.91-.1-1.23-.3c-.31-.21-.55-.5-.72-.89-.16-.39-.24-.8-.24-1.25,0-.49.09-.91.28-1.27.19-.36.45-.63.79-.82.34-.19.72-.28,1.13-.28.47,0,.86.12,1.17.36.32.24.54.57.66,1l-.61.14c-.11-.34-.26-.58-.47-.74-.21-.16-.46-.23-.77-.23-.36,0-.66.09-.9.26-.24.17-.41.4-.5.69-.1.29-.15.58-.15.89,0,.4.06.74.17,1.04.12.3.3.51.54.66.24.15.51.22.79.22.35,0,.64-.1.88-.3s.4-.5.49-.89h0Z"/>
  <path class="cls-9" d="M47.86,13.26l.59.07c-.09.35-.27.61-.52.8s-.57.29-.96.29c-.49,0-.89-.15-1.17-.45-.29-.3-.43-.73-.43-1.28s.15-1.01.44-1.32.67-.47,1.14-.47.82.15,1.1.46.43.74.43,1.29c0,.03,0,.09,0,.15h-2.51c.02.37.13.65.31.85s.42.3.7.3c.21,0,.39-.05.54-.17s.27-.29.35-.53M45.98,12.33h1.88c-.03-.28-.1-.5-.22-.64-.18-.22-.42-.33-.71-.33-.26,0-.48.09-.66.26-.18.17-.28.41-.3.7h0Z"/>
  <polygon class="cls-9" points="49.14 14.34 49.14 9.69 49.71 9.69 49.71 14.34 49.14 14.34 49.14 14.34"/>
  <polygon class="cls-9" points="50.58 14.34 50.58 9.69 51.15 9.69 51.15 14.34 50.58 14.34 50.58 14.34"/>
  <path class="cls-9" d="M55.2,13.83l.08.5c-.16.03-.3.05-.43.05-.21,0-.37-.03-.48-.1-.11-.07-.19-.15-.24-.26-.05-.11-.07-.33-.07-.68v-1.94h-.42v-.44h.42v-.83l.57-.34v1.18h.57v.44h-.57v1.97c0,.16,0,.27.03.31.02.05.05.08.1.11.05.03.11.04.2.04.06,0,.15,0,.25-.02h0Z"/>
  <path class="cls-9" d="M55.6,15.64l-.06-.54c.12.03.23.05.33.05.13,0,.23-.02.3-.06.08-.04.14-.1.19-.18.03-.06.1-.2.17-.43,0-.03.03-.08.05-.14l-1.28-3.38h.62l.7,1.95c.09.25.17.51.24.78.07-.26.14-.52.23-.77l.72-1.96h.57l-1.28,3.43c-.14.37-.24.63-.32.76-.1.19-.22.33-.35.41-.13.09-.29.13-.47.13-.11,0-.23-.02-.37-.07h0Z"/>
  <path class="cls-9" d="M58.99,15.64v-4.66h.52v.44c.12-.17.26-.3.42-.38.16-.09.34-.13.56-.13.29,0,.54.07.76.22s.39.36.5.63c.11.27.17.56.17.89,0,.35-.06.66-.19.93s-.3.49-.54.63c-.23.15-.48.22-.74.22-.19,0-.36-.04-.51-.12-.15-.08-.27-.18-.37-.3v1.64h-.57M59.51,12.68c0,.43.09.76.26.96.17.21.39.31.64.31s.47-.11.65-.32c.18-.22.27-.55.27-1s-.09-.75-.27-.96c-.17-.21-.39-.32-.63-.32s-.46.11-.65.34c-.19.23-.28.56-.28.99h0Z"/>
  <path class="cls-9" d="M64.9,13.26l.59.07c-.09.35-.27.61-.52.8s-.57.29-.96.29c-.49,0-.89-.15-1.17-.45-.29-.3-.43-.73-.43-1.28s.15-1.01.44-1.32.67-.47,1.14-.47.82.15,1.1.46.43.74.43,1.29c0,.03,0,.09,0,.15h-2.51c.02.37.13.65.31.85s.42.3.7.3c.21,0,.39-.05.54-.17s.27-.29.35-.53M63.02,12.33h1.88c-.03-.28-.1-.5-.22-.64-.18-.22-.42-.33-.71-.33-.26,0-.48.09-.66.26-.18.17-.28.41-.3.7h0Z"/>
  <rect class="cls-4" x="42.69" y="18.13" width="2.99" height="2.99" transform="translate(-.94 36.99) rotate(-45)"/>
  <polygon class="cls-9" points="55.43 21.3 55.43 17.01 58.54 17.01 58.54 17.52 56 17.52 56 18.83 58.38 18.83 58.38 19.33 56 19.33 56 20.8 58.64 20.8 58.64 21.3 55.43 21.3 55.43 21.3"/>
  <path class="cls-3" d="M44.19,27.81c.4,0,.78-.16,1.06-.44s.44-.66.44-1.06-.16-.78-.44-1.06c-.28-.28-.66-.44-1.06-.44s-.78.16-1.06.44c-.28.28-.44.66-.44,1.06s.16.78.44,1.06.66.44,1.06.44h0Z"/>
  <polygon class="cls-9" points="55.43 27.78 55.43 23.49 58.54 23.49 58.54 24 56 24 56 25.31 58.38 25.31 58.38 25.81 56 25.81 56 27.28 58.64 27.28 58.64 27.78 55.43 27.78 55.43 27.78"/>
  <path class="cls-9" d="M61.47,27.4c-.2.17-.38.28-.57.35-.18.07-.37.1-.58.1-.34,0-.6-.08-.79-.25s-.28-.38-.28-.64c0-.15.04-.29.1-.42.07-.13.16-.23.27-.3.11-.08.24-.13.38-.17.1-.03.26-.05.47-.08.42-.05.74-.11.94-.18,0-.07,0-.12,0-.14,0-.21-.05-.37-.15-.45-.13-.12-.33-.18-.6-.18-.25,0-.43.04-.55.13-.12.08-.21.24-.26.46l-.52-.07c.05-.22.12-.4.23-.53.11-.14.26-.24.47-.31s.44-.11.71-.11.48.03.65.09.29.14.37.24c.08.09.13.21.16.36.02.09.03.25.03.49v.7c0,.49.01.8.03.93.02.13.07.25.13.37h-.55c-.06-.11-.09-.24-.11-.38M61.42,26.22c-.19.08-.48.14-.86.2-.22.03-.37.07-.46.11s-.16.1-.21.17c-.05.07-.07.16-.07.25,0,.14.05.26.16.35.11.09.26.14.47.14s.38-.04.54-.13c.16-.09.28-.21.35-.37.06-.12.08-.3.08-.53v-.19h0Z"/>
  <polygon class="cls-9" points="62.59 26.49 62.59 25.96 64.21 25.96 64.21 26.49 62.59 26.49 62.59 26.49"/>
  <rect class="cls-1" x="42.69" y="31.5" width="2.99" height="2.99"/>
  <path class="cls-9" d="M55.41,34.5v-4.29h.86l1.02,3.04c.09.28.16.5.21.64.05-.16.13-.39.23-.69l1.03-2.99h.76v4.29h-.55v-3.59l-1.25,3.59h-.51l-1.24-3.66v3.66h-.55Z"/>
  <path class="cls-9" d="M60.27,33.12l.54-.05c.03.21.08.39.18.53.09.14.24.25.43.33s.42.13.66.13c.22,0,.41-.03.57-.1s.29-.15.37-.26c.08-.11.12-.24.12-.37s-.04-.25-.12-.35c-.08-.1-.21-.19-.39-.25-.11-.04-.37-.11-.76-.21-.4-.1-.67-.18-.83-.27-.21-.11-.36-.24-.46-.4-.1-.16-.15-.34-.15-.54,0-.22.06-.42.18-.61.12-.19.3-.33.54-.43s.5-.15.79-.15c.32,0,.6.05.84.16s.43.25.56.45.2.42.21.68l-.54.04c-.03-.27-.13-.48-.3-.62-.17-.14-.42-.21-.75-.21s-.59.06-.75.19c-.16.13-.23.28-.23.45,0,.16.06.28.17.38.11.1.4.2.86.31.46.1.78.19.95.27.25.11.43.26.55.44.12.18.18.38.18.61s-.06.45-.2.65-.32.36-.57.47c-.24.11-.52.17-.83.17-.39,0-.71-.06-.98-.17-.26-.11-.47-.28-.62-.51-.15-.23-.23-.49-.23-.77h0Z"/>
  <polygon class="cls-9" points="64.55 34.5 64.55 30.21 67.66 30.21 67.66 30.72 65.12 30.72 65.12 32.03 67.5 32.03 67.5 32.53 65.12 32.53 65.12 34 67.76 34 67.76 34.5 64.55 34.5 64.55 34.5"/>
  <path class="cls-8" d="M99.91,35.46v2.64h-.72v-2.62c0-.41-.08-.72-.24-.93-.16-.21-.4-.31-.73-.31-.39,0-.7.12-.92.37s-.34.59-.34,1.01v2.47h-.72v-4.38h.72v.68c.17-.26.38-.46.61-.59.23-.13.5-.2.81-.2.5,0,.88.16,1.14.47.26.31.39.77.39,1.37h0Z"/>
  <path class="cls-8" d="M104.95,35.46v2.64h-.72v-2.62c0-.41-.08-.72-.24-.93-.16-.21-.4-.31-.73-.31-.39,0-.7.12-.92.37s-.34.59-.34,1.01v2.47h-.72v-6.08h.72v2.38c.17-.26.38-.46.61-.59.23-.13.5-.2.81-.2.5,0,.88.16,1.14.47.26.31.39.77.39,1.37h0Z"/>
  <path class="cls-8" d="M108.89,34.4c-.08-.05-.17-.08-.27-.1-.09-.02-.2-.04-.31-.04-.41,0-.72.13-.94.4-.21.26-.32.64-.32,1.14v2.3h-.72v-4.38h.72v.68c.15-.27.35-.46.59-.59s.54-.2.88-.2c.05,0,.11,0,.16.01.06,0,.12.02.2.03v.74h0Z"/>
  <polygon class="cls-8" points="108.63 35.59 110.74 35.59 110.74 36.23 108.63 36.23 108.63 35.59 108.63 35.59"/>
  <path class="cls-8" d="M112.66,37.44h2.75v.66h-3.7v-.66c.3-.31.71-.73,1.22-1.25.52-.52.84-.86.98-1.01.25-.29.43-.52.53-.72.1-.2.15-.39.15-.58,0-.31-.11-.56-.33-.76-.21-.2-.5-.29-.85-.29-.25,0-.51.04-.79.13-.27.09-.57.21-.88.39v-.8c.32-.13.61-.22.89-.29.28-.07.53-.1.76-.1.61,0,1.09.15,1.45.45.36.3.54.71.54,1.21,0,.24-.05.47-.14.68-.09.21-.25.46-.49.76-.07.07-.27.29-.62.66-.35.36-.84.86-1.48,1.51h0Z"/>
  <path class="cls-8" d="M117.26,32.27h3.1v.66h-2.38v1.43c.11-.04.23-.07.34-.09.11-.02.23-.03.34-.03.65,0,1.17.18,1.55.54.38.36.57.84.57,1.45s-.2,1.12-.59,1.46c-.39.35-.94.52-1.65.52-.25,0-.5-.02-.75-.06-.25-.04-.52-.11-.79-.19v-.79c.23.13.48.22.73.29.25.06.52.09.79.09.45,0,.81-.12,1.07-.36.26-.24.39-.56.39-.96s-.13-.73-.39-.96c-.26-.24-.62-.36-1.07-.36-.21,0-.42.02-.63.07-.21.05-.42.12-.64.22v-2.93h0Z"/>
</svg>