<?xml version="1.0" encoding="UTF-8"?>
<svg id="_图层_1" data-name=" 图层 1" xmlns="http://www.w3.org/2000/svg" version="1.1" xmlns:xlink="http://www.w3.org/1999/xlink" viewBox="0 0 209 160.1">
  <defs>
    <style>
      .cls-1 {
        fill: #fcfad3;
        stroke: #ef7c20;
      }

      .cls-1, .cls-2, .cls-3, .cls-4, .cls-5 {
        stroke-linejoin: round;
      }

      .cls-1, .cls-3 {
        stroke-width: .6px;
      }

      .cls-6 {
        clip-path: url(#clippath-11);
      }

      .cls-2 {
        stroke-dasharray: 0 0 0 0 0 0 2.5 2.5;
      }

      .cls-2, .cls-7 {
        stroke: #231815;
        stroke-width: .5px;
      }

      .cls-2, .cls-7, .cls-8, .cls-5 {
        fill: none;
      }

      .cls-7 {
        stroke-linecap: square;
        stroke-miterlimit: 10;
      }

      .cls-9 {
        clip-path: url(#clippath-2);
      }

      .cls-10 {
        clip-path: url(#clippath-6);
      }

      .cls-8, .cls-11, .cls-12, .cls-13 {
        stroke-width: 0px;
      }

      .cls-14 {
        clip-path: url(#clippath-7);
      }

      .cls-15 {
        clip-path: url(#clippath-1);
      }

      .cls-16 {
        clip-path: url(#clippath-4);
      }

      .cls-3 {
        fill: #c7e8fa;
        stroke: #2171a9;
      }

      .cls-4 {
        fill: #fad5d2;
        stroke: #e60012;
        stroke-width: .6px;
      }

      .cls-17 {
        clip-path: url(#clippath-12);
      }

      .cls-11 {
        fill: #231815;
      }

      .cls-11, .cls-12 {
        fill-rule: evenodd;
      }

      .cls-12 {
        fill: #000;
      }

      .cls-18 {
        clip-path: url(#clippath-9);
      }

      .cls-19 {
        clip-path: url(#clippath);
      }

      .cls-20 {
        clip-path: url(#clippath-3);
      }

      .cls-21 {
        clip-path: url(#clippath-8);
      }

      .cls-13 {
        fill: #fff;
      }

      .cls-22 {
        clip-path: url(#clippath-5);
      }

      .cls-23 {
        clip-path: url(#clippath-10);
      }

      .cls-5 {
        stroke: #000;
        stroke-width: .8px;
      }
    </style>
    <clipPath id="clippath">
      <rect class="cls-8" x="31.4" y="37.3" width="167.4" height="83.2"/>
    </clipPath>
    <clipPath id="clippath-1">
      <rect class="cls-8" x="31.4" y="37.3" width="167.4" height="83.2"/>
    </clipPath>
    <clipPath id="clippath-2">
      <rect class="cls-8" x="31.4" y="37.3" width="167.4" height="83.2"/>
    </clipPath>
    <clipPath id="clippath-3">
      <rect class="cls-8" x="31.4" y="37.3" width="167.4" height="83.2"/>
    </clipPath>
    <clipPath id="clippath-4">
      <rect class="cls-8" x="31.4" y="37.3" width="167.4" height="83.2"/>
    </clipPath>
    <clipPath id="clippath-5">
      <rect class="cls-8" x="31.4" y="37.3" width="167.4" height="83.2"/>
    </clipPath>
    <clipPath id="clippath-6">
      <rect class="cls-8" x="31.4" y="37.3" width="167.4" height="83.2"/>
    </clipPath>
    <clipPath id="clippath-7">
      <rect class="cls-8" x="31.4" y="37.3" width="167.4" height="83.2"/>
    </clipPath>
    <clipPath id="clippath-8">
      <rect class="cls-8" x="31.4" y="37.3" width="167.4" height="83.2"/>
    </clipPath>
    <clipPath id="clippath-9">
      <rect class="cls-8" x="31.4" y="37.3" width="167.4" height="83.2"/>
    </clipPath>
    <clipPath id="clippath-10">
      <rect class="cls-8" x="31.4" y="37.3" width="167.4" height="83.2"/>
    </clipPath>
    <clipPath id="clippath-11">
      <rect class="cls-8" x="31.4" y="37.3" width="167.4" height="83.2"/>
    </clipPath>
    <clipPath id="clippath-12">
      <rect class="cls-8" x="31.4" y="37.3" width="167.4" height="83.2"/>
    </clipPath>
  </defs>
  <rect class="cls-13" x="4" y="-5" width="202" height="165.1"/>
  <rect class="cls-13" x="31.4" y="37.3" width="167.4" height="83.2"/>
  <g class="cls-19">
    <line class="cls-2" x1="31.4" y1="94.6" x2="198.8" y2="94.6"/>
  </g>
  <rect class="cls-4" x="37.2" y="110.4" width="3.7" height="3.7" transform="translate(-68 60.5) rotate(-45)"/>
  <rect class="cls-4" x="41" y="113.7" width="3.7" height="3.7" transform="translate(-69.1 64.1) rotate(-45)"/>
  <rect class="cls-4" x="44.8" y="115.9" width="3.7" height="3.7" transform="translate(-69.6 67.5) rotate(-45)"/>
  <rect class="cls-4" x="48.6" y="94.1" width="3.7" height="3.7" transform="translate(-53.1 63.8) rotate(-45)"/>
  <rect class="cls-4" x="52.4" y="94.2" width="3.7" height="3.7" transform="translate(-52 66.5) rotate(-45)"/>
  <rect class="cls-4" x="56.2" y="94.2" width="3.7" height="3.7" transform="translate(-50.9 69.2) rotate(-45)"/>
  <rect class="cls-4" x="60" y="94.1" width="3.7" height="3.7" transform="translate(-49.7 71.8) rotate(-45)"/>
  <rect class="cls-4" x="63.8" y="94.1" width="3.7" height="3.7" transform="translate(-48.6 74.5) rotate(-45)"/>
  <rect class="cls-4" x="67.6" y="115.2" width="3.7" height="3.7" transform="translate(-62.4 83.4) rotate(-45)"/>
  <rect class="cls-4" x="71.4" y="94.1" width="3.7" height="3.7" transform="translate(-46.4 79.9) rotate(-45)"/>
  <rect class="cls-4" x="75.2" y="94.1" width="3.7" height="3.7" transform="translate(-45.3 82.6) rotate(-45)"/>
  <rect class="cls-4" x="79" y="94.1" width="3.7" height="3.7" transform="translate(-44.2 85.3) rotate(-45)"/>
  <g class="cls-15">
    <g>
      <rect class="cls-4" x="82.8" y="94.2" width="3.7" height="3.7" transform="translate(-43.1 88) rotate(-45)"/>
      <rect class="cls-4" x="86.6" y="117.4" width="3.7" height="3.7" transform="translate(-58.4 97.5) rotate(-45)"/>
    </g>
  </g>
  <rect class="cls-4" x="90.4" y="109" width="3.7" height="3.7" transform="translate(-51.3 97.7) rotate(-45)"/>
  <rect class="cls-4" x="94.2" y="94.1" width="3.7" height="3.7" transform="translate(-39.7 96) rotate(-45)"/>
  <rect class="cls-4" x="97.9" y="113.9" width="3.7" height="3.7" transform="translate(-52.6 104.5) rotate(-45)"/>
  <rect class="cls-4" x="101.8" y="91" width="3.7" height="3.7" transform="translate(-35.3 100.5) rotate(-45)"/>
  <rect class="cls-4" x="105.7" y="110.8" width="3.7" height="3.7" transform="translate(-48.2 109) rotate(-45)"/>
  <rect class="cls-4" x="109.4" y="110.1" width="3.7" height="3.7" transform="translate(-46.6 111.5) rotate(-45)"/>
  <rect class="cls-4" x="113.2" y="94.2" width="3.7" height="3.7" transform="translate(-34.2 109.5) rotate(-45)"/>
  <rect class="cls-4" x="117" y="94.2" width="3.7" height="3.7" transform="translate(-33.1 112.1) rotate(-45)"/>
  <rect class="cls-4" x="120.8" y="94.1" width="3.7" height="3.7" transform="translate(-31.9 114.9) rotate(-45)"/>
  <g class="cls-9">
    <g>
      <rect class="cls-4" x="124.7" y="94.1" width="3.7" height="3.7" transform="translate(-30.8 117.6) rotate(-45)"/>
      <rect class="cls-4" x="128.5" y="117" width="3.7" height="3.7" transform="translate(-45.9 127) rotate(-45)"/>
    </g>
  </g>
  <rect class="cls-4" x="132.3" y="94.2" width="3.7" height="3.7" transform="translate(-28.6 123) rotate(-45)"/>
  <rect class="cls-4" x="136.1" y="94.1" width="3.7" height="3.7" transform="translate(-27.4 125.6) rotate(-45)"/>
  <rect class="cls-4" x="139.9" y="94.1" width="3.7" height="3.7" transform="translate(-26.3 128.3) rotate(-45)"/>
  <rect class="cls-4" x="143.7" y="105.9" width="3.7" height="3.7" transform="translate(-33.6 134.5) rotate(-45)"/>
  <rect class="cls-4" x="147.4" y="94.1" width="3.7" height="3.7" transform="translate(-24.1 133.7) rotate(-45)"/>
  <g class="cls-20">
    <g>
      <rect class="cls-4" x="151.3" y="94.1" width="3.7" height="3.7" transform="translate(-23 136.4) rotate(-45)"/>
      <rect class="cls-4" x="155.1" y="117.3" width="3.7" height="3.7" transform="translate(-38.3 145.9) rotate(-45)"/>
    </g>
  </g>
  <rect class="cls-4" x="158.9" y="115" width="3.7" height="3.7" transform="translate(-35.6 147.9) rotate(-45)"/>
  <rect class="cls-4" x="162.7" y="94.2" width="3.7" height="3.7" transform="translate(-19.7 144.5) rotate(-45)"/>
  <rect class="cls-4" x="166.5" y="94.2" width="3.7" height="3.7" transform="translate(-18.6 147.2) rotate(-45)"/>
  <rect class="cls-4" x="170.3" y="115.1" width="3.7" height="3.7" transform="translate(-32.3 156) rotate(-45)"/>
  <rect class="cls-4" x="174.1" y="94.1" width="3.7" height="3.7" transform="translate(-16.3 152.5) rotate(-45)"/>
  <g class="cls-16">
    <g>
      <rect class="cls-4" x="178" y="106.3" width="3.7" height="3.7" transform="translate(-23.8 158.8) rotate(-45)"/>
      <rect class="cls-4" x="181.7" y="117.3" width="3.7" height="3.7" transform="translate(-30.5 164.7) rotate(-45)"/>
      <rect class="cls-4" x="185.4" y="100.9" width="3.7" height="3.7" transform="translate(-17.8 162.5) rotate(-45)"/>
      <rect class="cls-4" x="189.3" y="117.4" width="3.7" height="3.7" transform="translate(-28.3 170.1) rotate(-45)"/>
    </g>
  </g>
  <path class="cls-3" d="M39,111.1c.5,0,1-.2,1.3-.5s.5-.8.5-1.3-.2-1-.5-1.3-.8-.5-1.3-.5-1,.2-1.3.5-.5.8-.5,1.3.2,1,.5,1.3.8.5,1.3.5h0Z"/>
  <path class="cls-3" d="M42.8,114.1c.5,0,1-.2,1.3-.5s.5-.8.5-1.3-.2-1-.5-1.3-.8-.5-1.3-.5-1,.2-1.3.5-.5.8-.5,1.3.2,1,.5,1.3.8.5,1.3.5h0Z"/>
  <path class="cls-3" d="M46.6,99.5c.5,0,1-.2,1.3-.5s.5-.8.5-1.3-.2-1-.5-1.3-.8-.5-1.3-.5-1,.2-1.3.5-.5.8-.5,1.3.2,1,.5,1.3.8.5,1.3.5h0Z"/>
  <path class="cls-3" d="M50.4,99.5c.5,0,1-.2,1.3-.5s.5-.8.5-1.3-.2-1-.5-1.3-.8-.5-1.3-.5-1,.2-1.3.5-.5.8-.5,1.3.2,1,.5,1.3.8.5,1.3.5h0Z"/>
  <path class="cls-3" d="M54.2,99.5c.5,0,1-.2,1.3-.5s.5-.8.5-1.3-.2-1-.5-1.3-.8-.5-1.3-.5-1,.2-1.3.5-.5.8-.5,1.3.2,1,.5,1.3.8.5,1.3.5h0Z"/>
  <path class="cls-3" d="M58,100c.5,0,1-.2,1.3-.5s.5-.8.5-1.3-.2-1-.5-1.3-.8-.5-1.3-.5-1,.2-1.3.5-.5.8-.5,1.3.2,1,.5,1.3.8.5,1.3.5h0Z"/>
  <path class="cls-3" d="M61.9,99.5c.5,0,1-.2,1.3-.5s.5-.8.5-1.3-.2-1-.5-1.3-.8-.5-1.3-.5-1,.2-1.3.5-.5.8-.5,1.3.2,1,.5,1.3.8.5,1.3.5h0Z"/>
  <path class="cls-3" d="M65.7,99.5c.5,0,1-.2,1.3-.5s.5-.8.5-1.3-.2-1-.5-1.3-.8-.5-1.3-.5-1,.2-1.3.5-.5.8-.5,1.3.2,1,.5,1.3.8.5,1.3.5h0Z"/>
  <path class="cls-3" d="M69.5,107.3c.5,0,1-.2,1.3-.5s.5-.8.5-1.3-.2-1-.5-1.3-.8-.5-1.3-.5-1,.2-1.3.5-.5.8-.5,1.3.2,1,.5,1.3.8.5,1.3.5h0Z"/>
  <path class="cls-3" d="M73.3,99.5c.5,0,1-.2,1.3-.5s.5-.8.5-1.3-.2-1-.5-1.3-.8-.5-1.3-.5-1,.2-1.3.5-.5.8-.5,1.3.2,1,.5,1.3.8.5,1.3.5h0Z"/>
  <g class="cls-22">
    <g>
      <path class="cls-3" d="M77.1,99.5c.5,0,1-.2,1.3-.5s.5-.8.5-1.3-.2-1-.5-1.3-.8-.5-1.3-.5-1,.2-1.3.5-.5.8-.5,1.3.2,1,.5,1.3.8.5,1.3.5h0Z"/>
      <path class="cls-3" d="M80.9,120.9c.5,0,1-.2,1.3-.5s.5-.8.5-1.3-.2-1-.5-1.3-.8-.5-1.3-.5-1,.2-1.3.5-.5.8-.5,1.3.2,1,.5,1.3.8.5,1.3.5h0Z"/>
      <path class="cls-3" d="M84.7,99.5c.5,0,1-.2,1.3-.5s.5-.8.5-1.3-.2-1-.5-1.3-.8-.5-1.3-.5-1,.2-1.3.5-.5.8-.5,1.3.2,1,.5,1.3.8.5,1.3.5h0Z"/>
      <path class="cls-3" d="M88.5,121c.5,0,1-.2,1.3-.5s.5-.8.5-1.3-.2-1-.5-1.3-.8-.5-1.3-.5-1,.2-1.3.5-.5.8-.5,1.3.2,1,.5,1.3.8.5,1.3.5h0Z"/>
    </g>
  </g>
  <path class="cls-3" d="M92.3,102.9c.5,0,1-.2,1.3-.5s.5-.8.5-1.3-.2-1-.5-1.3-.8-.5-1.3-.5-1,.2-1.3.5-.5.8-.5,1.3.2,1,.5,1.3.8.5,1.3.5h0Z"/>
  <path class="cls-3" d="M96.1,99.5c.5,0,1-.2,1.3-.5s.5-.8.5-1.3-.2-1-.5-1.3-.8-.5-1.3-.5-1,.2-1.3.5-.5.8-.5,1.3.2,1,.5,1.3.8.5,1.3.5h0Z"/>
  <path class="cls-3" d="M99.9,101c.5,0,1-.2,1.3-.5s.5-.8.5-1.3-.2-1-.5-1.3-.8-.5-1.3-.5-1,.2-1.3.5-.5.8-.5,1.3.2,1,.5,1.3.8.5,1.3.5h0Z"/>
  <path class="cls-3" d="M103.7,105.8c.5,0,1-.2,1.3-.5s.5-.8.5-1.3-.2-1-.5-1.3-.8-.5-1.3-.5-1,.2-1.3.5-.5.8-.5,1.3.2,1,.5,1.3.8.5,1.3.5h0Z"/>
  <path class="cls-3" d="M107.5,118.9c.5,0,1-.2,1.3-.5s.5-.8.5-1.3-.2-1-.5-1.3-.8-.5-1.3-.5-1,.2-1.3.5-.5.8-.5,1.3.2,1,.5,1.3.8.5,1.3.5h0Z"/>
  <path class="cls-3" d="M111.3,104.1c.5,0,1-.2,1.3-.5s.5-.8.5-1.3-.2-1-.5-1.3-.8-.5-1.3-.5-1,.2-1.3.5-.5.8-.5,1.3.2,1,.5,1.3.8.5,1.3.5h0Z"/>
  <path class="cls-3" d="M115.1,99.5c.5,0,1-.2,1.3-.5s.5-.8.5-1.3-.2-1-.5-1.3-.8-.5-1.3-.5-1,.2-1.3.5-.5.8-.5,1.3.2,1,.5,1.3.8.5,1.3.5h0Z"/>
  <path class="cls-3" d="M118.9,99.5c.5,0,1-.2,1.3-.5s.5-.8.5-1.3-.2-1-.5-1.3-.8-.5-1.3-.5-1,.2-1.3.5-.5.8-.5,1.3.2,1,.5,1.3.8.5,1.3.5h0Z"/>
  <path class="cls-3" d="M122.7,99.5c.5,0,1-.2,1.3-.5s.5-.8.5-1.3-.2-1-.5-1.3-.8-.5-1.3-.5-1,.2-1.3.5-.5.8-.5,1.3.2,1,.5,1.3.8.5,1.3.5h0Z"/>
  <path class="cls-3" d="M126.5,99.5c.5,0,1-.2,1.3-.5s.5-.8.5-1.3-.2-1-.5-1.3-.8-.5-1.3-.5-1,.2-1.3.5-.5.8-.5,1.3.2,1,.5,1.3.8.5,1.3.5h0Z"/>
  <path class="cls-3" d="M130.3,116.1c.5,0,1-.2,1.3-.5s.5-.8.5-1.3-.2-1-.5-1.3-.8-.5-1.3-.5-1,.2-1.3.5-.5.8-.5,1.3.2,1,.5,1.3.8.5,1.3.5h0Z"/>
  <path class="cls-3" d="M134.1,99.5c.5,0,1-.2,1.3-.5s.5-.8.5-1.3-.2-1-.5-1.3-.8-.5-1.3-.5-1,.2-1.3.5-.5.8-.5,1.3.2,1,.5,1.3.8.5,1.3.5h0Z"/>
  <path class="cls-3" d="M137.9,99.5c.5,0,1-.2,1.3-.5s.5-.8.5-1.3-.2-1-.5-1.3-.8-.5-1.3-.5-1,.2-1.3.5-.5.8-.5,1.3.2,1,.5,1.3.8.5,1.3.5h0Z"/>
  <g class="cls-10">
    <g>
      <path class="cls-3" d="M141.7,99.5c.5,0,1-.2,1.3-.5s.5-.8.5-1.3-.2-1-.5-1.3-.8-.5-1.3-.5-1,.2-1.3.5-.5.8-.5,1.3.2,1,.5,1.3.8.5,1.3.5h0Z"/>
      <path class="cls-3" d="M145.6,121c.5,0,1-.2,1.3-.5s.5-.8.5-1.3-.2-1-.5-1.3-.8-.5-1.3-.5-1,.2-1.3.5-.5.8-.5,1.3.2,1,.5,1.3.8.5,1.3.5h0Z"/>
    </g>
  </g>
  <path class="cls-3" d="M149.4,99.5c.5,0,1-.2,1.3-.5s.5-.8.5-1.3-.2-1-.5-1.3-.8-.5-1.3-.5-1,.2-1.3.5-.5.8-.5,1.3.2,1,.5,1.3.8.5,1.3.5h0Z"/>
  <g class="cls-14">
    <g>
      <path class="cls-3" d="M153.2,99.5c.5,0,1-.2,1.3-.5s.5-.8.5-1.3-.2-1-.5-1.3-.8-.5-1.3-.5-1,.2-1.3.5-.5.8-.5,1.3.2,1,.5,1.3.8.5,1.3.5h0Z"/>
      <path class="cls-3" d="M157,121c.5,0,1-.2,1.3-.5s.5-.8.5-1.3-.2-1-.5-1.3-.8-.5-1.3-.5-1,.2-1.3.5-.5.8-.5,1.3.2,1,.5,1.3.8.5,1.3.5h0Z"/>
    </g>
  </g>
  <path class="cls-3" d="M160.8,116.2c.5,0,1-.2,1.3-.5s.5-.8.5-1.3-.2-1-.5-1.3-.8-.5-1.3-.5-1,.2-1.3.5-.5.8-.5,1.3.2,1,.5,1.3.8.5,1.3.5h0Z"/>
  <path class="cls-3" d="M164.6,99.5c.5,0,1-.2,1.3-.5s.5-.8.5-1.3-.2-1-.5-1.3-.8-.5-1.3-.5-1,.2-1.3.5-.5.8-.5,1.3.2,1,.5,1.3.8.5,1.3.5h0Z"/>
  <path class="cls-3" d="M168.4,98.9c.5,0,1-.2,1.3-.5s.5-.8.5-1.3-.2-1-.5-1.3-.8-.5-1.3-.5-1,.2-1.3.5-.5.8-.5,1.3.2,1,.5,1.3.8.5,1.3.5h0Z"/>
  <path class="cls-3" d="M172.2,111.4c.5,0,1-.2,1.3-.5s.5-.8.5-1.3-.2-1-.5-1.3-.8-.5-1.3-.5-1,.2-1.3.5-.5.8-.5,1.3.2,1,.5,1.3.8.5,1.3.5h0Z"/>
  <path class="cls-3" d="M176,99.5c.5,0,1-.2,1.3-.5s.5-.8.5-1.3-.2-1-.5-1.3-.8-.5-1.3-.5-1,.2-1.3.5-.5.8-.5,1.3.2,1,.5,1.3.8.5,1.3.5h0Z"/>
  <g class="cls-21">
    <g>
      <path class="cls-3" d="M179.8,116.1c.5,0,1-.2,1.3-.5s.5-.8.5-1.3-.2-1-.5-1.3-.8-.5-1.3-.5-1,.2-1.3.5-.5.8-.5,1.3.2,1,.5,1.3.8.5,1.3.5h0Z"/>
      <path class="cls-3" d="M183.6,121c.5,0,1-.2,1.3-.5s.5-.8.5-1.3-.2-1-.5-1.3-.8-.5-1.3-.5-1,.2-1.3.5-.5.8-.5,1.3.2,1,.5,1.3.8.5,1.3.5h0Z"/>
      <path class="cls-3" d="M187.4,113.7c.5,0,1-.2,1.3-.5s.5-.8.5-1.3-.2-1-.5-1.3-.8-.5-1.3-.5-1,.2-1.3.5-.5.8-.5,1.3.2,1,.5,1.3.8.5,1.3.5h0Z"/>
      <path class="cls-3" d="M191.2,121c.5,0,1-.2,1.3-.5s.5-.8.5-1.3-.2-1-.5-1.3-.8-.5-1.3-.5-1,.2-1.3.5-.5.8-.5,1.3.2,1,.5,1.3.8.5,1.3.5h0Z"/>
    </g>
  </g>
  <rect class="cls-1" x="37.2" y="108.1" width="3.7" height="3.7"/>
  <rect class="cls-1" x="41" y="107.1" width="3.7" height="3.7"/>
  <rect class="cls-1" x="44.8" y="100.4" width="3.7" height="3.7"/>
  <rect class="cls-1" x="48.6" y="94.9" width="3.7" height="3.7"/>
  <rect class="cls-1" x="52.4" y="94.9" width="3.7" height="3.7"/>
  <rect class="cls-1" x="56.2" y="95.2" width="3.7" height="3.7"/>
  <rect class="cls-1" x="60" y="94.9" width="3.7" height="3.7"/>
  <rect class="cls-1" x="63.8" y="94.9" width="3.7" height="3.7"/>
  <rect class="cls-1" x="67.6" y="104.1" width="3.7" height="3.7"/>
  <rect class="cls-1" x="71.4" y="94.9" width="3.7" height="3.7"/>
  <rect class="cls-1" x="75.2" y="94.9" width="3.7" height="3.7"/>
  <rect class="cls-1" x="79" y="94.1" width="3.7" height="3.7"/>
  <g class="cls-18">
    <g>
      <rect class="cls-1" x="82.8" y="94.9" width="3.7" height="3.7"/>
      <rect class="cls-1" x="86.6" y="117.3" width="3.7" height="3.7"/>
    </g>
  </g>
  <rect class="cls-1" x="90.4" y="100.3" width="3.7" height="3.7"/>
  <rect class="cls-1" x="94.2" y="94.9" width="3.7" height="3.7"/>
  <rect class="cls-1" x="98" y="100.6" width="3.7" height="3.7"/>
  <rect class="cls-1" x="101.8" y="98" width="3.7" height="3.7"/>
  <rect class="cls-1" x="105.6" y="111.2" width="3.7" height="3.7"/>
  <rect class="cls-1" x="109.4" y="100.6" width="3.7" height="3.7"/>
  <rect class="cls-1" x="113.2" y="94.9" width="3.7" height="3.7"/>
  <rect class="cls-1" x="117" y="94.9" width="3.7" height="3.7"/>
  <rect class="cls-1" x="120.9" y="94.9" width="3.7" height="3.7"/>
  <rect class="cls-1" x="124.7" y="94.9" width="3.7" height="3.7"/>
  <rect class="cls-1" x="128.5" y="114" width="3.7" height="3.7"/>
  <rect class="cls-1" x="132.3" y="94.9" width="3.7" height="3.7"/>
  <rect class="cls-1" x="136.1" y="94.9" width="3.7" height="3.7"/>
  <g class="cls-23">
    <g>
      <rect class="cls-1" x="139.9" y="94.9" width="3.7" height="3.7"/>
      <rect class="cls-1" x="143.7" y="117.3" width="3.7" height="3.7"/>
    </g>
  </g>
  <rect class="cls-1" x="147.5" y="94.9" width="3.7" height="3.7"/>
  <g class="cls-6">
    <g>
      <rect class="cls-1" x="151.3" y="94.9" width="3.7" height="3.7"/>
      <rect class="cls-1" x="155.1" y="117.3" width="3.7" height="3.7"/>
    </g>
  </g>
  <rect class="cls-1" x="158.9" y="113.4" width="3.7" height="3.7"/>
  <rect class="cls-1" x="162.7" y="94.9" width="3.7" height="3.7"/>
  <rect class="cls-1" x="166.5" y="116.2" width="3.7" height="3.7"/>
  <rect class="cls-1" x="170.3" y="106.4" width="3.7" height="3.7"/>
  <rect class="cls-1" x="174.1" y="94.9" width="3.7" height="3.7"/>
  <g class="cls-17">
    <g>
      <rect class="cls-1" x="177.9" y="103.8" width="3.7" height="3.7"/>
      <rect class="cls-1" x="181.7" y="117.3" width="3.7" height="3.7"/>
      <rect class="cls-1" x="185.5" y="113.1" width="3.7" height="3.7"/>
      <rect class="cls-1" x="189.3" y="117.3" width="3.7" height="3.7"/>
    </g>
  </g>
  <line class="cls-5" x1="39" y1="120.5" x2="39" y2="120.7"/>
  <path class="cls-12" d="M37.8,124.5h2.6v.4h-.4c.3.2.4.5.4.8v.4c0,.1-.1.2-.2.3,0,0-.2.1-.3.1h-2v-.4h2s.2,0,.2-.2v-.3c0-.2,0-.3-.2-.5-.1-.1-.3-.2-.7-.2h-1.4v-.4h0Z"/>
  <path class="cls-12" d="M37.8,127.3h2.6v.4h-.4c.2.1.3.2.4.3v.3c0,.1,0,.3-.1.5l-.4-.2v-.6s-.1-.1-.2-.2h-1.9v-.4h0Z"/>
  <path class="cls-12" d="M37.8,130.3h.9v-1.6h.4l2.3,1.6v.4h-2.3v.5h-.4v-.5h-.9v-.4M39.1,130.3h1.6l-1.6-1.1v1.1h0Z"/>
  <path class="cls-12" d="M38.2,133.3c-.1-.2-.2-.3-.3-.5v-.5c0-.3,0-.5.2-.7s.3-.2.5-.2h.3c.1,0,.2.1.3.2,0,0,.1.2.1.3v.4c0,.4,0,.6.2.8h.1c.2,0,.3,0,.4-.1.1-.1.1-.3.1-.5s0-.4-.1-.5c0,0-.2-.2-.4-.2v-.4c.2,0,.4.1.5.2.1,0,.2.2.3.4v1.1c0,.1-.1.2-.2.3,0,0-.2.1-.3.1h-1.8c-.1,0-.2,0-.3.1v-.5h.3M39.1,133.3c0-.2-.1-.4-.2-.7v-.4s0-.1-.1-.2h-.2c-.1,0-.2,0-.3.1,0,0-.1.2-.1.4s0,.3.1.5c0,.1.2.2.3.3h.6,0Z"/>
  <path class="cls-12" d="M37.8,136.1v-.4h2.8c-.1-.1-.2-.2-.3-.4-.1-.2-.2-.3-.2-.5h.4c.1.2.3.5.4.6.2.2.3.3.5.4v.3h-3.6,0Z"/>
  <line class="cls-5" x1="42.8" y1="120.5" x2="42.8" y2="120.7"/>
  <path class="cls-12" d="M41.4,124.5h2.6v.4h-.4c.1,0,.2.2.3.3,0,.1.1.3.1.5s0,.3-.1.5c0,.1-.2.2-.3.3.3.2.5.5.5.8s0,.5-.2.6c-.1.1-.4.2-.7.2h-1.8v-.4h2s.1,0,.2-.2v-.3c0-.2,0-.3-.2-.5-.1-.1-.3-.2-.6-.2h-1.5v-.4h1.7c.2,0,.3,0,.4-.1,0,0,.1-.2.1-.4v-.3c0-.1-.2-.2-.3-.2h-1.8v-.4h0v-.2Z"/>
  <path class="cls-12" d="M41.8,130.5c-.1-.2-.2-.3-.3-.5v-.5c0-.3,0-.5.2-.7s.3-.2.5-.2h.3c.1,0,.2.1.3.2,0,0,.1.2.1.3v.4c0,.4,0,.6.2.8h.1c.2,0,.3,0,.4-.1.1-.1.1-.3.1-.5s0-.4-.1-.5c0,0-.2-.2-.4-.2v-.4c.2,0,.4.1.5.2.1,0,.2.2.3.4v1.1c0,.1-.1.2-.2.3,0,0-.2.1-.3.1h-1.8c-.1,0-.2,0-.3.1v-.5h.3M42.7,130.4c0-.2-.1-.4-.2-.7v-.4s0-.1-.1-.2h-.2c-.1,0-.2,0-.3.1,0,0-.1.2-.1.4s0,.3.1.5c0,.1.2.2.3.3h.6,0Z"/>
  <path class="cls-12" d="M41.4,131.5h2.3v-.4h.3v.4h.7c.1,0,.2.1.3.2,0,.1.1.3.1.4v.4h-.4v-.6c0,0-.2,0-.3,0h-.2v.5h-.3v-.5h-2.3v-.4h-.2Z"/>
  <path class="cls-12" d="M41.4,133.3v-.4h3.6v.4h-1.3c.2.2.3.4.3.7v.5c0,.1-.2.3-.3.4-.1,0-.3.2-.4.2h-.5c-.4,0-.8-.1-1-.3s-.4-.5-.4-.8.1-.5.4-.7h-.3M42.8,133.3c-.3,0-.5,0-.7.1s-.3.3-.3.6,0,.4.2.5.4.2.7.2.6,0,.7-.2c.2-.1.2-.3.2-.5s0-.4-.3-.5c-.2-.1-.4-.2-.7-.2h.2Z"/>
  <path class="cls-12" d="M41.4,136.1v-.4h3.6v.4h-1.3c.2.2.3.4.3.7v.5c0,.1-.2.3-.3.4-.1,0-.3.2-.4.2h-.5c-.4,0-.8-.1-1-.3s-.4-.5-.4-.8.1-.5.4-.7h-.3M42.8,136.1c-.3,0-.5,0-.7.1s-.3.3-.3.6,0,.4.2.5.4.2.7.2.6,0,.7-.2c.2-.1.2-.3.2-.5s0-.4-.3-.5c-.2-.1-.4-.2-.7-.2h.2Z"/>
  <line class="cls-5" x1="46.6" y1="120.5" x2="46.6" y2="120.7"/>
  <path class="cls-12" d="M46.1,126.2v.5c-.3,0-.5-.2-.7-.4-.1-.2-.2-.4-.2-.7s.1-.7.3-.9c.2-.2.6-.3,1-.3s.8.1,1,.3c.2.2.4.5.4.9s-.1.6-.4.8c-.2.2-.6.3-1,.3s0,0-.1,0v-1.9c-.3,0-.5,0-.7.2-.2.1-.2.3-.2.5s0,.3.1.4c0,.1.2.2.4.3M46.8,124.8v1.4c.2,0,.4,0,.5-.2.2-.1.3-.3.3-.5s0-.4-.2-.5c-.1-.1-.3-.2-.5-.2h-.1Z"/>
  <path class="cls-12" d="M45.3,127.3h2.6v.4h-.4c.3.2.4.5.4.8v.4c0,.1-.1.2-.2.3,0,0-.2.1-.3.1h-2v-.4h2s.2,0,.2-.2v-.3c0-.2,0-.3-.2-.5-.1-.1-.3-.2-.7-.2h-1.4v-.4h0Z"/>
  <path class="cls-12" d="M45.3,131.5v-.4h2.8c-.1-.1-.2-.2-.3-.4-.1-.2-.2-.3-.2-.5h.4c.1.2.3.5.4.6.2.2.3.3.5.4v.3h-3.6,0Z"/>
  <path class="cls-12" d="M45.6,134.5c-.1-.2-.2-.3-.3-.5v-.5c0-.3,0-.5.2-.7s.3-.2.5-.2h.3c.1,0,.2.1.3.2,0,0,.1.2.1.3v.4c0,.4,0,.6.2.8h.1c.2,0,.3,0,.4-.1.1-.1.1-.3.1-.5s0-.4-.1-.5c0,0-.2-.2-.4-.2v-.4c.2,0,.4.1.5.2.1,0,.2.2.3.4v1.1c0,.1-.1.2-.2.3,0,0-.2.1-.3.1h-1.8c-.1,0-.2,0-.3.1v-.5h.3M46.6,134.5c0-.2-.1-.4-.2-.7v-.4s0-.1-.1-.2h-.2c-.1,0-.2,0-.3.1,0,0-.1.2-.1.4s0,.3.1.5c0,.1.2.2.3.3h.6,0Z"/>
  <line class="cls-5" x1="50.4" y1="120.5" x2="50.4" y2="120.7"/>
  <path class="cls-12" d="M49.1,124.4h2.6v.4h-.4c.2.1.3.2.4.3v.3c0,.1,0,.3-.1.5l-.4-.2v-.6s-.1-.1-.2-.2h-1.9v-.4h0Z"/>
  <path class="cls-12" d="M50.4,126c.5,0,.8.1,1.1.4.2.2.3.5.3.8s-.1.6-.4.9c-.2.2-.6.3-1,.3s-.6,0-.8-.2c-.2-.1-.3-.2-.4-.4s-.2-.4-.2-.6c0-.4.1-.7.3-.9.2-.2.6-.3,1-.3M50.4,126.4c-.3,0-.6,0-.7.2-.2.1-.2.3-.2.5s0,.4.2.5.4.2.8.2.6,0,.7-.2c.2-.1.2-.3.2-.5s0-.4-.2-.5-.4-.2-.7-.2h-.1Z"/>
  <path class="cls-12" d="M49.1,129h2.6v.4h-.4c.2.1.3.2.4.3v.3c0,.1,0,.3-.1.5l-.4-.2v-.6s-.1-.1-.2-.2h-1.9v-.4h0Z"/>
  <path class="cls-12" d="M50.1,132.4v.4c-.4,0-.6-.2-.8-.4-.2-.2-.3-.4-.3-.7s.1-.6.3-.9c.2-.2.6-.3,1-.3s.5,0,.7.1c.2,0,.4.2.5.4.1.2.2.4.2.6s0,.5-.2.7c-.1.2-.3.3-.6.3v-.4c.1,0,.2-.1.3-.2,0-.1.1-.2.1-.4s0-.4-.2-.5-.4-.2-.8-.2-.6,0-.8.2c-.2.1-.2.3-.2.5s0,.3.2.4c.1.1.3.2.5.2h0v.2Z"/>
  <line class="cls-5" x1="54.2" y1="120.5" x2="54.2" y2="120.7"/>
  <path class="cls-12" d="M53,124.5h2.6v.4h-.4c.3.2.4.5.4.8v.4c0,.1-.1.2-.2.3,0,0-.2.1-.3.1h-2v-.4h2s.2,0,.2-.2v-.3c0-.2,0-.3-.2-.5-.1-.1-.3-.2-.7-.2h-1.4v-.4h0Z"/>
  <path class="cls-12" d="M53,127.4h2.3v-.4h.3v.4h.7c.1,0,.2.1.3.2,0,.1.1.3.1.4v.4h-.4v-.6h-.5v.5h-.3v-.5h-2.3v-.4h-.2Z"/>
  <path class="cls-12" d="M53.3,130.5c-.1-.2-.2-.3-.3-.5v-.5c0-.3,0-.5.2-.7s.3-.2.5-.2h.3c.1,0,.2.1.3.2,0,0,.1.2.1.3v.4c0,.4,0,.6.2.8h.1c.2,0,.3,0,.4-.1.1-.1.1-.3.1-.5s0-.4-.1-.5c0,0-.2-.2-.4-.2v-.4c.2,0,.4.1.5.2.1,0,.2.2.3.4v1.1c0,.1-.1.2-.2.3,0,0-.2.1-.3.1h-1.8c-.1,0-.2,0-.3.1v-.5h.3M54.3,130.4c0-.2-.1-.4-.2-.7v-.4s0-.1-.1-.2h-.2c-.1,0-.2,0-.3.1,0,0-.1.2-.1.4s0,.3.1.5c0,.1.2.2.3.3h.6,0Z"/>
  <path class="cls-12" d="M53.4,132.4h-.4v-.7c0-.1.1-.1.2-.2h2v-.3h.3v.3h.6l.3.4h-.9v.4h-.3v-.4h-1.7v.4h-.1Z"/>
  <path class="cls-12" d="M53.9,134.5v.4c-.4,0-.6-.2-.8-.4-.2-.2-.3-.4-.3-.7s.1-.6.3-.9c.2-.2.6-.3,1-.3s.5,0,.7.1c.2,0,.4.2.5.4.1.2.2.4.2.6s0,.5-.2.7c-.1.2-.3.3-.6.3v-.4c.1,0,.2-.1.3-.2,0-.1.1-.2.1-.4s0-.4-.2-.5-.4-.2-.8-.2-.6,0-.8.2c-.2.1-.2.3-.2.5s0,.3.2.4c.1.1.3.2.5.2h0v.2Z"/>
  <path class="cls-12" d="M53.4,137.4h-.4v-2.4h.3c.2,0,.3.2.5.3.2.1.3.3.5.6.3.4.6.7.8.8.2.1.4.2.5.2s.3,0,.4-.2c.1-.1.2-.3.2-.5s0-.4-.2-.5-.3-.2-.5-.2v-.5c.4,0,.6.1.8.3.2.2.3.5.3.8s0,.6-.3.8-.4.3-.7.3h-.4c0,0-.3-.2-.4-.3-.2-.1-.4-.4-.6-.7-.2-.3-.4-.4-.5-.5,0,0-.2-.1-.2-.2v1.8h-.1Z"/>
  <path class="cls-12" d="M53,138.5v-.4h3.6v.4h-1.3c.2.2.3.4.3.7v.5c0,.1-.2.3-.3.4-.1,0-.3.2-.4.2h-.5c-.4,0-.8-.1-1-.3s-.4-.5-.4-.8.1-.5.4-.7h-.3M54.3,138.5c-.3,0-.5,0-.7.1s-.3.3-.3.6,0,.4.2.5.4.2.7.2.6,0,.7-.2c.2-.1.2-.3.2-.5s0-.4-.3-.5c-.2-.1-.4-.2-.7-.2h.2Z"/>
  <line class="cls-5" x1="58" y1="120.5" x2="58" y2="120.7"/>
  <path class="cls-12" d="M57.2,125.4h-.4v-.7c0-.1.1-.1.2-.2h2v-.3h.3v.3h.6l.3.4h-.9v.4h-.3v-.4h-1.7v.4h-.1Z"/>
  <path class="cls-12" d="M56.8,126.3v-.4h3.6v.4h-1.3c.2.2.3.4.3.7v.5c0,.1-.2.3-.3.4-.1,0-.3.2-.4.2h-.5c-.4,0-.8-.1-1-.3s-.4-.5-.4-.8.1-.5.4-.7h-.3M58.1,126.3c-.3,0-.5,0-.7.1s-.3.3-.3.6,0,.4.2.5.4.2.7.2.6,0,.7-.2c.2-.1.2-.3.2-.5s0-.4-.3-.5c-.2-.1-.4-.2-.7-.2h.2Z"/>
  <path class="cls-12" d="M56.8,128.5l1.3.9,1.2-.9v.5l-.6.4c-.1,0-.2.1-.3.2.1,0,.2.1.3.2l.6.4v.5l-1.2-.9-1.4,1v-.5l.8-.5h.2c0-.1-1-.8-1-.8v-.5h0Z"/>
  <path class="cls-12" d="M57.2,133.4h-.4v-2.4h.3c.2,0,.3.2.5.3.2.1.3.3.5.6.3.4.6.7.8.8.2.1.4.2.5.2s.3,0,.4-.2c.1-.1.2-.3.2-.5s0-.4-.2-.5c-.1-.1-.3-.2-.5-.2v-.5c.4,0,.6.1.8.3.2.2.3.5.3.8s0,.6-.3.8c-.2.2-.4.3-.7.3h-.4c0,0-.3-.2-.4-.3-.2-.1-.4-.4-.6-.7-.2-.3-.4-.4-.5-.5,0,0-.2-.1-.2-.2v1.8h-.1Z"/>
  <path class="cls-12" d="M56.8,135.6v-.4h2.8c-.1-.1-.2-.2-.3-.4-.1-.2-.2-.3-.2-.5h.4c.1.2.3.5.4.6.2.2.3.3.5.4v.3h-3.6,0Z"/>
  <line class="cls-5" x1="61.9" y1="120.5" x2="61.9" y2="120.7"/>
  <path class="cls-12" d="M59.6,124.5h3.6v.4h-.3c.1,0,.2.2.3.3,0,.1.1.3.1.4s0,.4-.2.6c-.1.2-.3.3-.5.4-.2,0-.4.1-.7.1s-.5,0-.7-.1-.4-.2-.5-.4c-.1-.2-.2-.4-.2-.6v-.4c0-.1.1-.2.2-.3h-1.3v-.4M61.9,124.8c-.3,0-.6,0-.7.2-.2.1-.2.3-.2.5s0,.4.2.5.4.2.8.2.6,0,.7-.2c.2-.1.2-.3.2-.5s0-.4-.3-.5c-.2-.1-.4-.2-.8-.2h.1Z"/>
  <path class="cls-12" d="M60.6,127.3h3.6v.4h-1.3c.2.2.4.5.4.8s0,.4-.1.5c0,.1-.2.2-.3.3h-2.2v-.4h1.6c.2,0,.4,0,.5-.1.1,0,.2-.2.2-.4s0-.3-.1-.4c0-.1-.2-.2-.3-.2h-1.9v-.4h0Z"/>
  <path class="cls-12" d="M61.9,129.8c.5,0,.8.1,1.1.4.2.2.3.5.3.8s-.1.6-.4.9c-.2.2-.6.3-1,.3s-.6,0-.8-.2c-.2-.1-.3-.2-.4-.4s-.2-.4-.2-.6c0-.4.1-.7.3-.9.2-.2.6-.3,1-.3M61.9,130.3c-.3,0-.6,0-.7.2-.2.1-.2.3-.2.5s0,.4.2.5.4.2.8.2.6,0,.7-.2c.2-.1.2-.3.2-.5s0-.4-.2-.5-.4-.2-.7-.2h-.1Z"/>
  <path class="cls-12" d="M60.6,132.6l1.3.9,1.2-.9v.5l-.6.4c-.1,0-.2.1-.3.2.1,0,.2.1.3.2l.6.4v.5l-1.2-.9-1.4,1v-.5l.8-.5h.2c0-.1-1-.8-1-.8v-.5h0Z"/>
  <path class="cls-12" d="M61.1,137.4h-.4v-2.4h.3c.2,0,.3.2.5.3.2.1.3.3.5.6.3.4.6.7.8.8.2.1.4.2.5.2s.3,0,.4-.2c.1-.1.2-.3.2-.5s0-.4-.2-.5c-.1-.1-.3-.2-.5-.2v-.5c.4,0,.6.1.8.3s.3.5.3.8,0,.6-.3.8-.4.3-.7.3h-.4c0,0-.3-.2-.4-.3-.2-.1-.4-.4-.6-.7-.2-.3-.4-.4-.5-.5,0,0-.2-.1-.2-.2v1.8h0Z"/>
  <path class="cls-12" d="M61,139.8c-.1-.2-.2-.3-.3-.5v-.5c0-.3,0-.5.2-.7s.3-.2.5-.2h.3c.1,0,.2.1.3.2,0,0,.1.2.1.3v.4c0,.4,0,.6.2.8h.1c.2,0,.3,0,.4-.1.1-.1.1-.3.1-.5s0-.4-.1-.5c0,0-.2-.2-.4-.2v-.4c.2,0,.4.1.5.2.1,0,.2.2.3.4v1.1c0,.1-.1.2-.2.3,0,0-.2.1-.3.1h-1.8c-.1,0-.2,0-.3.1v-.5h.3M61.9,139.8c0-.2-.1-.4-.2-.7v-.4s0-.1-.1-.2h-.2c-.1,0-.2,0-.3.1,0,0-.1.2-.1.4s0,.3.1.5c0,.1.2.2.3.3h.6,0Z"/>
  <line class="cls-5" x1="65.7" y1="120.5" x2="65.7" y2="120.7"/>
  <path class="cls-12" d="M63.2,124.5h3.6v.4h-.3c.1,0,.2.2.3.3,0,.1.1.3.1.4s0,.4-.2.6-.3.3-.5.4c-.2,0-.4.1-.7.1s-.5,0-.7-.1-.4-.2-.5-.4c-.1-.2-.2-.4-.2-.6v-.4c0-.1.1-.2.2-.3h-1.3v-.4M65.5,124.8c-.3,0-.6,0-.7.2-.2.1-.2.3-.2.5s0,.4.2.5.4.2.8.2.6,0,.7-.2c.2-.1.2-.3.2-.5s0-.4-.3-.5c-.2-.1-.4-.2-.8-.2h0Z"/>
  <path class="cls-12" d="M64.6,129c-.1-.2-.2-.3-.3-.5v-.5c0-.3,0-.5.2-.7s.3-.2.5-.2h.3c.1,0,.2.1.3.2,0,0,.1.2.1.3v.4c0,.4,0,.6.2.8h.1c.2,0,.3,0,.4-.1s.1-.3.1-.5,0-.4-.1-.5c0,0-.2-.2-.4-.2v-.4c.2,0,.4.1.5.2.1,0,.2.2.3.4s0,.4,0,.6v.5c0,.1-.1.2-.2.3,0,0-.2.1-.3.1h-1.8c-.1,0-.2,0-.3.1v-.5h.3M65.5,129c0-.2-.1-.4-.2-.7v-.4s0-.1-.1-.2h-.2c-.1,0-.2,0-.3.1,0,0-.1.2-.1.4s0,.3.1.5c0,.1.2.2.3.3h.6,0Z"/>
  <path class="cls-12" d="M64.2,129.7l1.3.9,1.2-.9v.5l-.6.4c-.1,0-.2.1-.3.2.1,0,.2.1.3.2l.6.4v.5l-1.2-.9-1.4,1v-.5l.8-.5h.2c0-.1-1-.8-1-.8v-.5h.1Z"/>
  <path class="cls-12" d="M64.2,134.1v-.4h2.8c-.1-.1-.2-.2-.3-.4-.1-.2-.2-.3-.2-.5h.4c.1.2.3.5.4.6s.3.3.5.4v.3h-3.6,0Z"/>
  <path class="cls-12" d="M64.6,136.9c-.1-.2-.2-.3-.3-.5v-.5c0-.3,0-.5.2-.7s.3-.2.5-.2h.3c.1,0,.2.1.3.2,0,0,.1.2.1.3v.4c0,.4,0,.6.2.8h.1c.2,0,.3,0,.4-.1s.1-.3.1-.5,0-.4-.1-.5c0,0-.2-.2-.4-.2v-.4c.2,0,.4.1.5.2.1,0,.2.2.3.4s0,.4,0,.6v.5c0,.1-.1.2-.2.3,0,0-.2.1-.3.1h-1.8c-.1,0-.2,0-.3.1v-.5h.3M65.5,136.9c0-.2-.1-.4-.2-.7v-.4q0-.1-.1-.2h-.2c-.1,0-.2,0-.3.1,0,0-.1.2-.1.4s0,.3.1.5c0,.1.2.2.3.3h.6,0Z"/>
  <line class="cls-5" x1="69.5" y1="120.5" x2="69.5" y2="120.7"/>
  <path class="cls-12" d="M68.1,124.4h2.6v.4h-.4c.2.1.3.2.4.3v.3c0,.1,0,.3-.1.5l-.4-.2v-.6l-.2-.2h-1.9v-.4h0Z"/>
  <path class="cls-12" d="M68.1,127.8h.4c-.3-.2-.4-.5-.4-.8v-.4c0-.1.1-.2.2-.3,0,0,.2-.1.3-.1h2v.4h-1.9c-.1,0-.2,0-.3.2v.3c0,0,0,.3.1.4,0,.1.2.2.3.2h1.9v.4h-2.6v-.4h0Z"/>
  <path class="cls-12" d="M68.1,129h2.6v.4h-.4c.3.2.4.5.4.8v.4c0,.1-.1.2-.2.3,0,0-.2.1-.3.1h-2v-.4h2s.2,0,.2-.2v-.3c0-.2,0-.3-.2-.5s-.3-.2-.7-.2h-1.4v-.4h0Z"/>
  <path class="cls-12" d="M68.1,131.4l1.3.9,1.2-.9v.5l-.6.4c-.1,0-.2.1-.3.2.1,0,.2.1.3.2l.6.4v.5l-1.2-.9-1.4,1v-.5l.8-.5h.2c0-.1-1-.8-1-.8v-.5h.1Z"/>
  <path class="cls-12" d="M69,134.2v.4c-.2,0-.4.1-.5.3-.1.1-.2.3-.2.4s0,.4.2.5c.1.1.3.2.5.2s.4,0,.5-.2c.1-.1.2-.3.2-.5v-.3h.4c0,.3,0,.5.1.6,0,.1.2.2.5.2s.3,0,.4-.2c.1-.1.2-.2.2-.4s0-.3-.2-.4c-.1-.1-.3-.2-.5-.2v-.4c.4,0,.6.2.8.4s.2.4.2.7,0,.4-.1.5c0,.2-.2.3-.3.4-.1,0-.3.1-.5.1s-.3,0-.4-.1c-.1,0-.2-.2-.3-.4,0,.2-.2.4-.3.5s-.3.2-.6.2-.6-.1-.8-.3-.3-.5-.3-.9,0-.6.3-.8c.2-.2.4-.3.7-.4h0Z"/>
  <line class="cls-5" x1="73.3" y1="120.5" x2="73.3" y2="120.7"/>
  <path class="cls-12" d="M71.7,124.4v.4c-.2,0-.3,0-.4.1,0,.1-.1.3-.1.4s0,.4.1.5.2.2.3.2h.6c-.2-.2-.3-.4-.3-.7s.1-.6.4-.8c.3-.2.6-.3.9-.3s.5,0,.7.1c.2,0,.4.2.5.4.1.2.2.4.2.6s-.1.6-.4.8h.3v.4h-2.2c-.4,0-.7,0-.9-.1-.2,0-.3-.2-.4-.4,0-.2-.1-.4-.1-.7s0-.6.2-.7.3-.3.6-.3M73.3,124.7c-.3,0-.6,0-.7.2-.2.1-.2.3-.2.5s0,.4.2.5.4.2.7.2.6,0,.7-.2c.2-.1.2-.3.2-.5s0-.4-.2-.5-.4-.2-.7-.2h0Z"/>
  <path class="cls-12" d="M71.9,127.4h2.3v-.4h.3v.4h.7c.1,0,.2.1.3.2,0,.1.1.3.1.4v.4h-.4v-.6h-.5v.5h-.3v-.5h-2.3v-.4h-.2Z"/>
  <path class="cls-12" d="M75,128.8h.5v.4h-.5v-.4M71.9,128.8h2.6v.4h-2.6v-.4h0Z"/>
  <path class="cls-12" d="M71.9,131.3v-.4h2.8c-.1-.1-.2-.2-.3-.4-.1-.2-.2-.3-.2-.5h.4c.1.2.3.5.4.6.2.2.3.3.5.4v.3h-3.6,0Z"/>
  <path class="cls-12" d="M72.2,134.3c-.1-.2-.2-.3-.3-.5v-.5c0-.3,0-.5.2-.7s.3-.2.5-.2h.3c.1,0,.2.1.3.2,0,0,.1.2.1.3v.4c0,.4,0,.6.2.8h.1c.2,0,.3,0,.4-.1s.1-.3.1-.5,0-.4-.1-.5c0,0-.2-.2-.4-.2v-.4c.2,0,.4.1.5.2.1,0,.2.2.3.4v1.1c0,.1-.1.2-.2.3,0,0-.2.1-.3.1h-1.8c-.1,0-.2,0-.3.1v-.5h.3M73.2,134.3c0-.2-.1-.4-.2-.7v-.4s0-.1-.1-.2h-.2c-.1,0-.2,0-.3.1,0,0-.1.2-.1.4s0,.3.1.5c0,.1.2.2.3.3h.6,0Z"/>
  <path class="cls-12" d="M71.9,135.7v-.4h3.6v.4h-1.3c.2.2.3.4.3.7v.5c0,.1-.2.3-.3.4-.1,0-.3.2-.4.2h-.5c-.4,0-.8-.1-1-.3s-.4-.5-.4-.8.1-.5.4-.7h-.3M73.2,135.7c-.3,0-.5,0-.7.1s-.3.3-.3.6,0,.4.2.5.4.2.7.2.6,0,.7-.2.2-.3.2-.5,0-.4-.3-.5c-.2-.1-.4-.2-.7-.2h.2Z"/>
  <line class="cls-5" x1="77.1" y1="120.5" x2="77.1" y2="120.7"/>
  <path class="cls-12" d="M76.6,126.2v.5c-.3,0-.5-.2-.7-.4-.1-.2-.2-.4-.2-.7s.1-.7.3-.9.6-.3,1-.3.8.1,1,.3c.2.2.4.5.4.9s-.1.6-.4.8c-.2.2-.6.3-1,.3s0,0-.1,0v-1.9c-.3,0-.5,0-.7.2-.2.1-.2.3-.2.5s0,.3.1.4c0,.1.2.2.4.3M77.3,124.8v1.4c.2,0,.4,0,.5-.2.2-.1.3-.3.3-.5s0-.4-.2-.5c-.1-.1-.3-.2-.5-.2h0Z"/>
  <polygon class="cls-12" points="75.8 127.3 79.3 127.3 79.3 127.8 75.8 127.8 75.8 127.3 75.8 127.3"/>
  <path class="cls-12" d="M75.8,128.4h2.3v-.4h.3v.4h.7c.1,0,.2.1.3.2,0,.1.1.3.1.4v.4h-.4v-.6h-.5v.5h-.3v-.5h-2.3v-.4h-.2Z"/>
  <path class="cls-12" d="M76.7,129.6v.4c-.2,0-.4.1-.5.3-.1.1-.2.3-.2.4s0,.4.2.5c.1.1.3.2.5.2s.4,0,.5-.2c.1-.1.2-.3.2-.5v-.3h.4c0,.3,0,.5.1.6,0,.1.2.2.5.2s.3,0,.4-.2c.1-.1.2-.2.2-.4s0-.3-.2-.4c-.1-.1-.3-.2-.5-.2v-.4c.4,0,.6.2.8.4s.2.4.2.7,0,.4-.1.5c0,.2-.2.3-.3.4-.1,0-.3.1-.5.1s-.3,0-.4-.1c-.1,0-.2-.2-.3-.4,0,.2-.2.4-.3.5s-.3.2-.6.2-.6-.1-.8-.3-.3-.5-.3-.9,0-.6.3-.8c.2-.2.4-.3.7-.4h0Z"/>
  <line class="cls-5" x1="80.9" y1="120.5" x2="80.9" y2="120.7"/>
  <path class="cls-12" d="M79.6,124.6h2.3v-.4h.3v.4h.7c.1,0,.2.1.3.2,0,.1.1.3.1.4v.4h-.4v-.6h-.5v.5h-.3v-.5h-2.3v-.4h-.2Z"/>
  <path class="cls-12" d="M80.9,125.7c.5,0,.8.1,1.1.4.2.2.3.5.3.8s-.1.6-.4.9-.6.3-1,.3-.6,0-.8-.2c-.2-.1-.3-.2-.4-.4-.1-.2-.2-.4-.2-.6,0-.4.1-.7.3-.9s.6-.3,1-.3M80.9,126.2c-.3,0-.6,0-.7.2-.2.1-.2.3-.2.5s0,.4.2.5.4.2.8.2.6,0,.7-.2c.2-.1.2-.3.2-.5s0-.4-.2-.5-.4-.2-.7-.2h0Z"/>
  <path class="cls-12" d="M79.6,128.5l1.3.9,1.2-.9v.5l-.6.4c-.1,0-.2.1-.3.2.1,0,.2.1.3.2l.6.4v.5l-1.2-.9-1.4,1v-.5l.8-.5h.2c0-.1-1-.8-1-.8v-.5h.1Z"/>
  <path class="cls-12" d="M78.6,131.2h3.6v.4h-.3c.1,0,.2.2.3.3,0,.1.1.3.1.4s0,.4-.2.6-.3.3-.5.4c-.2,0-.4.1-.7.1s-.5,0-.7-.1-.4-.2-.5-.4c-.1-.2-.2-.4-.2-.6v-.4c0-.1.1-.2.2-.3h-1.3v-.4M80.9,131.6c-.3,0-.6,0-.7.2-.2.1-.2.3-.2.5s0,.4.2.5.4.2.8.2.6,0,.7-.2c.2-.1.2-.3.2-.5s0-.4-.3-.5c-.2-.1-.4-.2-.8-.2h0Z"/>
  <path class="cls-12" d="M80.5,133.9v.4c-.2,0-.4.1-.5.3-.1.1-.2.3-.2.4s0,.4.2.5c.1.1.3.2.5.2s.4,0,.5-.2c.1-.1.2-.3.2-.5v-.3h.4c0,.3,0,.5.1.6,0,.1.2.2.5.2s.3,0,.4-.2.2-.2.2-.4,0-.3-.2-.4c-.1-.1-.3-.2-.5-.2v-.4c.4,0,.6.2.8.4s.2.4.2.7,0,.4-.1.5c0,.2-.2.3-.3.4-.1,0-.3.1-.5.1s-.3,0-.4-.1c-.1,0-.2-.2-.3-.4,0,.2-.2.4-.3.5s-.3.2-.6.2-.6-.1-.8-.3-.3-.5-.3-.9,0-.6.3-.8c.2-.2.4-.3.7-.4h0Z"/>
  <path class="cls-12" d="M79.9,138.4c-.1-.2-.2-.3-.3-.5v-.5c0-.3,0-.5.2-.7s.3-.2.5-.2h.3c.1,0,.2.1.3.2,0,0,.1.2.1.3v.4c0,.4,0,.6.2.8h.1c.2,0,.3,0,.4-.1s.1-.3.1-.5,0-.4-.1-.5c0,0-.2-.2-.4-.2v-.4c.2,0,.4.1.5.2.1,0,.2.2.3.4s0,.4,0,.6v.5c0,.1-.1.2-.2.3,0,0-.2.1-.3.1h-1.8c-.1,0-.2,0-.3.1v-.5h.3M80.9,138.3c0-.2-.1-.4-.2-.7v-.4s0-.1-.1-.2h-.2c-.1,0-.2,0-.3.1,0,0-.1.2-.1.4s0,.3.1.5c0,.1.2.2.3.3h.6,0Z"/>
  <line class="cls-5" x1="84.7" y1="120.5" x2="84.7" y2="120.7"/>
  <path class="cls-12" d="M83.4,124.6h2.3v-.4h.3v.4h.7c.1,0,.2.1.3.2,0,.1.1.3.1.4v.4h-.4v-.6h-.5v.5h-.3v-.5h-2.3v-.4h-.2Z"/>
  <path class="cls-12" d="M84.7,125.7c.5,0,.8.1,1.1.4.2.2.3.5.3.8s-.1.6-.4.9-.6.3-1,.3-.6,0-.8-.2c-.2-.1-.3-.2-.4-.4-.1-.2-.2-.4-.2-.6,0-.4.1-.7.3-.9s.6-.3,1-.3M84.7,126.2c-.3,0-.6,0-.7.2-.2.1-.2.3-.2.5s0,.4.2.5.4.2.8.2.6,0,.7-.2c.2-.1.2-.3.2-.5s0-.4-.2-.5-.4-.2-.7-.2h0Z"/>
  <path class="cls-12" d="M83.4,128.5l1.3.9,1.2-.9v.5l-.6.4c-.1,0-.2.1-.3.2.1,0,.2.1.3.2l.6.4v.5l-1.2-.9-1.4,1v-.5l.8-.5h.2c0-.1-1-.8-1-.8v-.5h.1Z"/>
  <path class="cls-12" d="M86.5,131.2h.5v.4h-.5v-.4M83.4,131.2h2.6v.4h-2.6v-.4h0Z"/>
  <path class="cls-12" d="M84.4,132.3v.4c-.2,0-.4.1-.5.3-.1.1-.2.3-.2.4s0,.4.2.5c.1.1.3.2.5.2s.4,0,.5-.2c.1-.1.2-.3.2-.5v-.3h.4c0,.3,0,.5.1.6,0,.1.2.2.5.2s.3,0,.4-.2c.1-.1.2-.2.2-.4s0-.3-.2-.4c-.1-.1-.3-.2-.5-.2v-.4c.4,0,.6.2.8.4s.2.4.2.7,0,.4-.1.5c0,.2-.2.3-.3.4-.1,0-.3.1-.5.1s-.3,0-.4-.1c-.1,0-.2-.2-.3-.4,0,.2-.2.4-.3.5s-.3.2-.6.2-.6-.1-.8-.3-.3-.5-.3-.9,0-.6.3-.8c.2-.2.4-.3.7-.4h0Z"/>
  <path class="cls-12" d="M83.4,135.4v-.4h3.6v.4h-1.3c.2.2.3.4.3.7v.5c0,.1-.2.3-.3.4-.1,0-.3.2-.4.2h-.5c-.4,0-.8-.1-1-.3s-.4-.5-.4-.8.1-.5.4-.7h-.3M84.8,135.4c-.3,0-.5,0-.7.1s-.3.3-.3.6,0,.4.2.5.4.2.7.2.6,0,.7-.2c.2-.1.2-.3.2-.5s0-.4-.3-.5c-.2-.1-.4-.2-.7-.2h.2Z"/>
  <line class="cls-5" x1="88.5" y1="120.5" x2="88.5" y2="120.7"/>
  <path class="cls-12" d="M87.3,124.5h2.6v.4h-.4c.3.2.4.5.4.8v.4c0,.1-.1.2-.2.3,0,0-.2.1-.3.1h-2v-.4h2s.2,0,.2-.2v-.3c0-.2,0-.3-.2-.5s-.3-.2-.7-.2h-1.4v-.4h0Z"/>
  <path class="cls-12" d="M87.3,127.3h2.6v.4h-.4c.2.1.3.2.4.3v.3c0,.1,0,.3-.1.5l-.4-.2v-.6l-.2-.2h-1.9v-.4h0Z"/>
  <path class="cls-12" d="M87.3,130.5v-.4h2.8c-.1-.1-.2-.2-.3-.4-.1-.2-.2-.3-.2-.5h.4c.1.2.3.5.4.6.2.2.3.3.5.4v.3h-3.6,0Z"/>
  <path class="cls-12" d="M87.3,133.3h.3c-.3-.2-.4-.4-.4-.7s0-.4.2-.6c.1-.2.3-.3.5-.4.2,0,.4-.1.7-.1s.5,0,.7.1c.2,0,.4.2.5.4.1.2.2.4.2.6s0,.3-.1.4l-.3.3h1.3v.4h-3.6v-.4M88.6,131.9c-.3,0-.6,0-.7.2-.2.1-.2.3-.2.5s0,.4.2.5.4.2.7.2.6,0,.8-.2c.2-.1.2-.3.2-.5s0-.4-.2-.5-.4-.2-.8-.2h0Z"/>
  <path class="cls-12" d="M87.3,135.8h.9v-1.6h.4l2.3,1.6v.4h-2.3v.5h-.4v-.5h-.9v-.4M88.5,135.8h1.6l-1.6-1.1v1.1h0Z"/>
  <path class="cls-12" d="M87.6,138.9c-.1-.2-.2-.3-.3-.5v-.5c0-.3,0-.5.2-.7s.3-.2.5-.2h.3c.1,0,.2.1.3.2,0,0,.1.2.1.3v.4c0,.4,0,.6.2.8h.1c.2,0,.3,0,.4-.1s.1-.3.1-.5,0-.4-.1-.5c0,0-.2-.2-.4-.2v-.4c.2,0,.4.1.5.2.1,0,.2.2.3.4v1.1c0,.1-.1.2-.2.3,0,0-.2.1-.3.1h-1.8c-.1,0-.2,0-.3.1v-.5h.3M88.6,138.8c0-.2-.1-.4-.2-.7v-.4s0-.1-.1-.2h-.2c-.1,0-.2,0-.3.1,0,0-.1.2-.1.4s0,.3.1.5c0,.1.2.2.3.3h.6,0Z"/>
  <line class="cls-5" x1="92.3" y1="120.5" x2="92.3" y2="120.7"/>
  <path class="cls-12" d="M90.9,124.6h2.3v-.4h.3v.4h.7c.1,0,.2.1.3.2,0,.1.1.3.1.4v.4h-.4v-.6h-.5v.5h-.3v-.5h-2.3v-.4h-.2Z"/>
  <path class="cls-12" d="M92.2,125.7c.5,0,.8.1,1.1.4.2.2.3.5.3.8s-.1.6-.4.9-.6.3-1,.3-.6,0-.8-.2c-.2-.1-.3-.2-.4-.4-.1-.2-.2-.4-.2-.6,0-.4.1-.7.3-.9s.6-.3,1-.3M92.2,126.2c-.3,0-.6,0-.7.2-.2.1-.2.3-.2.5s0,.4.2.5.4.2.8.2.6,0,.7-.2c.2-.1.2-.3.2-.5s0-.4-.2-.5-.4-.2-.7-.2h0Z"/>
  <path class="cls-12" d="M90.9,128.5l1.3.9,1.2-.9v.5l-.6.4c-.1,0-.2.1-.3.2.1,0,.2.1.3.2l.6.4v.5l-1.2-.9-1.4,1v-.5l.8-.5h.2c0-.1-1-.8-1-.8v-.5h.1Z"/>
  <path class="cls-12" d="M90.9,132.9h.3c-.3-.2-.4-.4-.4-.7s0-.4.2-.6c.1-.2.3-.3.5-.4.2,0,.4-.1.7-.1s.5,0,.7.1c.2,0,.4.2.5.4.1.2.2.4.2.6s0,.3-.1.4c0,.1-.2.2-.3.3h1.3v.4h-3.6v-.4M92.2,131.5c-.3,0-.6,0-.7.2s-.2.3-.2.5,0,.4.2.5.4.2.7.2.6,0,.8-.2c.2-.1.2-.3.2-.5s0-.4-.2-.5-.4-.2-.8-.2h0Z"/>
  <path class="cls-12" d="M91.8,133.9v.4c-.2,0-.4.1-.5.3-.1.1-.2.3-.2.4s0,.4.2.5c.1.1.3.2.5.2s.4,0,.5-.2c.1-.1.2-.3.2-.5v-.3h.4c0,.3,0,.5.1.6,0,.1.2.2.5.2s.3,0,.4-.2.2-.2.2-.4,0-.3-.2-.4c-.1-.1-.3-.2-.5-.2v-.4c.4,0,.6.2.8.4s.2.4.2.7,0,.4-.1.5c0,.2-.2.3-.3.4-.1,0-.3.1-.5.1s-.3,0-.4-.1c-.1,0-.2-.2-.3-.4,0,.2-.2.4-.3.5s-.3.2-.6.2-.6-.1-.8-.3-.3-.5-.3-.9,0-.6.3-.8c.2-.2.4-.3.7-.4h0Z"/>
  <line class="cls-5" x1="96.1" y1="120.5" x2="96.1" y2="120.7"/>
  <path class="cls-12" d="M97.8,124.5h.5v.4h-.5v-.4M94.7,124.5h2.6v.4h-2.6v-.4h0Z"/>
  <path class="cls-12" d="M94.7,125.6h2.6v.4h-.4c.2.1.3.2.4.3s0,.2,0,.3,0,.3-.1.5l-.4-.2v-.6l-.2-.2h-1.9v-.4h0Z"/>
  <path class="cls-12" d="M94.7,127l1.3.9,1.2-.9v.5l-.6.4c-.1,0-.2.1-.3.2.1,0,.2.1.3.2l.6.4v.5l-1.2-.9-1.4,1v-.5l.8-.5h.2c0-.1-1-.8-1-.8v-.5h.1Z"/>
  <path class="cls-12" d="M94.7,131.3v-.4h2.8c-.1-.1-.2-.2-.3-.4-.1-.2-.2-.3-.2-.5h.4c.1.2.3.5.4.6.2.2.3.3.5.4v.3h-3.6,0Z"/>
  <path class="cls-12" d="M94.7,133v-.4h3.6v.4h-1.3c.2.2.3.4.3.7v.5c0,.1-.2.3-.3.4-.1,0-.3.2-.4.2h-.5c-.4,0-.8-.1-1-.3s-.4-.5-.4-.8.1-.5.4-.7h-.3M96,133c-.3,0-.5,0-.7.1s-.3.3-.3.6,0,.4.2.5.4.2.7.2.6,0,.7-.2c.2-.1.2-.3.2-.5s0-.4-.3-.5c-.2-.1-.4-.2-.7-.2h.2Z"/>
  <line class="cls-5" x1="99.9" y1="120.5" x2="99.9" y2="120.7"/>
  <path class="cls-12" d="M101.6,124.5h.5v.4h-.5v-.4M98.6,124.5h2.6v.4h-2.6v-.4h0Z"/>
  <path class="cls-12" d="M98.6,125.6h2.6v.4h-.4c.2.1.3.2.4.3s0,.2,0,.3,0,.3-.1.5l-.4-.2v-.6l-.2-.2h-1.9v-.4h0Z"/>
  <path class="cls-12" d="M98.6,127l1.3.9,1.2-.9v.5l-.6.4c-.1,0-.2.1-.3.2.1,0,.2.1.3.2l.6.4v.5l-1.2-.9-1.4,1v-.5l.8-.5h.2c0-.1-1-.8-1-.8v-.5h.1Z"/>
  <path class="cls-12" d="M101.3,131.9v-.4c.1,0,.3,0,.3-.2.1-.1.2-.3.2-.4s0-.3-.1-.4-.2-.2-.4-.3c-.2,0-.5-.1-.8-.1.2.1.3.2.4.4,0,.2.1.3.1.5,0,.3-.1.5-.3.7-.2.2-.5.3-.8.3s-.4,0-.6-.1c-.2,0-.3-.2-.4-.4s-.2-.4-.2-.6c0-.4.1-.7.4-.9.3-.2.7-.3,1.3-.3s1.2.1,1.5.4c.3.2.4.5.4.9s0,.5-.2.7-.4.3-.7.3M99.7,130.1h-.4c-.1,0-.2.2-.3.3,0,.1-.1.2-.1.4s0,.3.2.5.4.2.6.2.4,0,.6-.2.2-.3.2-.5,0-.4-.2-.5c-.1-.1-.3-.2-.6-.2h0Z"/>
  <path class="cls-12" d="M98.9,134.3c-.1-.2-.2-.3-.3-.5v-.5c0-.3,0-.5.2-.7s.3-.2.5-.2h.3c.1,0,.2.1.3.2,0,0,.1.2.1.3v.4c0,.4,0,.6.2.8h.1c.2,0,.3,0,.4-.1s.1-.3.1-.5,0-.4-.1-.5c0,0-.2-.2-.4-.2v-.4c.2,0,.4.1.5.2.1,0,.2.2.3.4v1.1c0,.1-.1.2-.2.3,0,0-.2.1-.3.1h-1.8c-.1,0-.2,0-.3.1v-.5h.3M99.9,134.3c0-.2-.1-.4-.2-.7v-.4s0-.1-.1-.2h-.2c-.1,0-.2,0-.3.1,0,0-.1.2-.1.4s0,.3.1.5c0,.1.2.2.3.3h.6,0Z"/>
  <line class="cls-5" x1="103.7" y1="120.5" x2="103.7" y2="120.7"/>
  <path class="cls-12" d="M105.5,124.4h.5v.4h-.5v-.4M101.4,123.9h.4v.5h3.1v.4h-2.7c-.3,0-.5,0-.7-.1s-.2-.3-.2-.5v-.3h.1Z"/>
  <path class="cls-12" d="M102.4,127.3h.4c-.3-.2-.4-.5-.4-.8v-.4c0-.1.1-.2.2-.3,0,0,.2-.1.3-.1h2v.4h-1.9c-.1,0-.2,0-.3.2s0,.2,0,.3,0,.3.1.4c0,.1.2.2.3.2h1.9v.4h-2.6v-.4h0Z"/>
  <path class="cls-12" d="M102.4,128.3h2.6v.4h-.4c.3.2.4.5.4.8v.4c0,.1-.1.2-.2.3s-.2.1-.3.1h-2v-.4h2s.2,0,.2-.2v-.3c0-.2,0-.3-.2-.5s-.3-.2-.7-.2h-1.4v-.4h0Z"/>
  <line class="cls-5" x1="107.5" y1="120.5" x2="107.5" y2="120.7"/>
  <path class="cls-12" d="M106.2,124.6h2.3v-.4h.3v.4h.7c.1,0,.2.1.3.2,0,.1.1.3.1.4v.4h-.4v-.6h-.5v.5h-.3v-.5h-2.3v-.4h-.2Z"/>
  <path class="cls-12" d="M107.5,125.7c.5,0,.8.1,1.1.4.2.2.3.5.3.8s-.1.6-.4.9-.6.3-1,.3-.6,0-.8-.2c-.2-.1-.3-.2-.4-.4-.1-.2-.2-.4-.2-.6,0-.4.1-.7.3-.9s.6-.3,1-.3M107.5,126.2c-.3,0-.6,0-.7.2-.2.1-.2.3-.2.5s0,.4.2.5.4.2.8.2.6,0,.7-.2c.2-.1.2-.3.2-.5s0-.4-.2-.5-.4-.2-.7-.2h0Z"/>
  <path class="cls-12" d="M107,128.6v.4c-.1,0-.2,0-.3.2,0,.1-.1.3-.1.5s0,.4.1.4c0,0,.2.1.3.1s.2,0,.2-.1c0,0,0-.2.1-.4,0-.3.2-.5.2-.7s.1-.2.2-.3h.6c.1,0,.2.1.2.2,0,0,0,.2.1.3v.9c0,.1-.1.3-.2.3s-.2.1-.4.2v-.4s.2,0,.3-.2c0,0,.1-.2.1-.4s0-.3-.1-.4c0,0-.1-.1-.2-.1h-.2c-.1,0,0,0-.1.2,0,0,0,.2-.1.4,0,.3-.2.5-.2.6s-.1.2-.2.3c-.1,0-.2.1-.4.1s-.3,0-.4-.1c-.1,0-.2-.2-.3-.4s-.1-.3-.1-.5c0-.3,0-.6.2-.8.1-.2.3-.3.6-.3h.1Z"/>
  <polygon class="cls-12" points="106.2 131.2 109.8 131.2 109.8 131.6 106.2 131.6 106.2 131.2 106.2 131.2"/>
  <path class="cls-12" d="M106.2,133.9v-.4h2.8c-.1-.1-.2-.2-.3-.4-.1-.2-.2-.3-.2-.5h.4c.1.2.3.5.4.6s.3.3.5.4v.3h-3.6,0Z"/>
  <path class="cls-12" d="M106.6,136.7c-.1-.2-.2-.3-.3-.5v-.5c0-.3,0-.5.2-.7s.3-.2.5-.2h.3c.1,0,.2.1.3.2,0,0,.1.2.1.3v.4c0,.4,0,.6.2.8h.1c.2,0,.3,0,.4-.1s.1-.3.1-.5,0-.4-.1-.5c0,0-.2-.2-.4-.2v-.4c.2,0,.4.1.5.2.1,0,.2.2.3.4s0,.4,0,.6v.5c0,.1-.1.2-.2.3,0,0-.2.1-.3.1h-1.8c-.1,0-.2,0-.3.1v-.5h.3M107.5,136.7c0-.2-.1-.4-.2-.7v-.4s0-.1-.1-.2h-.2c-.1,0-.2,0-.3.1,0,0-.1.2-.1.4s0,.3.1.5c0,.1.2.2.3.3h.6,0Z"/>
  <line class="cls-5" x1="111.3" y1="120.5" x2="111.3" y2="120.7"/>
  <path class="cls-12" d="M110.9,126.2v.5c-.3,0-.5-.2-.7-.4-.1-.2-.2-.4-.2-.7s.1-.7.3-.9.6-.3,1-.3.8.1,1,.3c.2.2.4.5.4.9s-.1.6-.4.8c-.2.2-.6.3-1,.3s0,0-.1,0v-1.9c-.3,0-.5,0-.7.2-.2.1-.2.3-.2.5s0,.3.1.4c0,.1.2.2.4.3M111.6,124.8v1.4c.2,0,.4,0,.5-.2.2-.1.3-.3.3-.5s0-.4-.2-.5c-.1-.1-.3-.2-.5-.2h0Z"/>
  <path class="cls-12" d="M109.9,127.2v.4c-.2,0-.3,0-.4.1,0,.1-.1.3-.1.4s0,.4.1.5.2.2.3.2h.6c-.2-.2-.3-.4-.3-.7s.1-.6.4-.8c.3-.2.6-.3.9-.3s.5,0,.7.1c.2,0,.4.2.5.4.1.2.2.4.2.6s-.1.6-.4.8h.3v.4h-2.2c-.4,0-.7,0-.9-.1-.2,0-.3-.2-.4-.4,0-.2-.1-.4-.1-.7s0-.6.2-.7.3-.3.6-.3M111.4,127.6c-.3,0-.6,0-.7.2-.2.1-.2.3-.2.5s0,.4.2.5.4.2.7.2.6,0,.7-.2c.2-.1.2-.3.2-.5s0-.4-.2-.5-.4-.2-.7-.2h0Z"/>
  <path class="cls-12" d="M110.1,130h2.6v.4h-.4c.2.1.3.2.4.3s0,.2,0,.3,0,.3-.1.5l-.4-.2v-.6l-.2-.2h-1.9v-.4h0Z"/>
  <path class="cls-12" d="M110.1,133.2v-.4h2.8c-.1-.1-.2-.2-.3-.4-.1-.2-.2-.3-.2-.5h.4c.1.2.3.5.4.6.2.2.3.3.5.4v.3h-3.6,0Z"/>
  <line class="cls-5" x1="115.1" y1="120.5" x2="115.1" y2="120.7"/>
  <path class="cls-12" d="M113.9,124.5h3.6v.4h-1.3c.2.2.4.5.4.8s0,.4-.1.5c0,.1-.2.2-.3.3h-2.2v-.4h1.6c.2,0,.4,0,.5-.1.1,0,.2-.2.2-.4s0-.3-.1-.4c0-.1-.2-.2-.3-.2h-1.9v-.4h-.1Z"/>
  <path class="cls-12" d="M114.7,127.2v.4c-.1,0-.2,0-.3.2,0,.1-.1.3-.1.5s0,.4.1.4c0,0,.2.1.3.1s.2,0,.2-.1c0,0,0-.2.1-.4,0-.3.2-.5.2-.7s.1-.2.2-.3h.6c.1,0,.2.1.2.2,0,0,0,.2.1.3v.9c0,.1-.1.3-.2.3s-.2.1-.4.2v-.4s.2,0,.3-.2c0,0,.1-.2.1-.4s0-.3-.1-.4c0,0-.1-.1-.2-.1h-.2v.2c-.1,0-.1.2-.2.4,0,.3-.2.5-.2.6s-.1.2-.2.3c-.1,0-.2.1-.4.1s-.3,0-.4-.1c-.1,0-.2-.2-.3-.4,0-.2-.1-.3-.1-.5,0-.3,0-.6.2-.8.1-.2.3-.3.6-.3h.1Z"/>
  <path class="cls-12" d="M113.9,129.8h2.3v-.4h.3v.4h.7c.1,0,.2.1.3.2,0,.1.1.3.1.4v.4h-.4v-.6h-.5v.5h-.3v-.5h-2.3v-.4h-.2Z"/>
  <path class="cls-12" d="M113.9,132.5h.9v-1.6h.4l2.3,1.6v.4h-2.3v.5h-.4v-.5h-.9v-.4M115.2,132.5h1.6l-1.6-1.1v1.1h0Z"/>
  <line class="cls-5" x1="118.9" y1="120.5" x2="118.9" y2="120.7"/>
  <path class="cls-12" d="M117.9,125.4h-.4v-.7c0-.1.1-.1.2-.2h2v-.3h.3v.3h.6l.3.4h-.9v.4h-.3v-.4h-1.7v.4h-.1Z"/>
  <path class="cls-12" d="M117.5,126.3v-.4h3.6v.4h-1.3c.2.2.3.4.3.7v.5c0,.1-.2.3-.3.4-.1,0-.3.2-.4.2h-.5c-.4,0-.8-.1-1-.3s-.4-.5-.4-.8.1-.5.4-.7h-.3M118.8,126.3c-.3,0-.5,0-.7.1s-.3.3-.3.6,0,.4.2.5.4.2.7.2.6,0,.7-.2c.2-.1.2-.3.2-.5s0-.4-.3-.5c-.2-.1-.4-.2-.7-.2h.2Z"/>
  <path class="cls-12" d="M116.5,128.8h3.6v.4h-.3c.1,0,.2.2.3.3,0,.1.1.3.1.4s0,.4-.2.6c-.1.2-.3.3-.5.4-.2,0-.4.1-.7.1s-.5,0-.7-.1-.4-.2-.5-.4c-.1-.2-.2-.4-.2-.6v-.4c0-.1.1-.2.2-.3h-1.3v-.4M118.8,129.2c-.3,0-.6,0-.7.2-.2.1-.2.3-.2.5s0,.4.2.5.4.2.8.2.6,0,.7-.2c.2-.1.2-.3.2-.5s0-.4-.3-.5c-.2-.1-.4-.2-.8-.2h0Z"/>
  <polygon class="cls-12" points="117.5 131.4 121.1 131.4 121.1 131.8 117.5 131.8 117.5 131.4 117.5 131.4"/>
  <path class="cls-12" d="M117.9,134.8h-.4v-2.4h.3c.2,0,.3.2.5.3.2.1.3.3.5.6.3.4.6.7.8.8.2.1.4.2.5.2s.3,0,.4-.2c.1-.1.2-.3.2-.5s0-.4-.2-.5c-.1-.1-.3-.2-.5-.2v-.5c.4,0,.6.1.8.3s.3.5.3.8,0,.6-.3.8c-.2.2-.4.3-.7.3h-.4c-.1,0-.3-.2-.4-.3-.2-.1-.4-.4-.6-.7-.2-.3-.4-.4-.5-.5,0,0-.2-.1-.2-.2v1.8h0Z"/>
  <line class="cls-5" x1="122.7" y1="120.5" x2="122.7" y2="120.7"/>
  <path class="cls-12" d="M121.8,125.4h-.4v-.7c0-.1.1-.1.2-.2h2v-.3h.3v.3h.6l.3.4h-.9v.4h-.3v-.4h-1.7v.4h-.1Z"/>
  <path class="cls-12" d="M121.7,127.6c-.1-.2-.2-.3-.3-.5v-.5c0-.3,0-.5.2-.7s.3-.2.5-.2h.3c.1,0,.2.1.3.2,0,0,.1.2.1.3v.4c0,.4,0,.6.2.8h.1c.2,0,.3,0,.4-.1s.1-.3.1-.5,0-.4-.1-.5c0,0-.2-.2-.4-.2v-.4c.2,0,.4.1.5.2.1,0,.2.2.3.4v1.1c0,.1-.1.2-.2.3,0,0-.2.1-.3.1h-1.8c-.1,0-.2,0-.3.1v-.5h.3M122.7,127.5c0-.2-.1-.4-.2-.7v-.4s0-.1-.1-.2h-.2c-.1,0-.2,0-.3.1,0,0-.1.2-.1.4s0,.3.1.5c0,.1.2.2.3.3h.6,0Z"/>
  <polygon class="cls-12" points="121.4 128.8 124.9 128.8 124.9 129.2 121.4 129.2 121.4 128.8 121.4 128.8"/>
  <path class="cls-12" d="M121.8,131.9h-.4v-2.4h.3c.2,0,.3.2.5.3.2.1.3.3.5.6.3.4.6.7.8.8.2.1.4.2.5.2s.3,0,.4-.2c.1-.1.2-.3.2-.5s0-.4-.2-.5c-.1-.1-.3-.2-.5-.2v-.5c.4,0,.6.1.8.3s.3.5.3.8,0,.6-.3.8c-.2.2-.4.3-.7.3h-.4c-.1,0-.3-.2-.4-.3-.2-.1-.4-.4-.6-.7-.2-.3-.4-.4-.5-.5,0,0-.2-.1-.2-.2v1.8h0Z"/>
  <line class="cls-5" x1="126.5" y1="120.5" x2="126.5" y2="120.7"/>
  <path class="cls-12" d="M128.3,124.5h.5v.4h-.5v-.4M125.2,124.5h2.6v.4h-2.6v-.4h0Z"/>
  <path class="cls-12" d="M126,125.5v.4c-.1,0-.2,0-.3.2,0,.1-.1.3-.1.5s0,.4.1.4c0,0,.2.1.3.1s.2,0,.2-.1c0,0,0-.2.1-.4,0-.3.2-.5.2-.7s.1-.2.2-.3h.6c.1,0,.2.1.2.2,0,0,0,.2.1.3v.9c0,.1-.1.3-.2.3s-.2.1-.4.2v-.4s.2,0,.3-.2c0,0,.1-.2.1-.4s0-.3-.1-.4-.1-.1-.2-.1h-.2v.2c-.1,0-.1.2-.2.4,0,.3-.2.5-.2.6s-.1.2-.2.3c-.1,0-.2.1-.4.1s-.3,0-.4-.1c-.1,0-.2-.2-.3-.4,0-.2-.1-.3-.1-.5,0-.3,0-.6.2-.8.1-.2.3-.3.6-.3h.1Z"/>
  <polygon class="cls-12" points="125.2 128 128.8 128 128.8 128.5 125.2 128.5 125.2 128 125.2 128"/>
  <path class="cls-12" d="M125.2,130.8v-.4h2.8c-.1-.1-.2-.2-.3-.4-.1-.2-.2-.3-.2-.5h.4c.1.2.3.5.4.6.2.2.3.3.5.4v.3h-3.6,0Z"/>
  <line class="cls-5" x1="130.3" y1="120.5" x2="130.3" y2="120.7"/>
  <path class="cls-12" d="M129,124.5h2.6v.4h-.4c.3.2.4.5.4.8v.4c0,.1-.1.2-.2.3s-.2.1-.3.1h-2v-.4h2s.2,0,.2-.2v-.3c0-.2,0-.3-.2-.5s-.3-.2-.7-.2h-1.4v-.4h0Z"/>
  <polygon class="cls-12" points="129 127.3 132.6 127.3 132.6 127.8 130.6 127.8 131.6 128.8 131.6 129.4 130.7 128.4 129 129.5 129 128.9 130.4 128.1 130.1 127.8 129 127.8 129 127.3 129 127.3"/>
  <path class="cls-12" d="M129,129.4l1.3.9,1.2-.9v.5l-.6.4c-.1,0-.2.1-.3.2.1,0,.2.1.3.2l.6.4v.5l-1.2-.9-1.4,1v-.5l.8-.5h.2c0-.1-1-.8-1-.8v-.5h.1Z"/>
  <path class="cls-12" d="M129.5,134.6h-.4v-2.4h.3c.2,0,.3.2.5.3.2.1.3.3.5.6.3.4.6.7.8.8.2.1.4.2.5.2s.3,0,.4-.2.2-.3.2-.5,0-.4-.2-.5-.3-.2-.5-.2v-.5c.4,0,.6.1.8.3s.3.5.3.8,0,.6-.3.8-.4.3-.7.3h-.4c-.1,0-.3-.2-.4-.3-.2-.1-.4-.4-.6-.7-.2-.3-.4-.4-.5-.5,0,0-.2-.1-.2-.2v1.8h0Z"/>
  <polygon class="cls-12" points="129 135.1 129.5 135.1 129.5 135.6 129 135.6 129 135.1 129 135.1"/>
  <path class="cls-12" d="M130,136.3v.5c-.2,0-.4.1-.5.2s-.2.3-.2.5,0,.4.2.5.4.2.6.2.4,0,.6-.2.2-.3.2-.6v-.4c0-.1-.1-.2-.2-.3v-.4l1.9.3v1.8h-.4v-1.4l-1-.2c.1.2.2.4.2.7s-.1.6-.3.8-.5.3-.8.3-.6,0-.8-.3c-.3-.2-.4-.5-.4-.9s0-.6.3-.8c.2-.2.4-.3.7-.4h-.1Z"/>
  <line class="cls-5" x1="134.1" y1="120.5" x2="134.1" y2="120.7"/>
  <polygon class="cls-12" points="132.9 124.4 136.5 124.4 136.5 124.9 132.9 124.9 132.9 124.4 132.9 124.4"/>
  <path class="cls-12" d="M132.9,125.7h3.6v.4h-1.3c.2.2.4.5.4.8s0,.4-.1.5c0,.1-.2.2-.3.3h-2.2v-.4h1.6c.2,0,.4,0,.5-.1.1,0,.2-.2.2-.4s0-.3-.1-.4c0-.1-.2-.2-.3-.2h-1.9v-.4h-.1Z"/>
  <path class="cls-12" d="M132.9,128l1.3.9,1.2-.9v.5l-.6.4c-.1,0-.2.1-.3.2.1,0,.2.1.3.2l.6.4v.5l-1.2-.9-1.4,1v-.5l.8-.5h.2c0-.1-1-.8-1-.8v-.5h.1Z"/>
  <path class="cls-12" d="M132.9,132.5v-.4h2.8c-.1-.1-.2-.2-.3-.4-.1-.2-.2-.3-.2-.5h.4c.1.2.3.5.4.6.2.2.3.3.5.4v.3h-3.6,0Z"/>
  <path class="cls-12" d="M133.2,135.3c-.1-.2-.2-.3-.3-.5v-.5c0-.3,0-.5.2-.7s.3-.2.5-.2h.3c.1,0,.2.1.3.2,0,0,.1.2.1.3v.4c0,.4,0,.6.2.8h.1c.2,0,.3,0,.4-.1s.1-.3.1-.5,0-.4-.1-.5c0,0-.2-.2-.4-.2v-.4c.2,0,.4.1.5.2.1,0,.2.2.3.4v1.1c0,.1-.1.2-.2.3,0,0-.2.1-.3.1h-1.8c-.1,0-.2,0-.3.1v-.5h.3M134.2,135.2c0-.2-.1-.4-.2-.7v-.4s0-.1-.1-.2h-.2c-.1,0-.2,0-.3.1,0,0-.1.2-.1.4s0,.3.1.5c0,.1.2.2.3.3h.6,0Z"/>
  <line class="cls-5" x1="137.9" y1="120.5" x2="137.9" y2="120.7"/>
  <path class="cls-12" d="M136.7,124.5h2.6v.4h-.4c.1,0,.2.2.3.3,0,.1.1.3.1.5s0,.3-.1.5c0,.1-.2.2-.3.3.3.2.5.5.5.8s0,.5-.2.6c-.1.1-.4.2-.7.2h-1.8v-.4h2s.1,0,.2-.2v-.3c0-.2,0-.3-.2-.5s-.3-.2-.6-.2h-1.5v-.4h1.7c.2,0,.3,0,.4-.1,0,0,.1-.2.1-.4v-.3c0-.1-.2-.2-.3-.2h-1.8v-.4h0v-.2Z"/>
  <path class="cls-12" d="M137.5,128.6v.4c-.1,0-.2,0-.3.2,0,.1-.1.3-.1.5s0,.4.1.4c0,0,.2.1.3.1s.2,0,.2-.1c0,0,0-.2.1-.4,0-.3.2-.5.2-.7s.1-.2.2-.3h.6c.1,0,.2.1.2.2,0,0,0,.2.1.3v.9c0,.1-.1.3-.2.3s-.2.1-.4.2v-.4s.2,0,.3-.2c0,0,.1-.2.1-.4s0-.3-.1-.4c0,0-.1-.1-.2-.1h-.2v.2c-.1,0-.1.2-.2.4,0,.3-.2.5-.2.6s-.1.2-.2.3c-.1,0-.2.1-.4.1s-.3,0-.4-.1c-.1,0-.2-.2-.3-.4,0-.2-.1-.3-.1-.5,0-.3,0-.6.2-.8.1-.2.3-.3.6-.3h.1Z"/>
  <path class="cls-12" d="M137.7,132.9v.4c-.4,0-.6-.2-.8-.4s-.3-.4-.3-.7.1-.6.3-.9c.2-.2.6-.3,1-.3s.5,0,.7.1c.2,0,.4.2.5.4.1.2.2.4.2.6s0,.5-.2.7c-.1.2-.3.3-.6.3v-.4c.1,0,.2-.1.3-.2,0-.1.1-.2.1-.4s0-.4-.2-.5-.4-.2-.8-.2-.6,0-.8.2c-.2.1-.2.3-.2.5s0,.3.2.4c.1.1.3.2.5.2h0v.2Z"/>
  <line class="cls-5" x1="141.7" y1="120.5" x2="141.7" y2="120.7"/>
  <path class="cls-12" d="M140.6,124.5h2.6v.4h-.4c.1,0,.2.2.3.3,0,.1.1.3.1.5s0,.3-.1.5c0,.1-.2.2-.3.3.3.2.5.5.5.8s0,.5-.2.6c-.1.1-.4.2-.7.2h-1.8v-.4h2s.1,0,.2-.2v-.3c0-.2,0-.3-.2-.5s-.3-.2-.6-.2h-1.5v-.4h1.7c.2,0,.3,0,.4-.1,0,0,.1-.2.1-.4v-.3c0-.1-.2-.2-.3-.2h-1.8v-.4h0v-.2Z"/>
  <path class="cls-12" d="M139.6,128.8h.4v.4s0,.1.1.1c0,0,.2,0,.3.1h.1l2.6-1v.5l-1.5.5c-.2,0-.4.1-.6.2.2,0,.4.1.6.2l1.5.6v.4l-2.6-1c-.3-.1-.5-.2-.6-.2s-.3-.2-.3-.3-.1-.2-.1-.4v-.3h0v.2Z"/>
  <path class="cls-12" d="M141.9,131c.5,0,.8.1,1.1.4.2.2.3.5.3.8s-.1.6-.4.9-.6.3-1,.3-.6,0-.8-.2c-.2-.1-.3-.2-.4-.4-.1-.2-.2-.4-.2-.6,0-.4.1-.7.3-.9s.6-.3,1-.3M141.9,131.5c-.3,0-.6,0-.7.2-.2.1-.2.3-.2.5s0,.4.2.5.4.2.8.2.6,0,.7-.2c.2-.1.2-.3.2-.5s0-.4-.2-.5-.4-.2-.7-.2h0Z"/>
  <path class="cls-12" d="M140.3,134v.4c-.2,0-.3,0-.4.1,0,.1-.1.3-.1.4s0,.4.1.5.2.2.3.2h.6c-.2-.2-.3-.4-.3-.7s.1-.6.4-.8c.3-.2.6-.3.9-.3s.5,0,.7.1c.2,0,.4.2.5.4.1.2.2.4.2.6s-.1.6-.4.8h.3v.4h-2.2c-.4,0-.7,0-.9-.1-.2,0-.3-.2-.4-.4,0-.2-.1-.4-.1-.7s0-.6.2-.7.3-.3.6-.3M141.9,134.3c-.3,0-.6,0-.7.2-.2.1-.2.3-.2.5s0,.4.2.5.4.2.7.2.6,0,.7-.2c.2-.1.2-.3.2-.5s0-.4-.2-.5-.4-.2-.7-.2h0Z"/>
  <line class="cls-5" x1="145.6" y1="120.5" x2="145.6" y2="120.7"/>
  <path class="cls-12" d="M143.9,124.4v.4c-.2,0-.3,0-.4.1,0,.1-.1.3-.1.4s0,.4.1.5.2.2.3.2h.6c-.2-.2-.3-.4-.3-.7s.1-.6.4-.8c.3-.2.6-.3.9-.3s.5,0,.7.1c.2,0,.4.2.5.4.1.2.2.4.2.6s-.1.6-.4.8h.3v.4h-2.2c-.4,0-.7,0-.9-.1-.2,0-.3-.2-.4-.4,0-.2-.1-.4-.1-.7s0-.6.2-.7.3-.3.6-.3M145.5,124.7c-.3,0-.6,0-.7.2-.2.1-.2.3-.2.5s0,.4.2.5.4.2.7.2.6,0,.7-.2c.2-.1.2-.3.2-.5s0-.4-.2-.5-.4-.2-.7-.2h0Z"/>
  <path class="cls-12" d="M144.2,127.7v-.4h3.6v.4h-1.3c.2.2.3.4.3.7v.5c0,.1-.2.3-.3.4-.1,0-.3.2-.4.2h-.5c-.4,0-.8-.1-1-.3s-.4-.5-.4-.8.1-.5.4-.7h-.3M145.5,127.7c-.3,0-.5,0-.7.1s-.3.3-.3.6,0,.4.2.5.4.2.7.2.6,0,.7-.2c.2-.1.2-.3.2-.5s0-.4-.3-.5c-.2-.1-.4-.2-.7-.2h.2Z"/>
  <path class="cls-12" d="M144.2,129.7l1.3.9,1.2-.9v.5l-.6.4c-.1,0-.2.1-.3.2.1,0,.2.1.3.2l.6.4v.5l-1.2-.9-1.4,1v-.5l.8-.5h.2c0-.1-1-.8-1-.8v-.5h.1Z"/>
  <path class="cls-12" d="M144.2,134.1v-.4h2.8c-.1-.1-.2-.2-.3-.4-.1-.2-.2-.3-.2-.5h.4c.1.2.3.5.4.6.2.2.3.3.5.4v.3h-3.6,0Z"/>
  <line class="cls-5" x1="149.4" y1="120.5" x2="149.4" y2="120.7"/>
  <path class="cls-12" d="M148,126.1h.4c-.3-.2-.4-.5-.4-.8v-.4c0-.1.1-.2.2-.3,0,0,.2-.1.3-.1h2v.4h-1.9c-.1,0-.2,0-.3.2v.3c0,0,0,.3.1.4,0,.1.2.2.3.2h1.9v.4h-2.6v-.4h0Z"/>
  <path class="cls-12" d="M148,127.3h2.6v.4h-.4c.3.2.4.5.4.8v.4c0,.1-.1.2-.2.3,0,0-.2.1-.3.1h-2v-.4h2s.2,0,.2-.2v-.3c0-.2,0-.3-.2-.5s-.3-.2-.7-.2h-1.4v-.4h0Z"/>
  <path class="cls-12" d="M148.9,131.7v.4c-.4,0-.6-.2-.8-.4s-.3-.4-.3-.7.1-.6.3-.9c.2-.2.6-.3,1-.3s.5,0,.7.1c.2,0,.4.2.5.4.1.2.2.4.2.6s0,.5-.2.7c-.1.2-.3.3-.6.3v-.4c.1,0,.2-.1.3-.2,0-.1.1-.2.1-.4s0-.4-.2-.5-.4-.2-.8-.2-.6,0-.8.2c-.2.1-.2.3-.2.5s0,.3.2.4c.1.1.3.2.5.2h0v.2Z"/>
  <path class="cls-12" d="M148,132.3l1.3.9,1.2-.9v.5l-.6.4c-.1,0-.2.1-.3.2.1,0,.2.1.3.2l.6.4v.5l-1.2-.9-1.4,1v-.5l.8-.5h.2c0-.1-1-.8-1-.8v-.5h.1Z"/>
  <path class="cls-12" d="M148,136.3h.9v-1.6h.4l2.3,1.6v.4h-2.3v.5h-.4v-.5h-.9v-.4M149.3,136.3h1.6l-1.6-1.1v1.1h0Z"/>
  <polygon class="cls-12" points="148 138 148.5 138 148.5 138.5 148 138.5 148 138 148 138"/>
  <path class="cls-12" d="M148,140.9v-.4h2.8c-.1-.1-.2-.2-.3-.4-.1-.2-.2-.3-.2-.5h.4c.1.2.3.5.4.6.2.2.3.3.5.4v.3h-3.6,0Z"/>
  <line class="cls-5" x1="153.2" y1="120.5" x2="153.2" y2="120.7"/>
  <path class="cls-12" d="M152.2,126.1c-.1-.2-.2-.3-.3-.5v-.5c0-.3,0-.5.2-.7s.3-.2.5-.2h.3c.1,0,.2.1.3.2,0,0,.1.2.1.3v.4c0,.4,0,.6.2.8h.1c.2,0,.3,0,.4-.1s.1-.3.1-.5,0-.4-.1-.5c0,0-.2-.2-.4-.2v-.4c.2,0,.4.1.5.2.1,0,.2.2.3.4s0,.4,0,.6v.5c0,.1-.1.2-.2.3,0,0-.2.1-.3.1h-1.8c-.1,0-.2,0-.3.1v-.5h.3M153.1,126.1c0-.2-.1-.4-.2-.7v-.4s0-.1-.1-.2h-.2c-.1,0-.2,0-.3.1,0,0-.1.2-.1.4s0,.3.1.5c0,.1.2.2.3.3h.6,0Z"/>
  <path class="cls-12" d="M152.6,127.2v.4c-.1,0-.2,0-.3.2,0,.1-.1.3-.1.5s0,.4.1.4c0,0,.2.1.3.1s.2,0,.2-.1c0,0,0-.2.1-.4,0-.3.2-.5.2-.7s.1-.2.2-.3h.6c.1,0,.2.1.2.2,0,0,0,.2.1.3v.9c0,.1-.1.3-.2.3s-.2.1-.4.2v-.4s.2,0,.3-.2c0,0,.1-.2.1-.4s0-.3-.1-.4c0,0-.1-.1-.2-.1h-.2c-.1,0,0,0-.1.2,0,0,0,.2-.1.4,0,.3-.2.5-.2.6s-.1.2-.2.3c-.1,0-.2.1-.4.1s-.3,0-.4-.1c-.1,0-.2-.2-.3-.4s-.1-.3-.1-.5c0-.3,0-.6.2-.8.1-.2.3-.3.6-.3h.1Z"/>
  <path class="cls-12" d="M152.8,131.4v.4c-.4,0-.6-.2-.8-.4s-.3-.4-.3-.7.1-.6.3-.9c.2-.2.6-.3,1-.3s.5,0,.7.1c.2,0,.4.2.5.4.1.2.2.4.2.6s0,.5-.2.7c-.1.2-.3.3-.6.3v-.4c.1,0,.2-.1.3-.2,0-.1.1-.2.1-.4s0-.4-.2-.5-.4-.2-.8-.2-.6,0-.8.2c-.2.1-.2.3-.2.5s0,.3.2.4c.1.1.3.2.5.2h0v.2Z"/>
  <polygon class="cls-12" points="151.8 132.4 155.4 132.4 155.4 132.8 151.8 132.8 151.8 132.4 151.8 132.4"/>
  <path class="cls-12" d="M151.8,134.9v-.4h2.8c-.1-.1-.2-.2-.3-.4-.1-.2-.2-.3-.2-.5h.4c.1.2.3.5.4.6s.3.3.5.4v.3h-3.6,0Z"/>
  <path class="cls-12" d="M152.2,137.9c-.1-.2-.2-.3-.3-.5v-.5c0-.3,0-.5.2-.7s.3-.2.5-.2h.3c.1,0,.2.1.3.2,0,0,.1.2.1.3v.4c0,.4,0,.6.2.8h.1c.2,0,.3,0,.4-.1s.1-.3.1-.5,0-.4-.1-.5c0,0-.2-.2-.4-.2v-.4c.2,0,.4.1.5.2.1,0,.2.2.3.4s0,.4,0,.6v.5c0,.1-.1.2-.2.3,0,0-.2.1-.3.1h-1.8c-.1,0-.2,0-.3.1v-.5h.3M153.1,137.9c0-.2-.1-.4-.2-.7v-.4q0-.1-.1-.2h-.2c-.1,0-.2,0-.3.1,0,0-.1.2-.1.4s0,.3.1.5c0,.1.2.2.3.3h.6,0Z"/>
  <line class="cls-5" x1="157" y1="120.5" x2="157" y2="120.7"/>
  <path class="cls-12" d="M155.7,124.5h2.6v.4h-.4c.3.2.4.5.4.8v.4c0,.1-.1.2-.2.3s-.2.1-.3.1h-2v-.4h2s.2,0,.2-.2v-.3c0-.2,0-.3-.2-.5s-.3-.2-.7-.2h-1.4v-.4h0Z"/>
  <path class="cls-12" d="M155.7,127.4h2.3v-.4h.3v.4h.7c.1,0,.2.1.3.2,0,.1.1.3.1.4v.4h-.4v-.6h-.5v.5h-.3v-.5h-2.3v-.4h-.2Z"/>
  <path class="cls-12" d="M156.5,130.5v.5c-.3,0-.5-.2-.7-.4-.1-.2-.2-.4-.2-.7s.1-.7.3-.9.6-.3,1-.3.8.1,1,.3c.2.2.4.5.4.9s-.1.6-.4.8-.6.3-1,.3,0,0-.1,0v-1.9c-.3,0-.5,0-.7.2-.2.1-.2.3-.2.5s0,.3.1.4c0,.1.2.2.4.3M157.2,129.1v1.4c.2,0,.4,0,.5-.2.2-.1.3-.3.3-.5s0-.4-.2-.5c-.1-.1-.3-.2-.5-.2h0Z"/>
  <path class="cls-12" d="M156.1,133.6h-.4v-2.4h.3c.2,0,.3.2.5.3.2.1.3.3.5.6.3.4.6.7.8.8.2.1.4.2.5.2s.3,0,.4-.2.2-.3.2-.5,0-.4-.2-.5c-.1-.1-.3-.2-.5-.2v-.5c.4,0,.6.1.8.3s.3.5.3.8,0,.6-.3.8c-.2.2-.4.3-.7.3h-.4c-.1,0-.3-.2-.4-.3-.2-.1-.4-.4-.6-.7-.2-.3-.4-.4-.5-.5,0,0-.2-.1-.2-.2v1.8h0Z"/>
  <line class="cls-5" x1="160.8" y1="120.5" x2="160.8" y2="120.7"/>
  <polygon class="cls-12" points="159.5 124.5 163.1 124.5 163.1 124.9 161.1 124.9 162.1 125.9 162.1 126.5 161.2 125.5 159.5 126.6 159.5 126.1 160.8 125.2 160.5 124.9 159.5 124.9 159.5 124.5 159.5 124.5"/>
  <polygon class="cls-12" points="159.5 127.1 163.1 127.1 163.1 127.5 159.5 127.5 159.5 127.1 159.5 127.1"/>
  <path class="cls-12" d="M159.5,128.2h2.3v-.4h.3v.4h.7c.1,0,.2.1.3.2,0,.1.1.3.1.4v.4h-.4v-.6h-.5v.5h-.3v-.5h-2.3v-.4h-.2Z"/>
  <path class="cls-12" d="M159.9,131.7h-.4v-2.4h.3c.2,0,.3.2.5.3.2.1.3.3.5.6.3.4.6.7.8.8.2.1.4.2.5.2s.3,0,.4-.2c.1-.1.2-.3.2-.5s0-.4-.2-.5c-.1-.1-.3-.2-.5-.2v-.5c.4,0,.6.1.8.3s.3.5.3.8,0,.6-.3.8c-.2.2-.4.3-.7.3h-.4c-.1,0-.3-.2-.4-.3-.2-.1-.4-.4-.6-.7-.2-.3-.4-.4-.5-.5,0,0-.2-.1-.2-.2v1.8h0Z"/>
  <path class="cls-12" d="M159.8,134.1c-.1-.2-.2-.3-.3-.5v-.5c0-.3,0-.5.2-.7s.3-.2.5-.2h.3c.1,0,.2.1.3.2,0,0,.1.2.1.3v.4c0,.4,0,.6.2.8h.1c.2,0,.3,0,.4-.1s.1-.3.1-.5,0-.4-.1-.5c0,0-.2-.2-.4-.2v-.4c.2,0,.4.1.5.2.1,0,.2.2.3.4v1.1c0,.1-.1.2-.2.3,0,0-.2.1-.3.1h-1.8c-.1,0-.2,0-.3.1v-.5h.3M160.8,134c0-.2-.1-.4-.2-.7v-.4s0-.1-.1-.2h-.2c-.1,0-.2,0-.3.1,0,0-.1.2-.1.4s0,.3.1.5c0,.1.2.2.3.3h.6,0Z"/>
  <line class="cls-5" x1="164.6" y1="120.5" x2="164.6" y2="120.7"/>
  <path class="cls-12" d="M163.7,126.1c-.1-.2-.2-.3-.3-.5v-.5c0-.3,0-.5.2-.7s.3-.2.5-.2h.3c.1,0,.2.1.3.2,0,0,.1.2.1.3v.4c0,.4,0,.6.2.8h.1c.2,0,.3,0,.4-.1s.1-.3.1-.5,0-.4-.1-.5c0,0-.2-.2-.4-.2v-.4c.2,0,.4.1.5.2.1,0,.2.2.3.4v1.1c0,.1-.1.2-.2.3,0,0-.2.1-.3.1h-1.8c-.1,0-.2,0-.3.1v-.5h.3M164.7,126.1c0-.2-.1-.4-.2-.7v-.4s0-.1-.1-.2h-.2c-.1,0-.2,0-.3.1,0,0-.1.2-.1.4s0,.3.1.5c0,.1.2.2.3.3h.6,0Z"/>
  <path class="cls-12" d="M163.8,128.3h-.4v-.7c0-.1.1-.1.2-.2h2v-.3h.3v.3h.6l.3.4h-.9v.4h-.3v-.4h-1.7v.4h-.1Z"/>
  <path class="cls-12" d="M164.7,128.6c.5,0,.8.1,1.1.4.2.2.3.5.3.8s-.1.6-.4.9-.6.3-1,.3-.6,0-.8-.2c-.2-.1-.3-.2-.4-.4-.1-.2-.2-.4-.2-.6,0-.4.1-.7.3-.9s.6-.3,1-.3M164.7,129.1c-.3,0-.6,0-.7.2-.2.1-.2.3-.2.5s0,.4.2.5.4.2.8.2.6,0,.7-.2c.2-.1.2-.3.2-.5s0-.4-.2-.5-.4-.2-.7-.2h0Z"/>
  <path class="cls-12" d="M163.4,131.4h3.6v.4h-1.3c.2.2.4.5.4.8s0,.4-.1.5c0,.1-.2.2-.3.3h-2.2v-.4h1.6c.2,0,.4,0,.5-.1.1,0,.2-.2.2-.4s0-.3-.1-.4c0-.1-.2-.2-.3-.2h-1.9v-.4h-.1Z"/>
  <path class="cls-12" d="M163.4,135.8v-.4h2.8c-.1-.1-.2-.2-.3-.4-.1-.2-.2-.3-.2-.5h.4c.1.2.3.5.4.6.2.2.3.3.5.4v.3h-3.6,0Z"/>
  <path class="cls-12" d="M163.7,138.6c-.1-.2-.2-.3-.3-.5v-.5c0-.3,0-.5.2-.7s.3-.2.5-.2h.3c.1,0,.2.1.3.2,0,0,.1.2.1.3v.4c0,.4,0,.6.2.8h.1c.2,0,.3,0,.4-.1s.1-.3.1-.5,0-.4-.1-.5c0,0-.2-.2-.4-.2v-.4c.2,0,.4.1.5.2.1,0,.2.2.3.4v1.1c0,.1-.1.2-.2.3,0,0-.2.1-.3.1h-1.8c-.1,0-.2,0-.3.1v-.5h.3M164.7,138.6c0-.2-.1-.4-.2-.7v-.4s0-.1-.1-.2h-.2c-.1,0-.2,0-.3.1,0,0-.1.2-.1.4s0,.3.1.5c0,.1.2.2.3.3h.6,0Z"/>
  <line class="cls-5" x1="168.4" y1="120.5" x2="168.4" y2="120.7"/>
  <path class="cls-12" d="M167.2,124.5h2.6v.4h-.4c.3.2.4.5.4.8v.4c0,.1-.1.2-.2.3s-.2.1-.3.1h-2v-.4h2s.2,0,.2-.2v-.3c0-.2,0-.3-.2-.5s-.3-.2-.7-.2h-1.4v-.4h0Z"/>
  <path class="cls-12" d="M167.2,127.3h2.6v.4h-.4c.2.1.3.2.4.3v.3c0,.1,0,.3-.1.5l-.4-.2v-.6l-.2-.2h-1.9v-.4h0Z"/>
  <path class="cls-12" d="M168.1,128.9v.5c-.2,0-.4.1-.5.2s-.2.3-.2.5,0,.4.2.5.4.2.6.2.4,0,.6-.2.2-.3.2-.6v-.4c0-.1-.1-.2-.2-.3v-.4l1.9.3v1.8h-.4v-1.4l-1-.2c.1.2.2.4.2.7s-.1.6-.3.8-.5.3-.8.3-.6,0-.8-.3c-.3-.2-.4-.5-.4-.9s0-.6.3-.8c.2-.2.4-.3.7-.4h-.1Z"/>
  <path class="cls-12" d="M167.5,133.3c-.1-.2-.2-.3-.3-.5v-.5c0-.3,0-.5.2-.7s.3-.2.5-.2h.3c.1,0,.2.1.3.2,0,0,.1.2.1.3v.4c0,.4,0,.6.2.8h.1c.2,0,.3,0,.4-.1s.1-.3.1-.5,0-.4-.1-.5c0,0-.2-.2-.4-.2v-.4c.2,0,.4.1.5.2.1,0,.2.2.3.4s0,.4,0,.6v.5c0,.1-.1.2-.2.3,0,0-.2.1-.3.1h-1.8c-.1,0-.2,0-.3.1v-.5h.3M168.5,133.3c0-.2-.1-.4-.2-.7v-.4q0-.1-.1-.2h-.2c-.1,0-.2,0-.3.1,0,0-.1.2-.1.4s0,.3.1.5c0,.1.2.2.3.3h.6,0Z"/>
  <path class="cls-12" d="M167.2,136.1v-.4h2.8c-.1-.1-.2-.2-.3-.4-.1-.2-.2-.3-.2-.5h.4c.1.2.3.5.4.6s.3.3.5.4v.3h-3.6,0Z"/>
  <path class="cls-12" d="M167.5,138.9c-.1-.2-.2-.3-.3-.5v-.5c0-.3,0-.5.2-.7s.3-.2.5-.2h.3c.1,0,.2.1.3.2,0,0,.1.2.1.3v.4c0,.4,0,.6.2.8h.1c.2,0,.3,0,.4-.1s.1-.3.1-.5,0-.4-.1-.5c0,0-.2-.2-.4-.2v-.4c.2,0,.4.1.5.2.1,0,.2.2.3.4s0,.4,0,.6v.5c0,.1-.1.2-.2.3,0,0-.2.1-.3.1h-1.8c-.1,0-.2,0-.3.1v-.5h.3M168.5,138.8c0-.2-.1-.4-.2-.7v-.4s0-.1-.1-.2h-.2c-.1,0-.2,0-.3.1,0,0-.1.2-.1.4s0,.3.1.5c0,.1.2.2.3.3h.6,0Z"/>
  <line class="cls-5" x1="172.2" y1="120.5" x2="172.2" y2="120.7"/>
  <path class="cls-12" d="M171.7,126.1v.4c-.4,0-.6-.2-.8-.4s-.3-.4-.3-.7.1-.6.3-.9c.2-.2.6-.3,1-.3s.5,0,.7.1c.2,0,.4.2.5.4.1.2.2.4.2.6s0,.5-.2.7c-.1.2-.3.3-.6.3v-.4c.1,0,.2-.1.3-.2,0-.1.1-.2.1-.4s0-.4-.2-.5-.4-.2-.8-.2-.6,0-.8.2c-.2.1-.2.3-.2.5s0,.3.2.4c.1.1.3.2.5.2h0v.2Z"/>
  <path class="cls-12" d="M171.6,128.9v.5c-.3,0-.5-.2-.7-.4s-.2-.4-.2-.7.1-.7.3-.9.6-.3,1-.3.8.1,1,.3.4.5.4.9-.1.6-.4.8c-.2.2-.6.3-1,.3s0,0-.1,0v-1.9c-.3,0-.5,0-.7.2-.2.1-.2.3-.2.5s0,.3.1.4c0,.1.2.2.4.3M172.3,127.4v1.4c.2,0,.4,0,.5-.2.2-.1.3-.3.3-.5s0-.4-.2-.5c-.1-.1-.3-.2-.5-.2h0Z"/>
  <path class="cls-12" d="M170.8,130.1v-.4h3.6v.4h-1.3c.2.2.3.4.3.7v.5c0,.1-.2.3-.3.4-.1,0-.3.2-.4.2h-.5c-.4,0-.8-.1-1-.3s-.4-.5-.4-.8.1-.5.4-.7h-.3M172.1,130.1c-.3,0-.5,0-.7.1s-.3.3-.3.6,0,.4.2.5.4.2.7.2.6,0,.7-.2c.2-.1.2-.3.2-.5s0-.4-.3-.5c-.2-.1-.4-.2-.7-.2h.2Z"/>
  <path class="cls-12" d="M169.8,132.6h3.6v.4h-.3c.1,0,.2.2.3.3,0,.1.1.3.1.4s0,.4-.2.6c-.1.2-.3.3-.5.4-.2,0-.4.1-.7.1s-.5,0-.7-.1-.4-.2-.5-.4c-.1-.2-.2-.4-.2-.6v-.4c0-.1.1-.2.2-.3h-1.3v-.4M172.1,133c-.3,0-.6,0-.7.2-.2.1-.2.3-.2.5s0,.4.2.5.4.2.8.2.6,0,.7-.2c.2-.1.2-.3.2-.5s0-.4-.3-.5c-.2-.1-.4-.2-.8-.2h0Z"/>
  <path class="cls-12" d="M170.8,135.7v-.4h3.6v.4h-1.3c.2.2.3.4.3.7v.5c0,.1-.2.3-.3.4-.1,0-.3.2-.4.2h-.5c-.4,0-.8-.1-1-.3s-.4-.5-.4-.8.1-.5.4-.7h-.3M172.1,135.7c-.3,0-.5,0-.7.1s-.3.3-.3.6,0,.4.2.5.4.2.7.2.6,0,.7-.2.2-.3.2-.5,0-.4-.3-.5c-.2-.1-.4-.2-.7-.2h.2Z"/>
  <line class="cls-5" x1="176" y1="120.5" x2="176" y2="120.7"/>
  <path class="cls-12" d="M173.6,124.5h3.6v.4h-.3c.1,0,.2.2.3.3,0,.1.1.3.1.4s0,.4-.2.6c-.1.2-.3.3-.5.4-.2,0-.4.1-.7.1s-.5,0-.7-.1-.4-.2-.5-.4c-.1-.2-.2-.4-.2-.6v-.4c0-.1.1-.2.2-.3h-1.3v-.4M175.9,124.8c-.3,0-.6,0-.7.2-.2.1-.2.3-.2.5s0,.4.2.5.4.2.8.2.6,0,.7-.2c.2-.1.2-.3.2-.5s0-.4-.3-.5c-.2-.1-.4-.2-.8-.2h0Z"/>
  <path class="cls-12" d="M175,129c-.1-.2-.2-.3-.3-.5v-.5c0-.3,0-.5.2-.7s.3-.2.5-.2h.3c.1,0,.2.1.3.2,0,0,.1.2.1.3v.4c0,.4,0,.6.2.8h.1c.2,0,.3,0,.4-.1s.1-.3.1-.5,0-.4-.1-.5c0,0-.2-.2-.4-.2v-.4c.2,0,.4.1.5.2.1,0,.2.2.3.4v1.1c0,.1-.1.2-.2.3,0,0-.2.1-.3.1h-1.8c-.1,0-.2,0-.3.1v-.5h.3M175.9,129c0-.2-.1-.4-.2-.7v-.4s0-.1-.1-.2h-.2c-.1,0-.2,0-.3.1,0,0-.1.2-.1.4s0,.3.1.5c0,.1.2.2.3.3h.6,0Z"/>
  <path class="cls-12" d="M174.6,129.7l1.3.9,1.2-.9v.5l-.6.4c-.1,0-.2.1-.3.2.1,0,.2.1.3.2l.6.4v.5l-1.2-.9-1.4,1v-.5l.8-.5h.2c0-.1-1-.8-1-.8v-.5h.1Z"/>
  <path class="cls-12" d="M175.1,134.8h-.4v-2.4h.3c.2,0,.3.2.5.3.2.1.3.3.5.6.3.4.6.7.8.8.2.1.4.2.5.2s.3,0,.4-.2c.1-.1.2-.3.2-.5s0-.4-.2-.5c-.1-.1-.3-.2-.5-.2v-.5c.4,0,.6.1.8.3s.3.5.3.8,0,.6-.3.8c-.2.2-.4.3-.7.3h-.4c-.1,0-.3-.2-.4-.3-.2-.1-.4-.4-.6-.7-.2-.3-.4-.4-.5-.5,0,0-.2-.1-.2-.2v1.8h0Z"/>
  <path class="cls-12" d="M175,136.9c-.1-.2-.2-.3-.3-.5v-.5c0-.3,0-.5.2-.7s.3-.2.5-.2h.3c.1,0,.2.1.3.2,0,0,.1.2.1.3v.4c0,.4,0,.6.2.8h.1c.2,0,.3,0,.4-.1s.1-.3.1-.5,0-.4-.1-.5c0,0-.2-.2-.4-.2v-.4c.2,0,.4.1.5.2.1,0,.2.2.3.4v1.1c0,.1-.1.2-.2.3,0,0-.2.1-.3.1h-1.8c-.1,0-.2,0-.3.1v-.5h.3M175.9,136.9c0-.2-.1-.4-.2-.7v-.4s0-.1-.1-.2h-.2c-.1,0-.2,0-.3.1,0,0-.1.2-.1.4s0,.3.1.5c0,.1.2.2.3.3h.6,0Z"/>
  <line class="cls-5" x1="179.8" y1="120.5" x2="179.8" y2="120.7"/>
  <path class="cls-12" d="M178.8,126.1c-.1-.2-.2-.3-.3-.5v-.5c0-.3,0-.5.2-.7s.3-.2.5-.2h.3c.1,0,.2.1.3.2,0,0,.1.2.1.3v.4c0,.4,0,.6.2.8h.1c.2,0,.3,0,.4-.1s.1-.3.1-.5,0-.4-.1-.5c0,0-.2-.2-.4-.2v-.4c.2,0,.4.1.5.2.1,0,.2.2.3.4s0,.4,0,.6v.5c0,.1-.1.2-.2.3,0,0-.2.1-.3.1h-1.8c-.1,0-.2,0-.3.1v-.5h.3M179.8,126.1c0-.2-.1-.4-.2-.7v-.4s0-.1-.1-.2h-.2c-.1,0-.2,0-.3.1,0,0-.1.2-.1.4s0,.3.1.5c0,.1.2.2.3.3h.6,0Z"/>
  <path class="cls-12" d="M178.9,128.3h-.4v-.7c0-.1.1-.1.2-.2h2v-.3h.3v.3h.6l.3.4h-.9v.4h-.3v-.4h-1.7v.4h-.1Z"/>
  <path class="cls-12" d="M178.5,128.9h2.3v-.4h.3v.4h.7c.1,0,.2.1.3.2,0,.1.1.3.1.4v.4h-.4v-.6h-.5v.5h-.3v-.5h-2.3v-.4h-.2Z"/>
  <path class="cls-12" d="M179.4,129.9v.4c-.2,0-.4.1-.5.3-.1.1-.2.3-.2.4s0,.4.2.5c.1.1.3.2.5.2s.4,0,.5-.2c.1-.1.2-.3.2-.5v-.3h.4c0,.3,0,.5.1.6s.2.2.5.2.3,0,.4-.2.2-.2.2-.4,0-.3-.2-.4-.3-.2-.5-.2v-.4c.4,0,.6.2.8.4s.2.4.2.7,0,.4-.1.5c0,.2-.2.3-.3.4-.1,0-.3.1-.5.1s-.3,0-.4-.1-.2-.2-.3-.4c0,.2-.2.4-.3.5s-.3.2-.6.2-.6-.1-.8-.3-.3-.5-.3-.9,0-.6.3-.8.4-.3.7-.4h0Z"/>
  <line class="cls-5" x1="183.6" y1="120.5" x2="183.6" y2="120.7"/>
  <path class="cls-12" d="M183.3,126.1v.4c-.4,0-.6-.2-.8-.4s-.3-.4-.3-.7.1-.6.3-.9c.2-.2.6-.3,1-.3s.5,0,.7.1c.2,0,.4.2.5.4.1.2.2.4.2.6s0,.5-.2.7c-.1.2-.3.3-.6.3v-.4c.1,0,.2-.1.3-.2,0-.1.1-.2.1-.4s0-.4-.2-.5-.4-.2-.8-.2-.6,0-.8.2c-.2.1-.2.3-.2.5s0,.3.2.4c.1.1.3.2.5.2h0v.2Z"/>
  <path class="cls-12" d="M182.3,127.1h2.6v.4h-.4c.2.1.3.2.4.3s0,.2,0,.3,0,.3-.1.5l-.4-.2v-.6l-.2-.2h-1.9v-.4h0Z"/>
  <path class="cls-12" d="M183.2,130.5v.5c-.3,0-.5-.2-.7-.4-.1-.2-.2-.4-.2-.7s.1-.7.3-.9.6-.3,1-.3.8.1,1,.3c.2.2.4.5.4.9s-.1.6-.4.8c-.2.2-.6.3-1,.3s0,0-.1,0v-1.9c-.3,0-.5,0-.7.2-.2.1-.2.3-.2.5s0,.3.1.4c0,.1.2.2.4.3M183.9,129.1v1.4c.2,0,.4,0,.5-.2.2-.1.3-.3.3-.5s0-.4-.2-.5c-.1-.1-.3-.2-.5-.2h0Z"/>
  <path class="cls-12" d="M182.3,131.8v-.4h3.6v.4h-1.3c.2.2.3.4.3.7v.5c0,.1-.2.3-.3.4-.1,0-.3.2-.4.2h-.5c-.4,0-.8-.1-1-.3s-.4-.5-.4-.8.1-.5.4-.7h-.3M183.6,131.8c-.3,0-.5,0-.7.1s-.3.3-.3.6,0,.4.2.5.4.2.7.2.6,0,.7-.2c.2-.1.2-.3.2-.5s0-.4-.3-.5c-.2-.1-.4-.2-.7-.2h.2Z"/>
  <path class="cls-12" d="M183.3,134.2v.4c-.2,0-.4.1-.5.3-.1.1-.2.3-.2.4s0,.4.2.5c.1.1.3.2.5.2s.4,0,.5-.2c.1-.1.2-.3.2-.5v-.3h.4c0,.3,0,.5.1.6,0,.1.2.2.5.2s.3,0,.4-.2c.1-.1.2-.2.2-.4s0-.3-.2-.4c-.1-.1-.3-.2-.5-.2v-.4c.4,0,.6.2.8.4s.2.4.2.7,0,.4-.1.5c0,.2-.2.3-.3.4-.1,0-.3.1-.5.1s-.3,0-.4-.1c-.1,0-.2-.2-.3-.4,0,.2-.2.4-.3.5s-.3.2-.6.2-.6-.1-.8-.3-.3-.5-.3-.9,0-.6.3-.8c.2-.2.4-.3.7-.4h0Z"/>
  <polygon class="cls-12" points="182.3 136.9 185.9 136.9 185.9 137.4 182.3 137.4 182.3 136.9 182.3 136.9"/>
  <path class="cls-12" d="M183.3,138v.4c-.2,0-.4.1-.5.3-.1.1-.2.3-.2.4s0,.4.2.5c.1.1.3.2.5.2s.4,0,.5-.2c.1-.1.2-.3.2-.5v-.3h.4c0,.3,0,.5.1.6,0,.1.2.2.5.2s.3,0,.4-.2c.1-.1.2-.2.2-.4s0-.3-.2-.4c-.1-.1-.3-.2-.5-.2v-.4c.4,0,.6.2.8.4s.2.4.2.7,0,.4-.1.5c0,.2-.2.3-.3.4-.1,0-.3.1-.5.1s-.3,0-.4-.1c-.1,0-.2-.2-.3-.4,0,.2-.2.4-.3.5s-.3.2-.6.2-.6-.1-.8-.3-.3-.5-.3-.9,0-.6.3-.8c.2-.2.4-.3.7-.4h0Z"/>
  <path class="cls-12" d="M182.6,142.7c-.1-.2-.2-.3-.3-.5v-.5c0-.3,0-.5.2-.7s.3-.2.5-.2h.3c.1,0,.2.1.3.2,0,0,.1.2.1.3v.4c0,.4,0,.6.2.8h.1c.2,0,.3,0,.4-.1s.1-.3.1-.5,0-.4-.1-.5c0,0-.2-.2-.4-.2v-.4c.2,0,.4.1.5.2.1,0,.2.2.3.4v1.1c0,.1-.1.2-.2.3,0,0-.2.1-.3.1h-1.8c-.1,0-.2,0-.3.1v-.5h.3M183.6,142.7c0-.2-.1-.4-.2-.7v-.4s0-.1-.1-.2h-.2c-.1,0-.2,0-.3.1,0,0-.1.2-.1.4s0,.3.1.5c0,.1.2.2.3.3h.6,0Z"/>
  <line class="cls-5" x1="187.4" y1="120.5" x2="187.4" y2="120.7"/>
  <path class="cls-12" d="M186.2,124.5h3.6v.4h-1.3c.2.2.4.5.4.8s0,.4-.1.5c0,.1-.2.2-.3.3h-2.2v-.4h1.6c.2,0,.4,0,.5-.1s.2-.2.2-.4,0-.3-.1-.4c0-.1-.2-.2-.3-.2h-1.9v-.4h-.1Z"/>
  <path class="cls-12" d="M187,129.1v.5c-.3,0-.5-.2-.7-.4-.1-.2-.2-.4-.2-.7s.1-.7.3-.9.6-.3,1-.3.8.1,1,.3c.2.2.4.5.4.9s-.1.6-.4.8-.6.3-1,.3,0,0-.1,0v-1.9c-.3,0-.5,0-.7.2-.2.1-.2.3-.2.5s0,.3.1.4c0,.1.2.2.4.3M187.7,127.7v1.4c.2,0,.4,0,.5-.2.2-.1.3-.3.3-.5s0-.4-.2-.5c-.1-.1-.3-.2-.5-.2h0Z"/>
  <path class="cls-12" d="M186.2,130h2.6v.4h-.4c.2.1.3.2.4.3s0,.2,0,.3,0,.3-.1.5l-.4-.2v-.6l-.2-.2h-1.9v-.4h0Z"/>
  <path class="cls-12" d="M188.9,133.8v-.4c.1,0,.3,0,.3-.2.1-.1.2-.3.2-.4s0-.3-.1-.4-.2-.2-.4-.3-.5-.1-.8-.1c.2.1.3.2.4.4s.1.3.1.5c0,.3-.1.5-.3.7-.2.2-.5.3-.8.3s-.4,0-.6-.1c-.2,0-.3-.2-.4-.4s-.2-.4-.2-.6c0-.4.1-.7.4-.9.3-.2.7-.3,1.3-.3s1.2.1,1.5.4c.3.2.4.5.4.9s0,.5-.2.7-.4.3-.7.3M187.3,132h-.4c-.1,0-.2.2-.3.3,0,.1-.1.2-.1.4s0,.3.2.5.4.2.6.2.4,0,.6-.2.2-.3.2-.5,0-.4-.2-.5c-.1-.1-.3-.2-.6-.2h0Z"/>
  <line class="cls-5" x1="191.2" y1="120.5" x2="191.2" y2="120.7"/>
  <path class="cls-12" d="M190,124.6h2.3v-.4h.3v.4h.7c.1,0,.2.1.3.2,0,.1.1.3.1.4v.4h-.4v-.6h-.5v.5h-.3v-.5h-2.3v-.4h-.2Z"/>
  <path class="cls-12" d="M191.3,125.7c.5,0,.8.1,1.1.4.2.2.3.5.3.8s-.1.6-.4.9-.6.3-1,.3-.6,0-.8-.2c-.2-.1-.3-.2-.4-.4-.1-.2-.2-.4-.2-.6,0-.4.1-.7.3-.9s.6-.3,1-.3M191.3,126.2c-.3,0-.6,0-.7.2-.2.1-.2.3-.2.5s0,.4.2.5.4.2.8.2.6,0,.7-.2c.2-.1.2-.3.2-.5s0-.4-.2-.5-.4-.2-.7-.2h0Z"/>
  <path class="cls-12" d="M190,128.5l1.3.9,1.2-.9v.5l-.6.4c-.1,0-.2.1-.3.2.1,0,.2.1.3.2l.6.4v.5l-1.2-.9-1.4,1v-.5l.8-.5h.2c0-.1-1-.8-1-.8v-.5h.1Z"/>
  <path class="cls-12" d="M193.1,131.2h.5v.4h-.5v-.4M190,131.2h2.6v.4h-2.6v-.4h0Z"/>
  <path class="cls-12" d="M190,133.9v-.4h2.8c-.1-.1-.2-.2-.3-.4-.1-.2-.2-.3-.2-.5h.4c.1.2.3.5.4.6s.3.3.5.4v.3h-3.6,0Z"/>
  <path class="cls-12" d="M93.5,151.7v-4.3h1.9c.4,0,.7,0,.9.1.2,0,.4.2.5.4s.2.4.2.6,0,.6-.3.8-.5.3-.9.4c.1,0,.3.1.3.2.2.2.3.3.5.6l.7,1.2h-.7l-.6-.9c-.2-.3-.3-.5-.4-.6l-.3-.3c0,0-.2,0-.3-.1h-1v1.9h-.6M94.1,149.3h1.8c.1,0,.3-.1.3-.3s.1-.2.1-.4,0-.4-.2-.5c-.1-.1-.4-.2-.7-.2h-1.4v1.4h.1Z"/>
  <path class="cls-12" d="M99.9,150.7h.5c0,.4-.2.6-.5.8s-.5.3-.9.3-.8-.1-1.1-.4c-.3-.3-.4-.7-.4-1.2s.1-.9.4-1.2.6-.4,1-.4.8.1,1,.4.4.7.4,1.2,0,0,0,.1h-2.3c0,.3.1.6.3.8s.4.3.7.3.4,0,.5-.2.2-.3.3-.5M98.2,149.9h1.7c0-.3,0-.5-.2-.6-.2-.2-.4-.3-.7-.3s-.4,0-.6.2-.3.4-.3.7h.1Z"/>
  <path class="cls-12" d="M101,152h.5c0,.2,0,.3.2.4.1,0,.3.1.5.1s.4,0,.6-.1.2-.2.3-.4v-.7c-.2.3-.5.4-.9.4s-.8-.2-1-.5-.4-.7-.4-1.1,0-.6.2-.8c.1-.3.3-.4.5-.6.2-.1.4-.2.7-.2s.7.1.9.4v-.4h.5v2.7c0,.5,0,.8-.1,1,0,.2-.3.4-.5.5s-.5.2-.8.2-.7,0-.9-.3-.3-.4-.3-.8M101.5,150.1c0,.4,0,.7.2.9s.4.3.6.3.4,0,.6-.3c.2-.2.2-.5.2-.9s0-.7-.3-.9c-.2-.2-.4-.3-.6-.3s-.4,0-.6.3-.2.5-.2.8h0Z"/>
  <path class="cls-12" d="M106.5,151.7v-.5c-.2.4-.6.5-1,.5s-.4,0-.5-.1c-.2,0-.3-.2-.4-.3,0-.1-.1-.2-.2-.4v-2.4h.5v2.3c0,.1.1.2.2.3s.2.1.4.1.3,0,.4-.1c.1,0,.2-.2.3-.3v-2.3h.5v3.1h-.5.3Z"/>
  <polygon class="cls-12" points="107.8 151.7 107.8 147.4 108.4 147.4 108.4 151.7 107.8 151.7 107.8 151.7"/>
  <path class="cls-12" d="M111.1,151.3c-.2.2-.4.3-.6.4-.2,0-.4.1-.6.1-.3,0-.6,0-.8-.2s-.3-.4-.3-.6,0-.3.1-.4c0-.1.2-.2.3-.3.1,0,.2-.1.4-.2h.5c.4,0,.7-.1.9-.2h0c0-.3,0-.5-.1-.6s-.3-.2-.6-.2-.4,0-.6.1c-.1,0-.2.2-.3.5h-.5c0-.3.1-.5.2-.6s.3-.2.5-.3.4-.1.7-.1h.6c.1,0,.3.1.4.2,0,0,.1.2.2.4v2.1c0,.1,0,.3.1.4h-.6c0-.1,0-.2-.1-.4M111,150.2c-.2,0-.5.1-.9.2-.2,0-.4,0-.5.1s-.2,0-.2.2v.2c0,.1,0,.3.2.4.1,0,.3.1.5.1s.4,0,.5-.1c.2,0,.3-.2.3-.4v-.7h.1Z"/>
  <path class="cls-12" d="M113.5,151.2v.5h-.7c-.1,0-.2-.1-.2-.2v-2.4h-.4v-.4h.4v-.8l.5-.3v1.1h.5v.4h-.5v2.1h0c0,.1.1.1.2.1h.2,0Z"/>
  <path class="cls-12" d="M113.9,150.2c0-.6.2-1,.5-1.3.3-.2.6-.3,1-.3s.8.1,1,.4c.3.3.4.7.4,1.2s0,.7-.2.9c-.1.2-.3.4-.5.5s-.5.2-.8.2-.8-.1-1.1-.4c-.3-.3-.4-.7-.4-1.2M114.4,150.2c0,.4,0,.7.3.9.2.2.4.3.7.3s.5,0,.7-.3.3-.5.3-.9,0-.7-.3-.9c-.2-.2-.4-.3-.7-.3s-.5,0-.7.3-.3.5-.3.9h0Z"/>
  <path class="cls-12" d="M117.4,151.7v-3.1h.5v.5c.1-.2.2-.4.3-.4s.2-.1.3-.1c.2,0,.4,0,.5.2l-.2.5c-.1,0-.3-.1-.4-.1s-.2,0-.3.1c0,0-.2.2-.2.3v2.2h-.5,0Z"/>
  <path class="cls-12" d="M119.6,152.9v-.5h.5q0,0,.2-.2s0-.2.2-.4h0c0-.1-1.2-3.2-1.2-3.2h.6l.6,1.8c0,.2.2.5.2.7,0-.2.1-.5.2-.7l.7-1.8h.5l-1.2,3.2c-.1.3-.2.6-.3.7,0,.2-.2.3-.3.4-.1,0-.3.1-.4.1h-.3Z"/>
  <path class="cls-12" d="M124.1,152h.5c0,.2,0,.3.2.4.1,0,.3.1.5.1s.4,0,.6-.1.2-.2.3-.4v-.7c-.2.3-.5.4-.9.4s-.8-.2-1-.5-.4-.7-.4-1.1,0-.6.2-.8c.1-.3.3-.4.5-.6.2-.1.4-.2.7-.2s.7.1.9.4v-.4h.5v2.7c0,.5,0,.8-.1,1,0,.2-.3.4-.5.5s-.5.2-.8.2-.7,0-.9-.3-.3-.4-.3-.8M124.5,150.1c0,.4,0,.7.2.9s.4.3.6.3.4,0,.6-.3c.2-.2.2-.5.2-.9s0-.7-.3-.9c-.2-.2-.4-.3-.6-.3s-.4,0-.6.3-.2.5-.2.8h0Z"/>
  <path class="cls-12" d="M129.6,150.7h.5c0,.4-.2.6-.5.8s-.5.3-.9.3-.8-.1-1.1-.4c-.3-.3-.4-.7-.4-1.2s.1-.9.4-1.2.6-.4,1-.4.8.1,1,.4.4.7.4,1.2,0,0,0,.1h-2.3c0,.3.1.6.3.8s.4.3.7.3.4,0,.5-.2.2-.3.3-.5M127.9,149.9h1.7c0-.3,0-.5-.2-.6-.2-.2-.4-.3-.7-.3s-.4,0-.6.2-.3.4-.3.7h.1Z"/>
  <path class="cls-12" d="M130.9,151.7v-3.1h.5v.4c.2-.3.6-.5,1-.5s.4,0,.5.1c.2,0,.3.2.4.3s.1.2.2.4v2.4h-.5v-2.4c0-.1-.1-.2-.2-.3h-.4c-.2,0-.4,0-.6.2-.2.1-.2.4-.2.8v1.7h-.7Z"/>
  <path class="cls-12" d="M136.4,150.7h.5c0,.4-.2.6-.5.8s-.5.3-.9.3-.8-.1-1.1-.4c-.3-.3-.4-.7-.4-1.2s.1-.9.4-1.2.6-.4,1-.4.8.1,1,.4.4.7.4,1.2,0,0,0,.1h-2.3c0,.3.1.6.3.8s.4.3.7.3.4,0,.5-.2.2-.3.3-.5M134.6,149.9h1.7c0-.3,0-.5-.2-.6-.2-.2-.4-.3-.7-.3s-.4,0-.6.2-.3.4-.3.7h.1Z"/>
  <line class="cls-5" x1="31.4" y1="119.2" x2="31.2" y2="119.2"/>
  <path class="cls-12" d="M25.1,119.2c0-.4,0-.8.1-1,0-.3.2-.5.4-.6s.4-.2.6-.2.4,0,.5.1c.1,0,.3.2.4.3,0,.1.2.3.2.5v.8c0,.3,0,.8-.1,1,0,.3-.2.5-.4.6s-.4.2-.6.2-.6-.1-.8-.4-.4-.8-.4-1.5M25.5,119.2c0,.6,0,1,.2,1.2.1.2.3.3.5.3s.4,0,.5-.3c.1-.2.2-.6.2-1.2s0-1-.2-1.2c-.1-.2-.3-.3-.5-.3s-.4,0-.5.3c-.2.2-.2.6-.2,1.2h0Z"/>
  <line class="cls-5" x1="31.4" y1="102.8" x2="31.2" y2="102.8"/>
  <path class="cls-12" d="M21,102.9c0-.4,0-.8.1-1,0-.3.2-.5.4-.6s.4-.2.6-.2.4,0,.5.1c.1,0,.3.2.4.3,0,.1.2.3.2.5v.8c0,.3,0,.8-.1,1,0,.3-.2.5-.4.6s-.4.2-.6.2-.6-.1-.8-.4-.4-.8-.4-1.5M21.5,102.9c0,.6,0,1,.2,1.2.1.2.3.3.5.3s.4,0,.5-.3c.1-.2.2-.6.2-1.2s0-1-.2-1.2c-.1-.2-.3-.3-.5-.3s-.4,0-.5.3c-.2.2-.2.6-.2,1.2h0Z"/>
  <polygon class="cls-12" points="23.9 104.7 23.9 104.2 24.4 104.2 24.4 104.7 23.9 104.7 23.9 104.7"/>
  <path class="cls-12" d="M27.4,104.3v.4h-2.4v-.3c0-.2.2-.3.3-.5s.3-.3.6-.5c.4-.3.7-.6.8-.8.1-.2.2-.4.2-.5s0-.3-.2-.4c-.1-.1-.3-.2-.5-.2s-.4,0-.5.2-.2.3-.2.5h-.5c0-.4.1-.6.3-.8.2-.2.5-.3.8-.3s.6,0,.8.3c.2.2.3.4.3.7v.4c0,.1-.2.3-.3.4-.1.2-.4.4-.7.6s-.4.4-.5.5c0,0-.1.2-.2.2h1.9Z"/>
  <line class="cls-5" x1="31.4" y1="86.4" x2="31.2" y2="86.4"/>
  <path class="cls-12" d="M21,86.4c0-.4,0-.8.1-1,0-.3.2-.5.4-.6s.4-.2.6-.2.4,0,.5.1c.1,0,.3.2.4.3,0,.1.2.3.2.5v.8c0,.3,0,.8-.1,1,0,.3-.2.5-.4.6s-.4.2-.6.2-.6-.1-.8-.4-.4-.8-.4-1.5M21.5,86.4c0,.6,0,1,.2,1.2.1.2.3.3.5.3s.4,0,.5-.3c.1-.2.2-.6.2-1.2s0-1-.2-1.2c-.1-.2-.3-.3-.5-.3s-.4,0-.5.3c-.2.2-.2.6-.2,1.2h0Z"/>
  <polygon class="cls-12" points="23.9 88.1 23.9 87.6 24.4 87.6 24.4 88.1 23.9 88.1 23.9 88.1"/>
  <path class="cls-12" d="M26.5,88.1v-.9h-1.6v-.4l1.6-2.3h.4v2.3h.5v.4h-.5v.9h-.4M26.5,86.9v-1.6l-1.1,1.6h1.1Z"/>
  <line class="cls-5" x1="31.4" y1="70" x2="31.2" y2="70"/>
  <path class="cls-12" d="M21,70c0-.4,0-.8.1-1,0-.3.2-.5.4-.6s.4-.2.6-.2.4,0,.5.1c.1,0,.3.2.4.3,0,.1.2.3.2.5v.8c0,.3,0,.8-.1,1,0,.3-.2.5-.4.6s-.4.2-.6.2-.6-.1-.8-.4-.4-.8-.4-1.5M21.5,70c0,.6,0,1,.2,1.2.1.2.3.3.5.3s.4,0,.5-.3c.1-.2.2-.6.2-1.2s0-1-.2-1.2c-.1-.2-.3-.3-.5-.3s-.4,0-.5.3c-.2.2-.2.6-.2,1.2h0Z"/>
  <polygon class="cls-12" points="23.9 71.8 23.9 71.3 24.4 71.3 24.4 71.8 23.9 71.8 23.9 71.8"/>
  <path class="cls-12" d="M27.4,69.1h-.4c0-.1,0-.3-.2-.3-.1-.1-.3-.2-.4-.2s-.3,0-.4.1c-.1.1-.2.2-.3.4,0,.2-.1.5-.1.8.1-.2.2-.3.4-.4.2,0,.3-.1.5-.1.3,0,.5.1.7.3.2.2.3.5.3.8s0,.4-.1.6c0,.2-.2.3-.4.4s-.4.2-.6.2c-.4,0-.7-.1-.9-.4s-.3-.7-.3-1.3.1-1.2.4-1.5c.2-.3.5-.4.9-.4s.5,0,.7.2.3.4.3.7M25.6,70.6v.4c0,.1.2.2.3.3.1,0,.2.1.4.1s.3,0,.5-.2c.1-.1.2-.4.2-.6s0-.4-.2-.6c-.1-.1-.3-.2-.5-.2s-.4,0-.5.2c-.1.1-.2.3-.2.6h0Z"/>
  <line class="cls-5" x1="31.4" y1="53.7" x2="31.2" y2="53.7"/>
  <path class="cls-12" d="M21,53.7c0-.4,0-.8.1-1,0-.3.2-.5.4-.6s.4-.2.6-.2.4,0,.5.1c.1,0,.3.2.4.3,0,.1.2.3.2.5v.8c0,.3,0,.8-.1,1,0,.3-.2.5-.4.6s-.4.2-.6.2-.6-.1-.8-.4-.4-.8-.4-1.5M21.5,53.7c0,.6,0,1,.2,1.2.1.2.3.3.5.3s.4,0,.5-.3c.1-.2.2-.6.2-1.2s0-1-.2-1.2c-.1-.2-.3-.3-.5-.3s-.4,0-.5.3c-.2.2-.2.6-.2,1.2h0Z"/>
  <polygon class="cls-12" points="23.9 55.5 23.9 55 24.4 55 24.4 55.5 23.9 55.5 23.9 55.5"/>
  <path class="cls-12" d="M25.8,53.5c-.2,0-.3-.2-.4-.3s-.1-.3-.1-.4c0-.3,0-.5.3-.7.2-.2.4-.3.7-.3s.6,0,.8.3c.2.2.3.4.3.7s0,.3-.1.4c0,.1-.2.2-.4.3.2,0,.4.2.5.3.1.2.2.3.2.6s-.1.6-.3.8c-.2.2-.5.3-.9.3s-.6-.1-.9-.3c-.2-.2-.3-.5-.3-.8s0-.4.2-.6c.1-.2.3-.3.5-.3M25.7,52.8c0,.2,0,.3.2.4s.3.2.4.2.3,0,.4-.2c.1-.1.2-.2.2-.4s0-.3-.2-.4c-.1-.1-.2-.2-.4-.2s-.3,0-.4.2-.2.2-.2.4M25.5,54.4v.4c0,.1.1.2.3.3h.4c.2,0,.4,0,.5-.2.1-.1.2-.3.2-.5s0-.4-.2-.5c-.1-.1-.3-.2-.5-.2s-.4,0-.5.2c-.1.1-.2.3-.2.5h0Z"/>
  <line class="cls-5" x1="31.4" y1="37.3" x2="31.2" y2="37.3"/>
  <path class="cls-12" d="M22.7,39.2h-.4v-2.8c-.1.1-.2.2-.4.3-.2.1-.3.2-.5.2v-.4c.2-.1.5-.3.6-.4s.3-.3.4-.5h.3v3.6h0Z"/>
  <polygon class="cls-12" points="23.9 39.2 23.9 38.7 24.4 38.7 24.4 39.2 23.9 39.2 23.9 39.2"/>
  <path class="cls-12" d="M25.1,37.4c0-.4,0-.8.1-1,0-.3.2-.5.4-.6s.4-.2.6-.2.4,0,.5.1c.1,0,.3.2.4.3,0,.1.2.3.2.5v.8c0,.3,0,.8-.1,1,0,.3-.2.5-.4.6s-.4.2-.6.2-.6-.1-.8-.4-.4-.8-.4-1.5M25.5,37.4c0,.6,0,1,.2,1.2.1.2.3.3.5.3s.4,0,.5-.3c.1-.2.2-.6.2-1.2s0-1-.2-1.2c-.1-.2-.3-.3-.5-.3s-.4,0-.5.3c-.2.2-.2.6-.2,1.2h0Z"/>
  <path class="cls-12" d="M15.5,104.7h-4.3v-1.9c0-.4,0-.7.1-.9,0-.2.2-.4.4-.5s.4-.2.6-.2.6,0,.8.3.3.5.4.9c0-.1.1-.3.2-.3.2-.2.3-.3.6-.5l1.2-.7v.7l-.9.6c-.3.2-.5.3-.6.4s-.2.2-.3.3,0,.2-.1.3v1h1.9v.6M13.1,104.1v-1.8c0-.1-.1-.3-.3-.3s-.2-.1-.4-.1-.4,0-.5.2c-.1.1-.2.4-.2.7v1.4h1.4Z"/>
  <path class="cls-12" d="M14.5,98.3v-.5c.4,0,.6.2.8.5s.3.5.3.9-.1.8-.4,1.1c-.3.3-.7.4-1.2.4s-.9-.1-1.2-.4-.4-.6-.4-1,.1-.8.4-1,.7-.4,1.2-.4,0,0,.1,0v2.3c.3,0,.6-.1.8-.3s.3-.4.3-.7,0-.4-.2-.5-.3-.2-.5-.3M13.7,100v-1.7c-.3,0-.5,0-.6.2-.2.2-.3.4-.3.7s0,.4.2.6.4.3.7.3h0Z"/>
  <path class="cls-12" d="M15.8,97.2v-.5c.2,0,.3,0,.4-.2,0-.1.1-.3.1-.5s0-.4-.1-.6-.2-.2-.4-.3h-.7c.3.2.4.5.4.9s-.2.8-.5,1-.7.4-1.1.4-.6,0-.8-.2c-.3-.1-.4-.3-.6-.5-.1-.2-.2-.4-.2-.7s.1-.7.4-.9h-.4v-.5h2.7c.5,0,.8,0,1,.1.2,0,.4.3.5.5s.2.5.2.8,0,.7-.3.9-.4.3-.8.3M13.9,96.7c.4,0,.7,0,.9-.2s.3-.4.3-.6,0-.4-.3-.6c-.2-.2-.5-.2-.9-.2s-.7,0-.9.3c-.2.2-.3.4-.3.6s0,.4.3.6.5.2.8.2h0Z"/>
  <path class="cls-12" d="M15.5,91.7h-.5c.4.2.5.6.5,1s0,.4-.1.5c0,.2-.2.3-.3.4-.1,0-.2.1-.4.2h-2.4v-.5h2.3c.1,0,.2-.1.3-.2s.1-.2.1-.4,0-.3-.1-.4c0-.1-.2-.2-.3-.3h-2.3v-.5h3.1v.5h0v-.3Z"/>
  <polygon class="cls-12" points="15.5 90.4 11.2 90.4 11.2 89.8 15.5 89.8 15.5 90.4 15.5 90.4"/>
  <path class="cls-12" d="M15.1,86.9c.2.2.3.4.4.6,0,.2.1.4.1.6,0,.3,0,.6-.2.8s-.4.3-.6.3-.3,0-.4-.1c-.1,0-.2-.2-.3-.3,0-.1-.1-.2-.2-.4v-.5c0-.4-.1-.7-.2-.9h-.1c-.2,0-.4,0-.5.1s-.2.3-.2.6,0,.4.1.6c0,.1.2.2.5.3v.5c-.3,0-.5-.1-.6-.2s-.2-.3-.3-.5-.1-.4-.1-.7v-.6c0-.1.1-.3.2-.4l.4-.2h2.1c.1,0,.3,0,.4-.1v.6c-.1,0-.2,0-.4.1M14,86.9c0,.2.1.5.2.9,0,.2,0,.4.1.5s0,.2.2.2h.2c.1,0,.3,0,.4-.2,0-.1.1-.3.1-.5s0-.4-.1-.5c0-.2-.2-.3-.4-.3h-.7Z"/>
  <path class="cls-12" d="M15,84.7h.5v.7c0,.1-.1.2-.2.2h-2.4v.4h-.4v-.4h-.8l-.3-.5h1.1v-.5h.4v.5h2.2v-.4h-.1Z"/>
  <path class="cls-12" d="M14,84.3c-.6,0-1-.2-1.3-.5-.2-.3-.3-.6-.3-1s.1-.8.4-1c.3-.3.7-.4,1.2-.4s.7,0,.9.2c.2.1.4.3.5.5s.2.5.2.8-.1.8-.4,1.1c-.3.3-.7.4-1.2.4M14,83.8c.4,0,.7,0,.9-.3.2-.2.3-.4.3-.7s0-.5-.3-.7-.5-.3-.9-.3-.7,0-.9.3c-.2.2-.3.4-.3.7s0,.5.3.7.5.3.9.3h0Z"/>
  <path class="cls-12" d="M15.5,80.8h-3.1v-.5h.5c-.2-.1-.4-.2-.4-.3s-.1-.2-.1-.3c0-.2,0-.4.2-.5l.5.2c0,.1-.1.3-.1.4s0,.2.1.3c0,0,.2.2.3.2h2.2v.5h-.1Z"/>
  <path class="cls-12" d="M16.7,78.6h-.5v-.5q0,0-.2-.2s-.2,0-.4-.2h-.1l-3.1,1.2v-.6l1.8-.6c.2,0,.5-.2.7-.2-.2,0-.5-.1-.7-.2l-1.8-.7v-.5l3.2,1.2c.3.1.6.2.7.3.2,0,.3.2.4.3,0,.1.1.3.1.4v.3h0Z"/>
  <path class="cls-12" d="M14.6,74.3v-.5c.1,0,.3-.1.4-.2.1-.1.2-.3.2-.6s0-.4-.1-.5c0-.1-.2-.2-.3-.2s-.2,0-.3.2c0,0-.1.3-.2.5,0,.4-.2.7-.3.8,0,.1-.2.3-.3.3s-.3.1-.4.1h-.4c-.1,0-.2-.2-.3-.3,0,0-.1-.2-.2-.3v-.5c0-.2,0-.5.1-.6s.2-.3.3-.4.3-.1.5-.2v.5s-.2,0-.3.2c0,.1-.1.3-.1.5s0,.4.1.5.2.2.3.2h.2c0,0,.1-.1.1-.2,0,0,0-.2.1-.5,0-.4.2-.6.2-.8s.2-.3.3-.3.3-.1.5-.1.3,0,.5.2.3.2.4.4.1.4.1.7,0,.7-.3.9c-.2.2-.4.3-.7.4h0v-.2Z"/>
  <path class="cls-12" d="M15,69.8h.5v.7c0,.1-.1.2-.2.2h-2.4v.4h-.4v-.4h-.8l-.3-.5h1.1v-.5h.4v.5h2.2v-.4h-.1Z"/>
  <path class="cls-12" d="M15.5,69.3h-3.1v-.5h.5c-.2-.1-.4-.2-.4-.3s-.1-.2-.1-.3c0-.2,0-.4.2-.5l.5.2c0,.1-.1.3-.1.4s0,.2.1.3c0,0,.2.2.3.2h2.2v.5h-.1Z"/>
  <path class="cls-12" d="M14.5,65.2v-.5c.4,0,.6.2.8.5s.3.5.3.9-.1.8-.4,1.1c-.3.3-.7.4-1.2.4s-.9-.1-1.2-.4-.4-.6-.4-1,.1-.8.4-1,.7-.4,1.2-.4,0,0,.1,0v2.3c.3,0,.6-.1.8-.3s.3-.4.3-.7,0-.4-.2-.5-.3-.2-.5-.3M13.7,66.9v-1.7c-.3,0-.5,0-.6.2-.2.2-.3.4-.3.7s0,.4.2.6.4.3.7.3h0Z"/>
  <path class="cls-12" d="M15.5,64h-3.1v-.5h.4c-.3-.2-.5-.6-.5-1s0-.4.1-.5c0-.2.2-.3.3-.4s.2-.1.4-.2h2.4v.5h-2.4c-.1,0-.2.1-.3.2v.4c0,.2,0,.4.2.6.1.2.4.2.8.2h1.7v.5h0v.2Z"/>
  <path class="cls-12" d="M15.8,60.7v-.5c.2,0,.3,0,.4-.2,0-.1.1-.3.1-.5s0-.4-.1-.6-.2-.2-.4-.3h-.7c.3.2.4.5.4.9s-.2.8-.5,1-.7.4-1.1.4-.6,0-.8-.2c-.3-.1-.4-.3-.6-.5-.1-.2-.2-.4-.2-.7s.1-.7.4-.9h-.4v-.5h2.7c.5,0,.8,0,1,.1.2,0,.4.3.5.5s.2.5.2.8,0,.7-.3.9-.4.3-.8.3M13.9,60.3c.4,0,.7,0,.9-.2s.3-.4.3-.6,0-.4-.3-.6c-.2-.2-.5-.2-.9-.2s-.7,0-.9.3c-.2.2-.3.4-.3.6s0,.4.3.6.5.2.8.2h0Z"/>
  <path class="cls-12" d="M15,56.1h.5v.7c0,.1-.1.2-.2.2h-2.4v.4h-.4v-.4h-.8l-.3-.5h1.1v-.5h.4v.5h2.2v-.4h-.1Z"/>
  <path class="cls-12" d="M15.5,55.8h-4.3v-.5h1.5c-.3-.2-.4-.6-.4-.9s0-.4.1-.6.2-.3.4-.4.4-.1.7-.1h2v.5h-2c-.3,0-.5,0-.6.2s-.2.3-.2.5,0,.3.1.4c0,.1.2.2.3.3s.3,0,.6,0h1.7v.5h0Z"/>
  <path class="cls-7" d="M31.4,120.5V37.3M31.4,120.5h167.4"/>
  <path class="cls-12" d="M59.4,7.8l.6.2c-.1.5-.4.9-.7,1.2-.3.3-.7.4-1.2.4s-.9-.1-1.2-.3c-.3-.2-.6-.5-.7-.9-.2-.4-.2-.8-.2-1.2s0-.9.3-1.3c.2-.4.5-.6.8-.8.3-.2.7-.3,1.1-.3s.9.1,1.2.4.5.6.7,1h-.6c-.1-.2-.3-.4-.5-.6s-.5-.2-.8-.2-.7,0-.9.3c-.2.2-.4.4-.5.7,0,.3-.1.6-.1.9s0,.7.2,1c.1.3.3.5.5.7.2.1.5.2.8.2s.6,0,.9-.3.4-.5.5-.9h0l-.2-.2Z"/>
  <path class="cls-12" d="M63.1,8.3h.6c0,.4-.3.7-.5.9-.3.2-.6.3-1,.3s-.9-.2-1.2-.5-.4-.7-.4-1.3.1-1,.4-1.3c.3-.3.7-.5,1.1-.5s.8.2,1.1.5.4.7.4,1.3,0,0,0,.2h-2.5c0,.4.1.7.3.9.2.2.4.3.7.3s.4,0,.5-.2c.1-.1.3-.3.4-.5M61.3,7.4h1.9c0-.3,0-.5-.2-.6-.2-.2-.4-.3-.7-.3s-.5,0-.7.3c-.2.2-.3.4-.3.7h0Z"/>
  <polygon class="cls-12" points="64.4 9.4 64.4 4.7 65 4.7 65 9.4 64.4 9.4 64.4 9.4"/>
  <polygon class="cls-12" points="65.9 9.4 65.9 4.7 66.4 4.7 66.4 9.4 65.9 9.4 65.9 9.4"/>
  <path class="cls-12" d="M70.2,8.9v.5h-.8c-.1,0-.2-.2-.2-.3v-2.6h-.4v-.4h.4v-.8l.6-.3v1.2h.6v.4h-.6v2.3h0c0,.1.1.1.2.1h.3-.1Z"/>
  <path class="cls-12" d="M70.9,10.7v-.5h.6l.2-.2s0-.2.2-.4h0c0-.1-1.3-3.5-1.3-3.5h.6l.7,2c0,.2.2.5.2.8,0-.3.1-.5.2-.8l.7-2h.6l-1.3,3.4c-.1.4-.2.6-.3.8-.1.2-.2.3-.3.4-.1,0-.3.1-.5.1h-.4,0Z"/>
  <path class="cls-12" d="M74,10.7v-4.7h.5v.4c.1-.2.3-.3.4-.4s.3-.1.6-.1.5,0,.8.2c.2.1.4.4.5.6.1.3.2.6.2.9s0,.7-.2.9-.3.5-.5.6-.5.2-.7.2-.4,0-.5-.1c-.1,0-.3-.2-.4-.3v1.6h-.6M74.5,7.7c0,.4,0,.8.3,1,.2.2.4.3.6.3s.5-.1.7-.3c.2-.2.3-.5.3-1s0-.8-.3-1c-.2-.2-.4-.3-.6-.3s-.5.1-.6.3c-.2.2-.3.6-.3,1h-.1Z"/>
  <path class="cls-12" d="M80.2,8.3h.6c0,.4-.3.7-.5.9-.3.2-.6.3-1,.3s-.9-.2-1.2-.5c-.3-.3-.4-.7-.4-1.3s.1-1,.4-1.3.7-.5,1.1-.5.8.2,1.1.5c.3.3.4.7.4,1.3s0,0,0,.2h-2.5c0,.4.1.7.3.9s.4.3.7.3.4,0,.5-.2c.1-.1.3-.3.4-.5M78.3,7.4h1.9c0-.3,0-.5-.2-.6-.2-.2-.4-.3-.7-.3s-.5,0-.7.3c-.2.2-.3.4-.3.7h0Z"/>
  <rect class="cls-4" x="46.6" y="13.1" width="3" height="3" transform="translate(3.8 38.3) rotate(-45)"/>
  <polygon class="cls-12" points="59.4 16.1 59.4 11.8 62.5 11.8 62.5 12.3 60 12.3 60 13.6 62.4 13.6 62.4 14.2 60 14.2 60 15.6 62.6 15.6 62.6 16.1 59.4 16.1 59.4 16.1"/>
  <path class="cls-12" d="M63.4,16.1v-3.1h.5v.4c.2-.3.6-.5,1-.5s.4,0,.5.1c.2,0,.3.2.4.3s.1.2.2.4v2.4h-.5v-2.4c0-.1-.1-.2-.2-.3h-.4c-.2,0-.4,0-.6.2-.2.1-.2.4-.2.8v1.7h-.7Z"/>
  <path class="cls-12" d="M68.8,16.1v-.4c-.2.3-.5.5-.9.5s-.5,0-.7-.2-.4-.3-.5-.6c-.1-.2-.2-.5-.2-.8s0-.6.2-.8c.1-.3.3-.4.5-.6s.4-.2.7-.2.4,0,.5.1.3.2.4.3v-1.5h.5v4.3h-.5M67.1,14.6c0,.4,0,.7.3.9s.4.3.6.3.4,0,.6-.3c.2-.2.2-.5.2-.9s0-.7-.2-.9-.4-.3-.6-.3-.4,0-.6.3c-.2.2-.2.5-.2.9h0Z"/>
  <path class="cls-12" d="M70,14.6c0-.6.2-1,.5-1.3.3-.2.6-.3,1-.3s.8.1,1,.4c.3.3.4.7.4,1.2s0,.7-.2.9c-.1.2-.3.4-.5.5s-.5.2-.8.2-.8-.1-1.1-.4c-.3-.3-.4-.7-.4-1.2M70.5,14.6c0,.4,0,.7.3.9.2.2.4.3.7.3s.5,0,.7-.3.3-.5.3-.9,0-.7-.3-.9c-.2-.2-.4-.3-.7-.3s-.5,0-.7.3-.3.5-.3.9h0Z"/>
  <path class="cls-12" d="M75.3,15h.5c0,.4-.2.7-.4.9s-.5.3-.9.3-.8-.1-1-.4c-.3-.3-.4-.7-.4-1.2s0-.6.2-.9.3-.4.5-.6c.2-.1.5-.2.7-.2s.6,0,.8.3c.2.2.4.4.4.7h-.5c0-.1-.1-.3-.3-.4-.1-.1-.3-.2-.4-.2-.3,0-.5,0-.6.3s-.2.5-.2.9,0,.7.2.9.4.3.6.3.4,0,.5-.2.2-.3.3-.6h0Z"/>
  <path class="cls-12" d="M78.4,15.7c-.2.2-.4.3-.6.4-.2,0-.4.1-.6.1-.3,0-.6,0-.8-.2s-.3-.4-.3-.6,0-.3.1-.4c0-.1.2-.2.3-.3.1,0,.2-.1.4-.2h.5c.4,0,.7-.1.9-.2h0c0-.3,0-.5-.1-.6s-.3-.2-.6-.2-.4,0-.6.1c-.1,0-.2.2-.3.5h-.5c0-.3.1-.5.2-.6s.3-.2.5-.3.4-.1.7-.1h.6c.1,0,.3.1.4.2,0,0,.1.2.2.4v2.1c0,.1,0,.3.1.4h-.6c0-.1,0-.2-.1-.4M78.4,14.6c-.2,0-.5.1-.9.2-.2,0-.4,0-.5.1s-.2,0-.2.2v.2c0,.1,0,.3.2.4.1,0,.3.1.5.1s.4,0,.5-.1c.2,0,.3-.2.3-.4v-.7h.1Z"/>
  <path class="cls-12" d="M79.7,16.1v-3.1h.5v.5c.1-.2.2-.4.3-.4s.2-.1.3-.1c.2,0,.4,0,.5.2l-.2.5c-.1,0-.3-.1-.4-.1s-.2,0-.3.1c0,0-.2.2-.2.3v2.2h-.5,0Z"/>
  <path class="cls-12" d="M83.7,16.1v-.4c-.2.3-.5.5-.9.5s-.5,0-.7-.2-.4-.3-.5-.6c-.1-.2-.2-.5-.2-.8s0-.6.2-.8c.1-.3.3-.4.5-.6s.4-.2.7-.2.4,0,.5.1.3.2.4.3v-1.5h.5v4.3h-.5M82,14.6c0,.4,0,.7.3.9s.4.3.6.3.4,0,.6-.3c.2-.2.2-.5.2-.9s0-.7-.2-.9-.4-.3-.6-.3-.4,0-.6.3c-.2.2-.2.5-.2.9h0Z"/>
  <path class="cls-12" d="M85,12.4v-.6h.5v.6h-.5M85,16.1v-3.1h.5v3.1h-.5Z"/>
  <path class="cls-12" d="M88.5,16.1v-.5c-.2.4-.6.5-1,.5s-.4,0-.5-.1c-.2,0-.3-.2-.4-.3,0-.1-.1-.2-.2-.4v-2.4h.5v2.3c0,.1.1.2.2.3s.2.1.4.1.3,0,.4-.1c.1,0,.2-.2.3-.3v-2.3h.5v3.1h-.5.3Z"/>
  <path class="cls-12" d="M89.8,16.1v-3.1h.5v.4c0-.2.2-.3.4-.4.2,0,.3-.1.6-.1s.4,0,.6.1c.1,0,.3.2.3.4.2-.4.6-.5,1-.5s.5,0,.7.3c.2.2.2.4.2.8v2.1h-.5v-2.5s0-.2-.2-.2h-.3c-.2,0-.4,0-.5.2-.1.1-.2.4-.2.7v1.8h-.5v-2c0-.2,0-.4-.1-.5s-.2-.2-.4-.2-.3,0-.4.1l-.3.3c0,0,0,.4,0,.7v1.6h-.9Z"/>
  <path class="cls-3" d="M48.2,22.8c.4,0,.8-.2,1.1-.4.3-.3.4-.7.4-1.1s-.2-.8-.4-1.1c-.3-.3-.7-.4-1.1-.4s-.8.2-1.1.4c-.3.3-.4.7-.4,1.1s.2.8.4,1.1c.3.3.7.4,1.1.4h0Z"/>
  <polygon class="cls-12" points="59.5 22.8 59.5 18.5 60.1 18.5 60.1 22.8 59.5 22.8 59.5 22.8"/>
  <path class="cls-12" d="M61.1,22.8v-4.3h2.3c.2,0,.4.1.5.2,0,0,.3.2.3.4s.1.4.1.6c0,.4-.1.7-.3.9-.2.3-.7.4-1.3.4h-1.1v1.7h-.6M61.7,20.6h1.1c.4,0,.6,0,.8-.2s.2-.3.2-.6,0-.3-.1-.5c0-.1-.2-.2-.4-.3h-1.6v1.5h0Z"/>
  <path class="cls-12" d="M65,21.7h.5c0,.2.2.4.3.6.1.1.3.2.5.2s.5,0,.6-.3c.2-.2.3-.4.3-.6s0-.4-.2-.6-.4-.2-.6-.2h-.4v-.5h.1c.2,0,.4,0,.6-.2.2-.1.3-.3.3-.5s0-.4-.2-.5-.3-.2-.5-.2-.4,0-.5.2-.2.3-.3.6h-.5c0-.4.2-.7.4-.9s.5-.3.9-.3.5,0,.6.2c.2,0,.3.2.5.4.1.2.2.4.2.6s0,.4-.1.5c0,.2-.2.3-.4.4.3,0,.5.2.6.4s.2.4.2.7-.1.7-.4,1-.6.4-1,.4-.7-.1-.9-.3-.4-.5-.4-.9h0l-.2-.2Z"/>
  <rect class="cls-1" x="46.7" y="26.5" width="3" height="3"/>
  <polygon class="cls-12" points="59.5 29.6 59.5 25.3 60.1 25.3 60.1 29.6 59.5 29.6 59.5 29.6"/>
  <path class="cls-12" d="M61.1,29.6v-4.3h2.3c.2,0,.4.1.5.2,0,0,.3.2.3.4s.1.4.1.6c0,.4-.1.7-.3.9-.2.3-.7.4-1.3.4h-1.1v1.7h-.6M61.7,27.3h1.1c.4,0,.6,0,.8-.2s.2-.3.2-.6,0-.3-.1-.5c0-.1-.2-.2-.4-.3h-1.6v1.5h0Z"/>
  <path class="cls-12" d="M65,28.4h.6c0,.2.1.4.3.6.1.1.3.2.5.2s.5,0,.6-.3.3-.4.3-.8,0-.5-.3-.7c-.2-.2-.4-.3-.7-.3s-.3,0-.5.1c-.1,0-.2.2-.3.3h-.5l.4-2.3h2.1v.5h-1.7l-.2,1.2c.3-.2.5-.3.8-.3s.7.1.9.4.4.6.4,1-.1.7-.3,1c-.3.3-.7.5-1.1.5s-.7-.1-1-.3c-.2-.2-.4-.5-.4-.9h.1Z"/>
  <path class="cls-11" d="M102,28.8h.7v4.5c0,.6-.1,1-.3,1.2-.2.2-.6.4-1,.4h-.3v-.6h.2c.3,0,.5,0,.6-.2,0-.1.1-.4.1-.8v-4.5M102,27.1h.7v.9h-.7v-.9h0Z"/>
  <path class="cls-11" d="M104,31.4v-2.6h.7v2.6c0,.4,0,.7.2.9.2.2.4.3.7.3s.7-.1.9-.4c.2-.2.3-.6.3-1v-2.5h.7v4.4h-.7v-.7c-.2.3-.4.5-.6.6s-.5.2-.8.2c-.5,0-.9-.2-1.1-.5-.3-.3-.4-.8-.4-1.4M105.8,28.7h0Z"/>
  <path class="cls-11" d="M112.8,30.5v2.6h-.7v-2.6c0-.4,0-.7-.2-.9s-.4-.3-.7-.3-.7.1-.9.4-.3.6-.3,1v2.5h-.7v-4.4h.7v.7c.2-.3.4-.5.6-.6s.5-.2.8-.2c.5,0,.9.2,1.1.5.3.3.4.8.4,1.4h0Z"/>
  <path class="cls-11" d="M117.3,31c0-.5-.1-.9-.3-1.2-.2-.3-.5-.5-.9-.5s-.7.2-.9.5c-.2.3-.3.7-.3,1.2s.1.9.3,1.2c.2.3.5.4.9.4s.7-.1.9-.4c.2-.3.3-.7.3-1.2M114.9,29.4c.2-.3.3-.5.6-.6.2-.1.5-.2.8-.2.5,0,1,.2,1.3.6s.5,1,.5,1.7-.2,1.2-.5,1.7c-.3.4-.8.6-1.3.6s-.6,0-.8-.2c-.2-.1-.4-.3-.6-.6v.7h-.7v-6.1h.7v2.4h0Z"/>
  <path class="cls-11" d="M122.4,31c0-.5-.1-.9-.3-1.2-.2-.3-.5-.5-.9-.5s-.7.2-.9.5c-.2.3-.3.7-.3,1.2s.1.9.3,1.2c.2.3.5.4.9.4s.7-.1.9-.4c.2-.3.3-.7.3-1.2M119.9,29.4c.2-.3.3-.5.6-.6.2-.1.5-.2.8-.2.5,0,1,.2,1.3.6s.5,1,.5,1.7-.2,1.2-.5,1.7c-.3.4-.8.6-1.3.6s-.6,0-.8-.2c-.2-.1-.4-.3-.6-.6v.7h-.7v-6.1h.7v2.4h0Z"/>
</svg>