<?xml version="1.0" encoding="UTF-8"?>
<svg id="_图层_1" data-name=" 图层 1" xmlns="http://www.w3.org/2000/svg" version="1.1" viewBox="0 0 88 219.6">
  <defs>
    <style>
      .cls-1 {
        fill: #1a4080;
      }

      .cls-1, .cls-2, .cls-3, .cls-4, .cls-5, .cls-6, .cls-7, .cls-8, .cls-9, .cls-10, .cls-11, .cls-12, .cls-13, .cls-14, .cls-15, .cls-16, .cls-17, .cls-18, .cls-19, .cls-20, .cls-21, .cls-22, .cls-23, .cls-24, .cls-25, .cls-26, .cls-27, .cls-28 {
        stroke: #000;
      }

      .cls-1, .cls-3, .cls-4, .cls-5, .cls-6, .cls-7, .cls-8, .cls-9, .cls-10, .cls-11, .cls-12, .cls-13, .cls-14, .cls-15, .cls-16, .cls-17, .cls-18, .cls-19, .cls-20, .cls-21, .cls-22, .cls-23, .cls-24, .cls-25, .cls-26, .cls-27, .cls-28 {
        stroke-linejoin: round;
        stroke-width: .2px;
      }

      .cls-2 {
        stroke-linecap: square;
        stroke-miterlimit: 10;
        stroke-width: .5px;
      }

      .cls-2, .cls-3, .cls-29 {
        fill: none;
      }

      .cls-4 {
        fill: #b0e0d5;
      }

      .cls-5 {
        fill: #c6e9e1;
      }

      .cls-6 {
        fill: #183b7a;
      }

      .cls-7 {
        fill: #dff3ee;
      }

      .cls-8 {
        fill: #84cfbd;
      }

      .cls-9 {
        fill: #215ba4;
      }

      .cls-10 {
        fill: #2159a1;
      }

      .cls-11 {
        fill: #a9ddd1;
      }

      .cls-12 {
        fill: #86d0be;
      }

      .cls-29, .cls-30, .cls-31 {
        stroke-width: 0px;
      }

      .cls-13 {
        fill: #173571;
      }

      .cls-14 {
        fill: #1c498d;
      }

      .cls-15 {
        fill: #215ca5;
      }

      .cls-16 {
        fill: #1d4d91;
      }

      .cls-30 {
        fill: #000;
        fill-rule: evenodd;
      }

      .cls-17 {
        fill: #89d1c1;
      }

      .cls-18 {
        fill: #e0f3ee;
      }

      .cls-19 {
        fill: #20579f;
      }

      .cls-20 {
        fill: #215aa2;
      }

      .cls-31, .cls-27 {
        fill: #fff;
      }

      .cls-21 {
        fill: #1b4485;
      }

      .cls-22 {
        fill: #132860;
      }

      .cls-23 {
        fill: #8bd2c2;
      }

      .cls-24 {
        fill: #d1ede7;
      }

      .cls-25 {
        fill: #bde5dc;
      }

      .cls-26 {
        fill: #173672;
      }

      .cls-28 {
        fill: #8fd3c3;
      }
    </style>
  </defs>
  <rect class="cls-31" x="43.6" y="13.3" width="34.8" height="167.1"/>
  <path class="cls-23" d="M53.6,178.7c.4,0,.7-.1.9-.4.2-.2.4-.6.4-.9s-.1-.7-.4-.9-.6-.4-.9-.4-.7.1-.9.4-.4.6-.4.9.1.7.4.9c.2.2.6.4.9.4h0Z"/>
  <path class="cls-11" d="M53.6,174.3c.4,0,.7-.1,1-.4s.4-.6.4-1-.1-.7-.4-1-.6-.4-1-.4-.7.1-1,.4-.4.6-.4,1,.1.7.4,1,.6.4,1,.4h0Z"/>
  <path class="cls-24" d="M53.6,169.9c.4,0,.7-.1,1-.4s.4-.6.4-1-.1-.7-.4-1-.6-.4-1-.4-.7.1-1,.4-.4.6-.4,1,.1.7.4,1,.6.4,1,.4h0Z"/>
  <path class="cls-28" d="M53.6,165.5c.4,0,.7-.1,1-.4s.4-.6.4-1-.1-.7-.4-1-.6-.4-1-.4-.7.1-1,.4-.4.6-.4,1,.1.7.4,1,.6.4,1,.4h0Z"/>
  <path class="cls-28" d="M53.6,161.2c.4,0,.8-.2,1-.4.3-.3.4-.6.4-1s-.2-.8-.4-1c-.3-.3-.6-.4-1-.4s-.8.2-1,.4c-.3.3-.4.6-.4,1s.2.8.4,1,.6.4,1,.4h0Z"/>
  <path class="cls-12" d="M53.6,156.8c.4,0,.8-.2,1.1-.4.3-.3.4-.7.4-1.1s-.2-.8-.4-1.1c-.3-.3-.7-.4-1.1-.4s-.8.2-1.1.4-.4.7-.4,1.1.2.8.4,1.1c.3.3.7.4,1.1.4h0Z"/>
  <path class="cls-12" d="M53.6,152.4c.4,0,.8-.2,1.1-.4.3-.3.4-.7.4-1.1s-.2-.8-.4-1.1c-.3-.3-.7-.4-1.1-.4s-.8.2-1.1.4-.4.7-.4,1.1.2.8.4,1.1c.3.3.7.4,1.1.4h0Z"/>
  <path class="cls-8" d="M53.6,148c.4,0,.8-.2,1.1-.4.3-.3.4-.7.4-1.1s-.2-.8-.4-1.1c-.3-.3-.7-.4-1.1-.4s-.8.2-1.1.4c-.3.3-.4.7-.4,1.1s.2.8.4,1.1.7.4,1.1.4h0Z"/>
  <path class="cls-12" d="M53.6,143.6c.4,0,.8-.2,1.1-.4s.4-.7.4-1.1-.2-.8-.4-1.1c-.3-.3-.7-.4-1.1-.4s-.8.2-1.1.4c-.3.3-.4.7-.4,1.1s.2.8.4,1.1c.3.3.7.4,1.1.4h0Z"/>
  <path class="cls-7" d="M53.6,139.3c.4,0,.8-.2,1.1-.4.3-.3.4-.7.4-1.1s-.2-.8-.4-1.1c-.3-.3-.7-.4-1.1-.4s-.8.2-1.1.4c-.3.3-.4.7-.4,1.1s.2.8.4,1.1c.3.3.7.4,1.1.4h0Z"/>
  <path class="cls-10" d="M53.6,134.7c.3,0,.7-.1.9-.4.2-.2.4-.6.4-.9s-.1-.7-.4-.9-.6-.4-.9-.4-.7.1-.9.4-.4.6-.4.9.1.7.4.9c.2.2.6.4.9.4h0Z"/>
  <path class="cls-21" d="M53.6,130.5c.4,0,.8-.2,1.1-.4s.4-.7.4-1.1-.2-.8-.4-1.1-.7-.4-1.1-.4-.8.2-1.1.4c-.3.3-.4.7-.4,1.1s.2.8.4,1.1c.3.3.7.4,1.1.4h0Z"/>
  <path class="cls-21" d="M53.6,126.1c.4,0,.8-.2,1.1-.4s.4-.7.4-1.1-.2-.8-.4-1.1c-.3-.3-.7-.4-1.1-.4s-.8.2-1.1.4c-.3.3-.4.7-.4,1.1s.2.8.4,1.1c.3.3.7.4,1.1.4h0Z"/>
  <path class="cls-13" d="M53.6,121.7c.4,0,.8-.2,1.1-.5.3-.3.5-.7.5-1.1s-.2-.8-.5-1.1-.7-.5-1.1-.5-.8.2-1.1.5c-.3.3-.5.7-.5,1.1s.2.8.5,1.1.7.5,1.1.5h0Z"/>
  <path class="cls-1" d="M53.6,117.3c.4,0,.8-.2,1.1-.5s.5-.7.5-1.1-.2-.8-.5-1.1c-.3-.3-.7-.5-1.1-.5s-.8.2-1.1.5c-.3.3-.5.7-.5,1.1s.2.8.5,1.1c.3.3.7.5,1.1.5h0Z"/>
  <path class="cls-14" d="M53.6,112.9c.4,0,.8-.2,1.1-.5s.5-.7.5-1.1-.2-.8-.5-1.1c-.3-.3-.7-.5-1.1-.5s-.8.2-1.1.5c-.3.3-.5.7-.5,1.1s.2.8.5,1.1c.3.3.7.5,1.1.5h0Z"/>
  <path class="cls-20" d="M53.6,108.5c.4,0,.8-.2,1.1-.5s.5-.7.5-1.1-.2-.8-.5-1.1c-.3-.3-.7-.5-1.1-.5s-.8.2-1.1.5c-.3.3-.5.7-.5,1.1s.2.8.5,1.1c.3.3.7.5,1.1.5h0Z"/>
  <path class="cls-22" d="M53.6,104.7c.6,0,1.1-.2,1.5-.6s.6-.9.6-1.5-.2-1.1-.6-1.5-.9-.6-1.5-.6-1.1.2-1.5.6-.6.9-.6,1.5.2,1.1.6,1.5.9.6,1.5.6h0Z"/>
  <path class="cls-22" d="M53.6,100.5c.6,0,1.2-.2,1.6-.7.4-.4.7-1,.7-1.6s-.2-1.2-.7-1.6c-.4-.4-1-.7-1.6-.7s-1.2.2-1.6.7c-.4.4-.7,1-.7,1.6s.2,1.2.7,1.6c.4.4,1,.7,1.6.7h0Z"/>
  <path class="cls-22" d="M53.6,96.1c.6,0,1.2-.2,1.6-.7s.7-1,.7-1.6-.2-1.2-.7-1.6c-.4-.4-1-.7-1.6-.7s-1.2.2-1.6.7c-.4.4-.7,1-.7,1.6s.2,1.2.7,1.6,1,.7,1.6.7h0Z"/>
  <path class="cls-22" d="M53.6,91.7c.6,0,1.2-.2,1.6-.7.4-.4.7-1,.7-1.6s-.2-1.2-.7-1.6c-.4-.4-1-.7-1.6-.7s-1.2.2-1.6.7c-.4.4-.7,1-.7,1.6s.2,1.2.7,1.6c.4.4,1,.7,1.6.7h0Z"/>
  <path class="cls-22" d="M53.6,87.3c.6,0,1.2-.2,1.6-.7.4-.4.7-1,.7-1.6s-.2-1.2-.7-1.6c-.4-.4-1-.7-1.6-.7s-1.2.2-1.6.7c-.4.4-.7,1-.7,1.6s.2,1.2.7,1.6c.4.4,1,.7,1.6.7h0Z"/>
  <path class="cls-22" d="M53.6,82.9c.6,0,1.2-.2,1.6-.7.4-.4.7-1,.7-1.6s-.2-1.2-.7-1.6c-.4-.4-1-.7-1.6-.7s-1.2.2-1.6.7c-.4.4-.7,1-.7,1.6s.2,1.2.7,1.6c.4.4,1,.7,1.6.7h0Z"/>
  <path class="cls-22" d="M53.6,78.5c.6,0,1.2-.2,1.6-.7.4-.4.7-1,.7-1.6s-.2-1.2-.7-1.6c-.4-.4-1-.7-1.6-.7s-1.2.2-1.6.7c-.4.4-.7,1-.7,1.6s.2,1.2.7,1.6c.4.4,1,.7,1.6.7h0Z"/>
  <path class="cls-22" d="M53.6,74.1c.6,0,1.2-.2,1.6-.7.4-.4.7-1,.7-1.6s-.2-1.2-.7-1.6c-.4-.4-1-.7-1.6-.7s-1.2.2-1.6.7c-.4.4-.7,1-.7,1.6s.2,1.2.7,1.6c.4.4,1,.7,1.6.7h0Z"/>
  <path class="cls-22" d="M53.6,69.7c.6,0,1.2-.2,1.6-.7.4-.4.7-1,.7-1.6s-.2-1.2-.7-1.6c-.4-.4-1-.7-1.6-.7s-1.2.2-1.6.7c-.4.4-.7,1-.7,1.6s.2,1.2.7,1.6c.4.4,1,.7,1.6.7h0Z"/>
  <path class="cls-22" d="M53.6,65.3c.6,0,1.2-.2,1.6-.7.4-.4.7-1,.7-1.6s-.2-1.2-.7-1.6c-.4-.4-1-.7-1.6-.7s-1.2.2-1.6.7c-.4.4-.7,1-.7,1.6s.2,1.2.7,1.6c.4.4,1,.7,1.6.7h0Z"/>
  <path class="cls-22" d="M53.6,60.9c.6,0,1.2-.2,1.6-.7.4-.4.7-1,.7-1.6s-.2-1.2-.7-1.6c-.4-.4-1-.7-1.6-.7s-1.2.2-1.6.7c-.4.4-.7,1-.7,1.6s.2,1.2.7,1.6c.4.4,1,.7,1.6.7h0Z"/>
  <path class="cls-22" d="M53.6,56.5c.6,0,1.2-.2,1.6-.7.4-.4.7-1,.7-1.6s-.2-1.2-.7-1.6c-.4-.4-1-.7-1.6-.7s-1.2.2-1.6.7c-.4.4-.7,1-.7,1.6s.2,1.2.7,1.6c.4.4,1,.7,1.6.7h0Z"/>
  <path class="cls-22" d="M53.6,52.1c.6,0,1.2-.2,1.6-.7.4-.4.7-1,.7-1.6s-.2-1.2-.7-1.6c-.4-.4-1-.7-1.6-.7s-1.2.2-1.6.7c-.4.4-.7,1-.7,1.6s.2,1.2.7,1.6c.4.4,1,.7,1.6.7h0Z"/>
  <path class="cls-22" d="M53.6,47.9c.7,0,1.3-.3,1.8-.7.5-.5.7-1.1.7-1.8s-.3-1.3-.7-1.8c-.5-.5-1.1-.7-1.8-.7s-1.3.3-1.8.7c-.5.5-.7,1.1-.7,1.8s.3,1.3.7,1.8c.5.5,1.1.7,1.8.7h0Z"/>
  <path class="cls-22" d="M53.6,43.5c.7,0,1.3-.3,1.8-.7.5-.5.7-1.1.7-1.8s-.3-1.3-.7-1.8c-.5-.5-1.1-.7-1.8-.7s-1.3.3-1.8.7c-.5.5-.7,1.1-.7,1.8s.3,1.3.7,1.8c.5.5,1.1.7,1.8.7h0Z"/>
  <path class="cls-22" d="M53.6,39.1c.7,0,1.3-.3,1.8-.7.5-.5.7-1.1.7-1.8s-.3-1.3-.7-1.8c-.5-.5-1.1-.7-1.8-.7s-1.3.3-1.8.7c-.5.5-.7,1.1-.7,1.8s.3,1.3.7,1.8c.5.5,1.1.7,1.8.7h0Z"/>
  <path class="cls-22" d="M53.6,34.7c.7,0,1.3-.3,1.8-.7.5-.5.7-1.1.7-1.8s-.3-1.3-.7-1.8c-.5-.5-1.1-.7-1.8-.7s-1.3.3-1.8.7c-.5.5-.7,1.1-.7,1.8s.3,1.3.7,1.8c.5.5,1.1.7,1.8.7h0Z"/>
  <path class="cls-22" d="M53.6,30.3c.7,0,1.3-.3,1.8-.7.5-.5.7-1.1.7-1.8s-.3-1.3-.7-1.8c-.5-.5-1.1-.7-1.8-.7s-1.3.3-1.8.7-.7,1.1-.7,1.8.3,1.3.7,1.8c.5.5,1.1.7,1.8.7h0Z"/>
  <path class="cls-22" d="M53.6,26.2c.8,0,1.5-.3,2-.8s.8-1.3.8-2-.3-1.5-.8-2-1.3-.8-2-.8-1.5.3-2,.8-.8,1.3-.8,2,.3,1.5.8,2,1.3.8,2,.8h0Z"/>
  <rect class="cls-29" x="43.6" y="13.3" width="34.8" height="167.1"/>
  <g>
    <path class="cls-22" d="M53.6,21.8c.8,0,1.5-.3,2-.8s.8-1.3.8-2-.3-1.5-.8-2-1.3-.8-2-.8-1.5.3-2,.8-.8,1.3-.8,2,.3,1.5.8,2,1.3.8,2,.8h0Z"/>
    <path class="cls-22" d="M53.6,17.8c.8,0,1.6-.3,2.2-.9s.9-1.4.9-2.2-.3-1.6-.9-2.2-1.4-.9-2.2-.9-1.6.3-2.2.9-.9,1.4-.9,2.2.3,1.6.9,2.2,1.4.9,2.2.9h0Z"/>
  </g>
  <path class="cls-10" d="M68.5,179.8c.7,0,1.3-.3,1.8-.7.5-.5.7-1.1.7-1.8s-.3-1.3-.7-1.8c-.5-.5-1.1-.7-1.8-.7s-1.3.3-1.8.7c-.5.5-.7,1.1-.7,1.8s.3,1.3.7,1.8c.5.5,1.1.7,1.8.7h0Z"/>
  <path class="cls-16" d="M68.5,175.4c.6,0,1.3-.3,1.7-.7s.7-1.1.7-1.7-.3-1.3-.7-1.7-1.1-.7-1.7-.7-1.3.3-1.7.7-.7,1.1-.7,1.7.3,1.3.7,1.7,1.1.7,1.7.7h0Z"/>
  <path class="cls-6" d="M68.5,170.8c.6,0,1.2-.2,1.6-.7s.7-1,.7-1.6-.2-1.2-.7-1.6c-.4-.4-1-.7-1.6-.7s-1.2.2-1.6.7c-.4.4-.7,1-.7,1.6s.2,1.2.7,1.6c.4.4,1,.7,1.6.7h0Z"/>
  <path class="cls-19" d="M68.5,166.4c.6,0,1.2-.2,1.6-.7.4-.4.7-1,.7-1.6s-.2-1.2-.7-1.6c-.4-.4-1-.7-1.6-.7s-1.2.2-1.6.7c-.4.4-.7,1-.7,1.6s.2,1.2.7,1.6,1,.7,1.6.7h0Z"/>
  <path class="cls-19" d="M68.5,161.8c.6,0,1.1-.2,1.5-.6s.6-.9.6-1.5-.2-1.1-.6-1.5-.9-.6-1.5-.6-1.1.2-1.5.6-.6.9-.6,1.5.2,1.1.6,1.5.9.6,1.5.6h0Z"/>
  <path class="cls-9" d="M68.5,157.3c.5,0,1-.2,1.4-.6s.6-.9.6-1.4-.2-1-.6-1.4-.9-.6-1.4-.6-1,.2-1.4.6-.6.9-.6,1.4.2,1,.6,1.4.9.6,1.4.6h0Z"/>
  <path class="cls-9" d="M68.5,152.9c.5,0,1-.2,1.4-.6s.6-.9.6-1.4-.2-1-.6-1.4-.9-.6-1.4-.6-1,.2-1.4.6-.6.9-.6,1.4.2,1,.6,1.4.9.6,1.4.6h0Z"/>
  <path class="cls-15" d="M68.5,148.5c.5,0,1-.2,1.4-.6s.6-.9.6-1.4-.2-1-.6-1.4-.9-.6-1.4-.6-1,.2-1.4.6-.6.9-.6,1.4.2,1,.6,1.4.9.6,1.4.6h0Z"/>
  <path class="cls-9" d="M68.5,144.1c.5,0,1-.2,1.4-.6s.6-.9.6-1.4-.2-1-.6-1.4-.9-.6-1.4-.6-1,.2-1.4.6-.6.9-.6,1.4.2,1,.6,1.4.9.6,1.4.6h0Z"/>
  <path class="cls-26" d="M68.5,139.6c.5,0,.9-.2,1.3-.5s.5-.8.5-1.3-.2-.9-.5-1.3c-.3-.3-.8-.5-1.3-.5s-.9.2-1.3.5c-.3.3-.5.8-.5,1.3s.2.9.5,1.3c.3.3.8.5,1.3.5h0Z"/>
  <path class="cls-23" d="M68.5,135.9c.7,0,1.3-.3,1.8-.7.5-.5.7-1.1.7-1.8s-.3-1.3-.7-1.8c-.5-.5-1.1-.7-1.8-.7s-1.3.3-1.8.7-.7,1.1-.7,1.8.3,1.3.7,1.8,1.1.7,1.8.7h0Z"/>
  <path class="cls-25" d="M68.5,130.8c.5,0,1-.2,1.3-.5s.5-.8.5-1.3-.2-1-.5-1.3-.8-.5-1.3-.5-1,.2-1.3.5-.5.8-.5,1.3.2,1,.5,1.3.8.5,1.3.5h0Z"/>
  <path class="cls-25" d="M68.5,126.4c.5,0,1-.2,1.3-.5s.5-.8.5-1.3-.2-1-.5-1.3-.8-.5-1.3-.5-1,.2-1.3.5-.5.8-.5,1.3.2,1,.5,1.3.8.5,1.3.5h0Z"/>
  <path class="cls-18" d="M68.5,121.7c.4,0,.8-.2,1.1-.5.3-.3.5-.7.5-1.1s-.2-.8-.5-1.1c-.3-.3-.7-.5-1.1-.5s-.8.2-1.1.5c-.3.3-.5.7-.5,1.1s.2.8.5,1.1c.3.3.7.5,1.1.5h0Z"/>
  <path class="cls-5" d="M68.5,117.3c.4,0,.8-.2,1.1-.5.3-.3.5-.7.5-1.1s-.2-.8-.5-1.1c-.3-.3-.7-.5-1.1-.5s-.8.2-1.1.5c-.3.3-.5.7-.5,1.1s.2.8.5,1.1c.3.3.7.5,1.1.5h0Z"/>
  <path class="cls-4" d="M68.5,112.9c.4,0,.8-.2,1.1-.5.3-.3.5-.7.5-1.1s-.2-.8-.5-1.1c-.3-.3-.7-.5-1.1-.5s-.8.2-1.1.5c-.3.3-.5.7-.5,1.1s.2.8.5,1.1c.3.3.7.5,1.1.5h0Z"/>
  <path class="cls-17" d="M68.5,108.5c.4,0,.8-.2,1.1-.5.3-.3.5-.7.5-1.1s-.2-.8-.5-1.1c-.3-.3-.7-.5-1.1-.5s-.8.2-1.1.5c-.3.3-.5.7-.5,1.1s.2.8.5,1.1c.3.3.7.5,1.1.5h0Z"/>
  <path class="cls-27" d="M68.5,104c.4,0,.8-.2,1-.4.3-.3.4-.6.4-1s-.2-.8-.4-1c-.3-.3-.6-.4-1-.4s-.8.2-1,.4-.4.6-.4,1,.2.8.4,1,.6.4,1,.4h0Z"/>
  <path class="cls-27" d="M68.5,99.6c.4,0,.7-.1,1-.4s.4-.6.4-1-.1-.7-.4-1-.6-.4-1-.4-.7.1-1,.4-.4.6-.4,1,.1.7.4,1,.6.4,1,.4h0Z"/>
  <path class="cls-27" d="M68.5,95.2c.4,0,.7-.1,1-.4s.4-.6.4-1-.1-.7-.4-1-.6-.4-1-.4-.7.1-1,.4-.4.6-.4,1,.1.7.4,1,.6.4,1,.4h0Z"/>
  <path class="cls-27" d="M68.5,90.8c.4,0,.7-.1,1-.4s.4-.6.4-1-.1-.7-.4-1-.6-.4-1-.4-.7.1-1,.4-.4.6-.4,1,.1.7.4,1,.6.4,1,.4h0Z"/>
  <path class="cls-27" d="M68.5,86.4c.4,0,.7-.1,1-.4s.4-.6.4-1-.1-.7-.4-1-.6-.4-1-.4-.7.1-1,.4-.4.6-.4,1,.1.7.4,1,.6.4,1,.4h0Z"/>
  <path class="cls-27" d="M68.5,82c.4,0,.7-.1,1-.4s.4-.6.4-1-.1-.7-.4-1-.6-.4-1-.4-.7.1-1,.4-.4.6-.4,1,.1.7.4,1,.6.4,1,.4h0Z"/>
  <path class="cls-27" d="M68.5,77.6c.4,0,.7-.1,1-.4s.4-.6.4-1-.1-.7-.4-1-.6-.4-1-.4-.7.1-1,.4-.4.6-.4,1,.1.7.4,1,.6.4,1,.4h0Z"/>
  <path class="cls-27" d="M68.5,73.2c.4,0,.7-.1,1-.4s.4-.6.4-1-.1-.7-.4-1-.6-.4-1-.4-.7.1-1,.4-.4.6-.4,1,.1.7.4,1,.6.4,1,.4h0Z"/>
  <path class="cls-27" d="M68.5,68.8c.4,0,.7-.1,1-.4s.4-.6.4-1-.1-.7-.4-1-.6-.4-1-.4-.7.1-1,.4-.4.6-.4,1,.1.7.4,1,.6.4,1,.4h0Z"/>
  <path class="cls-27" d="M68.5,64.4c.4,0,.7-.1,1-.4s.4-.6.4-1-.1-.7-.4-1-.6-.4-1-.4-.7.1-1,.4-.4.6-.4,1,.1.7.4,1,.6.4,1,.4h0Z"/>
  <path class="cls-27" d="M68.5,60c.4,0,.7-.1,1-.4s.4-.6.4-1-.1-.7-.4-1-.6-.4-1-.4-.7.1-1,.4-.4.6-.4,1,.1.7.4,1,.6.4,1,.4h0Z"/>
  <path class="cls-27" d="M68.5,55.6c.4,0,.7-.1,1-.4s.4-.6.4-1-.1-.7-.4-1-.6-.4-1-.4-.7.1-1,.4-.4.6-.4,1,.1.7.4,1,.6.4,1,.4h0Z"/>
  <path class="cls-27" d="M68.5,51.2c.4,0,.7-.1,1-.4s.4-.6.4-1-.1-.7-.4-1-.6-.4-1-.4-.7.1-1,.4-.4.6-.4,1,.1.7.4,1,.6.4,1,.4h0Z"/>
  <path class="cls-27" d="M68.5,46.7c.4,0,.7-.1.9-.4.2-.2.4-.6.4-.9s-.1-.7-.4-.9c-.2-.2-.6-.4-.9-.4s-.7.1-.9.4-.4.6-.4.9.1.7.4.9c.2.2.6.4.9.4h0Z"/>
  <path class="cls-27" d="M68.5,42.3c.4,0,.7-.1.9-.4.2-.2.4-.6.4-.9s-.1-.7-.4-.9c-.2-.2-.6-.4-.9-.4s-.7.1-.9.4-.4.6-.4.9.1.7.4.9.6.4.9.4h0Z"/>
  <path class="cls-27" d="M68.5,37.9c.4,0,.7-.1.9-.4.2-.2.4-.6.4-.9s-.1-.7-.4-.9c-.2-.2-.6-.4-.9-.4s-.7.1-.9.4c-.2.2-.4.6-.4.9s.1.7.4.9.6.4.9.4h0Z"/>
  <path class="cls-27" d="M68.5,33.5c.4,0,.7-.1.9-.4.2-.2.4-.6.4-.9s-.1-.7-.4-.9c-.2-.2-.6-.4-.9-.4s-.7.1-.9.4-.4.6-.4.9.1.7.4.9c.2.2.6.4.9.4h0Z"/>
  <path class="cls-27" d="M68.5,29.1c.4,0,.7-.1.9-.4.2-.2.4-.6.4-.9s-.1-.7-.4-.9c-.2-.2-.6-.4-.9-.4s-.7.1-.9.4-.4.6-.4.9.1.7.4.9.6.4.9.4h0Z"/>
  <path class="cls-27" d="M68.5,24.6c.3,0,.6-.1.8-.3s.3-.5.3-.8-.1-.6-.3-.8-.5-.3-.8-.3-.6.1-.8.3-.3.5-.3.8.1.6.3.8.5.3.8.3h0Z"/>
  <path class="cls-27" d="M68.5,20.2c.3,0,.6-.1.8-.3s.3-.5.3-.8-.1-.6-.3-.8-.5-.3-.8-.3-.6.1-.8.3-.3.5-.3.8.1.6.3.8.5.3.8.3h0Z"/>
  <path class="cls-27" d="M68.5,15.6c.3,0,.5-.1.7-.3.2-.2.3-.4.3-.7s-.1-.5-.3-.7c-.2-.2-.4-.3-.7-.3s-.5.1-.7.3c-.2.2-.3.4-.3.7s.1.5.3.7c.2.2.4.3.7.3h0Z"/>
  <line class="cls-3" x1="53.6" y1="180.4" x2="53.6" y2="181.4"/>
  <polygon class="cls-30" points="54.8 214 51.2 214 51.2 211.4 51.6 211.4 51.6 213.5 52.7 213.5 52.7 211.5 53.1 211.5 53.1 213.5 54.4 213.5 54.4 211.3 54.8 211.3 54.8 214 54.8 214"/>
  <path class="cls-30" d="M54.8,210.7h-2.6v-.4h.4c-.3-.2-.4-.5-.4-.8v-.4c0,0,.1-.2.2-.3,0,0,.2,0,.3,0h2v.4h-2s-.2,0-.2.2v.3c0,.2,0,.3.2.5.1,0,.3.2.7.2h1.4v.4h0Z"/>
  <path class="cls-30" d="M54.8,206.4h-.3c.3.2.4.4.4.7s0,.4-.2.6c-.1.2-.3.3-.5.4-.2,0-.4,0-.7,0s-.5,0-.7,0c-.2,0-.4-.2-.5-.4s-.2-.4-.2-.6,0-.3.1-.4.2-.2.3-.3h-1.3v-.4h3.6v.4M53.5,207.8c.3,0,.6,0,.7-.2.2,0,.2-.3.2-.5s0-.4-.2-.5-.4-.2-.7-.2-.6,0-.8.2c-.2,0-.2.3-.2.5s0,.4.2.5.4.2.8.2h0Z"/>
  <path class="cls-30" d="M53.5,205.3c-.5,0-.8,0-1.1-.4-.2-.2-.3-.5-.3-.8s.1-.6.4-.9c.2-.2.6-.3,1-.3s.6,0,.8.2c.2,0,.3.2.4.4s.2.4.2.6c0,.4-.1.7-.3.9-.2.2-.6.3-1,.3M53.5,204.9c.3,0,.6,0,.7-.2.2,0,.2-.3.2-.5s0-.4-.2-.5-.4-.2-.8-.2-.6,0-.7.2c-.2,0-.2.3-.2.5s0,.4.2.5.4.2.7.2h0Z"/>
  <path class="cls-30" d="M53.8,200.6v-.4c.4,0,.6.2.8.4s.3.4.3.7-.1.6-.3.9c-.2.2-.6.3-1,.3s-.5,0-.7,0c-.2,0-.4-.2-.5-.4s-.2-.4-.2-.6,0-.5.2-.7c.1-.2.3-.3.6-.3v.4c-.1,0-.2.1-.3.2,0,.1-.1.2-.1.4s0,.4.2.5.4.2.8.2.6,0,.8-.2c.2,0,.2-.3.2-.5s0-.3-.2-.4c-.1-.1-.3-.2-.5-.2h0v-.2Z"/>
  <path class="cls-30" d="M54.5,198.2c.1.2.2.3.3.5v.5c0,.3,0,.5-.2.7s-.3.2-.5.2h-.3c-.1,0-.2-.1-.3-.2,0,0-.1-.2-.1-.3v-.4c0-.4,0-.6-.2-.8h-.1c-.2,0-.3,0-.4.1s-.1.3-.1.5,0,.4.1.5c0,0,.2.2.4.2v.4c-.2,0-.4-.1-.5-.2-.1,0-.2-.2-.3-.4v-1.1c0-.1.1-.2.2-.3,0,0,.2-.1.3-.1h1.8c.1,0,.2,0,.3-.1v.5h-.3M53.5,198.2c0,.2.1.4.2.7v.4s0,.1.1.2h.2c.1,0,.2,0,.3-.1,0,0,.1-.2.1-.4s0-.3-.1-.5c0-.1-.2-.2-.3-.3h-.6,0Z"/>
  <path class="cls-30" d="M54.8,197h-2.6v-.4h.4c-.2-.1-.3-.2-.4-.3s0-.2,0-.3,0-.3.1-.5l.4.2v.6l.2.2h1.9v.4h0Z"/>
  <path class="cls-30" d="M54.8,193.7h-.3c.3.2.4.4.4.7s0,.4-.2.6c-.1.2-.3.3-.5.4-.2,0-.4.1-.7.1s-.5,0-.7-.1c-.2,0-.4-.2-.5-.4-.1-.2-.2-.4-.2-.6s0-.3.1-.4l.3-.3h-1.3v-.4h3.6v.4M53.5,195c.3,0,.6,0,.7-.2.2-.1.2-.3.2-.5s0-.4-.2-.5-.4-.2-.7-.2-.6,0-.8.2c-.2.1-.2.3-.2.5s0,.4.2.5.4.2.8.2h0Z"/>
  <path class="cls-30" d="M51.7,192.7h-.5v-.4h.5v.4M54.8,192.7h-2.6v-.4h2.6v.4h0Z"/>
  <path class="cls-30" d="M54.8,189.8h-.4c.3.2.4.5.4.8v.4c0,.1-.1.2-.2.3,0,0-.2.1-.3.1h-2v-.4h1.9c.1,0,.2,0,.3-.2v-.3c0,0,0-.3-.1-.4,0-.1-.2-.2-.3-.2h-1.9v-.4h2.6v.4h0Z"/>
  <path class="cls-30" d="M54.8,188.9h-2.6v-.4h.4c-.1,0-.2-.2-.3-.3,0-.1-.1-.3-.1-.5s0-.3.1-.5c0-.1.2-.2.3-.3-.3-.2-.5-.5-.5-.8s0-.5.2-.6c.1-.1.4-.2.7-.2h1.8v.4h-2s-.1,0-.2.2v.3c0,.2,0,.3.2.5s.3.2.6.2h1.5v.4h-1.7c-.2,0-.3,0-.4.1,0,0-.1.2-.1.4v.3c0,.1.2.2.3.2h1.8v.4h0v.2Z"/>
  <line class="cls-3" x1="68.5" y1="180.4" x2="68.5" y2="181.4"/>
  <polygon class="cls-30" points="69.9 209.4 66.3 209.4 66.3 206.8 66.7 206.8 66.7 209 67.8 209 67.8 207 68.3 207 68.3 209 69.5 209 69.5 206.8 69.9 206.8 69.9 209.4 69.9 209.4"/>
  <path class="cls-30" d="M70.9,206.4h-3.6v-.4h.3c-.1,0-.2-.2-.3-.3,0,0-.1-.3-.1-.4s0-.4.2-.6c.1-.2.3-.3.5-.4.2,0,.4,0,.7,0s.5,0,.7,0,.4.2.5.4.2.4.2.6v.4c0,0-.1.2-.2.3h1.3v.4M68.6,206c.3,0,.6,0,.7-.2.2,0,.2-.3.2-.5s0-.4-.2-.5-.4-.2-.8-.2-.6,0-.7.2c-.2,0-.2.3-.2.5s0,.4.3.5c.2,0,.4.2.8.2h0Z"/>
  <path class="cls-30" d="M66.8,203.5h-.5v-.4h.5v.4M69.9,203.5h-2.6v-.4h2.6v.4h0Z"/>
  <path class="cls-30" d="M69,200.6v-.4c.4,0,.6.2.8.4s.3.4.3.7-.1.6-.3.9c-.2.2-.6.3-1,.3s-.5,0-.7,0c-.2,0-.4-.2-.5-.4s-.2-.4-.2-.6,0-.5.2-.7c.1-.2.3-.3.6-.3v.4c-.1,0-.2.1-.3.2,0,.1-.1.2-.1.4s0,.4.2.5.4.2.8.2.6,0,.8-.2c.2,0,.2-.3.2-.5s0-.3-.2-.4c-.1-.1-.3-.2-.5-.2h0v-.2Z"/>
  <path class="cls-30" d="M69.6,198.2c.1.2.2.3.3.5v.5c0,.3,0,.5-.2.7s-.3.2-.5.2h-.3c-.1,0-.2-.1-.3-.2,0,0-.1-.2-.1-.3v-.4c0-.4,0-.6-.2-.8h-.1c-.2,0-.3,0-.4.1s-.1.3-.1.5,0,.4.1.5c0,0,.2.2.4.2v.4c-.2,0-.4-.1-.5-.2-.1,0-.2-.2-.3-.4v-1.1c0-.1.1-.2.2-.3,0,0,.2-.1.3-.1h1.8c.1,0,.2,0,.3-.1v.5h-.3M68.6,198.2c0,.2.1.4.2.7v.4s0,.1.1.2h.2c.1,0,.2,0,.3-.1,0,0,.1-.2.1-.4s0-.3-.1-.5c0-.1-.2-.2-.3-.3h-.6,0Z"/>
  <path class="cls-30" d="M69.9,197h-2.6v-.4h.4c-.2-.1-.3-.2-.4-.3s0-.2,0-.3,0-.3.1-.5l.4.2v.6l.2.2h1.9v.4h0Z"/>
  <path class="cls-30" d="M69.9,193.7h-.3c.3.2.4.4.4.7s0,.4-.2.6c-.1.2-.3.3-.5.4-.2,0-.4.1-.7.1s-.5,0-.7-.1c-.2,0-.4-.2-.5-.4-.1-.2-.2-.4-.2-.6s0-.3.1-.4l.3-.3h-1.3v-.4h3.6v.4M68.6,195c.3,0,.6,0,.7-.2.2-.1.2-.3.2-.5s0-.4-.2-.5-.4-.2-.7-.2-.6,0-.8.2c-.2.1-.2.3-.2.5s0,.4.2.5.4.2.8.2h0Z"/>
  <path class="cls-30" d="M66.8,192.7h-.5v-.4h.5v.4M69.9,192.7h-2.6v-.4h2.6v.4h0Z"/>
  <path class="cls-30" d="M69.9,189.8h-.4c.3.2.4.5.4.8v.4c0,.1-.1.2-.2.3,0,0-.2.1-.3.1h-2v-.4h1.9c.1,0,.2,0,.3-.2v-.3c0,0,0-.3-.1-.4,0-.1-.2-.2-.3-.2h-1.9v-.4h2.6v.4h0Z"/>
  <path class="cls-30" d="M69.9,188.9h-2.6v-.4h.4c-.1,0-.2-.2-.3-.3,0-.1-.1-.3-.1-.5s0-.3.1-.5c0-.1.2-.2.3-.3-.3-.2-.5-.5-.5-.8s0-.5.2-.6c.1-.1.4-.2.7-.2h1.8v.4h-2s-.1,0-.2.2v.3c0,.2,0,.3.2.5s.3.2.6.2h1.5v.4h-1.7c-.2,0-.3,0-.4.1,0,0-.1.2-.1.4v.3c0,.1.2.2.3.2h1.8v.4h0v.2Z"/>
  <line class="cls-3" x1="43.6" y1="177.3" x2="42.6" y2="177.3"/>
  <path class="cls-30" d="M27.5,178.2h.4c0,.4-.2.6-.4.8s-.4.3-.7.3-.6-.1-.9-.3c-.2-.2-.3-.6-.3-1s0-.5.1-.7c0-.2.2-.4.4-.5.2-.1.4-.2.6-.2s.5,0,.7.2c.2.1.3.3.3.6h-.4c0-.1-.1-.2-.2-.3-.1,0-.2-.1-.4-.1s-.4,0-.5.2-.2.4-.2.8,0,.6.2.8c.1.2.3.2.5.2s.3,0,.4-.2c.1-.1.2-.3.2-.5h.2Z"/>
  <path class="cls-30" d="M30,178.3h.5c0,.3-.2.5-.4.7-.2.1-.4.2-.7.2s-.7-.1-.9-.3-.3-.6-.3-1,.1-.8.3-1c.2-.2.5-.4.9-.4s.6.1.8.4c.2.2.3.6.3,1s0,0,0,.1h-1.9c0,.3,0,.5.2.7.1.2.3.2.5.2s.3,0,.4-.1c.1,0,.2-.2.3-.4M28.6,177.6h1.4c0-.2,0-.4-.2-.5-.1-.2-.3-.3-.5-.3s-.4,0-.5.2c-.1.1-.2.3-.2.5h0Z"/>
  <path class="cls-30" d="M31.5,179.1h-.4v-3.6h.4v1.3c.2-.2.4-.3.7-.3h.5c.1,0,.3.2.4.3,0,.1.2.3.2.4v.5c0,.4-.1.8-.3,1-.2.2-.5.4-.8.4s-.5-.1-.7-.4v.3M31.5,177.8c0,.3,0,.5.1.7s.3.3.6.3.4,0,.5-.2.2-.4.2-.7,0-.6-.2-.7c-.1-.2-.3-.2-.5-.2s-.4,0-.5.3c-.1.2-.2.4-.2.7h0v-.2Z"/>
  <path class="cls-30" d="M34,180.1v-3.6h.4v.3c0-.1.2-.2.3-.3s.3-.1.4-.1.4,0,.6.2c.2.1.3.3.4.5,0,.2.1.4.1.7s0,.5-.1.7-.2.4-.4.5c-.2.1-.4.2-.6.2h-.4c-.1,0-.2-.1-.3-.2v1.3h-.4M34.4,177.8c0,.3,0,.6.2.7.1.2.3.2.5.2s.4,0,.5-.2.2-.4.2-.8,0-.6-.2-.7c-.1-.2-.3-.2-.5-.2s-.4,0-.5.3c-.1.2-.2.4-.2.8h0Z"/>
  <path class="cls-30" d="M37,179.1h-.4v-3.6h.4v1.3c.2-.2.4-.3.7-.3h.5c.1,0,.3.2.4.3,0,.1.2.3.2.4v.5c0,.4-.1.8-.3,1-.2.2-.5.4-.8.4s-.5-.1-.7-.4v.3M37,177.8c0,.3,0,.5.1.7s.3.3.6.3.4,0,.5-.2.2-.4.2-.7,0-.6-.2-.7c-.1-.2-.3-.2-.5-.2s-.4,0-.5.3c-.1.2-.2.4-.2.7h0v-.2Z"/>
  <line class="cls-3" x1="43.6" y1="172.9" x2="42.6" y2="172.9"/>
  <path class="cls-30" d="M32.8,171.7v-.5h.4v.5h-.4M32.2,175.8v-.4h.5v-3.1h.4v2.7c0,.3,0,.5-.1.7s-.3.2-.5.2h-.3Z"/>
  <path class="cls-30" d="M35.7,174.8v-.4c-.2.3-.5.4-.8.4h-.4c-.1,0-.2-.1-.3-.2,0,0-.1-.2-.1-.3v-2h.4v1.9c0,.1,0,.2.2.3s.2,0,.3,0,.3,0,.4-.1c.1,0,.2-.2.2-.3v-1.9h.4v2.6h-.4,0Z"/>
  <path class="cls-30" d="M36.6,174.8v-2.6h.4v.4c.2-.3.5-.4.8-.4h.4c.1,0,.2.1.3.2s.1.2.1.3v2h-.4v-2s0-.2-.2-.2h-.3c-.2,0-.3,0-.5.2s-.2.3-.2.7v1.4h-.4,0Z"/>
  <line class="cls-3" x1="43.6" y1="168.5" x2="42.6" y2="168.5"/>
  <path class="cls-30" d="M30.9,170.2v-2.6h.4v.4c.1-.2.2-.3.3-.4s.2,0,.3,0,.3,0,.5.1l-.2.4h-.6l-.2.2v1.9h-.5Z"/>
  <path class="cls-30" d="M32.4,168.9c0-.5.1-.8.4-1.1.2-.2.5-.3.8-.3s.6.1.9.4.3.6.3,1,0,.6-.2.8c-.1.2-.2.3-.4.4-.2.1-.4.2-.6.2-.4,0-.7-.1-.9-.3s-.3-.6-.3-1M32.8,168.9c0,.3,0,.6.2.7.1.2.3.2.5.2s.4,0,.5-.2.2-.4.2-.8,0-.6-.2-.7c-.1-.2-.3-.2-.5-.2s-.4,0-.5.2-.2.4-.2.7h0Z"/>
  <path class="cls-30" d="M35.2,170.2v-2.6h.4v.4c.1-.2.2-.3.3-.4h.3c.1,0,.3,0,.5.1l-.2.4h-.6l-.2.2v1.9h-.5Z"/>
  <path class="cls-30" d="M38.6,169.3h.4c0,.4-.2.6-.4.8s-.4.3-.7.3-.6-.1-.9-.3c-.2-.2-.3-.6-.3-1s0-.5.1-.7.2-.4.4-.5c.2-.1.4-.2.6-.2s.5,0,.7.2c.2.1.3.3.3.6h-.4c0-.1-.1-.2-.2-.3-.1,0-.2-.1-.4-.1s-.4,0-.5.2-.2.4-.2.8,0,.6.2.8.3.2.5.2.3,0,.4-.2.2-.3.2-.5h.2Z"/>
  <line class="cls-3" x1="43.6" y1="164.1" x2="42.6" y2="164.1"/>
  <path class="cls-30" d="M25.8,166.1h.4c0,.2,0,.3.1.4.1,0,.3.1.4.1s.4,0,.5-.1.2-.2.2-.3v-.6c-.2.2-.4.3-.7.3s-.6-.1-.8-.4-.3-.6-.3-.9,0-.5.1-.7c0-.2.2-.4.4-.5.2-.1.4-.2.6-.2s.6.1.8.4v-.3h.4v2.2c0,.4,0,.7-.1.9,0,.2-.2.3-.4.4-.2,0-.4.1-.7.1s-.6,0-.7-.2-.3-.3-.3-.6M26.1,164.6c0,.3,0,.6.2.7.1.2.3.2.5.2s.4,0,.5-.2.2-.4.2-.7,0-.6-.2-.7c-.1-.2-.3-.2-.5-.2s-.4,0-.5.2-.2.4-.2.7h0Z"/>
  <path class="cls-30" d="M28.8,165.9v-2.3h-.4v-.3h.4v-.7c0-.1.1-.2.2-.3.1,0,.3-.1.4-.1h.4v.4h-.6v.5h.5v.3h-.5v2.3h-.4v.2Z"/>
  <path class="cls-30" d="M29.9,162.8v-.5h.4v.5h-.4M29.9,165.9v-2.6h.4v2.6h-.4Z"/>
  <path class="cls-30" d="M32.6,165.9h-.4v-2.8c-.1.1-.2.2-.4.3-.2.1-.3.2-.5.2v-.4c.2-.1.5-.3.6-.4.2-.2.3-.3.4-.5h.3v3.6h0Z"/>
  <path class="cls-30" d="M35.7,165.6c-.2.1-.3.2-.5.3h-.5c-.3,0-.5,0-.7-.2s-.2-.3-.2-.5v-.3c0-.1.1-.2.2-.3,0,0,.2-.1.3-.1h.4c.4,0,.6,0,.8-.2h0c0-.3,0-.4-.1-.5s-.3-.1-.5-.1-.4,0-.5.1c0,0-.2.2-.2.4h-.4c0-.2.1-.4.2-.5,0-.1.2-.2.4-.3h1.1c.1,0,.2.1.3.2,0,0,.1.2.1.3v1.8c0,.1,0,.2.1.3h-.5v-.3M35.6,164.6c-.2,0-.4.1-.7.2h-.4s-.1,0-.2.1v.2c0,.1,0,.2.1.3,0,0,.2.1.4.1s.3,0,.5-.1c.1,0,.2-.2.3-.3v-.6h0Z"/>
  <path class="cls-30" d="M37,165.9h-.4v-3.6h.4v1.3c.2-.2.4-.3.7-.3h.5c.1,0,.3.2.4.3,0,.1.2.3.2.4v.5c0,.4-.1.8-.3,1s-.5.4-.8.4-.5-.1-.7-.4v.3M37,164.6c0,.3,0,.5.1.7s.3.3.6.3.4,0,.5-.2.2-.4.2-.7,0-.6-.2-.7c-.1-.2-.3-.2-.5-.2s-.4,0-.5.3c-.1.2-.2.4-.2.7h0v-.2Z"/>
  <line class="cls-3" x1="43.6" y1="159.7" x2="42.6" y2="159.7"/>
  <path class="cls-30" d="M25.8,162.6v-3.6h.4v.3c0-.1.2-.2.3-.3s.3-.1.4-.1.4,0,.6.2c.2.1.3.3.4.5,0,.2.1.4.1.7s0,.5-.1.7-.2.4-.4.5c-.2.1-.4.2-.6.2h-.4c-.1,0-.2-.1-.3-.2v1.3h-.4M26.2,160.3c0,.3,0,.6.2.7.1.2.3.2.5.2s.4,0,.5-.2.2-.4.2-.8,0-.6-.2-.7c-.1-.2-.3-.2-.5-.2s-.4,0-.5.3c-.1.2-.2.4-.2.8h0Z"/>
  <path class="cls-30" d="M30.4,161.3c-.2.1-.3.2-.5.3h-.5c-.3,0-.5,0-.7-.2s-.2-.3-.2-.5v-.3c0-.1.1-.2.2-.3,0,0,.2-.1.3-.1h.4c.4,0,.6,0,.8-.2h0c0-.3,0-.4-.1-.5s-.3-.1-.5-.1-.4,0-.5.1c0,0-.2.2-.2.4h-.4c0-.2.1-.4.2-.5,0-.1.2-.2.4-.3h1.1c.1,0,.2.1.3.2,0,0,.1.2.1.3v1.8c0,.1,0,.2.1.3h-.5v-.3M30.4,160.3c-.2,0-.4.1-.7.2h-.4s-.1,0-.2.1v.2c0,.1,0,.2.1.3,0,0,.2.1.4.1s.3,0,.5-.1c.1,0,.2-.2.3-.3v-.6h0Z"/>
  <path class="cls-30" d="M31.1,161.6l.9-1.3-.9-1.2h.5l.4.6c0,.1.1.2.2.3,0-.1.1-.2.2-.3l.4-.6h.5l-.9,1.2,1,1.4h-.5l-.5-.8v-.2c-.1,0-.8,1-.8,1h-.5Z"/>
  <path class="cls-30" d="M36.2,161.2v.4h-2.4v-.3c0-.2.2-.3.3-.5.1-.2.3-.3.6-.5.4-.3.7-.6.8-.8.1-.2.2-.4.2-.5s0-.3-.2-.4c-.1-.1-.3-.2-.5-.2s-.4,0-.5.2c-.1.1-.2.3-.2.5h-.5c0-.4.1-.6.3-.8s.5-.3.8-.3.6,0,.8.3.3.4.3.7v.4c0,.1-.2.3-.3.4-.1.2-.4.4-.7.6-.3.2-.4.4-.5.5,0,0-.1.2-.2.2h1.9Z"/>
  <path class="cls-30" d="M38.3,161.3c-.2.1-.3.2-.5.3h-.5c-.3,0-.5,0-.7-.2s-.2-.3-.2-.5v-.3c0-.1.1-.2.2-.3,0,0,.2-.1.3-.1h.4c.4,0,.6,0,.8-.2h0c0-.3,0-.4-.1-.5s-.3-.1-.5-.1-.4,0-.5.1c0,0-.2.2-.2.4h-.4c0-.2.1-.4.2-.5,0-.1.2-.2.4-.3h1.1c.1,0,.2.1.3.2,0,0,.1.2.1.3v1.8c0,.1,0,.2.1.3h-.5v-.3M38.3,160.3c-.2,0-.4.1-.7.2h-.4s-.1,0-.2.1v.2c0,.1,0,.2.1.3,0,0,.2.1.4.1s.3,0,.5-.1c.1,0,.2-.2.3-.3v-.6h0Z"/>
  <line class="cls-3" x1="43.6" y1="155.3" x2="42.6" y2="155.3"/>
  <path class="cls-30" d="M23,158v-3.6h.4v.3c0-.1.2-.2.3-.3.1,0,.3-.1.4-.1s.4,0,.6.2c.2.1.3.3.4.5,0,.2.1.4.1.7s0,.5-.1.7-.2.4-.4.5c-.2.1-.4.2-.6.2h-.4c-.1,0-.2-.1-.3-.2v1.3h-.4M23.4,155.8c0,.3,0,.6.2.7.1.2.3.2.5.2s.4,0,.5-.2.2-.4.2-.8,0-.6-.2-.7c-.1-.2-.3-.2-.5-.2s-.4,0-.5.3c-.1.2-.2.4-.2.8h0Z"/>
  <path class="cls-30" d="M25.8,157v-3.6h.4v1.3c.2-.2.5-.4.8-.4s.4,0,.5.1c.1,0,.2.2.3.3v2.2h-.4v-1.6c0-.2,0-.4-.1-.5,0-.1-.2-.2-.4-.2s-.3,0-.4.1c-.1,0-.2.2-.2.3v1.9h-.5Z"/>
  <path class="cls-30" d="M28.6,155.7c0-.5.1-.8.4-1.1.2-.2.5-.3.8-.3s.6.1.9.4.3.6.3,1,0,.6-.2.8c-.1.2-.2.3-.4.4-.2.1-.4.2-.6.2-.4,0-.7-.1-.9-.3s-.3-.6-.3-1M29,155.7c0,.3,0,.6.2.7.1.2.3.2.5.2s.4,0,.5-.2.2-.4.2-.8,0-.6-.2-.7c-.1-.2-.3-.2-.5-.2s-.4,0-.5.2-.2.4-.2.7h0Z"/>
  <path class="cls-30" d="M31.1,157l.9-1.3-.9-1.2h.5l.4.6c0,.1.1.2.2.3,0-.1.1-.2.2-.3l.4-.6h.5l-.9,1.2,1,1.4h-.5l-.5-.8v-.2c-.1,0-.8,1-.8,1h-.5Z"/>
  <path class="cls-30" d="M36.2,156.6v.4h-2.4v-.3c0-.2.2-.3.3-.5.1-.2.3-.3.6-.5.4-.3.7-.6.8-.8.1-.2.2-.4.2-.5s0-.3-.2-.4c-.1-.1-.3-.2-.5-.2s-.4,0-.5.2c-.1.1-.2.3-.2.5h-.5c0-.4.1-.6.3-.8s.5-.3.8-.3.6,0,.8.3.3.4.3.7v.4c0,.1-.2.3-.3.4-.1.2-.4.4-.7.6-.3.2-.4.4-.5.5,0,0-.1.2-.2.2h1.9Z"/>
  <path class="cls-30" d="M38.3,156.7c-.2.1-.3.2-.5.3h-.5c-.3,0-.5,0-.7-.2s-.2-.3-.2-.5v-.3c0-.1.1-.2.2-.3,0,0,.2-.1.3-.1h.4c.4,0,.6,0,.8-.2h0c0-.3,0-.4-.1-.5s-.3-.1-.5-.1-.4,0-.5.1c0,0-.2.2-.2.4h-.4c0-.2.1-.4.2-.5,0-.1.2-.2.4-.3h1.1c.1,0,.2.1.3.2,0,0,.1.2.1.3v1.8c0,.1,0,.2.1.3h-.5v-.3M38.3,155.7c-.2,0-.4.1-.7.2h-.4s-.1,0-.2.1v.2c0,.1,0,.2.1.3,0,0,.2.1.4.1s.3,0,.5-.1c.1,0,.2-.2.3-.3v-.6h0Z"/>
  <line class="cls-3" x1="43.6" y1="150.9" x2="42.6" y2="150.9"/>
  <path class="cls-30" d="M28.7,149.6v-.5h.4v.5h-.4M28.7,152.7v-2.6h.4v2.6h-.4Z"/>
  <path class="cls-30" d="M29.7,152.7v-2.6h.4v.4c.1-.2.2-.3.3-.4h.3c.1,0,.3,0,.5.1l-.2.4h-.6l-.2.2v1.9h-.5Z"/>
  <path class="cls-30" d="M31.1,152.7l.9-1.3-.9-1.2h.5l.4.6c0,.1.1.2.2.3,0-.1.1-.2.2-.3l.4-.6h.5l-.9,1.2,1,1.4h-.5l-.5-.8v-.2c-.1,0-.8,1-.8,1h-.5Z"/>
  <path class="cls-30" d="M35.5,152.7h-.4v-2.8c-.1.1-.2.2-.4.3-.2.1-.3.2-.5.2v-.4c.2-.1.5-.3.6-.4.2-.2.3-.3.4-.5h.3v3.6h0Z"/>
  <path class="cls-30" d="M37,152.7h-.4v-3.6h.4v1.3c.2-.2.4-.3.7-.3h.5c.1,0,.3.2.4.3,0,.1.2.3.2.4v.5c0,.4-.1.8-.3,1s-.5.4-.8.4-.5-.1-.7-.4v.3M37,151.4c0,.3,0,.5.1.7s.3.3.6.3.4,0,.5-.2.2-.4.2-.7,0-.6-.2-.7c-.1-.2-.3-.2-.5-.2s-.4,0-.5.3c-.1.2-.2.4-.2.7h0v-.2Z"/>
  <line class="cls-3" x1="43.6" y1="146.5" x2="42.6" y2="146.5"/>
  <path class="cls-30" d="M28.7,145.3v-.5h.4v.5h-.4M28.7,148.4v-2.6h.4v2.6h-.4Z"/>
  <path class="cls-30" d="M29.7,148.4v-2.6h.4v.4c.1-.2.2-.3.3-.4h.3c.1,0,.3,0,.5.1l-.2.4h-.6l-.2.2v1.9h-.5Z"/>
  <path class="cls-30" d="M31.1,148.4l.9-1.3-.9-1.2h.5l.4.6c0,.1.1.2.2.3,0-.1.1-.2.2-.3l.4-.6h.5l-.9,1.2,1,1.4h-.5l-.5-.8v-.2c-.1,0-.8,1-.8,1h-.5Z"/>
  <path class="cls-30" d="M36.2,145.7h-.4c0-.1,0-.3-.2-.3-.1-.1-.3-.2-.4-.2s-.3,0-.4.1-.2.2-.3.4c0,.2-.1.5-.1.8.1-.2.2-.3.4-.4.2,0,.3-.1.5-.1.3,0,.5.1.7.3.2.2.3.5.3.8s0,.4-.1.6c0,.2-.2.3-.4.4s-.4.2-.6.2c-.4,0-.7-.1-.9-.4-.2-.3-.3-.7-.3-1.3s.1-1.2.4-1.5c.2-.3.5-.4.9-.4s.5,0,.7.2.3.4.3.7M34.4,147.2v.4c0,.1.2.2.3.3.1,0,.2.1.4.1s.3,0,.5-.2.2-.4.2-.6,0-.4-.2-.6-.3-.2-.5-.2-.4,0-.5.2c-.1.1-.2.3-.2.6h0Z"/>
  <path class="cls-30" d="M38.3,148.1c-.2.1-.3.2-.5.3h-.5c-.3,0-.5,0-.7-.2s-.2-.3-.2-.5v-.3c0-.1.1-.2.2-.3,0,0,.2-.1.3-.1h.4c.4,0,.6,0,.8-.2h0c0-.3,0-.4-.1-.5s-.3-.1-.5-.1-.4,0-.5.1c0,0-.2.2-.2.4h-.4c0-.2.1-.4.2-.5,0-.1.2-.2.4-.3h1.1c.1,0,.2.1.3.2,0,0,.1.2.1.3v1.8c0,.1,0,.2.1.3h-.5v-.3M38.3,147.1c-.2,0-.4.1-.7.2h-.4s-.1,0-.2.1v.2c0,.1,0,.2.1.3,0,0,.2.1.4.1s.3,0,.5-.1c.1,0,.2-.2.3-.3v-.6h0Z"/>
  <line class="cls-3" x1="43.6" y1="142.1" x2="42.6" y2="142.1"/>
  <path class="cls-30" d="M29.9,143.8v-3.6h.4v1.3c.2-.2.5-.4.8-.4s.4,0,.5.1c.1,0,.2.2.3.3v2.2h-.4v-1.6c0-.2,0-.4-.1-.5,0-.1-.2-.2-.4-.2s-.3,0-.4.1c-.1,0-.2.2-.2.3v1.9h-.5Z"/>
  <path class="cls-30" d="M32.6,143.1h.4c0,.1,0,.2.2.3.1,0,.3.1.5.1s.4,0,.4-.1c0,0,.1-.2.1-.3s0-.2-.1-.2c0,0-.2,0-.4-.1-.3,0-.5-.2-.7-.2s-.2-.1-.3-.2v-.6c0-.1.1-.2.2-.2,0,0,.2,0,.3-.1h.9c.1,0,.3.1.3.2s.1.2.2.4h-.4s0-.2-.2-.3c0,0-.2-.1-.4-.1s-.3,0-.4.1c0,0-.1.1-.1.2v.2h.2c0,.1.2.1.4.2.3,0,.5.2.6.2s.2.1.3.2c0,.1.1.2.1.4s0,.3-.1.4c0,.1-.2.2-.4.3-.2,0-.3.1-.5.1-.3,0-.6,0-.8-.2-.2-.1-.3-.3-.3-.6h0Z"/>
  <path class="cls-30" d="M35.3,143.8v-2.3h-.4v-.3h.4v-.7c0-.1.1-.2.2-.3.1,0,.3-.1.4-.1h.4v.4h-.6v.5h.5v.3h-.5v2.3h-.4v.2Z"/>
  <path class="cls-30" d="M37.9,143.8v-.9h-1.6v-.4l1.6-2.3h.4v2.3h.5v.4h-.5v.9h-.4M37.9,142.6v-1.6l-1.1,1.6h1.1Z"/>
  <line class="cls-3" x1="43.6" y1="137.7" x2="42.6" y2="137.7"/>
  <path class="cls-30" d="M26.2,139.5v-2.3h-.4v-.3h.4v-.7c0-.1.1-.2.2-.3.1,0,.3-.1.4-.1h.4v.4h-.6v.5h.5v.3h-.5v2.3h-.4v.2Z"/>
  <path class="cls-30" d="M27.4,138.2c0-.5.1-.8.4-1.1.2-.2.5-.3.8-.3s.6.1.9.4.3.6.3,1,0,.6-.2.8c-.1.2-.2.3-.4.4-.2.1-.4.2-.6.2-.4,0-.7-.1-.9-.3s-.3-.6-.3-1M27.8,138.2c0,.3,0,.6.2.7.1.2.3.2.5.2s.4,0,.5-.2.2-.4.2-.8,0-.6-.2-.7c-.1-.2-.3-.2-.5-.2s-.4,0-.5.2-.2.4-.2.7h0Z"/>
  <path class="cls-30" d="M30.2,138.7h.4c0,.1,0,.2.2.3.1,0,.3.1.5.1s.4,0,.4-.1c0,0,.1-.2.1-.3s0-.2-.1-.2c0,0-.2,0-.4-.1-.3,0-.5-.2-.7-.2s-.2-.1-.3-.2v-.6c0-.1.1-.2.2-.2,0,0,.2,0,.3-.1h.9c.1,0,.3.1.3.2s.1.2.2.4h-.4s0-.2-.2-.3c0,0-.2-.1-.4-.1s-.3,0-.4.1c0,0-.1.1-.1.2v.2c0,.1,0,0,.2.1,0,0,.2,0,.4.1.3,0,.5.2.6.2s.2.1.3.2c0,.1.1.2.1.4s0,.3-.1.4c0,.1-.2.2-.4.3s-.3.1-.5.1c-.3,0-.6,0-.8-.2-.2-.1-.3-.3-.3-.6h0Z"/>
  <polygon class="cls-30" points="32.8 139.5 32.8 135.9 33.2 135.9 33.2 139.5 32.8 139.5 32.8 139.5"/>
  <path class="cls-30" d="M35.5,139.5h-.4v-2.8c-.1.1-.2.2-.4.3-.2.1-.3.2-.5.2v-.4c.2-.1.5-.3.6-.4s.3-.3.4-.5h.3v3.6h0Z"/>
  <path class="cls-30" d="M38.3,139.2c-.2.1-.3.2-.5.3h-.5c-.3,0-.5,0-.7-.2s-.2-.3-.2-.5v-.3c0-.1.1-.2.2-.3,0,0,.2-.1.3-.1h.4c.4,0,.6,0,.8-.2h0c0-.3,0-.4-.1-.5s-.3-.1-.5-.1-.4,0-.5.1c0,0-.2.2-.2.4h-.4c0-.2.1-.4.2-.5,0-.1.2-.2.4-.3s.4,0,.6,0h.5c.1,0,.2.1.3.2,0,0,.1.2.1.3v1.8c0,.1,0,.2.1.3h-.5v-.3M38.3,138.2c-.2,0-.4.1-.7.2h-.4s-.1,0-.2.1v.2c0,.1,0,.2.1.3,0,0,.2.1.4.1s.3,0,.5-.1c.1,0,.2-.2.3-.3v-.6h0Z"/>
  <line class="cls-3" x1="43.6" y1="133.3" x2="42.6" y2="133.3"/>
  <path class="cls-30" d="M32.8,134.9c-.2.1-.3.2-.5.3h-.5c-.3,0-.5,0-.7-.2s-.2-.3-.2-.5v-.3c0-.1.1-.2.2-.3,0,0,.2-.1.3-.1h.4c.4,0,.6,0,.8-.2h0c0-.3,0-.4-.1-.5s-.3-.1-.5-.1-.4,0-.5.1c0,0-.2.2-.2.4h-.4c0-.2.1-.4.2-.5,0-.1.2-.2.4-.3h1.1c.1,0,.2.1.3.2,0,0,.1.2.1.3v1.8c0,.1,0,.2.1.3h-.5v-.3M32.8,133.9c-.2,0-.4.1-.7.2h-.4s-.1,0-.2.1v.2c0,.1,0,.2.1.3,0,0,.2.1.4.1s.3,0,.5-.1c.1,0,.2-.2.3-.3v-.6h0Z"/>
  <path class="cls-30" d="M35,134.8v.4h-.7c-.1,0-.1-.1-.2-.2v-2h-.3v-.3h.3v-.6l.4-.3v.9h.4v.3h-.4v1.7h.5Z"/>
  <path class="cls-30" d="M35.3,135.2v-2.3h-.4v-.3h.4v-.7c0-.1.1-.2.2-.3.1,0,.3-.1.4-.1h.4v.4h-.6c0,0,0,.2,0,.3v.2h.5v.3h-.5v2.3h-.4v.2Z"/>
  <path class="cls-30" d="M36.5,134.2h.4c0,.2.1.4.3.5.1.1.3.2.4.2s.4,0,.5-.2c.1-.1.2-.3.2-.5s0-.4-.2-.5c-.1-.1-.3-.2-.5-.2h-.3v-.4h.1c.2,0,.4,0,.5-.1.1,0,.2-.2.2-.5s0-.3-.2-.4c-.1-.1-.2-.2-.4-.2s-.3,0-.4.2c-.1.1-.2.3-.2.5h-.4c0-.4.2-.6.4-.8s.4-.2.7-.2.4,0,.5.1c.2,0,.3.2.4.3,0,.1.1.3.1.5s0,.3-.1.4c0,.1-.2.2-.4.3.2,0,.4.2.5.3s.2.3.2.6-.1.6-.3.8-.5.3-.9.3-.6,0-.8-.3c-.2-.2-.3-.4-.4-.7h0Z"/>
  <line class="cls-3" x1="43.6" y1="128.9" x2="42.6" y2="128.9"/>
  <path class="cls-30" d="M26.2,130.6v-2.3h-.4v-.3h.4v-.7c0-.1.1-.2.2-.3.1,0,.3-.1.4-.1h.4v.4h-.6v.5h.5v.3h-.5v2.3h-.4v.2Z"/>
  <path class="cls-30" d="M27.4,129.3c0-.5.1-.8.4-1.1.2-.2.5-.3.8-.3s.6.1.9.4.3.6.3,1,0,.6-.2.8c-.1.2-.2.3-.4.4-.2.1-.4.2-.6.2-.4,0-.7-.1-.9-.3s-.3-.6-.3-1M27.8,129.3c0,.3,0,.6.2.7.1.2.3.2.5.2s.4,0,.5-.2.2-.4.2-.8,0-.6-.2-.7c-.1-.2-.3-.2-.5-.2s-.4,0-.5.2-.2.4-.2.7h0Z"/>
  <path class="cls-30" d="M30.1,130.6l.9-1.3-.9-1.2h.5l.4.6c0,.1.1.2.2.3,0-.1.1-.2.2-.3l.4-.6h.5l-.9,1.2,1,1.4h-.5l-.5-.8v-.2c-.1,0-.8,1-.8,1h-.5Z"/>
  <path class="cls-30" d="M32.8,127.6v-.5h.4v.5h-.4M32.8,130.6v-2.6h.4v2.6h-.4Z"/>
  <path class="cls-30" d="M33.9,129.7h.4c0,.2.1.4.3.5.1.1.3.2.4.2s.4,0,.5-.2c.1-.1.2-.3.2-.5s0-.4-.2-.5c-.1-.1-.3-.2-.5-.2h-.3v-.4h.1c.2,0,.4,0,.5-.1s.2-.2.2-.5,0-.3-.2-.4-.2-.2-.4-.2-.3,0-.4.2-.2.3-.2.5h-.4c0-.4.2-.6.4-.8s.4-.2.7-.2.4,0,.5.1c.2,0,.3.2.4.3,0,.1.1.3.1.5s0,.3-.1.4-.2.2-.4.3c.2,0,.4.2.5.3s.2.3.2.6-.1.6-.3.8-.5.3-.9.3-.6,0-.8-.3-.3-.4-.4-.7h0Z"/>
  <path class="cls-30" d="M37,130.6h-.4v-3.6h.4v1.3c.2-.2.4-.3.7-.3h.5c.1,0,.3.2.4.3,0,.1.2.3.2.4v.5c0,.4-.1.8-.3,1s-.5.4-.8.4-.5-.1-.7-.4v.3M37,129.3c0,.3,0,.5.1.7s.3.3.6.3.4,0,.5-.2.2-.4.2-.7,0-.6-.2-.7c-.1-.2-.3-.2-.5-.2s-.4,0-.5.3c-.1.2-.2.4-.2.7h0v-.2Z"/>
  <line class="cls-3" x1="43.6" y1="124.6" x2="42.6" y2="124.6"/>
  <path class="cls-30" d="M29.7,126.3v-2.6h.4v.4c.2-.3.5-.4.8-.4h.4c.1,0,.2.1.3.2,0,0,.1.2.1.3v2h-.4v-2s0-.2-.2-.2h-.3c-.2,0-.3,0-.5.2s-.2.3-.2.7v1.4h-.4,0Z"/>
  <path class="cls-30" d="M32.7,126.3v-2.3h-.4v-.3h.4v-.7c0-.1.1-.2.2-.3.1,0,.3-.1.4-.1h.4v.4h-.6v.5h.5v.3h-.5v2.3h-.4v.2Z"/>
  <path class="cls-30" d="M35.8,125.5h.5c0,.3-.2.5-.4.7s-.4.2-.7.2-.7-.1-.9-.3-.3-.6-.3-1,.1-.8.3-1,.5-.4.9-.4.6.1.8.4c.2.2.3.6.3,1s0,0,0,.1h-1.9c0,.3,0,.5.2.7.1.2.3.2.5.2s.3,0,.4-.1c.1,0,.2-.2.3-.4M34.3,124.8h1.4c0-.2,0-.4-.2-.5-.1-.2-.3-.3-.5-.3s-.4,0-.5.2c-.1.1-.2.3-.2.5h0Z"/>
  <path class="cls-30" d="M38.8,125.9v.4h-2.4v-.3c0-.2.2-.3.3-.5.1-.2.3-.3.6-.5.4-.3.7-.6.8-.8.1-.2.2-.4.2-.5s0-.3-.2-.4c-.1-.1-.3-.2-.5-.2s-.4,0-.5.2-.2.3-.2.5h-.5c0-.4.1-.6.3-.8s.5-.3.8-.3.6,0,.8.3c.2.2.3.4.3.7v.4c0,.1-.2.3-.3.4-.1.2-.4.4-.7.6-.3.2-.4.4-.5.5,0,0-.1.2-.2.2h1.9Z"/>
  <line class="cls-3" x1="43.6" y1="120.2" x2="42.6" y2="120.2"/>
  <polygon class="cls-30" points="29 122 29 118.4 29.4 118.4 29.4 120.5 30.4 119.4 31 119.4 30 120.4 31.1 122 30.6 122 29.7 120.7 29.4 121 29.4 122 29 122 29 122"/>
  <polygon class="cls-30" points="31.3 122 31.3 118.4 31.8 118.4 31.8 122 31.3 122 31.3 122"/>
  <path class="cls-30" d="M32.7,122v-2.3h-.4v-.3h.4v-.7c0-.1.1-.2.2-.3.1,0,.3-.1.4-.1h.4v.4h-.6v.5h.5v.3h-.5v2.3h-.4v.2Z"/>
  <path class="cls-30" d="M36.2,121.6v.4h-2.4v-.3c0-.2.2-.3.3-.5.1-.2.3-.3.6-.5.4-.3.7-.6.8-.8.1-.2.2-.4.2-.5s0-.3-.2-.4c-.1-.1-.3-.2-.5-.2s-.4,0-.5.2c-.1.1-.2.3-.2.5h-.5c0-.4.1-.6.3-.8s.5-.3.8-.3.6,0,.8.3.3.4.3.7v.4c0,.1-.2.3-.3.4-.1.2-.4.4-.7.6-.3.2-.4.4-.5.5,0,0-.1.2-.2.2h1.9Z"/>
  <path class="cls-30" d="M38.3,121.7c-.2.1-.3.2-.5.3h-.5c-.3,0-.5,0-.7-.2s-.2-.3-.2-.5v-.3c0-.1.1-.2.2-.3,0,0,.2-.1.3-.1h.4c.4,0,.6,0,.8-.2h0c0-.3,0-.4-.1-.5s-.3-.1-.5-.1-.4,0-.5.1c0,0-.2.2-.2.4h-.4c0-.2.1-.4.2-.5,0-.1.2-.2.4-.3h1.1c.1,0,.2.1.3.2,0,0,.1.2.1.3v1.8c0,.1,0,.2.1.3h-.5v-.3M38.3,120.7c-.2,0-.4.1-.7.2h-.4s-.1,0-.2.1v.2c0,.1,0,.2.1.3,0,0,.2.1.4.1s.3,0,.5-.1c.1,0,.2-.2.3-.3v-.6h0Z"/>
  <line class="cls-3" x1="43.6" y1="115.8" x2="42.6" y2="115.8"/>
  <path class="cls-30" d="M27,117.4v-2.6h.4v.4c.1-.2.2-.3.3-.4h.3c.1,0,.3,0,.5.1l-.2.4h-.6l-.2.2v1.9h-.5Z"/>
  <path class="cls-30" d="M30.4,117.4v-.4c-.2.3-.5.4-.8.4h-.4c-.1,0-.2-.1-.3-.2,0,0-.1-.2-.1-.3v-2h.4v1.9c0,.1,0,.2.2.3s.2,0,.3,0,.3,0,.4-.1c.1,0,.2-.2.2-.3v-1.9h.4v2.6h-.4,0Z"/>
  <path class="cls-30" d="M31.4,117.4v-2.6h.4v.4c.2-.3.5-.4.8-.4h.4c.1,0,.2.1.3.2,0,0,.1.2.1.3v2h-.4v-2s0-.2-.2-.2h-.3c-.2,0-.3,0-.5.2s-.2.3-.2.7v1.4h-.4,0Z"/>
  <path class="cls-30" d="M33.9,117.4l.9-1.3-.9-1.2h.5l.4.6c0,.1.1.2.2.3,0-.1.1-.2.2-.3l.4-.6h.5l-.9,1.2,1,1.4h-.5l-.5-.8v-.2c-.1,0-.8,1-.8,1h-.5Z"/>
  <path class="cls-30" d="M36.5,116.5h.4c0,.2.1.4.3.5.1.1.3.2.4.2s.4,0,.5-.2c.1-.1.2-.3.2-.5s0-.4-.2-.5c-.1-.1-.3-.2-.5-.2h-.3v-.4h.1c.2,0,.4,0,.5-.1.1,0,.2-.2.2-.5s0-.3-.2-.4c-.1-.1-.2-.2-.4-.2s-.3,0-.4.2c-.1.1-.2.3-.2.5h-.4c0-.4.2-.6.4-.8s.4-.2.7-.2.4,0,.5.1c.2,0,.3.2.4.3,0,.1.1.3.1.5s0,.3-.1.4c0,.1-.2.2-.4.3.2,0,.4.2.5.3s.2.3.2.6-.1.6-.3.8-.5.3-.9.3-.6,0-.8-.3c-.2-.2-.3-.4-.4-.7h0Z"/>
  <line class="cls-3" x1="43.6" y1="111.4" x2="42.6" y2="111.4"/>
  <path class="cls-30" d="M23.7,113.1v-.4c-.2.3-.5.4-.8.4h-.4c-.1,0-.2-.1-.3-.2,0,0-.1-.2-.1-.3v-2h.4v1.9c0,.1,0,.2.2.3s.2,0,.3,0,.3,0,.4-.1c.1,0,.2-.2.2-.3v-1.9h.4v2.6h-.4,0Z"/>
  <path class="cls-30" d="M24.6,113.1v-2.6h.4v.4c.2-.3.5-.4.8-.4h.4c.1,0,.2.1.3.2,0,0,.1.2.1.3v2h-.4v-2s0-.2-.2-.2h-.3c-.2,0-.3,0-.5.2s-.2.3-.2.7v1.4h-.4,0Z"/>
  <path class="cls-30" d="M29.2,112.2h.4c0,.4-.2.6-.4.8s-.4.3-.7.3-.6-.1-.9-.3c-.2-.2-.3-.6-.3-1s0-.5.1-.7c0-.2.2-.4.4-.5.2-.1.4-.2.6-.2s.5,0,.7.2c.2.1.3.3.3.6h-.4c0-.1-.1-.2-.2-.3-.1,0-.2-.1-.4-.1s-.4,0-.5.2-.2.4-.2.8,0,.6.2.8c.1.2.3.2.5.2s.3,0,.4-.2c.1-.1.2-.3.2-.5h.2Z"/>
  <path class="cls-30" d="M29.6,113.1l.9-1.3-.9-1.2h.5l.4.6c0,.1.1.2.2.3,0-.1.1-.2.2-.3l.4-.6h.5l-.9,1.2,1,1.4h-.5l-.5-.8v-.2c-.1,0-.8,1-.8,1h-.5Z"/>
  <path class="cls-30" d="M33.8,113.1v-.9h-1.6v-.4l1.6-2.3h.4v2.3h.5v.4h-.5v.9h-.4M33.8,111.9v-1.6l-1.1,1.6h1.1Z"/>
  <polygon class="cls-30" points="35.3 113.1 35.3 112.6 35.8 112.6 35.8 113.1 35.3 113.1 35.3 113.1"/>
  <path class="cls-30" d="M38.2,113.1h-.4v-2.8c-.1.1-.2.2-.4.3-.2.1-.3.2-.5.2v-.4c.2-.1.5-.3.6-.4.2-.2.3-.3.4-.5h.3v3.6h0Z"/>
  <line class="cls-3" x1="43.6" y1="107" x2="42.6" y2="107"/>
  <path class="cls-30" d="M26.8,108.8v-2.6h.4v.4c.2-.3.5-.4.8-.4h.4c.1,0,.2.1.3.2s.1.2.1.3v2h-.4v-2s0-.2-.2-.2h-.3c-.2,0-.3,0-.5.2s-.2.3-.2.7v1.4h-.4,0Z"/>
  <path class="cls-30" d="M29.4,108.8v-2.6h.4v.4c.1-.2.2-.3.3-.4s.2,0,.3,0,.3,0,.5.1l-.2.4h-.6l-.2.2v1.9h-.5Z"/>
  <path class="cls-30" d="M32.4,108.8v-.9h-1.6v-.4l1.6-2.3h.4v2.3h.5v.4h-.5v.9h-.4M32.4,107.5v-1.6l-1.1,1.6h1.1Z"/>
  <path class="cls-30" d="M35.7,108.5c-.2.1-.3.2-.5.3h-.5c-.3,0-.5,0-.7-.2s-.2-.3-.2-.5v-.3c0-.1.1-.2.2-.3,0,0,.2-.1.3-.1h.4c.4,0,.6,0,.8-.2h0c0-.3,0-.4-.1-.5s-.3-.1-.5-.1-.4,0-.5.1c0,0-.2.2-.2.4h-.4c0-.2.1-.4.2-.5,0-.1.2-.2.4-.3s.4,0,.6,0h.5c.1,0,.2.1.3.2,0,0,.1.2.1.3v1.8c0,.1,0,.2.1.3h-.5v-.3M35.6,107.5c-.2,0-.4.1-.7.2h-.4q-.1,0-.2.1v.2c0,.1,0,.2.1.3,0,0,.2.1.4.1s.3,0,.5-.1c.1,0,.2-.2.3-.3v-.6h0Z"/>
  <path class="cls-30" d="M38.2,108.8h-.4v-2.8c-.1.1-.2.2-.4.3-.2.1-.3.2-.5.2v-.4c.2-.1.5-.3.6-.4s.3-.3.4-.5h.3v3.6h0Z"/>
  <line class="cls-3" x1="43.6" y1="102.6" x2="42.6" y2="102.6"/>
  <path class="cls-30" d="M23.9,104.2v-2.6h.4v.4c.2-.3.5-.4.8-.4h.4c.1,0,.2.1.3.2s.1.2.1.3v2h-.4v-2s0-.2-.2-.2h-.3c-.2,0-.3,0-.5.2s-.2.3-.2.7v1.4h-.4,0Z"/>
  <path class="cls-30" d="M26.8,104.2v-2.6h.4v.4c.1-.2.2-.3.3-.4h.3c.1,0,.3,0,.5.1l-.2.4h-.6l-.2.2v1.9h-.5Z"/>
  <path class="cls-30" d="M28.1,103.3h.5c0,.2.1.4.2.5s.3.2.5.2.4,0,.5-.2.2-.4.2-.6,0-.4-.2-.6-.3-.2-.6-.2h-.4c-.1,0-.2.1-.3.2h-.4l.3-1.9h1.8v.4h-1.4l-.2,1c.2-.1.4-.2.7-.2s.6.1.8.3.3.5.3.8,0,.6-.3.8c-.2.3-.5.4-.9.4s-.6,0-.8-.3c-.2-.2-.3-.4-.4-.7h0Z"/>
  <path class="cls-30" d="M32.8,103.9c-.2.1-.3.2-.5.3h-.5c-.3,0-.5,0-.7-.2s-.2-.3-.2-.5v-.3c0-.1.1-.2.2-.3,0,0,.2-.1.3-.1h.4c.4,0,.6,0,.8-.2h0c0-.3,0-.4-.1-.5s-.3-.1-.5-.1-.4,0-.5.1c0,0-.2.2-.2.4h-.4c0-.2.1-.4.2-.5,0-.1.2-.2.4-.3s.4,0,.6,0h.5c.1,0,.2.1.3.2,0,0,.1.2.1.3v1.8c0,.1,0,.2.1.3h-.5v-.3M32.8,102.9c-.2,0-.4.1-.7.2h-.4s-.1,0-.2.1v.2c0,.1,0,.2.1.3,0,0,.2.1.4.1s.3,0,.5-.1c.1,0,.2-.2.3-.3v-.6h0Z"/>
  <path class="cls-30" d="M35.5,104.2h-.4v-2.8c-.1.1-.2.2-.4.3-.2.1-.3.2-.5.2v-.4c.2-.1.5-.3.6-.4s.3-.3.4-.5h.3v3.6h0Z"/>
  <path class="cls-30" d="M38.3,103.9c-.2.1-.3.2-.5.3h-.5c-.3,0-.5,0-.7-.2s-.2-.3-.2-.5v-.3c0-.1.1-.2.2-.3,0,0,.2-.1.3-.1h.4c.4,0,.6,0,.8-.2h0c0-.3,0-.4-.1-.5s-.3-.1-.5-.1-.4,0-.5.1c0,0-.2.2-.2.4h-.4c0-.2.1-.4.2-.5,0-.1.2-.2.4-.3s.4,0,.6,0h.5c.1,0,.2.1.3.2,0,0,.1.2.1.3v1.8c0,.1,0,.2.1.3h-.5v-.3M38.3,102.9c-.2,0-.4.1-.7.2h-.4s-.1,0-.2.1v.2c0,.1,0,.2.1.3,0,0,.2.1.4.1s.3,0,.5-.1c.1,0,.2-.2.3-.3v-.6h0Z"/>
  <line class="cls-3" x1="43.6" y1="98.2" x2="42.6" y2="98.2"/>
  <path class="cls-30" d="M25.6,99.9v-2.6h.4v.4c0-.1.2-.2.3-.3.1,0,.3-.1.5-.1s.3,0,.5.1c.1,0,.2.2.3.3.2-.3.5-.5.8-.5s.5,0,.6.2c.1.1.2.4.2.7v1.8h-.4v-2s0-.1-.2-.2-.2,0-.3,0c-.2,0-.3,0-.5.2s-.2.3-.2.6v1.5h-.4v-1.7c0-.2,0-.3-.1-.4s-.2-.1-.4-.1h-.3c0,0-.2.2-.2.3v1.8h-.6Z"/>
  <path class="cls-30" d="M31.4,99.6c-.2.1-.3.2-.5.3h-.5c-.3,0-.5,0-.7-.2s-.2-.3-.2-.5v-.3c0-.1.1-.2.2-.3,0,0,.2-.1.3-.1h.4c.4,0,.6,0,.8-.2h0c0-.3,0-.4-.1-.5s-.3-.1-.5-.1-.4,0-.5.1c0,0-.2.2-.2.4h-.4c0-.2.1-.4.2-.5,0-.1.2-.2.4-.3s.4,0,.6,0h.5c.1,0,.2.1.3.2,0,0,.1.2.1.3v1.8c0,.1,0,.2.1.3h-.5v-.3M31.3,98.6c-.2,0-.4.1-.7.2h-.4s-.1,0-.2.1v.2c0,.1,0,.2.1.3,0,0,.2.1.4.1s.3,0,.5-.1c.1,0,.2-.2.3-.3v-.6h0Z"/>
  <path class="cls-30" d="M32.7,99.9v-2.3h-.4v-.3h.4v-.7c0-.1.1-.2.2-.3.1,0,.3-.1.4-.1h.4v.4h-.6c0,0,0,.2,0,.3v.2h.5v.3h-.5v2.3h-.4v.2Z"/>
  <path class="cls-30" d="M34.4,99.9h-.4v-3.6h.4v1.3c.2-.2.4-.3.7-.3h.5c.1,0,.3.2.4.3,0,.1.2.3.2.4v.5c0,.4-.1.8-.3,1s-.5.4-.8.4-.5-.1-.7-.4v.3M34.4,98.6c0,.3,0,.5.1.7s.3.3.6.3.4,0,.5-.2.2-.4.2-.7,0-.6-.2-.7-.3-.2-.5-.2-.4,0-.5.3c-.1.2-.2.4-.2.7h0v-.2Z"/>
  <path class="cls-30" d="M37,99.9h-.4v-3.6h.4v1.3c.2-.2.4-.3.7-.3h.5c.1,0,.3.2.4.3,0,.1.2.3.2.4v.5c0,.4-.1.8-.3,1s-.5.4-.8.4-.5-.1-.7-.4v.3M37,98.6c0,.3,0,.5.1.7s.3.3.6.3.4,0,.5-.2.2-.4.2-.7,0-.6-.2-.7c-.1-.2-.3-.2-.5-.2s-.4,0-.5.3c-.1.2-.2.4-.2.7h0v-.2Z"/>
  <line class="cls-3" x1="43.6" y1="93.8" x2="42.6" y2="93.8"/>
  <path class="cls-30" d="M30,94.8h.5c0,.3-.2.5-.4.7-.2.1-.4.2-.7.2s-.7-.1-.9-.3-.3-.6-.3-1,.1-.8.3-1c.2-.2.5-.4.9-.4s.6.1.8.4c.2.2.3.6.3,1s0,0,0,.1h-1.9c0,.3,0,.5.2.7.1.2.3.2.5.2s.3,0,.4-.1c.1,0,.2-.2.3-.4M28.6,94h1.4c0-.2,0-.4-.2-.5-.1-.2-.3-.3-.5-.3s-.4,0-.5.2c-.1.1-.2.3-.2.5h0Z"/>
  <path class="cls-30" d="M31.1,95.6v-2.6h.4v.4c.2-.3.5-.4.8-.4h.4c.1,0,.2.1.3.2,0,0,.1.2.1.3v2h-.4v-2s0-.2-.2-.2h-.3c-.2,0-.3,0-.5.2s-.2.3-.2.7v1.4h-.4,0Z"/>
  <path class="cls-30" d="M35.5,95.6h-.4v-2.8c-.1.1-.2.2-.4.3-.2.1-.3.2-.5.2v-.4c.2-.1.5-.3.6-.4.2-.2.3-.3.4-.5h.3v3.6h0Z"/>
  <path class="cls-30" d="M38.3,95.3c-.2.1-.3.2-.5.3h-.5c-.3,0-.5,0-.7-.2s-.2-.3-.2-.5v-.3c0-.1.1-.2.2-.3,0,0,.2-.1.3-.1h.4c.4,0,.6,0,.8-.2h0c0-.3,0-.4-.1-.5s-.3-.1-.5-.1-.4,0-.5.1c0,0-.2.2-.2.4h-.4c0-.2.1-.4.2-.5,0-.1.2-.2.4-.3h1.1c.1,0,.2.1.3.2,0,0,.1.2.1.3v1.8c0,.1,0,.2.1.3h-.5v-.3M38.3,94.3c-.2,0-.4.1-.7.2h-.4s-.1,0-.2.1v.2c0,.1,0,.2.1.3,0,0,.2.1.4.1s.3,0,.5-.1c.1,0,.2-.2.3-.3v-.6h0Z"/>
  <line class="cls-3" x1="43.6" y1="89.4" x2="42.6" y2="89.4"/>
  <path class="cls-30" d="M28.2,90.9v.4h-.7c-.1,0-.1-.1-.2-.2v-2h-.3v-.3h.3v-.6l.4-.3v.9h.4v.3h-.4v1.7h.5Z"/>
  <path class="cls-30" d="M29.1,91.3h-.4v-3.6h.4v1.3c.2-.2.4-.3.7-.3h.5c.1,0,.3.2.4.3,0,.1.2.3.2.4v.5c0,.4-.1.8-.3,1s-.5.4-.8.4-.5-.1-.7-.4v.3M29.1,90c0,.3,0,.5.1.7s.3.3.6.3.4,0,.5-.2.2-.4.2-.7,0-.6-.2-.7-.3-.2-.5-.2-.4,0-.5.3c-.1.2-.2.4-.2.7h0v-.2Z"/>
  <path class="cls-30" d="M31.1,91.3l.9-1.3-.9-1.2h.5l.4.6c0,.1.1.2.2.3,0-.1.1-.2.2-.3l.4-.6h.5l-.9,1.2,1,1.4h-.5l-.5-.8v-.2c-.1,0-.8,1-.8,1h-.5Z"/>
  <path class="cls-30" d="M36.2,90.8v.4h-2.4v-.3c0-.2.2-.3.3-.5.1-.2.3-.3.6-.5.4-.3.7-.6.8-.8.1-.2.2-.4.2-.5s0-.3-.2-.4c-.1-.1-.3-.2-.5-.2s-.4,0-.5.2c-.1.1-.2.3-.2.5h-.5c0-.4.1-.6.3-.8s.5-.3.8-.3.6,0,.8.3.3.4.3.7v.4c0,.1-.2.3-.3.4-.1.2-.4.4-.7.6-.3.2-.4.4-.5.5,0,0-.1.2-.2.2h1.9Z"/>
  <path class="cls-30" d="M38.2,91.3h-.4v-2.8c-.1.1-.2.2-.4.3-.2.1-.3.2-.5.2v-.4c.2-.1.5-.3.6-.4.2-.2.3-.3.4-.5h.3v3.6h0Z"/>
  <line class="cls-3" x1="43.6" y1="85" x2="42.6" y2="85"/>
  <path class="cls-30" d="M25.8,87.7v-3.6h.4v.3c0-.1.2-.2.3-.3s.3-.1.4-.1.4,0,.6.2c.2.1.3.3.4.5,0,.2.1.4.1.7s0,.5-.1.7-.2.4-.4.5c-.2.1-.4.2-.6.2h-.4c-.1,0-.2-.1-.3-.2v1.3h-.4M26.2,85.4c0,.3,0,.6.2.7.1.2.3.2.5.2s.4,0,.5-.2.2-.4.2-.8,0-.6-.2-.7c-.1-.2-.3-.2-.5-.2s-.4,0-.5.3c-.1.2-.2.4-.2.8h0Z"/>
  <path class="cls-30" d="M30.4,86.4c-.2.1-.3.2-.5.3h-.5c-.3,0-.5,0-.7-.2s-.2-.3-.2-.5v-.3c0-.1.1-.2.2-.3,0,0,.2-.1.3-.1h.4c.4,0,.6,0,.8-.2h0c0-.3,0-.4-.1-.5s-.3-.1-.5-.1-.4,0-.5.1c0,0-.2.2-.2.4h-.4c0-.2.1-.4.2-.5,0-.1.2-.2.4-.3h1.1c.1,0,.2.1.3.2,0,0,.1.2.1.3v1.8c0,.1,0,.2.1.3h-.5v-.3M30.4,85.4c-.2,0-.4.1-.7.2h-.4s-.1,0-.2.1v.2c0,.1,0,.2.1.3,0,0,.2.1.4.1s.3,0,.5-.1c.1,0,.2-.2.3-.3v-.6h0Z"/>
  <path class="cls-30" d="M31.1,86.7l.9-1.3-.9-1.2h.5l.4.6c0,.1.1.2.2.3,0-.1.1-.2.2-.3l.4-.6h.5l-.9,1.2,1,1.4h-.5l-.5-.8v-.2c-.1,0-.8,1-.8,1h-.5Z"/>
  <path class="cls-30" d="M35.5,86.7h-.4v-2.8c-.1.1-.2.2-.4.3-.2.1-.3.2-.5.2v-.4c.2-.1.5-.3.6-.4.2-.2.3-.3.4-.5h.3v3.6h0Z"/>
  <path class="cls-30" d="M38.3,86.4c-.2.1-.3.2-.5.3h-.5c-.3,0-.5,0-.7-.2s-.2-.3-.2-.5v-.3c0-.1.1-.2.2-.3,0,0,.2-.1.3-.1h.4c.4,0,.6,0,.8-.2h0c0-.3,0-.4-.1-.5s-.3-.1-.5-.1-.4,0-.5.1c0,0-.2.2-.2.4h-.4c0-.2.1-.4.2-.5,0-.1.2-.2.4-.3h1.1c.1,0,.2.1.3.2,0,0,.1.2.1.3v1.8c0,.1,0,.2.1.3h-.5v-.3M38.3,85.4c-.2,0-.4.1-.7.2h-.4s-.1,0-.2.1v.2c0,.1,0,.2.1.3,0,0,.2.1.4.1s.3,0,.5-.1c.1,0,.2-.2.3-.3v-.6h0Z"/>
  <line class="cls-3" x1="43.6" y1="80.6" x2="42.6" y2="80.6"/>
  <path class="cls-30" d="M33.1,81.6h.5c0,.3-.2.5-.4.7-.2.1-.4.2-.7.2s-.7-.1-.9-.3-.3-.6-.3-1,.1-.8.3-1c.2-.2.5-.4.9-.4s.6.1.8.4c.2.2.3.6.3,1s0,0,0,.1h-1.9c0,.3,0,.5.2.7.1.2.3.2.5.2s.3,0,.4-.1c.1,0,.2-.2.3-.4M31.7,80.8h1.4c0-.2,0-.4-.2-.5-.1-.2-.3-.3-.5-.3s-.4,0-.5.2c-.1.1-.2.3-.2.5h0Z"/>
  <polygon class="cls-30" points="34.2 82.4 34.2 78.8 34.7 78.8 34.7 82.4 34.2 82.4 34.2 82.4"/>
  <path class="cls-30" d="M35.3,82.4v-2.3h-.4v-.3h.4v-.7c0-.1.1-.2.2-.3.1,0,.3-.1.4-.1h.4v.4h-.6v.5h.5v.3h-.5v2.3h-.4v.2Z"/>
  <path class="cls-30" d="M36.5,81.4h.4c0,.2.1.4.3.5.1.1.3.2.4.2s.4,0,.5-.2c.1-.1.2-.3.2-.5s0-.4-.2-.5c-.1-.1-.3-.2-.5-.2h-.3v-.4h.1c.2,0,.4,0,.5-.1.1,0,.2-.2.2-.5s0-.3-.2-.4c-.1-.1-.2-.2-.4-.2s-.3,0-.4.2c-.1.1-.2.3-.2.5h-.4c0-.4.2-.6.4-.8s.4-.2.7-.2.4,0,.5.1c.2,0,.3.2.4.3,0,.1.1.3.1.5s0,.3-.1.4c0,.1-.2.2-.4.3.2,0,.4.2.5.3s.2.3.2.6-.1.6-.3.8-.5.3-.9.3-.6,0-.8-.3c-.2-.2-.3-.4-.4-.7h0Z"/>
  <line class="cls-3" x1="43.6" y1="76.2" x2="42.6" y2="76.2"/>
  <path class="cls-30" d="M24.5,78.1v-2.3h-.4v-.3h.4v-.7c0-.1.1-.2.2-.3.1,0,.3-.1.4-.1h.4v.4h-.6v.5h.5v.3h-.5v2.3h-.4v.2Z"/>
  <path class="cls-30" d="M25.7,76.8c0-.5.1-.8.4-1.1.2-.2.5-.3.8-.3s.6.1.9.4.3.6.3,1,0,.6-.2.8c-.1.2-.2.3-.4.4-.2.1-.4.2-.6.2-.4,0-.7-.1-.9-.3s-.3-.6-.3-1M26.1,76.8c0,.3,0,.6.2.7.1.2.3.2.5.2s.4,0,.5-.2.2-.4.2-.8,0-.6-.2-.7c-.1-.2-.3-.2-.5-.2s-.4,0-.5.2-.2.4-.2.7h0Z"/>
  <path class="cls-30" d="M28.4,78.1l.9-1.3-.9-1.2h.5l.4.6c0,.1.1.2.2.3,0-.1.1-.2.2-.3l.4-.6h.5l-.9,1.2,1,1.4h-.5l-.5-.8v-.2c-.1,0-.8,1-.8,1h-.5Z"/>
  <path class="cls-30" d="M31.1,79.1v-3.6h.4v.3c0-.1.2-.2.3-.3.1,0,.3-.1.4-.1s.4,0,.6.2c.2.1.3.3.4.5,0,.2.1.4.1.7s0,.5-.1.7-.2.4-.4.5c-.2.1-.4.2-.6.2h-.4c-.1,0-.2-.1-.3-.2v1.3h-.4M31.5,76.8c0,.3,0,.6.2.7.1.2.3.2.5.2s.4,0,.5-.2.2-.4.2-.8,0-.6-.2-.7c-.1-.2-.3-.2-.5-.2s-.4,0-.5.3c-.1.2-.2.4-.2.8h0Z"/>
  <path class="cls-30" d="M33.9,77.1h.4c0,.2.1.4.3.5.1.1.3.2.4.2s.4,0,.5-.2c.1-.1.2-.3.2-.5s0-.4-.2-.5c-.1-.1-.3-.2-.5-.2h-.3v-.4h.1c.2,0,.4,0,.5-.1.1,0,.2-.2.2-.5s0-.3-.2-.4c-.1-.1-.2-.2-.4-.2s-.3,0-.4.2c-.1.1-.2.3-.2.5h-.4c0-.4.2-.6.4-.8s.4-.2.7-.2.4,0,.5.1c.2,0,.3.2.4.3,0,.1.1.3.1.5s0,.3-.1.4-.2.2-.4.3c.2,0,.4.2.5.3s.2.3.2.6-.1.6-.3.8-.5.3-.9.3-.6,0-.8-.3c-.2-.2-.3-.4-.4-.7h0Z"/>
  <path class="cls-30" d="M38.3,77.8c-.2.1-.3.2-.5.3h-.5c-.3,0-.5,0-.7-.2s-.2-.3-.2-.5v-.3c0-.1.1-.2.2-.3,0,0,.2-.1.3-.1h.4c.4,0,.6,0,.8-.2h0c0-.3,0-.4-.1-.5s-.3-.1-.5-.1-.4,0-.5.1c0,0-.2.2-.2.4h-.4c0-.2.1-.4.2-.5,0-.1.2-.2.4-.3h1.1c.1,0,.2.1.3.2,0,0,.1.2.1.3v1.8c0,.1,0,.2.1.3h-.5v-.3M38.3,76.8c-.2,0-.4.1-.7.2h-.4s-.1,0-.2.1v.2c0,.1,0,.2.1.3,0,0,.2.1.4.1s.3,0,.5-.1c.1,0,.2-.2.3-.3v-.6h0Z"/>
  <line class="cls-3" x1="43.6" y1="71.8" x2="42.6" y2="71.8"/>
  <path class="cls-30" d="M23.9,73.5v-2.6h.4v.4c.2-.3.5-.4.8-.4h.4c.1,0,.2.1.3.2,0,0,.1.2.1.3v2h-.4v-2s0-.2-.2-.2h-.3c-.2,0-.3,0-.5.2s-.2.3-.2.7v1.4h-.4,0Z"/>
  <path class="cls-30" d="M26.8,73.5v-2.6h.4v.4c.1-.2.2-.3.3-.4h.3c.1,0,.3,0,.5.1l-.2.4h-.6l-.2.2v1.9h-.5Z"/>
  <path class="cls-30" d="M29.8,73.5h-.4v-2.8c-.1.1-.2.2-.4.3-.2.1-.3.2-.5.2v-.4c.2-.1.5-.3.6-.4.2-.2.3-.3.4-.5h.3v3.6h0Z"/>
  <path class="cls-30" d="M32.8,73.5v-.3c-.2.3-.4.4-.7.4s-.4,0-.6-.2c-.2-.1-.3-.3-.4-.5,0-.2-.1-.4-.1-.7s0-.5.1-.7c0-.2.2-.4.4-.5.2-.1.4-.2.6-.2s.3,0,.4.1c.1,0,.2.2.3.3v-1.3h.4v3.6h-.4M31.4,72.2c0,.3,0,.6.2.7.1.2.3.2.5.2s.4,0,.5-.2.2-.4.2-.7,0-.6-.2-.8c-.1-.2-.3-.2-.5-.2s-.4,0-.5.2-.2.4-.2.8h0Z"/>
  <path class="cls-30" d="M35.3,73.5v-.9h-1.6v-.4l1.6-2.3h.4v2.3h.5v.4h-.5v.9h-.4M35.3,72.3v-1.6l-1.1,1.6h1.1Z"/>
  <path class="cls-30" d="M38.3,73.2c-.2.1-.3.2-.5.3h-.5c-.3,0-.5,0-.7-.2s-.2-.3-.2-.5v-.3c0-.1.1-.2.2-.3,0,0,.2-.1.3-.1h.4c.4,0,.6,0,.8-.2h0c0-.3,0-.4-.1-.5s-.3-.1-.5-.1-.4,0-.5.1c0,0-.2.2-.2.4h-.4c0-.2.1-.4.2-.5,0-.1.2-.2.4-.3h1.1c.1,0,.2.1.3.2,0,0,.1.2.1.3v1.8c0,.1,0,.2.1.3h-.5v-.3M38.3,72.2c-.2,0-.4.1-.7.2h-.4s-.1,0-.2.1v.2c0,.1,0,.2.1.3,0,0,.2.1.4.1s.3,0,.5-.1c.1,0,.2-.2.3-.3v-.6h0Z"/>
  <line class="cls-3" x1="43.6" y1="67.4" x2="42.6" y2="67.4"/>
  <path class="cls-30" d="M27.4,69.2v-2.3h-.4v-.3h.4v-.7c0-.1.1-.2.2-.3.1,0,.3-.1.4-.1h.4v.4h-.6v.5h.5v.3h-.5v2.3h-.4v.2Z"/>
  <path class="cls-30" d="M28.6,67.9c0-.5.1-.8.4-1.1.2-.2.5-.3.8-.3s.6.1.9.4.3.6.3,1,0,.6-.2.8c-.1.2-.2.3-.4.4-.2.1-.4.2-.6.2-.4,0-.7-.1-.9-.3s-.3-.6-.3-1M29,67.9c0,.3,0,.6.2.7.1.2.3.2.5.2s.4,0,.5-.2.2-.4.2-.8,0-.6-.2-.7c-.1-.2-.3-.2-.5-.2s-.4,0-.5.2-.2.4-.2.7h0Z"/>
  <path class="cls-30" d="M31.1,69.2l.9-1.3-.9-1.2h.5l.4.6c0,.1.1.2.2.3,0-.1.1-.2.2-.3l.4-.6h.5l-.9,1.2,1,1.4h-.5l-.5-.8v-.2c-.1,0-.8,1-.8,1h-.5Z"/>
  <path class="cls-30" d="M35.7,69.2v-.3c-.2.3-.4.4-.7.4s-.4,0-.6-.2c-.2-.1-.3-.3-.4-.5,0-.2-.1-.4-.1-.7s0-.5.1-.7c0-.2.2-.4.4-.5.2-.1.4-.2.6-.2s.3,0,.4.1l.3.3v-1.3h.4v3.6h-.4M34.3,67.9c0,.3,0,.6.2.7.1.2.3.2.5.2s.4,0,.5-.2.2-.4.2-.7,0-.6-.2-.8c-.1-.2-.3-.2-.5-.2s-.4,0-.5.2-.2.4-.2.8h0Z"/>
  <path class="cls-30" d="M36.5,68.2h.4c0,.2.1.4.3.5.1.1.3.2.4.2s.4,0,.5-.2c.1-.1.2-.3.2-.5s0-.4-.2-.5c-.1-.1-.3-.2-.5-.2h-.3v-.4h.1c.2,0,.4,0,.5-.1.1,0,.2-.2.2-.5s0-.3-.2-.4c-.1-.1-.2-.2-.4-.2s-.3,0-.4.2c-.1.1-.2.3-.2.5h-.4c0-.4.2-.6.4-.8s.4-.2.7-.2.4,0,.5.1c.2,0,.3.2.4.3,0,.1.1.3.1.5s0,.3-.1.4c0,.1-.2.2-.4.3.2,0,.4.2.5.3s.2.3.2.6-.1.6-.3.8-.5.3-.9.3-.6,0-.8-.3c-.2-.2-.3-.4-.4-.7h0Z"/>
  <line class="cls-3" x1="43.6" y1="63" x2="42.6" y2="63"/>
  <path class="cls-30" d="M29.7,64.5v.4h-.7c-.1,0-.1-.1-.2-.2v-2h-.3v-.3h.3v-.6l.4-.3v.9h.4v.3h-.4v1.7h.5Z"/>
  <path class="cls-30" d="M30.3,64.9h-.4v-3.6h.4v1.3c.2-.2.4-.3.7-.3h.5c.1,0,.3.2.4.3,0,.1.2.3.2.4v.5c0,.4-.1.8-.3,1s-.5.4-.8.4-.5-.1-.7-.4v.3M30.3,63.6c0,.3,0,.5.1.7s.3.3.6.3.4,0,.5-.2.2-.4.2-.7,0-.6-.2-.7c-.1-.2-.3-.2-.5-.2s-.4,0-.5.3c-.1.2-.2.4-.2.7h0v-.2Z"/>
  <path class="cls-30" d="M32.8,65.9v-3.6h.4v.3c0-.1.2-.2.3-.3.1,0,.3-.1.4-.1s.4,0,.6.2c.2.1.3.3.4.5,0,.2.1.4.1.7s0,.5-.1.7-.2.4-.4.5c-.2.1-.4.2-.6.2h-.4c-.1,0-.2-.1-.3-.2v1.3h-.4M33.2,63.6c0,.3,0,.6.2.7.1.2.3.2.5.2s.4,0,.5-.2.2-.4.2-.8,0-.6-.2-.7c-.1-.2-.3-.2-.5-.2s-.4,0-.5.3c-.1.2-.2.4-.2.8h0Z"/>
  <polygon class="cls-30" points="35.7 64.9 35.7 61.3 36.1 61.3 36.1 64.9 35.7 64.9 35.7 64.9"/>
  <path class="cls-30" d="M38.8,64.4v.4h-2.4v-.3c0-.2.2-.3.3-.5.1-.2.3-.3.6-.5.4-.3.7-.6.8-.8.1-.2.2-.4.2-.5s0-.3-.2-.4c-.1-.1-.3-.2-.5-.2s-.4,0-.5.2c-.1.1-.2.3-.2.5h-.5c0-.4.1-.6.3-.8s.5-.3.8-.3.6,0,.8.3c.2.2.3.4.3.7v.4c0,.1-.2.3-.3.4-.1.2-.4.4-.7.6-.3.2-.4.4-.5.5,0,0-.1.2-.2.2h1.9Z"/>
  <line class="cls-3" x1="43.6" y1="58.6" x2="42.6" y2="58.6"/>
  <path class="cls-30" d="M32.3,59.9v.4h-.7c-.1,0-.1-.1-.2-.2v-2h-.3v-.3h.3v-.6l.4-.3v.9h.4v.3h-.4v1.7h.5Z"/>
  <path class="cls-30" d="M34.5,60c-.2.1-.3.2-.5.3h-.5c-.3,0-.5,0-.7-.2s-.2-.3-.2-.5v-.3c0-.1.1-.2.2-.3,0,0,.2-.1.3-.1h.4c.4,0,.6,0,.8-.2h0c0-.3,0-.4-.1-.5s-.3-.1-.5-.1-.4,0-.5.1c0,0-.2.2-.2.4h-.4c0-.2.1-.4.2-.5,0-.1.2-.2.4-.3h1.1c.1,0,.2.1.3.2,0,0,.1.2.1.3v1.8c0,.1,0,.2.1.3h-.5v-.3M34.4,59c-.2,0-.4.1-.7.2h-.4s-.1,0-.2.1v.2c0,.1,0,.2.1.3,0,0,.2.1.4.1s.3,0,.5-.1c.1,0,.2-.2.3-.3v-.6h0Z"/>
  <polygon class="cls-30" points="35.7 60.3 35.7 56.7 36.1 56.7 36.1 60.3 35.7 60.3 35.7 60.3"/>
  <path class="cls-30" d="M38.8,59.9v.4h-2.4v-.3c0-.2.2-.3.3-.5.1-.2.3-.3.6-.5.4-.3.7-.6.8-.8.1-.2.2-.4.2-.5s0-.3-.2-.4c-.1-.1-.3-.2-.5-.2s-.4,0-.5.2c-.1.1-.2.3-.2.5h-.5c0-.4.1-.6.3-.8s.5-.3.8-.3.6,0,.8.3c.2.2.3.4.3.7v.4c0,.1-.2.3-.3.4-.1.2-.4.4-.7.6-.3.2-.4.4-.5.5,0,0-.1.2-.2.2h1.9Z"/>
  <line class="cls-3" x1="43.6" y1="54.2" x2="42.6" y2="54.2"/>
  <polygon class="cls-30" points="27.5 56 27.5 52.4 27.9 52.4 27.9 56 27.5 56 27.5 56"/>
  <path class="cls-30" d="M28.7,56v-3.6h.4v1.3c.2-.2.5-.4.8-.4s.4,0,.5.1l.3.3c0,0,0,.3,0,.6v1.6h-.4v-1.6c0-.2,0-.4-.1-.5s-.2-.2-.4-.2-.3,0-.4.1c-.1,0-.2.2-.2.3v1.9h-.5Z"/>
  <path class="cls-30" d="M31.1,56l.9-1.3-.9-1.2h.5l.4.6c0,.1.1.2.2.3,0-.1.1-.2.2-.3l.4-.6h.5l-.9,1.2,1,1.4h-.5l-.5-.8v-.2c-.1,0-.8,1-.8,1h-.5Z"/>
  <path class="cls-30" d="M35.5,56h-.4v-2.8c-.1.1-.2.2-.4.3-.2.1-.3.2-.5.2v-.4c.2-.1.5-.3.6-.4s.3-.3.4-.5h.3v3.6h0Z"/>
  <path class="cls-30" d="M38.3,55.7c-.2.1-.3.2-.5.3h-.5c-.3,0-.5,0-.7-.2s-.2-.3-.2-.5v-.3c0-.1.1-.2.2-.3,0,0,.2-.1.3-.1h.4c.4,0,.6,0,.8-.2h0c0-.3,0-.4-.1-.5s-.3-.1-.5-.1-.4,0-.5.1c0,0-.2.2-.2.4h-.4c0-.2.1-.4.2-.5,0-.1.2-.2.4-.3s.4,0,.6,0h.5c.1,0,.2.1.3.2,0,0,.1.2.1.3v1.8c0,.1,0,.2.1.3h-.5v-.3M38.3,54.7c-.2,0-.4.1-.7.2h-.4s-.1,0-.2.1v.2c0,.1,0,.2.1.3,0,0,.2.1.4.1s.3,0,.5-.1c.1,0,.2-.2.3-.3v-.6h0Z"/>
  <line class="cls-3" x1="43.6" y1="49.8" x2="42.6" y2="49.8"/>
  <path class="cls-30" d="M28.6,51.9h.4c0,.2,0,.3.1.4.1,0,.3.1.4.1s.4,0,.5-.1.2-.2.2-.3v-.6c-.2.2-.4.3-.7.3s-.6-.1-.8-.4-.3-.6-.3-.9,0-.5.1-.7c0-.2.2-.4.4-.5.2-.1.4-.2.6-.2s.6.1.8.4v-.3h.4v2.2c0,.4,0,.7-.1.9,0,.2-.2.3-.4.4-.2,0-.4.1-.7.1s-.6,0-.7-.2-.3-.3-.3-.6M29,50.3c0,.3,0,.6.2.7.1.2.3.2.5.2s.4,0,.5-.2.2-.4.2-.7,0-.6-.2-.7c-.1-.2-.3-.2-.5-.2s-.4,0-.5.2-.2.4-.2.7h0Z"/>
  <path class="cls-30" d="M31.8,51.7h-.4v-3.6h.4v1.3c.2-.2.4-.3.7-.3h.5c.1,0,.3.2.4.3,0,.1.2.3.2.4v.5c0,.4-.1.8-.3,1s-.5.4-.8.4-.5-.1-.7-.4v.3M31.8,50.4c0,.3,0,.5.1.7s.3.3.6.3.4,0,.5-.2.2-.4.2-.7,0-.6-.2-.7c-.1-.2-.3-.2-.5-.2s-.4,0-.5.3c-.1.2-.2.4-.2.7h0v-.2Z"/>
  <path class="cls-30" d="M33.9,51.7l.9-1.3-.9-1.2h.5l.4.6c0,.1.1.2.2.3,0-.1.1-.2.2-.3l.4-.6h.5l-.9,1.2,1,1.4h-.5l-.5-.8v-.2c-.1,0-.8,1-.8,1h-.5Z"/>
  <path class="cls-30" d="M38.2,51.7h-.4v-2.8c-.1.1-.2.2-.4.3-.2.1-.3.2-.5.2v-.4c.2-.1.5-.3.6-.4.2-.2.3-.3.4-.5h.3v3.6h0Z"/>
  <line class="cls-3" x1="43.6" y1="45.4" x2="42.6" y2="45.4"/>
  <path class="cls-30" d="M23,47.1v-2.6h.4v.4c.2-.3.5-.4.8-.4h.4c.1,0,.2.1.3.2,0,0,.1.2.1.3v2h-.4v-2s0-.2-.2-.2h-.3c-.2,0-.3,0-.5.2s-.2.3-.2.7v1.4h-.4,0Z"/>
  <path class="cls-30" d="M25.9,47.1v-2.3h-.4v-.3h.4v-.7c0-.1.1-.2.2-.3.1,0,.3-.1.4-.1h.4v.4h-.6v.5h.5v.3h-.5v2.3h-.4v.2Z"/>
  <path class="cls-30" d="M29,46.8c-.2.1-.3.2-.5.3h-.5c-.3,0-.5,0-.7-.2s-.2-.3-.2-.5v-.3c0-.1.1-.2.2-.3,0,0,.2-.1.3-.1h.4c.4,0,.6,0,.8-.2h0c0-.3,0-.4-.1-.5s-.3-.1-.5-.1-.4,0-.5.1c0,0-.2.2-.2.4h-.4c0-.2.1-.4.2-.5,0-.1.2-.2.4-.3h1.1c.1,0,.2.1.3.2,0,0,.1.2.1.3v1.8c0,.1,0,.2.1.3h-.5v-.3M28.9,45.8c-.2,0-.4.1-.7.2h-.4s-.1,0-.2.1v.2c0,.1,0,.2.1.3,0,0,.2.1.4.1s.3,0,.5-.1c.1,0,.2-.2.3-.3v-.6h0Z"/>
  <path class="cls-30" d="M30.9,46.7v.4h-.7c-.1,0-.1-.1-.2-.2v-2h-.3v-.3h.3v-.6l.4-.3v.9h.4v.3h-.4v1.7h.5Z"/>
  <path class="cls-30" d="M33,46.2h.4c0,.4-.2.6-.4.8s-.4.3-.7.3-.6-.1-.9-.3c-.2-.2-.3-.6-.3-1s0-.5.1-.7c0-.2.2-.4.4-.5.2-.1.4-.2.6-.2s.5,0,.7.2c.2.1.3.3.3.6h-.4c0-.1-.1-.2-.2-.3-.1,0-.2-.1-.4-.1s-.4,0-.5.2-.2.4-.2.8,0,.6.2.8c.1.2.3.2.5.2s.3,0,.4-.2c.1-.1.2-.3.2-.5h.2Z"/>
  <path class="cls-30" d="M36.2,46.7v.4h-2.4v-.3c0-.2.2-.3.3-.5.1-.2.3-.3.6-.5.4-.3.7-.6.8-.8.1-.2.2-.4.2-.5s0-.3-.2-.4c-.1-.1-.3-.2-.5-.2s-.4,0-.5.2c-.1.1-.2.3-.2.5h-.5c0-.4.1-.6.3-.8s.5-.3.8-.3.6,0,.8.3.3.4.3.7v.4c0,.1-.2.3-.3.4-.1.2-.4.4-.7.6-.3.2-.4.4-.5.5,0,0-.1.2-.2.2h1.9Z"/>
  <path class="cls-30" d="M37,47.1h-.4v-3.6h.4v1.3c.2-.2.4-.3.7-.3h.5c.1,0,.3.2.4.3,0,.1.2.3.2.4v.5c0,.4-.1.8-.3,1s-.5.4-.8.4-.5-.1-.7-.4v.3M37,45.8c0,.3,0,.5.1.7s.3.3.6.3.4,0,.5-.2.2-.4.2-.7,0-.6-.2-.7c-.1-.2-.3-.2-.5-.2s-.4,0-.5.3c-.1.2-.2.4-.2.7h0v-.2Z"/>
  <line class="cls-3" x1="43.6" y1="41" x2="42.6" y2="41"/>
  <path class="cls-30" d="M32.1,39.7v-.5h.4v.5h-.4M32.1,42.8v-2.6h.4v2.6h-.4Z"/>
  <path class="cls-30" d="M32.9,42h.4c0,.1,0,.2.2.3.1,0,.3.1.5.1s.4,0,.4-.1c0,0,.1-.2.1-.3s0-.2-.1-.2c0,0-.2,0-.4-.1-.3,0-.5-.2-.7-.2s-.2-.1-.3-.2v-.6c0-.1.1-.2.2-.2,0,0,.2,0,.3-.1h.9c.1,0,.3.1.3.2s.1.2.2.4h-.4s0-.2-.2-.3c0,0-.2-.1-.4-.1s-.3,0-.4.1c0,0-.1.1-.1.2v.2h.2c0,.1.2.1.4.2.3,0,.5.2.6.2s.2.1.3.2c0,.1.1.2.1.4s0,.3-.1.4c0,.1-.2.2-.4.3-.2,0-.3.1-.5.1-.3,0-.6,0-.8-.2-.2-.1-.3-.3-.3-.6h0Z"/>
  <polygon class="cls-30" points="35.7 42.8 35.7 39.2 36.1 39.2 36.1 42.8 35.7 42.8 35.7 42.8"/>
  <path class="cls-30" d="M38.2,42.8h-.4v-2.8c-.1.1-.2.2-.4.3-.2.1-.3.2-.5.2v-.4c.2-.1.5-.3.6-.4.2-.2.3-.3.4-.5h.3v3.6h0Z"/>
  <line class="cls-3" x1="43.6" y1="36.6" x2="42.6" y2="36.6"/>
  <path class="cls-30" d="M30.4,38.5v-2.6h.4v.4c0-.1.2-.2.3-.3.1,0,.3-.1.5-.1s.3,0,.5.1c.1,0,.2.2.3.3.2-.3.5-.5.8-.5s.5,0,.6.2c.1.1.2.4.2.7v1.8h-.4v-2s0-.1-.2-.2h-.3c-.2,0-.3,0-.5.2s-.2.3-.2.6v1.5h-.4v-1.7c0-.2,0-.3-.1-.4,0,0-.2-.1-.4-.1h-.3c-.1,0-.2.2-.2.3v1.8h-.6Z"/>
  <path class="cls-30" d="M34.3,37.7h.4c0,.1,0,.2.2.3.1,0,.3.1.5.1s.4,0,.4-.1c0,0,.1-.2.1-.3s0-.2-.1-.2c0,0-.2,0-.4-.1-.3,0-.5-.2-.7-.2s-.2-.1-.3-.2v-.6c0-.1.1-.2.2-.2,0,0,.2,0,.3-.1h.9c.1,0,.3.1.3.2s.1.2.2.4h-.4s0-.2-.2-.3c0,0-.2-.1-.4-.1s-.3,0-.4.1c0,0-.1.1-.1.2v.2h.2c0,.1.2.1.4.2.3,0,.5.2.6.2s.2.1.3.2c0,.1.1.2.1.4s0,.3-.1.4c0,.1-.2.2-.4.3-.2,0-.3.1-.5.1-.3,0-.6,0-.8-.2-.2-.1-.3-.3-.3-.6h0Z"/>
  <path class="cls-30" d="M38.6,37.5h.4c0,.4-.2.6-.4.8s-.4.3-.7.3-.6-.1-.9-.3c-.2-.2-.3-.6-.3-1s0-.5.1-.7c0-.2.2-.4.4-.5.2-.1.4-.2.6-.2s.5,0,.7.2c.2.1.3.3.3.6h-.4c0-.1-.1-.2-.2-.3-.1,0-.2-.1-.4-.1s-.4,0-.5.2-.2.4-.2.8,0,.6.2.8c.1.2.3.2.5.2s.3,0,.4-.2c.1-.1.2-.3.2-.5h.2Z"/>
  <line class="cls-3" x1="43.6" y1="32.2" x2="42.6" y2="32.2"/>
  <path class="cls-30" d="M27.3,33.9v-2.6h.4v.4c0-.1.2-.2.3-.3.1,0,.3-.1.5-.1s.3,0,.5.1c.1,0,.2.2.3.3.2-.3.5-.5.8-.5s.5,0,.6.2c.1.1.2.4.2.7v1.8h-.4v-2s0-.1-.2-.2-.2,0-.3,0c-.2,0-.3,0-.5.2s-.2.3-.2.6v1.5h-.4v-1.7c0-.2,0-.3-.1-.4s-.2-.1-.4-.1h-.3c0,0-.2.2-.2.3v1.8h-.6Z"/>
  <path class="cls-30" d="M31.3,34.9v-.4h.4s.1,0,.1-.1c0,0,0-.2.1-.3h0c0-.1-1-2.7-1-2.7h.5l.5,1.5c0,.2.1.4.2.6,0-.2.1-.4.2-.6l.6-1.5h.4l-1,2.6c-.1.3-.2.5-.2.6s-.2.3-.3.3-.2.1-.4.1h-.3.2Z"/>
  <path class="cls-30" d="M33.8,32.6c0-.5.1-.8.4-1.1.2-.2.5-.3.8-.3s.6.1.9.4.3.6.3,1,0,.6-.2.8c-.1.2-.2.3-.4.4-.2.1-.4.2-.6.2-.4,0-.7-.1-.9-.3s-.3-.6-.3-1M34.3,32.6c0,.3,0,.6.2.7.1.2.3.2.5.2s.4,0,.5-.2.2-.4.2-.8,0-.6-.2-.7c-.1-.2-.3-.2-.5-.2s-.4,0-.5.2-.2.4-.2.7h0Z"/>
  <path class="cls-30" d="M36.6,34.1h.4c0,.2,0,.3.1.4.1,0,.3.1.4.1s.4,0,.5-.1.2-.2.2-.3v-.6c-.2.2-.4.3-.7.3s-.6-.1-.8-.4c-.2-.3-.3-.6-.3-.9s0-.5.1-.7c0-.2.2-.4.4-.5.2-.1.4-.2.6-.2s.6.1.8.4v-.3h.4v2.2c0,.4,0,.7-.1.9,0,.2-.2.3-.4.4-.2,0-.4.1-.7.1s-.6,0-.7-.2-.3-.3-.3-.6M36.9,32.6c0,.3,0,.6.2.7.1.2.3.2.5.2s.4,0,.5-.2.2-.4.2-.7,0-.6-.2-.7c-.1-.2-.3-.2-.5-.2s-.4,0-.5.2-.2.4-.2.7h0Z"/>
  <line class="cls-3" x1="43.6" y1="27.8" x2="42.6" y2="27.8"/>
  <path class="cls-30" d="M26.8,29.3c-.2.1-.3.2-.5.3h-.5c-.3,0-.5,0-.7-.2s-.2-.3-.2-.5v-.3c0-.1.1-.2.2-.3,0,0,.2-.1.3-.1h.4c.4,0,.6,0,.8-.2h0c0-.3,0-.4-.1-.5s-.3-.1-.5-.1-.4,0-.5.1c0,0-.2.2-.2.4h-.4c0-.2.1-.4.2-.5,0-.1.2-.2.4-.3h1.1c.1,0,.2.1.3.2,0,0,.1.2.1.3v1.8c0,.1,0,.2.1.3h-.5v-.3M26.8,28.3c-.2,0-.4.1-.7.2h-.4s-.1,0-.2.1v.2c0,.1,0,.2.1.3,0,0,.2.1.4.1s.3,0,.5-.1c.1,0,.2-.2.3-.3v-.6h0Z"/>
  <path class="cls-30" d="M27.6,28.8h.4c0,.1,0,.2.2.3.1,0,.3.1.5.1s.4,0,.4-.1c0,0,.1-.2.1-.3s0-.2-.1-.2c0,0-.2,0-.4-.1-.3,0-.5-.2-.7-.2s-.2-.1-.3-.2v-.6c0-.1.1-.2.2-.2,0,0,.2,0,.3-.1h.9c.1,0,.3.1.3.2s.1.2.2.4h-.4s0-.2-.2-.3c0,0-.2-.1-.4-.1s-.3,0-.4.1c0,0-.1.1-.1.2v.2h.2c0,.1.2.1.4.2.3,0,.5.2.6.2s.2.1.3.2c0,.1.1.2.1.4s0,.3-.1.4c0,.1-.2.2-.4.3-.2,0-.3.1-.5.1-.3,0-.6,0-.8-.2-.2-.1-.3-.3-.3-.6h0Z"/>
  <path class="cls-30" d="M32.1,28.6h.4c0,.4-.2.6-.4.8s-.4.3-.7.3-.6-.1-.9-.3c-.2-.2-.3-.6-.3-1s0-.5.1-.7c0-.2.2-.4.4-.5.2-.1.4-.2.6-.2s.5,0,.7.2c.2.1.3.3.3.6h-.4c0-.1-.1-.2-.2-.3-.1,0-.2-.1-.4-.1s-.4,0-.5.2-.2.4-.2.8,0,.6.2.8c.1.2.3.2.5.2s.3,0,.4-.2c.1-.1.2-.3.2-.5h.2Z"/>
  <polygon class="cls-30" points="32.8 29.6 32.8 26 33.2 26 33.2 29.6 32.8 29.6 32.8 29.6"/>
  <path class="cls-30" d="M35.5,29.6h-.4v-2.8c-.1.1-.2.2-.4.3-.2.1-.3.2-.5.2v-.4c.2-.1.5-.3.6-.4.2-.2.3-.3.4-.5h.3v3.6h0Z"/>
  <path class="cls-30" d="M38.3,29.3c-.2.1-.3.2-.5.3h-.5c-.3,0-.5,0-.7-.2s-.2-.3-.2-.5v-.3c0-.1.1-.2.2-.3,0,0,.2-.1.3-.1h.4c.4,0,.6,0,.8-.2h0c0-.3,0-.4-.1-.5s-.3-.1-.5-.1-.4,0-.5.1c0,0-.2.2-.2.4h-.4c0-.2.1-.4.2-.5,0-.1.2-.2.4-.3h1.1c.1,0,.2.1.3.2,0,0,.1.2.1.3v1.8c0,.1,0,.2.1.3h-.5v-.3M38.3,28.3c-.2,0-.4.1-.7.2h-.4s-.1,0-.2.1v.2c0,.1,0,.2.1.3,0,0,.2.1.4.1s.3,0,.5-.1c.1,0,.2-.2.3-.3v-.6h0Z"/>
  <line class="cls-3" x1="43.6" y1="23.4" x2="42.6" y2="23.4"/>
  <path class="cls-30" d="M24.6,25.3v-2.6h.4v.4c.2-.3.5-.4.8-.4h.4c.1,0,.2.1.3.2s.1.2.1.3v2h-.4v-2s0-.2-.2-.2h-.3c-.2,0-.3,0-.5.2s-.2.3-.2.7v1.4h-.4,0Z"/>
  <polygon class="cls-30" points="27.5 25.3 27.5 21.7 28 21.7 28 23.7 29 22.7 29.6 22.7 28.6 23.6 29.7 25.3 29.1 25.3 28.3 23.9 28 24.2 28 25.3 27.5 25.3 27.5 25.3"/>
  <path class="cls-30" d="M29.6,25.3l.9-1.3-.9-1.2h.5l.4.6c0,.1.1.2.2.3,0-.1.1-.2.2-.3l.4-.6h.5l-.9,1.2,1,1.4h-.5l-.5-.8v-.2c-.1,0-.8,1-.8,1h-.5Z"/>
  <path class="cls-30" d="M34.7,24.8v.4h-2.4v-.3c0-.2.2-.3.3-.5.1-.2.3-.3.6-.5.4-.3.7-.6.8-.8.1-.2.2-.4.2-.5s0-.3-.2-.4-.3-.2-.5-.2-.4,0-.5.2-.2.3-.2.5h-.5c0-.4.1-.6.3-.8s.5-.3.8-.3.6,0,.8.3.3.4.3.7v.4c0,.1-.2.3-.3.4-.1.2-.4.4-.7.6-.3.2-.4.4-.5.5,0,0-.1.2-.2.2h1.9Z"/>
  <polygon class="cls-30" points="35.3 25.3 35.3 24.8 35.8 24.8 35.8 25.3 35.3 25.3 35.3 25.3"/>
  <path class="cls-30" d="M36.5,24.3h.5c0,.2.1.4.2.5s.3.2.5.2.4,0,.5-.2.2-.4.2-.6,0-.4-.2-.6-.3-.2-.6-.2h-.4c-.1,0-.2.1-.3.2h-.4l.3-1.9h1.8v.4h-1.4l-.2,1c.2-.1.4-.2.7-.2s.6.1.8.3.3.5.3.8,0,.6-.3.8c-.2.3-.5.4-.9.4s-.6,0-.8-.3c-.2-.2-.3-.4-.4-.7h0Z"/>
  <line class="cls-3" x1="43.6" y1="19" x2="42.6" y2="19"/>
  <path class="cls-30" d="M29.4,20.7v-3.6h.4v1.3c.2-.2.5-.4.8-.4s.4,0,.5.1l.3.3c0,0,0,.3,0,.6v1.6h-.4v-1.6c0-.2,0-.4-.1-.5s-.2-.2-.4-.2-.3,0-.4.1c-.1,0-.2.2-.2.3v1.9h-.5Z"/>
  <path class="cls-30" d="M34.1,19.9h.5c0,.3-.2.5-.4.7-.2.1-.4.2-.7.2s-.7-.1-.9-.3-.3-.6-.3-1,.1-.8.3-1c.2-.2.5-.4.9-.4s.6.1.8.4.3.6.3,1,0,0,0,.1h-1.9c0,.3,0,.5.2.7.1.2.3.2.5.2s.3,0,.4-.1c.1,0,.2-.2.3-.4M32.6,19.2h1.4c0-.2,0-.4-.2-.5-.1-.2-.3-.3-.5-.3s-.4,0-.5.2c-.1.1-.2.3-.2.5h0Z"/>
  <path class="cls-30" d="M34.9,20.7v-2.6h.4v.4c.1-.2.2-.3.3-.4h.3c.1,0,.3,0,.5.1l-.2.4h-.6l-.2.2v1.9h-.5Z"/>
  <path class="cls-30" d="M38.8,18h-.4c0-.1,0-.3-.2-.3-.1-.1-.3-.2-.4-.2s-.3,0-.4.1-.2.2-.3.4-.1.5-.1.8c.1-.2.2-.3.4-.4s.3-.1.5-.1c.3,0,.5.1.7.3.2.2.3.5.3.8s0,.4-.1.6c0,.2-.2.3-.4.4s-.4.2-.6.2c-.4,0-.7-.1-.9-.4-.2-.3-.3-.7-.3-1.3s.1-1.2.4-1.5c.2-.3.5-.4.9-.4s.5,0,.7.2.3.4.3.7M37,19.6v.4c0,.1.2.2.3.3.1,0,.2.1.4.1s.3,0,.5-.2.2-.4.2-.6,0-.4-.2-.6-.3-.2-.5-.2-.4,0-.5.2c-.1.1-.2.3-.2.6h0Z"/>
  <line class="cls-3" x1="43.6" y1="14.6" x2="42.6" y2="14.6"/>
  <path class="cls-30" d="M31.2,15.6h.5c0,.3-.2.5-.4.7s-.4.2-.7.2-.7-.1-.9-.3-.3-.6-.3-1,.1-.8.3-1,.5-.4.9-.4.6.1.8.4c.2.2.3.6.3,1s0,0,0,.1h-1.9c0,.3,0,.5.2.7.1.2.3.2.5.2s.3,0,.4-.1c.1,0,.2-.2.3-.4M29.8,14.8h1.4c0-.2,0-.4-.2-.5-.1-.2-.3-.3-.5-.3s-.4,0-.5.2c-.1.1-.2.3-.2.5h0Z"/>
  <path class="cls-30" d="M32.2,16.6h.4c0,.2,0,.3.1.4.1,0,.3.1.4.1s.4,0,.5-.1.2-.2.2-.3v-.6c-.2.2-.4.3-.7.3s-.6-.1-.8-.4c-.2-.3-.3-.6-.3-.9s0-.5.1-.7c0-.2.2-.4.4-.5.2-.1.4-.2.6-.2s.6.1.8.4v-.3h.4v2.2c0,.4,0,.7-.1.9,0,.2-.2.3-.4.4-.2,0-.4.1-.7.1s-.6,0-.7-.2-.3-.3-.3-.6M32.6,15c0,.3,0,.6.2.7.1.2.3.2.5.2s.4,0,.5-.2.2-.4.2-.7,0-.6-.2-.7c-.1-.2-.3-.2-.5-.2s-.4,0-.5.2-.2.4-.2.7h0Z"/>
  <path class="cls-30" d="M34.9,16.4v-2.6h.4v.4c.1-.2.2-.3.3-.4h.3c.1,0,.3,0,.5.1l-.2.4h-.6l-.2.2v1.9h-.5Z"/>
  <path class="cls-30" d="M38.2,16.4h-.4v-2.8c-.1.1-.2.2-.4.3-.2.1-.3.2-.5.2v-.4c.2-.1.5-.3.6-.4.2-.2.3-.3.4-.5h.3v3.6h0Z"/>
  <path class="cls-30" d="M16.4,118.4h-4.3v-1.9c0-.4,0-.7.1-.9,0-.2.2-.4.4-.5s.4-.2.6-.2.6,0,.8.3.3.5.4.9c0-.1.1-.3.2-.3.2-.2.3-.3.6-.5l1.2-.7v.7l-.9.6c-.3.2-.5.3-.6.4s-.2.2-.3.3,0,.2-.1.3v1h1.9v.6M14,117.8v-1.8c0-.1-.1-.3-.3-.3s-.2-.1-.4-.1-.4,0-.5.2c-.1.1-.2.4-.2.7v1.4h1.4Z"/>
  <path class="cls-30" d="M15.4,112v-.5c.4,0,.6.2.8.5s.3.5.3.9-.1.8-.4,1.1c-.3.3-.7.4-1.2.4s-.9-.1-1.2-.4-.4-.6-.4-1,.1-.8.4-1,.7-.4,1.2-.4,0,0,.1,0v2.3c.3,0,.6-.1.8-.3s.3-.4.3-.7,0-.4-.2-.5-.3-.2-.5-.3M14.5,113.8v-1.7c-.3,0-.5,0-.6.2-.2.2-.3.4-.3.7s0,.4.2.6.4.3.7.3h0Z"/>
  <path class="cls-30" d="M16.6,110.9v-.5c.2,0,.3,0,.4-.2,0-.1.1-.3.1-.5s0-.4-.1-.6-.2-.2-.4-.3h-.7c.3.2.4.5.4.9s-.2.8-.5,1-.7.4-1.1.4-.6,0-.8-.2c-.3-.1-.4-.3-.6-.5-.1-.2-.2-.4-.2-.7s.1-.7.4-.9h-.4v-.5h2.7c.5,0,.8,0,1,.1.2,0,.4.3.5.5s.2.5.2.8,0,.7-.3.9-.4.3-.8.3M14.8,110.5c.4,0,.7,0,.9-.2s.3-.4.3-.6,0-.4-.3-.6c-.2-.2-.5-.2-.9-.2s-.7,0-.9.3c-.2.2-.3.4-.3.6s0,.4.3.6.5.2.8.2h0Z"/>
  <path class="cls-30" d="M16.4,105.4h-.5c.4.2.5.6.5,1s0,.4-.1.5c0,.2-.2.3-.3.4-.1,0-.2.1-.4.2h-2.4v-.5h2.3c.1,0,.2-.1.3-.2s.1-.2.1-.4,0-.3-.1-.4c0-.1-.2-.2-.3-.3h-2.3v-.5h3.1v.5h0v-.3Z"/>
  <polygon class="cls-30" points="16.4 104.1 12.1 104.1 12.1 103.6 16.4 103.6 16.4 104.1 16.4 104.1"/>
  <path class="cls-30" d="M16,100.8c.2.2.3.4.4.6,0,.2.1.4.1.6,0,.3,0,.6-.2.8s-.4.3-.6.3-.3,0-.4-.1c-.1,0-.2-.2-.3-.3,0-.1-.1-.2-.2-.4v-.5c0-.4-.1-.7-.2-.9h-.1c-.2,0-.4,0-.5.1s-.2.3-.2.6,0,.4.1.6c0,.1.2.2.5.3v.5c-.3,0-.5-.1-.6-.2s-.2-.3-.3-.5-.1-.4-.1-.7v-.6c0-.1.1-.3.2-.4l.4-.2h2.1c.1,0,.3,0,.4-.1v.6c-.1,0-.2,0-.4.1M14.8,100.9c0,.2.1.5.2.9,0,.2,0,.4.1.5s0,.2.2.2h.2c.1,0,.3,0,.4-.2,0-.1.1-.3.1-.5s0-.4-.1-.5c0-.2-.2-.3-.4-.3h-.7Z"/>
  <path class="cls-30" d="M15.9,98.4h.5v.7c0,.1-.1.2-.2.2h-2.4v.4h-.4v-.4h-.8l-.3-.5h1.1v-.5h.4v.5h2.2v-.4h-.1Z"/>
  <path class="cls-30" d="M14.8,98c-.6,0-1-.2-1.3-.5-.2-.3-.3-.6-.3-1s.1-.8.4-1c.3-.3.7-.4,1.2-.4s.7,0,.9.2c.2.1.4.3.5.5s.2.5.2.8-.1.8-.4,1.1c-.3.3-.7.4-1.2.4M14.8,97.5c.4,0,.7,0,.9-.3.2-.2.3-.4.3-.7s0-.5-.3-.7-.5-.3-.9-.3-.7,0-.9.3c-.2.2-.3.4-.3.7s0,.5.3.7.5.3.9.3h0Z"/>
  <path class="cls-30" d="M16.4,94.5h-3.1v-.5h.5c-.2-.1-.4-.2-.4-.3s-.1-.2-.1-.3c0-.2,0-.4.2-.5l.5.2c0,.1-.1.3-.1.4s0,.2.1.3c0,0,.2.2.3.2h2.2v.5h-.1Z"/>
  <path class="cls-30" d="M17.6,92.6h-.5v-.5q0,0-.2-.2s-.2,0-.4-.2h-.1l-3.1,1.2v-.6l1.8-.6c.2,0,.5-.2.7-.2-.2,0-.5-.1-.7-.2l-1.8-.7v-.5l3.2,1.2c.3.1.6.2.7.3.2,0,.3.2.4.3,0,.1.1.3.1.4v.3h0Z"/>
  <path class="cls-30" d="M16.6,87.9v-.5c.2,0,.3,0,.4-.2,0-.1.1-.3.1-.5s0-.4-.1-.6-.2-.2-.4-.3h-.7c.3.2.4.5.4.9s-.2.8-.5,1-.7.4-1.1.4-.6,0-.8-.2c-.3-.1-.4-.3-.6-.5-.1-.2-.2-.4-.2-.7s.1-.7.4-.9h-.4v-.5h2.7c.5,0,.8,0,1,.1.2,0,.4.3.5.5s.2.5.2.8,0,.7-.3.9-.4.3-.8.3M14.8,87.4c.4,0,.7,0,.9-.2s.3-.4.3-.6,0-.4-.3-.6c-.2-.2-.5-.2-.9-.2s-.7,0-.9.3c-.2.2-.3.4-.3.6s0,.4.3.6.5.2.8.2h0Z"/>
  <path class="cls-30" d="M15.4,82.3v-.5c.4,0,.6.2.8.5s.3.5.3.9-.1.8-.4,1.1c-.3.3-.7.4-1.2.4s-.9-.1-1.2-.4-.4-.6-.4-1,.1-.8.4-1,.7-.4,1.2-.4,0,0,.1,0v2.3c.3,0,.6-.1.8-.3s.3-.4.3-.7,0-.4-.2-.5-.3-.2-.5-.3M14.5,84v-1.7c-.3,0-.5,0-.6.2-.2.2-.3.4-.3.7s0,.4.2.6.4.3.7.3h0Z"/>
  <path class="cls-30" d="M16.4,81h-3.1v-.5h.4c-.3-.2-.5-.6-.5-1s0-.4.1-.5c0-.2.2-.3.3-.4s.2-.1.4-.2h2.4v.5h-2.4c-.1,0-.2.1-.3.2v.4c0,.2,0,.4.2.6.1.2.4.2.8.2h1.7v.5h0v.2Z"/>
  <path class="cls-30" d="M15.4,75.8v-.5c.4,0,.6.2.8.5s.3.5.3.9-.1.8-.4,1.1c-.3.3-.7.4-1.2.4s-.9-.1-1.2-.4-.4-.6-.4-1,.1-.8.4-1,.7-.4,1.2-.4,0,0,.1,0v2.3c.3,0,.6-.1.8-.3s.3-.4.3-.7,0-.4-.2-.5-.3-.2-.5-.3M14.5,77.5v-1.7c-.3,0-.5,0-.6.2-.2.2-.3.4-.3.7s0,.4.2.6.4.3.7.3h0Z"/>
  <path class="cls-2" d="M43.6,180.4V10.4M78.4,180.4V10.4M43.6,180.4h34.8M43.6,10.4h34.8"/>
</svg>