<?xml version="1.0" encoding="UTF-8"?>
<svg id="_图层_1" data-name="图层 1" xmlns="http://www.w3.org/2000/svg" xmlns:xlink="http://www.w3.org/1999/xlink" viewBox="0 0 137.08 101.17">
  <defs>
    <style>
      .cls-1, .cls-2, .cls-3, .cls-4 {
        stroke-width: 0px;
      }

      .cls-1, .cls-5 {
        fill: none;
      }

      .cls-2 {
        fill: #a8cdd9;
      }

      .cls-6 {
        clip-path: url(#clippath-1);
      }

      .cls-7 {
        stroke-linejoin: round;
      }

      .cls-7, .cls-3 {
        fill: #000;
      }

      .cls-7, .cls-5 {
        stroke: #000;
        stroke-width: .8px;
      }

      .cls-3 {
        fill-rule: evenodd;
      }

      .cls-8 {
        clip-path: url(#clippath);
      }

      .cls-5 {
        stroke-linecap: square;
        stroke-miterlimit: 10;
      }

      .cls-4 {
        fill: #fff;
      }
    </style>
    <clipPath id="clippath">
      <rect class="cls-1" width="137.08" height="101.17"/>
    </clipPath>
    <clipPath id="clippath-1">
      <rect class="cls-1" x="26.43" y="7.2" width="103.45" height="69.8"/>
    </clipPath>
  </defs>
  <g class="cls-8">
    <rect class="cls-4" y="0" width="137.08" height="101.17"/>
  </g>
  <rect class="cls-4" x="26.43" y="7.2" width="103.45" height="69.8"/>
  <g class="cls-6">
    <rect class="cls-2" x="31.66" y="74.39" width=".13" height="2.61"/>
    <rect class="cls-2" x="31.79" y="74.39" width=".13" height="2.61"/>
    <rect class="cls-2" x="31.92" y="74.39" width=".13" height="2.61"/>
    <rect class="cls-2" x="32.05" y="74.39" width=".13" height="2.61"/>
    <rect class="cls-2" x="32.18" y="71.79" width=".13" height="5.21"/>
    <rect class="cls-2" x="32.31" y="71.79" width=".13" height="5.21"/>
    <rect class="cls-2" x="32.44" y="70.48" width=".13" height="6.52"/>
    <rect class="cls-2" x="32.57" y="70.48" width=".13" height="6.52"/>
    <rect class="cls-2" x="32.7" y="70.48" width=".13" height="6.52"/>
    <rect class="cls-2" x="32.83" y="70.48" width=".13" height="6.52"/>
    <rect class="cls-2" x="32.96" y="69.18" width=".13" height="7.82"/>
    <rect class="cls-2" x="33.09" y="69.18" width=".13" height="7.82"/>
    <rect class="cls-2" x="33.22" y="67.88" width=".13" height="9.12"/>
    <rect class="cls-2" x="33.35" y="67.88" width=".13" height="9.12"/>
    <rect class="cls-2" x="33.48" y="67.88" width=".13" height="9.12"/>
    <rect class="cls-2" x="33.62" y="67.88" width=".13" height="9.12"/>
    <rect class="cls-2" x="33.75" y="67.88" width=".13" height="9.12"/>
    <rect class="cls-2" x="33.88" y="67.88" width=".13" height="9.12"/>
    <rect class="cls-2" x="34.01" y="66.57" width=".13" height="10.43"/>
    <rect class="cls-2" x="34.14" y="66.57" width=".13" height="10.43"/>
    <rect class="cls-2" x="34.27" y="65.27" width=".13" height="11.73"/>
    <rect class="cls-2" x="34.4" y="65.27" width=".13" height="11.73"/>
    <rect class="cls-2" x="34.53" y="65.27" width=".13" height="11.73"/>
    <rect class="cls-2" x="34.66" y="65.27" width=".13" height="11.73"/>
    <rect class="cls-2" x="34.79" y="65.27" width=".13" height="11.73"/>
    <rect class="cls-2" x="34.92" y="65.27" width=".13" height="11.73"/>
    <rect class="cls-2" x="35.05" y="65.27" width=".13" height="11.73"/>
    <rect class="cls-2" x="35.18" y="65.27" width=".13" height="11.73"/>
    <rect class="cls-2" x="35.31" y="65.27" width=".13" height="11.73"/>
    <rect class="cls-2" x="35.44" y="65.27" width=".13" height="11.73"/>
    <rect class="cls-2" x="35.57" y="63.97" width=".13" height="13.03"/>
    <rect class="cls-2" x="35.71" y="63.97" width=".13" height="13.03"/>
    <rect class="cls-2" x="35.84" y="63.97" width=".13" height="13.03"/>
    <rect class="cls-2" x="35.97" y="63.97" width=".13" height="13.03"/>
    <rect class="cls-2" x="36.1" y="63.97" width=".13" height="13.03"/>
    <rect class="cls-2" x="36.23" y="63.97" width=".13" height="13.03"/>
    <rect class="cls-2" x="36.36" y="63.97" width=".13" height="13.03"/>
    <rect class="cls-2" x="36.49" y="63.97" width=".13" height="13.03"/>
    <rect class="cls-2" x="36.62" y="63.97" width=".13" height="13.03"/>
    <rect class="cls-2" x="36.75" y="63.97" width=".13" height="13.03"/>
    <rect class="cls-2" x="36.88" y="63.97" width=".13" height="13.03"/>
    <rect class="cls-2" x="37.01" y="63.97" width=".13" height="13.03"/>
    <rect class="cls-2" x="37.14" y="63.97" width=".13" height="13.03"/>
    <rect class="cls-2" x="37.27" y="63.97" width=".13" height="13.03"/>
    <rect class="cls-2" x="37.4" y="62.66" width=".13" height="14.34"/>
    <rect class="cls-2" x="37.53" y="62.66" width=".13" height="14.34"/>
    <rect class="cls-2" x="37.66" y="62.66" width=".13" height="14.34"/>
    <rect class="cls-2" x="37.8" y="62.66" width=".13" height="14.34"/>
    <rect class="cls-2" x="37.93" y="62.66" width=".13" height="14.34"/>
    <rect class="cls-2" x="38.06" y="62.66" width=".13" height="14.34"/>
    <rect class="cls-2" x="38.19" y="62.66" width=".13" height="14.34"/>
    <rect class="cls-2" x="38.32" y="62.66" width=".13" height="14.34"/>
    <rect class="cls-2" x="38.45" y="62.66" width=".13" height="14.34"/>
    <rect class="cls-2" x="38.58" y="62.66" width=".13" height="14.34"/>
    <rect class="cls-2" x="38.71" y="61.36" width=".13" height="15.64"/>
    <rect class="cls-2" x="38.84" y="61.36" width=".13" height="15.64"/>
    <rect class="cls-2" x="38.97" y="61.36" width=".13" height="15.64"/>
    <rect class="cls-2" x="39.1" y="61.36" width=".13" height="15.64"/>
    <rect class="cls-2" x="39.23" y="61.36" width=".13" height="15.64"/>
    <rect class="cls-2" x="39.36" y="61.36" width=".13" height="15.64"/>
    <rect class="cls-2" x="39.49" y="61.36" width=".13" height="15.64"/>
    <rect class="cls-2" x="39.62" y="61.36" width=".13" height="15.64"/>
    <rect class="cls-2" x="39.75" y="61.36" width=".13" height="15.64"/>
    <rect class="cls-2" x="39.88" y="61.36" width=".13" height="15.64"/>
    <rect class="cls-2" x="40.02" y="61.36" width=".13" height="15.64"/>
    <rect class="cls-2" x="40.15" y="61.36" width=".13" height="15.64"/>
    <rect class="cls-2" x="40.28" y="61.36" width=".13" height="15.64"/>
    <rect class="cls-2" x="40.41" y="61.36" width=".13" height="15.64"/>
    <rect class="cls-2" x="40.54" y="61.36" width=".13" height="15.64"/>
    <rect class="cls-2" x="40.67" y="61.36" width=".13" height="15.64"/>
    <rect class="cls-2" x="40.8" y="61.36" width=".13" height="15.64"/>
    <rect class="cls-2" x="40.93" y="61.36" width=".13" height="15.64"/>
    <rect class="cls-2" x="41.06" y="61.36" width=".13" height="15.64"/>
    <rect class="cls-2" x="41.19" y="61.36" width=".13" height="15.64"/>
    <rect class="cls-2" x="41.32" y="60.06" width=".13" height="16.95"/>
    <rect class="cls-2" x="41.45" y="60.06" width=".13" height="16.95"/>
    <rect class="cls-2" x="41.58" y="60.06" width=".13" height="16.95"/>
    <rect class="cls-2" x="41.71" y="60.06" width=".13" height="16.95"/>
    <rect class="cls-2" x="41.84" y="60.06" width=".13" height="16.95"/>
    <rect class="cls-2" x="41.97" y="60.06" width=".13" height="16.95"/>
    <rect class="cls-2" x="42.11" y="60.06" width=".13" height="16.95"/>
    <rect class="cls-2" x="42.24" y="60.06" width=".13" height="16.95"/>
    <rect class="cls-2" x="42.37" y="60.06" width=".13" height="16.95"/>
    <rect class="cls-2" x="42.5" y="60.06" width=".13" height="16.95"/>
    <rect class="cls-2" x="42.63" y="60.06" width=".13" height="16.95"/>
    <rect class="cls-2" x="42.76" y="60.06" width=".13" height="16.95"/>
    <rect class="cls-2" x="42.89" y="60.06" width=".13" height="16.95"/>
    <rect class="cls-2" x="43.02" y="60.06" width=".13" height="16.95"/>
    <rect class="cls-2" x="43.15" y="58.75" width=".13" height="18.25"/>
    <rect class="cls-2" x="43.28" y="58.75" width=".13" height="18.25"/>
    <rect class="cls-2" x="43.41" y="58.75" width=".13" height="18.25"/>
    <rect class="cls-2" x="43.54" y="58.75" width=".13" height="18.25"/>
    <rect class="cls-2" x="43.67" y="58.75" width=".13" height="18.25"/>
    <rect class="cls-2" x="43.8" y="58.75" width=".13" height="18.25"/>
    <rect class="cls-2" x="43.93" y="58.75" width=".13" height="18.25"/>
    <rect class="cls-2" x="44.06" y="58.75" width=".13" height="18.25"/>
    <rect class="cls-2" x="44.2" y="58.75" width=".13" height="18.25"/>
    <rect class="cls-2" x="44.33" y="58.75" width=".13" height="18.25"/>
    <rect class="cls-2" x="44.46" y="58.75" width=".13" height="18.25"/>
    <rect class="cls-2" x="44.59" y="58.75" width=".13" height="18.25"/>
    <rect class="cls-2" x="44.72" y="58.75" width=".13" height="18.25"/>
    <rect class="cls-2" x="44.85" y="58.75" width=".13" height="18.25"/>
    <rect class="cls-2" x="44.98" y="58.75" width=".13" height="18.25"/>
    <rect class="cls-2" x="45.11" y="58.75" width=".13" height="18.25"/>
    <rect class="cls-2" x="45.24" y="58.75" width=".13" height="18.25"/>
    <rect class="cls-2" x="45.37" y="58.75" width=".13" height="18.25"/>
    <rect class="cls-2" x="45.5" y="58.75" width=".13" height="18.25"/>
    <rect class="cls-2" x="45.63" y="58.75" width=".13" height="18.25"/>
    <rect class="cls-2" x="45.76" y="58.75" width=".13" height="18.25"/>
    <rect class="cls-2" x="45.89" y="58.75" width=".13" height="18.25"/>
    <rect class="cls-2" x="46.02" y="58.75" width=".13" height="18.25"/>
    <rect class="cls-2" x="46.15" y="58.75" width=".13" height="18.25"/>
    <rect class="cls-2" x="46.29" y="58.75" width=".13" height="18.25"/>
    <rect class="cls-2" x="46.42" y="58.75" width=".13" height="18.25"/>
    <rect class="cls-2" x="46.55" y="58.75" width=".13" height="18.25"/>
    <rect class="cls-2" x="46.68" y="58.75" width=".13" height="18.25"/>
    <rect class="cls-2" x="46.81" y="58.75" width=".13" height="18.25"/>
    <rect class="cls-2" x="46.94" y="58.75" width=".13" height="18.25"/>
    <rect class="cls-2" x="47.07" y="57.45" width=".13" height="19.55"/>
    <rect class="cls-2" x="47.2" y="57.45" width=".13" height="19.55"/>
    <rect class="cls-2" x="47.33" y="57.45" width=".13" height="19.55"/>
    <rect class="cls-2" x="47.46" y="57.45" width=".13" height="19.55"/>
    <rect class="cls-2" x="47.59" y="57.45" width=".13" height="19.55"/>
    <rect class="cls-2" x="47.72" y="57.45" width=".13" height="19.55"/>
    <rect class="cls-2" x="47.85" y="57.45" width=".13" height="19.55"/>
    <rect class="cls-2" x="47.98" y="57.45" width=".13" height="19.55"/>
    <rect class="cls-2" x="48.11" y="57.45" width=".13" height="19.55"/>
    <rect class="cls-2" x="48.24" y="57.45" width=".13" height="19.55"/>
    <rect class="cls-2" x="48.38" y="57.45" width=".13" height="19.55"/>
    <rect class="cls-2" x="48.51" y="57.45" width=".13" height="19.55"/>
    <rect class="cls-2" x="48.64" y="56.15" width=".13" height="20.86"/>
    <rect class="cls-2" x="48.77" y="56.15" width=".13" height="20.86"/>
    <rect class="cls-2" x="48.9" y="56.15" width=".13" height="20.86"/>
    <rect class="cls-2" x="49.03" y="56.15" width=".13" height="20.86"/>
    <rect class="cls-2" x="49.16" y="56.15" width=".13" height="20.86"/>
    <rect class="cls-2" x="49.29" y="56.15" width=".13" height="20.86"/>
    <rect class="cls-2" x="49.42" y="56.15" width=".13" height="20.86"/>
    <rect class="cls-2" x="49.55" y="56.15" width=".13" height="20.86"/>
    <rect class="cls-2" x="49.68" y="56.15" width=".13" height="20.86"/>
    <rect class="cls-2" x="49.81" y="56.15" width=".13" height="20.86"/>
    <rect class="cls-2" x="49.94" y="56.15" width=".13" height="20.86"/>
    <rect class="cls-2" x="50.07" y="56.15" width=".13" height="20.86"/>
    <rect class="cls-2" x="50.2" y="54.84" width=".13" height="22.16"/>
    <rect class="cls-2" x="50.33" y="54.84" width=".13" height="22.16"/>
    <rect class="cls-2" x="50.47" y="54.84" width=".13" height="22.16"/>
    <rect class="cls-2" x="50.6" y="54.84" width=".13" height="22.16"/>
    <rect class="cls-2" x="50.73" y="54.84" width=".13" height="22.16"/>
    <rect class="cls-2" x="50.86" y="54.84" width=".13" height="22.16"/>
    <rect class="cls-2" x="50.99" y="54.84" width=".13" height="22.16"/>
    <rect class="cls-2" x="51.12" y="54.84" width=".13" height="22.16"/>
    <rect class="cls-2" x="51.25" y="54.84" width=".13" height="22.16"/>
    <rect class="cls-2" x="51.38" y="54.84" width=".13" height="22.16"/>
    <rect class="cls-2" x="51.51" y="54.84" width=".13" height="22.16"/>
    <rect class="cls-2" x="51.64" y="54.84" width=".13" height="22.16"/>
    <rect class="cls-2" x="51.77" y="54.84" width=".13" height="22.16"/>
    <rect class="cls-2" x="51.9" y="54.84" width=".13" height="22.16"/>
    <rect class="cls-2" x="52.03" y="53.54" width=".13" height="23.46"/>
    <rect class="cls-2" x="52.16" y="53.54" width=".13" height="23.46"/>
    <rect class="cls-2" x="52.29" y="53.54" width=".13" height="23.46"/>
    <rect class="cls-2" x="52.42" y="53.54" width=".13" height="23.46"/>
    <rect class="cls-2" x="52.55" y="53.54" width=".13" height="23.46"/>
    <rect class="cls-2" x="52.69" y="53.54" width=".13" height="23.46"/>
    <rect class="cls-2" x="52.82" y="53.54" width=".13" height="23.46"/>
    <rect class="cls-2" x="52.95" y="53.54" width=".13" height="23.46"/>
    <rect class="cls-2" x="53.08" y="53.54" width=".13" height="23.46"/>
    <rect class="cls-2" x="53.21" y="53.54" width=".13" height="23.46"/>
    <rect class="cls-2" x="53.34" y="53.54" width=".13" height="23.46"/>
    <rect class="cls-2" x="53.47" y="53.54" width=".13" height="23.46"/>
    <rect class="cls-2" x="53.6" y="53.54" width=".13" height="23.46"/>
    <rect class="cls-2" x="53.73" y="53.54" width=".13" height="23.46"/>
    <rect class="cls-2" x="53.86" y="53.54" width=".13" height="23.46"/>
    <rect class="cls-2" x="53.99" y="53.54" width=".13" height="23.46"/>
    <rect class="cls-2" x="54.12" y="53.54" width=".13" height="23.46"/>
    <rect class="cls-2" x="54.25" y="53.54" width=".13" height="23.46"/>
    <rect class="cls-2" x="54.38" y="52.24" width=".13" height="24.77"/>
    <rect class="cls-2" x="54.51" y="52.24" width=".13" height="24.77"/>
    <rect class="cls-2" x="54.64" y="52.24" width=".13" height="24.77"/>
    <rect class="cls-2" x="54.78" y="52.24" width=".13" height="24.77"/>
    <rect class="cls-2" x="54.91" y="52.24" width=".13" height="24.77"/>
    <rect class="cls-2" x="55.04" y="52.24" width=".13" height="24.77"/>
    <rect class="cls-2" x="55.17" y="52.24" width=".13" height="24.77"/>
    <rect class="cls-2" x="55.3" y="52.24" width=".13" height="24.77"/>
    <rect class="cls-2" x="55.43" y="52.24" width=".13" height="24.77"/>
    <rect class="cls-2" x="55.56" y="52.24" width=".13" height="24.77"/>
    <rect class="cls-2" x="55.69" y="52.24" width=".13" height="24.77"/>
    <rect class="cls-2" x="55.82" y="52.24" width=".13" height="24.77"/>
    <rect class="cls-2" x="55.95" y="52.24" width=".13" height="24.77"/>
    <rect class="cls-2" x="56.08" y="52.24" width=".13" height="24.77"/>
    <rect class="cls-2" x="56.21" y="52.24" width=".13" height="24.77"/>
    <rect class="cls-2" x="56.34" y="52.24" width=".13" height="24.77"/>
    <rect class="cls-2" x="56.47" y="52.24" width=".13" height="24.77"/>
    <rect class="cls-2" x="56.6" y="52.24" width=".13" height="24.77"/>
    <rect class="cls-2" x="56.73" y="52.24" width=".13" height="24.77"/>
    <rect class="cls-2" x="56.87" y="52.24" width=".13" height="24.77"/>
    <rect class="cls-2" x="57" y="52.24" width=".13" height="24.77"/>
    <rect class="cls-2" x="57.13" y="52.24" width=".13" height="24.77"/>
    <rect class="cls-2" x="57.26" y="50.93" width=".13" height="26.07"/>
    <rect class="cls-2" x="57.39" y="50.93" width=".13" height="26.07"/>
    <rect class="cls-2" x="57.52" y="50.93" width=".13" height="26.07"/>
    <rect class="cls-2" x="57.65" y="50.93" width=".13" height="26.07"/>
    <rect class="cls-2" x="57.78" y="50.93" width=".13" height="26.07"/>
    <rect class="cls-2" x="57.91" y="50.93" width=".13" height="26.07"/>
    <rect class="cls-2" x="58.04" y="50.93" width=".13" height="26.07"/>
    <rect class="cls-2" x="58.17" y="50.93" width=".13" height="26.07"/>
    <rect class="cls-2" x="58.3" y="50.93" width=".13" height="26.07"/>
    <rect class="cls-2" x="58.43" y="50.93" width=".13" height="26.07"/>
    <rect class="cls-2" x="58.56" y="50.93" width=".13" height="26.07"/>
    <rect class="cls-2" x="58.69" y="50.93" width=".13" height="26.07"/>
    <rect class="cls-2" x="58.82" y="50.93" width=".13" height="26.07"/>
    <rect class="cls-2" x="58.96" y="50.93" width=".13" height="26.07"/>
    <rect class="cls-2" x="59.09" y="50.93" width=".13" height="26.07"/>
    <rect class="cls-2" x="59.22" y="50.93" width=".13" height="26.07"/>
    <rect class="cls-2" x="59.35" y="50.93" width=".13" height="26.07"/>
    <rect class="cls-2" x="59.48" y="50.93" width=".13" height="26.07"/>
    <rect class="cls-2" x="59.61" y="50.93" width=".13" height="26.07"/>
    <rect class="cls-2" x="59.74" y="50.93" width=".13" height="26.07"/>
    <rect class="cls-2" x="59.87" y="50.93" width=".13" height="26.07"/>
    <rect class="cls-2" x="60" y="50.93" width=".13" height="26.07"/>
    <rect class="cls-2" x="60.13" y="50.93" width=".13" height="26.07"/>
    <rect class="cls-2" x="60.26" y="50.93" width=".13" height="26.07"/>
    <rect class="cls-2" x="60.39" y="50.93" width=".13" height="26.07"/>
    <rect class="cls-2" x="60.52" y="50.93" width=".13" height="26.07"/>
    <rect class="cls-2" x="60.65" y="50.93" width=".13" height="26.07"/>
    <rect class="cls-2" x="60.78" y="50.93" width=".13" height="26.07"/>
    <rect class="cls-2" x="60.91" y="50.93" width=".13" height="26.07"/>
    <rect class="cls-2" x="61.05" y="50.93" width=".13" height="26.07"/>
    <rect class="cls-2" x="61.18" y="50.93" width=".13" height="26.07"/>
    <rect class="cls-2" x="61.31" y="50.93" width=".13" height="26.07"/>
    <rect class="cls-2" x="61.44" y="50.93" width=".13" height="26.07"/>
    <rect class="cls-2" x="61.57" y="50.93" width=".13" height="26.07"/>
    <rect class="cls-2" x="61.7" y="49.63" width=".13" height="27.37"/>
    <rect class="cls-2" x="61.83" y="49.63" width=".13" height="27.37"/>
    <rect class="cls-2" x="61.96" y="49.63" width=".13" height="27.37"/>
    <rect class="cls-2" x="62.09" y="49.63" width=".13" height="27.37"/>
    <rect class="cls-2" x="62.22" y="49.63" width=".13" height="27.37"/>
    <rect class="cls-2" x="62.35" y="49.63" width=".13" height="27.37"/>
    <rect class="cls-2" x="62.48" y="49.63" width=".13" height="27.37"/>
    <rect class="cls-2" x="62.61" y="49.63" width=".13" height="27.37"/>
    <rect class="cls-2" x="62.74" y="49.63" width=".13" height="27.37"/>
    <rect class="cls-2" x="62.87" y="49.63" width=".13" height="27.37"/>
    <rect class="cls-2" x="63" y="49.63" width=".13" height="27.37"/>
    <rect class="cls-2" x="63.14" y="49.63" width=".13" height="27.37"/>
    <rect class="cls-2" x="63.27" y="49.63" width=".13" height="27.37"/>
    <rect class="cls-2" x="63.4" y="49.63" width=".13" height="27.37"/>
    <rect class="cls-2" x="63.53" y="49.63" width=".13" height="27.37"/>
    <rect class="cls-2" x="63.66" y="49.63" width=".13" height="27.37"/>
    <rect class="cls-2" x="63.79" y="49.63" width=".13" height="27.37"/>
    <rect class="cls-2" x="63.92" y="49.63" width=".13" height="27.37"/>
    <rect class="cls-2" x="64.05" y="49.63" width=".13" height="27.37"/>
    <rect class="cls-2" x="64.18" y="49.63" width=".13" height="27.37"/>
    <rect class="cls-2" x="64.31" y="49.63" width=".13" height="27.37"/>
    <rect class="cls-2" x="64.44" y="49.63" width=".13" height="27.37"/>
    <rect class="cls-2" x="64.57" y="49.63" width=".13" height="27.37"/>
    <rect class="cls-2" x="64.7" y="49.63" width=".13" height="27.37"/>
    <rect class="cls-2" x="64.83" y="49.63" width=".13" height="27.37"/>
    <rect class="cls-2" x="64.96" y="49.63" width=".13" height="27.37"/>
    <rect class="cls-2" x="65.09" y="48.32" width=".13" height="28.68"/>
    <rect class="cls-2" x="65.22" y="48.32" width=".13" height="28.68"/>
    <rect class="cls-2" x="65.36" y="48.32" width=".13" height="28.68"/>
    <rect class="cls-2" x="65.49" y="48.32" width=".13" height="28.68"/>
    <rect class="cls-2" x="65.62" y="48.32" width=".13" height="28.68"/>
    <rect class="cls-2" x="65.75" y="48.32" width=".13" height="28.68"/>
    <rect class="cls-2" x="65.88" y="48.32" width=".13" height="28.68"/>
    <rect class="cls-2" x="66.01" y="48.32" width=".13" height="28.68"/>
    <rect class="cls-2" x="66.14" y="48.32" width=".13" height="28.68"/>
    <rect class="cls-2" x="66.27" y="48.32" width=".13" height="28.68"/>
    <rect class="cls-2" x="66.4" y="48.32" width=".13" height="28.68"/>
    <rect class="cls-2" x="66.53" y="48.32" width=".13" height="28.68"/>
    <rect class="cls-2" x="66.66" y="48.32" width=".13" height="28.68"/>
    <rect class="cls-2" x="66.79" y="48.32" width=".13" height="28.68"/>
    <rect class="cls-2" x="66.92" y="48.32" width=".13" height="28.68"/>
    <rect class="cls-2" x="67.05" y="48.32" width=".13" height="28.68"/>
    <rect class="cls-2" x="67.18" y="48.32" width=".13" height="28.68"/>
    <rect class="cls-2" x="67.31" y="48.32" width=".13" height="28.68"/>
    <rect class="cls-2" x="67.45" y="48.32" width=".13" height="28.68"/>
    <rect class="cls-2" x="67.58" y="48.32" width=".13" height="28.68"/>
    <rect class="cls-2" x="67.71" y="48.32" width=".13" height="28.68"/>
    <rect class="cls-2" x="67.84" y="48.32" width=".13" height="28.68"/>
    <rect class="cls-2" x="67.97" y="48.32" width=".13" height="28.68"/>
    <rect class="cls-2" x="68.1" y="48.32" width=".13" height="28.68"/>
    <rect class="cls-2" x="68.23" y="48.32" width=".13" height="28.68"/>
    <rect class="cls-2" x="68.36" y="48.32" width=".13" height="28.68"/>
    <rect class="cls-2" x="68.49" y="48.32" width=".13" height="28.68"/>
    <rect class="cls-2" x="68.62" y="48.32" width=".13" height="28.68"/>
    <rect class="cls-2" x="68.75" y="48.32" width=".13" height="28.68"/>
    <rect class="cls-2" x="68.88" y="48.32" width=".13" height="28.68"/>
    <rect class="cls-2" x="69.01" y="48.32" width=".13" height="28.68"/>
    <rect class="cls-2" x="69.14" y="48.32" width=".13" height="28.68"/>
    <rect class="cls-2" x="69.27" y="48.32" width=".13" height="28.68"/>
    <rect class="cls-2" x="69.4" y="48.32" width=".13" height="28.68"/>
    <rect class="cls-2" x="69.54" y="48.32" width=".13" height="28.68"/>
    <rect class="cls-2" x="69.67" y="48.32" width=".13" height="28.68"/>
    <rect class="cls-2" x="69.8" y="48.32" width=".13" height="28.68"/>
    <rect class="cls-2" x="69.93" y="48.32" width=".13" height="28.68"/>
    <rect class="cls-2" x="70.06" y="48.32" width=".13" height="28.68"/>
    <rect class="cls-2" x="70.19" y="48.32" width=".13" height="28.68"/>
    <rect class="cls-2" x="70.32" y="48.32" width=".13" height="28.68"/>
    <rect class="cls-2" x="70.45" y="48.32" width=".13" height="28.68"/>
    <rect class="cls-2" x="70.58" y="48.32" width=".13" height="28.68"/>
    <rect class="cls-2" x="70.71" y="48.32" width=".13" height="28.68"/>
    <rect class="cls-2" x="70.84" y="47.02" width=".13" height="29.98"/>
    <rect class="cls-2" x="70.97" y="47.02" width=".13" height="29.98"/>
    <rect class="cls-2" x="71.1" y="47.02" width=".13" height="29.98"/>
    <rect class="cls-2" x="71.23" y="47.02" width=".13" height="29.98"/>
    <rect class="cls-2" x="71.36" y="47.02" width=".13" height="29.98"/>
    <rect class="cls-2" x="71.49" y="47.02" width=".13" height="29.98"/>
    <rect class="cls-2" x="71.63" y="47.02" width=".13" height="29.98"/>
    <rect class="cls-2" x="71.76" y="47.02" width=".13" height="29.98"/>
    <rect class="cls-2" x="71.89" y="47.02" width=".13" height="29.98"/>
    <rect class="cls-2" x="72.02" y="47.02" width=".13" height="29.98"/>
    <rect class="cls-2" x="72.15" y="47.02" width=".13" height="29.98"/>
    <rect class="cls-2" x="72.28" y="47.02" width=".13" height="29.98"/>
    <rect class="cls-2" x="72.41" y="45.72" width=".13" height="31.28"/>
    <rect class="cls-2" x="72.54" y="45.72" width=".13" height="31.28"/>
    <rect class="cls-2" x="72.67" y="45.72" width=".13" height="31.28"/>
    <rect class="cls-2" x="72.8" y="45.72" width=".13" height="31.28"/>
    <rect class="cls-2" x="72.93" y="45.72" width=".13" height="31.28"/>
    <rect class="cls-2" x="73.06" y="45.72" width=".13" height="31.28"/>
    <rect class="cls-2" x="73.19" y="45.72" width=".13" height="31.28"/>
    <rect class="cls-2" x="73.32" y="45.72" width=".13" height="31.28"/>
    <rect class="cls-2" x="73.45" y="45.72" width=".13" height="31.28"/>
    <rect class="cls-2" x="73.58" y="45.72" width=".13" height="31.28"/>
    <rect class="cls-2" x="73.72" y="45.72" width=".13" height="31.28"/>
    <rect class="cls-2" x="73.85" y="45.72" width=".13" height="31.28"/>
    <rect class="cls-2" x="73.98" y="45.72" width=".13" height="31.28"/>
    <rect class="cls-2" x="74.11" y="45.72" width=".13" height="31.28"/>
    <rect class="cls-2" x="74.24" y="45.72" width=".13" height="31.28"/>
    <rect class="cls-2" x="74.37" y="45.72" width=".13" height="31.28"/>
    <rect class="cls-2" x="74.5" y="45.72" width=".13" height="31.28"/>
    <rect class="cls-2" x="74.63" y="45.72" width=".13" height="31.28"/>
    <rect class="cls-2" x="74.76" y="45.72" width=".13" height="31.28"/>
    <rect class="cls-2" x="74.89" y="45.72" width=".13" height="31.28"/>
    <rect class="cls-2" x="75.02" y="45.72" width=".13" height="31.28"/>
    <rect class="cls-2" x="75.15" y="45.72" width=".13" height="31.28"/>
    <rect class="cls-2" x="75.28" y="45.72" width=".13" height="31.28"/>
    <rect class="cls-2" x="75.41" y="45.72" width=".13" height="31.28"/>
    <rect class="cls-2" x="75.54" y="45.72" width=".13" height="31.28"/>
    <rect class="cls-2" x="75.67" y="45.72" width=".13" height="31.28"/>
    <rect class="cls-2" x="75.81" y="45.72" width=".13" height="31.28"/>
    <rect class="cls-2" x="75.94" y="45.72" width=".13" height="31.28"/>
    <rect class="cls-2" x="76.07" y="45.72" width=".13" height="31.28"/>
    <rect class="cls-2" x="76.2" y="45.72" width=".13" height="31.28"/>
    <rect class="cls-2" x="76.33" y="45.72" width=".13" height="31.28"/>
    <rect class="cls-2" x="76.46" y="45.72" width=".13" height="31.28"/>
    <rect class="cls-2" x="76.59" y="45.72" width=".13" height="31.28"/>
    <rect class="cls-2" x="76.72" y="45.72" width=".13" height="31.28"/>
    <rect class="cls-2" x="76.85" y="45.72" width=".13" height="31.28"/>
    <rect class="cls-2" x="76.98" y="45.72" width=".13" height="31.28"/>
    <rect class="cls-2" x="77.11" y="45.72" width=".13" height="31.28"/>
    <rect class="cls-2" x="77.24" y="45.72" width=".13" height="31.28"/>
    <rect class="cls-2" x="77.37" y="45.72" width=".13" height="31.28"/>
    <rect class="cls-2" x="77.5" y="45.72" width=".13" height="31.28"/>
    <rect class="cls-2" x="77.63" y="44.41" width=".13" height="32.59"/>
    <rect class="cls-2" x="77.76" y="44.41" width=".13" height="32.59"/>
    <rect class="cls-2" x="77.89" y="44.41" width=".13" height="32.59"/>
    <rect class="cls-2" x="78.03" y="44.41" width=".13" height="32.59"/>
    <rect class="cls-2" x="78.16" y="44.41" width=".13" height="32.59"/>
    <rect class="cls-2" x="78.29" y="44.41" width=".13" height="32.59"/>
    <rect class="cls-2" x="78.42" y="44.41" width=".13" height="32.59"/>
    <rect class="cls-2" x="78.55" y="44.41" width=".13" height="32.59"/>
    <rect class="cls-2" x="78.68" y="44.41" width=".13" height="32.59"/>
    <rect class="cls-2" x="78.81" y="44.41" width=".13" height="32.59"/>
    <rect class="cls-2" x="78.94" y="44.41" width=".13" height="32.59"/>
    <rect class="cls-2" x="79.07" y="44.41" width=".13" height="32.59"/>
    <rect class="cls-2" x="79.2" y="44.41" width=".13" height="32.59"/>
    <rect class="cls-2" x="79.33" y="44.41" width=".13" height="32.59"/>
    <rect class="cls-2" x="79.46" y="44.41" width=".13" height="32.59"/>
    <rect class="cls-2" x="79.59" y="44.41" width=".13" height="32.59"/>
    <rect class="cls-2" x="79.72" y="44.41" width=".13" height="32.59"/>
    <rect class="cls-2" x="79.85" y="44.41" width=".13" height="32.59"/>
    <rect class="cls-2" x="79.98" y="44.41" width=".13" height="32.59"/>
    <rect class="cls-2" x="80.12" y="44.41" width=".13" height="32.59"/>
    <rect class="cls-2" x="80.25" y="44.41" width=".13" height="32.59"/>
    <rect class="cls-2" x="80.38" y="44.41" width=".13" height="32.59"/>
    <rect class="cls-2" x="80.51" y="44.41" width=".13" height="32.59"/>
    <rect class="cls-2" x="80.64" y="44.41" width=".13" height="32.59"/>
    <rect class="cls-2" x="80.77" y="44.41" width=".13" height="32.59"/>
    <rect class="cls-2" x="80.9" y="44.41" width=".13" height="32.59"/>
    <rect class="cls-2" x="81.03" y="44.41" width=".13" height="32.59"/>
    <rect class="cls-2" x="81.16" y="44.41" width=".13" height="32.59"/>
    <rect class="cls-2" x="81.29" y="44.41" width=".13" height="32.59"/>
    <rect class="cls-2" x="81.42" y="44.41" width=".13" height="32.59"/>
    <rect class="cls-2" x="81.55" y="43.11" width=".13" height="33.89"/>
    <rect class="cls-2" x="81.68" y="43.11" width=".13" height="33.89"/>
    <rect class="cls-2" x="81.81" y="43.11" width=".13" height="33.89"/>
    <rect class="cls-2" x="81.94" y="43.11" width=".13" height="33.89"/>
    <rect class="cls-2" x="82.07" y="43.11" width=".13" height="33.89"/>
    <rect class="cls-2" x="82.21" y="43.11" width=".13" height="33.89"/>
    <rect class="cls-2" x="82.34" y="43.11" width=".13" height="33.89"/>
    <rect class="cls-2" x="82.47" y="43.11" width=".13" height="33.89"/>
    <rect class="cls-2" x="82.6" y="43.11" width=".13" height="33.89"/>
    <rect class="cls-2" x="82.73" y="43.11" width=".13" height="33.89"/>
    <rect class="cls-2" x="82.86" y="43.11" width=".13" height="33.89"/>
    <rect class="cls-2" x="82.99" y="43.11" width=".13" height="33.89"/>
    <rect class="cls-2" x="83.12" y="43.11" width=".13" height="33.89"/>
    <rect class="cls-2" x="83.25" y="43.11" width=".13" height="33.89"/>
    <rect class="cls-2" x="83.38" y="43.11" width=".13" height="33.89"/>
    <rect class="cls-2" x="83.51" y="43.11" width=".13" height="33.89"/>
    <rect class="cls-2" x="83.64" y="43.11" width=".13" height="33.89"/>
    <rect class="cls-2" x="83.77" y="43.11" width=".13" height="33.89"/>
    <rect class="cls-2" x="83.9" y="43.11" width=".13" height="33.89"/>
    <rect class="cls-2" x="84.03" y="43.11" width=".13" height="33.89"/>
    <rect class="cls-2" x="84.16" y="43.11" width=".13" height="33.89"/>
    <rect class="cls-2" x="84.3" y="43.11" width=".13" height="33.89"/>
    <rect class="cls-2" x="84.43" y="43.11" width=".13" height="33.89"/>
    <rect class="cls-2" x="84.56" y="43.11" width=".13" height="33.89"/>
    <rect class="cls-2" x="84.69" y="43.11" width=".13" height="33.89"/>
    <rect class="cls-2" x="84.82" y="43.11" width=".13" height="33.89"/>
    <rect class="cls-2" x="84.95" y="43.11" width=".13" height="33.89"/>
    <rect class="cls-2" x="85.08" y="43.11" width=".13" height="33.89"/>
    <rect class="cls-2" x="85.21" y="41.81" width=".13" height="35.19"/>
    <rect class="cls-2" x="85.34" y="41.81" width=".13" height="35.19"/>
    <rect class="cls-2" x="85.47" y="41.81" width=".13" height="35.19"/>
    <rect class="cls-2" x="85.6" y="41.81" width=".13" height="35.19"/>
    <rect class="cls-2" x="85.73" y="41.81" width=".13" height="35.19"/>
    <rect class="cls-2" x="85.86" y="41.81" width=".13" height="35.19"/>
    <rect class="cls-2" x="85.99" y="41.81" width=".13" height="35.19"/>
    <rect class="cls-2" x="86.12" y="41.81" width=".13" height="35.19"/>
    <rect class="cls-2" x="86.25" y="41.81" width=".13" height="35.19"/>
    <rect class="cls-2" x="86.39" y="41.81" width=".13" height="35.19"/>
    <rect class="cls-2" x="86.52" y="41.81" width=".13" height="35.19"/>
    <rect class="cls-2" x="86.65" y="41.81" width=".13" height="35.19"/>
    <rect class="cls-2" x="86.78" y="41.81" width=".13" height="35.19"/>
    <rect class="cls-2" x="86.91" y="41.81" width=".13" height="35.19"/>
    <rect class="cls-2" x="87.04" y="41.81" width=".13" height="35.19"/>
    <rect class="cls-2" x="87.17" y="41.81" width=".13" height="35.19"/>
    <rect class="cls-2" x="87.3" y="41.81" width=".13" height="35.19"/>
    <rect class="cls-2" x="87.43" y="41.81" width=".13" height="35.19"/>
    <rect class="cls-2" x="87.56" y="41.81" width=".13" height="35.19"/>
    <rect class="cls-2" x="87.69" y="41.81" width=".13" height="35.19"/>
    <rect class="cls-2" x="87.82" y="40.5" width=".13" height="36.5"/>
    <rect class="cls-2" x="87.95" y="40.5" width=".13" height="36.5"/>
    <rect class="cls-2" x="88.08" y="40.5" width=".13" height="36.5"/>
    <rect class="cls-2" x="88.21" y="40.5" width=".13" height="36.5"/>
    <rect class="cls-2" x="88.34" y="40.5" width=".13" height="36.5"/>
    <rect class="cls-2" x="88.48" y="40.5" width=".13" height="36.5"/>
    <rect class="cls-2" x="88.61" y="40.5" width=".13" height="36.5"/>
    <rect class="cls-2" x="88.74" y="40.5" width=".13" height="36.5"/>
    <rect class="cls-2" x="88.87" y="40.5" width=".13" height="36.5"/>
    <rect class="cls-2" x="89" y="40.5" width=".13" height="36.5"/>
    <rect class="cls-2" x="89.13" y="40.5" width=".13" height="36.5"/>
    <rect class="cls-2" x="89.26" y="40.5" width=".13" height="36.5"/>
    <rect class="cls-2" x="89.39" y="40.5" width=".13" height="36.5"/>
    <rect class="cls-2" x="89.52" y="40.5" width=".13" height="36.5"/>
    <rect class="cls-2" x="89.65" y="40.5" width=".13" height="36.5"/>
    <rect class="cls-2" x="89.78" y="40.5" width=".13" height="36.5"/>
    <rect class="cls-2" x="89.91" y="40.5" width=".13" height="36.5"/>
    <rect class="cls-2" x="90.04" y="40.5" width=".13" height="36.5"/>
    <rect class="cls-2" x="90.17" y="40.5" width=".13" height="36.5"/>
    <rect class="cls-2" x="90.3" y="40.5" width=".13" height="36.5"/>
    <rect class="cls-2" x="90.43" y="40.5" width=".13" height="36.5"/>
    <rect class="cls-2" x="90.57" y="40.5" width=".13" height="36.5"/>
    <rect class="cls-2" x="90.7" y="40.5" width=".13" height="36.5"/>
    <rect class="cls-2" x="90.83" y="40.5" width=".13" height="36.5"/>
    <rect class="cls-2" x="90.96" y="40.5" width=".13" height="36.5"/>
    <rect class="cls-2" x="91.09" y="40.5" width=".13" height="36.5"/>
    <rect class="cls-2" x="91.22" y="40.5" width=".13" height="36.5"/>
    <rect class="cls-2" x="91.35" y="40.5" width=".13" height="36.5"/>
    <rect class="cls-2" x="91.48" y="40.5" width=".13" height="36.5"/>
    <rect class="cls-2" x="91.61" y="40.5" width=".13" height="36.5"/>
    <rect class="cls-2" x="91.74" y="39.2" width=".13" height="37.8"/>
    <rect class="cls-2" x="91.87" y="39.2" width=".13" height="37.8"/>
    <rect class="cls-2" x="92" y="39.2" width=".13" height="37.8"/>
    <rect class="cls-2" x="92.13" y="39.2" width=".13" height="37.8"/>
    <rect class="cls-2" x="92.26" y="39.2" width=".13" height="37.8"/>
    <rect class="cls-2" x="92.39" y="39.2" width=".13" height="37.8"/>
    <rect class="cls-2" x="92.52" y="39.2" width=".13" height="37.8"/>
    <rect class="cls-2" x="92.65" y="39.2" width=".13" height="37.8"/>
    <rect class="cls-2" x="92.79" y="39.2" width=".13" height="37.8"/>
    <rect class="cls-2" x="92.92" y="39.2" width=".13" height="37.8"/>
    <rect class="cls-2" x="93.05" y="39.2" width=".13" height="37.8"/>
    <rect class="cls-2" x="93.18" y="39.2" width=".13" height="37.8"/>
    <rect class="cls-2" x="93.31" y="39.2" width=".13" height="37.8"/>
    <rect class="cls-2" x="93.44" y="39.2" width=".13" height="37.8"/>
    <rect class="cls-2" x="93.57" y="37.9" width=".13" height="39.1"/>
    <rect class="cls-2" x="93.7" y="37.9" width=".13" height="39.1"/>
    <rect class="cls-2" x="93.83" y="37.9" width=".13" height="39.1"/>
    <rect class="cls-2" x="93.96" y="37.9" width=".13" height="39.1"/>
    <rect class="cls-2" x="94.09" y="37.9" width=".13" height="39.1"/>
    <rect class="cls-2" x="94.22" y="37.9" width=".13" height="39.1"/>
    <rect class="cls-2" x="94.35" y="37.9" width=".13" height="39.1"/>
    <rect class="cls-2" x="94.48" y="37.9" width=".13" height="39.1"/>
    <rect class="cls-2" x="94.61" y="37.9" width=".13" height="39.1"/>
    <rect class="cls-2" x="94.74" y="37.9" width=".13" height="39.1"/>
    <rect class="cls-2" x="94.88" y="37.9" width=".13" height="39.1"/>
    <rect class="cls-2" x="95.01" y="37.9" width=".13" height="39.1"/>
    <rect class="cls-2" x="95.14" y="37.9" width=".13" height="39.1"/>
    <rect class="cls-2" x="95.27" y="37.9" width=".13" height="39.1"/>
    <rect class="cls-2" x="95.4" y="37.9" width=".13" height="39.1"/>
    <rect class="cls-2" x="95.53" y="37.9" width=".13" height="39.1"/>
    <rect class="cls-2" x="95.66" y="37.9" width=".13" height="39.1"/>
    <rect class="cls-2" x="95.79" y="37.9" width=".13" height="39.1"/>
    <rect class="cls-2" x="95.92" y="37.9" width=".13" height="39.1"/>
    <rect class="cls-2" x="96.05" y="37.9" width=".13" height="39.1"/>
    <rect class="cls-2" x="96.18" y="37.9" width=".13" height="39.1"/>
    <rect class="cls-2" x="96.31" y="37.9" width=".13" height="39.1"/>
    <rect class="cls-2" x="96.44" y="37.9" width=".13" height="39.1"/>
    <rect class="cls-2" x="96.57" y="37.9" width=".13" height="39.1"/>
    <rect class="cls-2" x="96.7" y="37.9" width=".13" height="39.1"/>
    <rect class="cls-2" x="96.83" y="37.9" width=".13" height="39.1"/>
    <rect class="cls-2" x="96.97" y="37.9" width=".13" height="39.1"/>
    <rect class="cls-2" x="97.1" y="37.9" width=".13" height="39.1"/>
    <rect class="cls-2" x="97.23" y="37.9" width=".13" height="39.1"/>
    <rect class="cls-2" x="97.36" y="37.9" width=".13" height="39.1"/>
    <rect class="cls-2" x="97.49" y="37.9" width=".13" height="39.1"/>
    <rect class="cls-2" x="97.62" y="37.9" width=".13" height="39.1"/>
    <rect class="cls-2" x="97.75" y="37.9" width=".13" height="39.1"/>
    <rect class="cls-2" x="97.88" y="37.9" width=".13" height="39.1"/>
    <rect class="cls-2" x="98.01" y="37.9" width=".13" height="39.1"/>
    <rect class="cls-2" x="98.14" y="37.9" width=".13" height="39.1"/>
    <rect class="cls-2" x="98.27" y="37.9" width=".13" height="39.1"/>
    <rect class="cls-2" x="98.4" y="37.9" width=".13" height="39.1"/>
    <rect class="cls-2" x="98.53" y="37.9" width=".13" height="39.1"/>
    <rect class="cls-2" x="98.66" y="37.9" width=".13" height="39.1"/>
    <rect class="cls-2" x="98.79" y="36.59" width=".13" height="40.41"/>
    <rect class="cls-2" x="98.92" y="36.59" width=".13" height="40.41"/>
    <rect class="cls-2" x="99.06" y="36.59" width=".13" height="40.41"/>
    <rect class="cls-2" x="99.19" y="36.59" width=".13" height="40.41"/>
    <rect class="cls-2" x="99.32" y="35.29" width=".13" height="41.71"/>
    <rect class="cls-2" x="99.45" y="35.29" width=".13" height="41.71"/>
    <rect class="cls-2" x="99.58" y="35.29" width=".13" height="41.71"/>
    <rect class="cls-2" x="99.71" y="35.29" width=".13" height="41.71"/>
    <rect class="cls-2" x="99.84" y="35.29" width=".13" height="41.71"/>
    <rect class="cls-2" x="99.97" y="35.29" width=".13" height="41.71"/>
    <rect class="cls-2" x="100.1" y="35.29" width=".13" height="41.71"/>
    <rect class="cls-2" x="100.23" y="35.29" width=".13" height="41.71"/>
    <rect class="cls-2" x="100.36" y="35.29" width=".13" height="41.71"/>
    <rect class="cls-2" x="100.49" y="35.29" width=".13" height="41.71"/>
    <rect class="cls-2" x="100.62" y="35.29" width=".13" height="41.71"/>
    <rect class="cls-2" x="100.75" y="35.29" width=".13" height="41.71"/>
    <rect class="cls-2" x="100.88" y="35.29" width=".13" height="41.71"/>
    <rect class="cls-2" x="101.01" y="35.29" width=".13" height="41.71"/>
    <rect class="cls-2" x="101.15" y="35.29" width=".13" height="41.71"/>
    <rect class="cls-2" x="101.28" y="35.29" width=".13" height="41.71"/>
    <rect class="cls-2" x="101.41" y="35.29" width=".13" height="41.71"/>
    <rect class="cls-2" x="101.54" y="35.29" width=".13" height="41.71"/>
    <rect class="cls-2" x="101.67" y="35.29" width=".13" height="41.71"/>
    <rect class="cls-2" x="101.8" y="35.29" width=".13" height="41.71"/>
    <rect class="cls-2" x="101.93" y="35.29" width=".13" height="41.71"/>
    <rect class="cls-2" x="102.06" y="35.29" width=".13" height="41.71"/>
    <rect class="cls-2" x="102.19" y="35.29" width=".13" height="41.71"/>
    <rect class="cls-2" x="102.32" y="35.29" width=".13" height="41.71"/>
    <rect class="cls-2" x="102.45" y="35.29" width=".13" height="41.71"/>
    <rect class="cls-2" x="102.58" y="35.29" width=".13" height="41.71"/>
    <rect class="cls-2" x="102.71" y="35.29" width=".13" height="41.71"/>
    <rect class="cls-2" x="102.84" y="35.29" width=".13" height="41.71"/>
    <rect class="cls-2" x="102.97" y="35.29" width=".13" height="41.71"/>
    <rect class="cls-2" x="103.1" y="35.29" width=".13" height="41.71"/>
    <rect class="cls-2" x="103.24" y="35.29" width=".13" height="41.71"/>
    <rect class="cls-2" x="103.37" y="35.29" width=".13" height="41.71"/>
    <rect class="cls-2" x="103.5" y="35.29" width=".13" height="41.71"/>
    <rect class="cls-2" x="103.63" y="35.29" width=".13" height="41.71"/>
    <rect class="cls-2" x="103.76" y="35.29" width=".13" height="41.71"/>
    <rect class="cls-2" x="103.89" y="35.29" width=".13" height="41.71"/>
    <rect class="cls-2" x="104.02" y="35.29" width=".13" height="41.71"/>
    <rect class="cls-2" x="104.15" y="35.29" width=".13" height="41.71"/>
    <rect class="cls-2" x="104.28" y="35.29" width=".13" height="41.71"/>
    <rect class="cls-2" x="104.41" y="35.29" width=".13" height="41.71"/>
    <rect class="cls-2" x="104.54" y="33.99" width=".13" height="43.01"/>
    <rect class="cls-2" x="104.67" y="33.99" width=".13" height="43.01"/>
    <rect class="cls-2" x="104.8" y="33.99" width=".13" height="43.01"/>
    <rect class="cls-2" x="104.93" y="33.99" width=".13" height="43.01"/>
    <rect class="cls-2" x="105.06" y="33.99" width=".13" height="43.01"/>
    <rect class="cls-2" x="105.19" y="33.99" width=".13" height="43.01"/>
    <rect class="cls-2" x="105.32" y="33.99" width=".13" height="43.01"/>
    <rect class="cls-2" x="105.46" y="33.99" width=".13" height="43.01"/>
    <rect class="cls-2" x="105.59" y="32.68" width=".13" height="44.32"/>
    <rect class="cls-2" x="105.72" y="32.68" width=".13" height="44.32"/>
    <rect class="cls-2" x="105.85" y="32.68" width=".13" height="44.32"/>
    <rect class="cls-2" x="105.98" y="32.68" width=".13" height="44.32"/>
    <rect class="cls-2" x="106.11" y="32.68" width=".13" height="44.32"/>
    <rect class="cls-2" x="106.24" y="32.68" width=".13" height="44.32"/>
    <rect class="cls-2" x="106.37" y="32.68" width=".13" height="44.32"/>
    <rect class="cls-2" x="106.5" y="32.68" width=".13" height="44.32"/>
    <rect class="cls-2" x="106.63" y="32.68" width=".13" height="44.32"/>
    <rect class="cls-2" x="106.76" y="32.68" width=".13" height="44.32"/>
    <rect class="cls-2" x="106.89" y="32.68" width=".13" height="44.32"/>
    <rect class="cls-2" x="107.02" y="32.68" width=".13" height="44.32"/>
    <rect class="cls-2" x="107.15" y="32.68" width=".13" height="44.32"/>
    <rect class="cls-2" x="107.28" y="32.68" width=".13" height="44.32"/>
    <rect class="cls-2" x="107.41" y="32.68" width=".13" height="44.32"/>
    <rect class="cls-2" x="107.55" y="32.68" width=".13" height="44.32"/>
    <rect class="cls-2" x="107.68" y="32.68" width=".13" height="44.32"/>
    <rect class="cls-2" x="107.81" y="32.68" width=".13" height="44.32"/>
    <rect class="cls-2" x="107.94" y="32.68" width=".13" height="44.32"/>
    <rect class="cls-2" x="108.07" y="32.68" width=".13" height="44.32"/>
    <rect class="cls-2" x="108.2" y="32.68" width=".13" height="44.32"/>
    <rect class="cls-2" x="108.33" y="32.68" width=".13" height="44.32"/>
    <rect class="cls-2" x="108.46" y="32.68" width=".13" height="44.32"/>
    <rect class="cls-2" x="108.59" y="32.68" width=".13" height="44.32"/>
    <rect class="cls-2" x="108.72" y="32.68" width=".13" height="44.32"/>
    <rect class="cls-2" x="108.85" y="32.68" width=".13" height="44.32"/>
    <rect class="cls-2" x="108.98" y="32.68" width=".13" height="44.32"/>
    <rect class="cls-2" x="109.11" y="32.68" width=".13" height="44.32"/>
    <rect class="cls-2" x="109.24" y="31.38" width=".13" height="45.62"/>
    <rect class="cls-2" x="109.37" y="31.38" width=".13" height="45.62"/>
    <rect class="cls-2" x="109.5" y="31.38" width=".13" height="45.62"/>
    <rect class="cls-2" x="109.64" y="31.38" width=".13" height="45.62"/>
    <rect class="cls-2" x="109.77" y="31.38" width=".13" height="45.62"/>
    <rect class="cls-2" x="109.9" y="31.38" width=".13" height="45.62"/>
    <rect class="cls-2" x="110.03" y="31.38" width=".13" height="45.62"/>
    <rect class="cls-2" x="110.16" y="31.38" width=".13" height="45.62"/>
    <rect class="cls-2" x="110.29" y="31.38" width=".13" height="45.62"/>
    <rect class="cls-2" x="110.42" y="31.38" width=".13" height="45.62"/>
    <rect class="cls-2" x="110.55" y="31.38" width=".13" height="45.62"/>
    <rect class="cls-2" x="110.68" y="31.38" width=".13" height="45.62"/>
    <rect class="cls-2" x="110.81" y="31.38" width=".13" height="45.62"/>
    <rect class="cls-2" x="110.94" y="31.38" width=".13" height="45.62"/>
    <rect class="cls-2" x="111.07" y="30.08" width=".13" height="46.93"/>
    <rect class="cls-2" x="111.2" y="30.08" width=".13" height="46.93"/>
    <rect class="cls-2" x="111.33" y="30.08" width=".13" height="46.93"/>
    <rect class="cls-2" x="111.46" y="30.08" width=".13" height="46.93"/>
    <rect class="cls-2" x="111.59" y="30.08" width=".13" height="46.93"/>
    <rect class="cls-2" x="111.73" y="30.08" width=".13" height="46.93"/>
    <rect class="cls-2" x="111.86" y="30.08" width=".13" height="46.93"/>
    <rect class="cls-2" x="111.99" y="30.08" width=".13" height="46.93"/>
    <rect class="cls-2" x="112.12" y="30.08" width=".13" height="46.93"/>
    <rect class="cls-2" x="112.25" y="30.08" width=".13" height="46.93"/>
    <rect class="cls-2" x="112.38" y="30.08" width=".13" height="46.93"/>
    <rect class="cls-2" x="112.51" y="30.08" width=".13" height="46.93"/>
    <rect class="cls-2" x="112.64" y="30.08" width=".13" height="46.93"/>
    <rect class="cls-2" x="112.77" y="30.08" width=".13" height="46.93"/>
    <rect class="cls-2" x="112.9" y="30.08" width=".13" height="46.93"/>
    <rect class="cls-2" x="113.03" y="30.08" width=".13" height="46.93"/>
    <rect class="cls-2" x="113.16" y="30.08" width=".13" height="46.93"/>
    <rect class="cls-2" x="113.29" y="30.08" width=".13" height="46.93"/>
    <rect class="cls-2" x="113.42" y="28.77" width=".13" height="48.23"/>
    <rect class="cls-2" x="113.55" y="28.77" width=".13" height="48.23"/>
    <rect class="cls-2" x="113.68" y="28.77" width=".13" height="48.23"/>
    <rect class="cls-2" x="113.82" y="28.77" width=".13" height="48.23"/>
    <rect class="cls-2" x="113.95" y="28.77" width=".13" height="48.23"/>
    <rect class="cls-2" x="114.08" y="28.77" width=".13" height="48.23"/>
    <rect class="cls-2" x="114.21" y="28.77" width=".13" height="48.23"/>
    <rect class="cls-2" x="114.34" y="28.77" width=".13" height="48.23"/>
    <rect class="cls-2" x="114.47" y="28.77" width=".13" height="48.23"/>
    <rect class="cls-2" x="114.6" y="28.77" width=".13" height="48.23"/>
    <rect class="cls-2" x="114.73" y="28.77" width=".13" height="48.23"/>
    <rect class="cls-2" x="114.86" y="28.77" width=".13" height="48.23"/>
    <rect class="cls-2" x="114.99" y="28.77" width=".13" height="48.23"/>
    <rect class="cls-2" x="115.12" y="28.77" width=".13" height="48.23"/>
    <rect class="cls-2" x="115.25" y="27.47" width=".13" height="49.53"/>
    <rect class="cls-2" x="115.38" y="27.47" width=".13" height="49.53"/>
    <rect class="cls-2" x="115.51" y="27.47" width=".13" height="49.53"/>
    <rect class="cls-2" x="115.64" y="27.47" width=".13" height="49.53"/>
    <rect class="cls-2" x="115.77" y="26.17" width=".13" height="50.84"/>
    <rect class="cls-2" x="115.91" y="26.17" width=".13" height="50.84"/>
    <rect class="cls-2" x="116.04" y="26.17" width=".13" height="50.84"/>
    <rect class="cls-2" x="116.17" y="26.17" width=".13" height="50.84"/>
    <rect class="cls-2" x="116.3" y="26.17" width=".13" height="50.84"/>
    <rect class="cls-2" x="116.43" y="26.17" width=".13" height="50.84"/>
    <rect class="cls-2" x="116.56" y="24.86" width=".13" height="52.14"/>
    <rect class="cls-2" x="116.69" y="24.86" width=".13" height="52.14"/>
    <rect class="cls-2" x="116.82" y="24.86" width=".13" height="52.14"/>
    <rect class="cls-2" x="116.95" y="24.86" width=".13" height="52.14"/>
    <rect class="cls-2" x="117.08" y="24.86" width=".13" height="52.14"/>
    <rect class="cls-2" x="117.21" y="24.86" width=".13" height="52.14"/>
    <rect class="cls-2" x="117.34" y="23.56" width=".13" height="53.44"/>
    <rect class="cls-2" x="117.47" y="23.56" width=".13" height="53.44"/>
    <rect class="cls-2" x="117.6" y="23.56" width=".13" height="53.44"/>
    <rect class="cls-2" x="117.73" y="23.56" width=".13" height="53.44"/>
    <rect class="cls-2" x="117.86" y="23.56" width=".13" height="53.44"/>
    <rect class="cls-2" x="117.99" y="23.56" width=".13" height="53.44"/>
    <rect class="cls-2" x="118.13" y="22.26" width=".13" height="54.75"/>
    <rect class="cls-2" x="118.26" y="22.26" width=".13" height="54.75"/>
    <rect class="cls-2" x="118.39" y="22.26" width=".13" height="54.75"/>
    <rect class="cls-2" x="118.52" y="22.26" width=".13" height="54.75"/>
    <rect class="cls-2" x="118.65" y="22.26" width=".13" height="54.75"/>
    <rect class="cls-2" x="118.78" y="22.26" width=".13" height="54.75"/>
    <rect class="cls-2" x="118.91" y="20.95" width=".13" height="56.05"/>
    <rect class="cls-2" x="119.04" y="20.95" width=".13" height="56.05"/>
    <rect class="cls-2" x="119.17" y="20.95" width=".13" height="56.05"/>
    <rect class="cls-2" x="119.3" y="20.95" width=".13" height="56.05"/>
    <rect class="cls-2" x="119.43" y="20.95" width=".13" height="56.05"/>
    <rect class="cls-2" x="119.56" y="20.95" width=".13" height="56.05"/>
    <rect class="cls-2" x="119.69" y="19.65" width=".13" height="57.35"/>
    <rect class="cls-2" x="119.82" y="19.65" width=".13" height="57.35"/>
    <rect class="cls-2" x="119.95" y="19.65" width=".13" height="57.35"/>
    <rect class="cls-2" x="120.08" y="19.65" width=".13" height="57.35"/>
    <rect class="cls-2" x="120.22" y="19.65" width=".13" height="57.35"/>
    <rect class="cls-2" x="120.35" y="19.65" width=".13" height="57.35"/>
    <rect class="cls-2" x="120.48" y="19.65" width=".13" height="57.35"/>
    <rect class="cls-2" x="120.61" y="19.65" width=".13" height="57.35"/>
    <rect class="cls-2" x="120.74" y="19.65" width=".13" height="57.35"/>
    <rect class="cls-2" x="120.87" y="19.65" width=".13" height="57.35"/>
    <rect class="cls-2" x="121" y="19.65" width=".13" height="57.35"/>
    <rect class="cls-2" x="121.13" y="19.65" width=".13" height="57.35"/>
    <rect class="cls-2" x="121.26" y="19.65" width=".13" height="57.35"/>
    <rect class="cls-2" x="121.39" y="19.65" width=".13" height="57.35"/>
    <rect class="cls-2" x="121.52" y="19.65" width=".13" height="57.35"/>
    <rect class="cls-2" x="121.65" y="19.65" width=".13" height="57.35"/>
    <rect class="cls-2" x="121.78" y="18.34" width=".13" height="58.66"/>
    <rect class="cls-2" x="121.91" y="18.34" width=".13" height="58.66"/>
    <rect class="cls-2" x="122.04" y="18.34" width=".13" height="58.66"/>
    <rect class="cls-2" x="122.17" y="18.34" width=".13" height="58.66"/>
    <rect class="cls-2" x="122.31" y="17.04" width=".13" height="59.96"/>
    <rect class="cls-2" x="122.44" y="17.04" width=".13" height="59.96"/>
    <rect class="cls-2" x="122.57" y="17.04" width=".13" height="59.96"/>
    <rect class="cls-2" x="122.7" y="17.04" width=".13" height="59.96"/>
    <rect class="cls-2" x="122.83" y="17.04" width=".13" height="59.96"/>
    <rect class="cls-2" x="122.96" y="17.04" width=".13" height="59.96"/>
    <rect class="cls-2" x="123.09" y="17.04" width=".13" height="59.96"/>
    <rect class="cls-2" x="123.22" y="17.04" width=".13" height="59.96"/>
    <rect class="cls-2" x="123.35" y="17.04" width=".13" height="59.96"/>
    <rect class="cls-2" x="123.48" y="17.04" width=".13" height="59.96"/>
    <rect class="cls-2" x="123.61" y="15.74" width=".13" height="61.26"/>
    <rect class="cls-2" x="123.74" y="15.74" width=".13" height="61.26"/>
    <rect class="cls-2" x="123.87" y="14.43" width=".13" height="62.57"/>
    <rect class="cls-2" x="124" y="14.43" width=".13" height="62.57"/>
    <rect class="cls-2" x="124.13" y="14.43" width=".13" height="62.57"/>
    <rect class="cls-2" x="124.26" y="14.43" width=".13" height="62.57"/>
    <rect class="cls-2" x="124.4" y="13.13" width=".13" height="63.87"/>
    <rect class="cls-2" x="124.53" y="13.13" width=".13" height="63.87"/>
    <rect class="cls-2" x="124.66" y="13.13" width=".13" height="63.87"/>
    <rect class="cls-2" x="124.79" y="13.13" width=".13" height="63.87"/>
    <rect class="cls-2" x="124.92" y="10.52" width=".13" height="66.48"/>
    <rect class="cls-2" x="125.05" y="10.52" width=".13" height="66.48"/>
  </g>
  <line class="cls-7" x1="31.07" y1="77" x2="31.07" y2="77.2"/>
  <path class="cls-3" d="M29.97,82.6c0-.42.04-.76.13-1.02.09-.26.22-.46.39-.6.17-.14.39-.21.65-.21.19,0,.36.04.51.12.14.08.26.19.36.33.1.14.17.32.22.53.05.21.08.49.08.84,0,.42-.04.76-.13,1.02-.09.26-.21.46-.39.6-.17.14-.39.21-.65.21-.34,0-.62-.12-.81-.37-.24-.3-.35-.78-.35-1.46M30.42,82.6c0,.59.07.98.21,1.17.14.19.31.29.51.29s.37-.1.51-.29c.14-.2.21-.59.21-1.17s-.07-.98-.21-1.17c-.14-.19-.31-.29-.51-.29s-.36.09-.48.26c-.15.22-.23.62-.23,1.21h0Z"/>
  <line class="cls-7" x1="44.13" y1="77" x2="44.13" y2="77.2"/>
  <path class="cls-3" d="M41.7,84.37h-.44v-2.8c-.1.1-.24.2-.42.3-.17.1-.32.18-.46.23v-.42c.25-.11.46-.26.64-.42s.31-.32.39-.48h.28v3.59h0Z"/>
  <path class="cls-3" d="M42.93,82.6c0-.42.04-.76.13-1.02.09-.26.22-.46.39-.6.17-.14.39-.21.65-.21.19,0,.36.04.51.12.14.08.26.19.36.33.1.14.17.32.22.53.05.21.08.49.08.84,0,.42-.04.76-.13,1.02-.09.26-.21.46-.39.6-.17.14-.39.21-.65.21-.34,0-.62-.12-.81-.37-.24-.3-.35-.78-.35-1.46M43.38,82.6c0,.59.07.98.21,1.17.14.19.31.29.51.29s.37-.1.51-.29c.14-.2.21-.59.21-1.17s-.07-.98-.21-1.17c-.14-.19-.31-.29-.51-.29s-.36.09-.48.26c-.15.22-.23.62-.23,1.21h0Z"/>
  <path class="cls-3" d="M45.81,82.6c0-.42.04-.76.13-1.02.09-.26.22-.46.39-.6.17-.14.39-.21.65-.21.19,0,.36.04.51.12.14.08.26.19.36.33.1.14.17.32.22.53.05.21.08.49.08.84,0,.42-.04.76-.13,1.02-.09.26-.21.46-.39.6-.17.14-.39.21-.65.21-.34,0-.62-.12-.81-.37-.24-.3-.35-.78-.35-1.46M46.26,82.6c0,.59.07.98.21,1.17.14.19.31.29.51.29s.37-.1.51-.29c.14-.2.21-.59.21-1.17s-.07-.98-.21-1.17c-.14-.19-.31-.29-.51-.29s-.36.09-.48.26c-.15.22-.23.62-.23,1.21h0Z"/>
  <line class="cls-7" x1="57.19" y1="77" x2="57.19" y2="77.2"/>
  <path class="cls-3" d="M55.56,83.94v.42h-2.37c0-.1.01-.21.05-.31.06-.16.16-.32.29-.48.13-.16.32-.34.58-.54.39-.32.65-.57.79-.76.14-.19.21-.36.21-.53s-.06-.32-.19-.44-.29-.18-.49-.18c-.21,0-.38.06-.51.19-.13.13-.19.3-.19.53l-.45-.05c.03-.34.15-.59.35-.77.2-.18.47-.27.81-.27s.62.1.82.29c.2.19.3.43.3.71,0,.14-.03.28-.09.42s-.16.28-.29.44c-.13.15-.36.36-.68.63-.26.22-.43.37-.51.45-.08.08-.14.16-.19.24h1.76Z"/>
  <path class="cls-3" d="M56.13,82.6c0-.42.04-.76.13-1.02.09-.26.22-.46.39-.6.17-.14.39-.21.65-.21.19,0,.36.04.51.12.14.08.26.19.36.33.1.14.17.32.22.53.05.21.08.49.08.84,0,.42-.04.76-.13,1.02-.09.26-.21.46-.39.6-.17.14-.39.21-.65.21-.34,0-.62-.12-.81-.37-.24-.3-.35-.78-.35-1.46M56.58,82.6c0,.59.07.98.21,1.17.14.19.31.29.51.29s.37-.1.51-.29c.14-.2.21-.59.21-1.17s-.07-.98-.21-1.17c-.14-.19-.31-.29-.51-.29s-.36.09-.48.26c-.15.22-.23.62-.23,1.21h0Z"/>
  <path class="cls-3" d="M58.77,82.6c0-.42.04-.76.13-1.02.09-.26.22-.46.39-.6.17-.14.39-.21.65-.21.19,0,.36.04.51.12.14.08.26.19.36.33.1.14.17.32.22.53.05.21.08.49.08.84,0,.42-.04.76-.13,1.02-.09.26-.21.46-.39.6-.17.14-.39.21-.65.21-.34,0-.62-.12-.81-.37-.24-.3-.35-.78-.35-1.46M59.22,82.6c0,.59.07.98.21,1.17.14.19.31.29.51.29s.37-.1.51-.29c.14-.2.21-.59.21-1.17s-.07-.98-.21-1.17c-.14-.19-.31-.29-.51-.29s-.36.09-.48.26c-.15.22-.23.62-.23,1.21h0Z"/>
  <line class="cls-7" x1="70.25" y1="77" x2="70.25" y2="77.2"/>
  <path class="cls-3" d="M66.21,83.42l.44-.06c.05.25.14.43.26.54.12.11.27.16.44.16.21,0,.38-.07.52-.21.14-.14.21-.32.21-.53s-.07-.37-.2-.5c-.13-.13-.3-.2-.5-.2-.08,0-.19.02-.31.05l.05-.39s.05,0,.07,0c.19,0,.36-.05.51-.15.15-.1.22-.25.22-.45,0-.16-.05-.3-.16-.4s-.25-.16-.42-.16-.31.05-.43.16c-.11.11-.19.27-.22.48l-.44-.08c.05-.3.18-.52.37-.68.19-.16.43-.24.71-.24.2,0,.38.04.54.13.16.08.29.2.38.34.09.14.13.3.13.46,0,.15-.04.3-.12.42-.08.13-.21.23-.37.3.21.05.38.15.49.31s.18.34.18.58c0,.31-.11.58-.34.8s-.52.32-.86.32c-.31,0-.58-.09-.78-.28-.21-.19-.32-.43-.35-.73h0Z"/>
  <path class="cls-3" d="M69.09,82.6c0-.42.04-.76.13-1.02.09-.26.22-.46.39-.6.17-.14.39-.21.65-.21.19,0,.36.04.51.12.14.08.26.19.36.33.1.14.17.32.22.53.05.21.08.49.08.84,0,.42-.04.76-.13,1.02-.09.26-.21.46-.39.6-.17.14-.39.21-.65.21-.34,0-.62-.12-.81-.37-.24-.3-.35-.78-.35-1.46M69.54,82.6c0,.59.07.98.21,1.17.14.19.31.29.51.29s.37-.1.51-.29c.14-.2.21-.59.21-1.17s-.07-.98-.21-1.17c-.14-.19-.31-.29-.51-.29s-.36.09-.48.26c-.15.22-.23.62-.23,1.21h0Z"/>
  <path class="cls-3" d="M71.97,82.6c0-.42.04-.76.13-1.02.09-.26.22-.46.39-.6.17-.14.39-.21.65-.21.19,0,.36.04.51.12.14.08.26.19.36.33.1.14.17.32.22.53.05.21.08.49.08.84,0,.42-.04.76-.13,1.02-.09.26-.21.46-.39.6-.17.14-.39.21-.65.21-.34,0-.62-.12-.81-.37-.24-.3-.35-.78-.35-1.46M72.42,82.6c0,.59.07.98.21,1.17.14.19.31.29.51.29s.37-.1.51-.29c.14-.2.21-.59.21-1.17s-.07-.98-.21-1.17c-.14-.19-.31-.29-.51-.29s-.36.09-.48.26c-.15.22-.23.62-.23,1.21h0Z"/>
  <line class="cls-7" x1="83.32" y1="77" x2="83.32" y2="77.2"/>
  <path class="cls-3" d="M80.82,84.37v-.86h-1.55v-.4l1.63-2.32h.36v2.32h.48v.4h-.48v.86h-.44M80.82,83.11v-1.61l-1.12,1.61h1.12Z"/>
  <path class="cls-3" d="M82.05,82.6c0-.42.04-.76.13-1.02.09-.26.22-.46.39-.6.17-.14.39-.21.65-.21.19,0,.36.04.51.12.14.08.26.19.36.33.1.14.17.32.22.53.05.21.08.49.08.84,0,.42-.04.76-.13,1.02-.09.26-.21.46-.39.6-.17.14-.39.21-.65.21-.34,0-.62-.12-.81-.37-.24-.3-.35-.78-.35-1.46M82.5,82.6c0,.59.07.98.21,1.17.14.19.31.29.51.29s.37-.1.51-.29c.14-.2.21-.59.21-1.17s-.07-.98-.21-1.17c-.14-.19-.31-.29-.51-.29s-.36.09-.48.26c-.15.22-.23.62-.23,1.21h0Z"/>
  <path class="cls-3" d="M84.93,82.6c0-.42.04-.76.13-1.02.09-.26.22-.46.39-.6.17-.14.39-.21.65-.21.19,0,.36.04.51.12.14.08.26.19.36.33.1.14.17.32.22.53.05.21.08.49.08.84,0,.42-.04.76-.13,1.02-.09.26-.21.46-.39.6-.17.14-.39.21-.65.21-.34,0-.62-.12-.81-.37-.24-.3-.35-.78-.35-1.46M85.38,82.6c0,.59.07.98.21,1.17.14.19.31.29.51.29s.37-.1.51-.29c.14-.2.21-.59.21-1.17s-.07-.98-.21-1.17c-.14-.19-.31-.29-.51-.29s-.36.09-.48.26c-.15.22-.23.62-.23,1.21h0Z"/>
  <line class="cls-7" x1="96.38" y1="77" x2="96.38" y2="77.2"/>
  <path class="cls-3" d="M92.37,83.43l.46-.04c.03.22.11.39.24.51.12.11.28.17.45.17.21,0,.39-.08.54-.24s.22-.37.22-.63-.07-.45-.21-.59c-.14-.14-.32-.22-.55-.22-.14,0-.27.03-.38.1-.11.06-.2.15-.27.25l-.41-.05.35-1.84h1.78v.42h-1.43l-.19.96c.21-.15.44-.22.68-.22.31,0,.58.11.79.32.21.22.32.5.32.83s-.1.6-.28.84c-.23.29-.54.43-.94.43-.32,0-.59-.09-.8-.27-.21-.18-.32-.42-.35-.73h0Z"/>
  <path class="cls-3" d="M95.25,82.6c0-.42.04-.76.13-1.02.09-.26.22-.46.39-.6.17-.14.39-.21.65-.21.19,0,.36.04.51.12.14.08.26.19.36.33.1.14.17.32.22.53.05.21.08.49.08.84,0,.42-.04.76-.13,1.02-.09.26-.21.46-.39.6-.17.14-.39.21-.65.21-.34,0-.62-.12-.81-.37-.24-.3-.35-.78-.35-1.46M95.7,82.6c0,.59.07.98.21,1.17.14.19.31.29.51.29s.37-.1.51-.29c.14-.2.21-.59.21-1.17s-.07-.98-.21-1.17c-.14-.19-.31-.29-.51-.29s-.36.09-.48.26c-.15.22-.23.62-.23,1.21h0Z"/>
  <path class="cls-3" d="M97.89,82.6c0-.42.04-.76.13-1.02.09-.26.22-.46.39-.6.17-.14.39-.21.65-.21.19,0,.36.04.51.12.14.08.26.19.36.33.1.14.17.32.22.53.05.21.08.49.08.84,0,.42-.04.76-.13,1.02-.09.26-.21.46-.39.6-.17.14-.39.21-.65.21-.34,0-.62-.12-.81-.37-.24-.3-.35-.78-.35-1.46M98.34,82.6c0,.59.07.98.21,1.17.14.19.31.29.51.29s.37-.1.51-.29c.14-.2.21-.59.21-1.17s-.07-.98-.21-1.17c-.14-.19-.31-.29-.51-.29s-.36.09-.48.26c-.15.22-.23.62-.23,1.21h0Z"/>
  <line class="cls-7" x1="109.44" y1="77" x2="109.44" y2="77.2"/>
  <path class="cls-3" d="M107.85,81.66l-.44.03c-.04-.17-.1-.3-.17-.38-.12-.12-.27-.19-.44-.19-.14,0-.26.04-.37.12-.14.1-.25.25-.33.44s-.12.47-.12.83c.1-.16.23-.28.39-.36s.31-.12.48-.12c.29,0,.54.11.75.32.21.21.31.49.31.83,0,.22-.05.43-.15.63-.1.19-.23.34-.4.44s-.36.15-.58.15c-.37,0-.66-.13-.9-.4-.23-.27-.35-.72-.35-1.33,0-.69.13-1.19.38-1.51.22-.27.52-.41.9-.41.28,0,.51.08.69.24.18.16.29.38.32.65M106.05,83.21c0,.15.03.3.1.43.07.14.16.24.27.32.11.07.24.11.36.11.19,0,.34-.08.48-.22.13-.15.2-.35.2-.61s-.07-.44-.2-.58c-.13-.14-.3-.21-.5-.21s-.37.07-.51.21c-.14.14-.21.33-.21.56h0Z"/>
  <path class="cls-3" d="M108.21,82.6c0-.42.04-.76.13-1.02.09-.26.22-.46.39-.6.17-.14.39-.21.65-.21.19,0,.36.04.51.12.14.08.26.19.36.33.1.14.17.32.22.53.05.21.08.49.08.84,0,.42-.04.76-.13,1.02-.09.26-.21.46-.39.6-.17.14-.39.21-.65.21-.34,0-.62-.12-.81-.37-.24-.3-.35-.78-.35-1.46M108.66,82.6c0,.59.07.98.21,1.17.14.19.31.29.51.29s.37-.1.51-.29c.14-.2.21-.59.21-1.17s-.07-.98-.21-1.17c-.14-.19-.31-.29-.51-.29s-.36.09-.48.26c-.15.22-.23.62-.23,1.21h0Z"/>
  <path class="cls-3" d="M111.09,82.6c0-.42.04-.76.13-1.02.09-.26.22-.46.39-.6.17-.14.39-.21.65-.21.19,0,.36.04.51.12.14.08.26.19.36.33.1.14.17.32.22.53.05.21.08.49.08.84,0,.42-.04.76-.13,1.02-.09.26-.21.46-.39.6-.17.14-.39.21-.65.21-.34,0-.62-.12-.81-.37-.24-.3-.35-.78-.35-1.46M111.54,82.6c0,.59.07.98.21,1.17.14.19.31.29.51.29s.37-.1.51-.29c.14-.2.21-.59.21-1.17s-.07-.98-.21-1.17c-.14-.19-.31-.29-.51-.29s-.36.09-.48.26c-.15.22-.23.62-.23,1.21h0Z"/>
  <line class="cls-7" x1="122.5" y1="77" x2="122.5" y2="77.2"/>
  <path class="cls-3" d="M118.56,81.26v-.42h2.32v.34c-.23.24-.45.56-.68.97-.22.4-.4.82-.52,1.24-.09.3-.14.63-.17.98h-.45c0-.28.06-.62.17-1.02s.26-.78.45-1.15c.2-.37.41-.68.63-.94h-1.75Z"/>
  <path class="cls-3" d="M121.41,82.6c0-.42.04-.76.13-1.02.09-.26.22-.46.39-.6.17-.14.39-.21.65-.21.19,0,.36.04.51.12.14.08.26.19.36.33.1.14.17.32.22.53.05.21.08.49.08.84,0,.42-.04.76-.13,1.02-.09.26-.21.46-.39.6-.17.14-.39.21-.65.21-.34,0-.62-.12-.81-.37-.24-.3-.35-.78-.35-1.46M121.86,82.6c0,.59.07.98.21,1.17.14.19.31.29.51.29s.37-.1.51-.29c.14-.2.21-.59.21-1.17s-.07-.98-.21-1.17c-.14-.19-.31-.29-.51-.29s-.36.09-.48.26c-.15.22-.23.62-.23,1.21h0Z"/>
  <path class="cls-3" d="M124.05,82.6c0-.42.04-.76.13-1.02.09-.26.22-.46.39-.6.17-.14.39-.21.65-.21.19,0,.36.04.51.12.14.08.26.19.36.33.1.14.17.32.22.53.05.21.08.49.08.84,0,.42-.04.76-.13,1.02-.09.26-.21.46-.39.6-.17.14-.39.21-.65.21-.34,0-.62-.12-.81-.37-.24-.3-.35-.78-.35-1.46M124.5,82.6c0,.59.07.98.21,1.17.14.19.31.29.51.29s.37-.1.51-.29c.14-.2.21-.59.21-1.17s-.07-.98-.21-1.17c-.14-.19-.31-.29-.51-.29s-.36.09-.48.26c-.15.22-.23.62-.23,1.21h0Z"/>
  <path class="cls-3" d="M32.7,91.75l.47.12c-.1.39-.28.69-.54.89-.26.2-.57.31-.94.31s-.7-.08-.94-.23c-.24-.16-.42-.39-.55-.68-.12-.3-.19-.62-.19-.96,0-.37.07-.7.21-.97.14-.28.35-.49.61-.63.26-.14.55-.22.87-.22.36,0,.66.09.9.27.24.18.42.44.51.77l-.47.11c-.08-.26-.2-.45-.36-.57-.16-.12-.36-.18-.6-.18-.28,0-.51.07-.69.2-.18.13-.31.31-.39.53-.08.22-.11.45-.11.69,0,.31.04.57.13.8.09.23.23.4.42.51.19.11.39.17.61.17.27,0,.49-.08.67-.23s.31-.38.37-.68h0Z"/>
  <path class="cls-3" d="M35.38,92.69c-.16.14-.32.24-.47.29-.15.06-.31.09-.48.09-.29,0-.5-.07-.66-.21s-.23-.32-.23-.53c0-.13.03-.24.09-.35.06-.1.13-.19.23-.25.1-.06.2-.11.32-.14.09-.02.22-.04.39-.07.35-.04.62-.09.78-.15,0-.06,0-.1,0-.11,0-.18-.04-.31-.12-.38-.11-.1-.28-.15-.5-.15-.21,0-.36.04-.46.11-.1.07-.17.2-.22.38l-.43-.06c.04-.18.1-.33.19-.44.09-.11.22-.2.39-.26.17-.06.37-.09.59-.09s.4.03.54.08.24.12.31.2c.07.08.11.18.14.3.01.08.02.21.02.41v.59c0,.41,0,.67.03.78.02.11.06.21.11.31h-.46c-.05-.09-.08-.2-.09-.32M35.34,91.71c-.16.07-.4.12-.72.17-.18.03-.31.06-.38.09-.08.03-.13.08-.17.14-.04.06-.06.13-.06.21,0,.12.04.21.13.29.09.08.22.12.39.12s.32-.04.45-.11c.13-.08.23-.18.29-.31.05-.1.07-.25.07-.44v-.16h0Z"/>
  <path class="cls-3" d="M36.39,92.23l.43-.07c.02.17.09.31.2.4.11.09.27.14.47.14s.35-.04.45-.12c.1-.08.15-.18.15-.29,0-.1-.04-.18-.13-.23-.06-.04-.21-.09-.45-.15-.32-.08-.55-.15-.67-.21-.12-.06-.22-.14-.28-.25-.06-.11-.1-.22-.1-.35,0-.11.03-.22.08-.32.05-.1.13-.18.22-.25.07-.05.16-.09.28-.13.12-.04.25-.05.38-.05.2,0,.38.03.53.09s.27.14.34.24c.07.1.12.23.15.4l-.43.06c-.02-.13-.08-.24-.17-.31-.09-.08-.22-.11-.4-.11-.2,0-.35.03-.43.1s-.13.14-.13.23c0,.06.02.11.05.15.04.05.09.09.17.12.04.02.17.05.39.11.31.08.53.15.65.21.12.05.22.13.29.23.07.1.1.23.1.38s-.04.29-.13.42c-.09.13-.21.23-.37.3-.16.07-.34.1-.55.1-.34,0-.59-.07-.77-.21-.18-.14-.29-.35-.34-.62h0Z"/>
  <path class="cls-3" d="M40.74,92.17l.45.06c-.07.27-.21.47-.4.62s-.44.22-.74.22c-.38,0-.68-.12-.9-.35-.22-.23-.33-.56-.33-.98s.11-.77.34-1.02.52-.36.87-.36.63.12.85.35c.22.24.33.57.33,1,0,.03,0,.07,0,.12h-1.93c.02.29.1.5.24.65.14.15.32.23.54.23.16,0,.3-.04.41-.13.11-.09.21-.22.27-.41M39.3,91.46h1.45c-.02-.22-.08-.38-.17-.49-.14-.17-.32-.25-.54-.25-.2,0-.37.07-.51.2-.14.13-.21.31-.23.54h0Z"/>
  <polygon class="cls-3" points="43.43 93.01 43.43 89.43 43.9 89.43 43.9 93.01 43.43 93.01 43.43 93.01"/>
  <path class="cls-3" d="M44.55,93.01v-3.58h1.23c.28,0,.49.02.64.05.21.05.38.13.52.26.19.16.33.36.42.61.1.25.14.53.14.85,0,.27-.03.51-.1.72-.06.21-.14.38-.24.52-.1.14-.21.24-.33.32-.12.08-.26.14-.43.18-.17.04-.36.06-.57.06h-1.29M45.02,92.58h.76c.24,0,.42-.02.55-.07.13-.04.24-.1.32-.19.11-.11.2-.26.26-.45.06-.19.1-.42.1-.69,0-.37-.06-.66-.19-.86-.12-.2-.27-.34-.45-.41-.13-.05-.33-.07-.61-.07h-.75v2.73h0Z"/>
  <path class="cls-3" d="M50.37,94.06c-.24-.31-.45-.66-.62-1.07s-.25-.83-.25-1.27c0-.39.06-.76.19-1.11.15-.41.37-.82.68-1.23h.31c-.2.34-.33.58-.39.73-.1.22-.18.46-.23.7-.07.31-.1.61-.1.92,0,.78.24,1.56.73,2.35h-.31Z"/>
  <path class="cls-3" d="M51.03,92.23l.43-.07c.02.17.09.31.2.4.11.09.27.14.47.14s.35-.04.45-.12c.1-.08.15-.18.15-.29,0-.1-.04-.18-.13-.23-.06-.04-.21-.09-.45-.15-.32-.08-.55-.15-.67-.21-.12-.06-.22-.14-.28-.25-.06-.11-.1-.22-.1-.35,0-.11.03-.22.08-.32.05-.1.13-.18.22-.25.07-.05.16-.09.28-.13.12-.04.25-.05.38-.05.2,0,.38.03.53.09s.27.14.34.24c.07.1.12.23.15.4l-.43.06c-.02-.13-.08-.24-.17-.31-.09-.08-.22-.11-.4-.11-.2,0-.35.03-.43.1-.09.07-.13.14-.13.23,0,.06.02.11.05.15.04.05.09.09.17.12.04.02.17.05.39.11.31.08.53.15.65.21.12.05.22.13.29.23.07.1.1.23.1.38s-.04.29-.13.42c-.09.13-.21.23-.37.3-.16.07-.34.1-.55.1-.34,0-.59-.07-.77-.21-.18-.14-.29-.35-.34-.62h0Z"/>
  <path class="cls-3" d="M53.45,91.71c0-.48.13-.83.4-1.07.22-.19.5-.29.82-.29.36,0,.65.12.87.35.23.23.34.55.34.97,0,.33-.05.6-.15.79-.1.19-.24.34-.44.44-.19.11-.4.16-.62.16-.36,0-.66-.12-.88-.35-.22-.23-.33-.57-.33-1.01M53.9,91.71c0,.33.07.58.22.75.14.16.33.25.55.25s.4-.08.54-.25c.14-.17.22-.42.22-.76,0-.32-.07-.56-.22-.73-.14-.17-.32-.25-.54-.25s-.4.08-.55.25c-.14.16-.22.41-.22.74h0Z"/>
  <path class="cls-3" d="M56.48,93.01v-2.59h.4v.39c.1-.18.19-.31.28-.36.09-.06.18-.09.28-.09.15,0,.3.05.45.14l-.15.41c-.11-.06-.21-.1-.32-.1-.1,0-.18.03-.26.09-.08.06-.13.14-.16.24-.05.16-.07.33-.07.51v1.36h-.44Z"/>
  <path class="cls-3" d="M59.13,92.61l.06.39c-.12.03-.23.04-.33.04-.16,0-.28-.02-.37-.08s-.15-.12-.19-.2c-.04-.08-.05-.26-.05-.52v-1.49h-.32v-.34h.32v-.64l.44-.26v.91h.44v.34h-.44v1.52c0,.12,0,.21.02.24.02.04.04.06.08.09.04.02.09.03.15.03.05,0,.11,0,.19-.02h0Z"/>
  <path class="cls-3" d="M61.38,92.17l.45.06c-.07.27-.21.47-.4.62-.19.15-.44.22-.74.22-.38,0-.68-.12-.9-.35-.22-.23-.33-.56-.33-.98s.11-.77.34-1.02c.22-.24.52-.36.87-.36s.63.12.85.35c.22.24.33.57.33,1,0,.03,0,.07,0,.12h-1.93c.02.29.1.5.24.65.14.15.32.23.54.23.16,0,.3-.04.41-.13.11-.09.21-.22.27-.41M59.94,91.46h1.45c-.02-.22-.08-.38-.17-.49-.14-.17-.32-.25-.54-.25-.2,0-.37.07-.51.2-.14.13-.21.31-.23.54h0Z"/>
  <path class="cls-3" d="M63.93,93.01v-.33c-.16.26-.41.39-.73.39-.21,0-.4-.06-.57-.17-.17-.11-.31-.27-.4-.48-.1-.21-.14-.44-.14-.71s.04-.49.13-.7c.09-.21.21-.37.39-.49.17-.11.37-.17.58-.17.16,0,.3.03.42.1.12.07.22.15.3.26v-1.28h.44v3.58h-.41M62.54,91.71c0,.33.07.58.21.74.14.16.31.25.5.25s.35-.08.49-.23c.13-.16.2-.4.2-.72,0-.35-.07-.62-.21-.78-.14-.17-.31-.25-.51-.25s-.36.08-.49.24c-.13.16-.2.41-.2.75h0Z"/>
  <path class="cls-3" d="M66.97,93.01h-.41v-3.58h.44v1.28c.19-.23.42-.35.71-.35.16,0,.31.03.45.1.14.06.26.15.35.27.09.11.17.26.22.42.05.16.08.34.08.53,0,.44-.11.79-.33,1.03s-.48.36-.79.36-.55-.13-.72-.38v.32M66.97,91.69c0,.31.04.53.13.67.14.23.32.34.56.34.19,0,.36-.08.5-.25.14-.17.21-.42.21-.75s-.07-.59-.2-.75-.3-.24-.49-.24-.36.08-.5.25c-.14.17-.21.41-.21.72h0Z"/>
  <path class="cls-3" d="M69.19,94.01l-.05-.41c.1.03.18.04.25.04.1,0,.18-.02.23-.05.06-.03.11-.08.14-.14.03-.04.07-.15.13-.33,0-.02.02-.06.04-.11l-.98-2.6h.47l.54,1.5c.07.19.13.39.19.6.05-.2.11-.4.18-.59l.55-1.51h.44l-.99,2.64c-.1.29-.19.48-.25.59-.08.14-.17.25-.27.32-.1.07-.22.1-.36.1-.09,0-.18-.02-.28-.05h0Z"/>
  <path class="cls-3" d="M74.98,92.69c-.16.14-.32.24-.47.29-.15.06-.31.09-.48.09-.29,0-.5-.07-.66-.21s-.23-.32-.23-.53c0-.13.03-.24.09-.35.06-.1.13-.19.23-.25.1-.06.2-.11.32-.14.09-.02.22-.04.39-.07.35-.04.62-.09.78-.15,0-.06,0-.1,0-.11,0-.18-.04-.31-.12-.38-.11-.1-.28-.15-.5-.15-.21,0-.36.04-.46.11-.1.07-.17.2-.22.38l-.43-.06c.04-.18.1-.33.19-.44.09-.11.22-.2.39-.26.17-.06.37-.09.59-.09s.4.03.54.08.24.12.31.2c.07.08.11.18.14.3.01.08.02.21.02.41v.59c0,.41,0,.67.03.78.02.11.06.21.11.31h-.46c-.05-.09-.08-.2-.09-.32M74.94,91.71c-.16.07-.4.12-.72.17-.18.03-.31.06-.38.09-.08.03-.13.08-.17.14-.04.06-.06.13-.06.21,0,.12.04.21.13.29.09.08.22.12.39.12s.32-.04.45-.11c.13-.08.23-.18.29-.31.05-.1.07-.25.07-.44v-.16h0Z"/>
  <path class="cls-3" d="M75.75,92.23l.43-.07c.02.17.09.31.2.4.11.09.27.14.47.14s.35-.04.45-.12c.1-.08.15-.18.15-.29,0-.1-.04-.18-.13-.23-.06-.04-.21-.09-.45-.15-.32-.08-.55-.15-.67-.21-.12-.06-.22-.14-.28-.25-.06-.11-.1-.22-.1-.35,0-.11.03-.22.08-.32.05-.1.13-.18.22-.25.07-.05.16-.09.28-.13.12-.04.25-.05.38-.05.2,0,.38.03.53.09s.27.14.34.24c.07.1.12.23.15.4l-.43.06c-.02-.13-.08-.24-.17-.31-.09-.08-.22-.11-.4-.11-.2,0-.35.03-.43.1s-.13.14-.13.23c0,.06.02.11.05.15.04.05.09.09.17.12.04.02.17.05.39.11.31.08.53.15.65.21.12.05.22.13.29.23.07.1.1.23.1.38s-.04.29-.13.42c-.09.13-.21.23-.37.3-.16.07-.34.1-.55.1-.34,0-.59-.07-.77-.21-.18-.14-.29-.35-.34-.62h0Z"/>
  <path class="cls-3" d="M80.26,92.06l.43.06c-.05.3-.17.53-.36.7-.19.17-.43.25-.72.25-.35,0-.64-.11-.86-.35-.21-.23-.32-.57-.32-1,0-.28.05-.52.14-.73.09-.21.23-.37.42-.47.19-.11.4-.16.62-.16.28,0,.51.07.69.21.18.14.29.34.34.61l-.43.07c-.04-.17-.11-.31-.22-.39-.1-.09-.23-.13-.37-.13-.22,0-.4.08-.54.24-.14.16-.21.41-.21.75s.07.6.2.76c.13.16.31.24.52.24.17,0,.32-.05.43-.16.11-.1.19-.27.22-.49h0Z"/>
  <path class="cls-3" d="M82.74,92.17l.45.06c-.07.27-.21.47-.4.62-.19.15-.44.22-.74.22-.38,0-.68-.12-.9-.35-.22-.23-.33-.56-.33-.98s.11-.77.34-1.02c.22-.24.52-.36.87-.36s.63.12.85.35c.22.24.33.57.33,1,0,.03,0,.07,0,.12h-1.93c.02.29.1.5.24.65.14.15.32.23.54.23.16,0,.3-.04.41-.13.11-.09.21-.22.27-.41M81.3,91.46h1.45c-.02-.22-.08-.38-.17-.49-.14-.17-.32-.25-.54-.25-.2,0-.37.07-.51.2-.14.13-.21.31-.23.54h0Z"/>
  <path class="cls-3" d="M83.85,93.01v-2.59h.4v.37c.19-.29.47-.43.83-.43.16,0,.3.03.43.09.13.06.23.13.3.22.07.09.11.2.14.32.02.08.02.22.02.43v1.59h-.44v-1.58c0-.18-.02-.31-.05-.4-.03-.09-.1-.16-.18-.21-.09-.05-.19-.08-.31-.08-.19,0-.35.06-.49.18-.13.12-.2.34-.2.68v1.42h-.44Z"/>
  <path class="cls-3" d="M88.17,93.01v-.33c-.16.26-.41.39-.73.39-.21,0-.4-.06-.57-.17-.17-.11-.31-.27-.4-.48-.1-.21-.14-.44-.14-.71s.04-.49.13-.7c.09-.21.21-.37.39-.49.17-.11.37-.17.58-.17.16,0,.3.03.42.1.12.07.22.15.3.26v-1.28h.44v3.58h-.41M86.78,91.71c0,.33.07.58.21.74.14.16.31.25.5.25s.35-.08.49-.23c.13-.16.2-.4.2-.72,0-.35-.07-.62-.21-.78-.14-.17-.31-.25-.51-.25s-.36.08-.49.24c-.13.16-.2.41-.2.75h0Z"/>
  <path class="cls-3" d="M89.37,89.93v-.51h.44v.51h-.44M89.37,93.01v-2.59h.44v2.59h-.44Z"/>
  <path class="cls-3" d="M90.33,93.01v-2.59h.4v.37c.19-.29.47-.43.83-.43.16,0,.3.03.43.09.13.06.23.13.3.22.07.09.11.2.14.32.02.08.02.22.02.43v1.59h-.44v-1.58c0-.18-.02-.31-.05-.4-.03-.09-.1-.16-.18-.21-.09-.05-.19-.08-.31-.08-.19,0-.35.06-.49.18-.13.12-.2.34-.2.68v1.42h-.44Z"/>
  <path class="cls-3" d="M93.13,93.22l.43.06c.02.13.07.23.15.29.11.08.26.12.45.12.2,0,.36-.04.47-.12s.19-.2.22-.34c.02-.09.03-.28.03-.56-.19.23-.43.34-.72.34-.36,0-.63-.13-.83-.39s-.29-.57-.29-.93c0-.25.04-.48.13-.68.09-.21.22-.37.39-.49.17-.11.37-.17.6-.17.31,0,.56.12.76.37v-.31h.41v2.24c0,.4-.04.69-.12.86-.08.17-.21.3-.39.4-.18.1-.4.15-.66.15-.31,0-.56-.07-.75-.21s-.28-.35-.28-.63M93.49,91.66c0,.34.07.59.2.74.13.16.31.23.51.23s.37-.08.51-.23c.14-.16.21-.4.21-.73s-.07-.56-.21-.72c-.14-.16-.31-.24-.51-.24s-.36.08-.5.24c-.14.16-.21.39-.21.71h0Z"/>
  <polygon class="cls-3" points="97.28 93.01 97.28 89.43 97.72 89.43 97.72 93.01 97.28 93.01 97.28 93.01"/>
  <path class="cls-3" d="M98.33,91.71c0-.48.13-.83.4-1.07.22-.19.5-.29.82-.29.36,0,.65.12.87.35.23.23.34.55.34.97,0,.33-.05.6-.15.79-.1.19-.24.34-.44.44-.19.11-.4.16-.62.16-.36,0-.66-.12-.88-.35-.22-.23-.33-.57-.33-1.01M98.78,91.71c0,.33.07.58.22.75.14.16.33.25.55.25s.4-.08.54-.25c.14-.17.22-.42.22-.76,0-.32-.07-.56-.22-.73-.14-.17-.32-.25-.54-.25s-.4.08-.55.25c-.14.16-.22.41-.22.74h0Z"/>
  <path class="cls-3" d="M101.19,92.23l.43-.07c.02.17.09.31.2.4.11.09.27.14.47.14s.35-.04.45-.12c.1-.08.15-.18.15-.29,0-.1-.04-.18-.13-.23-.06-.04-.21-.09-.45-.15-.32-.08-.55-.15-.67-.21-.12-.06-.22-.14-.28-.25-.06-.11-.1-.22-.1-.35,0-.11.03-.22.08-.32.05-.1.13-.18.22-.25.07-.05.16-.09.28-.13.12-.04.25-.05.38-.05.2,0,.38.03.53.09s.27.14.34.24c.07.1.12.23.15.4l-.43.06c-.02-.13-.08-.24-.17-.31-.09-.08-.22-.11-.4-.11-.2,0-.35.03-.43.1s-.13.14-.13.23c0,.06.02.11.05.15.04.05.09.09.17.12.04.02.17.05.39.11.31.08.53.15.65.21.12.05.22.13.29.23.07.1.1.23.1.38s-.04.29-.13.42c-.09.13-.21.23-.37.3-.16.07-.34.1-.55.1-.34,0-.59-.07-.77-.21-.18-.14-.29-.35-.34-.62h0Z"/>
  <path class="cls-3" d="M103.59,92.23l.43-.07c.02.17.09.31.2.4.11.09.27.14.47.14s.35-.04.45-.12c.1-.08.15-.18.15-.29,0-.1-.04-.18-.13-.23-.06-.04-.21-.09-.45-.15-.32-.08-.55-.15-.67-.21-.12-.06-.22-.14-.28-.25-.06-.11-.1-.22-.1-.35,0-.11.03-.22.08-.32.05-.1.13-.18.22-.25.07-.05.16-.09.28-.13.12-.04.25-.05.38-.05.2,0,.38.03.53.09s.27.14.34.24c.07.1.12.23.15.4l-.43.06c-.02-.13-.08-.24-.17-.31-.09-.08-.22-.11-.4-.11-.2,0-.35.03-.43.1-.09.07-.13.14-.13.23,0,.06.02.11.05.15.04.05.09.09.17.12.04.02.17.05.39.11.31.08.53.15.65.21.12.05.22.13.29.23.07.1.1.23.1.38s-.04.29-.13.42c-.09.13-.21.23-.37.3-.16.07-.34.1-.55.1-.34,0-.59-.07-.77-.21-.18-.14-.29-.35-.34-.62h0Z"/>
  <path class="cls-3" d="M107.71,93.01v-2.25h-.39v-.34h.39v-.28c0-.17.01-.3.05-.39.04-.11.12-.21.22-.28.11-.07.26-.11.45-.11.12,0,.26.01.41.04l-.07.38c-.09-.02-.18-.02-.26-.02-.13,0-.23.03-.28.09-.06.06-.08.16-.08.32v.24h.51v.34h-.51v2.25h-.44Z"/>
  <path class="cls-3" d="M110.75,93.01v-.38c-.2.29-.48.44-.82.44-.15,0-.3-.03-.43-.09-.13-.06-.23-.13-.3-.22-.06-.09-.11-.2-.13-.33-.02-.09-.03-.22-.03-.41v-1.61h.44v1.44c0,.23,0,.38.03.46.03.11.09.21.18.27.09.07.2.1.33.1s.26-.03.37-.1c.11-.07.2-.16.24-.28.05-.12.07-.29.07-.51v-1.39h.44v2.59h-.39Z"/>
  <path class="cls-3" d="M111.93,93.01v-2.59h.4v.37c.19-.29.47-.43.83-.43.16,0,.3.03.43.09.13.06.23.13.3.22.07.09.11.2.14.32.02.08.02.22.02.43v1.59h-.44v-1.58c0-.18-.02-.31-.05-.4-.03-.09-.1-.16-.18-.21-.09-.05-.19-.08-.31-.08-.19,0-.35.06-.49.18-.13.12-.2.34-.2.68v1.42h-.44Z"/>
  <path class="cls-3" d="M116.26,92.06l.43.06c-.05.3-.17.53-.36.7-.19.17-.43.25-.72.25-.35,0-.64-.11-.86-.35-.21-.23-.32-.57-.32-1,0-.28.05-.52.14-.73.09-.21.23-.37.42-.47.19-.11.4-.16.62-.16.28,0,.51.07.69.21.18.14.29.34.34.61l-.43.07c-.04-.17-.11-.31-.22-.39-.1-.09-.23-.13-.37-.13-.22,0-.4.08-.54.24-.14.16-.21.41-.21.75s.07.6.2.76c.13.16.31.24.52.24.17,0,.32-.05.43-.16.11-.1.19-.27.22-.49h0Z"/>
  <path class="cls-3" d="M118.17,92.61l.06.39c-.12.03-.23.04-.33.04-.16,0-.28-.02-.37-.08s-.15-.12-.19-.2c-.04-.08-.05-.26-.05-.52v-1.49h-.32v-.34h.32v-.64l.44-.26v.91h.44v.34h-.44v1.52c0,.12,0,.21.02.24.02.04.04.06.08.09.04.02.09.03.15.03.05,0,.11,0,.19-.02h0Z"/>
  <path class="cls-3" d="M118.41,89.93v-.51h.44v.51h-.44M118.41,93.01v-2.59h.44v2.59h-.44Z"/>
  <path class="cls-3" d="M119.45,91.71c0-.48.13-.83.4-1.07.22-.19.5-.29.82-.29.36,0,.65.12.87.35.23.23.34.55.34.97,0,.33-.05.6-.15.79-.1.19-.24.34-.44.44-.19.11-.4.16-.63.16-.36,0-.66-.12-.88-.35-.22-.23-.33-.57-.33-1.01M119.9,91.71c0,.33.07.58.22.75.14.16.33.25.55.25s.4-.08.54-.25c.14-.17.22-.42.22-.76,0-.32-.07-.56-.22-.73-.14-.17-.32-.25-.54-.25s-.4.08-.55.25c-.14.16-.22.41-.22.74h0Z"/>
  <path class="cls-3" d="M122.49,93.01v-2.59h.4v.37c.19-.29.47-.43.83-.43.16,0,.3.03.43.09.13.06.23.13.3.22.07.09.11.2.14.32.02.08.02.22.02.43v1.59h-.44v-1.58c0-.18-.02-.31-.05-.4-.03-.09-.1-.16-.18-.21-.09-.05-.19-.08-.31-.08-.19,0-.35.06-.49.18-.13.12-.2.34-.2.68v1.42h-.44Z"/>
  <path class="cls-3" d="M125.42,94.06h-.31c.49-.78.73-1.56.73-2.35,0-.31-.03-.61-.1-.91-.06-.24-.13-.48-.23-.7-.06-.15-.2-.39-.39-.73h.31c.31.41.53.82.68,1.23.12.35.19.73.19,1.11,0,.44-.09.86-.25,1.27s-.37.77-.61,1.07h0Z"/>
  <line class="cls-7" x1="26.43" y1="77" x2="26.23" y2="77"/>
  <path class="cls-3" d="M16.05,77.08c0-.42.04-.76.13-1.02.09-.26.22-.46.39-.6.17-.14.39-.21.65-.21.19,0,.36.04.51.12.14.08.26.19.36.33.1.14.17.32.22.53.05.21.08.49.08.84,0,.42-.04.76-.13,1.02-.09.26-.21.46-.39.6-.17.14-.39.21-.65.21-.34,0-.62-.12-.81-.37-.24-.3-.35-.78-.35-1.46M16.5,77.08c0,.59.07.98.21,1.17.14.19.31.29.51.29s.37-.1.51-.29c.14-.2.21-.59.21-1.17s-.07-.98-.21-1.17c-.14-.19-.31-.29-.51-.29s-.36.09-.48.26c-.15.22-.23.62-.23,1.21h0Z"/>
  <polygon class="cls-3" points="18.93 78.85 18.93 78.35 19.43 78.35 19.43 78.85 18.93 78.85 18.93 78.85"/>
  <path class="cls-3" d="M20.13,77.08c0-.42.04-.76.13-1.02.09-.26.22-.46.39-.6.17-.14.39-.21.65-.21.19,0,.36.04.51.12.14.08.26.19.36.33.1.14.17.32.22.53.05.21.08.49.08.84,0,.42-.04.76-.13,1.02-.09.26-.21.46-.39.6-.17.14-.39.21-.65.21-.34,0-.62-.12-.81-.37-.24-.3-.35-.78-.35-1.46M20.58,77.08c0,.59.07.98.21,1.17.14.19.31.29.51.29s.37-.1.51-.29c.14-.2.21-.59.21-1.17s-.07-.98-.21-1.17c-.14-.19-.31-.29-.51-.29s-.36.09-.48.26c-.15.22-.23.62-.23,1.21h0Z"/>
  <line class="cls-7" x1="26.43" y1="63.71" x2="26.23" y2="63.71"/>
  <path class="cls-3" d="M16.05,63.64c0-.42.04-.76.13-1.02.09-.26.22-.46.39-.6.17-.14.39-.21.65-.21.19,0,.36.04.51.12.14.08.26.19.36.33.1.14.17.32.22.53.05.21.08.49.08.84,0,.42-.04.76-.13,1.02-.09.26-.21.46-.39.6-.17.14-.39.21-.65.21-.34,0-.62-.12-.81-.37-.24-.3-.35-.78-.35-1.46M16.5,63.64c0,.59.07.98.21,1.17.14.19.31.29.51.29s.37-.1.51-.29c.14-.2.21-.59.21-1.17s-.07-.98-.21-1.17c-.14-.19-.31-.29-.51-.29s-.36.09-.48.26c-.15.22-.23.62-.23,1.21h0Z"/>
  <polygon class="cls-3" points="18.93 65.41 18.93 64.91 19.43 64.91 19.43 65.41 18.93 65.41 18.93 65.41"/>
  <path class="cls-3" d="M22.44,64.98v.42h-2.37c0-.1.01-.21.05-.31.06-.16.16-.32.29-.48.13-.16.32-.34.58-.54.39-.32.65-.57.79-.76.14-.19.21-.36.21-.53s-.06-.32-.19-.44c-.12-.12-.29-.18-.49-.18-.21,0-.38.06-.51.19s-.19.3-.19.53l-.45-.05c.03-.34.15-.59.35-.77.2-.18.47-.27.81-.27s.62.1.82.29c.2.19.3.43.3.71,0,.14-.03.28-.09.42s-.16.28-.29.44c-.13.15-.36.36-.68.63-.26.22-.43.37-.51.45-.08.08-.14.16-.19.24h1.76Z"/>
  <line class="cls-7" x1="26.43" y1="50.41" x2="26.23" y2="50.41"/>
  <path class="cls-3" d="M16.05,50.44c0-.42.04-.76.13-1.02.09-.26.22-.46.39-.6.17-.14.39-.21.65-.21.19,0,.36.04.51.12.14.08.26.19.36.33.1.14.17.32.22.53.05.21.08.49.08.84,0,.42-.04.76-.13,1.02-.09.26-.21.46-.39.6-.17.14-.39.21-.65.21-.34,0-.62-.12-.81-.37-.24-.3-.35-.78-.35-1.46M16.5,50.44c0,.59.07.98.21,1.17.14.19.31.29.51.29s.37-.1.51-.29c.14-.2.21-.59.21-1.17s-.07-.98-.21-1.17c-.14-.19-.31-.29-.51-.29s-.36.09-.48.26c-.15.22-.23.62-.23,1.21h0Z"/>
  <polygon class="cls-3" points="18.93 52.21 18.93 51.71 19.43 51.71 19.43 52.21 18.93 52.21 18.93 52.21"/>
  <path class="cls-3" d="M21.54,52.21v-.86h-1.55v-.4l1.63-2.32h.36v2.32h.48v.4h-.48v.86h-.44M21.54,50.95v-1.61l-1.12,1.61h1.12Z"/>
  <line class="cls-7" x1="26.43" y1="37.11" x2="26.23" y2="37.11"/>
  <path class="cls-3" d="M16.05,37.24c0-.42.04-.76.13-1.02.09-.26.22-.46.39-.6.17-.14.39-.21.65-.21.19,0,.36.04.51.12.14.08.26.19.36.33.1.14.17.32.22.53.05.21.08.49.08.84,0,.42-.04.76-.13,1.02-.09.26-.21.46-.39.6-.17.14-.39.21-.65.21-.34,0-.62-.12-.81-.37-.24-.3-.35-.78-.35-1.46M16.5,37.24c0,.59.07.98.21,1.17.14.19.31.29.51.29s.37-.1.51-.29c.14-.2.21-.59.21-1.17s-.07-.98-.21-1.17c-.14-.19-.31-.29-.51-.29s-.36.09-.48.26c-.15.22-.23.62-.23,1.21h0Z"/>
  <polygon class="cls-3" points="18.93 39.01 18.93 38.51 19.43 38.51 19.43 39.01 18.93 39.01 18.93 39.01"/>
  <path class="cls-3" d="M22.41,36.3l-.44.03c-.04-.17-.1-.3-.17-.38-.12-.12-.27-.19-.44-.19-.14,0-.26.04-.37.12-.14.1-.25.25-.33.44-.08.19-.12.47-.12.83.11-.16.23-.28.39-.36.15-.08.31-.12.48-.12.29,0,.54.11.75.32.21.21.31.49.31.83,0,.22-.05.43-.15.63-.1.19-.23.34-.4.44s-.36.15-.58.15c-.37,0-.66-.13-.9-.4-.23-.27-.35-.72-.35-1.33,0-.69.13-1.19.38-1.51.22-.27.52-.41.9-.41.28,0,.51.08.69.24.18.16.29.38.32.65M20.61,37.85c0,.15.03.3.1.43.07.14.16.24.27.32.11.07.24.11.36.11.19,0,.34-.08.48-.22.13-.15.2-.35.2-.61s-.07-.44-.2-.58c-.13-.14-.3-.21-.5-.21s-.37.07-.51.21c-.14.14-.21.33-.21.56h0Z"/>
  <line class="cls-7" x1="26.43" y1="23.82" x2="26.23" y2="23.82"/>
  <path class="cls-3" d="M16.05,23.8c0-.42.04-.76.13-1.02.09-.26.22-.46.39-.6.17-.14.39-.21.65-.21.19,0,.36.04.51.12.14.08.26.19.36.33.1.14.17.32.22.53.05.21.08.49.08.84,0,.42-.04.76-.13,1.02-.09.26-.21.46-.39.6-.17.14-.39.21-.65.21-.34,0-.62-.12-.81-.37-.24-.3-.35-.78-.35-1.46M16.5,23.8c0,.59.07.98.21,1.17.14.19.31.29.51.29s.37-.1.51-.29c.14-.2.21-.59.21-1.17s-.07-.98-.21-1.17c-.14-.19-.31-.29-.51-.29s-.36.09-.48.26c-.15.22-.23.62-.23,1.21h0Z"/>
  <polygon class="cls-3" points="18.93 25.57 18.93 25.07 19.43 25.07 19.43 25.57 18.93 25.57 18.93 25.57"/>
  <path class="cls-3" d="M20.8,23.63c-.18-.07-.32-.16-.41-.29s-.13-.27-.13-.44c0-.26.09-.48.28-.66.19-.18.44-.27.75-.27s.56.09.75.27c.19.18.29.4.29.66,0,.17-.04.31-.13.43-.09.12-.22.22-.4.28.22.07.39.19.5.35.11.16.17.35.17.57,0,.31-.11.56-.32.77-.22.21-.5.31-.85.31s-.64-.1-.85-.31c-.22-.21-.32-.47-.32-.78,0-.23.06-.43.18-.58.12-.16.29-.27.51-.32M20.72,22.88c0,.17.05.31.16.42.11.11.25.16.42.16s.31-.05.42-.16c.11-.11.16-.24.16-.39s-.06-.3-.17-.41c-.11-.11-.25-.17-.42-.17s-.31.05-.42.16c-.11.11-.17.24-.17.39M20.57,24.53c0,.12.03.25.09.36.06.12.15.21.27.27.12.06.24.1.38.1.21,0,.38-.07.52-.2.14-.13.21-.31.21-.52s-.07-.39-.21-.52c-.14-.14-.31-.21-.53-.21s-.38.07-.52.21c-.13.14-.2.31-.2.51h0Z"/>
  <line class="cls-7" x1="26.43" y1="10.52" x2="26.23" y2="10.52"/>
  <path class="cls-3" d="M17.7,12.37h-.44v-2.8c-.1.1-.24.2-.42.3-.17.1-.32.18-.46.23v-.42c.25-.11.46-.26.64-.42s.31-.32.39-.48h.28v3.59h0Z"/>
  <polygon class="cls-3" points="18.93 12.37 18.93 11.87 19.43 11.87 19.43 12.37 18.93 12.37 18.93 12.37"/>
  <path class="cls-3" d="M20.13,10.6c0-.42.04-.76.13-1.02.09-.26.22-.46.39-.6.17-.14.39-.21.65-.21.19,0,.36.04.51.12.14.08.26.19.36.33.1.14.17.32.22.53.05.21.08.49.08.84,0,.42-.04.76-.13,1.02-.09.26-.21.46-.39.6-.17.14-.39.21-.65.21-.34,0-.62-.12-.81-.37-.24-.3-.35-.78-.35-1.46M20.58,10.6c0,.59.07.98.21,1.17.14.19.31.29.51.29s.37-.1.51-.29c.14-.2.21-.59.21-1.17s-.07-.98-.21-1.17c-.14-.19-.31-.29-.51-.29s-.36.09-.48.26c-.15.22-.23.62-.23,1.21h0Z"/>
  <polygon class="cls-3" points="10.8 68.87 7.22 68.87 7.22 68.38 10.03 66.5 7.22 66.5 7.22 66.05 10.8 66.05 10.8 66.53 7.99 68.41 10.8 68.41 10.8 68.87 10.8 68.87"/>
  <path class="cls-3" d="M9.5,65.48c-.48,0-.83-.13-1.07-.4-.19-.22-.29-.5-.29-.82,0-.36.12-.65.35-.87.23-.23.55-.34.97-.34.33,0,.6.05.79.15.19.1.34.24.44.44.1.19.16.4.16.62,0,.36-.12.66-.35.88-.23.22-.57.33-1.01.33M9.5,65.03c.33,0,.58-.07.75-.22.16-.14.25-.33.25-.55s-.08-.4-.25-.54-.42-.22-.76-.22c-.32,0-.56.07-.73.22-.17.14-.25.32-.25.54s.08.4.25.55.41.22.74.22h0Z"/>
  <path class="cls-3" d="M10.8,62.68h-2.59v-.4h.39c-.18-.1-.31-.19-.36-.28-.06-.09-.09-.18-.09-.28,0-.15.05-.3.14-.45l.41.15c-.06.11-.1.21-.1.32,0,.1.03.18.09.26.06.08.14.13.24.16.16.05.33.07.51.07h1.36v.44h0Z"/>
  <path class="cls-3" d="M10.8,61h-2.59v-.39h.36c-.13-.08-.23-.19-.31-.32-.08-.13-.12-.29-.12-.46,0-.19.04-.35.12-.47.08-.12.19-.21.33-.26-.3-.21-.45-.47-.45-.8,0-.26.07-.45.21-.59.14-.14.36-.21.66-.21h1.78v.44h-1.63c-.18,0-.3.01-.38.04-.08.03-.14.08-.19.15-.05.08-.07.16-.07.26,0,.18.06.33.18.45.12.12.31.18.58.18h1.51v.44h-1.68c-.2,0-.34.04-.44.11-.1.07-.15.19-.15.35,0,.12.03.24.1.34.07.11.16.18.29.23.12.05.31.07.54.07h1.35v.44h0Z"/>
  <path class="cls-3" d="M10.48,54.99c.14.16.24.32.29.47.06.15.09.31.09.48,0,.29-.07.5-.21.66s-.32.23-.53.23c-.13,0-.24-.03-.35-.09-.1-.06-.19-.13-.25-.23-.06-.1-.11-.2-.14-.32-.02-.09-.04-.22-.07-.39-.04-.35-.09-.62-.15-.78-.06,0-.1,0-.11,0-.18,0-.31.04-.38.12-.1.11-.15.28-.15.5,0,.21.04.36.11.46.07.1.2.17.38.22l-.06.43c-.18-.04-.33-.1-.44-.19-.11-.09-.2-.22-.26-.39s-.09-.37-.09-.59.03-.4.08-.54.12-.24.2-.31c.08-.07.18-.11.3-.14.08-.01.21-.02.41-.02h.59c.41,0,.67,0,.78-.03.11-.02.21-.06.31-.11v.46c-.09.05-.2.08-.32.09M9.5,55.02c.07.16.12.4.17.72.03.18.06.31.09.38.03.08.08.13.14.17.06.04.13.06.21.06.12,0,.21-.04.29-.13.08-.09.12-.22.12-.39s-.04-.32-.11-.45c-.08-.13-.18-.23-.31-.29-.1-.05-.25-.07-.44-.07h-.16Z"/>
  <polygon class="cls-3" points="10.8 54.05 7.22 54.05 7.22 53.61 10.8 53.61 10.8 54.05 10.8 54.05"/>
  <path class="cls-3" d="M7.73,52.83h-.51v-.44h.51v.44M10.8,52.83h-2.59v-.44h2.59v.44h0Z"/>
  <path class="cls-3" d="M10.8,52.11h-.36l-1.89-1.65c0,.19.01.35.01.5v1.06h-.36v-2.12h.29l1.65,1.4.3.27c-.01-.2-.02-.38-.02-.55v-1.2h.38v2.29h0Z"/>
  <path class="cls-3" d="M9.97,47.46l.06-.45c.27.07.47.21.62.4.15.19.22.44.22.74,0,.38-.12.68-.35.9-.23.22-.56.33-.98.33s-.77-.11-1.02-.34c-.24-.22-.36-.52-.36-.87s.12-.63.35-.85.57-.33,1-.33c.03,0,.07,0,.12,0v1.93c.29-.02.5-.1.65-.24.15-.14.23-.32.23-.54,0-.16-.04-.3-.13-.41-.09-.11-.22-.21-.41-.27M9.25,48.91v-1.45c-.22.02-.38.08-.49.17-.17.14-.25.32-.25.54,0,.2.07.37.2.51.13.14.31.21.54.23h0Z"/>
  <path class="cls-3" d="M10.8,44.92h-.33c.26.16.39.41.39.73,0,.21-.06.4-.17.57s-.27.31-.48.4c-.21.1-.44.14-.71.14s-.49-.04-.7-.13c-.21-.09-.37-.21-.49-.39s-.17-.37-.17-.58c0-.16.03-.3.1-.42s.15-.22.26-.3h-1.28v-.44h3.58v.41M9.51,46.3c.33,0,.58-.07.74-.21s.25-.31.25-.5-.08-.35-.23-.49c-.16-.13-.4-.2-.72-.2-.35,0-.62.07-.78.21s-.25.31-.25.51.08.36.24.49c.16.13.41.2.75.2h0Z"/>
  <polygon class="cls-3" points="10.8 42.29 7.22 42.29 7.22 41.85 10.8 41.85 10.8 42.29 10.8 42.29"/>
  <path class="cls-3" d="M9.5,41.48c-.48,0-.83-.13-1.07-.4-.19-.22-.29-.5-.29-.82,0-.36.12-.65.35-.87.23-.23.55-.34.97-.34.33,0,.6.05.79.15.19.1.34.24.44.44.1.19.16.4.16.62,0,.36-.12.66-.35.88-.23.22-.57.33-1.01.33M9.5,41.03c.33,0,.58-.07.75-.22.16-.14.25-.33.25-.55s-.08-.4-.25-.54-.42-.22-.76-.22c-.32,0-.56.07-.73.22-.17.14-.25.32-.25.54s.08.4.25.55.41.22.74.22h0Z"/>
  <path class="cls-3" d="M10.03,38.61l-.07-.43c.17-.02.31-.09.4-.2.09-.11.14-.27.14-.47s-.04-.35-.12-.45c-.08-.1-.18-.15-.29-.15-.1,0-.18.04-.23.13-.04.06-.09.21-.15.45-.08.32-.15.55-.21.67-.06.12-.14.22-.25.28-.1.06-.22.1-.35.1-.11,0-.22-.03-.32-.08-.1-.05-.18-.13-.25-.22-.05-.07-.09-.16-.13-.28-.04-.12-.05-.25-.05-.38,0-.2.03-.38.09-.53s.14-.27.24-.34.23-.12.4-.15l.06.43c-.13.02-.24.08-.31.17-.08.09-.11.22-.11.4,0,.2.03.35.1.43.07.09.14.13.23.13.06,0,.11-.02.15-.05s.09-.09.12-.17c.02-.04.05-.17.11-.39.08-.31.15-.53.21-.65.05-.12.13-.22.23-.29.1-.07.23-.1.38-.1s.29.04.42.13c.13.09.23.21.3.37s.1.34.1.55c0,.34-.07.59-.21.77-.14.18-.35.29-.62.34h0Z"/>
  <path class="cls-3" d="M10.03,36.21l-.07-.43c.17-.02.31-.09.4-.2.09-.11.14-.27.14-.47s-.04-.35-.12-.45c-.08-.1-.18-.15-.29-.15-.1,0-.18.04-.23.13-.04.06-.09.21-.15.45-.08.32-.15.55-.21.67-.06.12-.14.22-.25.28-.1.06-.22.1-.35.1-.11,0-.22-.03-.32-.08-.1-.05-.18-.13-.25-.22-.05-.07-.09-.16-.13-.28-.04-.12-.05-.25-.05-.38,0-.2.03-.38.09-.53s.14-.27.24-.34.23-.12.4-.15l.06.43c-.13.02-.24.08-.31.17-.08.09-.11.22-.11.4,0,.2.03.35.1.43s.14.13.23.13c.06,0,.11-.02.15-.05s.09-.09.12-.17c.02-.04.05-.17.11-.39.08-.31.15-.53.21-.65.05-.12.13-.22.23-.29s.23-.1.38-.1.29.04.42.13.23.21.3.37.1.34.1.55c0,.34-.07.59-.21.77-.14.18-.35.29-.62.34h0Z"/>
  <path class="cls-3" d="M10.8,31.85h-2.25v.39h-.34v-.39h-.28c-.17,0-.3-.01-.39-.05-.11-.04-.21-.12-.28-.22-.07-.11-.11-.26-.11-.45,0-.12.01-.26.04-.41l.38.07c-.02.09-.02.18-.02.26,0,.13.03.23.09.28.06.06.16.08.32.08h.24v-.51h.34v.51h2.25v.44h0Z"/>
  <path class="cls-3" d="M10.8,29.06h-.38c.29.2.44.48.44.82,0,.15-.03.3-.09.43-.06.13-.13.23-.22.3-.09.06-.2.11-.33.13-.09.02-.22.03-.41.03h-1.61v-.44h1.44c.23,0,.38,0,.46-.03.11-.03.21-.09.27-.18s.1-.2.1-.33-.03-.26-.1-.37c-.07-.11-.16-.2-.28-.24-.12-.05-.29-.07-.51-.07h-1.39v-.44h2.59v.39h0Z"/>
  <path class="cls-3" d="M10.8,27.88h-2.59v-.4h.37c-.29-.19-.43-.47-.43-.83,0-.16.03-.3.09-.43.06-.13.13-.23.22-.3s.2-.11.32-.14c.08-.02.22-.02.43-.02h1.59v.44h-1.58c-.18,0-.31.02-.4.05-.09.03-.16.1-.21.18-.05.09-.08.19-.08.31,0,.19.06.35.18.49.12.13.34.2.68.2h1.42v.44h0Z"/>
  <path class="cls-3" d="M9.85,23.31l.06-.43c.3.05.53.17.7.36.17.19.25.43.25.72,0,.35-.11.64-.35.86-.23.21-.57.32-1,.32-.28,0-.52-.05-.73-.14-.21-.09-.37-.23-.47-.42-.1-.19-.16-.4-.16-.62,0-.28.07-.51.21-.69.14-.18.34-.29.61-.34l.07.43c-.17.04-.31.11-.39.22-.09.1-.13.23-.13.37,0,.22.08.4.24.54s.41.21.75.21.6-.07.76-.2c.16-.13.24-.31.24-.52,0-.17-.05-.32-.16-.43-.1-.11-.27-.19-.49-.22h0Z"/>
  <path class="cls-3" d="M10.41,21.64l.39-.06c.03.12.04.23.04.33,0,.16-.02.28-.08.37s-.12.15-.2.19c-.08.04-.26.05-.52.05h-1.49v.32h-.34v-.32h-.64l-.26-.44h.91v-.44h.34v.44h1.52c.12,0,.21,0,.24-.02.04-.02.06-.04.09-.08.02-.04.03-.09.03-.15,0-.05,0-.11-.02-.19h0Z"/>
  <path class="cls-3" d="M7.73,21.15h-.51v-.44h.51v.44M10.8,21.15h-2.59v-.44h2.59v.44h0Z"/>
  <path class="cls-3" d="M9.5,20.36c-.48,0-.83-.13-1.07-.4-.19-.22-.29-.5-.29-.82,0-.36.12-.65.35-.87.23-.23.55-.34.97-.34.33,0,.6.05.79.15.19.1.34.24.44.44.1.19.16.4.16.62,0,.36-.12.66-.35.88-.23.22-.57.33-1.01.33M9.5,19.91c.33,0,.58-.07.75-.22.16-.14.25-.33.25-.55s-.08-.4-.25-.54-.42-.22-.76-.22c-.32,0-.56.07-.73.22-.17.14-.25.32-.25.54s.08.4.25.55.41.22.74.22h0Z"/>
  <path class="cls-3" d="M10.8,17.32h-2.59v-.4h.37c-.29-.19-.43-.47-.43-.83,0-.16.03-.3.09-.43.06-.13.13-.23.22-.3s.2-.11.32-.14c.08-.02.22-.02.43-.02h1.59v.44h-1.58c-.18,0-.31.02-.4.05-.09.03-.16.1-.21.18-.05.09-.08.19-.08.31,0,.19.06.35.18.49.12.13.34.2.68.2h1.42v.44h0Z"/>
  <path class="cls-5" d="M26.43,77V7.2M129.88,77V7.2M26.43,77h103.45M26.43,7.2h103.45"/>
</svg>